#N canvas 0 0 800 849 10;
#X obj 71 56 inlet;
#X obj 617 267 *~;
#X obj 602 286 *~;
#X obj 106 244 unpack f f;
#X obj 196 294 s \$0-notevol;
#X obj 106 294 s \$0-notepitch;
#N canvas 0 0 1600 849 osc1 0;
#X obj 216 157 fmosc~;
#X obj 216 119 mtof;
#X obj 306 140 r \$0-o1wave;
#X msg 306 178 label osc1\$1;
#X obj 306 197 s \$0-o1wavec;
#X obj 216 100 +;
#X obj 231 81 r \$0-o1trans;
#X obj 216 262 *~;
#X obj 231 243 kline~ 10;
#X obj 231 176 r \$0-o1vol;
#X obj 231 195 t f f;
#X obj 231 224 *;
#X obj 216 62 r \$0-notepitch;
#X obj 216 281 outlet~;
#X obj 216 138 kline~ 5;
#X obj 306 159 map sin tri sqr saw;
#X connect 0 0 7 0;
#X connect 1 0 14 0;
#X connect 2 0 0 1;
#X connect 2 0 15 0;
#X connect 3 0 4 0;
#X connect 5 0 1 0;
#X connect 6 0 5 1;
#X connect 7 0 13 0;
#X connect 8 0 7 1;
#X connect 9 0 10 0;
#X connect 10 0 11 0;
#X connect 10 1 11 1;
#X connect 11 0 8 0;
#X connect 12 0 5 0;
#X connect 14 0 0 0;
#X connect 15 0 3 0;
#X restore 554 54 pd osc1;
#N canvas 0 0 800 849 osc2 0;
#X obj 226 148 fmosc~;
#X obj 226 110 mtof;
#X obj 226 91 +;
#X obj 226 253 *~;
#X obj 241 234 kline~ 10;
#X obj 241 186 t f f;
#X obj 241 215 *;
#X obj 226 53 r \$0-notepitch;
#X obj 226 272 outlet~;
#X obj 241 72 r \$0-o2trans;
#X obj 316 131 r \$0-o2wave;
#X msg 316 169 label osc2\$1;
#X obj 316 188 s \$0-o2wavec;
#X obj 241 167 r \$0-o2vol;
#X obj 226 129 kline~ 5;
#X obj 316 150 map sin tri sqr saw;
#X obj 274 269 s~ \$0-osc2;
#X connect 0 0 3 0;
#X connect 1 0 14 0;
#X connect 2 0 1 0;
#X connect 3 0 8 0;
#X connect 3 0 16 0;
#X connect 4 0 3 1;
#X connect 5 0 6 0;
#X connect 5 1 6 1;
#X connect 6 0 4 0;
#X connect 7 0 2 0;
#X connect 9 0 2 1;
#X connect 10 0 0 1;
#X connect 10 0 15 0;
#X connect 11 0 12 0;
#X connect 13 0 5 0;
#X connect 14 0 0 0;
#X connect 15 0 11 0;
#X restore 602 54 pd osc2;
#N canvas 0 0 800 849 osc3 0;
#X obj 346 377 fmosc~;
#X obj 346 339 mtof;
#X obj 346 320 +;
#X obj 346 482 *~;
#X obj 361 463 kline~ 10;
#X obj 361 415 t f f;
#X obj 361 444 *;
#X obj 346 282 r \$0-notepitch;
#X obj 346 501 outlet~;
#X obj 361 301 r \$0-o3trans;
#X obj 436 360 r \$0-o3wave;
#X obj 436 417 s \$0-o3wavec;
#X msg 436 398 label osc3\$1;
#X obj 361 396 r \$0-o3vol;
#X obj 346 358 kline~ 5;
#X obj 436 379 map sin tri sqr saw;
#X obj 394 498 s~ \$0-osc3;
#X connect 0 0 3 0;
#X connect 1 0 14 0;
#X connect 2 0 1 0;
#X connect 3 0 8 0;
#X connect 3 0 16 0;
#X connect 4 0 3 1;
#X connect 5 0 6 0;
#X connect 5 1 6 1;
#X connect 6 0 4 0;
#X connect 7 0 2 0;
#X connect 9 0 2 1;
#X connect 10 0 0 1;
#X connect 10 0 15 0;
#X connect 12 0 11 0;
#X connect 13 0 5 0;
#X connect 14 0 0 0;
#X connect 15 0 12 0;
#X restore 650 54 pd osc3;
#X obj 617 176 r \$0-notevol;
#X obj 602 119 /~;
#X obj 655 103 kline~ 10;
#N canvas 0 0 1600 849 vols 0;
#X obj 649 365 outlet;
#X obj 649 327 +;
#X obj 649 285 +;
#X obj 649 304 t b f;
#X obj 637 255 t b f;
#X obj 637 236 r \$0-o1vol;
#X obj 571 268 r \$0-o2vol;
#X obj 574 310 r \$0-o3vol;
#X obj 649 346 / 3;
#X connect 1 0 8 0;
#X connect 2 0 3 0;
#X connect 3 0 1 0;
#X connect 3 1 1 1;
#X connect 4 0 2 0;
#X connect 4 1 2 1;
#X connect 5 0 4 0;
#X connect 6 0 2 0;
#X connect 7 0 1 0;
#X connect 8 0 0 0;
#X restore 655 84 pd vols;
#N canvas 0 0 800 849 envelope 0;
#X obj 339 462 pack f f f f;
#X obj 407 326 mrange;
#X obj 332 326 t b f;
#X obj 407 345 t b f;
#X obj 494 326 t b f;
#X msg 339 481 0 \$1 1 \$2 \$3 \$4 \, freeze 1;
#X obj 198 500 outlet;
#X msg 198 424 attack \$1;
#X msg 198 443 decay \$1;
#X msg 198 462 sustain \$1;
#X msg 198 481 release \$1;
#X obj 339 500 s \$0-env;
#X obj 252 288 r \$0-attack;
#X obj 332 288 r \$0-decay;
#X obj 407 288 r \$0-sustain;
#X obj 494 288 r \$0-release;
#X connect 0 0 5 0;
#X connect 1 0 3 0;
#X connect 1 0 9 0;
#X connect 2 0 0 0;
#X connect 2 1 0 1;
#X connect 3 0 0 0;
#X connect 3 1 0 2;
#X connect 4 0 0 0;
#X connect 4 1 0 3;
#X connect 5 0 11 0;
#X connect 7 0 6 0;
#X connect 8 0 6 0;
#X connect 9 0 6 0;
#X connect 10 0 6 0;
#X connect 12 0 0 0;
#X connect 12 0 7 0;
#X connect 13 0 2 0;
#X connect 13 0 8 0;
#X connect 14 0 1 0;
#X connect 15 0 4 0;
#X connect 15 0 10 0;
#X restore 617 157 pd envelope;
#N canvas 0 0 800 849 filter 0;
#X obj 426 340 inlet~;
#X obj 402 600 mux~ 1 2 3 4;
#X obj 426 575 svf~;
#X obj 436 414 mtof;
#X obj 247 607 s \$0-f1typec;
#X obj 247 550 r \$0-f1type;
#X obj 247 569 map low high band notch;
#X obj 466 378 r \$0-f1trans;
#X obj 402 638 outlet~;
#X obj 436 395 +;
#X obj 436 359 r \$0-notepitch;
#X obj 402 619 /~ 2;
#X obj 456 575 r \$0-f1res;
#X msg 247 588 label \$1;
#N canvas 0 0 800 849 envelope 0;
#X obj 360 407 mrange;
#X obj 198 500 outlet;
#X msg 198 424 attack \$1;
#X msg 198 443 decay \$1;
#X msg 198 462 sustain \$1;
#X msg 198 481 release \$1;
#X obj 198 388 r \$0-fattack;
#X obj 282 388 r \$0-fdecay;
#X obj 360 388 r \$0-fsustain;
#X obj 450 388 r \$0-frelease;
#X connect 0 0 4 0;
#X connect 2 0 1 0;
#X connect 3 0 1 0;
#X connect 4 0 1 0;
#X connect 5 0 1 0;
#X connect 6 0 2 0;
#X connect 7 0 3 0;
#X connect 8 0 0 0;
#X connect 9 0 5 0;
#X restore 447 452 pd envelope;
#X obj 447 547 *~ 0;
#X obj 436 433 sig~;
#X obj 477 547 r \$0-fenvm;
#X obj 447 528 adsr~ 0 0 0 0 -1;
#X obj 447 471 r \$0-notevol;
#X obj 447 490 sel 0;
#X msg 447 509 bonk;
#X connect 0 0 2 0;
#X connect 1 0 11 0;
#X connect 2 0 1 0;
#X connect 2 1 1 1;
#X connect 2 2 1 2;
#X connect 2 3 1 3;
#X connect 3 0 16 0;
#X connect 5 0 6 0;
#X connect 5 0 1 0;
#X connect 6 0 13 0;
#X connect 7 0 9 1;
#X connect 9 0 3 0;
#X connect 10 0 9 0;
#X connect 11 0 8 0;
#X connect 12 0 2 2;
#X connect 13 0 4 0;
#X connect 14 0 18 0;
#X connect 15 0 2 1;
#X connect 16 0 2 1;
#X connect 17 0 15 1;
#X connect 18 0 15 0;
#X connect 19 0 20 0;
#X connect 20 0 21 0;
#X connect 20 1 18 0;
#X connect 21 0 18 0;
#X restore 602 138 pd filter;
#N canvas 0 0 800 849 interface 0;
#X obj 462 117 namecanvas \$0-gui;
#X obj 378 117 symbol \$0-gui;
#X obj 378 98 loadbang;
#X obj 333 98 * 71;
#X obj 333 117 + 18;
#X obj 333 60 r \$0-mode;
#X obj 333 136 pack f s;
#X floatatom 425 63 5 0 0 0 - - -;
#X obj 110 89 cnv 15 152 46 empty empty empty 10 6 0 14 -262144 -33289
0;
#X obj 110 89 hradio 14 1 0 4 \$0-f1type \$0-f1typec low 1 9 0 10 -262144
-1 -258113 0;
#X obj 205 89 hsl 55 14 0 1 0 0 \$0-f1res \$0-f1resc resonance -2 9
0 10 -262144 -1 -258113 0 1;
#X obj 166 89 nbx 3 14 -60 60 0 0 \$0-f1trans \$0-f1transc empty 0
-5 0 10 -262144 -1 -1 0 256;
#X obj 110 160 cnv 15 152 46 empty empty empty 10 6 0 14 -262144 -33289
0;
#X floatatom 110 190 6 0 999999 3 - #0-attackc #0-attack;
#X floatatom 148 190 6 0 999999 3 - #0-decayc #0-decay;
#X floatatom 186 190 6 0 127 3 - #0-sustainc #0-sustain;
#X floatatom 224 190 6 0 999999 3 - #0-releasec #0-release;
#X obj 34 143 r \$0-env;
#X floatatom 110 103 6 0 999999 3 - #0-fattackc #0-fattack;
#X floatatom 148 103 6 0 999999 3 - #0-fdecayc #0-fdecay;
#X floatatom 186 103 6 0 127 3 - #0-fsustainc #0-fsustain;
#X floatatom 224 103 6 0 999999 3 - #0-freleasec #0-frelease;
#X floatatom 110 119 5 0 0 1 env_mod #0-fenvmc #0-fenvm;
#X obj 333 79 clip 0 2;
#X obj 110 18 cnv 15 152 44 empty empty empty 10 6 0 14 -262144 -33289
0;
#X obj 116 162 envgen 136 24 1 0  ;
#X msg 333 155 \; \$2 donecanvasdialog 1 -1 2 0 -1 0 1 152 46 110 \$1
\, dirty 0;
#X obj 110 18 hradio 14 1 0 4 \$0-o1wave \$0-o1wavec osc1sin 1 9 0
10 -262144 -1 -258113 0;
#X obj 205 18 hsl 55 14 0 1 0 0 \$0-o1vol \$0-o1volc osc1vol -2 9 0
10 -262144 -1 -258113 0 1;
#X obj 166 18 nbx 3 14 -60 60 0 0 \$0-o1trans \$0-o1transc empty 0
-5 0 10 -262144 -1 -1 0 256;
#X obj 110 32 hradio 14 1 0 4 \$0-o2wave \$0-o2wavec osc2sin 1 9 0
10 -262144 -1 -258113 0;
#X obj 205 32 hsl 55 14 0 1 0 0 \$0-o2vol \$0-o2volc osc2vol -2 9 0
10 -262144 -1 -258113 0 1;
#X obj 166 32 nbx 3 14 -60 60 0 0 \$0-o2trans \$0-o2transc empty 0
-5 0 10 -262144 -1 -1 0 256;
#X obj 110 46 hradio 14 1 0 4 \$0-o3wave \$0-o3wavec osc3sin 1 9 0
10 -262144 -1 -258113 0;
#X obj 205 46 hsl 55 14 0 1 0 0 \$0-o3vol \$0-o3volc osc3vol -2 9 0
10 -262144 -1 -258113 0 1;
#X obj 166 46 nbx 3 14 -60 60 0 0 \$0-o3trans \$0-o3transc empty 0
-5 0 10 -262144 -1 -1 0 256;
#X connect 1 0 6 1;
#X connect 2 0 1 0;
#X connect 3 0 4 0;
#X connect 4 0 6 0;
#X connect 5 0 23 0;
#X connect 6 0 26 0;
#X connect 7 0 23 0;
#X connect 17 0 25 0;
#X connect 23 0 3 0;
#X coords 0 -1 1 1 152 46 2 110 160;
#X restore 335 87 pd interface;
#X obj 617 235 adsr~ 0 0 0 0 -1;
#X obj 617 195 sel 0;
#X msg 617 214 bonk;
#X obj 602 305 outlet~;
#X obj 445 73 hradio 14 1 0 3 \$0-mode empty empty 0 -8 0 10 -262144
-1 -1 0;
#X obj 445 55 lb 0;
#N canvas 0 0 800 849 settings 0;
#X obj 60 40 inlet;
#X obj 60 59 unpack s f;
#X obj 60 95 pack s f \$0;
#X obj -42 95 s \$0-daisy-chain;
#X obj -42 76 prepent set;
#X msg 60 114 \; \$3-\$1c \$2;
#X connect 0 0 1 0;
#X connect 0 0 4 0;
#X connect 1 0 2 0;
#X connect 1 1 2 1;
#X connect 2 0 5 0;
#X connect 4 0 3 0;
#X restore 141 225 pd settings;
#X obj 71 75 route float list set load save;
#N canvas 0 0 800 849 load 0;
#X obj 244 348 inlet;
#X obj 271 405 pack s \$0;
#X msg 271 386 /home/modula/.pd/saves/adder-\$1;
#X obj 244 367 t b s;
#X obj 244 475 until;
#X obj 244 494 count 21;
#X msg 244 456 21;
#X obj 244 513 t f f;
#X obj 244 532 tabread \$0-savetable;
#X msg 244 659 \; 1780-releasec \$1;
#X obj 271 596 pack s \$0;
#X msg 271 424 \; \$2-savetable read \$1;
#X msg 271 615 set \, addsemi \, add2 \$2-\$1c \, adddollar 1;
#X obj 271 551 map o1wave o1trans o1vol o2wave o2trans o2vol o3wave
o3trans o3vol f1type f1trans f1res fattack fdecay fsustain frelease
fenvm attack decay sustain release;
#X connect 0 0 3 0;
#X connect 1 0 11 0;
#X connect 2 0 1 0;
#X connect 3 0 6 0;
#X connect 3 1 2 0;
#X connect 4 0 5 0;
#X connect 5 0 7 0;
#X connect 6 0 4 0;
#X connect 7 0 8 0;
#X connect 7 1 13 0;
#X connect 8 0 9 0;
#X connect 10 0 12 0;
#X connect 12 0 9 0;
#X connect 13 0 10 0;
#X restore 177 206 pd load;
#N canvas 0 0 800 849 save 0;
#X obj 209 136 inlet;
#X obj 245 136 tabwrite \$0-savetable;
#X obj 377 136 table \$0-savetable 21;
#X msg 278 67 \$2 \$1;
#X obj 278 86 unpack f f;
#X obj 209 155 route bang symbol;
#X obj 321 260 pack s \$0;
#X obj 258 373 print;
#X obj 258 222 emptysymbol;
#X msg 321 241 /home/modula/.pd/saves/adder-\$1;
#X msg 258 311 cant write table - no name provided (open Adder~ and
enter one in the symbol box);
#X msg 284 343 Adder~ data saved as \$1;
#X msg 321 279 \; \$2-savetable write \$1;
#X obj 278 9 rmap \$0-o1wave \$0-o1trans \$0-o1vol \$0-o2wave \$0-o2trans
\$0-o2vol \$0-o3wave \$0-o3trans \$0-o3vol \$0-f1type \$0-f1trans \$0-f1res
\$0-fattack \$0-fdecay \$0-fsustain \$0-frelease \$0-fenvm \$0-attack
\$0-decay \$0-sustain \$0-release;
#X connect 0 0 5 0;
#X connect 3 0 4 0;
#X connect 4 0 1 0;
#X connect 4 1 1 1;
#X connect 5 0 10 0;
#X connect 5 1 8 0;
#X connect 5 2 8 0;
#X connect 6 0 12 0;
#X connect 6 0 11 0;
#X connect 8 0 10 0;
#X connect 8 1 9 0;
#X connect 9 0 6 0;
#X connect 10 0 7 0;
#X connect 11 0 7 0;
#X connect 13 0 3 0;
#X restore 212 150 pd save;
#X symbolatom 177 188 15 0 0 0 - - -;
#X symbolatom 212 132 15 0 0 0 - - -;
#X obj 177 169 symbol \$1;
#X obj 158 133 loadbang;
#X obj 431 73 bng 14 250 50 0 \$0-save empty sv 1 7 0 10 -258113 -1
-1;
#X obj 212 113 symbol \$1;
#X obj 217 94 r \$0-save;
#X obj 650 305 outlet;
#X obj 650 286 r \$0-daisy-chain;
#X connect 0 0 23 0;
#X connect 1 0 2 1;
#X connect 2 0 19 0;
#X connect 3 0 5 0;
#X connect 3 1 4 0;
#X connect 6 0 10 0;
#X connect 7 0 10 0;
#X connect 8 0 10 0;
#X connect 9 0 17 0;
#X connect 10 0 14 0;
#X connect 11 0 10 1;
#X connect 12 0 11 0;
#X connect 13 0 16 0;
#X connect 14 0 2 0;
#X connect 16 0 1 1;
#X connect 16 0 1 0;
#X connect 17 0 18 0;
#X connect 17 1 16 0;
#X connect 18 0 16 0;
#X connect 21 0 20 0;
#X connect 23 1 3 0;
#X connect 23 2 22 0;
#X connect 23 3 28 0;
#X connect 23 4 31 0;
#X connect 26 0 24 0;
#X connect 27 0 25 0;
#X connect 28 0 26 0;
#X connect 29 0 28 0;
#X connect 31 0 27 0;
#X connect 32 0 31 0;
#X connect 34 0 33 0;
#X coords 0 -1 1 1 152 62 1 335 73;
