#N canvas 800 29 800 849 10;
#X obj 329 359 tabosc4~ \$0-xx;
#X obj 210 451 tabwrite~ \$0-xx;
#X obj 446 296 t b a;
#X obj 446 412 s \$0-xx;
#X obj 473 368 prepent sinesum;
#X msg 446 315 normalize;
#X msg 446 277 1;
#X obj 391 236 loadbang;
#X msg 391 255 set 1;
#X obj 446 196 prepent set;
#X obj 279 69 inlet;
#X obj 329 418 outlet~;
#X obj 318 187 t b f;
#X msg 392 182 60;
#X floatatom 100 115 5 0 0 1 freq #0-freqi #0-freq;
#X obj 329 340 f;
#X obj 329 321 r \$0-freq;
#X obj 160 100 bng 15 250 50 0 \$0-bang \$0-bangi empty 17 7 0 10 -262144
-1 -1;
#X obj 345 211 s \$0-freqi;
#X floatatom 100 131 5 0 500 1 metro #0-metroi #0-metro;
#X obj 367 151 s \$0-metroi;
#X obj 210 345 r \$0-metro;
#X obj 492 242 r \$0-bang;
#X obj 268 212 s \$0-bangi;
#X obj 279 88 route bang float freq metro sine sinesum;
#X obj 204 308 table \$0-xx 515;
#X obj 473 349 prepent 512;
#X obj 210 364 ometro 20;
#X msg 397 127 20;
#X obj 329 399 hip~ 5;
#X connect 0 0 1 0;
#X connect 0 0 29 0;
#X connect 2 0 5 0;
#X connect 2 1 26 0;
#X connect 4 0 3 0;
#X connect 5 0 3 0;
#X connect 6 0 2 0;
#X connect 7 0 8 0;
#X connect 7 0 13 0;
#X connect 7 0 28 0;
#X connect 8 0 6 0;
#X connect 9 0 6 0;
#X connect 10 0 24 0;
#X connect 12 0 23 0;
#X connect 12 1 18 0;
#X connect 13 0 18 0;
#X connect 15 0 0 0;
#X connect 16 0 15 0;
#X connect 21 0 27 0;
#X connect 22 0 6 0;
#X connect 24 0 23 0;
#X connect 24 1 12 0;
#X connect 24 2 12 0;
#X connect 24 3 20 0;
#X connect 24 4 9 0;
#X connect 24 5 9 0;
#X connect 24 6 9 0;
#X connect 26 0 4 0;
#X connect 27 0 1 0;
#X connect 28 0 20 0;
#X connect 29 0 11 0;
#X coords 0 -1 1 1 75 49 1 100 100;
