#N canvas 0 0 800 849 10;
#X obj 129 150 inlet~;
#X floatatom 86 115 2 0 12 0 - #0-f1type #0-typs1;
#X obj 397 306 inlet;
#X floatatom 128 115 3 0 127 0 - #0-f1res #0-ress1;
#X obj 151 116 hsl 20 16 0 127 0 0 \$0-lvls1 \$0-f1vol empty -2 -8
0 10 -262144 -13381 -1 1900 1;
#X floatatom 86 131 2 0 12 0 - #0-f2type #0-typs2;
#X floatatom 128 131 3 0 127 0 - #0-f2res #0-ress2;
#X obj 151 132 hsl 20 15 0 127 0 0 \$0-lvls2 \$0-f2vol empty -2 -8
0 10 -262144 -16662 -1 416 1;
#X obj 238 588 outlet~;
#X obj 338 512 *~;
#X obj 353 493 kline~ 10;
#X obj 151 100 hsl 20 16 0 127 0 0 \$0-lvls0 \$0-dryvol empty -2 -8
0 10 -262144 -86277 -1 712 1;
#X text -29 67 filter type (0=bypass \, 1=lp \, 2=hp \, 3=bp \, 4=br
\, 5=ap);
#X obj 353 455 r \$0-lvls0;
#X obj 129 533 *~;
#X obj 144 514 kline~ 10;
#X obj 238 533 *~;
#X obj 253 514 kline~ 10;
#X obj 526 416 pack s f \$0;
#X obj 526 397 unpack s f;
#X msg 526 435 \; \$3-\$1 \$2;
#X floatatom 100 115 2 -3 3 0 - #0-f1oct #0-octs1;
#X floatatom 100 131 2 -3 3 0 - #0-f2oct #0-octs2;
#X floatatom 114 115 2 -7 7 0 - #0-f1semi #0-sems1;
#X floatatom 114 131 2 -7 7 0 - #0-f2semi #0-sems2;
#N canvas 800 0 800 849 midi 0;
#X obj 168 111 r \$0-oct1m;
#X obj 234 111 r \$0-sem1m;
#X obj 102 149 round;
#X obj 102 168 + 1;
#X obj 168 149 round;
#X obj 168 130 mrange 6;
#X obj 168 168 - 3;
#X obj 234 149 round;
#X obj 234 130 mrange 14;
#X obj 234 168 - 7;
#X obj 168 187 s \$0-oct1;
#X obj 234 187 s \$0-sem1;
#X obj 300 187 s \$0-mod1;
#X obj 102 259 round;
#X obj 102 278 + 1;
#X obj 168 259 round;
#X obj 168 240 mrange 6;
#X obj 168 278 - 3;
#X obj 234 259 round;
#X obj 234 240 mrange 14;
#X obj 234 278 - 7;
#X obj 168 221 r \$0-oct2m;
#X obj 234 221 r \$0-sem2m;
#X obj 300 297 s \$0-mod2;
#X obj 234 297 s \$0-sem2;
#X obj 168 297 s \$0-oct2;
#X obj 102 111 r \$0-typ1m;
#X obj 102 221 r \$0-typ2m;
#X obj 300 111 r \$0-res1m;
#X obj 300 221 r \$0-res2m;
#X obj 102 130 mrange 13;
#X obj 102 240 mrange 13;
#X obj 102 187 s \$0-typ1;
#X obj 102 297 s \$0-typ2;
#X connect 0 0 5 0;
#X connect 1 0 8 0;
#X connect 2 0 3 0;
#X connect 3 0 32 0;
#X connect 4 0 6 0;
#X connect 5 0 4 0;
#X connect 6 0 10 0;
#X connect 7 0 9 0;
#X connect 8 0 7 0;
#X connect 9 0 11 0;
#X connect 13 0 14 0;
#X connect 14 0 33 0;
#X connect 15 0 17 0;
#X connect 16 0 15 0;
#X connect 17 0 25 0;
#X connect 18 0 20 0;
#X connect 19 0 18 0;
#X connect 20 0 24 0;
#X connect 21 0 16 0;
#X connect 22 0 19 0;
#X connect 26 0 30 0;
#X connect 27 0 31 0;
#X connect 28 0 12 0;
#X connect 29 0 23 0;
#X connect 30 0 2 0;
#X connect 31 0 13 0;
#X restore 437 119 pd midi;
#X obj 245 150 inlet~;
#X obj 439 450 outlet;
#X obj 143 375 r \$0-ress1;
#X obj 252 375 r \$0-ress2;
#X obj 150 432 r \$0-typs1;
#X obj 259 432 r \$0-typs2;
#N canvas 0 0 1600 849 f1mult 0;
#X obj 104 188 outlet;
#X obj 104 120 * 12;
#X obj 104 150 +;
#X obj 104 101 r \$0-octs1;
#X obj 170 101 r \$0-sems1;
#X obj 170 120 t b f;
#X obj 104 169 transposer;
#X connect 1 0 2 0;
#X connect 2 0 6 0;
#X connect 3 0 1 0;
#X connect 4 0 5 0;
#X connect 5 0 2 0;
#X connect 5 1 2 1;
#X connect 6 0 0 0;
#X restore 157 327 pd f1mult;
#N canvas 800 0 800 849 f2mult 0;
#X obj 104 188 outlet;
#X obj 104 120 * 12;
#X obj 104 150 +;
#X obj 170 120 t b f;
#X obj 104 101 r \$0-octs2;
#X obj 170 101 r \$0-sems2;
#X obj 104 169 transposer;
#X connect 1 0 2 0;
#X connect 2 0 6 0;
#X connect 3 0 2 0;
#X connect 3 1 2 1;
#X connect 4 0 1 0;
#X connect 5 0 3 0;
#X connect 6 0 0 0;
#X restore 266 327 pd f2mult;
#X obj 136 346 *~ 1;
#X obj 245 346 *~ 1;
#X obj 143 413 kline~ 10;
#X obj 252 413 kline~ 10;
#X obj 397 325 route bang list symbol;
#N canvas 800 0 800 849 params 0;
#X obj 50 87 inlet;
#X obj 50 125 f;
#X obj 50 385 outlet;
#X text 249 172 this subpatch outputs the "params" message which \,
when sent to a message \, will reset the message to save the state
of the filters~;
#X obj 65 106 r \$0-typs1;
#X obj 65 144 r \$0-typs2;
#X obj 80 163 r \$0-octs1;
#X obj 95 182 r \$0-octs2;
#X obj 111 201 r \$0-sems1;
#X obj 126 220 r \$0-sems2;
#X obj 141 239 r \$0-ress1;
#X obj 157 258 r \$0-ress2;
#X obj 172 277 r \$0-lvls1;
#X obj 187 296 r \$0-lvls2;
#X obj 203 315 r \$0-lvls0;
#X obj 50 334 pack 1 1 1 0 0 0 0 0 0 0 0;
#X msg 50 353 params set list typ1 \$1 typ2 \$2 oct1 \$3 oct2 \$4 sem1
\$5 sem2 \$6 res1 \$7 res2 \$8 lvl1 \$9 lvl2 \$10 lvl0 \$11;
#X connect 0 0 1 0;
#X connect 1 0 15 0;
#X connect 4 0 1 1;
#X connect 5 0 15 1;
#X connect 6 0 15 2;
#X connect 7 0 15 3;
#X connect 8 0 15 4;
#X connect 9 0 15 5;
#X connect 10 0 15 6;
#X connect 11 0 15 7;
#X connect 12 0 15 8;
#X connect 13 0 15 9;
#X connect 14 0 15 10;
#X connect 15 0 16 0;
#X connect 16 0 2 0;
#X restore 397 344 pd params;
#X obj 343 325 loadbang;
#X obj 326 327 bng 15 250 50 0 empty empty empty 17 7 0 10 -262144
-1 -1;
#X obj 343 353 f \$0;
#N canvas 0 0 1600 849 paramload 0;
#X obj 40 42 inlet;
#X obj 40 80 outlet;
#X obj 40 61 list split 2;
#X obj 118 61 route bang;
#X connect 0 0 2 0;
#X connect 2 0 1 0;
#X connect 2 1 3 0;
#X connect 3 1 2 0;
#X restore 440 363 pd paramload;
#N canvas 0 0 800 849 loader 0;
#X obj 454 121 inlet;
#X restore 329 155 pd loader;
#X obj 329 136 symbol \$1;
#N canvas 0 0 1600 849 saver 0;
#X obj 40 40 inlet;
#X restore 329 235 pd saver;
#X symbolatom 329 217 10 0 0 0 - - -;
#X text 37 35 type \, octave shift \, semitones \, res \, volume;
#X obj 353 474 / 127;
#X obj 253 495 / 127;
#X obj 253 476 r \$0-lvls2;
#X obj 144 495 / 127;
#X obj 144 476 r \$0-lvls1;
#X msg 343 372 filtersnum \$1;
#X obj 329 117 loadbang;
#X obj 143 394 mrange 4;
#X obj 252 394 mrange 4;
#X obj 129 451 mmf~;
#X msg 337 413 numfilters \$1;
#X obj 337 394 route float;
#X obj 238 451 mmf~;
#X connect 0 0 9 0;
#X connect 0 0 58 0;
#X connect 0 0 61 0;
#X connect 2 0 38 0;
#X connect 9 0 8 0;
#X connect 10 0 9 1;
#X connect 13 0 49 0;
#X connect 14 0 8 0;
#X connect 15 0 14 1;
#X connect 16 0 8 0;
#X connect 17 0 16 1;
#X connect 18 0 20 0;
#X connect 19 0 18 0;
#X connect 19 1 18 1;
#X connect 26 0 34 0;
#X connect 26 0 35 0;
#X connect 28 0 56 0;
#X connect 29 0 57 0;
#X connect 30 0 58 3;
#X connect 31 0 61 3;
#X connect 32 0 34 1;
#X connect 33 0 35 1;
#X connect 34 0 58 1;
#X connect 35 0 61 1;
#X connect 36 0 58 2;
#X connect 37 0 61 2;
#X connect 38 0 39 0;
#X connect 38 0 42 0;
#X connect 38 1 43 0;
#X connect 38 2 19 0;
#X connect 38 3 19 0;
#X connect 39 0 27 0;
#X connect 40 0 42 0;
#X connect 41 0 42 0;
#X connect 42 0 54 0;
#X connect 43 0 19 0;
#X connect 45 0 44 0;
#X connect 47 0 46 0;
#X connect 49 0 10 0;
#X connect 50 0 17 0;
#X connect 51 0 50 0;
#X connect 52 0 15 0;
#X connect 53 0 52 0;
#X connect 54 0 27 0;
#X connect 55 0 45 0;
#X connect 56 0 36 0;
#X connect 57 0 37 0;
#X connect 58 0 14 0;
#X connect 58 1 60 0;
#X connect 59 0 27 0;
#X connect 60 0 59 0;
#X connect 60 1 27 0;
#X connect 61 0 16 0;
#X connect 61 1 60 0;
#X coords 0 -1 1 1 87 47 1 86 100;
