#N canvas 0 0 800 829 10;
#X obj 168 -96 knob 16 16 0 1 0 0 \$0a1 \$0none empty 0 -8 192 8 -262144
-4160 -1 1500 1;
#X obj 188 -96 knob 16 16 0 1 0 0 \$0a2 \$0none empty 0 -8 192 8 -262144
-4160 -1 1500 1;
#X obj 208 -96 knob 16 16 0 1 0 0 \$0a3 \$0none empty 0 -8 192 8 -262144
-4160 -1 1500 1;
#X obj 228 -96 knob 16 16 0 1 0 0 \$0a4 \$0none empty 0 -8 192 8 -262144
-4160 -1 1500 1;
#X obj 168 -76 knob 16 16 0 1 0 0 \$0b1 \$0none empty 0 -8 192 8 -262144
-4160 -1 1500 1;
#X obj 188 -76 knob 16 16 0 1 0 0 \$0b2 \$0none empty 0 -8 192 8 -262144
-4160 -1 1500 1;
#X obj 208 -76 knob 16 16 0 1 0 0 \$0b3 \$0none empty 0 -8 192 8 -262144
-4160 -1 1500 1;
#X obj 228 -76 knob 16 16 0 1 0 0 \$0b4 \$0none empty 0 -8 192 8 -262144
-4160 -1 1500 1;
#X obj 168 -56 knob 16 16 0 1 0 0 \$0c1 \$0none empty 0 -8 192 8 -262144
-4160 -1 1500 1;
#X obj 188 -56 knob 16 16 0 1 0 0 \$0c2 \$0none empty 0 -8 192 8 -262144
-4160 -1 1500 1;
#X obj 208 -56 knob 16 16 0 1 0 0 \$0c3 \$0none empty 0 -8 192 8 -262144
-4160 -1 1500 1;
#X obj 228 -56 knob 16 16 0 1 0 0 \$0c4 \$0none empty 0 -8 192 8 -262144
-4160 -1 1500 1;
#X obj 168 -36 knob 16 16 0 1 0 0 \$0d1 \$0none empty 0 -8 192 8 -262144
-4160 -1 1500 1;
#X obj 188 -36 knob 16 16 0 1 0 0 \$0d2 \$0none empty 0 -8 192 8 -262144
-4160 -1 1500 1;
#X obj 208 -36 knob 16 16 0 1 0 0 \$0d3 \$0none empty 0 -8 192 8 -262144
-4160 -1 1500 1;
#X obj 228 -36 knob 16 16 0 1 0 0 \$0d4 \$0none empty 0 -8 192 8 -262144
-4160 -1 1500 1;
#X obj 168 -116 knob 16 16 0 1 0 0 \$0f1 \$0none empty 0 -8 192 8 -262144
-159808 -1 1500 1;
#X obj 188 -116 knob 16 16 0 1 0 0 \$0f2 \$0none empty 0 -8 192 8 -262144
-159808 -1 1500 1;
#X obj 208 -116 knob 16 16 0 1 0 0 \$0f3 \$0none empty 0 -8 192 8 -262144
-159808 -1 1500 1;
#X obj 228 -116 knob 16 16 0 1 0 0 \$0f4 \$0none empty 0 -8 192 8 -262144
-159808 -1 1500 1;
#X text 247 -118 base freq;
#N canvas 0 0 1600 829 internals 0;
#X obj 705 333 osc~;
#X obj 803 334 osc~;
#X obj 905 334 osc~;
#X obj 139 152 r \$0a1;
#X obj 124 199 *~;
#X obj 139 176 * 1000;
#X text 637 333 1;
#X text 737 341 2;
#X text 841 334 3;
#X text 943 340 4;
#X obj 184 199 *~;
#X obj 199 176 * 1000;
#X obj 199 152 r \$0b1;
#X obj 244 199 *~;
#X obj 259 176 * 1000;
#X obj 304 199 *~;
#X obj 319 176 * 1000;
#X obj 259 152 r \$0c1;
#X obj 319 152 r \$0d1;
#X obj 52 176 * 1000;
#X obj 52 199 sig~ 0.1;
#X obj 461 199 *~;
#X obj 476 176 * 1000;
#X obj 521 199 *~;
#X obj 536 176 * 1000;
#X obj 581 199 *~;
#X obj 596 176 * 1000;
#X obj 641 199 *~;
#X obj 656 176 * 1000;
#X obj 389 176 * 1000;
#X obj 389 199 sig~ 0.1;
#X obj 476 152 r \$0a2;
#X obj 536 152 r \$0b2;
#X obj 596 152 r \$0c2;
#X obj 656 152 r \$0d2;
#X obj 794 199 *~;
#X obj 809 176 * 1000;
#X obj 854 199 *~;
#X obj 869 176 * 1000;
#X obj 914 199 *~;
#X obj 929 176 * 1000;
#X obj 974 199 *~;
#X obj 989 176 * 1000;
#X obj 722 176 * 1000;
#X obj 722 199 sig~ 0.1;
#X obj 1131 199 *~;
#X obj 1146 176 * 1000;
#X obj 1191 199 *~;
#X obj 1206 176 * 1000;
#X obj 1251 199 *~;
#X obj 1266 176 * 1000;
#X obj 1311 199 *~;
#X obj 1326 176 * 1000;
#X obj 1059 176 * 1000;
#X obj 1059 199 sig~ 0.1;
#X obj 809 152 r \$0a3;
#X obj 869 152 r \$0b3;
#X obj 929 152 r \$0c3;
#X obj 989 152 r \$0d3;
#X obj 1146 152 r \$0a4;
#X obj 1206 152 r \$0b4;
#X obj 1266 152 r \$0c4;
#X obj 1326 152 r \$0d4;
#X obj 613 518 outlet~;
#X obj 613 433 *~;
#X obj 628 401 r \$0l1;
#X obj 683 433 *~;
#X obj 753 433 *~;
#X obj 823 433 *~;
#X obj 698 401 r \$0l2;
#X obj 768 401 r \$0l3;
#X obj 838 399 r \$0l4;
#X obj 52 151 r \$0f1;
#X obj 389 151 r \$0f2;
#X obj 722 151 r \$0f3;
#X obj 1059 151 r \$0f4;
#X obj 580 364 delwrite~ \$0-a 10;
#X obj 542 57 delread~ \$0-a 0;
#X obj 695 365 delwrite~ \$0-b 10;
#X obj 806 363 delwrite~ \$0-c 10;
#X obj 918 363 delwrite~ \$0-d 10;
#X obj 652 58 delread~ \$0-b 0;
#X obj 750 55 delread~ \$0-c 0;
#X obj 852 53 delread~ \$0-d 0;
#X obj 1172 45 loadbang;
#X msg 1172 71 \; pd dsp 1;
#X obj 603 330 osc~;
#X connect 0 0 66 0;
#X connect 0 0 78 0;
#X connect 1 0 67 0;
#X connect 1 0 79 0;
#X connect 2 0 68 0;
#X connect 2 0 80 0;
#X connect 3 0 5 0;
#X connect 4 0 86 0;
#X connect 5 0 4 1;
#X connect 10 0 86 0;
#X connect 11 0 10 1;
#X connect 12 0 11 0;
#X connect 13 0 86 0;
#X connect 14 0 13 1;
#X connect 15 0 86 0;
#X connect 16 0 15 1;
#X connect 17 0 14 0;
#X connect 18 0 16 0;
#X connect 19 0 20 0;
#X connect 20 0 86 0;
#X connect 21 0 0 0;
#X connect 22 0 21 1;
#X connect 23 0 0 0;
#X connect 24 0 23 1;
#X connect 25 0 0 0;
#X connect 26 0 25 1;
#X connect 27 0 0 0;
#X connect 28 0 27 1;
#X connect 29 0 30 0;
#X connect 30 0 0 0;
#X connect 31 0 22 0;
#X connect 32 0 24 0;
#X connect 33 0 26 0;
#X connect 34 0 28 0;
#X connect 35 0 1 0;
#X connect 36 0 35 1;
#X connect 37 0 1 0;
#X connect 38 0 37 1;
#X connect 39 0 1 0;
#X connect 40 0 39 1;
#X connect 41 0 1 0;
#X connect 42 0 41 1;
#X connect 43 0 44 0;
#X connect 44 0 1 0;
#X connect 45 0 2 0;
#X connect 46 0 45 1;
#X connect 47 0 2 0;
#X connect 48 0 47 1;
#X connect 49 0 2 0;
#X connect 50 0 49 1;
#X connect 51 0 2 0;
#X connect 52 0 51 1;
#X connect 53 0 54 0;
#X connect 54 0 2 0;
#X connect 55 0 36 0;
#X connect 56 0 38 0;
#X connect 57 0 40 0;
#X connect 58 0 42 0;
#X connect 59 0 46 0;
#X connect 60 0 48 0;
#X connect 61 0 50 0;
#X connect 62 0 52 0;
#X connect 64 0 63 0;
#X connect 65 0 64 1;
#X connect 66 0 63 0;
#X connect 67 0 63 0;
#X connect 68 0 63 0;
#X connect 69 0 66 1;
#X connect 70 0 67 1;
#X connect 71 0 68 1;
#X connect 72 0 19 0;
#X connect 73 0 29 0;
#X connect 74 0 43 0;
#X connect 75 0 53 0;
#X connect 77 0 4 0;
#X connect 77 0 21 0;
#X connect 77 0 35 0;
#X connect 77 0 45 0;
#X connect 81 0 10 0;
#X connect 81 0 23 0;
#X connect 81 0 37 0;
#X connect 81 0 47 0;
#X connect 82 0 13 0;
#X connect 82 0 25 0;
#X connect 82 0 39 0;
#X connect 82 0 49 0;
#X connect 83 0 51 0;
#X connect 83 0 41 0;
#X connect 83 0 27 0;
#X connect 83 0 15 0;
#X connect 84 0 85 0;
#X connect 86 0 64 0;
#X connect 86 0 76 0;
#X restore 49 96 pd internals;
#X obj 168 -16 knob 16 16 0 1 0 0 \$0l1 \$0none empty 0 -8 192 8 -262144
-258113 -1 1500 1;
#X obj 188 -16 knob 16 16 0 1 0 0 \$0l2 \$0none empty 0 -8 192 8 -262144
-258113 -1 1500 1;
#X obj 208 -16 knob 16 16 0 1 0 0 \$0l3 \$0none empty 0 -8 192 8 -262144
-258113 -1 1500 1;
#X obj 228 -16 knob 16 16 0 1 0 0 \$0l4 \$0none empty 0 -8 192 8 -262144
-258113 -1 1500 1;
#X text 247 -15 output level;
#X text 247 -63 fdbk multiplier;
#X obj 49 115 outlet~;
#X text 177 90 fmFeedback.pd - originally written by NoizeHack (noizehack.com)
- with slight modifications by defaultxr;
#X connect 21 0 28 0;
#X coords 0 -1 1 1 82 133 1 165 -130;
