#N canvas 1680 29 1600 871 10;
#X obj 350 185 inlet~;
#X obj 308 312 pulse~;
#X obj 350 312 pulse~;
#X obj 392 312 pulse~;
#X obj 308 263 /~ 2;
#X obj 392 263 *~ 2;
#X obj 457 266 *~ 0.9;
#X obj 457 247 osc~;
#X floatatom 457 210 5 0 0 0 - - -;
#X obj 457 228 sig~;
#X obj 350 371 /~ 3;
#X obj 350 409 chorus~;
#X obj 350 204 *~ 1;
#X obj 350 428 outlet~;
#X obj 457 191 lb \$1 7.21;
#X obj 350 390 lop~ 3000;
#X connect 0 0 12 0;
#X connect 1 0 10 0;
#X connect 2 0 10 0;
#X connect 3 0 10 0;
#X connect 4 0 1 0;
#X connect 5 0 3 0;
#X connect 6 0 3 1;
#X connect 6 0 2 1;
#X connect 6 0 1 1;
#X connect 7 0 6 0;
#X connect 8 0 9 0;
#X connect 9 0 7 0;
#X connect 10 0 15 0;
#X connect 11 0 13 0;
#X connect 12 0 4 0;
#X connect 12 0 2 0;
#X connect 12 0 5 0;
#X connect 14 0 8 0;
#X connect 15 0 11 0;
