#N canvas 449 66 667 593 10;
#X obj 128 147 line~;
#X obj 114 97 f \$1;
#X obj 144 97 f \$2;
#X obj 174 97 f \$3;
#X obj 21 15 inlet;
#X obj 128 123 pack 0 0;
#X msg 151 36 bang;
#X obj 76 538 outlet~;
#X obj 207 14 inlet;
#X obj 130 482 line~;
#X obj 135 399 del \$3;
#X obj 83 507 *~;
#X obj 218 437 loadbang;
#X msg 220 465 0;
#X msg 67 295 bang;
#X obj 39 458 pack 0 2;
#X obj 135 419 pack 0 5;
#X obj 176 259 *~;
#X obj 128 275 +~;
#X floatatom 196 230 0 0 0 0 - - -;
#X text 73 177 carrier;
#X text 72 195 frequency;
#X obj 127 319 osc~;
#X obj 176 199 osc~;
#X text 263 96 carstart \, carend \, modstart \, modend \, time;
#X obj 204 97 f \$4;
#X obj 234 97 f \$5;
#X obj 207 35 route carstart carend modstart modend time attack release
modistart modiend modindex;
#X obj 357 192 loadbang;
#X msg 357 213 100;
#X obj 185 123 pack 0 0;
#X obj 185 148 line~;
#X obj 41 125 / 127;
#X msg 8 93 127;
#X obj 6 61 route bang float;
#X connect 0 0 18 0;
#X connect 1 0 0 0;
#X connect 2 0 5 0;
#X connect 3 0 31 0;
#X connect 4 0 6 0;
#X connect 4 0 34 0;
#X connect 5 0 0 0;
#X connect 6 0 1 0;
#X connect 6 0 3 0;
#X connect 6 0 2 0;
#X connect 6 0 25 0;
#X connect 6 0 26 0;
#X connect 8 0 27 0;
#X connect 9 0 11 1;
#X connect 10 0 16 0;
#X connect 11 0 7 0;
#X connect 12 0 13 0;
#X connect 13 0 9 0;
#X connect 14 0 10 0;
#X connect 15 0 9 0;
#X connect 16 0 9 0;
#X connect 17 0 18 1;
#X connect 18 0 22 0;
#X connect 19 0 17 1;
#X connect 22 0 11 0;
#X connect 23 0 17 0;
#X connect 25 0 30 0;
#X connect 26 0 5 1;
#X connect 26 0 30 1;
#X connect 26 0 10 1;
#X connect 27 0 1 1;
#X connect 27 1 2 1;
#X connect 27 2 3 1;
#X connect 27 3 25 1;
#X connect 27 4 26 1;
#X connect 27 5 15 1;
#X connect 27 6 16 1;
#X connect 27 7 19 0;
#X connect 27 9 19 0;
#X connect 28 0 29 0;
#X connect 29 0 19 0;
#X connect 30 0 31 0;
#X connect 31 0 23 0;
#X connect 32 0 14 0;
#X connect 32 0 15 0;
#X connect 33 0 32 0;
#X connect 34 0 33 0;
#X connect 34 1 32 0;
