#N canvas 0 29 1600 849 10;
#X obj 265 93 inlet;
#X obj 265 112 route bang;
#X obj 335 424 osc~;
#X obj 265 169 line~;
#X obj 265 131 f \$3;
#X msg 265 150 1 \, 0 \$1;
#X obj 335 211 *~;
#X obj 335 243 *~;
#X obj 335 275 *~;
#X obj 335 307 *~;
#X obj 335 386 *~ 0;
#X obj 356 329 loadbang;
#X obj 356 348 f \$1;
#X obj 356 367 - \$2;
#X obj 335 405 +~ \$2;
#X obj 265 496 *~;
#X obj 265 515 outlet~;
#X connect 0 0 1 0;
#X connect 1 0 4 0;
#X connect 2 0 15 1;
#X connect 3 0 6 1;
#X connect 3 0 6 0;
#X connect 3 0 15 0;
#X connect 4 0 5 0;
#X connect 5 0 3 0;
#X connect 6 0 7 1;
#X connect 6 0 7 0;
#X connect 7 0 8 0;
#X connect 7 0 8 1;
#X connect 8 0 9 1;
#X connect 8 0 9 0;
#X connect 9 0 10 0;
#X connect 10 0 14 0;
#X connect 11 0 12 0;
#X connect 12 0 13 0;
#X connect 13 0 10 1;
#X connect 14 0 2 0;
#X connect 15 0 16 0;
