#N canvas 1920 30 1920 1050 10;
#X obj 206 160 line~;
#X text 242 96 start \, end \, time;
#X obj 154 97 f \$1;
#X obj 184 97 f \$2;
#X obj 214 97 f \$3;
#X obj 68 29 inlet;
#X obj 204 123 pack 0 0;
#X msg 191 36 bang;
#X obj 99 333 outlet~;
#X obj 247 14 inlet;
#X obj 153 277 line~;
#X obj 172 205 del \$3;
#X obj 106 302 *~;
#X obj 259 203 loadbang;
#X msg 261 231 0;
#X msg 119 161 bang;
#X obj 35 232 pack 0 2;
#X obj 165 185 osc~ \$1;
#X obj 248 35 route start end time attack release;
#X obj 170 232 pack 0 5;
#X obj 71 63 route bang float;
#X msg 73 92 127;
#X obj 81 125 / 127;
#X connect 0 0 17 0;
#X connect 2 0 0 0;
#X connect 3 0 6 0;
#X connect 4 0 6 1;
#X connect 5 0 7 0;
#X connect 5 0 20 0;
#X connect 6 0 0 0;
#X connect 7 0 2 0;
#X connect 7 0 4 0;
#X connect 7 0 3 0;
#X connect 9 0 18 0;
#X connect 10 0 12 1;
#X connect 11 0 19 0;
#X connect 12 0 8 0;
#X connect 13 0 14 0;
#X connect 14 0 10 0;
#X connect 15 0 11 0;
#X connect 16 0 10 0;
#X connect 17 0 12 0;
#X connect 18 0 2 1;
#X connect 18 1 3 1;
#X connect 18 2 4 1;
#X connect 18 2 11 1;
#X connect 18 3 16 1;
#X connect 18 4 19 1;
#X connect 19 0 10 0;
#X connect 20 0 21 0;
#X connect 20 1 22 0;
#X connect 21 0 22 0;
#X connect 22 0 16 0;
#X connect 22 0 15 0;
