#N canvas 1680 29 1600 871 10;
#X obj 224 26 inlet;
#X obj 264 323 *~;
#X obj 279 285 pulse~;
#X obj 279 304 atc~;
#X obj 264 342 *~;
#X floatatom 101 132 5 0 0 1 modulator - #0-mod;
#X floatatom 100 116 5 0 0 1 carrier - #0-car;
#X obj 264 133 sig~;
#X obj 264 361 outlet~;
#X obj 264 190 tri~;
#X obj 264 114 r \$0-car;
#X obj 106 181 envgen 80 40 1 0  ;
#X obj 145 330 line~;
#X obj 274 171 sig~;
#X obj 274 152 r \$0-t;
#X obj 103 148 hsl 89 12 -0.999999 0.999999 0 0 \$0-t empty tri-shape
-2 6 0 10 -262144 -1 -1 4800 1;
#X obj 103 160 hsl 89 12 -0.99 0.99 0 0 \$0-p empty pulse-shape -2
6 0 10 -262144 -1 -1 2400 1;
#X obj 295 266 sig~;
#X obj 279 209 r \$0-mod;
#X obj 279 228 sig~;
#X obj 295 247 r \$0-p;
#X obj 224 45 route float bang carrier car modulator mod;
#X connect 0 0 21 0;
#X connect 1 0 4 0;
#X connect 2 0 3 0;
#X connect 3 0 1 1;
#X connect 4 0 8 0;
#X connect 7 0 9 0;
#X connect 9 0 1 0;
#X connect 10 0 7 0;
#X connect 11 0 12 0;
#X connect 12 0 4 1;
#X connect 13 0 9 1;
#X connect 14 0 13 0;
#X connect 17 0 2 1;
#X connect 18 0 19 0;
#X connect 19 0 2 0;
#X connect 20 0 17 0;
#X connect 21 0 6 0;
#X connect 21 1 11 0;
#X connect 21 2 6 0;
#X connect 21 3 6 0;
#X connect 21 4 5 0;
#X connect 21 5 5 0;
#X coords 0 -1 1 1 94 130 1 100 100;
