#N canvas 681 160 450 397 10;
#X obj 166 160 line~;
#X text 202 96 start \, end \, time;
#X obj 114 97 f \$1;
#X obj 144 97 f \$2;
#X obj 174 97 f \$3;
#X obj 41 125 / 100;
#X msg 55 90 100;
#X obj 164 123 pack 0 0;
#X msg 172 65 bang;
#X obj 59 333 outlet~;
#X obj 28 7 inlet;
#X obj 113 277 line~;
#X obj 132 205 del \$3;
#X msg 137 233 0 5;
#X obj 66 302 *~;
#X obj 219 203 loadbang;
#X msg 221 231 0;
#X msg 79 161 bang;
#X obj -5 232 pack 0 2;
#X obj 124 185 noisef~ \$1;
#X obj 29 28 route start end time float bang;
#X connect 0 0 19 0;
#X connect 2 0 0 0;
#X connect 3 0 7 0;
#X connect 4 0 7 1;
#X connect 5 0 17 0;
#X connect 5 0 18 0;
#X connect 6 0 5 0;
#X connect 7 0 0 0;
#X connect 8 0 2 0;
#X connect 8 0 4 0;
#X connect 8 0 3 0;
#X connect 10 0 20 0;
#X connect 11 0 14 1;
#X connect 12 0 13 0;
#X connect 13 0 11 0;
#X connect 14 0 9 0;
#X connect 15 0 16 0;
#X connect 16 0 11 0;
#X connect 17 0 12 0;
#X connect 18 0 11 0;
#X connect 19 0 14 0;
#X connect 20 0 2 1;
#X connect 20 1 3 1;
#X connect 20 2 4 1;
#X connect 20 2 12 1;
#X connect 20 3 5 0;
#X connect 20 3 8 0;
#X connect 20 4 8 0;
#X connect 20 4 6 0;
