#N canvas 845 171 463 536 10;
#X text 202 96 start \, end \, time;
#X obj 114 97 f \$1;
#X obj 144 97 f \$2;
#X obj 174 97 f \$3;
#X obj 28 29 inlet;
#X obj 41 125 / 100;
#X msg 15 86 100;
#X obj 164 123 pack 0 0;
#X msg 151 36 bang;
#X obj 115 448 outlet~;
#X obj 207 14 inlet;
#X obj 208 35 route start end time;
#X obj 154 319 line~;
#X obj 180 241 del \$3;
#X msg 178 275 0 5;
#X obj 122 417 *~;
#X msg 118 272 0;
#X msg 79 161 bang;
#X obj -5 232 pack 0 2;
#X obj 98 230 noise~;
#X obj 145 296 lop~;
#X obj 163 143 line;
#X obj 43 50 route bang float;
#X connect 1 0 21 0;
#X connect 2 0 7 0;
#X connect 3 0 7 1;
#X connect 4 0 22 0;
#X connect 5 0 17 0;
#X connect 5 0 18 0;
#X connect 6 0 5 0;
#X connect 7 0 21 0;
#X connect 8 0 1 0;
#X connect 8 0 3 0;
#X connect 8 0 2 0;
#X connect 10 0 11 0;
#X connect 11 0 1 1;
#X connect 11 1 2 1;
#X connect 11 2 3 1;
#X connect 11 2 13 1;
#X connect 12 0 15 1;
#X connect 13 0 14 0;
#X connect 14 0 12 0;
#X connect 15 0 9 0;
#X connect 16 0 12 0;
#X connect 17 0 13 0;
#X connect 18 0 12 0;
#X connect 19 0 20 0;
#X connect 20 0 15 0;
#X connect 21 0 20 1;
#X connect 22 0 8 0;
#X connect 22 0 6 0;
#X connect 22 1 8 0;
#X connect 22 1 5 0;
