#N canvas 0 0 1600 849 10;
#X obj 94 619 outlet~;
#N canvas 0 0 1600 849 env 0;
#X obj 102 39 inlet~;
#X obj 102 259 outlet~;
#X obj 102 240 *~;
#X msg 117 96 attack \$1;
#X msg 195 96 decay \$1;
#X msg 267 96 sustain \$1;
#X msg 351 96 release \$1;
#X obj 435 58 r \$0-time;
#X msg 435 96 time \$1;
#X obj 117 202 adsr~ 10 50 1 300 -1;
#X obj 234 183 inlet;
#X obj 17 96 r \$0-adsr-go;
#X obj 267 77 mrange;
#X obj 117 221 modulation~ \$0-env;
#X obj 117 58 r \$0-attackr;
#X obj 195 58 r \$0-decayr;
#X obj 267 58 r \$0-sustainr;
#X obj 351 58 r \$0-releaser;
#X connect 0 0 2 0;
#X connect 2 0 1 0;
#X connect 3 0 9 0;
#X connect 4 0 9 0;
#X connect 5 0 9 0;
#X connect 6 0 9 0;
#X connect 7 0 8 0;
#X connect 8 0 9 0;
#X connect 9 0 13 0;
#X connect 10 0 9 1;
#X connect 11 0 9 0;
#X connect 12 0 5 0;
#X connect 13 0 2 1;
#X connect 14 0 3 0;
#X connect 15 0 4 0;
#X connect 16 0 12 0;
#X connect 17 0 6 0;
#X restore 94 600 pd env;
#X obj 167 205 mono;
#X obj 94 471 filters~;
#X obj 138 144 inlet;
#X obj 161 30 hradio 13 1 0 7 \$0-mode empty empty 0 -8 0 10 -262144
-1 -1 0;
#X obj 368 589 lb \$0;
#X obj 280 627 outlet;
#X msg 37 232 time \$1;
#X obj 154 290 r \$0-oscs;
#N canvas 0 0 1600 849 input 0;
#X obj 40 40 inlet;
#X obj 40 116 outlet;
#X text 231 22 todo: add standard midi cc routing. add general message
routing (i.e. "oscs foo" sends "foo" to the oscs);
#X obj 76 97 s \$0-moden;
#X msg 76 78 a 1;
#X msg 112 78 s 1;
#X obj 135 126 outlet;
#X obj 258 78 s \$0-params;
#X obj 40 59 route float next prev mode list params bang;
#X obj 300 117 route bang;
#X obj 222 136 list trim;
#X obj 222 155 pack s f \$0;
#X msg 222 174 \; \$3-\$1 \$2;
#X obj 222 117 list split 2;
#X connect 0 0 8 0;
#X connect 4 0 3 0;
#X connect 5 0 3 0;
#X connect 8 0 1 0;
#X connect 8 1 4 0;
#X connect 8 2 5 0;
#X connect 8 3 3 0;
#X connect 8 4 6 0;
#X connect 8 5 13 0;
#X connect 8 6 7 0;
#X connect 9 1 13 0;
#X connect 10 0 11 0;
#X connect 11 0 12 0;
#X connect 13 0 10 0;
#X connect 13 1 9 0;
#X restore 138 163 pd input;
#X floatatom 37 214 5 0 0 0 - - -;
#X obj 94 271 porta~ 100;
#X obj 174 452 r \$0-filters;
#X obj 154 373 s \$0-oscso;
#X obj 174 520 s \$0-filterso;
#X obj 161 6 lb 0;
#X obj 209 11 num;
#X obj 209 -27 r \$0-mode;
#X msg 209 -8 set \$1;
#X msg 368 608 symphnum \$1;
#X msg 280 463 oscsnum \$1;
#X msg 280 608 filtersnum \$1;
#X obj 183 182 unpack f f;
#X obj 94 188 t f b;
#X msg 121 207 0;
#X obj 209 271 s \$0-time;
#X msg 209 243 -1;
#X msg 108 228 1;
#X obj 225 325 s \$0-adsr-go;
#N canvas 0 0 800 849 symphparams 0;
#X obj 190 105 inlet;
#X obj 55 463 r \$0-params;
#X obj 112 584 l;
#X obj 127 -22 inlet;
#X obj 196 321 r \$0-portasave;
#X obj 127 565 list prepend;
#X obj 196 457 pack f f f f f;
#X obj 206 340 r \$0-attacks;
#X obj 206 359 t b f;
#X obj 242 378 t b f;
#X obj 278 397 t b f;
#X obj 314 416 t b f;
#X obj 242 359 r \$0-decays;
#X obj 278 378 r \$0-sustains;
#X obj 314 397 r \$0-releases;
#X obj 127 283 l;
#X obj 190 252 t b a;
#X obj 127 546 l;
#X obj 196 495 t b a;
#X obj 127 -3 route set;
#X obj 112 622 list trim;
#X obj 112 641 outlet;
#X obj 190 124 route set;
#X obj 112 603 list prepend params set params;
#X msg 196 476 s porta \$1 s attack \$2 s decay \$3 s sustain \$4 s
release \$5;
#X obj 190 143 list split 2;
#X obj 268 143 route bang;
#X msg 190 211 o vol3 127 o vol2 127 o vol1 127 o sem3 0 o sem2 0 o
sem1 0 o oct3 -1 o oct2 0 o oct1 -1 o osc3 4 o osc2 2 o osc1 1;
#X obj 268 162 t b b;
#X msg 268 191 set;
#X obj 127 16 list split 2;
#X obj 205 16 route bang;
#X obj 205 35 t b b;
#X msg 190 162 add2 o \$1 \$2;
#X msg 127 35 add2 f \$1 \$2;
#X obj 73 569 bng 15 250 50 0 empty empty empty 17 7 0 10 -262144 -1
-1;
#X obj 127 302 list prepend;
#X obj 163 439 bng 15 250 50 0 empty empty empty 17 7 0 10 -262144
-1 -1;
#X msg 127 84 list f lvl0 47.5916 f lvl2 27.8063 f lvl1 127 f res2
71.4375 f res1 120.015 f sem2 0 f sem1 0 f oct2 0 f oct1 1 f typ2 8
f typ1 1;
#X msg 205 64 set list;
#X obj 55 482 t b b;
#X obj 82 501 s \$0-filters;
#X obj 82 520 s \$0-oscs;
#X connect 0 0 22 0;
#X connect 1 0 40 0;
#X connect 2 0 23 0;
#X connect 3 0 19 0;
#X connect 4 0 6 0;
#X connect 5 0 2 1;
#X connect 6 0 24 0;
#X connect 7 0 8 0;
#X connect 8 0 6 0;
#X connect 8 1 6 1;
#X connect 9 0 6 0;
#X connect 9 1 6 2;
#X connect 10 0 6 0;
#X connect 10 1 6 3;
#X connect 11 0 6 0;
#X connect 11 1 6 4;
#X connect 12 0 9 0;
#X connect 13 0 10 0;
#X connect 14 0 11 0;
#X connect 15 0 36 0;
#X connect 16 0 15 0;
#X connect 16 1 36 1;
#X connect 17 0 5 0;
#X connect 18 0 17 0;
#X connect 18 1 5 1;
#X connect 19 0 30 0;
#X connect 20 0 21 0;
#X connect 22 0 25 0;
#X connect 23 0 20 0;
#X connect 24 0 18 0;
#X connect 25 0 33 0;
#X connect 25 1 26 0;
#X connect 26 0 28 0;
#X connect 26 1 25 0;
#X connect 27 0 16 0;
#X connect 28 0 29 0;
#X connect 28 1 27 0;
#X connect 29 0 27 0;
#X connect 30 0 34 0;
#X connect 30 1 31 0;
#X connect 31 0 32 0;
#X connect 31 1 30 0;
#X connect 32 0 39 0;
#X connect 32 1 38 0;
#X connect 33 0 27 0;
#X connect 34 0 38 0;
#X connect 35 0 2 0;
#X connect 36 0 17 0;
#X connect 37 0 6 0;
#X connect 38 0 15 0;
#X connect 39 0 38 0;
#X connect 40 0 2 0;
#X connect 40 1 41 0;
#X connect 40 1 42 0;
#X restore 351 515 pd symphparams;
#X obj 174 146 bng 15 250 50 0 empty empty output_params 17 7 0 10
-262144 -1 -1;
#X floatatom 216 215 5 0 0 0 - - -;
#X floatatom 158 236 5 0 0 0 - - -;
#X obj 174 539 route filtersnum params symbol;
#X obj 292 558 s \$0-scr1;
#X obj 260 411 s \$0-scr1;
#X obj 94 309 oscs~;
#X obj -17 413 modulation~ \$0-prefilt;
#X obj -6 545 modulation~ \$0-preenv;
#N canvas 0 0 1600 849 gui 0;
#X obj 242 588 namecanvas \$0-gui;
#X obj 158 588 symbol \$0-gui;
#X obj 158 569 loadbang;
#X obj 113 569 * 71;
#X obj 113 588 + 18;
#X obj 113 531 r \$0-mode;
#X obj 113 607 pack f s;
#X obj 111 19 cnv 15 150 66 empty empty empty 20 12 0 14 -262144 -66577
0;
#X obj 150 22 knob 33 33 0 127 0 0 \$0-dvks \$0-dvkr empty 0 -8 192
8 -262144 -123526 -262144 1199 1;
#X obj 188 22 knob 33 33 0 127 0 0 \$0-f1vks \$0-f1vkr empty 0 -8 192
8 -262144 -42246 -262144 3200 1;
#X obj 226 22 knob 33 33 0 127 0 0 \$0-f2vks \$0-f2vkr empty 0 -8 192
8 -262144 -355 -262144 701 1;
#X floatatom 110 58 6 0 999999 3 porta #0-porta #0-portar;
#X floatatom 148 58 6 0 127 3 dryvol #0-dryvol #0-dryvols;
#X floatatom 186 58 6 0 127 3 f1vol #0-f1vol #0-f1vols;
#X floatatom 224 58 6 0 127 3 f2vol #0-f2vol #0-f2vols;
#X obj 111 90 cnv 15 150 66 empty empty empty 20 12 0 14 -262144 -66577
0;
#X obj 112 93 knob 33 33 0 127 0 0 \$0-o1tks \$0-o1tkr empty 0 -8 192
8 -262144 -258699 -262144 25 1;
#X obj 150 93 knob 33 33 -3 3 0 0 \$0-o1oks \$0-o1okr empty 0 -8 192
8 -262144 -258699 -262144 1600 1;
#X obj 188 93 knob 33 33 0 127 0 0 \$0-o1sks \$0-o1skr empty 0 -8 192
8 -262144 -258699 -262144 0 1;
#X obj 226 93 knob 33 33 0 127 0 0 \$0-o1vks \$0-o1vkr empty 0 -8 192
8 -262144 -258699 -262144 0 1;
#X floatatom 110 129 6 0 3 3 o1type #0-o1type #0-o1types;
#X floatatom 148 129 6 -3 3 3 o1oct #0-o1oct #0-o1octs;
#X floatatom 186 129 6 -7 7 3 o1semi #0-o1semi #0-o1semis;
#X floatatom 224 129 6 0 127 3 o1vol #0-o1vol #0-o1vols;
#X obj 111 161 cnv 15 150 66 empty empty empty 20 12 0 14 -262144 -66577
0;
#X obj 112 164 knob 33 33 0 127 0 0 \$0-o2tks \$0-o2tkr empty 0 -8
192 8 -262144 -24198 -262144 50 1;
#X obj 150 164 knob 33 33 -3 3 0 0 \$0-o2oks \$0-o2okr empty 0 -8 192
8 -262144 -24198 -262144 0 1;
#X obj 188 164 knob 33 33 0 127 0 0 \$0-o2sks \$0-o2skr empty 0 -8
192 8 -262144 -24198 -262144 0 1;
#X obj 226 164 knob 33 33 0 127 0 0 \$0-o2vks \$0-o2vkr empty 0 -8
192 8 -262144 -24198 -262144 0 1;
#X floatatom 110 200 6 0 3 3 o2type #0-o2type #0-o2types;
#X floatatom 148 200 6 -3 3 3 o2oct #0-o2oct #0-o2octs;
#X floatatom 186 200 6 -7 7 3 o2semi #0-o2semi #0-o2semis;
#X floatatom 224 200 6 0 127 3 o2vol #0-o2vol #0-o2vols;
#X obj 111 232 cnv 15 150 66 empty empty empty 20 12 0 14 -262144 -66577
0;
#X obj 111 303 cnv 15 150 66 empty empty empty 20 12 0 14 -262144 -66577
0;
#X floatatom 205 534 5 0 0 0 - - -;
#X obj 111 374 cnv 15 150 66 empty empty empty 20 12 0 14 -262144 -66577
0;
#X obj 113 550 clip 0 7;
#X obj 112 235 knob 33 33 0 127 0 0 \$0-o3tks \$0-o3tkr empty 0 -8
192 8 -262144 -62784 -262144 101 1;
#X obj 150 235 knob 33 33 -3 3 0 0 \$0-o3oks \$0-o3okr empty 0 -8 192
8 -262144 -62784 -262144 1600 1;
#X obj 188 235 knob 33 33 0 127 0 0 \$0-o3sks \$0-o3skr empty 0 -8
192 8 -262144 -62784 -262144 0 1;
#X obj 226 235 knob 33 33 0 127 0 0 \$0-o3vks \$0-o3vkr empty 0 -8
192 8 -262144 -62784 -262144 0 1;
#X floatatom 110 271 6 0 3 3 o3type #0-o3type #0-o3types;
#X floatatom 148 271 6 -3 3 3 o3oct #0-o3oct #0-o3octs;
#X floatatom 186 271 6 -7 7 3 o3semi #0-o3semi #0-o3semis;
#X floatatom 224 271 6 0 127 3 o3vol #0-o3vol #0-o3vols;
#X obj 112 306 knob 33 33 0 127 0 0 \$0-f1tks \$0-f1tkr empty 0 -8
192 8 -262144 -42246 -262144 0 1;
#X obj 150 306 knob 33 33 0 127 0 0 \$0-f1oks \$0-f1okr empty 0 -8
192 8 -262144 -42246 -262144 0 1;
#X obj 188 306 knob 33 33 0 127 0 0 \$0-f1sks \$0-f1skr empty 0 -8
192 8 -262144 -42246 -262144 0 1;
#X obj 226 306 knob 33 33 0 127 0 0 \$0-f1rks \$0-f1rkr empty 0 -8
192 8 -262144 -42246 -262144 0 1;
#X floatatom 110 342 6 0 0 3 f1type #0-f1type #0-f1types;
#X floatatom 148 342 6 0 0 3 f1oct #0-f1oct #0-f1octs;
#X floatatom 186 342 6 0 0 3 f1semi #0-f1semi #0-f1semis;
#X floatatom 224 342 6 0 0 3 f1res #0-f1res #0-f1ress;
#X obj 112 377 knob 33 33 0 127 0 0 \$0-f2tks \$0-f2tkr empty 0 -8
192 8 -262144 -355 -262144 0 1;
#X obj 150 377 knob 33 33 0 127 0 0 \$0-f2oks \$0-f2okr empty 0 -8
192 8 -262144 -355 -262144 0 1;
#X obj 188 377 knob 33 33 0 127 0 0 \$0-f2sks \$0-f2skr empty 0 -8
192 8 -262144 -355 -262144 0 1;
#X obj 226 377 knob 33 33 0 127 0 0 \$0-f2rks \$0-f2rkr empty 0 -8
192 8 -262144 -355 -262144 0 1;
#X floatatom 110 413 6 0 0 3 f2type #0-f2type #0-f2types;
#X floatatom 148 413 6 0 0 3 f2oct #0-f2oct #0-f2octs;
#X floatatom 186 413 6 0 0 3 f2semi #0-f2semi #0-f2semis;
#X floatatom 224 413 6 0 0 3 f2res #0-f2res #0-f2ress;
#X msg 113 626 \; \$2 donecanvasdialog 1 -1 2 0 -1 0 1 152 68 110 \$1
\, dirty 0;
#N canvas 800 0 800 849 m0 0;
#X obj 100 29 r \$0-dryvols;
#X obj 100 105 s \$0-filters;
#X obj 178 105 s \$0-dvkr;
#X obj 238 29 r \$0-dvks;
#X msg 178 86 set \$1;
#X obj 100 220 s \$0-filters;
#X msg 178 201 set \$1;
#X obj 100 144 r \$0-f1vols;
#X obj 178 220 s \$0-f1vkr;
#X obj 244 144 r \$0-f1vks;
#X obj 100 335 s \$0-filters;
#X msg 178 316 set \$1;
#X obj 100 259 r \$0-f2vols;
#X obj 244 259 r \$0-f2vks;
#X obj 178 335 s \$0-f2vkr;
#X obj 238 105 s \$0-dryvol;
#X obj 244 220 s \$0-f1vol;
#X obj 244 335 s \$0-f2vol;
#X msg 100 86 dryvol \$1;
#X msg 100 201 f1vol \$1;
#X msg 100 316 f2vol \$1;
#X connect 0 0 18 0;
#X connect 0 0 4 0;
#X connect 3 0 15 0;
#X connect 4 0 2 0;
#X connect 6 0 8 0;
#X connect 7 0 19 0;
#X connect 7 0 6 0;
#X connect 9 0 16 0;
#X connect 11 0 14 0;
#X connect 12 0 20 0;
#X connect 12 0 11 0;
#X connect 13 0 17 0;
#X connect 18 0 1 0;
#X connect 19 0 5 0;
#X connect 20 0 10 0;
#X restore 276 40 pd m0;
#N canvas 800 0 800 849 m123 0;
#X obj 23 21 r \$0-o1types;
#X msg 23 71 o1type \$1;
#X obj 23 90 s \$0-oscs;
#X msg 87 71 set \$1;
#X obj 87 90 s \$0-o1tkr;
#X obj 153 21 r \$0-o1tks;
#X obj 153 90 s \$0-o1type;
#X obj 23 180 s \$0-oscs;
#X msg 87 161 set \$1;
#X obj 23 270 s \$0-oscs;
#X msg 87 251 set \$1;
#X obj 23 111 r \$0-o2types;
#X msg 23 161 o2type \$1;
#X obj 87 180 s \$0-o2tkr;
#X obj 153 111 r \$0-o2tks;
#X obj 153 180 s \$0-o2type;
#X obj 153 201 r \$0-o3tks;
#X obj 153 270 s \$0-o3type;
#X obj 87 270 s \$0-o3tkr;
#X obj 23 201 r \$0-o3types;
#X msg 23 251 o3type \$1;
#X obj 153 52 mrange 3;
#X obj 153 71 round;
#X obj 153 142 mrange 3;
#X obj 153 161 round;
#X obj 153 232 mrange 3;
#X obj 153 251 round;
#X obj 273 90 s \$0-oscs;
#X msg 337 71 set \$1;
#X obj 273 180 s \$0-oscs;
#X msg 337 161 set \$1;
#X obj 273 270 s \$0-oscs;
#X msg 337 251 set \$1;
#X obj 273 21 r \$0-o1octs;
#X obj 273 111 r \$0-o2octs;
#X obj 273 201 r \$0-o3octs;
#X msg 273 71 o1oct \$1;
#X obj 403 21 r \$0-o1oks;
#X obj 403 90 s \$0-o1oct;
#X obj 403 180 s \$0-o2oct;
#X obj 403 270 s \$0-o3oct;
#X obj 403 201 r \$0-o3oks;
#X obj 403 111 r \$0-o2oks;
#X obj 337 90 s \$0-o1okr;
#X obj 337 180 s \$0-o2okr;
#X obj 337 270 s \$0-o3okr;
#X msg 273 161 o2oct \$1;
#X msg 273 251 o3oct \$1;
#X obj 403 220 int;
#X obj 403 40 int;
#X obj 403 130 int;
#X connect 0 0 1 0;
#X connect 0 0 3 0;
#X connect 1 0 2 0;
#X connect 3 0 4 0;
#X connect 5 0 21 0;
#X connect 8 0 13 0;
#X connect 10 0 18 0;
#X connect 11 0 12 0;
#X connect 11 0 8 0;
#X connect 12 0 7 0;
#X connect 14 0 23 0;
#X connect 16 0 25 0;
#X connect 19 0 20 0;
#X connect 19 0 10 0;
#X connect 20 0 9 0;
#X connect 21 0 22 0;
#X connect 22 0 6 0;
#X connect 23 0 24 0;
#X connect 24 0 15 0;
#X connect 25 0 26 0;
#X connect 26 0 17 0;
#X connect 28 0 43 0;
#X connect 30 0 44 0;
#X connect 32 0 45 0;
#X connect 33 0 36 0;
#X connect 33 0 28 0;
#X connect 34 0 46 0;
#X connect 34 0 30 0;
#X connect 35 0 47 0;
#X connect 35 0 32 0;
#X connect 36 0 27 0;
#X connect 37 0 49 0;
#X connect 41 0 48 0;
#X connect 42 0 50 0;
#X connect 46 0 29 0;
#X connect 47 0 31 0;
#X connect 48 0 40 0;
#X connect 49 0 38 0;
#X connect 50 0 39 0;
#X restore 276 174 pd m123;
#N canvas 0 0 1600 849 envelope 0;
#X obj 339 500 outlet;
#X obj 252 288 r \$0-attacki;
#X obj 332 288 r \$0-decayi;
#X obj 494 288 r \$0-releasei;
#X obj 407 288 r \$0-sustaini;
#X obj 339 462 pack f f f f;
#X obj 407 326 mrange;
#X obj 332 326 t b f;
#X obj 407 345 t b f;
#X obj 494 326 t b f;
#X msg 339 481 0 \$1 1 \$2 \$3 \$4 \, freeze 1;
#X obj 252 307 s \$0-attackr;
#X obj 332 307 s \$0-decayr;
#X obj 407 307 s \$0-sustainr;
#X obj 494 307 s \$0-releaser;
#X connect 1 0 5 0;
#X connect 1 0 11 0;
#X connect 2 0 7 0;
#X connect 2 0 12 0;
#X connect 3 0 9 0;
#X connect 3 0 14 0;
#X connect 4 0 6 0;
#X connect 4 0 13 0;
#X connect 5 0 10 0;
#X connect 6 0 8 0;
#X connect 7 0 5 0;
#X connect 7 1 5 1;
#X connect 8 0 5 0;
#X connect 8 1 5 2;
#X connect 9 0 5 0;
#X connect 9 1 5 3;
#X connect 10 0 0 0;
#X restore 277 457 pd envelope;
#X obj 111 445 cnv 15 150 66 empty empty empty 20 12 0 14 -262144 -66577
0;
#X floatatom 110 484 6 0 999999 3 attack #0-attack #0-attacki;
#X floatatom 148 484 6 0 999999 3 decay #0-decay #0-decayi;
#X floatatom 186 484 6 0 127 3 suslvl #0-sustain #0-sustaini;
#X floatatom 224 484 6 0 999999 3 release #0-release #0-releasei;
#X obj 117 446 envgen 136 34 1 0  ;
#X obj 112 22 cnv 15 33 33 empty empty Synf~ 2 17 1 12 -262144 -66577
0;
#N canvas 800 0 800 410 m45 0;
#X msg 101 71 set \$1;
#X obj 167 71 round;
#X obj 23 21 r \$0-f1types;
#X msg 23 71 f1type \$1;
#X obj 23 90 s \$0-filters;
#X obj 101 90 s \$0-f1tkr;
#X obj 167 21 r \$0-f1tks;
#X obj 167 90 s \$0-f1type;
#X obj 167 52 mrange 11;
#X connect 0 0 5 0;
#X connect 1 0 7 0;
#X connect 2 0 3 0;
#X connect 2 0 0 0;
#X connect 3 0 4 0;
#X connect 6 0 8 0;
#X connect 8 0 1 0;
#X restore 276 350 pd m45;
#X connect 1 0 6 1;
#X connect 2 0 1 0;
#X connect 3 0 4 0;
#X connect 4 0 6 0;
#X connect 5 0 37 0;
#X connect 6 0 62 0;
#X connect 35 0 37 0;
#X connect 37 0 3 0;
#X connect 65 0 71 0;
#X coords 0 -1 1 1 152 68 2 110 18;
#X restore 100 43 pd gui;
#X obj 154 392 route oscsnum params symbol;
#X obj 37 152 r \$0-portar;
#X obj 254 -8 r \$0-moden;
#X connect 1 0 0 0;
#X connect 2 0 12 0;
#X connect 2 0 33 0;
#X connect 2 1 1 1;
#X connect 2 1 12 1;
#X connect 2 1 27 0;
#X connect 2 1 32 0;
#X connect 3 0 39 0;
#X connect 3 1 15 0;
#X connect 3 1 34 0;
#X connect 4 0 10 0;
#X connect 6 0 20 0;
#X connect 8 0 12 0;
#X connect 9 0 37 1;
#X connect 10 0 24 0;
#X connect 10 1 23 0;
#X connect 11 0 8 0;
#X connect 12 0 3 1;
#X connect 12 0 37 0;
#X connect 13 0 3 2;
#X connect 16 0 5 0;
#X connect 17 0 5 0;
#X connect 18 0 19 0;
#X connect 19 0 17 0;
#X connect 20 0 7 0;
#X connect 21 0 7 0;
#X connect 22 0 7 0;
#X connect 23 0 2 0;
#X connect 23 1 2 1;
#X connect 24 0 12 0;
#X connect 24 1 25 0;
#X connect 24 1 28 0;
#X connect 24 1 29 0;
#X connect 25 0 26 0;
#X connect 25 0 8 0;
#X connect 27 0 26 0;
#X connect 28 0 12 1;
#X connect 30 0 7 0;
#X connect 31 0 10 0;
#X connect 34 0 22 0;
#X connect 34 1 30 0;
#X connect 34 2 35 0;
#X connect 37 0 38 0;
#X connect 37 1 14 0;
#X connect 37 1 41 0;
#X connect 38 0 3 0;
#X connect 39 0 1 0;
#X connect 41 0 21 0;
#X connect 41 1 30 1;
#X connect 41 2 36 0;
#X connect 42 0 11 0;
#X connect 43 0 17 0;
#X coords 0 -1 1 1 152 83 1 100 30;
