#N canvas 1920 30 1920 1048 10;
#X obj 396 157 inlet;
#X obj 103 134 hsl 100 10 0 1000 0 0 \$0-env1 \$0-env env 0 5 0 10 #fcfcfc #000000 #000000 0 1;
#X obj 103 124 hsl 100 10 0 4 0 0 \$0-res1 \$0-res res 0 5 0 10 #fcfcfc #000000 #000000 0 1;
#X obj 103 114 hsl 100 10 0 127 0 0 \$0-cof1 \$0-cof cutoff 0 5 0 10 #fcfcfc #000000 #000000 0 1;
#X obj 103 154 hsl 100 10 0 4 0 0 \$0-acc1 \$0-acc accent 0 5 0 10 #fcfcfc #000000 #000000 0 1;
#X obj 103 144 hsl 100 10 3 700 0 0 \$0-dcy1 \$0-dcy decay 0 5 0 10 #fcfcfc #000000 #000000 0 1;
#X obj 347 286 outlet~;
#X obj 177 100 hradio 14 1 0 2 \$0-osc \$0-osci saw 0 -5 0 10 #fcfcfc #000000 #000000 0;
#N canvas 1680 29 1600 871 porta 0;
#X obj 229 110 inlet;
#X obj 229 189 s \$0-porta;
#X obj 265 110 inlet;
#X obj 265 129 mrange 150;
#X connect 0 0 1 0;
#X connect 2 0 3 0;
#X connect 3 0 1 0;
#X restore 401 266 pd porta;
#N canvas 1920 30 1920 1048 sound 0;
#X obj 386 168 inlet;
#X obj 456 642 *~;
#X obj 734 262 r \$0-porta;
#X obj 386 411 *~;
#X obj 549 583 r \$0-res1;
#X obj 582 532 *~;
#X obj 597 512 r \$0-env1;
#X obj 567 552 +~;
#X obj 567 420 r \$0-cof1;
#X obj 567 440 mtof;
#X obj 443 318 r \$0-dcy1;
#X obj 576 265 analog~;
#X obj 587 485 analog~;
#X obj 413 208 mtof;
#X obj 386 188 t b f;
#X obj 573 299 r \$0-osc1;
#X obj 486 388 *~ 1;
#X obj 507 368 == 0;
#X obj 552 396 *~ 0;
#X obj 552 336 phasor~;
#X obj 552 356 -~ 0.5;
#X obj 567 460 aline~ 150;
#X obj 486 299 aline~ 10;
#X obj 486 336 saw~;
#X obj 456 662 outlet~;
#X obj 552 376 *~ 1;
#X obj 486 601 moog~;
#X text 547 604 used to be resofilt (refer to git);
#X obj 386 338 pack 3 100;
#X msg 386 358 1 \$1 \, 0 \$2 \$1;
#X obj 386 378 vline~;
#X connect 0 0 14 0;
#X connect 1 0 24 0;
#X connect 2 0 21 1;
#X connect 2 0 22 1;
#X connect 3 0 5 0;
#X connect 3 0 1 1;
#X connect 4 0 26 2;
#X connect 5 0 7 1;
#X connect 6 0 5 1;
#X connect 7 0 26 1;
#X connect 8 0 9 0;
#X connect 9 0 21 0;
#X connect 10 0 28 1;
#X connect 11 0 19 0;
#X connect 11 0 23 0;
#X connect 12 0 7 0;
#X connect 13 0 22 0;
#X connect 14 0 28 0;
#X connect 14 1 13 0;
#X connect 15 0 17 0;
#X connect 15 0 18 1;
#X connect 16 0 26 0;
#X connect 17 0 16 1;
#X connect 18 0 26 0;
#X connect 19 0 20 0;
#X connect 20 0 25 0;
#X connect 21 0 7 0;
#X connect 22 0 19 0;
#X connect 22 0 23 0;
#X connect 23 0 16 0;
#X connect 25 0 18 0;
#X connect 26 0 1 0;
#X connect 28 0 29 0;
#X connect 29 0 30 0;
#X connect 30 0 3 0;
#X connect 30 0 3 1;
#X restore 347 266 pd sound;
#N canvas 1680 29 1600 871 res 0;
#X obj 429 405 inlet;
#X obj 429 477 s \$0-res;
#X obj 465 405 inlet;
#X obj 465 424 mrange 4;
#X connect 0 0 1 0;
#X connect 2 0 3 0;
#X connect 3 0 1 0;
#X restore 515 266 pd res;
#N canvas 1680 29 1600 871 cutoff 0;
#X obj 469 104 inlet;
#X obj 469 176 s \$0-cof;
#X obj 505 104 inlet;
#X connect 0 0 1 0;
#X connect 2 0 1 0;
#X restore 455 266 pd cutoff;
#N canvas 1680 29 1600 871 env 0;
#X obj 492 336 inlet;
#X obj 528 336 inlet;
#X obj 492 408 s \$0-env;
#X obj 528 355 mrange 2000;
#X connect 0 0 2 0;
#X connect 1 0 3 0;
#X connect 3 0 2 0;
#X restore 557 266 pd env;
#N canvas 1680 29 1600 871 decay 0;
#X obj 607 250 + 3;
#X obj 557 319 s \$0-dcy;
#X obj 607 231 mrange 997;
#X obj 535 203 inlet;
#X obj 607 201 inlet;
#X connect 0 0 1 0;
#X connect 2 0 0 0;
#X connect 3 0 1 0;
#X connect 4 0 2 0;
#X restore 599 266 pd decay;
#N canvas 1680 29 800 871 osc 0;
#X obj 410 594 symbol;
#X msg 410 613 label \$1;
#X obj 354 482 clip 0 1;
#X obj 354 501 int;
#X obj 354 411 inlet;
#X obj 370 430 inlet;
#X obj 370 449 mrange 1;
#X obj 410 575 list-idx;
#X obj 410 537 t b f;
#X msg 410 556 saw square;
#X obj 354 639 s \$0-osci;
#X obj 262 391 r \$0-osc;
#X obj 294 639 s \$0-osc1;
#X msg 354 594 set \$1;
#X connect 0 0 1 0;
#X connect 1 0 10 0;
#X connect 2 0 3 0;
#X connect 3 0 8 0;
#X connect 3 0 12 0;
#X connect 3 0 13 0;
#X connect 4 0 2 0;
#X connect 5 0 6 0;
#X connect 6 0 2 0;
#X connect 7 0 0 0;
#X connect 8 0 9 0;
#X connect 8 1 7 1;
#X connect 9 0 7 0;
#X connect 11 0 2 0;
#X connect 13 0 10 0;
#X restore 713 266 pd osc;
#N canvas 1680 29 1600 871 accent 0;
#X obj 37 37 inlet;
#X obj 93 35 inlet;
#X obj 90 71 mrange 4;
#X obj 50 110 s \$0-acc;
#X connect 0 0 3 0;
#X connect 1 0 2 0;
#X connect 2 0 3 0;
#X restore 653 266 pd accent;
#X obj 396 177 route float porta mporta cutoff mcutoff res mres env menv decay mdecay accent maccent osc mosc;
#X connect 0 0 16 0;
#X connect 9 0 6 0;
#X connect 16 0 9 0;
#X connect 16 1 8 0;
#X connect 16 2 8 1;
#X connect 16 3 11 0;
#X connect 16 4 11 1;
#X connect 16 5 10 0;
#X connect 16 6 10 1;
#X connect 16 7 12 0;
#X connect 16 8 12 1;
#X connect 16 9 13 0;
#X connect 16 10 13 1;
#X connect 16 11 15 0;
#X connect 16 12 15 1;
#X connect 16 13 14 0;
#X connect 16 14 14 1;
#X coords 0 -1 1 1 105 66 1 100 100;
