#N canvas 0 29 1600 849 10;
#X obj 445 603 *~;
#X obj 396 158 inlet;
#X obj 302 203 s \$0-porta;
#X obj 583 280 r \$0-porta;
#X obj 315 406 *~;
#X obj 517 562 r \$0-res1;
#X obj 541 514 *~;
#X obj 103 133 hsl 100 10 0 1000 0 0 \$0-env1 \$0-env env_mod 0 5 0
8 -262144 -1 -1 7100 1;
#X obj 565 514 r \$0-env1;
#X obj 526 533 +~;
#X obj 103 123 hsl 100 10 0 4 0 0 \$0-res1 \$0-res resonance 0 5 0
8 -262144 -1 -1 9900 1;
#X obj 103 113 hsl 100 10 0 127 0 0 \$0-cof1 \$0-cof cut_off_freq 0
5 0 8 -262144 -1 -1 1500 1;
#X obj 526 415 r \$0-cof1;
#X obj 526 434 mtof;
#X obj 315 336 bng 15 250 50 0 empty empty empty 17 7 0 10 -262144
-1 -1;
#X obj 103 153 hsl 100 10 0 4 0 0 \$0-acc1 \$0-acc accent 0 5 0 8 -262144
-1 -1 0 1;
#X obj 103 143 hsl 100 10 3 2000 0 0 \$0-dcy1 \$0-dcy decay 0 5 0 8
-262144 -1 -1 1800 1;
#X msg 332 355 decay \$1;
#X obj 332 336 r \$0-dcy1;
#X obj 315 374 adsr~ 3 100 0 0;
#X obj 445 641 outlet~;
#X obj 468 231 s \$0-cof;
#X obj 522 250 s \$0-res;
#X obj 576 250 s \$0-env;
#X obj 648 250 + 3;
#X obj 648 269 s \$0-dcy;
#X obj 397 289 analog~;
#X obj 720 231 mrange 4;
#X obj 720 250 s \$0-acc;
#X obj 526 453 kline~ 150;
#X obj 546 478 analog~;
#X obj 576 231 mrange 2000;
#X obj 433 247 mtof;
#X obj 406 228 t b f;
#X obj 445 297 kline~ 10;
#X obj 522 231 mrange 1;
#X obj 648 231 mrange 997;
#X obj 445 562 resofilt~ 4;
#X obj 179 100 hradio 13 1 0 2 \$0-osc1 \$0-osc sw -13 6 0 10 -262144
-1 -1 0;
#X obj 396 177 route porta float cut cof cutoff res resonance env envmod
decay dec accent acc osc;
#X obj 592 337 r \$0-osc1;
#X obj 445 383 *~ 1;
#X obj 592 356 == 0;
#X obj 511 391 *~ 0;
#X obj 784 270 s \$0-osc;
#X obj 784 232 clip 0 1;
#X obj 784 251 int;
#X obj 668 412 map sw pl;
#X obj 668 469 s \$0-osc;
#X obj 668 431 symbol;
#X msg 668 450 label \$1;
#X floatatom 565 533 5 0 0 0 - - -;
#X floatatom 517 581 5 0 0 0 - - -;
#X obj 445 334 blosc~ saw;
#X obj 511 334 phasor~;
#X obj 511 372 blosc~ comparator;
#X obj 511 353 -~ 0.5;
#X connect 0 0 20 0;
#X connect 1 0 39 0;
#X connect 3 0 29 1;
#X connect 3 0 34 1;
#X connect 4 0 0 1;
#X connect 4 0 6 0;
#X connect 5 0 37 2;
#X connect 5 0 52 0;
#X connect 6 0 9 1;
#X connect 8 0 6 1;
#X connect 8 0 51 0;
#X connect 9 0 37 1;
#X connect 12 0 13 0;
#X connect 13 0 29 0;
#X connect 14 0 19 0;
#X connect 17 0 19 0;
#X connect 18 0 17 0;
#X connect 19 0 4 0;
#X connect 19 0 4 1;
#X connect 24 0 25 0;
#X connect 26 0 53 0;
#X connect 26 0 54 0;
#X connect 27 0 28 0;
#X connect 29 0 9 0;
#X connect 30 0 9 0;
#X connect 31 0 23 0;
#X connect 32 0 34 0;
#X connect 33 0 14 0;
#X connect 33 1 32 0;
#X connect 34 0 53 0;
#X connect 34 0 54 0;
#X connect 35 0 22 0;
#X connect 36 0 24 0;
#X connect 37 0 0 0;
#X connect 39 0 2 0;
#X connect 39 1 33 0;
#X connect 39 2 21 0;
#X connect 39 3 21 0;
#X connect 39 4 21 0;
#X connect 39 5 35 0;
#X connect 39 6 35 0;
#X connect 39 7 31 0;
#X connect 39 8 31 0;
#X connect 39 9 36 0;
#X connect 39 10 36 0;
#X connect 39 11 27 0;
#X connect 39 12 27 0;
#X connect 39 13 45 0;
#X connect 40 0 42 0;
#X connect 40 0 43 1;
#X connect 40 0 47 0;
#X connect 41 0 37 0;
#X connect 42 0 41 1;
#X connect 43 0 37 0;
#X connect 45 0 46 0;
#X connect 46 0 44 0;
#X connect 47 0 49 0;
#X connect 49 0 50 0;
#X connect 50 0 48 0;
#X connect 53 0 41 0;
#X connect 54 0 56 0;
#X connect 55 0 43 0;
#X connect 56 0 55 0;
#X coords 0 -1 1 1 105 63 1 100 100;
