#N canvas 0 29 1920 1048 10;
#X obj 230 83 inlet;
#X obj 209 271 f \$1;
#X obj 262 232 del;
#X msg 262 292 \$1 \$2;
#X msg 376 310 0 \$1;
#X obj 376 290 f \$4;
#X text 561 114 args:;
#X obj 262 252 f \$3;
#X msg 209 291 1 \$1;
#X obj 230 123 > 0;
#X text 561 66 adsr - Simply an attack decay sustain release envelope.;
#X text 560 231 inputs:;
#X text 561 260 float - 1 to trigger \, 0 to release.;
#X text 559 141 1 - attack time;
#X text 559 154 2 - decay time;
#X text 559 167 3 - sustain level;
#X text 559 180 4 - release time;
#X obj 230 142 sel 1 0;
#X obj 209 336 line~;
#X obj 262 272 pack \$3 \$2;
#X msg 357 219 0;
#X obj 248 163 t b b;
#X obj 262 312 spigot 1;
#X msg 227 188 1;
#X obj 200 168 t b b;
#X text 563 273 attack - set attack time.;
#X text 562 285 decay - set decay time.;
#X text 562 297 sustain - set sustain level.;
#X text 561 309 release - set release time.;
#X text 572 372 TODO:;
#X text 583 396 - allow the user to set the time unit (i.e. so the breakpoints can be BPM-based);
#X text 582 425 - allow the user to make the envelope jump to 0 before starting the attack;
#X obj 209 386 outlet~;
#X obj 230 103 route float attack decay sustain release bang;
#X text 583 459 - implement bang response;
#X connect 0 0 33 0;
#X connect 1 0 8 0;
#X connect 1 0 2 0;
#X connect 2 0 7 0;
#X connect 3 0 22 0;
#X connect 4 0 18 0;
#X connect 5 0 4 0;
#X connect 7 0 19 0;
#X connect 8 0 18 0;
#X connect 9 0 17 0;
#X connect 17 0 24 0;
#X connect 17 1 21 0;
#X connect 18 0 32 0;
#X connect 19 0 3 0;
#X connect 20 0 22 1;
#X connect 21 0 5 0;
#X connect 21 1 20 0;
#X connect 22 0 18 0;
#X connect 23 0 22 1;
#X connect 24 0 1 0;
#X connect 24 1 23 0;
#X connect 33 0 9 0;
#X connect 33 1 2 1;
#X connect 33 1 1 1;
#X connect 33 2 19 1;
#X connect 33 3 7 1;
#X connect 33 4 5 1;
