#N canvas 0 29 1920 1048 10;
#X obj 80 83 inlet;
#X obj 59 271 f \$1;
#X obj 112 232 del;
#X msg 112 292 \$1 \$2;
#X msg 226 310 0 \$1;
#X obj 226 290 f \$4;
#X text 561 114 args:;
#X obj 112 252 f \$3;
#X msg 59 291 1 \$1;
#X obj 80 123 > 0;
#X text 561 66 adsr - Simply an attack decay sustain release envelope.;
#X text 560 341 inputs:;
#X text 561 370 float - 1 to trigger \, 0 to release.;
#X text 559 141 1 - attack time;
#X text 559 154 2 - decay time;
#X text 559 167 3 - sustain level;
#X text 559 180 4 - release time;
#X obj 80 142 sel 1 0;
#X obj 59 336 line~;
#X obj 112 272 pack \$3 \$2;
#X msg 207 219 0;
#X obj 98 163 t b b;
#X obj 112 312 spigot 1;
#X msg 77 188 1;
#X obj 50 168 t b b;
#X text 561 409 attack - set attack time.;
#X text 560 421 decay - set decay time.;
#X text 560 433 sustain - set sustain level.;
#X text 559 445 release - set release time.;
#X text 562 512 TODO:;
#X text 573 536 - allow the user to set the time unit (i.e. so the breakpoints can be BPM-based);
#X text 572 565 - allow the user to make the envelope jump to 0 before starting the attack;
#X obj 59 376 outlet~;
#X text 573 599 - implement bang response;
#X text 559 194 5 - default sustain time;
#X obj 130 21 inlet;
#X obj 202 21 inlet;
#X obj 130 41 route float;
#X msg 130 61 attack \$1;
#X obj 202 41 route float;
#X obj 274 21 inlet;
#X obj 346 21 inlet;
#X obj 274 41 route float;
#X obj 346 41 route float;
#X msg 202 61 decay \$1;
#X msg 274 61 sustain \$1;
#X msg 346 61 release \$1;
#X obj 418 21 inlet;
#X obj 418 41 route float;
#X msg 418 61 duration \$1;
#X obj 80 103 route float attack decay sustain release duration bang;
#X text 559 458 duration - set the default sustain time used when a bang is received.;
#X text 559 222 inlets:;
#X text 569 308 6 - default sustain time;
#X text 569 254 2 - attack time;
#X text 569 267 3 - decay time;
#X text 569 280 4 - sustain level;
#X text 569 294 5 - release time;
#X text 569 241 1 - trigger and options - see "inputs" section below.;
#X text 561 384 bang - trigger the envelope \, holding it for the default sustain time before releasing.;
#X obj 59 356 unsig~ 30;
#X connect 0 0 50 0;
#X connect 1 0 8 0;
#X connect 1 0 2 0;
#X connect 2 0 7 0;
#X connect 3 0 22 0;
#X connect 4 0 18 0;
#X connect 5 0 4 0;
#X connect 7 0 19 0;
#X connect 8 0 18 0;
#X connect 9 0 17 0;
#X connect 17 0 24 0;
#X connect 17 1 21 0;
#X connect 18 0 60 0;
#X connect 19 0 3 0;
#X connect 20 0 22 1;
#X connect 21 0 5 0;
#X connect 21 1 20 0;
#X connect 22 0 18 0;
#X connect 23 0 22 1;
#X connect 24 0 1 0;
#X connect 24 1 23 0;
#X connect 35 0 37 0;
#X connect 36 0 39 0;
#X connect 37 0 38 0;
#X connect 37 1 50 0;
#X connect 38 0 50 0;
#X connect 39 0 44 0;
#X connect 39 1 50 0;
#X connect 40 0 42 0;
#X connect 41 0 43 0;
#X connect 42 0 45 0;
#X connect 42 1 50 0;
#X connect 43 0 46 0;
#X connect 43 1 50 0;
#X connect 44 0 50 0;
#X connect 45 0 50 0;
#X connect 46 0 50 0;
#X connect 47 0 48 0;
#X connect 48 0 49 0;
#X connect 48 1 50 0;
#X connect 49 0 50 0;
#X connect 50 0 9 0;
#X connect 50 1 2 1;
#X connect 50 1 1 1;
#X connect 50 2 19 1;
#X connect 50 3 7 1;
#X connect 50 4 5 1;
#X connect 60 0 32 0;
