#N canvas 0 29 1600 849 10;
#X obj 153 58 inlet;
#X obj 174 128 line~;
#X obj 174 147 outlet~;
#X obj 225 90 inlet;
#X obj 174 109 pack 0 \$1;
#X obj 153 77 route float;
#X connect 0 0 5 0;
#X connect 1 0 2 0;
#X connect 3 0 4 1;
#X connect 4 0 1 0;
#X connect 5 0 4 0;
#X connect 5 1 1 0;
