#N canvas 0 29 1600 849 10;
#X obj 821 145 dollarg;
#X obj 569 368 list-idx;
#X obj 848 225 list length;
#X obj 614 349 %;
#X obj 821 126 lb 0;
#X obj 569 349 l;
#X obj 497 126 inlet;
#X obj 535 298 t b f;
#X obj 569 436 outlet;
#X obj 497 273 count;
#X obj 827 164 inlet;
#X obj 566 164 t b a;
#X obj 821 206 t a a;
#X obj 821 187 list;
#X msg 591 183 reset;
#X text 196 156 amap - advanced map;
#X text 103 192 this behaves similarly to [map] \, except that the
left inlet accepts many more messages that can do more complex things.
some of the messages it accepts are:;
#X text 104 233 rand [low] [high] - output one item from the list whose
index is between the (optional) low and high arguments.;
#X text 104 263 all - output the whole list in one message.;
#X text 104 283 drip - output each element in the list as its own message.
;
#N canvas 0 0 800 849 rand 0;
#X obj 159 197 inlet;
#X obj 159 309 outlet;
#X obj 159 216 route bang float;
#X obj 159 290 rrange;
#X obj 159 245 f;
#X obj 264 228 value \$0-len;
#X connect 0 0 2 0;
#X connect 2 0 4 0;
#X connect 2 1 3 0;
#X connect 2 2 3 0;
#X connect 3 0 1 0;
#X connect 4 0 3 0;
#X connect 5 0 4 1;
#X restore 623 202 pd rand;
#X text 104 303 insert <index> <item> - insert an item into the list
at the specified index.;
#X text 104 333 del <index> - delete an item from the list at the specified
index.;
#X text 104 363 rem <item> - removes all instances of the specified
item from the list.;
#X obj 497 145 route bang float list reset rand all drip ins del rem
;
#N canvas 0 0 800 849 all 0;
#X obj 133 183 inlet;
#X obj 199 202 inlet;
#X obj 184 251 outlet;
#X obj 184 232 l;
#X obj 133 202 route bang;
#X connect 0 0 4 0;
#X connect 1 0 3 1;
#X connect 3 0 2 0;
#X connect 4 0 3 0;
#X restore 654 221 pd all;
#N canvas 0 0 800 849 drip 0;
#X obj 435 342 inlet;
#X obj 450 406 value \$0-len;
#X obj 435 444 until;
#X obj 435 425 f;
#X obj 435 361 t b b;
#X obj 435 485 outlet;
#X msg 554 415 reset;
#X connect 0 0 4 0;
#X connect 1 0 3 1;
#X connect 2 0 5 0;
#X connect 3 0 2 0;
#X connect 4 0 3 0;
#X connect 4 1 6 0;
#X connect 6 0 5 0;
#X restore 686 192 pd drip;
#X obj 848 264 value \$0-len;
#N canvas 0 0 800 849 ins 0;
#X obj 329 247 inlet;
#X obj 416 356 inlet;
#X obj 353 394 outlet;
#X obj 353 326 symbol;
#X obj 353 375 list-insert;
#X obj 329 285 t b f;
#X obj 329 266 unpack f s;
#X obj 353 345 unsymbol;
#X connect 0 0 6 0;
#X connect 1 0 4 2;
#X connect 3 0 7 0;
#X connect 4 0 2 0;
#X connect 5 0 3 0;
#X connect 5 1 4 1;
#X connect 6 0 5 0;
#X connect 6 1 3 1;
#X connect 7 0 4 0;
#X restore 717 221 pd ins;
#N canvas 0 0 800 849 del 0;
#X obj 470 208 inlet;
#X obj 376 208 inlet;
#X obj 376 342 outlet;
#X obj 376 304 l;
#X obj 376 227 t b f;
#X obj 376 323 list-delete 0 1;
#X connect 0 0 3 1;
#X connect 1 0 4 0;
#X connect 3 0 5 0;
#X connect 4 0 3 0;
#X connect 4 1 5 1;
#X connect 5 0 2 0;
#X restore 749 192 pd del;
#X obj 780 324 print amap;
#X obj 780 286 bang;
#X msg 780 305 the 'rem' command is currently unimplemented.;
#X obj 569 387 route float;
#X obj 632 406 unsymbol;
#X connect 0 0 13 0;
#X connect 1 0 33 0;
#X connect 2 0 3 1;
#X connect 2 0 9 1;
#X connect 2 0 27 0;
#X connect 3 0 1 1;
#X connect 4 0 0 0;
#X connect 5 0 1 0;
#X connect 6 0 24 0;
#X connect 7 0 5 0;
#X connect 7 1 3 0;
#X connect 9 0 7 0;
#X connect 10 0 13 0;
#X connect 11 0 9 0;
#X connect 11 1 13 0;
#X connect 12 0 5 1;
#X connect 12 1 2 0;
#X connect 13 0 12 0;
#X connect 13 0 25 1;
#X connect 13 0 28 1;
#X connect 13 0 29 1;
#X connect 14 0 9 0;
#X connect 20 0 24 0;
#X connect 24 0 9 0;
#X connect 24 1 7 0;
#X connect 24 2 11 0;
#X connect 24 3 14 0;
#X connect 24 4 20 0;
#X connect 24 5 25 0;
#X connect 24 6 26 0;
#X connect 24 7 28 0;
#X connect 24 8 29 0;
#X connect 24 9 31 0;
#X connect 25 0 8 0;
#X connect 26 0 24 0;
#X connect 28 0 13 0;
#X connect 29 0 13 0;
#X connect 31 0 32 0;
#X connect 32 0 30 0;
#X connect 33 0 8 0;
#X connect 33 1 34 0;
#X connect 34 0 8 0;
