#N canvas 0 29 800 849 10;
#X obj 23 17 vsl 13 128 0 127 0 0 \$0-volbar1 \$0-rvolbar1 empty 0
-9 0 10 -166441 -1 -262144 0 1;
#X obj 10 17 vsl 13 128 0 127 0 0 \$0-volbar0 \$0-rvolbar0 empty 0
-9 0 10 -128992 -1 -262144 0 1;
#X obj 49 17 vsl 13 128 0 127 0 0 \$0-volbar3 \$0-rvolbar3 empty 0
-9 0 10 -262144 -1 -262144 0 1;
#X obj 36 17 vsl 13 128 0 127 0 0 \$0-volbar2 \$0-rvolbar2 empty 0
-9 0 10 -233017 -1 -262144 0 1;
#X obj 75 17 vsl 13 128 0 127 0 0 \$0-volbar5 \$0-rvolbar5 empty 0
-9 0 10 -166441 -1 -262144 0 1;
#X obj 62 17 vsl 13 128 0 127 0 0 \$0-volbar4 \$0-rvolbar4 empty 0
-9 0 10 -128992 -1 -262144 0 1;
#X obj 101 17 vsl 13 128 0 127 0 0 \$0-volbar7 \$0-rvolbar7 empty 0
-9 0 10 -262144 -1 -262144 0 1;
#X obj 88 17 vsl 13 128 0 127 0 0 \$0-volbar6 \$0-rvolbar6 empty 0
-9 0 10 -233017 -1 -262144 0 1;
#X obj 127 17 vsl 13 128 0 127 0 0 \$0-volbar9 \$0-rvolbar9 empty 0
-9 0 10 -166441 -1 -262144 0 1;
#X obj 114 17 vsl 13 128 0 127 0 0 \$0-volbar8 \$0-rvolbar8 empty 0
-9 0 10 -128992 -1 -262144 0 1;
#X obj 153 17 vsl 13 128 0 127 0 0 \$0-volbar11 \$0-rvolbar11 empty
0 -9 0 10 -262144 -1 -262144 0 1;
#X obj 140 17 vsl 13 128 0 127 0 0 \$0-volbar10 \$0-rvolbar10 empty
0 -9 0 10 -233017 -1 -262144 0 1;
#X obj 179 17 vsl 13 128 0 127 0 0 \$0-volbar13 \$0-rvolbar13 empty
0 -9 0 10 -166441 -1 -262144 0 1;
#X obj 166 17 vsl 13 128 0 127 0 0 \$0-volbar12 \$0-rvolbar12 empty
0 -9 0 10 -128992 -1 -262144 0 1;
#X obj 205 17 vsl 13 128 0 127 0 0 \$0-volbar15 \$0-rvolbar15 empty
0 -9 0 10 -262144 -1 -262144 0 1;
#X obj 192 17 vsl 13 128 0 127 0 0 \$0-volbar14 \$0-rvolbar14 empty
0 -9 0 10 -233017 -1 -262144 0 1;
#X obj 55 179 inlet;
#X obj 10 148 tgl 13 0 \$0-ts0 \$0-tr0 empty 17 7 0 10 -128992 -1 -262144
0 1;
#X obj 23 148 tgl 13 0 \$0-ts1 \$0-tr1 empty 17 7 0 10 -166441 -1 -262144
0 1;
#X obj 36 148 tgl 13 0 \$0-ts2 \$0-tr2 empty 17 7 0 10 -233017 -1 -262144
0 1;
#X obj 49 148 tgl 13 0 \$0-ts3 \$0-tr3 empty 17 7 0 10 -258699 -1 -262144
0 1;
#X obj 62 148 tgl 13 0 \$0-ts4 \$0-tr4 empty 17 7 0 10 -128992 -1 -262144
0 1;
#X obj 75 148 tgl 13 0 \$0-ts5 \$0-tr5 empty 17 7 0 10 -166441 -1 -262144
0 1;
#X obj 88 148 tgl 13 0 \$0-ts6 \$0-tr6 empty 17 7 0 10 -233017 -1 -262144
0 1;
#X obj 101 148 tgl 13 0 \$0-ts7 \$0-tr7 empty 17 7 0 10 -262144 -1
-262144 0 1;
#X obj 166 148 tgl 13 0 \$0-ts12 \$0-tr12 empty 17 7 0 10 -128992 -1
-262144 0 1;
#X obj 179 148 tgl 13 0 \$0-ts13 \$0-tr13 empty 17 7 0 10 -166441 -1
-262144 0 1;
#X obj 192 148 tgl 13 0 \$0-ts14 \$0-tr14 empty 17 7 0 10 -233017 -1
-262144 0 1;
#X obj 205 148 tgl 13 0 \$0-ts15 \$0-tr15 empty 17 7 0 10 -262144 -1
-262144 0 1;
#X obj 114 148 tgl 13 0 \$0-ts8 \$0-tr8 empty 17 7 0 10 -128992 -1
-262144 0 1;
#X obj 127 148 tgl 13 0 \$0-ts9 \$0-tr9 empty 17 7 0 10 -166441 -1
-262144 0 1;
#X obj 140 148 tgl 13 0 \$0-ts10 \$0-tr10 empty 17 7 0 10 -233017 -1
-262144 0 1;
#X obj 153 148 tgl 13 0 \$0-ts11 \$0-tr11 empty 17 7 0 10 -262144 -1
-262144 0 1;
#X floatatom 204 0 2 0 7 0 - #0-cpatswitch #0-curpat;
#X obj 189 0 bng 15 250 50 0 \$0-go empty go 1 7 0 10 -4034 -1 -1;
#X obj 159 0 bng 15 250 50 0 \$0-save empty sv 1 7 0 10 -258113 -1
-1;
#X obj 174 0 bng 15 250 50 0 \$0-copy empty cp 1 7 0 10 -260097 -1
-1;
#X obj 306 12 r \$0-curpat;
#X obj 291 31 f;
#X obj 27 237 count 16;
#N canvas 0 0 1600 871 set 0;
#X obj 260 263 inlet;
#X obj 260 282 unpack f f;
#X obj 313 352 s;
#X msg 328 333 symbol \$2-rvolbar\$1;
#X obj 328 314 pack 0 \$0;
#X connect 0 0 1 0;
#X connect 1 0 4 0;
#X connect 1 1 2 0;
#X connect 3 0 2 1;
#X connect 4 0 3 0;
#X restore 126 274 pd set;
#N canvas 0 0 1600 871 tog 0;
#X obj 324 276 inlet;
#X obj 381 379 s;
#X obj 396 340 pack 0 \$0;
#X msg 396 359 symbol \$2-tr\$1;
#X obj 324 295 unpack f f;
#X connect 0 0 4 0;
#X connect 2 0 3 0;
#X connect 3 0 1 1;
#X connect 4 0 2 0;
#X connect 4 1 1 0;
#X restore 168 274 pd tog;
#X obj 258 274 s \$0-cpatswitch;
#N canvas 0 0 1600 849 play 0;
#X obj 290 332 inlet;
#X obj 290 351 unpack f 0;
#X obj 331 412 s;
#X obj 346 374 pack 0 \$0;
#X msg 346 393 symbol \$2-playpat\$1;
#X obj 356 351 loadbang;
#X connect 0 0 1 0;
#X connect 1 0 2 0;
#X connect 1 1 3 0;
#X connect 3 0 4 0;
#X connect 4 0 2 1;
#X connect 5 0 3 0;
#X restore 210 274 pd play;
#N canvas 0 0 1600 849 outs 0;
#X obj 293 175 r \$0-seq;
#X obj 293 194 change;
#X obj 13 440 outlet;
#X obj 13 341 spigot 0;
#X obj 13 283 t f f;
#X obj 199 440 outlet;
#X obj 199 341 spigot 0;
#X obj 199 283 t f f;
#N canvas 0 0 1600 849 volbars1 0;
#X obj 68 80 tabread \$0-vbardata;
#X obj 68 4 inlet;
#X obj 68 99 outlet;
#X obj 83 42 * 16;
#X obj 68 61 +;
#X obj 83 23 r \$0-playpat1;
#X connect 0 0 2 0;
#X connect 1 0 4 0;
#X connect 3 0 4 1;
#X connect 4 0 0 0;
#X connect 5 0 3 0;
#X restore 199 314 pd volbars1;
#N canvas 0 0 1600 871 toggleswitches1 0;
#X obj 8 24 inlet;
#X obj 8 119 outlet;
#X obj 8 100 tabread \$0-vtogdata;
#X obj 23 62 * 16;
#X obj 8 81 +;
#X obj 23 43 r \$0-playpat1;
#X connect 0 0 4 0;
#X connect 2 0 1 0;
#X connect 3 0 4 1;
#X connect 4 0 2 0;
#X connect 5 0 3 0;
#X restore 271 314 pd toggleswitches1;
#X obj 385 440 outlet;
#X obj 385 341 spigot 0;
#X obj 385 283 t f f;
#X obj 571 440 outlet;
#X obj 571 341 spigot 0;
#X obj 571 283 t f f;
#N canvas 0 0 1600 849 volbars2 0;
#X obj 68 80 tabread \$0-vbardata;
#X obj 68 4 inlet;
#X obj 68 99 outlet;
#X obj 83 42 * 16;
#X obj 68 61 +;
#X obj 83 23 r \$0-playpat2;
#X connect 0 0 2 0;
#X connect 1 0 4 0;
#X connect 3 0 4 1;
#X connect 4 0 0 0;
#X connect 5 0 3 0;
#X restore 385 314 pd volbars2;
#N canvas 0 0 1600 849 toggleswitches2 0;
#X obj 8 24 inlet;
#X obj 8 119 outlet;
#X obj 8 100 tabread \$0-vtogdata;
#X obj 23 62 * 16;
#X obj 8 81 +;
#X obj 23 43 r \$0-playpat2;
#X connect 0 0 4 0;
#X connect 2 0 1 0;
#X connect 3 0 4 1;
#X connect 4 0 2 0;
#X connect 5 0 3 0;
#X restore 457 314 pd toggleswitches2;
#N canvas 0 0 1600 849 volbars3 0;
#X obj 68 80 tabread \$0-vbardata;
#X obj 68 4 inlet;
#X obj 68 99 outlet;
#X obj 83 42 * 16;
#X obj 68 61 +;
#X obj 83 23 r \$0-playpat3;
#X connect 0 0 2 0;
#X connect 1 0 4 0;
#X connect 3 0 4 1;
#X connect 4 0 0 0;
#X connect 5 0 3 0;
#X restore 571 314 pd volbars3;
#N canvas 0 0 1600 871 toggleswitches3 0;
#X obj 8 24 inlet;
#X obj 8 119 outlet;
#X obj 8 100 tabread \$0-vtogdata;
#X obj 23 62 * 16;
#X obj 8 81 +;
#X obj 23 43 r \$0-playpat3;
#X connect 0 0 4 0;
#X connect 2 0 1 0;
#X connect 3 0 4 1;
#X connect 4 0 2 0;
#X connect 5 0 3 0;
#X restore 643 314 pd toggleswitches3;
#N canvas 0 0 1600 871 toggleswitches0 0;
#X obj 8 24 inlet;
#X obj 8 119 outlet;
#X obj 8 100 tabread \$0-vtogdata;
#X obj 23 62 * 16;
#X obj 8 81 +;
#X obj 23 43 r \$0-playpat0;
#X connect 0 0 4 0;
#X connect 2 0 1 0;
#X connect 3 0 4 1;
#X connect 4 0 2 0;
#X connect 5 0 3 0;
#X restore 85 314 pd toggleswitches0;
#N canvas 0 0 1600 849 volbars0 0;
#X obj 68 80 tabread \$0-vbardata;
#X obj 68 4 inlet;
#X obj 68 99 outlet;
#X obj 83 42 * 16;
#X obj 68 61 +;
#X obj 83 23 r \$0-playpat0;
#X connect 0 0 2 0;
#X connect 1 0 4 0;
#X connect 3 0 4 1;
#X connect 4 0 0 0;
#X connect 5 0 3 0;
#X restore 13 314 pd volbars0;
#X obj 293 213 t f f f f;
#X obj 475 342 r \$0-bypass;
#X obj 475 361 route 0 1 2 3;
#X connect 0 0 1 0;
#X connect 1 0 22 0;
#X connect 3 0 2 0;
#X connect 4 0 21 0;
#X connect 4 1 20 0;
#X connect 6 0 5 0;
#X connect 7 0 8 0;
#X connect 7 1 9 0;
#X connect 8 0 6 0;
#X connect 9 0 6 1;
#X connect 11 0 10 0;
#X connect 12 0 16 0;
#X connect 12 1 17 0;
#X connect 14 0 13 0;
#X connect 15 0 18 0;
#X connect 15 1 19 0;
#X connect 16 0 11 0;
#X connect 17 0 11 1;
#X connect 18 0 14 0;
#X connect 19 0 14 1;
#X connect 20 0 3 1;
#X connect 21 0 3 0;
#X connect 22 0 4 0;
#X connect 22 1 7 0;
#X connect 22 2 12 0;
#X connect 22 3 15 0;
#X connect 23 0 24 0;
#X connect 24 0 2 0;
#X connect 24 1 5 0;
#X connect 24 2 10 0;
#X connect 24 3 13 0;
#X restore 28 320 pd outs;
#X obj 190 309 table \$0-vbardata 128;
#X obj 190 328 table \$0-vtogdata 128;
#N canvas 0 0 1600 849 vbarreadwrite 0;
#X obj 595 22 r \$0-volbar0;
#X obj 595 38 r \$0-volbar1;
#X obj 595 54 r \$0-volbar2;
#X obj 595 70 r \$0-volbar3;
#X obj 595 86 r \$0-volbar4;
#X obj 595 102 r \$0-volbar5;
#X obj 595 118 r \$0-volbar6;
#X obj 595 134 r \$0-volbar7;
#X obj 595 150 r \$0-volbar8;
#X obj 595 166 r \$0-volbar9;
#X obj 595 182 r \$0-volbar10;
#X obj 595 198 r \$0-volbar11;
#X obj 595 214 r \$0-volbar12;
#X obj 595 230 r \$0-volbar13;
#X obj 595 246 r \$0-volbar14;
#X obj 595 262 r \$0-volbar15;
#X text 335 19 this subwindow stores the volume of each volbar.;
#X obj 486 388 unpack f f;
#X obj 426 426 tabwrite \$0-vbardata;
#X msg 416 42 \$1 0;
#X msg 426 61 \$1 1;
#X msg 436 80 \$1 2;
#X msg 446 99 \$1 3;
#X msg 456 118 \$1 4;
#X msg 466 137 \$1 5;
#X msg 476 156 \$1 6;
#X msg 486 175 \$1 7;
#X msg 496 194 \$1 8;
#X msg 506 213 \$1 9;
#X msg 516 232 \$1 10;
#X msg 526 251 \$1 11;
#X msg 536 270 \$1 12;
#X msg 546 289 \$1 13;
#X msg 556 308 \$1 14;
#X msg 566 327 \$1 15;
#X obj 558 388 * 16;
#X obj 543 407 +;
#X obj 255 127 r \$0-curpat;
#X obj 236 194 until;
#X obj 292 195 count 16;
#X msg 292 168 reset;
#X obj 272 250 * 16;
#X obj 257 269 +;
#X msg 236 175 16;
#X obj 292 214 t f f;
#X obj 278 347 s;
#X msg 293 328 symbol \$2-rvolbar\$1;
#X obj 319 285 pack 0 \$0;
#X obj 180 300 tabread \$0-vbardata;
#X obj 255 146 t b f b f;
#X obj 547 507 s \$0-vr;
#X obj 595 488 r \$0-vs;
#X msg 547 488 set \$1;
#X obj 595 507 pack f f \$0;
#X floatatom 596 441 5 0 0 0 - - -;
#X msg 595 526 \; \$3-rvolbar\$2 \$1;
#X connect 0 0 19 0;
#X connect 1 0 20 0;
#X connect 2 0 21 0;
#X connect 3 0 22 0;
#X connect 4 0 23 0;
#X connect 5 0 24 0;
#X connect 6 0 25 0;
#X connect 7 0 26 0;
#X connect 8 0 27 0;
#X connect 9 0 28 0;
#X connect 10 0 29 0;
#X connect 11 0 30 0;
#X connect 12 0 31 0;
#X connect 13 0 32 0;
#X connect 14 0 33 0;
#X connect 15 0 34 0;
#X connect 17 0 18 0;
#X connect 17 0 52 0;
#X connect 17 1 36 0;
#X connect 17 1 53 1;
#X connect 17 1 54 0;
#X connect 19 0 17 0;
#X connect 20 0 17 0;
#X connect 21 0 17 0;
#X connect 22 0 17 0;
#X connect 23 0 17 0;
#X connect 24 0 17 0;
#X connect 25 0 17 0;
#X connect 26 0 17 0;
#X connect 27 0 17 0;
#X connect 28 0 17 0;
#X connect 29 0 17 0;
#X connect 30 0 17 0;
#X connect 31 0 17 0;
#X connect 32 0 17 0;
#X connect 33 0 17 0;
#X connect 34 0 17 0;
#X connect 35 0 36 1;
#X connect 36 0 18 1;
#X connect 37 0 49 0;
#X connect 38 0 39 0;
#X connect 39 0 44 0;
#X connect 40 0 39 0;
#X connect 41 0 42 1;
#X connect 42 0 48 0;
#X connect 43 0 38 0;
#X connect 44 0 42 0;
#X connect 44 1 47 0;
#X connect 46 0 45 1;
#X connect 47 0 46 0;
#X connect 48 0 45 0;
#X connect 49 0 43 0;
#X connect 49 1 41 0;
#X connect 49 2 40 0;
#X connect 49 3 35 0;
#X connect 51 0 53 0;
#X connect 52 0 50 0;
#X connect 53 0 55 0;
#X restore 283 95 pd vbarreadwrite;
#N canvas 0 0 1600 871 vtogreadwrite 0;
#X obj 206 348 unpack f f;
#X msg 156 32 \$1 0;
#X msg 166 51 \$1 1;
#X msg 176 70 \$1 2;
#X msg 186 89 \$1 3;
#X msg 196 108 \$1 4;
#X msg 206 127 \$1 5;
#X obj 535 17 r \$0-curpat;
#X msg 216 146 \$1 6;
#X msg 226 165 \$1 7;
#X msg 236 184 \$1 8;
#X msg 246 203 \$1 9;
#X msg 256 222 \$1 10;
#X msg 266 241 \$1 11;
#X msg 276 260 \$1 12;
#X msg 286 279 \$1 13;
#X msg 296 298 \$1 14;
#X msg 306 317 \$1 15;
#X obj 516 84 until;
#X obj 572 85 count 16;
#X msg 572 58 reset;
#X obj 552 140 * 16;
#X obj 537 159 +;
#X msg 516 65 16;
#X obj 572 104 t f f;
#X obj 558 237 s;
#X obj 599 175 pack 0 \$0;
#X obj 535 36 t b f b f;
#X obj 278 348 * 16;
#X obj 263 367 +;
#X text 75 9 this subwindow stores the state of each toggle.;
#X obj 335 12 r \$0-ts0;
#X obj 335 28 r \$0-ts1;
#X obj 335 44 r \$0-ts2;
#X obj 335 60 r \$0-ts3;
#X obj 335 76 r \$0-ts4;
#X obj 335 92 r \$0-ts5;
#X obj 335 108 r \$0-ts6;
#X obj 146 386 tabwrite \$0-vtogdata;
#X obj 460 190 tabread \$0-vtogdata;
#X msg 573 218 symbol \$2-tr\$1;
#X obj 335 124 r \$0-ts7;
#X obj 335 140 r \$0-ts8;
#X obj 335 156 r \$0-ts9;
#X obj 335 172 r \$0-ts10;
#X obj 335 188 r \$0-ts11;
#X obj 335 204 r \$0-ts12;
#X obj 335 220 r \$0-ts13;
#X obj 335 236 r \$0-ts14;
#X obj 335 252 r \$0-ts15;
#X connect 0 0 38 0;
#X connect 0 1 29 0;
#X connect 1 0 0 0;
#X connect 2 0 0 0;
#X connect 3 0 0 0;
#X connect 4 0 0 0;
#X connect 5 0 0 0;
#X connect 6 0 0 0;
#X connect 7 0 27 0;
#X connect 8 0 0 0;
#X connect 9 0 0 0;
#X connect 10 0 0 0;
#X connect 11 0 0 0;
#X connect 12 0 0 0;
#X connect 13 0 0 0;
#X connect 14 0 0 0;
#X connect 15 0 0 0;
#X connect 16 0 0 0;
#X connect 17 0 0 0;
#X connect 18 0 19 0;
#X connect 19 0 24 0;
#X connect 20 0 19 0;
#X connect 21 0 22 1;
#X connect 22 0 39 0;
#X connect 23 0 18 0;
#X connect 24 0 22 0;
#X connect 24 1 26 0;
#X connect 26 0 40 0;
#X connect 27 0 23 0;
#X connect 27 1 21 0;
#X connect 27 2 20 0;
#X connect 27 3 28 0;
#X connect 28 0 29 1;
#X connect 29 0 38 1;
#X connect 31 0 1 0;
#X connect 32 0 2 0;
#X connect 33 0 3 0;
#X connect 34 0 4 0;
#X connect 35 0 5 0;
#X connect 36 0 6 0;
#X connect 37 0 8 0;
#X connect 39 0 25 0;
#X connect 40 0 25 1;
#X connect 41 0 9 0;
#X connect 42 0 10 0;
#X connect 43 0 11 0;
#X connect 44 0 12 0;
#X connect 45 0 13 0;
#X connect 46 0 14 0;
#X connect 47 0 15 0;
#X connect 48 0 16 0;
#X connect 49 0 17 0;
#X restore 283 114 pd vtogreadwrite;
#N canvas 0 29 800 849 saver 0;
#X obj 94 206 r \$0-save;
#X obj 154 225 route bang symbol;
#X obj 203 256 symbol \$1;
#X text 249 149 send a symbol to the inlet to "save as...";
#X obj 154 206 inlet;
#X text 356 211 anaseq stores its data in two files - anaseqb for the
bars \, anaseqt for the toggle switches.;
#X msg 423 325 ~d/anaseqb-\$1;
#X msg 290 325 ~d/anaseqt-\$1;
#X obj 423 363 pack s \$0;
#X msg 423 382 \; \$2-vbardata write \$1;
#X obj 290 363 pack s \$0;
#X msg 290 382 \; \$2-vtogdata write \$1;
#X obj 290 344 kfilename;
#X obj 423 344 kfilename;
#X obj 203 275 emptysymbol;
#X obj 249 480 print anaseq;
#X msg 249 416 data saved as \$1;
#X msg 203 435 cant write table - no name provided (open anaseq and
enter one in the symbol box);
#X connect 0 0 1 0;
#X connect 1 0 2 0;
#X connect 1 1 2 0;
#X connect 1 2 2 0;
#X connect 2 0 14 0;
#X connect 4 0 1 0;
#X connect 6 0 13 0;
#X connect 7 0 12 0;
#X connect 8 0 9 0;
#X connect 10 0 11 0;
#X connect 10 0 16 0;
#X connect 12 0 10 0;
#X connect 13 0 8 0;
#X connect 14 0 17 0;
#X connect 14 1 6 0;
#X connect 14 1 7 0;
#X connect 16 0 15 0;
#X connect 17 0 15 0;
#X restore 445 95 pd saver;
#N canvas 0 29 800 849 loader 0;
#X obj 116 228 loadbang;
#X obj 190 222 inlet;
#X obj 143 266 symbol \$1;
#X msg 116 424 0;
#X obj 116 247 t b b;
#X text 354 202 send a symbol to the inlet to load a file.;
#X obj 116 443 s \$0-cpatswitch;
#X msg 142 335 ~d/anaseqt-\$1;
#X msg 269 335 ~d/anaseqb-\$1;
#X obj 269 373 pack s \$0;
#X msg 269 392 \; \$2-vbardata read \$1;
#X obj 142 373 pack s \$0;
#X msg 142 392 \; \$2-vtogdata read \$1;
#X obj 142 354 kfilename;
#X obj 269 354 kfilename;
#X obj 143 285 emptysymbol;
#X connect 0 0 4 0;
#X connect 1 0 2 0;
#X connect 2 0 15 0;
#X connect 3 0 6 0;
#X connect 4 0 3 0;
#X connect 4 1 2 0;
#X connect 7 0 13 0;
#X connect 8 0 14 0;
#X connect 9 0 10 0;
#X connect 11 0 12 0;
#X connect 13 0 11 0;
#X connect 14 0 9 0;
#X connect 15 1 8 0;
#X connect 15 1 7 0;
#X restore 499 95 pd loader;
#X symbolatom 445 59 20 0 0 0 - - -;
#X symbolatom 499 77 20 0 0 0 - - -;
#N canvas 0 0 1600 849 copier 0;
#X obj 342 86 r \$0-copy;
#X obj 369 124 route float list bang;
#X obj 299 185 pack 0 0;
#X obj 410 313 unpack f f;
#X obj 451 259 - 1;
#X obj 433 287 pack 0 0;
#X obj 451 221 f;
#X text 522 262 from/to;
#X obj 451 240 t f f;
#X obj 494 525 +;
#X obj 377 487 +;
#X obj 410 332 t b f;
#X obj 353 375 until;
#X obj 353 413 t f f;
#X obj 344 166 r \$0-curpat;
#X obj 509 506 * 16;
#X obj 353 394 count 16;
#X msg 353 356 16;
#X obj 392 468 * 16;
#X obj 237 546 tabread \$0-vbardata;
#X obj 237 584 tabwrite \$0-vbardata;
#X obj 377 587 tabread \$0-vtogdata;
#X obj 377 625 tabwrite \$0-vtogdata;
#X obj 255 127 s \$0-cpatswitch;
#X obj 342 105 t b a;
#X connect 0 0 24 0;
#X connect 1 0 2 0;
#X connect 1 1 3 0;
#X connect 1 2 6 0;
#X connect 2 0 3 0;
#X connect 3 0 11 0;
#X connect 3 1 15 0;
#X connect 4 0 5 0;
#X connect 5 0 3 0;
#X connect 6 0 8 0;
#X connect 8 0 4 0;
#X connect 8 1 5 1;
#X connect 9 0 20 1;
#X connect 9 0 22 1;
#X connect 10 0 19 0;
#X connect 10 0 21 0;
#X connect 11 0 17 0;
#X connect 11 1 18 0;
#X connect 12 0 16 0;
#X connect 13 0 10 0;
#X connect 13 1 9 0;
#X connect 14 0 2 1;
#X connect 14 0 6 1;
#X connect 15 0 9 1;
#X connect 16 0 13 0;
#X connect 17 0 12 0;
#X connect 18 0 10 1;
#X connect 19 0 20 0;
#X connect 21 0 22 0;
#X connect 24 0 23 0;
#X connect 24 1 1 0;
#X restore 385 95 pd copier;
#X obj 276 255 s \$0-go;
#X obj 291 -7 r \$0-go;
#X obj 306 236 s \$0-copy;
#X text 469 117 the sequencer accepts bangs to go to the next step
\, or floats from 0 to 15 to specify the step.;
#X text 470 146 WARNING: be sure to change the paths within the "pd
saver" and "pd loader" sub-patches before you attempt to save \; it's
unlikely that the path i use exists on your system.;
#X text 474 427 sending a "set [x] [y] [value]" message will change
the value of the toggle for the specified box on the currently displayed
pattern. remember that x and y are both indexed from zero!;
#X text 475 476 the "cp" button will copy the previous pattern to the
current one. if you want to copy a different pattern \, you can send
a "copy [from] [to]" message to copy from whichever pattern you want.
;
#X text 470 184 if you send a "save" message without any extra parameters
\, the sequencer will overwrite the data to the file specified by the
anaseq's first argument (\$1). otherwise \, you can always send "save
foo" to save to the file "foo".;
#X text 470 236 if you don't specify the filename to save the data
to by providing a first argument for the drumseq \, it may attempt
to write to the file "anaseq-0" which is most likely undesirable. if
you've made a pattern without a first argument and you want to save
it \, type a name in the symbol atom above and the data will be saved
there. then you can add a first argument to the anaseq and it should
load the newly-saved data.;
#X text 472 329 send a "pat [number]" message to change the pattern
being displayed. send a "play [number] [output]" message to change
the pattern being played. since there are 4 outputs \, you can have
4 different patterns playing simultaneously. outputs are indexed from
0 to 3;
#X text 473 391 the "go" button (as well as sending a "go" message)
changes the pattern playing on the first outlet to the one currently
displayed.;
#X text 475 526 sending a "bypass [number] [value]" message will send
the value to the outlet specified by the number. remember that outlets
are indexed from zero.;
#X obj 55 198 route bang float set toggle tog play pat go copy bypass
;
#X obj 349 217 s \$0-bypass;
#N canvas 0 0 1600 849 seq 0;
#X obj 199 54 inlet;
#X obj 199 73 % 16;
#X obj 199 92 int;
#X obj 199 111 abs;
#X obj 316 145 pack f \$0;
#X obj 246 128 t f b f;
#X obj 294 240 f;
#X obj 316 295 pack f f \$0;
#X obj 294 259 t f f;
#X obj 347 276 map 11 1 10 0;
#X text 233 84 here's some math to make sure we get good numbers.;
#X text 458 237 here's stuff to change the colors of the tgls.;
#X obj 199 338 s \$0-seq;
#X msg 316 164 \; \$2-tr\$1 color 13 \; \$2-tr\$1 color 13 \; \$2-tr\$1
color 13 \; \$2-tr\$1 color 13;
#X msg 316 314 \; \$3-tr\$1 color \$2 \; \$3-tr\$1 color \$2 \; \$3-tr\$1
color \$2 \; \$3-tr\$1 color \$2;
#X connect 0 0 1 0;
#X connect 1 0 2 0;
#X connect 2 0 3 0;
#X connect 3 0 5 0;
#X connect 3 0 12 0;
#X connect 4 0 13 0;
#X connect 5 0 6 1;
#X connect 5 1 6 0;
#X connect 5 2 4 0;
#X connect 6 0 8 0;
#X connect 7 0 14 0;
#X connect 8 0 7 0;
#X connect 8 1 9 0;
#X connect 9 0 7 1;
#X restore 84 274 pd seq;
#X floatatom 139 0 3 0 127 0 - #0-vr #0-vs;
#X obj -13 349 outlet;
#X obj 29 349 outlet;
#X obj 71 349 outlet;
#X obj 113 349 outlet;
#X obj 224 160 loadbang;
#X msg 224 179 play 1 1 \, play 2 2 \, play 3 3;
#X obj 291 50 s \$0-playpat0;
#X connect 16 0 66 0;
#X connect 37 0 38 1;
#X connect 38 0 76 0;
#X connect 39 0 68 0;
#X connect 44 0 70 0;
#X connect 44 1 71 0;
#X connect 44 2 72 0;
#X connect 44 3 73 0;
#X connect 51 0 49 0;
#X connect 52 0 50 0;
#X connect 55 0 38 0;
#X connect 66 0 39 0;
#X connect 66 1 68 0;
#X connect 66 2 40 0;
#X connect 66 3 41 0;
#X connect 66 4 41 0;
#X connect 66 5 43 0;
#X connect 66 6 42 0;
#X connect 66 7 54 0;
#X connect 66 8 56 0;
#X connect 66 9 67 0;
#X connect 74 0 75 0;
#X connect 75 0 66 0;
#X coords 0 -1 1 1 208 163 1 10 0;
