#N canvas 0 0 1600 849 10;
#X obj 348 344 inlet;
#X obj 458 165 inlet;
#X obj 429 473 map;
#X obj 444 306 kbdm;
#X obj 221 215 key;
#X floatatom 221 234 5 0 0 0 - - -;
#X obj 429 241 tgl 15 0 empty empty empty 17 7 0 10 -262144 -1 -1 0
1;
#X msg 429 258 \; osd arp recording: \$1;
#X obj 458 184 sel 96 126;
#X obj 444 325 spigot;
#X obj 444 344 t b f;
#X msg 471 363 add2 \$1;
#X msg 444 382;
#X obj 481 428 list length;
#X obj 424 133 key;
#X msg 514 330 set;
#X msg 446 226 \; osd arp reset;
#X obj 384 344 lb \$1;
#X msg 384 363 mode \$1;
#N canvas 0 0 1600 849 mode 0;
#X obj 148 122 inlet;
#X obj 261 122 inlet;
#X obj 177 441 outlet;
#X obj 216 343 r \$0-len;
#X obj 303 252 spigot;
#X obj 366 252 spigot;
#X obj 336 233 == 3;
#X obj 399 233 == 4;
#X obj 177 392 counter;
#X obj 114 252 spigot;
#X obj 147 233 == 0;
#X obj 177 252 spigot;
#X obj 240 252 spigot;
#X obj 210 233 == 1;
#X obj 273 233 == 2;
#X obj 366 420 random;
#X obj 219 305 < 3;
#X obj 186 324 spigot;
#X obj 192 286 t f f;
#X obj 216 373 - 1;
#X connect 0 0 4 0;
#X connect 0 0 5 0;
#X connect 0 0 9 0;
#X connect 0 0 11 0;
#X connect 0 0 12 0;
#X connect 1 0 6 0;
#X connect 1 0 7 0;
#X connect 1 0 14 0;
#X connect 1 0 13 0;
#X connect 1 0 10 0;
#X connect 1 0 18 0;
#X connect 3 0 15 1;
#X connect 3 0 19 0;
#X connect 5 0 15 0;
#X connect 6 0 4 1;
#X connect 7 0 5 1;
#X connect 8 0 2 0;
#X connect 9 0 8 0;
#X connect 10 0 9 1;
#X connect 11 0 8 0;
#X connect 12 0 8 0;
#X connect 13 0 11 1;
#X connect 14 0 12 1;
#X connect 15 0 2 0;
#X connect 16 0 17 1;
#X connect 17 0 8 1;
#X connect 18 0 17 0;
#X connect 18 1 16 0;
#X connect 19 0 8 4;
#X restore 348 403 pd mode;
#X obj 348 382 route bang mode;
#X obj 481 447 s \$0-len;
#X obj 429 492 outlet;
#X obj 210 433 hradio 15 1 0 5 empty empty empty 0 -8 0 10 -262144
-1 -1 0;
#X connect 0 0 20 0;
#X connect 1 0 8 0;
#X connect 2 0 22 0;
#X connect 3 0 9 0;
#X connect 4 0 5 0;
#X connect 6 0 7 0;
#X connect 6 0 9 1;
#X connect 8 0 6 0;
#X connect 8 1 16 0;
#X connect 8 1 15 0;
#X connect 8 2 3 0;
#X connect 9 0 10 0;
#X connect 10 0 12 0;
#X connect 10 1 11 0;
#X connect 11 0 12 0;
#X connect 12 0 2 1;
#X connect 12 0 13 0;
#X connect 13 0 21 0;
#X connect 14 0 8 0;
#X connect 15 0 12 0;
#X connect 17 0 18 0;
#X connect 18 0 20 0;
#X connect 19 0 2 0;
#X connect 20 0 19 0;
#X connect 20 1 19 1;
#X connect 23 0 18 0;
