#N canvas 0 29 1600 849 10;
#X obj 356 166 inlet~;
#X obj 356 205 *~ 1;
#X obj 407 161 lb \$1 16;
#X obj 356 224 edger~;
#X obj 389 246 lb \$2 1;
#X obj 356 394 outlet;
#X obj 356 265 bfilt2;
#X text 493 194 beat~ - make beats from a phasor;
#X obj 420 394 outlet;
#X obj 407 142 inlet;
#X obj 482 242 inlet;
#X text 488 270 arg 1 is how many bangs should trigger for each cycle
of the audio (phasor) input. outputs every [arg 2] bangs.;
#X obj 377 186 - 1;
#X obj 420 375 snapshot~;
#X connect 0 0 1 0;
#X connect 1 0 3 0;
#X connect 1 0 13 0;
#X connect 2 0 12 0;
#X connect 3 0 6 0;
#X connect 3 0 13 0;
#X connect 4 0 6 1;
#X connect 6 0 5 0;
#X connect 9 0 2 0;
#X connect 10 0 4 0;
#X connect 12 0 1 1;
#X connect 13 0 8 0;
