#N canvas 1680 29 1600 871 10;
#X obj 223 105 inlet;
#N canvas 1680 29 1600 871 ticker 0;
#X obj 40 40 inlet;
#X obj 40 59 route bang float set up down left right;
#X msg 205 78 -1;
#X msg 238 78 1;
#X obj 86 276 pack f f \$0;
#X obj 86 235 t f f;
#X obj 59 123 f;
#X obj 83 123 + 1;
#X obj 59 142 moses;
#X obj 187 106 t f f;
#X obj 214 125 abs;
#X obj 214 144 sel 6;
#X obj 33 189 sel 29;
#X msg 28 214 35;
#X obj 286 77 r \$0-set;
#X msg 86 295 \; \$3-\$2 hi 0 \; \$3-\$1 hi 1 \, bang;
#X obj 33 170 + 16;
#X obj 86 171 moses 16;
#X obj 131 190 - 16;
#X obj 131 209 % 4;
#X msg 172 78 4;
#X msg 139 78 -4;
#X msg 214 163 15;
#X msg 241 163 16;
#X connect 0 0 1 0;
#X connect 1 0 6 0;
#X connect 1 2 9 0;
#X connect 1 3 21 0;
#X connect 1 4 20 0;
#X connect 1 5 2 0;
#X connect 1 6 3 0;
#X connect 2 0 9 0;
#X connect 3 0 9 0;
#X connect 4 0 15 0;
#X connect 5 0 4 1;
#X connect 5 1 4 0;
#X connect 6 0 7 0;
#X connect 6 0 8 0;
#X connect 7 0 6 1;
#X connect 8 0 16 0;
#X connect 8 1 17 0;
#X connect 9 0 7 1;
#X connect 9 1 10 0;
#X connect 10 0 11 0;
#X connect 11 0 22 0;
#X connect 11 1 23 0;
#X connect 12 0 13 0;
#X connect 12 1 6 0;
#X connect 13 0 6 0;
#X connect 14 0 9 0;
#X connect 16 0 12 0;
#X connect 17 0 5 0;
#X connect 17 1 18 0;
#X connect 18 0 19 0;
#X connect 19 0 6 0;
#X connect 20 0 9 0;
#X connect 21 0 9 0;
#X connect 22 0 16 1;
#X connect 22 0 18 1;
#X connect 23 0 16 1;
#X connect 23 0 18 1;
#X restore 298 143 pd ticker;
#X obj 184 342 r \$0-out;
#X obj 184 471 outlet;
#X floatatom 223 210 3 0 0 0 - - #0-set;
#X obj 254 162 lb 1;
#X obj 184 394 spigot 1;
#X obj 238 394 spigot 0;
#X obj 238 375 rangem \$1;
#X obj 318 375 lb \$1;
#X obj 318 394 != 0;
#X obj 318 413 kinv;
#X obj 223 124 route set dir;
#X obj 183 225 sbox \$0-0 \$0-out;
#X obj 198 225 sbox \$0-1 \$0-out;
#X obj 228 225 sbox \$0-3 \$0-out;
#X obj 213 225 sbox \$0-2 \$0-out;
#X text 349 220 [boxseq] is a 4x4 grid of numbers. you can click and
drag up & down on each box to change the value or just click to toggle
whether it's on or off. the number box at the top changes the direction
of the sequencer.;
#X obj 183 240 sbox \$0-4 \$0-out;
#X obj 198 240 sbox \$0-5 \$0-out;
#X obj 213 240 sbox \$0-6 \$0-out;
#X obj 228 240 sbox \$0-7 \$0-out;
#X obj 183 255 sbox \$0-8 \$0-out;
#X obj 198 255 sbox \$0-9 \$0-out;
#X obj 213 255 sbox \$0-10 \$0-out;
#X obj 228 255 sbox \$0-11 \$0-out;
#X obj 183 270 sbox \$0-12 \$0-out;
#X obj 198 270 sbox \$0-13 \$0-out;
#X obj 213 270 sbox \$0-14 \$0-out;
#X obj 228 270 sbox \$0-15 \$0-out;
#X connect 0 0 12 0;
#X connect 2 0 6 0;
#X connect 2 0 8 0;
#X connect 5 0 4 0;
#X connect 6 0 3 0;
#X connect 7 0 3 0;
#X connect 8 0 7 0;
#X connect 9 0 10 0;
#X connect 10 0 7 1;
#X connect 10 0 11 0;
#X connect 11 0 6 1;
#X connect 12 0 4 0;
#X connect 12 1 4 0;
#X connect 12 2 1 0;
#X coords 0 -1 1 1 60 77 1 183 210;
