#N canvas 0 0 1600 849 10;
#X obj 94 137 metro;
#X obj 109 92 / 4;
#X obj 78 -2 inlet;
#X obj 78 17 route bang float;
#X floatatom 109 113 10 0 0 1 time_between_bangs - -;
#X floatatom 109 46 5 0 0 0 - - -;
#X obj 109 72 expr (60/$f1)*1000;
#X obj 94 46 tgl 15 0 empty empty empty 17 7 0 10 -262144 -1 -1 1 1
;
#X obj 333 56 lb \$2 64;
#X obj 236 75 / 4;
#X text 368 80 second argument = number of bangs per measure;
#X obj 94 175 outlet;
#X obj 94 156 count \$2;
#X text 332 -8 bpm any;
#X floatatom 230 91 5 0 0 0 - - -;
#X obj 215 -5 lb \$1 120;
#X connect 0 0 12 0;
#X connect 1 0 4 0;
#X connect 2 0 3 0;
#X connect 3 0 7 0;
#X connect 3 1 5 0;
#X connect 4 0 0 1;
#X connect 5 0 6 0;
#X connect 6 0 1 0;
#X connect 7 0 0 0;
#X connect 8 0 9 0;
#X connect 8 0 12 1;
#X connect 9 0 1 1;
#X connect 9 0 14 0;
#X connect 12 0 11 0;
#X connect 15 0 5 0;
