#N canvas 1920 29 1920 1051 10;
#X obj 303 406 outlet;
#X obj 230 407 outlet;
#X obj 163 406 outlet;
#X obj 208 28 inlet;
#X obj 208 47 route bang float;
#X obj 347 76 lb \$1 120;
#X obj 224 116 tgl 15 0 \$0-on-off \$0-cnv empty 1 7 0 10 -262144 -1
-1 0 1;
#X obj 456 380 phasor~;
#X obj 176 364 sel 0;
#X msg 495 361 0;
#X obj 456 399 outlet~;
#X msg 159 300 time \$1;
#X obj 159 281 * 16;
#X text 21 299 time to play whole bar;
#X obj 254 76 moses 50;
#X obj 224 200 t b f f;
#X text 138 421 bang (downbeat);
#X floatatom 239 116 5 0 0 0 - - -, f 5;
#X obj 244 28 r bpmm;
#X text 302 421 floats (4th);
#X text 232 421 bangs (4th);
#X text 420 88 FIX: dont send anything on the first outlet until the
bpmm is started.;
#X msg 99 221 freq \$1;
#N canvas 0 50 1600 849 gui 0;
#X obj 284 215 s \$0-cnv;
#X obj 225 116 % 4;
#X obj 225 135 sel 0;
#X msg 284 177 0;
#X msg 284 196 color \$1 22 22;
#X msg 225 154 18;
#X obj 284 158 del 90;
#X obj 302 330 s \$0-cnv;
#X msg 302 311 label \$1;
#X obj 302 292 ftos;
#X obj 356 271 loadbang;
#X msg 356 290 label \, color 0 22 22;
#X obj 225 97 inlet;
#X connect 1 0 2 0;
#X connect 2 0 5 0;
#X connect 2 0 6 0;
#X connect 3 0 4 0;
#X connect 4 0 0 0;
#X connect 5 0 4 0;
#X connect 6 0 3 0;
#X connect 8 0 7 0;
#X connect 9 0 8 0;
#X connect 10 0 11 0;
#X connect 11 0 7 0;
#X connect 12 0 1 0;
#X connect 12 0 9 0;
#X restore 272 200 pd gui;
#N canvas 0 50 1600 849 metro-time 0;
#X obj 7 193 / 4;
#X text 30 188 I think this would be 8 for 16th notes and probably
16 for 32nd notes;
#X obj 7 174 /;
#X obj 7 136 t b f;
#X floatatom 7 232 10 0 0 1 time_between_bangs - -, f 10;
#X obj 7 117 inlet;
#X obj 7 250 outlet;
#X msg 7 155 60000;
#X connect 0 0 4 0;
#X connect 2 0 0 0;
#X connect 3 0 7 0;
#X connect 3 1 2 1;
#X connect 4 0 6 0;
#X connect 5 0 3 0;
#X connect 7 0 2 0;
#X restore 197 144 pd metro-time;
#N canvas 0 50 1600 849 freq 0;
#X obj 37 37 inlet;
#X obj 37 56 / 240;
#X obj 52 75 r \$0-on-off;
#X obj 37 126 *;
#X obj 52 94 t b f;
#X obj 37 145 outlet;
#X connect 0 0 1 0;
#X connect 1 0 3 0;
#X connect 2 0 4 0;
#X connect 3 0 5 0;
#X connect 4 0 3 0;
#X connect 4 1 3 1;
#X restore 149 144 pd freq;
#N canvas 0 50 1600 849 4th-notes 0;
#X obj 37 56 inlet;
#X obj 10 75 metro;
#X obj 10 94 count 16;
#X obj 10 37 r \$0-on-off;
#X obj 10 113 outlet;
#X connect 0 0 1 1;
#X connect 1 0 2 0;
#X connect 2 0 4 0;
#X connect 3 0 1 0;
#X restore 224 171 pd 4th-notes;
#X text 153 223 frequency of a phasor~ sync'd to the bar;
#X obj 229 95 != 0;
#X msg 206 334 bpm \$1;
#X connect 3 0 4 0;
#X connect 4 0 6 0;
#X connect 4 1 14 0;
#X connect 5 0 17 0;
#X connect 7 0 10 0;
#X connect 8 0 2 0;
#X connect 8 0 9 0;
#X connect 9 0 7 1;
#X connect 11 0 2 0;
#X connect 12 0 11 0;
#X connect 14 0 28 0;
#X connect 14 1 17 0;
#X connect 15 0 1 0;
#X connect 15 1 0 0;
#X connect 15 2 8 0;
#X connect 17 0 24 0;
#X connect 17 0 25 0;
#X connect 17 0 29 0;
#X connect 18 0 4 0;
#X connect 22 0 2 0;
#X connect 24 0 12 0;
#X connect 24 0 26 0;
#X connect 25 0 22 0;
#X connect 25 0 7 0;
#X connect 26 0 15 0;
#X connect 26 0 23 0;
#X connect 28 0 6 0;
#X connect 29 0 2 0;
#X coords 0 -1 1 1 84 17 1 192 116;
