#N canvas 0 29 1600 849 10;
#X obj 84 127 metro;
#X obj 163 326 outlet;
#X obj 99 82 / 4;
#X obj 90 327 outlet;
#X obj 163 307 % 16;
#X obj 23 326 outlet;
#X obj 68 -52 inlet;
#X obj 68 -33 route bang float;
#X floatatom 99 103 10 0 0 1 time_between_bangs - -;
#X obj 84 146 count 16;
#X obj 207 -4 lb \$1 120;
#X obj 99 62 expr (60/$f1)*1000;
#X obj 84 36 tgl 15 0 empty empty empty 1 7 0 10 -262144 -1 -1 0 1
;
#X obj 384 157 / 240;
#X obj 391 187 phasor~;
#X obj 23 289 sel 0;
#X msg 75 387 0;
#X floatatom 344 184 5 0 0 0 - - -;
#X msg 312 202 freq \$1;
#X obj 396 219 outlet~;
#X obj 232 169 f;
#X obj 213 150 sel 0 1;
#X msg 204 172 0;
#X msg -9 147 time \$1;
#X obj -9 128 * 16;
#X text -31 108 time to play whole bar;
#X obj 114 -4 moses 50;
#X obj 84 235 t b f f;
#X text -2 341 bang (downbeat);
#X obj 154 235 s \$0-cnv;
#X floatatom 99 36 5 0 0 0 - - -;
#X obj 95 166 % 4;
#X obj 95 185 sel 0;
#X msg 154 197 0;
#X obj 14 -2 r \$0-cnv;
#X msg 154 216 color \$1 22 22;
#X msg 117 208 18;
#X obj 154 178 del 90;
#X obj 104 -52 r bpmm;
#X obj 302 330 s \$0-cnv;
#X msg 302 311 label \$1;
#X obj 302 292 ftos;
#X obj 356 271 loadbang;
#X msg 356 290 label \, color 0 22 22;
#X text 162 341 floats (4th);
#X text 92 341 bangs (4th);
#X text 122 77 I think this would be 8 for 16th notes and probably
16 for 32nd notes;
#X text 330 8 FIX: dont send anything on the first outlet until the
bpmm is started.;
#X connect 0 0 9 0;
#X connect 2 0 8 0;
#X connect 4 0 1 0;
#X connect 4 0 41 0;
#X connect 6 0 7 0;
#X connect 7 0 12 0;
#X connect 7 1 26 0;
#X connect 8 0 0 1;
#X connect 8 0 24 0;
#X connect 9 0 27 0;
#X connect 9 0 31 0;
#X connect 10 0 30 0;
#X connect 11 0 2 0;
#X connect 12 0 0 0;
#X connect 12 0 21 0;
#X connect 13 0 14 0;
#X connect 13 0 17 0;
#X connect 13 0 18 0;
#X connect 14 0 19 0;
#X connect 15 0 5 0;
#X connect 15 0 16 0;
#X connect 16 0 14 1;
#X connect 18 0 5 0;
#X connect 20 0 13 0;
#X connect 21 0 22 0;
#X connect 21 1 20 0;
#X connect 22 0 13 0;
#X connect 23 0 5 0;
#X connect 24 0 23 0;
#X connect 26 0 12 0;
#X connect 26 1 30 0;
#X connect 27 0 3 0;
#X connect 27 1 4 0;
#X connect 27 2 15 0;
#X connect 30 0 11 0;
#X connect 30 0 13 0;
#X connect 30 0 20 1;
#X connect 31 0 32 0;
#X connect 32 0 36 0;
#X connect 32 0 37 0;
#X connect 33 0 35 0;
#X connect 34 0 12 0;
#X connect 35 0 29 0;
#X connect 36 0 35 0;
#X connect 37 0 33 0;
#X connect 38 0 7 0;
#X connect 40 0 39 0;
#X connect 41 0 40 0;
#X connect 42 0 43 0;
#X connect 43 0 39 0;
#X coords 0 -1 1 1 71 18 1 60 36;
