#N canvas 0 29 1600 849 10;
#X obj 88 127 metro;
#X obj 88 36 tgl 15 0 empty empty empty 17 7 0 10 -262144 -1 -1 0 100
;
#X obj 104 62 expr 60/$f1*1000;
#X obj 88 148 outlet;
#X msg 202 32 120;
#X obj 207 -34 loadbang;
#X obj 207 4 sel 0;
#X obj 207 -15 f \$1;
#X floatatom 104 100 10 0 0 1 time_between_bangs - -;
#X obj 104 81 / 16;
#X text 46 -55 this bpmm outputs 64th notes;
#X text 126 125 bangs for each 64th note;
#X obj 64 -39 inlet;
#X obj 103 36 nbx 3 14 10 999 0 0 empty empty empty 0 -8 0 10 -262144
-1 -1 120 256;
#X obj 64 -1 moses 2;
#X obj 64 -20 route float;
#X connect 0 0 3 0;
#X connect 1 0 0 0;
#X connect 2 0 9 0;
#X connect 4 0 13 0;
#X connect 5 0 7 0;
#X connect 6 0 4 0;
#X connect 6 1 13 0;
#X connect 7 0 6 0;
#X connect 8 0 0 1;
#X connect 9 0 8 0;
#X connect 12 0 15 0;
#X connect 13 0 2 0;
#X connect 14 0 1 0;
#X connect 14 1 13 0;
#X connect 15 0 14 0;
#X connect 15 1 1 0;
#X coords 0 -1 1 1 79 14 1 60 36;
