#N canvas 1920 50 2560 1566 10;
#X obj 303 406 outlet;
#X obj 230 407 outlet;
#X obj 163 406 outlet;
#X obj 214 27 inlet;
#X obj 347 76 lb \$1 120;
#X obj 245 116 tgl 15 0 \$0-on-off \$0-cnv 1 1 7 0 10 #fcfcfc #000000 #000000 0 1;
#X obj 456 380 phasor~;
#X obj 176 364 sel 0;
#X msg 495 361 0;
#X obj 456 399 outlet~;
#X msg 159 300 time \$1;
#X obj 159 281 * 16;
#X text 21 299 time to play whole bar;
#X obj 254 76 moses 50;
#X obj 224 200 t b f f;
#X text 138 421 bang (downbeat);
#X floatatom 260 116 5 0 0 0 - - - 0;
#X obj 250 27 r bpmm;
#X text 302 421 floats (4th);
#X text 232 421 bangs (4th);
#X msg 99 221 freq \$1;
#N canvas 1920 30 2560 1568 gui 0;
#X obj 284 215 s \$0-cnv;
#X obj 225 116 % 4;
#X obj 225 135 sel 0;
#X msg 284 177 0;
#X msg 284 196 color \$1 22 22;
#X msg 225 154 18;
#X obj 284 158 del 90;
#X obj 242 300 s \$0-cnv;
#X msg 242 281 label \$1;
#X obj 346 261 loadbang;
#X msg 346 280 label \, color 0 22 22;
#X obj 225 97 inlet;
#X obj 242 262 makefilename %s;
#X connect 1 0 2 0;
#X connect 2 0 5 0;
#X connect 2 0 6 0;
#X connect 3 0 4 0;
#X connect 4 0 0 0;
#X connect 5 0 4 0;
#X connect 6 0 3 0;
#X connect 8 0 7 0;
#X connect 9 0 10 0;
#X connect 10 0 7 0;
#X connect 11 0 1 0;
#X connect 11 0 12 0;
#X connect 12 0 8 0;
#X restore 272 200 pd gui;
#N canvas 0 0 2560 1568 metro-time 0;
#X obj 7 193 / 4;
#X text 30 188 I think this would be 8 for 16th notes and probably 16 for 32nd notes;
#X obj 7 174 /;
#X obj 7 136 t b f;
#X floatatom 7 232 10 0 0 1 time_between_bangs - - 0;
#X obj 7 77 inlet;
#X obj 7 250 outlet;
#X msg 7 155 60000;
#X obj 7 99 route float bang;
#X obj 112 103 r \$0-on-off;
#X connect 0 0 4 0;
#X connect 2 0 0 0;
#X connect 3 0 7 0;
#X connect 3 1 2 1;
#X connect 4 0 6 0;
#X connect 5 0 8 0;
#X connect 7 0 2 0;
#X connect 8 0 3 0;
#X connect 8 1 7 0;
#X connect 9 0 7 0;
#X restore 197 144 pd metro-time;
#N canvas 0 50 1600 849 freq 0;
#X obj 37 37 inlet;
#X obj 37 56 / 240;
#X obj 52 75 r \$0-on-off;
#X obj 37 126 *;
#X obj 52 94 t b f;
#X obj 37 145 outlet;
#X connect 0 0 1 0;
#X connect 1 0 3 0;
#X connect 2 0 4 0;
#X connect 3 0 5 0;
#X connect 4 0 3 0;
#X connect 4 1 3 1;
#X restore 149 144 pd freq;
#N canvas 1920 50 2560 1568 4th-notes 0;
#X obj 37 56 inlet;
#X obj 10 75 metro;
#X obj 10 37 r \$0-on-off;
#X obj 10 113 outlet;
#X obj 10 94 i 0;
#X obj 34 94 + 1;
#X obj 58 94 % 16;
#X connect 0 0 1 1;
#X connect 1 0 4 0;
#X connect 2 0 1 0;
#X connect 4 0 3 0;
#X connect 4 0 5 0;
#X connect 5 0 6 0;
#X connect 6 0 4 1;
#X restore 224 171 pd 4th-notes;
#X text 153 223 frequency of a phasor~ sync'd to the bar;
#X obj 229 95 != 0;
#X msg 206 334 bpm \$1;
#X obj 214 46 route bang float phase 16th;
#X text 447 152 FIX: implement "phase" and "16th" messages to reset the phase of the phasor and counter.;
#X connect 3 0 28 0;
#X connect 4 0 16 0;
#X connect 6 0 9 0;
#X connect 7 0 2 0;
#X connect 7 0 8 0;
#X connect 8 0 6 1;
#X connect 10 0 2 0;
#X connect 11 0 10 0;
#X connect 13 0 26 0;
#X connect 13 1 16 0;
#X connect 14 0 1 0;
#X connect 14 1 0 0;
#X connect 14 2 7 0;
#X connect 16 0 22 0;
#X connect 16 0 23 0;
#X connect 16 0 27 0;
#X connect 17 0 28 0;
#X connect 20 0 2 0;
#X connect 22 0 11 0;
#X connect 22 0 24 0;
#X connect 23 0 20 0;
#X connect 23 0 6 0;
#X connect 24 0 14 0;
#X connect 24 0 21 0;
#X connect 26 0 5 0;
#X connect 27 0 2 0;
#X connect 28 0 5 0;
#X connect 28 1 13 0;
#X coords 0 -1 1 1 100 17 1 192 116;
