#N canvas 1920 30 1920 1050 10;
#X obj 457 68 inlet;
#X obj 580 199 inlet;
#X obj 734 280 inlet;
#X obj 509 450 outlet;
#X obj 498 178 t b f;
#X obj 509 340 f;
#X obj 533 340 + 1;
#X obj 509 360 bang;
#X obj 589 355 del \$2;
#X obj 457 88 route bang float list;
#X obj 539 108 unpack f f;
#X obj 540 423 sel 0;
#X obj 540 402 == 0;
#X msg 495 265 1;
#X text 374 27 burst generator - when one bang is received \, output
\$1 bangs separated by \$2 milliseconds;
#X obj 540 381 mod;
#X obj 580 219 route float list;
#X obj 634 266 unpack f f;
#X obj 569 297 lb \$1 1;
#X connect 0 0 9 0;
#X connect 1 0 16 0;
#X connect 2 0 8 1;
#X connect 4 0 13 0;
#X connect 4 1 18 0;
#X connect 5 0 6 0;
#X connect 5 0 7 0;
#X connect 5 0 15 0;
#X connect 6 0 5 1;
#X connect 7 0 3 0;
#X connect 8 0 5 0;
#X connect 9 0 13 0;
#X connect 9 1 4 0;
#X connect 9 2 10 0;
#X connect 10 0 4 0;
#X connect 10 1 8 1;
#X connect 11 0 8 0;
#X connect 12 0 11 0;
#X connect 13 0 5 0;
#X connect 15 0 12 0;
#X connect 16 0 18 0;
#X connect 16 1 17 0;
#X connect 17 0 18 0;
#X connect 17 1 8 1;
#X connect 18 0 15 1;
