#N canvas 0 29 1600 849 10;
#X obj 303 184 wrap~;
#X obj 303 222 edge~;
#X obj 303 165 inlet~;
#X obj 303 203 expr~ $v1<$f2;
#X obj 303 260 outlet;
#X obj 330 241 outlet;
#X obj 378 184 / 10;
#X obj 426 119 inlet;
#X obj 378 119 lb \$1 5;
#X text 378 237 non-zero to zero transition;
#X text 345 260 zero to non-zero transition;
#X connect 0 0 3 0;
#X connect 1 0 4 0;
#X connect 1 1 5 0;
#X connect 2 0 0 0;
#X connect 3 0 1 0;
#X connect 6 0 3 1;
#X connect 7 0 6 0;
#X connect 8 0 6 0;
