#N canvas 0 0 1600 848 10;
#X obj 28 -145 inlet;
#X obj -20 -145 r ft-\$1;
#X obj 174 -71 tabread t-\$1;
#N canvas 0 0 450 300 (subpatch) 0;
#X array t-\$1 16 float 3;
#A 0 85 94 89 98 56 29 83 56 58 56 58 56 91 79 93 87;
#X coords 0 127 16 0 200 140 1;
#X restore 100 115 graph;
#X symbolatom 238 98 10 0 0 0 - - -;
#X obj 236 41 loadbang;
#X obj 238 74 symbol ft-\$1;
#X msg 178 71 \$1;
#X obj 174 45 outlet;
#X msg 183 23 size \$1;
#X obj 226 0 arraysize;
#X obj 275 -68 loadbang;
#X obj 275 -49 t b b;
#X obj 258 -48 bng 15 250 50 0 empty empty empty 17 7 0 10 -262144
-1 -1;
#X obj 294 -20 symbol t-\$1;
#X obj 104 -20 symbol t-\$1;
#X obj 105 -50 loadbang;
#X obj 71 39 pack f s;
#X obj 38 119 pack f s;
#X msg -1 154 \; \$2 resize \$1;
#X msg 127 4 set \$1;
#X obj 212 -92 count;
#X obj 183 100 nbx 5 14 -1e+37 1e+37 0 0 empty empty empty 0 -8 0 10
-262144 -1 -1 16 256;
#X floatatom 187 -46 5 0 0 0 - - -;
#X obj 28 -126 route arraysize size resize float bang set;
#X obj 337 -61 tabwrite t-\$1;
#X obj 311 -95 unpack f f;
#X obj 124 -90 s \$0-ft-n;
#X obj 392 37 r \$0-ft-n;
#X obj 103 255 hsl 195 8 0 1 0 0 empty empty empty -2 -8 0 10 -262144
-1 -1 0 1;
#X obj 399 120 /;
#X connect 0 0 24 0;
#X connect 1 0 24 0;
#X connect 2 0 8 0;
#X connect 5 0 6 0;
#X connect 6 0 4 0;
#X connect 7 0 22 0;
#X connect 9 0 8 0;
#X connect 10 0 9 0;
#X connect 10 0 22 0;
#X connect 10 0 30 1;
#X connect 11 0 12 0;
#X connect 12 0 10 0;
#X connect 12 1 14 0;
#X connect 13 0 12 0;
#X connect 14 0 10 1;
#X connect 15 0 17 1;
#X connect 15 0 18 1;
#X connect 15 0 20 0;
#X connect 16 0 15 0;
#X connect 17 0 7 0;
#X connect 17 0 9 0;
#X connect 17 0 30 1;
#X connect 18 0 19 0;
#X connect 18 0 9 0;
#X connect 20 0 2 0;
#X connect 21 0 2 0;
#X connect 21 0 23 0;
#X connect 21 0 27 0;
#X connect 22 0 18 0;
#X connect 22 0 21 1;
#X connect 22 0 30 1;
#X connect 24 0 17 0;
#X connect 24 1 17 0;
#X connect 24 2 17 0;
#X connect 24 3 2 0;
#X connect 24 3 27 0;
#X connect 24 4 21 0;
#X connect 24 5 26 0;
#X connect 26 0 25 1;
#X connect 26 1 25 0;
#X connect 28 0 30 0;
#X connect 30 0 29 0;
#X coords 0 -1 1 1 200 165 2 100 98;
