#N canvas 800 29 800 849 10;
#X obj 397 188 inlet;
#X obj 460 344 outlet;
#X text 147 248 hashread;
#X obj 460 306 s \$1;
#X obj 460 325 r \$0-hr;
#X msg 460 287 get \$1 \$2-hr;
#X obj 504 188 loadbang;
#X msg 504 226 set get \, adddollar 1 \, add2 \$1-hr;
#X obj 504 207 f \$0;
#X obj 397 207 route float;
#X obj 460 226 symbol;
#X connect 0 0 9 0;
#X connect 4 0 1 0;
#X connect 5 0 3 0;
#X connect 6 0 8 0;
#X connect 7 0 5 0;
#X connect 8 0 7 0;
#X connect 9 0 5 0;
#X connect 9 1 10 0;
#X connect 10 0 5 0;
