#N canvas 0 29 1600 849 10;
#N canvas 0 29 1600 849 indexes 0;
#X obj 122 138 r \$0-indexes;
#X obj 122 328 s \$0-ilist;
#X msg 122 191 R 0S 1S 2S 3S 4S 5S 6S 7S 8S 9S 10S 11S 12S 13S 14S
15S 16S 17S 18S 19S 20S 21S 22S 23S 24S 25S 26S 27S 28S 29S 30S 31S
32S 33S 34S 35S 36S 37S 38S 39S 40S 41S 42S 43S 44S 45S 46S 47S 48S
49S 50S 51S 52S 53S 54S 55S 56S 57S 58S 59S 60S 61S 62S 63S 64S 65S
66S 67S 68S 69S 70S 71S 72S 73S 74S 75S 76S 77S 78S 79S 80S 81S 82S
83S 84S 85S 86S 87S 88S 89S 90S 91S 92S 93S 94S 95S 96S 97S 98S 99S
0-0x0 0-0x1 0-2x0 0-2x1 0-4x0 0-4x1 0-2x2 0-2x3;
#X obj 200 119 loadbang;
#X msg 200 138 set list;
#X connect 0 0 2 0;
#X connect 2 0 1 0;
#X connect 3 0 4 0;
#X connect 4 0 2 0;
#X restore 195 -79 pd indexes;
#N canvas 0 29 1600 849 values 0;
#X obj 122 138 r \$0-values;
#X obj 122 324 s \$0-vlist;
#X msg 122 191 4 16 16 16 16 16 16 16 16 16 16 16 16 16 16 16 16 16
16 16 16 16 16 16 16 16 16 16 16 16 16 16 16 16 16 16 16 16 16 16 16
16 16 16 16 16 16 16 16 16 16 16 16 16 16 16 16 16 16 16 16 16 16 16
16 16 16 16 16 16 16 16 16 16 16 16 16 16 16 16 16 16 16 16 16 16 16
16 16 16 16 16 16 16 16 16 16 16 16 16 16 1 1 1 1 1 1 1 1;
#X obj 194 119 loadbang;
#X msg 194 138 set list;
#X connect 0 0 2 0;
#X connect 2 0 1 0;
#X connect 3 0 4 0;
#X connect 4 0 2 0;
#X restore 261 -79 pd values;
#X obj 225 -244 r \$1;
#N canvas 0 29 1600 849 set 0;
#X obj 77 80 inlet;
#X obj 51 205 list-idx 1;
#X obj 123 205 list-idx 0;
#X msg 123 224 add2 \$1;
#X msg 51 224 add2 \$1;
#X obj 123 243 s \$0-indexes;
#X obj 51 243 s \$0-values;
#X obj 51 175 spigot 0;
#X obj 96 137 list length;
#X obj 96 156 > 1;
#X obj 77 99 t a a a;
#N canvas 0 29 1600 849 delete 0;
#X obj 287 290 inlet;
#X obj 287 353 list-idx 0;
#X obj 350 372 r \$0-ilist;
#X obj 287 391 list-find-1;
#X obj 287 410 sel -1;
#X obj 320 479 t b f;
#X obj 322 334 s \$0-indexes;
#X obj 287 309 t a b;
#X obj 320 498 list;
#X obj 320 517 list-delete 0 1;
#X obj 377 555 prepent set;
#X obj 320 536 route bang;
#X msg 320 555 set list;
#X obj 490 479 t b f;
#X obj 490 498 list;
#X obj 490 517 list-delete 0 1;
#X obj 547 555 prepent set;
#X obj 490 536 route bang;
#X msg 490 555 set list;
#X obj 520 372 r \$0-vlist;
#X obj 377 594 s \$0-indexes;
#X obj 547 594 s \$0-values;
#X obj 400 334 s \$0-values;
#X connect 0 0 7 0;
#X connect 1 0 3 0;
#X connect 2 0 3 1;
#X connect 2 0 8 1;
#X connect 3 0 4 0;
#X connect 4 1 5 0;
#X connect 4 1 13 0;
#X connect 5 0 8 0;
#X connect 5 1 9 1;
#X connect 7 0 1 0;
#X connect 7 1 6 0;
#X connect 7 1 22 0;
#X connect 8 0 9 0;
#X connect 9 0 11 0;
#X connect 10 0 20 0;
#X connect 11 0 12 0;
#X connect 11 1 10 0;
#X connect 12 0 20 0;
#X connect 13 0 14 0;
#X connect 13 1 15 1;
#X connect 14 0 15 0;
#X connect 15 0 17 0;
#X connect 16 0 21 0;
#X connect 17 0 18 0;
#X connect 17 1 16 0;
#X connect 18 0 21 0;
#X connect 19 0 14 1;
#X restore 116 118 pd delete;
#X connect 0 0 10 0;
#X connect 1 0 4 0;
#X connect 2 0 3 0;
#X connect 3 0 5 0;
#X connect 4 0 6 0;
#X connect 7 0 2 0;
#X connect 7 0 1 0;
#X connect 8 0 9 0;
#X connect 9 0 7 1;
#X connect 10 0 7 0;
#X connect 10 1 8 0;
#X connect 10 2 11 0;
#X restore 189 -115 pd set;
#N canvas 0 29 1600 849 get 0;
#X obj 139 14 inlet;
#X obj 139 237 list-find-1;
#X obj 158 180 s \$0-indexes;
#X obj 236 180 s \$0-values;
#X obj 202 218 r \$0-ilist;
#X obj 139 256 sel -1;
#X obj 367 193 list-idx 1;
#X obj 172 390 s;
#X obj 139 106 spigot 0;
#X obj 184 68 list length;
#X obj 184 87 > 1;
#X obj 139 33 t a a;
#X obj 139 125 t a b a;
#X obj 172 332 list-idx;
#X obj 172 313 list;
#X obj 193 294 r \$0-vlist;
#X obj 172 275 t b f;
#X obj 139 199 list-idx 0;
#X connect 0 0 11 0;
#X connect 1 0 5 0;
#X connect 4 0 1 1;
#X connect 5 0 7 0;
#X connect 5 1 16 0;
#X connect 6 0 7 1;
#X connect 8 0 12 0;
#X connect 9 0 10 0;
#X connect 10 0 8 1;
#X connect 11 0 8 0;
#X connect 11 1 9 0;
#X connect 12 0 17 0;
#X connect 12 1 2 0;
#X connect 12 1 3 0;
#X connect 12 2 6 0;
#X connect 13 0 7 0;
#X connect 14 0 13 0;
#X connect 15 0 14 1;
#X connect 16 0 14 0;
#X connect 16 1 13 1;
#X connect 17 0 1 0;
#X restore 222 -134 pd get;
#X obj 189 -191 route set get save load;
#X obj 189 -244 inlet;
#N canvas 0 29 1600 849 save 0;
#X obj 37 37 inlet;
#X obj 109 189 textfile;
#X text 171 190 keys \, then values;
#X obj 109 208 prepent set;
#X obj 109 227 prepent 0;
#X obj 109 246 route 0 1;
#X msg 109 132 clear;
#X obj 37 56 t a b b b;
#X msg 37 132 write \$1;
#X obj 37 113 symbol;
#X obj 109 295 s \$0-indexes;
#X obj 134 276 s \$0-values;
#X obj 172 116 r \$0-ilist;
#X obj 172 135 prepent add;
#X obj 244 135 prepent add;
#X obj 244 116 r \$0-vlist;
#X obj 71 75 s \$0-indexes;
#X obj 54 94 s \$0-values;
#X connect 0 0 7 0;
#X connect 1 0 3 0;
#X connect 3 0 4 0;
#X connect 4 0 5 0;
#X connect 5 0 10 0;
#X connect 5 1 11 0;
#X connect 6 0 1 0;
#X connect 7 0 9 0;
#X connect 7 1 17 0;
#X connect 7 2 16 0;
#X connect 7 3 6 0;
#X connect 8 0 1 0;
#X connect 9 0 8 0;
#X connect 12 0 13 0;
#X connect 13 0 1 0;
#X connect 14 0 1 0;
#X connect 15 0 14 0;
#X restore 256 -153 pd save;
#N canvas 0 29 1600 849 load 0;
#X obj 37 37 inlet;
#X obj 37 56 t b b b b a;
#X obj 100 204 textfile;
#X text 162 205 keys \, then values;
#X obj 100 223 prepent set;
#X obj 100 242 prepent 0;
#X obj 100 261 route 0 1;
#X msg 84 94 0;
#X msg 52 75 1;
#X obj 113 75 symbol;
#X msg 113 94 clear \, read \$1 \, rewind;
#X obj 100 310 s \$0-indexes;
#X obj 125 291 s \$0-values;
#X connect 0 0 1 0;
#X connect 1 0 2 0;
#X connect 1 1 8 0;
#X connect 1 2 2 0;
#X connect 1 3 7 0;
#X connect 1 4 9 0;
#X connect 2 0 4 0;
#X connect 4 0 5 0;
#X connect 5 0 6 0;
#X connect 6 0 11 0;
#X connect 6 1 12 0;
#X connect 7 0 5 1;
#X connect 8 0 5 1;
#X connect 9 0 10 0;
#X connect 10 0 2 0;
#X restore 290 -172 pd load;
#X text 373 -255 message formats:;
#X text 371 -232 set [index] [value] -- if you don't provide a value
\, that pair will be erased from the hash.;
#X text 371 -199 get [index] [return-receive] -- the return-receive
is the name of the receive to send the value to.;
#X text 370 -165 save [filename];
#X text 370 -145 load [filename];
#X connect 2 0 5 0;
#X connect 5 0 3 0;
#X connect 5 1 4 0;
#X connect 5 2 7 0;
#X connect 5 3 8 0;
#X connect 6 0 5 0;
