#N canvas 0 0 800 849 10;
#X floatatom 100 80 6 0 999999 3 - #0-attackc #0-attack;
#X floatatom 138 80 6 0 999999 3 - #0-decayc #0-decay;
#X floatatom 176 80 6 0 127 3 - #0-sustainc #0-sustain;
#X floatatom 214 80 6 0 999999 3 - #0-releasec #0-release;
#X obj 24 33 r \$0-env;
#X obj 106 52 envgen 136 24 1 0  ;
#X obj 256 207 *~;
#X obj 266 148 r \$0-notevol;
#N canvas 0 0 1600 849 envelope 0;
#X obj 339 462 pack f f f f;
#X obj 407 326 mrange;
#X obj 332 326 t b f;
#X obj 407 345 t b f;
#X obj 494 326 t b f;
#X msg 339 481 0 \$1 1 \$2 \$3 \$4 \, freeze 1;
#X obj 198 500 outlet;
#X msg 198 424 attack \$1;
#X msg 198 443 decay \$1;
#X msg 198 462 sustain \$1;
#X msg 198 481 release \$1;
#X obj 339 500 s \$0-env;
#X obj 252 288 r \$0-attack;
#X obj 332 288 r \$0-decay;
#X obj 407 288 r \$0-sustain;
#X obj 494 288 r \$0-release;
#X connect 0 0 5 0;
#X connect 1 0 3 0;
#X connect 1 0 9 0;
#X connect 2 0 0 0;
#X connect 2 1 0 1;
#X connect 3 0 0 0;
#X connect 3 1 0 2;
#X connect 4 0 0 0;
#X connect 4 1 0 3;
#X connect 5 0 11 0;
#X connect 7 0 6 0;
#X connect 8 0 6 0;
#X connect 9 0 6 0;
#X connect 10 0 6 0;
#X connect 12 0 0 0;
#X connect 12 0 7 0;
#X connect 13 0 2 0;
#X connect 13 0 8 0;
#X connect 14 0 1 0;
#X connect 15 0 4 0;
#X connect 15 0 10 0;
#X restore 256 129 pd envelope;
#X obj 256 175 adsr~ 0 0 0 0 -1;
#X obj 256 226 outlet~;
#X obj 114 149 unpack s f;
#X obj 114 192 pack s f \$0;
#X msg 114 211 \; \$3-\$1c \$2;
#X obj 67 243 unpack f f;
#X obj 21 111 inlet;
#X obj 21 130 route float list;
#X obj 21 363 s \$0-notevol;
#X text 142 9 iadsr~ - a simple gui for adsr~;
#X connect 4 0 5 0;
#X connect 6 0 10 0;
#X connect 7 0 9 0;
#X connect 8 0 9 0;
#X connect 9 0 6 1;
#X connect 9 0 6 0;
#X connect 11 0 12 0;
#X connect 11 1 12 1;
#X connect 12 0 13 0;
#X connect 14 1 17 0;
#X connect 15 0 16 0;
#X connect 16 0 17 0;
#X connect 16 1 14 0;
#X connect 16 2 11 0;
#X coords 0 -1 1 1 152 61 1 100 37;
