#N canvas 0 29 1600 849 10;
#X text 413 49 ilist - simple indexed list manager.;
#X text 413 69 send "ins [position] [element]" to insert an element
at the position. send "rem [position]" to delete the element at the
position. bang to output the list.;
#N canvas 0 29 1600 849 list 0;
#X obj 183 99 inlet;
#X obj 183 280 outlet;
#X obj 183 118 route bang;
#X msg 183 211 list;
#X obj 346 101 inlet;
#X obj 346 120 bang;
#X obj 384 125 loadbang;
#X obj 183 261 list trim;
#X msg 346 148 set list;
#X obj 240 137 prepent set;
#X connect 0 0 2 0;
#X connect 2 0 3 0;
#X connect 2 1 9 0;
#X connect 3 0 7 0;
#X connect 4 0 5 0;
#X connect 5 0 8 0;
#X connect 6 0 8 0;
#X connect 7 0 1 0;
#X connect 8 0 3 0;
#X connect 9 0 3 0;
#X restore 147 176 pd list;
#X obj 147 195 prepent b;
#N canvas 0 29 1600 849 insert 0;
#X obj 73 205 inlet;
#X obj 179 106 inlet;
#X obj 206 294 outlet;
#X text 128 87 list \, position \, element;
#X obj 217 252 list-insert;
#X obj 217 271 list trim;
#X obj 179 182 t b f;
#X obj 217 222 any;
#X obj 179 125 t a a b;
#X obj 198 144 list-idx 1;
#X obj 179 163 list-idx 0;
#X connect 0 0 4 2;
#X connect 1 0 8 0;
#X connect 4 0 5 0;
#X connect 5 0 2 0;
#X connect 6 0 7 0;
#X connect 6 1 4 1;
#X connect 7 0 4 0;
#X connect 8 0 10 0;
#X connect 8 1 9 0;
#X connect 8 2 2 0;
#X connect 9 0 7 1;
#X connect 10 0 6 0;
#X restore 97 254 pd insert;
#X obj 102 112 t a b;
#X msg 129 131 i;
#X obj 188 94 t b b;
#X msg 215 113 b;
#N canvas 0 29 1600 849 remove 0;
#X obj 252 140 inlet;
#X obj 288 140 inlet;
#X obj 288 284 outlet;
#X obj 252 202 list-delete 0 1;
#X obj 288 159 t b f;
#X obj 252 221 route bang;
#X obj 330 284 outlet;
#X connect 0 0 3 0;
#X connect 1 0 4 0;
#X connect 3 0 5 0;
#X connect 4 0 2 0;
#X connect 4 1 3 1;
#X connect 5 0 6 0;
#X connect 5 1 2 0;
#X restore 168 254 pd remove;
#X obj 151 106 t f b;
#X msg 178 125 r;
#X obj 189 305 outlet;
#X obj 122 56 inlet;
#X obj 122 75 route ins rem bang list symbol clear add add2;
#X obj 305 107 t a b;
#X obj 147 214 route i r b a;
#X msg 332 126 a;
#N canvas 0 29 1600 849 add 0;
#X obj 57 169 inlet;
#X obj 165 131 inlet;
#X obj 141 308 outlet;
#X obj 165 150 t a b;
#X obj 57 188 prepent set;
#X msg 131 263 foo bar baz;
#X obj 165 169 route float;
#X obj 228 188 symbol;
#X msg 165 208 add2 \$1 \, bang;
#X connect 0 0 4 0;
#X connect 1 0 3 0;
#X connect 3 0 6 0;
#X connect 3 1 2 0;
#X connect 4 0 5 0;
#X connect 5 0 2 0;
#X connect 6 0 8 0;
#X connect 6 1 7 0;
#X connect 7 0 8 0;
#X connect 8 0 5 0;
#X restore 243 249 pd add;
#X connect 2 0 3 0;
#X connect 3 0 16 0;
#X connect 4 0 2 0;
#X connect 5 0 4 1;
#X connect 5 1 6 0;
#X connect 6 0 3 1;
#X connect 7 0 2 0;
#X connect 7 1 8 0;
#X connect 8 0 3 1;
#X connect 9 0 2 0;
#X connect 9 1 2 1;
#X connect 10 0 9 1;
#X connect 10 1 11 0;
#X connect 11 0 3 1;
#X connect 13 0 14 0;
#X connect 14 0 5 0;
#X connect 14 1 10 0;
#X connect 14 2 7 0;
#X connect 14 3 2 0;
#X connect 14 5 2 1;
#X connect 14 6 15 0;
#X connect 14 7 15 0;
#X connect 15 0 18 1;
#X connect 15 1 17 0;
#X connect 16 0 4 0;
#X connect 16 1 9 0;
#X connect 16 2 12 0;
#X connect 16 3 18 0;
#X connect 17 0 3 1;
#X connect 18 0 2 0;
