#N canvas 800 29 800 849 10;
#X text 363 49 ilist - simple indexed list manager.;
#X text 363 69 send "ins [position] [element]" to insert an element
at the position. send "rem [position]" to delete the element at the
position. bang to output the list.;
#X obj 122 75 route ins rem bang list symbol clear;
#N canvas 800 29 800 849 list 0;
#X obj 183 99 inlet;
#X obj 183 280 outlet;
#X obj 183 118 route bang;
#X msg 183 211 57 57 57 57 48 48 78 43;
#X obj 346 101 inlet;
#X obj 346 120 bang;
#X obj 384 125 loadbang;
#X obj 183 261 list trim;
#X msg 346 148 set list;
#X obj 240 137 prepent set;
#X connect 0 0 2 0;
#X connect 2 0 3 0;
#X connect 2 1 9 0;
#X connect 3 0 7 0;
#X connect 4 0 5 0;
#X connect 5 0 8 0;
#X connect 6 0 8 0;
#X connect 7 0 1 0;
#X connect 8 0 3 0;
#X connect 9 0 3 0;
#X restore 147 176 pd list;
#X obj 147 195 prepent b;
#X obj 147 214 route i r b;
#N canvas 800 468 800 410 insert 0;
#X obj 143 125 inlet;
#X obj 179 125 inlet;
#X obj 206 294 outlet;
#X text 128 86 list \, position \, element;
#X obj 179 144 t a b;
#X obj 217 252 list-insert;
#X obj 217 271 list trim;
#X obj 179 182 t b f;
#X obj 179 163 unpack;
#X obj 217 222 any;
#X connect 0 0 5 2;
#X connect 1 0 4 0;
#X connect 4 0 8 0;
#X connect 4 1 2 0;
#X connect 5 0 6 0;
#X connect 6 0 2 0;
#X connect 7 0 9 0;
#X connect 7 1 5 1;
#X connect 8 0 7 0;
#X connect 8 1 9 1;
#X connect 9 0 5 0;
#X restore 97 254 pd insert;
#X obj 102 112 t a b;
#X msg 129 131 i;
#X obj 193 94 t b b;
#X msg 220 113 b;
#N canvas 0 29 800 410 remove 0;
#X obj 252 140 inlet;
#X obj 288 140 inlet;
#X obj 288 284 outlet;
#X obj 252 202 list-delete 0 1;
#X obj 288 159 t b f;
#X obj 252 221 route bang;
#X obj 330 284 outlet;
#X connect 0 0 3 0;
#X connect 1 0 4 0;
#X connect 3 0 5 0;
#X connect 4 0 2 0;
#X connect 4 1 3 1;
#X connect 5 0 6 0;
#X connect 5 1 2 0;
#X restore 168 254 pd remove;
#X obj 151 106 t f b;
#X msg 178 125 r;
#X obj 189 305 outlet;
#X obj 122 56 inlet;
#X connect 2 0 7 0;
#X connect 2 1 12 0;
#X connect 2 2 9 0;
#X connect 2 3 3 0;
#X connect 2 5 3 1;
#X connect 3 0 4 0;
#X connect 4 0 5 0;
#X connect 5 0 6 0;
#X connect 5 1 11 0;
#X connect 5 2 14 0;
#X connect 6 0 3 0;
#X connect 7 0 6 1;
#X connect 7 1 8 0;
#X connect 8 0 4 1;
#X connect 9 0 3 0;
#X connect 9 1 10 0;
#X connect 10 0 4 1;
#X connect 11 0 3 0;
#X connect 11 1 3 1;
#X connect 12 0 11 1;
#X connect 12 1 13 0;
#X connect 13 0 4 1;
#X connect 15 0 2 0;
