#N canvas 0 29 1600 849 10;
#X obj 112 26 inlet;
#X text 353 19 ilist - simple indexed list manager.;
#X text 353 39 send "ins [position] [element]" to insert an element
at the position. send "rem [position]" to delete the element at the
position. bang to output the list.;
#X obj 187 305 list-delete 0 1;
#X obj 147 64 t b f b;
#X obj 136 258 route i r b;
#X obj 136 239 prepent b;
#X obj 178 277 outlet;
#X msg 187 142 r;
#X obj 89 341 list-insert;
#X obj 79 140 unpack f s;
#X obj 89 322 symbol;
#X obj 79 159 t b f b;
#X msg 118 178 i;
#X obj 136 294 t b a;
#X obj 89 360 prepent set;
#X obj 220 143 t b b;
#X msg 247 162 b;
#X obj 407 226 list length;
#X obj 407 245 sel 0;
#X obj 53 71 prepent 0;
#X obj 53 90 route 0 1;
#X msg 23 135 set \$2;
#X msg 407 264 0;
#X msg 434 264 1;
#X msg 12 102 1;
#X msg 136 220 list;
#X msg 248 105 set list;
#X obj 187 324 prepent set;
#X obj 330 311 route bang;
#X obj 112 45 route ins rem bang list symbol clear;
#X msg 234 76 set list \$1;
#X connect 0 0 30 0;
#X connect 3 0 18 0;
#X connect 3 0 28 0;
#X connect 3 0 29 0;
#X connect 4 0 26 0;
#X connect 4 1 3 1;
#X connect 4 2 8 0;
#X connect 5 0 14 0;
#X connect 5 1 3 0;
#X connect 5 2 7 0;
#X connect 6 0 5 0;
#X connect 8 0 6 1;
#X connect 9 0 15 0;
#X connect 9 0 24 0;
#X connect 10 0 12 0;
#X connect 10 1 11 1;
#X connect 11 0 9 0;
#X connect 12 0 26 0;
#X connect 12 1 9 1;
#X connect 12 2 13 0;
#X connect 13 0 6 1;
#X connect 14 0 11 0;
#X connect 14 1 9 2;
#X connect 15 0 26 0;
#X connect 16 0 26 0;
#X connect 16 1 17 0;
#X connect 17 0 6 1;
#X connect 18 0 19 0;
#X connect 19 0 23 0;
#X connect 19 1 24 0;
#X connect 20 0 21 0;
#X connect 21 0 22 0;
#X connect 21 0 25 0;
#X connect 21 1 10 0;
#X connect 22 0 26 0;
#X connect 23 0 20 1;
#X connect 24 0 20 1;
#X connect 25 0 20 1;
#X connect 26 0 6 0;
#X connect 27 0 26 0;
#X connect 28 0 26 0;
#X connect 29 0 27 0;
#X connect 30 0 20 0;
#X connect 30 1 4 0;
#X connect 30 2 16 0;
#X connect 30 3 28 0;
#X connect 30 4 31 0;
#X connect 30 5 27 0;
#X connect 30 5 23 0;
#X connect 31 0 26 0;
