#N canvas 2 32 1600 870 10;
#X obj 172 60 inlet;
#X obj 231 56 inlet;
#X obj 244 107 pack 0 \$1;
#X obj 212 145 line;
#X obj 212 164 outlet;
#X obj 172 79 route float;
#X connect 0 0 5 0;
#X connect 1 0 2 1;
#X connect 2 0 3 0;
#X connect 3 0 4 0;
#X connect 5 0 2 0;
#X connect 5 1 3 0;
