#N canvas 1920 30 1920 1050 10;
#X obj 171 103 inlet;
#X obj 240 103 inlet;
#X obj 205 160 outlet;
#X obj 171 122 list split 1;
#X obj 205 141 list split 1;
#X text 351 115 list-nth - get the nth element of a list;
#X connect 0 0 3 0;
#X connect 1 0 3 1;
#X connect 3 1 4 0;
#X connect 4 0 2 0;
