#N canvas 0 0 800 849 10;
#X obj 218 260 inlet;
#X msg 233 415 foo ta ta ta ta ta;
#X msg 233 356 add2 \$1;
#X obj 173 361 t b b;
#X obj 149 620 outlet;
#X text 251 203 listman - list manager. use add and rem messages to
add or remove items from the list. send a bang to output the list.
;
#X obj 290 356 t b a b;
#X obj 242 563 list-without;
#X obj 242 582 prepent set;
#X msg 384 580 1;
#X obj 369 619 f;
#X obj 495 697 outlet;
#X obj 384 553 loadbang;
#X msg 338 356 set;
#X obj 369 638 sel 1 0;
#X obj 83 451 s \$0-mode;
#X obj 182 563 r \$0-mode;
#X obj 182 582 == 0;
#X obj 275 506 r \$0-mode;
#X obj 275 525 == 1;
#X msg 83 432 0;
#X msg 83 413 1;
#X msg 83 394 2;
#X obj 149 601 spigot;
#X obj 242 544 spigot;
#X obj 344 298 t b a b;
#N canvas 0 0 800 849 tog 0;
#X obj 346 467 list-find;
#X obj 379 342 r \$0-mode;
#X obj 379 361 == 2;
#X obj 346 410 spigot;
#X obj 346 429 t b a;
#X obj 346 448 any;
#X obj 377 535 any;
#X obj 397 486 t b f;
#X obj 424 505 sel 0;
#X msg 413 662 rem \$1;
#X obj 377 554 route float;
#X obj 440 573 symbol;
#X obj 343 342 inlet;
#X obj 479 331 inlet;
#X obj 460 690 outlet;
#X msg 460 662 add \$1;
#X obj 413 598 nop;
#X obj 460 643 spigot;
#X obj 413 643 spigot;
#X msg 451 524 1;
#X msg 424 524 0;
#X obj 477 412 r \$0-el;
#X obj 462 431 f;
#X obj 493 624 kinv;
#X obj 462 450 sel 1;
#X obj 462 469 t b b;
#X msg 489 488 0;
#X obj 479 350 t b a;
#X connect 0 1 7 0;
#X connect 1 0 2 0;
#X connect 2 0 3 1;
#X connect 3 0 4 0;
#X connect 4 0 5 0;
#X connect 4 1 0 1;
#X connect 5 0 0 0;
#X connect 6 0 10 0;
#X connect 7 0 6 0;
#X connect 7 1 8 0;
#X connect 8 0 20 0;
#X connect 8 1 19 0;
#X connect 9 0 14 0;
#X connect 10 0 16 0;
#X connect 10 1 11 0;
#X connect 11 0 16 0;
#X connect 12 0 3 0;
#X connect 13 0 27 0;
#X connect 15 0 14 0;
#X connect 16 0 17 0;
#X connect 16 0 18 0;
#X connect 17 0 15 0;
#X connect 18 0 9 0;
#X connect 19 0 18 1;
#X connect 19 0 23 0;
#X connect 20 0 18 1;
#X connect 20 0 23 0;
#X connect 21 0 22 1;
#X connect 22 0 24 0;
#X connect 23 0 17 1;
#X connect 24 0 25 0;
#X connect 25 0 6 0;
#X connect 25 1 26 0;
#X connect 26 0 8 0;
#X connect 27 0 22 0;
#X connect 27 1 6 1;
#X connect 27 1 5 1;
#X restore 412 413 pd tog;
#X obj 233 301 route float;
#X obj 296 320 symbol;
#X msg 430 525 0;
#X obj 456 599 s \$0-el;
#X msg 83 375 3;
#N canvas 0 0 800 849 has 0;
#X obj 346 467 list-find;
#X obj 379 342 r \$0-mode;
#X obj 346 410 spigot;
#X obj 346 429 t b a;
#X obj 346 448 any;
#X obj 343 342 inlet;
#X obj 439 342 inlet;
#X obj 418 505 outlet;
#X obj 454 410 r \$0-el;
#X obj 439 429 f;
#X obj 439 448 sel 1;
#X obj 439 361 t b a;
#X obj 379 361 == 4;
#X msg 439 467 0;
#X connect 0 1 7 0;
#X connect 1 0 12 0;
#X connect 2 0 3 0;
#X connect 3 0 4 0;
#X connect 3 1 0 1;
#X connect 4 0 0 0;
#X connect 5 0 2 0;
#X connect 6 0 11 0;
#X connect 8 0 9 1;
#X connect 9 0 10 0;
#X connect 10 0 13 0;
#X connect 11 0 9 0;
#X connect 11 1 4 1;
#X connect 12 0 2 1;
#X connect 13 0 7 0;
#X restore 495 443 pd has;
#X text 329 236 right outlet bangs if the list is empty. it will also
give the number of instances of the item queried if you send a "has"
message.;
#X obj 218 279 route bang add rem clear tog has;
#X obj 416 319 t b a b;
#X msg 83 356 4;
#X obj 156 231 loadbang;
#X msg 156 250 clear;
#X connect 0 0 34 0;
#X connect 1 0 23 0;
#X connect 1 0 24 0;
#X connect 1 0 26 0;
#X connect 1 0 32 0;
#X connect 2 0 1 0;
#X connect 3 0 10 0;
#X connect 3 1 20 0;
#X connect 6 0 1 0;
#X connect 6 1 7 1;
#X connect 6 2 21 0;
#X connect 7 0 8 0;
#X connect 7 1 9 0;
#X connect 7 1 13 0;
#X connect 8 0 1 0;
#X connect 9 0 10 1;
#X connect 9 0 30 0;
#X connect 10 0 14 0;
#X connect 12 0 9 0;
#X connect 13 0 1 0;
#X connect 14 0 11 0;
#X connect 14 1 1 0;
#X connect 16 0 17 0;
#X connect 17 0 23 1;
#X connect 18 0 19 0;
#X connect 19 0 24 1;
#X connect 20 0 15 0;
#X connect 21 0 15 0;
#X connect 22 0 15 0;
#X connect 23 0 4 0;
#X connect 24 0 7 0;
#X connect 25 0 1 0;
#X connect 25 1 26 1;
#X connect 25 2 22 0;
#X connect 26 0 34 0;
#X connect 27 0 2 0;
#X connect 27 1 28 0;
#X connect 28 0 2 0;
#X connect 29 0 10 1;
#X connect 29 0 30 0;
#X connect 31 0 15 0;
#X connect 32 0 11 0;
#X connect 34 0 3 0;
#X connect 34 1 27 0;
#X connect 34 1 29 0;
#X connect 34 1 31 0;
#X connect 34 2 6 0;
#X connect 34 2 21 0;
#X connect 34 3 13 0;
#X connect 34 3 9 0;
#X connect 34 4 25 0;
#X connect 34 5 35 0;
#X connect 35 0 1 0;
#X connect 35 1 32 1;
#X connect 35 2 36 0;
#X connect 36 0 15 0;
#X connect 37 0 38 0;
#X connect 38 0 34 0;
