#N canvas 0 29 1600 849 10;
#X obj 575 145 dollarg;
#X obj 479 368 list-idx;
#X obj 602 255 list length;
#X obj 524 349 %;
#X obj 575 126 lb 0;
#X obj 479 349 l;
#X obj 407 126 inlet;
#X obj 407 298 t b f;
#X obj 479 425 outlet;
#X obj 581 164 inlet;
#X obj 486 164 t b a;
#X obj 575 236 t a a;
#X obj 575 187 list;
#X obj 407 145 route bang float list reset;
#X text 75 156 lmap - line map;
#X text 76 182 output values from a [line] programmed by a map;
#X text 76 210 syntax rules:;
#X text 76 264 a=l - restart whenever a number from list [l] is received.
list is apostrophe-(but not space-)separated.;
#X text 75 290 each command is sent directly to the line \, replacing
each apostrophe with a space.;
#X text 75 323 the lmap will automatically try to beatmatch to the
reset points \, stretching out or shrinking the command list's timing
to the average time between resets.;
#X text 76 234 e=n - restart every [n] bangs. defaults to resetting
every bang.;
#N canvas 800 0 800 849 parse-list 0;
#X obj 166 19 inlet;
#X obj 166 298 outlet;
#X obj 208 298 s list-length-\$0;
#X obj 208 279 list length;
#X obj 166 38 t a b;
#X msg 193 57 set;
#X msg 166 164;
#X obj 166 76 list-drip;
#X msg 166 114 add2 \$1;
#X obj 166 183 print out;
#N canvas 0 0 800 849 character-reader 0;
#X obj 40 40 inlet;
#X obj 40 78 t a b;
#X msg 67 97 set;
#X msg 40 264;
#X msg 40 214 add2 \$1;
#X obj 40 59 chars;
#X obj 40 283 l2s;
#X obj 110 283 loadbang;
#X msg 64 283 symbol;
#X obj 40 302 outlet;
#X obj 40 116 list-drip;
#X obj 40 135 t a b;
#X obj 76 161 kount;
#X msg 76 135 reset;
#X connect 0 0 5 0;
#X connect 1 0 10 0;
#X connect 1 1 2 0;
#X connect 1 1 13 0;
#X connect 2 0 3 0;
#X connect 3 0 6 0;
#X connect 4 0 3 0;
#X connect 5 0 1 0;
#X connect 6 0 9 0;
#X connect 7 0 8 0;
#X connect 8 0 6 1;
#X connect 10 0 11 0;
#X connect 10 1 3 0;
#X connect 11 1 12 0;
#X connect 13 0 12 0;
#X restore 166 95 pd character-reader;
#X connect 0 0 4 0;
#X connect 3 0 2 0;
#X connect 4 0 7 0;
#X connect 4 1 5 0;
#X connect 5 0 6 0;
#X connect 6 0 9 0;
#X connect 7 0 10 0;
#X connect 7 1 6 0;
#X connect 8 0 6 0;
#X restore 575 206 pd parse-list;
#N canvas 0 0 800 849 parse-for-line 0;
#X obj 143 37 inlet;
#X obj 147 287 outlet;
#X restore 479 387 pd parse-for-line;
#N canvas 0 0 1600 849 bang-float 0;
#X obj 40 40 inlet;
#X obj 151 40 inlet;
#X obj 40 319 outlet;
#X obj 40 78 bfilt2 1;
#X obj 85 59 r bfilt-\$0;
#X obj 151 78 unmap;
#X obj 178 59 r floats-list-\$0;
#X obj 40 111 t b b;
#X obj 40 130 timer;
#X floatatom 40 149 5 0 0 0 - - -;
#X obj 40 167 t b f;
#X obj 91 227 /;
#X obj 106 208 r list-length-\$0;
#X obj 40 246 kount;
#X obj 280 40 inlet;
#X obj 49 280 sel 0;
#X obj 76 246 del;
#X obj 85 280 bang;
#X msg 40 186 reset \, bang;
#X connect 0 0 3 0;
#X connect 1 0 5 0;
#X connect 3 0 7 0;
#X connect 4 0 3 1;
#X connect 5 0 7 0;
#X connect 6 0 5 1;
#X connect 7 0 8 0;
#X connect 7 1 8 1;
#X connect 8 0 9 0;
#X connect 9 0 10 0;
#X connect 10 0 18 0;
#X connect 10 1 11 0;
#X connect 11 0 16 1;
#X connect 12 0 11 1;
#X connect 12 0 15 1;
#X connect 13 0 15 0;
#X connect 13 0 2 0;
#X connect 14 0 13 0;
#X connect 15 1 17 0;
#X connect 16 0 13 0;
#X connect 17 0 16 0;
#X connect 18 0 13 0;
#X restore 407 232 pd bang-float;
#X text 124 399 THIS DEFINITELY ISN'T DONE.;
#X obj 479 406 line;
#X text 126 441 abandoned in favor of;
#X connect 0 0 12 0;
#X connect 1 0 22 0;
#X connect 2 0 3 1;
#X connect 3 0 1 1;
#X connect 4 0 0 0;
#X connect 5 0 1 0;
#X connect 6 0 13 0;
#X connect 7 0 5 0;
#X connect 7 1 3 0;
#X connect 9 0 12 0;
#X connect 10 0 23 0;
#X connect 10 1 12 0;
#X connect 11 0 5 1;
#X connect 11 1 2 0;
#X connect 12 0 21 0;
#X connect 13 0 23 0;
#X connect 13 1 23 1;
#X connect 13 2 10 0;
#X connect 13 3 23 2;
#X connect 21 0 11 0;
#X connect 22 0 25 0;
#X connect 23 0 7 0;
#X connect 25 0 8 0;
