#N canvas 0 0 1600 849 10;
#X obj 237 16 inlet;
#X obj 237 175 outlet;
#X text 531 98 first argument is the name of the table to read from.
;
#X obj 237 35 route float list;
#N canvas 0 0 1600 849 wholelist 0;
#X obj 243 89 inlet;
#X obj 243 146 *;
#X obj 279 108 tabread \$1;
#X obj 279 89 lb 1;
#X obj 243 165 + 3;
#X obj 243 312 tabread \$1;
#X obj 284 253 f;
#X obj 243 293 +;
#X obj 284 272 until;
#X obj 243 259 count;
#X msg 262 233 reset;
#X obj 243 184 t b b b f;
#X msg 243 331 add2 \$1;
#X msg 315 317 set;
#X msg 243 350;
#X obj 243 369 outlet;
#X connect 0 0 1 0;
#X connect 1 0 4 0;
#X connect 2 0 1 1;
#X connect 2 0 6 1;
#X connect 2 0 9 1;
#X connect 3 0 2 0;
#X connect 4 0 11 0;
#X connect 5 0 12 0;
#X connect 6 0 8 0;
#X connect 7 0 5 0;
#X connect 8 0 9 0;
#X connect 9 0 7 0;
#X connect 10 0 9 0;
#X connect 11 0 14 0;
#X connect 11 1 6 0;
#X connect 11 2 10 0;
#X connect 11 2 13 0;
#X connect 11 3 7 1;
#X connect 12 0 14 0;
#X connect 13 0 14 0;
#X connect 14 0 15 0;
#X restore 237 93 pd wholelist;
#N canvas 0 0 1600 849 justafloat 0;
#X obj 207 79 inlet;
#X obj 253 156 *;
#X obj 289 118 tabread \$1;
#X obj 289 99 lb 1;
#X obj 253 175 + 3;
#X obj 204 233 tabread \$1;
#X obj 204 252 outlet;
#X obj 207 98 unpack f f;
#X obj 204 214 +;
#X connect 0 0 7 0;
#X connect 1 0 4 0;
#X connect 2 0 1 1;
#X connect 3 0 2 0;
#X connect 4 0 8 0;
#X connect 5 0 6 0;
#X connect 7 0 1 0;
#X connect 7 1 8 1;
#X connect 8 0 5 0;
#X restore 283 112 pd justafloat;
#X text 531 54 a float will output the whole microlist \; two floats
is interpreted as [microlist] [index] \, and will only output the specific
index.;
#X connect 0 0 3 0;
#X connect 3 0 4 0;
#X connect 3 1 5 0;
#X connect 4 0 1 0;
#X connect 5 0 1 0;
