#N canvas 0 0 800 849 10;
#X text 305 151 inlet 1: you can send a list to update all the values
of the current microlist or send a "set [index] [value]" message to
change a value at a specific index within the current microlist (without
affecting others).;
#X text 303 207 inlet 2: accepts floats to change the current microlist.
;
#X text 305 119 \$2 - length of each microlist (macrolist is expanded
as needed);
#X obj 403 31 table \$1 \$2;
#X obj 72 104 inlet;
#X obj 72 123 route list set save;
#X obj 192 123 inlet;
#X text 305 95 arguments: \$1 - name of the array;
#N canvas 0 0 800 849 setter 0;
#X obj 145 331 tabwrite \$1;
#X obj 208 293 +;
#X obj 154 222 clip 0;
#X obj 187 184 lb \$2;
#X obj 187 203 - 1;
#X obj 109 142 unpack f f;
#X obj 145 178 f;
#X obj 109 178 t b f;
#X obj 109 123 inlet;
#X obj 223 255 inlet;
#X obj 208 312 + 3;
#X obj 223 274 * \$2;
#X connect 1 0 10 0;
#X connect 2 0 1 0;
#X connect 3 0 4 0;
#X connect 4 0 2 2;
#X connect 5 0 7 0;
#X connect 5 1 6 1;
#X connect 6 0 0 0;
#X connect 7 0 6 0;
#X connect 7 1 2 0;
#X connect 8 0 5 0;
#X connect 9 0 11 0;
#X connect 10 0 0 1;
#X connect 11 0 1 1;
#X restore 141 172 pd setter;
#X text 303 236 info about the array: the first three elements are
the number 9 \, the microlist length \, and the current size of the
macrolist. the fourth element is the first element of the first microlist
in the macrolist.;
#N canvas 0 0 800 849 sizer 0;
#X obj 202 184 inlet;
#X msg 202 439 \; \$2 resize \$1;
#X obj 202 420 pack f s;
#X obj 247 401 symbol \$1;
#X obj 220 321 loadbang;
#X obj 250 241 arraysize \$1;
#X obj 202 203 t f b;
#X obj 235 283 >;
#X obj 202 302 spigot;
#X obj 202 222 * \$2;
#X obj 202 241 + 3;
#X obj 202 260 t f f;
#X obj 172 390 + \$2;
#X obj 220 340 t b b;
#X msg 172 371 3;
#X connect 0 0 6 0;
#X connect 2 0 1 0;
#X connect 3 0 2 1;
#X connect 4 0 13 0;
#X connect 5 0 7 1;
#X connect 6 0 9 0;
#X connect 6 1 5 0;
#X connect 7 0 8 1;
#X connect 8 0 2 0;
#X connect 9 0 10 0;
#X connect 10 0 11 0;
#X connect 11 0 8 0;
#X connect 11 1 7 0;
#X connect 12 0 2 0;
#X connect 13 0 14 0;
#X connect 13 1 3 0;
#X connect 14 0 12 0;
#X restore 219 161 pd sizer;
#X text 303 63 this is a (macro)list of (micro)lists writer (lolw).
aka: a two-dimensional array.;
#X obj 192 142 t f f;
#N canvas 0 0 800 849 listset 0;
#X obj 126 99 inlet;
#X obj 244 201 inlet;
#X obj 126 331 tabwrite \$1;
#X obj 229 295 +;
#X obj 229 314 + 3;
#X obj 244 276 * \$2;
#X obj 126 158 list-drip;
#X obj 186 194 count \$2;
#X obj 147 127 t a b;
#X msg 186 127 reset;
#X obj 126 177 t f b;
#X obj 207 217 lb \$2;
#X obj 207 236 - 1;
#X obj 186 265 clip 0;
#X connect 0 0 6 0;
#X connect 0 0 8 0;
#X connect 1 0 5 0;
#X connect 3 0 4 0;
#X connect 4 0 2 1;
#X connect 5 0 3 1;
#X connect 6 0 10 0;
#X connect 7 0 13 0;
#X connect 8 1 9 0;
#X connect 9 0 7 0;
#X connect 10 0 2 0;
#X connect 10 1 7 0;
#X connect 11 0 12 0;
#X connect 12 0 13 2;
#X connect 13 0 3 0;
#X restore 72 214 pd listset;
#X text 303 289 TODO: add "save" to write the list to a file and a
flag to automatically open from a file when loadbang occurs.;
#X connect 4 0 5 0;
#X connect 5 0 13 0;
#X connect 5 1 8 0;
#X connect 6 0 12 0;
#X connect 12 0 8 1;
#X connect 12 0 13 1;
#X connect 12 1 10 0;
