#N canvas 1920 30 1920 1050 10;
#X obj 602 225 list length;
#X obj 407 126 inlet;
#X obj 407 338 t b f;
#X obj 389 429 outlet;
#X obj 581 162 inlet;
#X obj 486 165 t b a;
#X obj 575 205 t a a;
#X obj 575 185 list;
#X text 116 156 map - simple map;
#X obj 407 145 route bang float list reset;
#X text 23 192 you can specify the default mapping as the arguments
\, or you can change it with the right inlet. the left inlet accepts
bangs or floats to output from the mapping list. try something like
[map 5 4 3 2 1] and send bangs or floats to the left inlet.;
#N canvas 1920 50 1920 1050 list 0;
#X obj 72 89 inlet;
#X obj 72 321 outlet;
#X msg 72 203 one two three;
#X obj 131 89 inlet;
#X obj 131 108 list prepend set;
#X obj 131 127 list trim;
#X connect 0 0 2 0;
#X connect 2 0 1 0;
#X connect 3 0 4 0;
#X connect 4 0 5 0;
#X connect 5 0 2 0;
#X restore 389 389 pd list;
#X obj 407 273 i 0;
#X obj 431 273 + 1;
#X obj 389 409 list-nth;
#X obj 526 190 bang;
#X msg 526 210 0;
#X obj 407 318 mod;
#X obj 455 273 mod;
#X obj 575 143 pdcontrol;
#X msg 575 123 args 0;
#X obj 575 103 loadbang;
#X connect 0 0 18 1;
#X connect 0 0 17 1;
#X connect 1 0 9 0;
#X connect 2 0 11 0;
#X connect 2 1 14 1;
#X connect 4 0 7 0;
#X connect 5 0 12 0;
#X connect 5 1 7 0;
#X connect 6 0 11 1;
#X connect 6 1 0 0;
#X connect 7 0 6 0;
#X connect 9 0 12 0;
#X connect 9 1 12 0;
#X connect 9 2 5 0;
#X connect 9 3 15 0;
#X connect 11 0 14 0;
#X connect 12 0 13 0;
#X connect 12 0 17 0;
#X connect 13 0 18 0;
#X connect 14 0 3 0;
#X connect 15 0 16 0;
#X connect 16 0 12 1;
#X connect 17 0 2 0;
#X connect 18 0 12 1;
#X connect 19 0 7 0;
#X connect 20 0 19 0;
#X connect 21 0 20 0;
