#N canvas 1920 0 1920 1048 10;
#X obj 602 228 list length;
#X obj 407 125 inlet;
#X obj 407 378 outlet;
#X obj 581 165 inlet;
#X obj 486 165 t b a;
#X obj 575 208 t a a;
#X obj 575 188 list;
#X text 116 156 map - simple map;
#X obj 407 145 route bang float list reset;
#X text 23 192 you can specify the default mapping as the arguments \, or you can change it with the right inlet. the left inlet accepts bangs or floats to output from the mapping list. try something like [map 5 4 3 2 1] and send bangs or floats to the left inlet.;
#X obj 407 273 i 0;
#X obj 431 273 + 1;
#X obj 526 190 bang;
#X msg 526 210 0;
#X obj 407 318 mod;
#X obj 455 273 mod;
#X obj 575 145 pdcontrol;
#X obj 575 105 loadbang;
#X obj 407 358 list store;
#X msg 407 338 get \$1;
#X msg 575 125 args;
#X connect 0 0 15 1;
#X connect 0 0 14 1;
#X connect 1 0 8 0;
#X connect 3 0 6 0;
#X connect 4 0 10 0;
#X connect 4 1 6 0;
#X connect 5 0 18 1;
#X connect 5 1 0 0;
#X connect 6 0 5 0;
#X connect 8 0 10 0;
#X connect 8 1 10 0;
#X connect 8 2 4 0;
#X connect 8 3 12 0;
#X connect 10 0 11 0;
#X connect 10 0 14 0;
#X connect 11 0 15 0;
#X connect 12 0 13 0;
#X connect 13 0 10 1;
#X connect 14 0 19 0;
#X connect 15 0 10 1;
#X connect 16 0 6 0;
#X connect 17 0 20 0;
#X connect 18 0 2 0;
#X connect 19 0 18 0;
#X connect 20 0 16 0;
