#N canvas 0 29 800 849 10;
#X obj 575 143 dollarg;
#X obj 479 368 list-idx;
#X obj 602 223 list length;
#X obj 534 341 %;
#X obj 575 124 lb 0;
#X obj 407 126 inlet;
#X obj 445 298 t b f;
#X obj 479 387 outlet;
#X obj 407 273 count;
#X obj 581 162 inlet;
#X obj 486 164 t b a;
#X obj 575 204 t a a;
#X obj 575 185 list;
#X text 116 156 map - simple map;
#X obj 407 145 route bang float list reset;
#X msg 526 191 reset;
#X text 23 192 you can specify the default mapping as the arguments
\, or you can change it with the right inlet. the left inlet accepts
bangs or floats to output from the mapping list. try something like
[map 5 4 3 2 1] and send bangs or floats to the left inlet.;
#N canvas 0 29 800 849 list 1;
#X obj 37 37 inlet;
#X obj 76 321 outlet;
#X msg 72 203;
#X obj 120 32 inlet;
#X obj 107 63 prepent set;
#X connect 0 0 2 0;
#X connect 2 0 1 0;
#X connect 3 0 4 0;
#X connect 4 0 2 0;
#X restore 479 349 pd list;
#X connect 0 0 12 0;
#X connect 1 0 7 0;
#X connect 2 0 3 1;
#X connect 2 0 8 1;
#X connect 3 0 1 1;
#X connect 4 0 0 0;
#X connect 5 0 14 0;
#X connect 6 0 17 0;
#X connect 6 1 3 0;
#X connect 8 0 6 0;
#X connect 9 0 12 0;
#X connect 10 0 8 0;
#X connect 10 1 12 0;
#X connect 11 0 17 1;
#X connect 11 1 2 0;
#X connect 12 0 11 0;
#X connect 14 0 8 0;
#X connect 14 1 6 0;
#X connect 14 2 10 0;
#X connect 14 3 15 0;
#X connect 15 0 8 0;
#X connect 17 0 1 0;
