#N canvas 0 0 1600 849 10;
#X obj 390 131 table \$0-notes 480;
#X obj 390 150 table \$0-vols 480;
#X obj 184 203 snapshot~;
#X obj 269 169 t f b;
#X obj 184 222 * 480;
#X obj 184 241 int;
#X floatatom 176 264 5 0 0 0 - - -;
#X obj 191 290 tabwrite \$0-notes;
#X obj 299 290 tabwrite \$0-vols;
#X obj 27 197 wrap~;
#X obj 27 216 edger~;
#X obj 27 235 bng 15 250 50 0 empty empty empty 17 7 0 10 -262144 -1
-1;
#X obj 27 178 *~ 16;
#X obj 194 92 inlet~;
#X obj 245 61 inlet;
#X obj 349 72 inlet;
#X obj 245 80 route float quan;
#X obj 79 180 expr (480/$i1);
#X obj 79 161 r \$0-quan;
#X obj 291 126 s \$0-quan;
#X obj 40 306 until;
#X obj 40 287 f;
#X obj 40 325 count 480;
#X floatatom 40 344 5 0 0 0 - - -;
#X obj 128 405 tabread \$0-notes;
#X obj 230 405 tabread \$0-vols;
#X floatatom 161 462 5 0 0 0 - - -;
#X floatatom 263 462 5 0 0 0 - - -;
#X obj 260 235 + 1;
#X obj 377 243 + 1;
#X obj 128 424 - 1;
#X obj 230 424 - 1;
#X obj 128 443 sel -1;
#X obj 230 443 sel -1;
#X obj 140 380 t f f;
#X obj 263 480 outlet;
#X obj 161 480 outlet;
#X obj 308 105 lb 16;
#X obj 26 79 unsig~ 30;
#X obj 29 98 hsl 128 15 0 1 0 0 empty empty empty -2 -8 0 10 -262144
-1 -1 11123 1;
#X connect 2 0 4 0;
#X connect 3 0 28 0;
#X connect 3 1 2 0;
#X connect 4 0 5 0;
#X connect 5 0 6 0;
#X connect 5 0 7 1;
#X connect 5 0 8 1;
#X connect 9 0 10 0;
#X connect 10 0 11 0;
#X connect 11 0 21 0;
#X connect 12 0 9 0;
#X connect 13 0 2 0;
#X connect 13 0 12 0;
#X connect 13 0 38 0;
#X connect 14 0 16 0;
#X connect 15 0 29 0;
#X connect 16 0 3 0;
#X connect 16 1 19 0;
#X connect 17 0 21 1;
#X connect 18 0 12 1;
#X connect 18 0 17 0;
#X connect 20 0 22 0;
#X connect 21 0 20 0;
#X connect 22 0 23 0;
#X connect 23 0 34 0;
#X connect 24 0 30 0;
#X connect 25 0 31 0;
#X connect 26 0 36 0;
#X connect 27 0 35 0;
#X connect 28 0 7 0;
#X connect 29 0 8 0;
#X connect 30 0 32 0;
#X connect 31 0 33 0;
#X connect 32 1 26 0;
#X connect 33 1 27 0;
#X connect 34 0 24 0;
#X connect 34 1 25 0;
#X connect 37 0 19 0;
#X connect 38 0 39 0;
