#N canvas 0 0 1600 849 10;
#X obj 137 45 inlet;
#X obj 137 174 metro \$1;
#X obj 83 64 loadbang;
#X obj 137 193 outlet;
#X obj 137 64 route bang float;
#X obj 162 90 moses 2;
#X msg 170 118 1;
#X obj 162 143 change;
#X connect 0 0 4 0;
#X connect 1 0 3 0;
#X connect 2 0 4 0;
#X connect 4 0 1 0;
#X connect 4 1 5 0;
#X connect 5 0 7 0;
#X connect 5 1 1 1;
#X connect 5 1 6 0;
#X connect 6 0 7 0;
#X connect 7 0 1 0;
