#N canvas 0 0 1600 871 10;
#X obj 332 461 tabread \$0-pat;
#X floatatom 332 480 5 0 0 0 - - -;
#X obj 332 498 del;
#X floatatom 395 306 5 0 0 0 - - -;
#X obj 422 375 + 1;
#X obj 422 461 tabread \$0-pat;
#X obj 407 541 f;
#X floatatom 407 579 5 0 0 0 - - -;
#X obj 395 287 num;
#X obj 407 560 t f b;
#X floatatom 331 327 5 0 0 0 - - -;
#X obj 468 331 >;
#X obj 491 256 sel 1;
#X msg 491 275 0;
#X obj 407 597 outlet;
#X obj 491 174 inlet;
#X obj 395 343 t f f f;
#X msg 658 382 a 1;
#X obj 395 324 * 3;
#X obj 512 461 tabread \$0-pat;
#X obj 512 375 + 2;
#X msg 659 257 0;
#X obj 603 238 t b b;
#X msg 630 257 1;
#X obj 497 585 outlet;
#X obj 497 549 f;
#X obj 491 193 route float bang size start stop table;
#X obj 787 335 inlet;
#X obj 491 212 sel 1 0;
#X msg 728 281 set \$1;
#X obj 728 262 symbol;
#X obj 441 394 r \$0-tab;
#X obj 728 300 s \$0-tab;
#X obj 657 293 s \$0-run;
#X obj 374 517 kspigot;
#X obj 398 500 r \$0-run;
#X floatatom 460 493 5 0 0 0 - - -;
#X floatatom 545 496 5 0 0 0 - - -;
#X connect 0 0 1 0;
#X connect 1 0 2 0;
#X connect 2 0 34 0;
#X connect 3 0 18 0;
#X connect 4 0 5 0;
#X connect 5 0 6 1;
#X connect 5 0 36 0;
#X connect 6 0 9 0;
#X connect 7 0 14 0;
#X connect 8 0 3 0;
#X connect 9 0 7 0;
#X connect 9 1 17 0;
#X connect 11 0 12 0;
#X connect 12 0 13 0;
#X connect 13 0 8 0;
#X connect 15 0 26 0;
#X connect 16 0 0 0;
#X connect 16 1 4 0;
#X connect 16 2 20 0;
#X connect 17 0 8 0;
#X connect 18 0 10 0;
#X connect 18 0 11 0;
#X connect 18 0 16 0;
#X connect 19 0 25 1;
#X connect 19 0 37 0;
#X connect 20 0 19 0;
#X connect 21 0 33 0;
#X connect 22 0 17 0;
#X connect 22 1 23 0;
#X connect 23 0 33 0;
#X connect 25 0 24 0;
#X connect 26 0 28 0;
#X connect 26 1 17 0;
#X connect 26 2 11 1;
#X connect 26 3 22 0;
#X connect 26 4 21 0;
#X connect 26 5 30 0;
#X connect 27 0 8 0;
#X connect 28 0 22 0;
#X connect 28 1 21 0;
#X connect 29 0 32 0;
#X connect 30 0 29 0;
#X connect 31 0 5 0;
#X connect 31 0 19 0;
#X connect 31 0 0 0;
#X connect 34 0 6 0;
#X connect 34 0 25 0;
#X connect 35 0 34 1;
