#N canvas 0 0 1600 849 10;
#X obj 50 20 inlet;
#X obj 86 20 r ps;
#X obj 88 256 outlet;
#X obj 50 69 count 16;
#N canvas 0 0 1600 849 seq 0;
#X obj 79 44 inlet;
#X obj 79 63 % 16;
#X obj 79 82 int;
#X obj 79 101 abs;
#X text 113 74 here's some math to make sure we get good numbers.;
#X text 339 225 here's stuff to select the sboxes.;
#X obj 96 193 pack f f \$0;
#X obj 127 118 t f f;
#X msg 96 212 \; \$3-\$2x0 hi 0 \; \$3-\$2x1 hi 0 \; \$3-\$2x2 hi 0
\; \$3-\$2x3 hi 0 \; \$3-\$1x0 hi 1 \; \$3-\$1x1 hi 1 \; \$3-\$1x2
hi 1 \; \$3-\$1x3 hi 1;
#X obj 132 341 r \$0-ppat;
#X obj 192 341 r \$0-cpat;
#X obj 259 402 ==;
#X obj 282 372 t b f;
#X floatatom 259 421 5 0 0 0 - - -;
#X obj 29 558 s \$0-cstep;
#X obj 79 386 * 2;
#X obj 132 386 * 128;
#X obj 79 422 +;
#X obj 79 441 t f f f f;
#X obj 451 587 tabread \$0-savetable;
#X obj 424 549 t f f;
#X obj 451 568 + 1;
#X obj 418 606 spigot;
#X obj 418 625 tabread \$0-savetable;
#X obj 130 587 tabread \$0-savetable;
#X obj 103 549 t f f;
#X obj 130 568 + 1;
#X obj 97 606 spigot;
#X obj 97 625 tabread \$0-savetable;
#X obj 97 644 s \$0-rowo0;
#X obj 418 644 s \$0-rowo2;
#X obj 611 587 tabread \$0-savetable;
#X obj 584 549 t f f;
#X obj 611 568 + 1;
#X obj 578 606 spigot;
#X obj 578 625 tabread \$0-savetable;
#X obj 584 530 + 96;
#X obj 578 644 s \$0-rowo3;
#X obj 424 530 + 64;
#X obj 290 587 tabread \$0-savetable;
#X obj 263 549 t f f;
#X obj 290 568 + 1;
#X obj 257 606 spigot;
#X obj 257 625 tabread \$0-savetable;
#X obj 263 530 + 32;
#X obj 257 644 s \$0-rowo1;
#X connect 0 0 1 0;
#X connect 1 0 2 0;
#X connect 2 0 3 0;
#X connect 3 0 7 0;
#X connect 3 0 15 0;
#X connect 3 0 14 0;
#X connect 6 0 8 0;
#X connect 7 0 6 1;
#X connect 7 1 6 0;
#X connect 9 0 11 0;
#X connect 9 0 16 0;
#X connect 10 0 12 0;
#X connect 11 0 13 0;
#X connect 12 0 11 0;
#X connect 12 1 11 1;
#X connect 15 0 17 0;
#X connect 16 0 17 1;
#X connect 17 0 18 0;
#X connect 18 0 25 0;
#X connect 18 1 44 0;
#X connect 18 2 38 0;
#X connect 18 3 36 0;
#X connect 19 0 22 1;
#X connect 20 0 22 0;
#X connect 20 1 21 0;
#X connect 21 0 19 0;
#X connect 22 0 23 0;
#X connect 23 0 30 0;
#X connect 24 0 27 1;
#X connect 25 0 27 0;
#X connect 25 1 26 0;
#X connect 26 0 24 0;
#X connect 27 0 28 0;
#X connect 28 0 29 0;
#X connect 31 0 34 1;
#X connect 32 0 34 0;
#X connect 32 1 33 0;
#X connect 33 0 31 0;
#X connect 34 0 35 0;
#X connect 35 0 37 0;
#X connect 36 0 32 0;
#X connect 38 0 20 0;
#X connect 39 0 42 1;
#X connect 40 0 42 0;
#X connect 40 1 41 0;
#X connect 41 0 39 0;
#X connect 42 0 43 0;
#X connect 43 0 45 0;
#X connect 44 0 40 0;
#X restore 50 95 pd seq;
#X obj 154 256 outlet;
#X obj 220 256 outlet;
#X obj 286 256 outlet;
#N canvas 0 0 800 849 saver 0;
#X obj 385 248 s \$0-savers;
#X obj 309 151 inlet;
#X obj 385 267 r \$0-saver;
#X obj 471 267 table \$0-savetable 1024;
#X obj 385 286 route saver;
#X obj 385 305 unpack s f f;
#X obj 309 179 route bang symbol;
#X obj 358 210 symbol \$1;
#X obj 205 583 pack s \$0;
#X obj 249 151 r \$0-save;
#X obj 142 545 emptysymbol;
#X msg 205 602 \; \$2-savetable write \$1;
#X obj 142 696 print;
#X msg 142 634 cant write table - no name provided (open pattseq and
enter one in the symbol box);
#X obj 224 344 s2l -;
#X obj 224 363 list-idx 1;
#X obj 287 401 s2l x;
#X obj 491 401 r \$0-cpat;
#X obj 419 420 unpack f f;
#X obj 476 439 +;
#X msg 419 368 \$1 0;
#X msg 454 368 \$1 1;
#X text 139 124 make sure when you change patterns that you save the
data first and then change cpat;
#X obj 491 420 * 128;
#X obj 476 488 +;
#X obj 287 420 expr ($i1*2)+($i2*32);
#X msg 205 564 /home/modula/.pd/saves/pattseq-\$1;
#X obj 404 344 f;
#X obj 439 344 f;
#X obj 287 439 t b b f;
#X obj 358 229 t s b;
#X obj 224 382 route float;
#X msg 224 401 0 \$1;
#X obj 353 507 tabwrite \$0-savetable;
#X msg 168 666 pattseq data saved as \$1;
#X connect 1 0 6 0;
#X connect 2 0 4 0;
#X connect 4 0 5 0;
#X connect 5 0 14 0;
#X connect 5 1 27 1;
#X connect 5 2 28 1;
#X connect 6 0 7 0;
#X connect 6 1 7 0;
#X connect 6 2 7 0;
#X connect 7 0 30 0;
#X connect 8 0 11 0;
#X connect 8 0 34 0;
#X connect 9 0 6 0;
#X connect 10 0 13 0;
#X connect 10 1 26 0;
#X connect 13 0 12 0;
#X connect 14 0 15 0;
#X connect 15 0 31 0;
#X connect 16 0 25 0;
#X connect 17 0 23 0;
#X connect 18 0 33 0;
#X connect 18 1 19 0;
#X connect 19 0 24 0;
#X connect 20 0 18 0;
#X connect 21 0 18 0;
#X connect 23 0 19 1;
#X connect 24 0 33 1;
#X connect 25 0 29 0;
#X connect 26 0 8 0;
#X connect 27 0 20 0;
#X connect 28 0 21 0;
#X connect 29 0 27 0;
#X connect 29 1 28 0;
#X connect 29 2 24 1;
#X connect 30 0 10 0;
#X connect 30 1 0 0;
#X connect 31 0 32 0;
#X connect 31 1 16 0;
#X connect 32 0 25 0;
#X connect 34 0 12 0;
#X restore 504 115 pd saver;
#X symbolatom 504 97 20 0 0 0 - - -;
#N canvas 0 0 800 849 changepat 0;
#X obj 278 134 r \$0-patswitch;
#X obj 297 211 s \$0-cpat;
#X text 276 88 this subpatch loads each pattern when you change;
#X obj 290 326 tabread \$0-savetable;
#X obj 263 249 +;
#X obj 224 204 until;
#X msg 224 185 64;
#X obj 263 288 t f f;
#X obj 290 307 + 1;
#X obj 164 326 tabread \$0-savetable;
#X obj 224 223 count 64;
#X obj 278 153 t b f b;
#X obj 128 362 i;
#X obj 82 419 s;
#X obj 97 381 pack f f \$0;
#X obj 128 343 / 16;
#X obj 97 362 % 16;
#X obj 100 262 t f f f;
#X msg 97 400 symbol \$3-\$1x\$2;
#X obj 239 249 * 2;
#X obj 278 230 * 128;
#X obj 200 134 r \$0-patload;
#X obj 200 153 t b f;
#X obj 245 363 pack f f;
#X msg 245 382 set \$1 \$2;
#X connect 0 0 11 0;
#X connect 3 0 23 1;
#X connect 4 0 7 0;
#X connect 5 0 10 0;
#X connect 6 0 5 0;
#X connect 7 0 9 0;
#X connect 7 1 8 0;
#X connect 8 0 3 0;
#X connect 9 0 23 0;
#X connect 10 0 17 0;
#X connect 11 0 6 0;
#X connect 11 1 1 0;
#X connect 11 1 20 0;
#X connect 12 0 14 1;
#X connect 14 0 18 0;
#X connect 15 0 12 0;
#X connect 16 0 14 0;
#X connect 17 0 19 0;
#X connect 17 1 16 0;
#X connect 17 2 15 0;
#X connect 18 0 13 1;
#X connect 19 0 4 0;
#X connect 20 0 4 1;
#X connect 21 0 22 0;
#X connect 22 0 6 0;
#X connect 22 1 1 0;
#X connect 22 1 20 0;
#X connect 23 0 24 0;
#X connect 24 0 13 0;
#X restore 426 115 pd changepat;
#X floatatom 297 100 2 0 7 0 - #0-pattern #0-patswitch;
#X obj 267 100 bng 15 250 50 0 \$0-save empty sv 1 7 0 10 -258113 -1
-1;
#N canvas 0 0 800 849 loader 0;
#X obj 252 157 loadbang;
#X obj 306 157 inlet;
#X obj 366 193 symbol \$1;
#X obj 366 231 pack s \$0;
#X msg 288 231 0;
#X obj 306 176 t b b;
#X msg 366 212 /home/modula/.pd/saves/pattseq-\$1;
#X msg 366 250 \; \$2-savetable read \$1;
#X obj 307 138 bng 15 250 50 0 empty empty empty 17 7 0 10 -262144
-1 -1;
#X obj 288 250 s \$0-patload;
#X connect 0 0 5 0;
#X connect 1 0 5 0;
#X connect 2 0 6 0;
#X connect 3 0 7 0;
#X connect 4 0 9 0;
#X connect 5 0 4 0;
#X connect 5 1 2 0;
#X connect 6 0 3 0;
#X connect 8 0 5 0;
#X restore 628 115 pd loader;
#X obj 628 98 bng 15 250 50 0 empty empty empty 17 7 0 10 -262144 -1
-1;
#X obj 50 39 route bang float play pat;
#X obj 160 58 s \$0-pattern;
#X obj 282 100 bng 15 250 50 0 \$0-copy empty cp 1 7 0 10 -260097 -1
-1;
#X obj 311 100 bng 15 250 50 0 \$0-go empty go 1 7 0 10 -4034 -1 -1
;
#X obj 123 77 s \$0-playpat;
#X floatatom 326 100 2 0 0 0 - #0-playpat #0-ppat;
#N canvas 0 0 800 849 go 0;
#X obj 333 126 r \$0-cpat;
#X obj 285 126 r \$0-go;
#X obj 302 167 i;
#X obj 302 186 s \$0-playpat;
#X connect 0 0 2 1;
#X connect 1 0 2 0;
#X connect 2 0 3 0;
#X restore 390 115 pd go;
#X obj 88 197 r \$0-rowo0;
#X obj 154 197 r \$0-rowo1;
#X obj 220 197 r \$0-rowo2;
#X obj 286 197 r \$0-rowo3;
#X obj 280 130 sbox \$0-12x1 \$0-row1 \$0-saver 4;
#X obj 250 115 sbox \$0-10x0 \$0-row0 \$0-saver;
#X obj 265 115 sbox \$0-11x0 \$0-row0 \$0-saver;
#X obj 100 115 sbox \$0-0x0 \$0-row0 \$0-saver 4;
#X obj 115 115 sbox \$0-1x0 \$0-row0 \$0-saver;
#X obj 130 115 sbox \$0-2x0 \$0-row0 \$0-saver;
#X obj 145 115 sbox \$0-3x0 \$0-row0 \$0-saver;
#X obj 160 115 sbox \$0-4x0 \$0-row0 \$0-saver 4;
#X obj 175 115 sbox \$0-5x0 \$0-row0 \$0-saver;
#X obj 190 115 sbox \$0-6x0 \$0-row0 \$0-saver;
#X obj 205 115 sbox \$0-7x0 \$0-row0 \$0-saver;
#X obj 220 115 sbox \$0-8x0 \$0-row0 \$0-saver 4;
#X obj 235 115 sbox \$0-9x0 \$0-row0 \$0-saver;
#X obj 280 115 sbox \$0-12x0 \$0-row0 \$0-saver 4;
#X obj 295 115 sbox \$0-13x0 \$0-row0 \$0-saver;
#X obj 310 115 sbox \$0-14x0 \$0-row0 \$0-saver;
#X obj 325 115 sbox \$0-15x0 \$0-row0 \$0-saver;
#X obj 100 130 sbox \$0-0x1 \$0-row1 \$0-saver 4;
#X obj 115 130 sbox \$0-1x1 \$0-row1 \$0-saver;
#X obj 130 130 sbox \$0-2x1 \$0-row1 \$0-saver;
#X obj 145 130 sbox \$0-3x1 \$0-row1 \$0-saver;
#X obj 160 130 sbox \$0-4x1 \$0-row1 \$0-saver 4;
#X obj 175 130 sbox \$0-5x1 \$0-row1 \$0-saver;
#X obj 190 130 sbox \$0-6x1 \$0-row1 \$0-saver;
#X obj 205 130 sbox \$0-7x1 \$0-row1 \$0-saver;
#X obj 220 130 sbox \$0-8x1 \$0-row1 \$0-saver 4;
#X obj 235 130 sbox \$0-9x1 \$0-row1 \$0-saver;
#X obj 250 130 sbox \$0-10x1 \$0-row1 \$0-saver;
#X obj 265 130 sbox \$0-11x1 \$0-row1 \$0-saver;
#X obj 295 130 sbox \$0-13x1 \$0-row1 \$0-saver;
#X obj 310 130 sbox \$0-14x1 \$0-row1 \$0-saver;
#X obj 325 130 sbox \$0-15x1 \$0-row1 \$0-saver;
#X obj 100 145 sbox \$0-0x2 \$0-row2 \$0-saver 4;
#X obj 115 145 sbox \$0-1x2 \$0-row2 \$0-saver;
#X obj 130 145 sbox \$0-2x2 \$0-row2 \$0-saver;
#X obj 145 145 sbox \$0-3x2 \$0-row2 \$0-saver;
#X obj 160 145 sbox \$0-4x2 \$0-row2 \$0-saver 4;
#X obj 175 145 sbox \$0-5x2 \$0-row2 \$0-saver;
#X obj 190 145 sbox \$0-6x2 \$0-row2 \$0-saver;
#X obj 205 145 sbox \$0-7x2 \$0-row2 \$0-saver;
#X obj 220 145 sbox \$0-8x2 \$0-row2 \$0-saver 4;
#X obj 235 145 sbox \$0-9x2 \$0-row2 \$0-saver;
#X obj 250 145 sbox \$0-10x2 \$0-row2 \$0-saver;
#X obj 265 145 sbox \$0-11x2 \$0-row2 \$0-saver;
#X obj 280 145 sbox \$0-12x2 \$0-row2 \$0-saver 4;
#X obj 295 145 sbox \$0-13x2 \$0-row2 \$0-saver;
#X obj 310 145 sbox \$0-14x2 \$0-row2 \$0-saver;
#X obj 325 145 sbox \$0-15x2 \$0-row2 \$0-saver;
#X obj 100 160 sbox \$0-0x3 \$0-row3 \$0-saver 4;
#X obj 115 160 sbox \$0-1x3 \$0-row3 \$0-saver;
#X obj 130 160 sbox \$0-2x3 \$0-row3 \$0-saver;
#X obj 145 160 sbox \$0-3x3 \$0-row3 \$0-saver;
#X obj 160 160 sbox \$0-4x3 \$0-row3 \$0-saver 4;
#X obj 175 160 sbox \$0-5x3 \$0-row3 \$0-saver;
#X obj 190 160 sbox \$0-6x3 \$0-row3 \$0-saver;
#X obj 205 160 sbox \$0-7x3 \$0-row3 \$0-saver;
#X obj 220 160 sbox \$0-8x3 \$0-row3 \$0-saver 4;
#X obj 235 160 sbox \$0-9x3 \$0-row3 \$0-saver;
#X obj 250 160 sbox \$0-10x3 \$0-row3 \$0-saver;
#X obj 265 160 sbox \$0-11x3 \$0-row3 \$0-saver;
#X obj 280 160 sbox \$0-12x3 \$0-row3 \$0-saver 4;
#X obj 295 160 sbox \$0-13x3 \$0-row3 \$0-saver;
#X obj 310 160 sbox \$0-14x3 \$0-row3 \$0-saver;
#X obj 325 160 sbox \$0-15x3 \$0-row3 \$0-saver;
#X obj 116 20 r pattseq;
#X connect 0 0 15 0;
#X connect 1 0 15 0;
#X connect 3 0 4 0;
#X connect 9 0 8 0;
#X connect 14 0 13 0;
#X connect 15 0 3 0;
#X connect 15 1 4 0;
#X connect 15 2 19 0;
#X connect 15 3 16 0;
#X connect 22 0 2 0;
#X connect 23 0 5 0;
#X connect 24 0 6 0;
#X connect 25 0 7 0;
#X connect 90 0 15 0;
#X coords 0 -1 1 1 240 77 1 100 100;
