#N canvas 0 0 1600 871 10;
#X obj 677 662 outlet;
#X msg 625 610 size \$1;
#X obj 677 572 loadbang;
#X msg 677 610 table \$1;
#X obj 660 572 bng 15 250 50 0 empty empty empty 17 7 0 10 -262144
-1 -1;
#X obj 199 67 tgl 15 0 \$0-recs \$0-recr empty 17 7 0 10 -24198 -1
-1 0 1;
#X obj 625 302 r \$0-recs;
#X obj 625 321 sel 0 1;
#X obj 365 224 inlet;
#X obj 368 342 qtimer;
#X msg 368 298 quan \$1;
#X obj 447 298 t f b;
#X obj 776 484 table \$0-pat 1000;
#X obj 677 591 symbol \$0-pat;
#X obj 395 512 tabwrite \$0-pat;
#X obj 482 493 f;
#X obj 506 493 + 1;
#X obj 447 281 kspigot;
#X obj 368 361 t b f;
#X msg 595 376 0;
#X obj 625 554 f;
#X obj 625 573 - 1;
#X floatatom 625 592 5 0 0 0 elements_in_table - -;
#X obj 365 243 route bang quan float list;
#X obj 447 354 t b b f;
#X obj 503 414 t b f;
#X obj 489 294 unpack f f;
#X obj 503 395 f;
#X floatatom 513 533 5 0 0 0 - - -;
#X msg 694 418 \; \$1-pat resize 1 \, resize 1000;
#X obj 662 376 f \$0;
#X obj 386 321 sel 1;
#X obj 458 321 f;
#X msg 422 321 0;
#X msg 295 320 start;
#X obj 761 332 s \$0-recr;
#X msg 761 313 color \$1 22 22;
#X msg 732 297 14;
#X msg 698 318 16;
#X obj 764 257 lb 0;
#X msg 744 217 15;
#X obj 413 343 bang;
#X connect 1 0 0 0;
#X connect 2 0 13 0;
#X connect 3 0 0 0;
#X connect 4 0 13 0;
#X connect 6 0 7 0;
#X connect 6 0 17 1;
#X connect 6 0 32 1;
#X connect 7 0 20 0;
#X connect 7 0 38 0;
#X connect 7 1 19 0;
#X connect 7 1 30 0;
#X connect 7 1 37 0;
#X connect 8 0 23 0;
#X connect 9 0 18 0;
#X connect 10 0 9 0;
#X connect 11 0 24 0;
#X connect 11 1 32 0;
#X connect 13 0 3 0;
#X connect 15 0 16 0;
#X connect 15 0 14 1;
#X connect 15 0 20 1;
#X connect 15 0 28 0;
#X connect 16 0 15 1;
#X connect 17 0 11 0;
#X connect 18 0 15 0;
#X connect 18 1 14 0;
#X connect 19 0 15 0;
#X connect 20 0 21 0;
#X connect 21 0 22 0;
#X connect 22 0 1 0;
#X connect 23 1 10 0;
#X connect 23 2 17 0;
#X connect 23 3 26 0;
#X connect 24 0 27 0;
#X connect 24 1 15 0;
#X connect 24 2 14 0;
#X connect 25 0 15 0;
#X connect 25 1 14 0;
#X connect 26 0 17 0;
#X connect 26 1 27 1;
#X connect 27 0 25 0;
#X connect 30 0 29 0;
#X connect 31 0 33 0;
#X connect 31 0 34 0;
#X connect 31 0 40 0;
#X connect 31 0 41 0;
#X connect 31 1 41 0;
#X connect 32 0 31 0;
#X connect 33 0 32 1;
#X connect 34 0 9 0;
#X connect 36 0 35 0;
#X connect 37 0 36 0;
#X connect 38 0 36 0;
#X connect 39 0 36 0;
#X connect 40 0 36 0;
#X connect 41 0 9 0;
#X coords 0 -1 1 1 65 15 1 149 67;
