#N canvas 0 0 1600 849 10;
#N canvas 0 0 800 410 equal 0;
#X obj 98 128 inlet;
#X obj 146 242 spigot 0;
#X msg 191 223 1;
#X obj 146 204 r \$0-stackr;
#X obj 98 147 t b b b;
#X msg 117 166 bang \, bang;
#X obj 117 185 s \$0-stack;
#X msg 146 289 0 0;
#X msg 219 223 set;
#X msg 146 261 add2 \$1;
#X obj 146 367 ==;
#X msg 234 175 0;
#X obj 146 386 s \$0-stack;
#X obj 146 308 unpack f f;
#X connect 0 0 4 0;
#X connect 1 0 9 0;
#X connect 2 0 1 1;
#X connect 3 0 1 0;
#X connect 4 0 7 0;
#X connect 4 0 11 0;
#X connect 4 1 5 0;
#X connect 4 2 2 0;
#X connect 4 2 8 0;
#X connect 5 0 6 0;
#X connect 7 0 13 0;
#X connect 8 0 7 0;
#X connect 9 0 7 0;
#X connect 10 0 12 0;
#X connect 11 0 1 1;
#X connect 13 0 10 0;
#X connect 13 1 10 1;
#X restore 199 760 pd equal;
#N canvas 0 0 800 849 jump 0;
#X obj 123 93 inlet;
#X obj 123 112 s \$0-setaddr;
#X connect 0 0 1 0;
#X restore 213 741 pd jump;
#N canvas 0 0 800 849 jumpz 0;
#X obj 40 40 inlet;
#X obj 146 118 f;
#X obj 8 108 s \$0-stack;
#X obj 41 157 spigot 0;
#X obj 41 176 sel 0;
#X msg 68 85 1;
#X obj 40 59 t b b f;
#X obj 41 138 r \$0-stackr;
#X msg 95 157 0;
#X obj 146 137 s \$0-setaddr;
#X connect 0 0 6 0;
#X connect 1 0 9 0;
#X connect 3 0 4 0;
#X connect 3 0 8 0;
#X connect 4 0 1 0;
#X connect 5 0 3 1;
#X connect 6 0 2 0;
#X connect 6 1 5 0;
#X connect 6 2 1 1;
#X connect 7 0 3 0;
#X connect 8 0 3 1;
#X restore 227 722 pd jumpz;
#N canvas 0 0 800 849 push-literal 0;
#X obj 144 129 inlet;
#X obj 144 148 s \$0-stack;
#X connect 0 0 1 0;
#X restore 241 703 pd push-literal;
#N canvas 0 0 800 410 push 0;
#X obj 40 40 inlet;
#X obj 76 40 r \$0-table;
#X obj 40 93 tabread;
#X obj 40 112 s \$0-stack;
#X connect 0 0 2 0;
#X connect 1 0 2 0;
#X connect 2 0 3 0;
#X restore 254 684 pd push;
#N canvas 0 0 1600 849 push-indirect 0;
#X obj 116 73 inlet;
#X text 253 67 the betablocker documentation for this says "Push byte
pointed to by byte at address given by argument (indirect)". hopefully
i understood that correctly.;
#X obj 152 73 r \$0-table;
#X obj 116 117 tabread;
#X obj 116 136 tabread;
#X obj 116 155 s \$0-stack;
#X connect 0 0 3 0;
#X connect 2 0 3 0;
#X connect 2 0 4 0;
#X connect 3 0 4 0;
#X connect 4 0 5 0;
#X restore 268 665 pd push-indirect;
#N canvas 0 0 1600 849 pop 0;
#X obj 40 40 inlet;
#X obj 34 143 spigot 0;
#X obj 34 124 r \$0-stackr;
#X msg 88 105 1;
#X obj 40 78 s \$0-stack;
#X msg 88 143 0;
#X obj 40 59 t b b f;
#X obj 34 191 pack f f;
#X obj 34 210 s \$0-write;
#X connect 0 0 6 0;
#X connect 1 0 5 0;
#X connect 1 0 7 0;
#X connect 2 0 1 0;
#X connect 3 0 1 1;
#X connect 5 0 1 1;
#X connect 6 0 4 0;
#X connect 6 1 3 0;
#X connect 6 2 7 1;
#X connect 7 0 8 0;
#X restore 282 646 pd pop;
#N canvas 0 0 1600 849 pop-indirect 0;
#X obj 211 140 inlet;
#X obj 247 204 s \$0-stack;
#X obj 211 280 s \$0-write;
#X obj 211 261 pack f f;
#X obj 211 159 t b f;
#X obj 247 185 bang;
#X obj 211 242 f;
#X obj 226 223 r \$0-stackr;
#X connect 0 0 4 0;
#X connect 3 0 2 0;
#X connect 4 0 6 0;
#X connect 4 1 3 1;
#X connect 4 1 5 0;
#X connect 5 0 1 0;
#X connect 6 0 3 0;
#X connect 7 0 6 1;
#X restore 296 627 pd pop-indirect;
#N canvas 0 0 800 410 add 0;
#X obj 140 32 inlet;
#X obj 140 51 t b b b;
#X obj 168 146 spigot 0;
#X obj 151 125 r \$0-stackr;
#X msg 210 175 set;
#X msg 162 196 51 167;
#X msg 223 125 1;
#X obj 159 89 s \$0-stack;
#X msg 159 70 bang \, bang;
#X msg 250 82 0;
#X msg 153 171 add2 \$1;
#X obj 162 275 s \$0-stack;
#X obj 162 215 unpack f f;
#X obj 162 237 +;
#X obj 162 256 mod 256;
#X connect 0 0 1 0;
#X connect 1 0 9 0;
#X connect 1 0 5 0;
#X connect 1 1 8 0;
#X connect 1 2 6 0;
#X connect 1 2 4 0;
#X connect 2 0 10 0;
#X connect 3 0 2 0;
#X connect 4 0 5 0;
#X connect 5 0 12 0;
#X connect 6 0 2 1;
#X connect 8 0 7 0;
#X connect 9 0 2 1;
#X connect 10 0 5 0;
#X connect 12 0 13 0;
#X connect 12 1 13 1;
#X connect 13 0 14 0;
#X connect 14 0 11 0;
#X restore 310 608 pd add;
#N canvas 0 0 800 410 sub 0;
#X obj 150 42 inlet;
#X obj 150 61 t b b b;
#X obj 178 156 spigot 0;
#X obj 161 135 r \$0-stackr;
#X msg 220 185 set;
#X msg 172 206 3 167;
#X msg 233 135 1;
#X obj 169 99 s \$0-stack;
#X msg 169 80 bang \, bang;
#X msg 260 92 0;
#X msg 163 181 add2 \$1;
#X obj 172 285 s \$0-stack;
#X obj 172 225 unpack f f;
#X obj 172 266 mod 256;
#X obj 172 247 -;
#X connect 0 0 1 0;
#X connect 1 0 9 0;
#X connect 1 0 5 0;
#X connect 1 1 8 0;
#X connect 1 2 6 0;
#X connect 1 2 4 0;
#X connect 2 0 10 0;
#X connect 3 0 2 0;
#X connect 4 0 5 0;
#X connect 5 0 12 0;
#X connect 6 0 2 1;
#X connect 8 0 7 0;
#X connect 9 0 2 1;
#X connect 10 0 5 0;
#X connect 12 0 14 0;
#X connect 12 1 14 1;
#X connect 13 0 11 0;
#X connect 14 0 13 0;
#X restore 323 589 pd sub;
#N canvas 0 0 800 410 inc 0;
#X obj 160 52 inlet;
#X obj 188 165 spigot 0;
#X obj 171 144 r \$0-stackr;
#X msg 243 144 1;
#X msg 242 165 0;
#X obj 188 222 s \$0-stack;
#X obj 188 203 mod 256;
#X obj 160 71 t b b;
#X obj 188 184 + 1;
#X obj 160 90 s \$0-stack;
#X connect 0 0 7 0;
#X connect 1 0 4 0;
#X connect 1 0 8 0;
#X connect 2 0 1 0;
#X connect 3 0 1 1;
#X connect 4 0 1 1;
#X connect 6 0 5 0;
#X connect 7 0 9 0;
#X connect 7 1 3 0;
#X connect 8 0 6 0;
#X restore 337 570 pd inc;
#N canvas 0 0 1600 849 dec 0;
#X obj 180 72 inlet;
#X obj 208 185 spigot 0;
#X obj 191 164 r \$0-stackr;
#X msg 263 164 1;
#X msg 262 185 0;
#X obj 208 242 s \$0-stack;
#X obj 208 223 mod 256;
#X obj 180 91 t b b;
#X obj 180 110 s \$0-stack;
#X obj 208 204 - 1;
#X connect 0 0 7 0;
#X connect 1 0 4 0;
#X connect 1 0 9 0;
#X connect 2 0 1 0;
#X connect 3 0 1 1;
#X connect 4 0 1 1;
#X connect 6 0 5 0;
#X connect 7 0 8 0;
#X connect 7 1 3 0;
#X connect 9 0 6 0;
#X restore 351 551 pd dec;
#N canvas 0 0 800 410 and 0;
#X obj 160 52 inlet;
#X obj 160 71 t b b b;
#X obj 188 166 spigot 0;
#X obj 171 145 r \$0-stackr;
#X msg 230 195 set;
#X msg 182 216 5 0;
#X msg 243 145 1;
#X obj 179 109 s \$0-stack;
#X msg 179 90 bang \, bang;
#X msg 270 102 0;
#X msg 173 191 add2 \$1;
#X obj 182 295 s \$0-stack;
#X obj 182 235 unpack f f;
#X obj 182 276 mod 256;
#X obj 182 257 &;
#X connect 0 0 1 0;
#X connect 1 0 9 0;
#X connect 1 0 5 0;
#X connect 1 1 8 0;
#X connect 1 2 6 0;
#X connect 1 2 4 0;
#X connect 2 0 10 0;
#X connect 3 0 2 0;
#X connect 4 0 5 0;
#X connect 5 0 12 0;
#X connect 6 0 2 1;
#X connect 8 0 7 0;
#X connect 9 0 2 1;
#X connect 10 0 5 0;
#X connect 12 0 14 0;
#X connect 12 1 14 1;
#X connect 13 0 11 0;
#X connect 14 0 13 0;
#X restore 365 532 pd and;
#N canvas 0 0 1600 849 or 0;
#X obj 170 62 inlet;
#X obj 170 81 t b b b;
#X obj 198 176 spigot 0;
#X obj 181 155 r \$0-stackr;
#X msg 240 205 set;
#X msg 192 226;
#X msg 253 155 1;
#X obj 189 119 s \$0-stack;
#X msg 189 100 bang \, bang;
#X msg 280 112 0;
#X msg 183 201 add2 \$1;
#X obj 192 305 s \$0-stack;
#X obj 192 245 unpack f f;
#X obj 192 286 mod 256;
#X obj 192 267 |;
#X connect 0 0 1 0;
#X connect 1 0 9 0;
#X connect 1 0 5 0;
#X connect 1 1 8 0;
#X connect 1 2 6 0;
#X connect 1 2 4 0;
#X connect 2 0 10 0;
#X connect 3 0 2 0;
#X connect 4 0 5 0;
#X connect 5 0 12 0;
#X connect 6 0 2 1;
#X connect 8 0 7 0;
#X connect 9 0 2 1;
#X connect 10 0 5 0;
#X connect 12 0 14 0;
#X connect 12 1 14 1;
#X connect 13 0 11 0;
#X connect 14 0 13 0;
#X restore 379 513 pd or;
#N canvas 0 0 1600 849 xor 0;
#X obj 170 62 inlet;
#X obj 170 81 t b b b;
#X obj 198 176 spigot 0;
#X obj 181 155 r \$0-stackr;
#X msg 240 205 set;
#X msg 192 226;
#X msg 253 155 1;
#X obj 189 119 s \$0-stack;
#X msg 189 100 bang \, bang;
#X msg 280 112 0;
#X msg 183 201 add2 \$1;
#X obj 192 305 s \$0-stack;
#X obj 192 245 unpack f f;
#X obj 192 286 mod 256;
#X obj 192 267 expr $i1^$i2;
#X text 269 268 xor;
#X connect 0 0 1 0;
#X connect 1 0 9 0;
#X connect 1 0 5 0;
#X connect 1 1 8 0;
#X connect 1 2 6 0;
#X connect 1 2 4 0;
#X connect 2 0 10 0;
#X connect 3 0 2 0;
#X connect 4 0 5 0;
#X connect 5 0 12 0;
#X connect 6 0 2 1;
#X connect 8 0 7 0;
#X connect 9 0 2 1;
#X connect 10 0 5 0;
#X connect 12 0 14 0;
#X connect 12 1 14 1;
#X connect 13 0 11 0;
#X connect 14 0 13 0;
#X restore 392 494 pd xor;
#N canvas 0 0 1600 849 not 0;
#X obj 190 82 inlet;
#X obj 218 195 spigot 0;
#X obj 201 174 r \$0-stackr;
#X msg 273 174 1;
#X msg 272 195 0;
#X obj 218 252 s \$0-stack;
#X obj 218 233 mod 256;
#X obj 190 101 t b b;
#X obj 190 120 s \$0-stack;
#X obj 218 214 expr 255-$i1;
#X text 295 214 this should work \, right?;
#X connect 0 0 7 0;
#X connect 1 0 4 0;
#X connect 1 0 9 0;
#X connect 2 0 1 0;
#X connect 3 0 1 1;
#X connect 4 0 1 1;
#X connect 6 0 5 0;
#X connect 7 0 8 0;
#X connect 7 1 3 0;
#X connect 9 0 6 0;
#X restore 406 475 pd not;
#N canvas 0 0 1600 849 shift-right 0;
#X obj 190 82 inlet;
#X obj 218 195 spigot 0;
#X obj 201 174 r \$0-stackr;
#X msg 273 174 1;
#X msg 272 195 0;
#X obj 218 252 s \$0-stack;
#X obj 218 233 mod 256;
#X obj 190 120 s \$0-stack;
#X obj 218 214 >>;
#X obj 190 101 t b f;
#X connect 0 0 9 0;
#X connect 1 0 4 0;
#X connect 1 0 8 0;
#X connect 2 0 1 0;
#X connect 3 0 1 1;
#X connect 4 0 1 1;
#X connect 6 0 5 0;
#X connect 8 0 6 0;
#X connect 9 0 7 0;
#X connect 9 1 3 0;
#X connect 9 1 8 1;
#X restore 420 456 pd shift-right;
#N canvas 0 0 1600 849 shift-left 0;
#X obj 190 82 inlet;
#X obj 218 195 spigot 0;
#X obj 201 174 r \$0-stackr;
#X msg 273 174 1;
#X msg 272 195 0;
#X obj 218 252 s \$0-stack;
#X obj 218 233 mod 256;
#X obj 190 120 s \$0-stack;
#X obj 190 101 t b f;
#X obj 218 214 <<;
#X connect 0 0 8 0;
#X connect 1 0 4 0;
#X connect 1 0 9 0;
#X connect 2 0 1 0;
#X connect 3 0 1 1;
#X connect 4 0 1 1;
#X connect 6 0 5 0;
#X connect 8 0 7 0;
#X connect 8 1 3 0;
#X connect 8 1 9 1;
#X connect 9 0 6 0;
#X restore 434 437 pd shift-left;
#N canvas 0 0 800 849 inc-byte 0;
#X obj 258 210 inlet;
#X obj 258 265 tabread;
#X obj 304 245 r \$0-table;
#X obj 258 341 s \$0-write;
#X obj 258 322 pack f f;
#X obj 258 229 t f f;
#X obj 258 284 + 1;
#X obj 258 303 mod 256;
#X connect 0 0 5 0;
#X connect 1 0 6 0;
#X connect 2 0 1 0;
#X connect 4 0 3 0;
#X connect 5 0 1 0;
#X connect 5 1 4 1;
#X connect 6 0 7 0;
#X connect 7 0 4 0;
#X restore 448 418 pd inc-byte;
#N canvas 0 0 1600 849 dec-byte 0;
#X obj 258 210 inlet;
#X obj 258 265 tabread;
#X obj 304 245 r \$0-table;
#X obj 258 341 s \$0-write;
#X obj 258 322 pack f f;
#X obj 258 229 t f f;
#X obj 258 303 mod 256;
#X obj 258 284 - 1;
#X connect 0 0 5 0;
#X connect 1 0 7 0;
#X connect 2 0 1 0;
#X connect 4 0 3 0;
#X connect 5 0 1 0;
#X connect 5 1 4 1;
#X connect 6 0 4 0;
#X connect 7 0 6 0;
#X restore 461 399 pd dec-byte;
#N canvas 0 0 1600 849 duplicate 0;
#X obj 140 32 inlet;
#X obj 155 108 r \$0-stackr;
#X obj 167 70 s \$0-stack;
#X obj 140 146 s \$0-stack;
#X obj 140 127 f;
#X obj 140 51 t b b;
#X msg 140 89 bang \, bang;
#X connect 0 0 5 0;
#X connect 1 0 4 1;
#X connect 4 0 3 0;
#X connect 5 0 6 0;
#X connect 5 1 2 0;
#X connect 6 0 4 0;
#X restore 475 380 pd duplicate;
#N canvas 0 0 1600 849 note 0;
#X obj 40 40 inlet;
#X obj 40 59 t b b;
#X obj 67 78 s \$0-stack;
#X obj 67 97 r \$0-stackr;
#X obj 52 116 f;
#X obj 52 135 s \$0-note;
#X connect 0 0 1 0;
#X connect 1 0 4 0;
#X connect 1 1 2 0;
#X connect 3 0 4 1;
#X connect 4 0 5 0;
#X restore 489 361 pd note;
#N canvas 0 0 1600 849 voice 0;
#X obj 40 40 inlet;
#X obj 40 59 t b b;
#X obj 67 78 s \$0-stack;
#X obj 67 97 r \$0-stackr;
#X obj 52 116 f;
#X obj 52 135 s \$0-voice;
#X connect 0 0 1 0;
#X connect 1 0 4 0;
#X connect 1 1 2 0;
#X connect 3 0 4 1;
#X connect 4 0 5 0;
#X restore 503 342 pd voice;
#X text 555 343 24;
#X text 551 381 22;
#X text 518 419 20;
#X text 508 457 18;
#X text 432 495 16;
#X text 405 533 14;
#X text 378 572 12;
#X text 350 609 10;
#X text 322 647 8;
#X text 301 685 6;
#X text 279 722 4;
#X text 251 761 2;
#X text 445 475 not sure about the code in this one...;
#X obj 102 29 route float;
#N canvas 0 0 800 849 set-start-address 0;
#X obj 156 258 inlet;
#X obj 156 334 s \$0-startaddress;
#X obj 171 296 r \$0-currentaddress;
#X obj 156 315 f;
#X obj 156 277 bang;
#X connect 0 0 4 0;
#X connect 2 0 3 1;
#X connect 3 0 1 0;
#X connect 4 0 3 0;
#X restore 185 779 pd set-start-address;
#X obj 172 310 route 0 1 2 3 4 5 6 7 8 9 10 11 12 13 14 15 16 17 18
19 20 21 22 23 24;
#X obj 102 79 unmap NONE org eql jmp jmpz pshl psh pshi pop popi add
sub inc dec and or xor not ror rol pip pdp dup note vox;
#X obj 165 48 t b a b;
#X obj 189 130 f;
#X msg 204 111 -1;
#X obj 222 274 outlet;
#X obj 189 149 sel -1;
#X msg 241 187 set \$1;
#X msg 172 291 11;
#X obj 222 168 t f f b;
#X msg 50 92 add2 \$1;
#X obj 439 662 stack;
#X obj 439 643 r \$0-stack;
#X obj 439 681 s \$0-stackr;
#X obj 32 702 r \$0-note;
#X obj 92 702 r \$0-voice;
#X obj 32 764 pack f 0;
#X obj 32 802 outlet;
#X msg 32 783 \$2 \$1;
#X obj 222 236 map 0 0 0 1 1 1 1 1 1 1 0 0 0 0 0 0 0 0 1 1 1 1 0 0
0;
#X text 529 267 number of args for each command.;
#X obj 102 10 inlet;
#X obj 32 721 mod 127;
#X obj 222 255 until;
#X connect 36 0 48 0;
#X connect 36 1 40 0;
#X connect 38 1 37 0;
#X connect 38 2 0 0;
#X connect 38 3 1 0;
#X connect 38 4 2 0;
#X connect 38 5 3 0;
#X connect 38 6 4 0;
#X connect 38 7 5 0;
#X connect 38 8 6 0;
#X connect 38 9 7 0;
#X connect 38 10 8 0;
#X connect 38 11 9 0;
#X connect 38 12 10 0;
#X connect 38 13 11 0;
#X connect 38 14 12 0;
#X connect 38 15 13 0;
#X connect 38 16 14 0;
#X connect 38 17 15 0;
#X connect 38 18 16 0;
#X connect 38 19 17 0;
#X connect 38 20 18 0;
#X connect 38 21 19 0;
#X connect 38 22 20 0;
#X connect 38 23 21 0;
#X connect 38 24 22 0;
#X connect 39 0 41 1;
#X connect 40 0 41 0;
#X connect 40 1 39 0;
#X connect 40 2 42 0;
#X connect 41 0 44 0;
#X connect 42 0 41 1;
#X connect 44 1 47 0;
#X connect 45 0 46 0;
#X connect 46 0 38 0;
#X connect 47 0 57 0;
#X connect 47 1 45 0;
#X connect 47 2 46 0;
#X connect 48 0 46 0;
#X connect 49 0 51 0;
#X connect 50 0 49 0;
#X connect 52 0 60 0;
#X connect 53 0 54 1;
#X connect 54 0 56 0;
#X connect 56 0 55 0;
#X connect 57 0 61 0;
#X connect 59 0 36 0;
#X connect 60 0 54 0;
#X connect 61 0 43 0;
