#N canvas 0 0 2560 1566 10;
#X obj 480 417 list-idx;
#X obj 602 223 list length;
#X obj 480 379 l;
#X obj 407 124 inlet;
#X obj 446 328 t b f;
#X obj 480 466 outlet;
#X obj 407 273 count;
#X obj 581 162 inlet;
#X obj 486 162 t b a;
#X obj 575 204 t a a;
#X obj 575 185 list;
#X obj 407 143 route bang float list reset;
#X msg 526 189 reset;
#X text 79 151 pmap - program map;
#X text 73 177 accepts "org" message to set restart point.;
#X obj 432 466 sel org;
#X obj 525 379 mod;
#X obj 432 520 f;
#X obj 525 398 t f f;
#X obj 432 539 + 1;
#X obj 572 616 f;
#X obj 432 558 t b f;
#X obj 572 635 - 0;
#X obj 407 292 + 0;
#X obj 575 143 pdcontrol;
#X obj 575 103 loadbang;
#X msg 575 123 args;
#X connect 0 0 5 0;
#X connect 0 0 15 0;
#X connect 1 0 20 0;
#X connect 1 0 16 1;
#X connect 2 0 0 0;
#X connect 3 0 11 0;
#X connect 4 0 2 0;
#X connect 4 1 16 0;
#X connect 6 0 23 0;
#X connect 7 0 10 0;
#X connect 8 0 6 0;
#X connect 8 1 10 0;
#X connect 9 0 2 1;
#X connect 9 1 1 0;
#X connect 10 0 9 0;
#X connect 11 0 6 0;
#X connect 11 1 4 0;
#X connect 11 2 8 0;
#X connect 11 3 12 0;
#X connect 12 0 6 0;
#X connect 15 0 17 0;
#X connect 16 0 18 0;
#X connect 17 0 19 0;
#X connect 18 0 0 1;
#X connect 18 1 17 1;
#X connect 19 0 21 0;
#X connect 20 0 22 0;
#X connect 21 0 20 0;
#X connect 21 1 22 1;
#X connect 21 1 23 1;
#X connect 22 0 6 1;
#X connect 23 0 4 0;
#X connect 24 0 10 0;
#X connect 25 0 26 0;
#X connect 26 0 24 0;
