#N struct 1079template float x0 float y0 float x1 float id float c
;
#N canvas 1680 29 1600 871 10;
#N canvas 1680 29 1600 871 \$0data 0;
#X scalar 1079template 67 88.0703 51.0508 7 9 \;;
#X scalar 1079template 72.2344 82.4922 116.559 6 900 \;;
#X scalar 1079template 100.598 112.957 88.0156 5 900 \;;
#X scalar 1079template 99.3555 58.6523 89.75 4 900 \;;
#X scalar 1079template 113.113 64.1797 126.625 3 900 \;;
#X scalar 1079template 35.1953 48.0703 20.0078 2 900 \;;
#X scalar 1079template 15.3516 86.4023 0 1 900 \;;
#X coords 0 0 127 137 256 256 1;
#X restore 10 34 pd \$0data;
#N canvas 1680 29 1600 871 \$0template 0;
#X obj 187 285 pointer;
#X obj 4 112 inlet;
#X obj 4 304 append \$0template x0 y0 x1 id c;
#X obj 3 4 struct \$0template float x0 float y0 float x1 float id float
c;
#X obj 187 215 bng 15 250 50 0 empty empty empty 17 7 0 10 -262144
-1 -1;
#X obj 4 131 t a b;
#X msg 187 266 traverse pd-\$1data \, bang;
#X obj 187 247 f \$0;
#X msg 4 285 60 64 68 \$1 900;
#X obj 3 48 filledpolygon c 0 5 x0(0:127)(0:127) y0(0:127)(0:127) x1(0:127)(0:127)
y0(0:127)(0:127) x1(0:127)(0:127) y0(0:127)(10:137) x0(0:127)(0:127)
y0(0:127)(10:137);
#X connect 0 0 2 5;
#X connect 1 0 5 0;
#X connect 4 0 7 0;
#X connect 5 0 8 0;
#X connect 5 1 7 0;
#X connect 6 0 0 0;
#X connect 7 0 6 0;
#X connect 8 0 2 0;
#X restore 78 447 pd \$0template;
#X msg 78 351 0;
#X obj 78 398 f;
#X obj 102 398 + 1;
#X obj 252 20 bng 14 250 50 0 \$0-add \$0-add + 4 7 0 13 -4034 -1 -1
;
#X obj 87 372 r \$0-add;
#X obj 238 20 bng 14 250 50 0 \$0-clear \$0-clear cl 2 8 0 9 -258113
-1 -1;
#X obj 78 312 r \$0-clear;
#X obj 291 173 inlet;
#X obj 385 408 outlet;
#X obj 472 408 outlet;
#X obj 91 428 s \$0-count;
#X msg 144 370 \; pd-\$1data clear;
#X obj 144 351 f \$0;
#X text 322 93 n [number] to output a specific note. [number] to output
all notes at a position. input range for this is 0-127;
#N canvas 1680 29 800 871 onenote 0;
#X obj 40 43 inlet;
#X obj 244 498 outlet;
#X msg 91 301 next;
#X obj 244 334 pointer;
#X obj 40 222 until;
#X obj 73 183 > 0;
#X obj 40 160 t f f;
#X obj 40 202 spigot;
#X obj 40 254 f;
#X obj 68 254 + 1;
#X obj 40 274 t b f;
#X msg 115 205 0;
#X obj 196 291 ==;
#X obj 40 120 t f b b f;
#X obj 244 366 spigot;
#X obj 40 81 mod;
#X obj 55 62 r \$0-count;
#X obj 244 390 get \$0template x0 y0 x1 id c;
#X msg 244 276 traverse pd-\$1data;
#X obj 244 257 f \$0;
#X obj 338 498 outlet;
#X obj 311 422 -;
#X obj 244 479 f;
#X obj 311 441 t b f;
#X obj 338 460 abs;
#X obj 259 441 abs;
#X obj 338 479 * 2;
#X obj 259 422 - 127;
#X obj 259 460 int;
#X obj 169 409 s noteptr;
#X connect 0 0 15 0;
#X connect 2 0 3 0;
#X connect 3 0 14 0;
#X connect 4 0 8 0;
#X connect 5 0 7 1;
#X connect 6 0 7 0;
#X connect 6 1 5 0;
#X connect 7 0 4 0;
#X connect 8 0 9 0;
#X connect 8 0 10 0;
#X connect 9 0 8 1;
#X connect 10 0 2 0;
#X connect 10 1 12 0;
#X connect 11 0 8 0;
#X connect 12 0 14 1;
#X connect 13 0 6 0;
#X connect 13 1 11 0;
#X connect 13 2 19 0;
#X connect 13 3 12 1;
#X connect 14 0 17 0;
#X connect 14 0 29 0;
#X connect 15 0 13 0;
#X connect 16 0 15 1;
#X connect 17 0 21 0;
#X connect 17 1 27 0;
#X connect 17 2 21 1;
#X connect 18 0 3 0;
#X connect 19 0 18 0;
#X connect 21 0 23 0;
#X connect 22 0 1 0;
#X connect 23 0 22 0;
#X connect 23 1 24 0;
#X connect 24 0 26 0;
#X connect 25 0 28 0;
#X connect 26 0 20 0;
#X connect 27 0 25 0;
#X connect 28 0 22 1;
#X restore 291 297 pd onenote;
#N canvas 1680 29 1600 871 allnotes 0;
#X obj 40 40 inlet;
#X obj 79 434 outlet;
#X obj 172 434 outlet;
#X msg 40 163 next;
#X obj 78 218 pointer;
#X obj 78 256 get \$0template x0 y0 x1 id c;
#X msg 78 163 traverse pd-\$1data;
#X obj 78 144 f \$0;
#X obj 145 358 -;
#X obj 79 415 f;
#X obj 145 377 t b f;
#X obj 172 396 abs;
#X obj 94 377 abs;
#X obj 172 415 * 2;
#X obj 94 358 - 127;
#X obj 94 396 int;
#X obj 55 78 r \$0-count;
#X obj 40 97 f;
#X obj 40 59 t b f;
#X obj 40 116 t f b;
#X obj 40 144 until;
#X obj 145 339 spigot;
#X obj 178 320 ==;
#X obj 78 275 t f f;
#X obj 193 301 i;
#X obj 169 299 i;
#X obj 132 285 min;
#X obj 242 401 s noteptr;
#X obj 242 382 pointer;
#X obj 242 363 bang;
#X obj 78 237 t p p;
#X connect 0 0 18 0;
#X connect 3 0 4 0;
#X connect 4 0 30 0;
#X connect 5 0 23 0;
#X connect 5 1 14 0;
#X connect 5 2 8 1;
#X connect 5 2 26 1;
#X connect 6 0 4 0;
#X connect 7 0 6 0;
#X connect 8 0 10 0;
#X connect 9 0 1 0;
#X connect 10 0 9 0;
#X connect 10 1 11 0;
#X connect 11 0 13 0;
#X connect 12 0 15 0;
#X connect 13 0 2 0;
#X connect 14 0 12 0;
#X connect 15 0 9 1;
#X connect 16 0 17 1;
#X connect 17 0 19 0;
#X connect 18 0 17 0;
#X connect 18 1 24 0;
#X connect 19 0 20 0;
#X connect 19 1 7 0;
#X connect 20 0 3 0;
#X connect 21 0 8 0;
#X connect 21 0 29 0;
#X connect 22 0 21 1;
#X connect 23 0 21 0;
#X connect 23 1 26 0;
#X connect 24 0 22 1;
#X connect 25 0 22 0;
#X connect 26 0 25 0;
#X connect 28 0 27 0;
#X connect 29 0 28 0;
#X connect 30 0 5 0;
#X connect 30 1 28 1;
#X restore 385 297 pd allnotes;
#X floatatom 348 409 5 0 0 0 - - -;
#X floatatom 291 409 5 0 0 0 - - -;
#X text 324 469 outputs are: midi note number \, duration;
#X obj 291 192 route n float time;
#N canvas 0 29 1600 849 dur-mult 0;
#X obj 313 362 inlet;
#X obj 349 304 inlet;
#X obj 334 400 *;
#X obj 371 323 loadbang;
#X obj 334 419 outlet;
#X obj 349 381 / 255;
#X obj 371 342 f 255;
#X connect 0 0 2 0;
#X connect 1 0 5 0;
#X connect 2 0 4 0;
#X connect 3 0 6 0;
#X connect 5 0 2 1;
#X connect 6 0 5 0;
#X restore 472 389 pd dur-mult;
#N canvas 1680 29 1600 871 visual-feedback 0;
#X obj 360 356 set \$0template c;
#X obj 370 206 r noteptr;
#X msg 382 276 900;
#X msg 332 250 9;
#X obj 370 225 t b p b;
#X connect 1 0 4 0;
#X connect 2 0 0 0;
#X connect 3 0 0 0;
#X connect 4 0 3 0;
#X connect 4 1 0 1;
#X connect 4 2 2 0;
#X restore 569 317 pd visual-feedback;
#X connect 2 0 3 0;
#X connect 3 0 4 0;
#X connect 3 0 12 0;
#X connect 3 0 1 0;
#X connect 4 0 3 1;
#X connect 6 0 3 0;
#X connect 8 0 2 0;
#X connect 8 0 14 0;
#X connect 9 0 21 0;
#X connect 14 0 13 0;
#X connect 16 0 19 0;
#X connect 16 0 10 0;
#X connect 16 1 18 0;
#X connect 16 1 22 0;
#X connect 17 0 10 0;
#X connect 17 1 22 0;
#X connect 21 0 16 0;
#X connect 21 1 17 0;
#X connect 21 2 22 1;
#X connect 22 0 11 0;
#X coords 0 0 210 232 256 270 1 10 20;
