#N canvas 0 0 800 849 10;
#X obj 79 -5 inlet;
#X obj 157 104 list length;
#X obj 124 123 random;
#X obj 79 161 outlet;
#X obj 79 142 list-idx;
#X obj 79 80 t l b l;
#X obj 122 41 dollarg;
#X obj 79 14 route list bang;
#X connect 0 0 7 0;
#X connect 1 0 2 1;
#X connect 2 0 4 1;
#X connect 4 0 3 0;
#X connect 5 0 4 0;
#X connect 5 1 2 0;
#X connect 5 2 1 0;
#X connect 6 0 5 0;
#X connect 7 0 5 0;
#X connect 7 1 6 0;
