#N canvas 0 29 1920 1048 10;
#X obj 79 54 inlet;
#X obj 157 164 list length;
#X obj 124 184 random;
#X obj 79 224 outlet;
#X obj 79 204 list-idx;
#X obj 79 140 t l b l;
#X obj 79 74 route list bang;
#X obj 160 113 list;
#X obj 219 51 loadbang;
#X obj 181 74 inlet;
#X obj 105 112 list;
#X msg 219 74 args;
#X obj 219 97 pdcontrol;
#X connect 0 0 6 0;
#X connect 1 0 2 1;
#X connect 2 0 4 1;
#X connect 4 0 3 0;
#X connect 5 0 4 0;
#X connect 5 1 2 0;
#X connect 5 2 1 0;
#X connect 6 0 5 0;
#X connect 6 1 7 0;
#X connect 6 2 10 0;
#X connect 7 0 5 0;
#X connect 8 0 11 0;
#X connect 9 0 7 1;
#X connect 10 0 5 0;
#X connect 11 0 12 0;
#X connect 12 0 7 1;
