#N canvas 0 0 2560 1566 12;
#X obj 17 77 inlet;
#X obj 17 152 unmap;
#X obj 17 197 map;
#X obj 17 222 outlet;
#X obj 118 52 loadbang;
#X msg 118 77 args;
#X obj 118 102 pdcontrol;
#X text 266 68 remap - Map values to other values.;
#X text 262 103 Specify the mapping as interlaced "FROM TO" pairs. For example \, invoking as [remap foo bar baz qux] will output a "bar" message when "foo" is received \, and a "qux" message when "baz" is received.;
#X text 263 216 The mapping can be provided as arguments or as a list to the 2nd inlet.;
#X text 262 264 The remapped value is output on the 1st outlet. If the input value is not found in the mapping \, it is passed through to the 2nd outlet.;
#X obj 71 222 outlet;
#N canvas 0 0 2560 1566 deinterlace 0;
#X obj 119 22 inlet;
#X obj 119 72 list-drip;
#X obj 119 203 route 0 1;
#X obj 151 121 count 2;
#X obj 119 179 prepent;
#X obj 119 97 t a b;
#X msg 174 98 0;
#X msg 119 250 append \$1;
#X msg 199 250 append \$1;
#X obj 119 275 list store;
#X obj 199 275 list store;
#X obj 119 47 t a b;
#X msg 221 93 list;
#X msg 231 167 bang;
#X obj 119 300 outlet;
#X obj 199 300 outlet;
#X text 170 19 This subpatch deinterlaces the incoming list into its FROM values and its TO values.;
#X text 119 326 FROM;
#X text 202 327 TO;
#X msg 151 153 \$1 append;
#X connect 0 0 11 0;
#X connect 1 0 5 0;
#X connect 1 1 13 0;
#X connect 2 0 7 0;
#X connect 2 1 8 0;
#X connect 3 0 19 0;
#X connect 4 0 2 0;
#X connect 5 0 4 0;
#X connect 5 1 3 0;
#X connect 6 0 3 1;
#X connect 7 0 9 0;
#X connect 8 0 10 0;
#X connect 9 0 14 0;
#X connect 10 0 15 0;
#X connect 11 0 1 0;
#X connect 11 1 6 0;
#X connect 11 1 12 0;
#X connect 12 0 10 1;
#X connect 12 0 9 1;
#X connect 13 0 10 0;
#X connect 13 0 9 0;
#X connect 19 0 4 1;
#X restore 118 126 pd deinterlace;
#X obj 71 77 inlet;
#X text 264 180 Send the value to remap to the 1st inlet.;
#X connect 0 0 1 0;
#X connect 1 0 2 0;
#X connect 1 1 11 0;
#X connect 2 0 3 0;
#X connect 4 0 5 0;
#X connect 5 0 6 0;
#X connect 6 0 12 0;
#X connect 12 0 1 1;
#X connect 12 1 2 1;
#X connect 13 0 12 0;
