#N canvas 1920 30 2560 1566 10;
#N canvas 1440 0 2560 1566 \$0-receives 0;
#X restore 71 560 pd \$0-receives;
#X obj 71 580 outlet;
#X obj 104 163 inlet;
#X obj 71 300 list-drip;
#X obj 71 320 t a b;
#X text 194 115 rmap - receive map;
#X text 194 241 output: [number] [value];
#X obj 104 229 list;
#X obj 104 249 t a b;
#X obj 71 340 symbol;
#X obj 184 300 f \$0;
#X obj 241 32 namecanvas \$0-rmap;
#X text 194 135 dynamically generates receives for each of its arguments. any messages that the receives receive are prepended with a unique number so that the output of [rmap] can be separated by using [route].;
#X text 194 188 this uses dynamic patching \, so you should probably copy and paste the generated objects from inside the [pd 0-receives] subpatch instead of leaving an [rmap] in your abstractions or patches.;
#X obj 131 320 int;
#X obj 155 320 + 1;
#X obj 43 163 pdcontrol;
#X obj 43 123 loadbang;
#X msg 43 143 args;
#X msg 131 300 -1;
#X obj 190 420 + 25;
#X msg 184 320 \; pd-\$1-receives clear \, obj 94 340 makefilename %d \, obj 25 360 list prepend \, obj 25 380 list trim \, obj 25 400 outlet \, connect 0 0 1 1 \, connect 1 0 2 0 \, connect 2 0 3 0 \; \$1-rmap connect 0 0 1 0;
#X obj 71 475 pack s f f f f f f \$0;
#X obj 190 449 + 27;
#X text 225 453 packed: 1: receive name. 2: receive index. 3: receive obj ID. 4: trigger obj ID. 5: msg obj ID. 6: column X position. 7: msg X position. 8: window ID.;
#X msg 71 505 \; pd-\$8-receives obj \$6 10 r \$1 \, obj \$6 30 t a b \, msg \$7 50 \$2 \, connect \$3 0 \$4 0 \, connect \$4 1 \$5 0 \, connect \$5 0 0 0 \, connect \$4 0 1 0;
#X obj 118 401 + 4;
#X obj 142 401 + 5;
#X obj 166 401 + 6;
#X obj 131 340 * 3;
#X text 231 389 1: clear subpatch. 2: make makefilename \, list prepend \, list trim \, and outlet. 3: connect them.;
#X obj 190 401 * 100;
#X connect 2 0 7 0;
#X connect 3 0 4 0;
#X connect 4 0 9 0;
#X connect 4 1 14 0;
#X connect 7 0 8 0;
#X connect 8 0 3 0;
#X connect 8 1 19 0;
#X connect 8 1 10 0;
#X connect 9 0 22 0;
#X connect 10 0 21 0;
#X connect 14 0 15 0;
#X connect 14 0 22 1;
#X connect 14 0 29 0;
#X connect 14 0 31 0;
#X connect 15 0 14 1;
#X connect 16 0 7 0;
#X connect 17 0 18 0;
#X connect 18 0 16 0;
#X connect 19 0 14 0;
#X connect 20 0 22 5;
#X connect 20 0 23 0;
#X connect 22 0 25 0;
#X connect 23 0 22 6;
#X connect 26 0 22 2;
#X connect 27 0 22 3;
#X connect 28 0 22 4;
#X connect 29 0 26 0;
#X connect 29 0 27 0;
#X connect 29 0 28 0;
#X connect 31 0 20 0;
