#N canvas 0 0 800 849 10;
#X obj 382 168 inlet;
#X obj 349 412 count \$1;
#X obj 349 393 until;
#X obj 349 374 f \$1;
#X obj 382 343 t b f;
#X obj 382 194 route every e;
#X obj 394 478 %;
#X obj 349 540 pack f f;
#X obj 349 431 t f f;
#X obj 394 497 sel 0;
#X msg 394 516 1;
#X msg 421 516 0;
#X text 453 91 seqfill - fill a sequencer based on an equation.;
#X obj 349 559 outlet;
#X obj 382 222 route float;
#X obj 445 260 s2l ';
#X obj 445 241 symbol;
#X obj 382 241 t f b;
#X obj 383 453 +;
#X msg 447 436 0;
#X obj 445 279 unpack f f;
#X text 433 116 every [num]'[offset];
#X obj 382 293 sel 0;
#X connect 0 0 5 0;
#X connect 1 0 8 0;
#X connect 2 0 1 0;
#X connect 3 0 2 0;
#X connect 4 0 3 0;
#X connect 4 1 6 1;
#X connect 5 0 14 0;
#X connect 5 1 14 0;
#X connect 6 0 9 0;
#X connect 7 0 13 0;
#X connect 8 0 7 0;
#X connect 8 1 18 0;
#X connect 9 0 10 0;
#X connect 9 1 11 0;
#X connect 10 0 7 1;
#X connect 11 0 7 1;
#X connect 14 0 17 0;
#X connect 14 1 16 0;
#X connect 15 0 20 0;
#X connect 16 0 15 0;
#X connect 17 0 22 0;
#X connect 17 1 19 0;
#X connect 18 0 6 0;
#X connect 19 0 18 1;
#X connect 20 0 4 0;
#X connect 20 1 18 1;
#X connect 22 1 4 0;
