#N canvas 0 29 1600 849 10;
#X text 291 60 this will generate snare rolls/rushes;
#X obj 255 122 inlet;
#X obj 444 188 inlet;
#X text -106 119 to trigger: format is NUMBER INITDLY. NUMBER is how
many bangs to output \, INITDLY is the initial delay between them.
;
#X obj 255 141 unpack f f;
#X text 301 117 second inlet is to change the delay time;
#X obj 255 330 outlet;
#X obj 255 203 f;
#X obj 255 222 - 1;
#X obj 255 311 bang;
#X obj 267 263 sel 1 0;
#X obj 353 221 del;
#X obj 473 345 outlet;
#X obj 267 244 > 0;
#X obj 373 299 spigot;
#X obj 302 222 spigot;
#X obj 373 256 f;
#X obj 361 168 t f f f;
#X connect 1 0 4 0;
#X connect 2 0 11 0;
#X connect 2 0 16 1;
#X connect 4 0 7 0;
#X connect 4 1 17 0;
#X connect 7 0 8 0;
#X connect 8 0 9 0;
#X connect 8 0 7 1;
#X connect 8 0 13 0;
#X connect 9 0 6 0;
#X connect 10 0 11 0;
#X connect 11 0 15 0;
#X connect 11 0 16 0;
#X connect 13 0 10 0;
#X connect 13 0 14 1;
#X connect 13 0 15 1;
#X connect 14 0 12 0;
#X connect 15 0 7 0;
#X connect 16 0 14 0;
#X connect 17 0 12 0;
#X connect 17 1 11 0;
#X connect 17 2 16 1;
