#N canvas 0 29 800 849 10;
#X obj 188 54 inlet;
#X msg 238 114 add2 \$1;
#X obj 213 215 list-splat -1;
#X obj 250 270 outlet;
#X obj 192 245 loadbang;
#X obj 192 264 f \$1;
#X obj 192 346 * -1;
#X obj 135 365 list-splat;
#X text 370 97 first argument \, if nonzero \, is the maximum size
of the stack (earliest elements are erased first).;
#X obj 192 327 - 1;
#X obj 188 73 route bang float symbol;
#X obj 323 92 symbol;
#X obj 163 433 prepent set;
#X obj 192 283 sel 0;
#X msg 213 136 list;
#X text 370 125 outputs bang if there is nothing left on the stack.
;
#X msg 115 185 set list;
#X obj 163 394 route bang;
#X text 370 68 stack - last in first out stack. send a bang to pop
or an item to push.;
#X connect 0 0 10 0;
#X connect 1 0 14 0;
#X connect 2 0 7 0;
#X connect 2 1 3 0;
#X connect 2 2 3 0;
#X connect 4 0 5 0;
#X connect 4 0 16 0;
#X connect 5 0 13 0;
#X connect 6 0 7 1;
#X connect 7 1 17 0;
#X connect 7 2 17 0;
#X connect 9 0 6 0;
#X connect 10 0 14 0;
#X connect 10 1 1 0;
#X connect 10 2 1 0;
#X connect 10 3 11 0;
#X connect 11 0 1 0;
#X connect 12 0 14 0;
#X connect 13 1 9 0;
#X connect 14 0 2 0;
#X connect 16 0 14 0;
#X connect 17 0 16 0;
#X connect 17 1 12 0;
