#N canvas 0 468 800 410 10;
#X obj 188 54 inlet;
#X msg 238 94 add2 \$1;
#X obj 213 215 list-splat -1;
#X obj 163 350 prepent set;
#X obj 235 321 f;
#X msg 269 304 0;
#X obj 188 94 t b b b;
#X obj 235 340 outlet;
#X text 350 125 outputs 0 if there is nothing left on the stack.;
#X text 350 68 stack - last in first out stack. send a bang to pop
or a float to push.;
#X obj 188 73 route bang float;
#X obj 192 245 loadbang;
#X obj 192 264 f \$1;
#X obj 192 302 * -1;
#X obj 135 321 list-splat;
#X text 350 97 first argument \, if nonzero \, is the maximum size
of the stack (earliest elements are erased first).;
#X msg 213 136;
#X obj 192 283 - 1;
#X connect 0 0 10 0;
#X connect 1 0 16 0;
#X connect 2 0 14 0;
#X connect 2 1 4 1;
#X connect 3 0 16 0;
#X connect 4 0 7 0;
#X connect 5 0 4 1;
#X connect 6 0 4 0;
#X connect 6 1 16 0;
#X connect 6 2 5 0;
#X connect 10 0 6 0;
#X connect 10 1 1 0;
#X connect 11 0 12 0;
#X connect 12 0 17 0;
#X connect 13 0 14 1;
#X connect 14 1 3 0;
#X connect 14 2 3 0;
#X connect 16 0 2 0;
#X connect 17 0 13 0;
