#N canvas 800 29 800 849 10;
#X obj 152 100 bng 15 250 50 0 empty empty empty 17 7 0 10 -262144
-1 -1;
#X obj 152 123 t b b;
#X obj 145 202 moses 3000;
#X floatatom 145 221 5 0 0 0 - - -;
#X msg 172 258 add2 \$1;
#X obj 184 321 list length;
#X obj 184 449 >= 4;
#X obj 151 468 spigot;
#X obj 238 352 > 4;
#X obj 205 371 spigot;
#X obj 205 409 list prepend set;
#X obj 205 390 list-delete 0 1;
#X obj 145 239 t b f;
#X obj 205 428 list trim;
#X msg 145 283 2605.13 603.688 673.607 580.323;
#X obj 145 302 t a a a;
#X obj 151 487 unpack f f f f;
#X floatatom 122 531 5 0 0 1 time_between_bangs - -;
#X obj 122 512 expr ($f1+$f2+$f3+$f4)/16;
#X obj 145 183 realtime;
#X floatatom 122 568 5 0 0 1 detected_bpm - -;
#X obj 122 549 expr (60000/$f1)/4;
#X obj 152 82 inlet;
#X obj 122 601 outlet;
#X connect 0 0 1 0;
#X connect 1 0 19 0;
#X connect 1 1 19 1;
#X connect 2 0 3 0;
#X connect 3 0 12 0;
#X connect 4 0 14 0;
#X connect 5 0 6 0;
#X connect 5 0 8 0;
#X connect 6 0 7 1;
#X connect 7 0 16 0;
#X connect 8 0 9 1;
#X connect 9 0 11 0;
#X connect 10 0 13 0;
#X connect 11 0 10 0;
#X connect 12 0 14 0;
#X connect 12 1 4 0;
#X connect 13 0 14 0;
#X connect 14 0 15 0;
#X connect 15 0 7 0;
#X connect 15 1 9 0;
#X connect 15 2 5 0;
#X connect 16 0 18 0;
#X connect 16 1 18 1;
#X connect 16 2 18 2;
#X connect 16 3 18 3;
#X connect 17 0 21 0;
#X connect 18 0 17 0;
#X connect 19 0 2 0;
#X connect 20 0 23 0;
#X connect 21 0 20 0;
#X connect 22 0 0 0;
#X coords 0 -1 1 1 67 15 1 100 100;
