#N canvas 1680 29 2560 1566 10;
#X obj 50 25 inlet~;
#X obj 188 50 inlet;
#X obj 50 197 outlet~;
#X obj 71 63 r table-length-\$0;
#X obj 50 140 *~ 0;
#N canvas 1680 29 800 871 parse-into-table 0;
#X obj 40 40 inlet;
#X obj 40 59 t a b;
#X obj 40 97 list-drip;
#N canvas 0 0 800 849 number-generator 0;
#X obj 40 11 inlet;
#X obj 40 314 outlet;
#X obj 40 30 route float;
#X obj 103 68 s2l ';
#X obj 103 87 unpack f f;
#X obj 103 125 -;
#X obj 103 144 /;
#X obj 145 193 f;
#X obj 40 295 accum;
#X obj 115 260 t b f;
#X obj 145 212 until;
#X obj 103 163 t b f;
#X obj 115 241 f;
#X obj 103 49 symbol;
#X connect 0 0 2 0;
#X connect 2 0 8 0;
#X connect 2 0 5 1;
#X connect 2 1 13 0;
#X connect 3 0 4 0;
#X connect 4 0 5 0;
#X connect 4 1 7 1;
#X connect 4 1 6 1;
#X connect 5 0 6 0;
#X connect 6 0 11 0;
#X connect 7 0 10 0;
#X connect 8 0 1 0;
#X connect 8 0 5 1;
#X connect 9 0 8 0;
#X connect 9 1 8 1;
#X connect 10 0 12 0;
#X connect 11 0 7 0;
#X connect 11 1 12 1;
#X connect 12 0 9 0;
#X connect 13 0 3 0;
#X restore 40 116 pd number-generator;
#X msg 40 135 add2 \$1;
#X obj 40 293 list-drip;
#X obj 40 173 t a a b;
#X obj 59 192 list length;
#X obj 79 250 s table-\$0;
#X msg 79 231 resize \$1;
#X obj 40 381 tabwrite table-\$0;
#X obj 40 312 t f b;
#X obj 139 362 kount;
#X msg 139 313 reset;
#X obj 59 269 s table-length-\$0;
#X msg 67 78 set 0;
#X obj 79 212 + 2;
#X floatatom 178 235 5 0 0 0 - - - 0;
#X msg 40 154;
#X connect 0 0 1 0;
#X connect 1 0 2 0;
#X connect 1 1 15 0;
#X connect 2 0 3 0;
#X connect 2 1 18 0;
#X connect 3 0 4 0;
#X connect 4 0 18 0;
#X connect 5 0 11 0;
#X connect 6 0 5 0;
#X connect 6 1 7 0;
#X connect 6 2 13 0;
#X connect 7 0 14 0;
#X connect 7 0 16 0;
#X connect 7 0 17 0;
#X connect 9 0 8 0;
#X connect 11 0 10 0;
#X connect 11 1 12 0;
#X connect 12 0 10 1;
#X connect 13 0 12 0;
#X connect 15 0 18 0;
#X connect 16 0 9 0;
#X connect 18 0 6 0;
#X restore 188 109 pd parse-into-table;
#X obj 50 178 tabread4~ table-\$0;
#X obj 188 128 table table-\$0;
#X obj 188 90 list;
#X obj 50 159 +~ 1;
#X text 349 148 td - table drawer. use messages to draw a table. accepts args like map does. blah blah. it's not finished yet. fix this later.;
#X obj 50 44 phasor~;
#X floatatom 71 82 5 0 0 0 - - - 0;
#X obj 95 110 - 2;
#X obj 225 50 pdcontrol;
#X obj 225 10 loadbang;
#X msg 225 30 args;
#X connect 0 0 11 0;
#X connect 1 0 8 0;
#X connect 3 0 12 0;
#X connect 3 0 13 0;
#X connect 4 0 9 0;
#X connect 6 0 2 0;
#X connect 8 0 5 0;
#X connect 9 0 6 0;
#X connect 11 0 4 0;
#X connect 13 0 4 1;
#X connect 14 0 8 0;
#X connect 15 0 16 0;
#X connect 16 0 14 0;
