#N canvas 0 0 800 849 10;
#X obj 50 43 inlet~;
#X obj 188 50 inlet;
#X obj 50 177 outlet~;
#X obj 71 62 r table-length-\$0;
#X obj 50 100 *~ 0;
#N canvas 0 0 800 849 parse-into-table 0;
#X obj 40 40 inlet;
#X obj 40 59 t a b;
#X obj 40 97 list-drip;
#N canvas 0 0 800 849 number-generator 0;
#X obj 40 11 inlet;
#X obj 40 314 outlet;
#X obj 40 30 route float;
#X obj 103 68 s2l ';
#X obj 103 87 unpack f f;
#X obj 103 125 -;
#X obj 103 144 /;
#X obj 145 193 f;
#X obj 40 295 accum;
#X obj 115 260 t b f;
#X obj 145 212 until;
#X obj 103 163 t b f;
#X obj 115 241 f;
#X obj 103 49 symbol;
#X connect 0 0 2 0;
#X connect 2 0 8 0;
#X connect 2 0 5 1;
#X connect 2 1 13 0;
#X connect 3 0 4 0;
#X connect 4 0 5 0;
#X connect 4 1 7 1;
#X connect 4 1 6 1;
#X connect 5 0 6 0;
#X connect 6 0 11 0;
#X connect 7 0 10 0;
#X connect 8 0 1 0;
#X connect 8 0 5 1;
#X connect 9 0 8 0;
#X connect 9 1 8 1;
#X connect 10 0 12 0;
#X connect 11 0 7 0;
#X connect 11 1 12 1;
#X connect 12 0 9 0;
#X connect 13 0 3 0;
#X restore 40 116 pd number-generator;
#X msg 40 135 add2 \$1;
#X obj 40 293 list-drip;
#X obj 40 173 t a a b;
#X obj 59 192 list length;
#X obj 79 250 s table-\$0;
#X msg 79 231 resize \$1;
#X obj 40 381 tabwrite table-\$0;
#X obj 40 312 t f b;
#X obj 139 362 kount;
#X msg 139 313 reset;
#X obj 59 269 s table-length-\$0;
#X msg 67 78 set 0;
#X obj 79 212 + 2;
#X msg 40 154 0 -1 -0.966667 -0.933333 -0.9 -0.866667 -0.833333 -0.8
-0.766666 -0.733333 -0.7 -0.666666 -0.633333 -0.6 -0.566666 -0.533333
-0.5 -0.466666 -0.433333 -0.4 -0.366666 -0.333333 -0.3 -0.266666 -0.233333
-0.2 -0.166666 -0.133333 -0.0999996 -0.0666663 -0.033333 3.65078e-07
3.52909e-07 3.4074e-07 3.28571e-07 3.16401e-07 3.04232e-07 2.92063e-07
2.79893e-07 2.67724e-07 2.55555e-07 2.43386e-07 2.31216e-07 2.19047e-07
2.06878e-07 1.94708e-07 1.82539e-07 1.7037e-07 1.58201e-07 1.46031e-07
1.33862e-07 1.21693e-07 1.09523e-07 9.73541e-08 8.51849e-08 7.30156e-08
6.08463e-08 4.8677e-08 3.65077e-08 2.43384e-08 1.21692e-08 -1.15463e-13
0.0333333 0.0666667 0.1 0.133333 0.166667 0.2 0.233333 0.266667 0.3
0.333333 0.366667 0.4 0.433333 0.466667 0.5 0.533333 0.566667 0.6 0.633333
0.666667 0.7 0.733334 0.766667 0.8 0.833334 0.866667 0.9 0.933334 0.966667
1 0.966667 0.933334 0.9 0.866667 0.833334 0.8 0.766667 0.733333 0.7
0.666667 0.633333 0.6 0.566667 0.533333 0.5 0.466667 0.433333 0.4 0.366666
0.333333 0.3 0.266666 0.233333 0.2 0.166666 0.133333 0.0999997 0.0666663
0.033333 -3.57628e-07 -3.45707e-07 -3.33786e-07 -3.21865e-07 -3.09944e-07
-2.98023e-07 -2.86102e-07 -2.74181e-07 -2.62261e-07 -2.5034e-07 -2.38419e-07
-2.26498e-07 -2.14577e-07 -2.02656e-07 -1.90735e-07 -1.78814e-07 -1.66893e-07
-1.54972e-07 -1.43051e-07 -1.3113e-07 -1.19209e-07 -1.07288e-07 -9.53675e-08
-8.34466e-08 -7.15256e-08 -5.96047e-08 -4.76838e-08 -3.57629e-08 -2.38419e-08
-1.1921e-08 -7.28306e-14 -0.0333333 -0.0666667 -0.1 -0.133333 -0.166667
-0.2 -0.233333 -0.266667 -0.3 -0.333333 -0.366667 -0.4 -0.433333 -0.466667
-0.5 -0.533333 -0.566667 -0.6 -0.633333 -0.666667 -0.7 -0.733334 -0.766667
-0.8 -0.833334 -0.866667 -0.9 -0.933334 -0.966667 -1;
#X floatatom 178 235 5 0 0 0 - - -;
#X connect 0 0 1 0;
#X connect 1 0 2 0;
#X connect 1 1 15 0;
#X connect 2 0 3 0;
#X connect 2 1 17 0;
#X connect 3 0 4 0;
#X connect 4 0 17 0;
#X connect 5 0 11 0;
#X connect 6 0 5 0;
#X connect 6 1 7 0;
#X connect 6 2 13 0;
#X connect 7 0 14 0;
#X connect 7 0 16 0;
#X connect 7 0 18 0;
#X connect 9 0 8 0;
#X connect 11 0 10 0;
#X connect 11 1 12 0;
#X connect 12 0 10 1;
#X connect 13 0 12 0;
#X connect 15 0 17 0;
#X connect 16 0 9 0;
#X connect 17 0 6 0;
#X restore 188 109 pd parse-into-table;
#X obj 50 158 tabread4~ table-\$0;
#X obj 188 128 table table-\$0;
#X obj 229 42 lb 0;
#X obj 229 61 dollarg;
#X obj 188 90 list;
#X obj 50 119 +~ 1;
#X obj 71 81 - 1;
#X obj 35 142 sig~;
#X floatatom 21 122 5 0 0 0 - - -;
#X floatatom 19 68 5 0 0 0 - - -;
#X obj 90 120 unsig~;
#X floatatom 140 136 5 0 0 0 - - -;
#X text 349 148 td - table drawer. use messages to draw a table. accepts
args like map does. blah blah. it's not finished yet. fix this later.
;
#X connect 0 0 4 0;
#X connect 1 0 10 0;
#X connect 3 0 12 0;
#X connect 4 0 11 0;
#X connect 6 0 2 0;
#X connect 8 0 9 0;
#X connect 9 0 10 0;
#X connect 10 0 5 0;
#X connect 11 0 16 0;
#X connect 12 0 4 1;
#X connect 13 0 6 0;
#X connect 14 0 13 0;
#X connect 16 0 17 0;
