#N canvas 0 0 2560 1566 10;
#X obj 479 368 list-idx;
#X obj 602 223 list length;
#X obj 524 349 %;
#X obj 479 349 l;
#X obj 407 124 inlet;
#X obj 445 298 t b f;
#X obj 479 543 outlet;
#X obj 581 162 inlet;
#X obj 486 162 t b a;
#X obj 575 204 t a a;
#X obj 575 185 list;
#X obj 407 143 route bang float list reset;
#X msg 526 189 reset;
#X text 84 158 tmap - timed map;
#X text 56 185 good for short arpeggios \, etc.;
#X obj 407 273 kount;
#X msg 407 162 0;
#N canvas 0 0 800 849 parse 0;
#X obj 143 37 inlet;
#X obj 147 287 outlet;
#X obj 170 95 chars;
#X obj 170 114 list-idx 0;
#X obj 189 287 outlet;
#X obj 143 76 t a a;
#X obj 170 133 sel ~ @;
#X obj 147 215 router;
#X msg 170 159 1;
#X msg 209 159 0;
#X obj 170 251 s2l ~;
#X obj 170 232 symbol;
#X connect 0 0 5 0;
#X connect 2 0 3 0;
#X connect 3 0 6 0;
#X connect 5 0 7 0;
#X connect 5 1 2 0;
#X connect 6 0 8 0;
#X connect 6 1 4 0;
#X connect 6 1 8 0;
#X connect 6 2 9 0;
#X connect 7 0 1 0;
#X connect 7 1 11 0;
#X connect 8 0 7 1;
#X connect 9 0 7 1;
#X connect 10 0 4 0;
#X connect 11 0 10 0;
#X restore 479 387 pd parse;
#X obj 516 455 f;
#X obj 516 474 del;
#X text 29 214 autoplays thru the whole list. if the first character of an item is ~ (the tilde) \, the delay is set to the number following it and the next step is immediately processed. if the step is just an @ \, the sequence halts.;
#X obj 479 455 t a b;
#X obj 531 411 route float bang;
#X obj 531 430 t b f;
#X obj 479 493 route float symbol list;
#X obj 614 512 symbol;
#X obj 575 143 pdcontrol;
#X obj 575 103 loadbang;
#X msg 575 123 args;
#X connect 0 0 17 0;
#X connect 1 0 2 1;
#X connect 1 0 15 1;
#X connect 2 0 0 1;
#X connect 3 0 0 0;
#X connect 4 0 11 0;
#X connect 5 0 3 0;
#X connect 5 1 2 0;
#X connect 7 0 10 0;
#X connect 8 0 15 0;
#X connect 8 1 10 0;
#X connect 9 0 3 1;
#X connect 9 1 1 0;
#X connect 10 0 9 0;
#X connect 11 0 16 0;
#X connect 11 1 15 0;
#X connect 11 2 8 0;
#X connect 11 3 12 0;
#X connect 12 0 15 0;
#X connect 15 0 5 0;
#X connect 16 0 15 0;
#X connect 17 0 21 0;
#X connect 17 1 22 0;
#X connect 18 0 19 0;
#X connect 19 0 15 0;
#X connect 21 0 24 0;
#X connect 21 1 18 0;
#X connect 22 0 23 0;
#X connect 23 0 15 0;
#X connect 23 1 18 1;
#X connect 24 0 6 0;
#X connect 24 1 6 0;
#X connect 24 2 6 0;
#X connect 24 3 25 0;
#X connect 25 0 6 0;
#X connect 26 0 10 0;
#X connect 27 0 28 0;
#X connect 28 0 26 0;
