#N canvas 0 0 1600 849 10;
#X obj 50 113 cnv 9 24 9 empty \$0-rn0    0 0 4 0 10 -241291 -1 0;
#X obj 50 123 cnv 9 24 9 empty \$0-rn1 empty 0 4 0 10 -1 -262144 0
;
#X obj 50 133 cnv 9 24 9 empty \$0-rn2 empty 0 4 0 10 -1 -262144 0
;
#X obj 50 143 cnv 9 24 9 empty \$0-rn3 empty 0 4 0 10 -1 -262144 0
;
#X obj 50 153 cnv 9 24 9 empty \$0-rn4 empty 0 4 0 10 -1 -262144 0
;
#X obj 50 163 cnv 9 24 9 empty \$0-rn5 empty 0 4 0 10 -1 -262144 0
;
#X obj 50 173 cnv 9 24 9 empty \$0-rn6 empty 0 4 0 10 -1 -262144 0
;
#X obj 50 183 cnv 9 24 9 empty \$0-rn7 empty 0 4 0 10 -1 -262144 0
;
#X obj 50 193 cnv 9 24 9 empty \$0-rn8 empty 0 4 0 10 -1 -262144 0
;
#X obj 50 203 cnv 9 24 9 empty \$0-rn9 empty 0 4 0 10 -1 -262144 0
;
#X obj 50 213 cnv 9 24 9 empty \$0-rn10 empty 0 4 0 10 -1 -262144 0
;
#X obj 50 223 cnv 9 24 9 empty \$0-rn11 empty 0 4 0 10 -1 -262144 0
;
#X obj 50 233 cnv 9 24 9 empty \$0-rn12 empty 0 4 0 10 -1 -262144 0
;
#X obj 50 243 cnv 9 24 9 empty \$0-rn13 empty 0 4 0 10 -1 -262144 0
;
#X obj 50 253 cnv 9 24 9 empty \$0-rn14 empty 0 4 0 10 -1 -262144 0
;
#X obj 50 263 cnv 9 24 9 empty \$0-rn15 empty 0 4 0 10 -1 -262144 0
;
#X obj 75 113 cnv 9 240 9 empty \$0-r0 mbpm bang\, tsndcf .7 0 4 0
10 -258699 -1 0;
#X obj 75 123 cnv 9 240 9 empty \$0-r1 empty 0 4 0 10 -143491 -262144
0;
#X obj 75 133 cnv 9 240 9 empty \$0-r2 empty 0 4 0 10 -143491 -262144
0;
#X obj 75 143 cnv 9 240 9 empty \$0-r3 empty 0 4 0 10 -143491 -262144
0;
#X obj 75 153 cnv 9 240 9 empty \$0-r4 empty 0 4 0 10 -143491 -262144
0;
#X obj 75 163 cnv 9 240 9 empty \$0-r5 empty 0 4 0 10 -143491 -262144
0;
#X obj 75 173 cnv 9 240 9 empty \$0-r6 empty 0 4 0 10 -143491 -262144
0;
#X obj 75 183 cnv 9 240 9 empty \$0-r7 empty 0 4 0 10 -143491 -262144
0;
#X obj 75 193 cnv 9 240 9 empty \$0-r8 empty 0 4 0 10 -143491 -262144
0;
#X obj 75 203 cnv 9 240 9 empty \$0-r9 empty 0 4 0 10 -143491 -262144
0;
#X obj 75 213 cnv 9 240 9 empty \$0-r10 empty 0 4 0 10 -143491 -262144
0;
#X obj 75 223 cnv 9 240 9 empty \$0-r11 empty 0 4 0 10 -143491 -262144
0;
#X obj 75 233 cnv 9 240 9 empty \$0-r12 empty 0 4 0 10 -143491 -262144
0;
#X obj 75 243 cnv 9 240 9 empty \$0-r13 empty 0 4 0 10 -143491 -262144
0;
#X obj 75 253 cnv 9 240 9 empty \$0-r14 empty 0 4 0 10 -143491 -262144
0;
#X obj 75 263 cnv 9 240 9 empty \$0-r15 empty 0 4 0 10 -143491 -262144
0;
#X obj 131 67 outlet;
#X obj 131 29 inlet;
#N canvas 0 0 800 410 parse-keys 0;
#X obj 200 177 prepent 0;
#N canvas 0 0 800 410 main-interface 0;
#X obj 168 10 inlet;
#X obj 168 29 symbol;
#N canvas 0 0 800 849 sel 0;
#X obj 168 227 inlet;
#X msg 168 252 -1;
#X msg 196 252 1;
#X obj 168 347 accum;
#X obj 168 316 t b f;
#X obj 213 290 r \$0-step-numbers-list;
#X obj 213 309 list length;
#X obj 213 328 - 1;
#X obj 168 366 clip 0 0;
#X obj 213 347 max 0;
#X msg 122 366 set \$1;
#X obj 209 706 pack f f \$0;
#X obj 213 666 t f f;
#X msg 209 725 \; \$3-r\$2 color 23 0 \; \$3-r\$1 color 13 22;
#X obj 168 480 -;
#X obj 215 385 r \$0-view-from-num;
#X obj 168 566 f;
#X obj 168 585 sel 0;
#X msg 168 604 0;
#X obj 100 301 r \$0-sel;
#X obj 215 404 t b f;
#X obj 310 554 f;
#X obj 310 573 sel 0;
#X msg 310 592 15;
#X obj 168 425 t f f;
#X obj 54 425 s \$0-selected-step;
#X obj 337 653 s \$0-set-view-from-num;
#X msg 195 604 u;
#X msg 337 592 d;
#X obj 297 683 s \$0-offset-selected-step;
#X obj 204 227 inlet;
#X obj 168 525 <= 0;
#X obj 204 525 >= 15;
#X obj 168 544 sel 1;
#X obj 204 544 sel 1;
#X obj 237 598 &&;
#X obj 256 575 == 0;
#X obj 226 575 == 0;
#X obj 168 499 t f f f;
#X obj 138 646 spigot 0;
#X obj 168 182 r \$0-sel-rel;
#X obj 168 201 sel u d;
#X connect 0 0 1 0;
#X connect 1 0 4 0;
#X connect 2 0 4 0;
#X connect 3 0 8 0;
#X connect 4 0 3 0;
#X connect 4 1 3 1;
#X connect 5 0 6 0;
#X connect 6 0 7 0;
#X connect 7 0 9 0;
#X connect 7 0 22 1;
#X connect 8 0 10 0;
#X connect 8 0 24 0;
#X connect 8 0 25 0;
#X connect 9 0 8 2;
#X connect 10 0 3 0;
#X connect 11 0 13 0;
#X connect 12 0 11 1;
#X connect 12 1 11 0;
#X connect 12 1 29 0;
#X connect 14 0 38 0;
#X connect 15 0 20 0;
#X connect 16 0 17 0;
#X connect 17 0 18 0;
#X connect 17 1 27 0;
#X connect 18 0 12 0;
#X connect 19 0 3 0;
#X connect 20 0 3 0;
#X connect 20 1 16 1;
#X connect 20 1 14 1;
#X connect 21 0 22 0;
#X connect 22 0 23 0;
#X connect 22 1 28 0;
#X connect 23 0 12 0;
#X connect 24 0 14 0;
#X connect 24 1 21 1;
#X connect 27 0 26 0;
#X connect 28 0 26 0;
#X connect 30 0 2 0;
#X connect 31 0 33 0;
#X connect 31 0 37 0;
#X connect 32 0 34 0;
#X connect 32 0 36 0;
#X connect 33 0 16 0;
#X connect 34 0 21 0;
#X connect 35 0 39 1;
#X connect 36 0 35 1;
#X connect 37 0 35 0;
#X connect 38 0 39 0;
#X connect 38 1 31 0;
#X connect 38 2 32 0;
#X connect 39 0 12 0;
#X connect 40 0 41 0;
#X connect 41 0 1 0;
#X connect 41 1 2 0;
#X restore 152 81 pd sel;
#N canvas 0 0 800 849 delete 0;
#X obj 249 210 inlet;
#X obj 285 210 r \$0-step-numbers-list;
#X obj 249 267 list-idx;
#X obj 249 248 list;
#X obj 294 248 r \$0-selected-step;
#X obj 249 229 bang;
#X obj 249 286 s \$0-delete-step;
#X floatatom 331 271 5 0 0 0 - - -;
#X connect 0 0 5 0;
#X connect 1 0 3 1;
#X connect 2 0 6 0;
#X connect 3 0 2 0;
#X connect 4 0 2 1;
#X connect 4 0 7 0;
#X connect 5 0 3 0;
#X restore 219 181 pd delete;
#N canvas 0 0 800 849 reset 0;
#X obj 40 40 inlet;
#X obj 40 78 s \$0-set-view-from-num;
#X obj 40 59 bang;
#X connect 0 0 2 0;
#X connect 2 0 1 0;
#X restore 237 162 pd reset;
#N canvas 0 0 1600 849 copy-one 0;
#X obj 40 40 inlet;
#X obj 129 164 s \$0-copy-list;
#X msg 129 145 list \$1;
#X obj 106 59 r \$0-selected-step;
#X obj 40 97 list-idx;
#X obj 40 72 list;
#X obj 40 164 s \$0-status;
#X msg 40 145 label copied.;
#X obj 40 116 t b a;
#X obj 76 40 r \$0-step-list;
#X connect 0 0 5 0;
#X connect 2 0 1 0;
#X connect 3 0 4 1;
#X connect 4 0 8 0;
#X connect 5 0 4 0;
#X connect 7 0 6 0;
#X connect 8 0 7 0;
#X connect 8 1 2 0;
#X connect 9 0 5 1;
#X restore 271 143 pd copy-one;
#N canvas 0 0 1600 849 paste 0;
#X obj 88 44 inlet;
#X obj 124 44 r \$0-copy-list;
#X obj 88 76 list;
#X obj 115 114 list-drip;
#X obj 187 114 r \$0-selected-step;
#X obj 202 133 r \$0-step-numbers-list;
#X obj 187 152 map;
#X msg 142 190 edit \$2 \$1;
#X obj 142 171 pack s f;
#X obj 142 209 s \$0-tracker;
#X obj 115 228 s \$0-sel;
#X obj 115 190 f;
#X obj 115 209 + 1;
#X obj 88 95 t b a;
#X obj 28 191 s \$0-status;
#X msg 28 172 label paste!;
#X obj 115 133 t b a;
#X connect 0 0 2 0;
#X connect 1 0 2 1;
#X connect 2 0 13 0;
#X connect 3 0 16 0;
#X connect 4 0 6 0;
#X connect 4 0 11 1;
#X connect 5 0 6 1;
#X connect 6 0 8 1;
#X connect 7 0 9 0;
#X connect 8 0 7 0;
#X connect 11 0 12 0;
#X connect 12 0 10 0;
#X connect 13 0 15 0;
#X connect 13 1 3 0;
#X connect 15 0 14 0;
#X connect 16 0 11 0;
#X connect 16 1 8 0;
#X restore 306 124 pd paste;
#X obj 254 269 s \$0-mode;
#X msg 202 200 2;
#X msg 254 200 3;
#X msg 289 199 4;
#X msg 323 199 1;
#N canvas 0 0 1600 849 erase 0;
#X obj 88 76 inlet;
#X obj 130 57 r \$0-selected-step;
#X obj 145 76 r \$0-step-numbers-list;
#X obj 130 95 map;
#X obj 115 152 s \$0-tracker;
#X obj 88 95 t b a;
#X obj 88 190 s \$0-status;
#X msg 88 171 label erase!;
#X msg 115 133 edit \$1 _;
#X obj 115 114 f;
#X connect 0 0 5 0;
#X connect 1 0 3 0;
#X connect 2 0 3 1;
#X connect 3 0 9 1;
#X connect 5 0 7 0;
#X connect 5 1 9 0;
#X connect 7 0 6 0;
#X connect 8 0 4 0;
#X connect 9 0 8 0;
#X restore 341 105 pd erase;
#X obj 168 48 sel Up Down i D r I c C p Return E a Q;
#N canvas 0 0 800 410 activate 0;
#X obj 40 40 inlet;
#X obj 76 40 r \$0-selected-step;
#X obj 40 116 f;
#X obj 40 135 s \$0-tracker;
#X obj 76 78 map;
#X obj 91 59 r \$0-step-numbers-list;
#X connect 0 0 2 0;
#X connect 1 0 4 0;
#X connect 2 0 3 0;
#X connect 4 0 2 1;
#X connect 5 0 4 1;
#X restore 358 86 pd activate;
#N canvas 0 0 800 410 quit 0;
#X obj 40 40 inlet;
#X obj 40 78 s \$0-tracker-mc;
#X msg 40 59 OFF;
#X connect 0 0 2 0;
#X connect 2 0 1 0;
#X restore 375 67 pd quit;
#X connect 0 0 1 0;
#X connect 1 0 13 0;
#X connect 8 0 7 0;
#X connect 9 0 7 0;
#X connect 10 0 7 0;
#X connect 11 0 7 0;
#X connect 13 0 2 0;
#X connect 13 1 2 1;
#X connect 13 2 8 0;
#X connect 13 3 3 0;
#X connect 13 4 4 0;
#X connect 13 5 9 0;
#X connect 13 6 5 0;
#X connect 13 7 10 0;
#X connect 13 8 6 0;
#X connect 13 9 11 0;
#X connect 13 10 12 0;
#X connect 13 11 14 0;
#X connect 13 12 15 0;
#X restore 200 291 pd main-interface;
#X msg 200 138 OFF;
#X msg 161 121 ON;
#X obj 241 119 symbol;
#N canvas 0 0 800 410 master 0;
#X obj 504 149 tgl 15 0 empty empty empty 17 7 0 10 -262144 -1 -1 0
1;
#X msg 490 125 1;
#X msg 520 125 0;
#X obj 551 125 unpack s f;
#X obj 551 144 outlet;
#X obj 504 236 pack \$0 s;
#X obj 504 166 sel 0 1;
#X msg 504 255 \; \$1-status label \$2 \, color 0 22;
#X obj 523 185 f \$0;
#X msg 523 204 \; \$1-status color 10 22;
#X obj 490 87 mc t';
#X obj 490 106 route ON OFF key name;
#X obj 490 68 loadbang;
#X obj 582 163 symbol;
#X obj 394 68 r \$0-tracker-mc;
#X connect 0 0 6 0;
#X connect 1 0 0 0;
#X connect 2 0 0 0;
#X connect 3 0 4 0;
#X connect 5 0 7 0;
#X connect 6 0 5 0;
#X connect 6 1 8 0;
#X connect 8 0 9 0;
#X connect 10 0 11 0;
#X connect 11 0 1 0;
#X connect 11 1 2 0;
#X connect 11 2 3 0;
#X connect 11 3 13 0;
#X connect 12 0 10 0;
#X connect 12 0 2 0;
#X connect 13 0 5 1;
#X connect 14 0 10 0;
#X restore 241 100 pd master;
#X obj 161 89 t b f b;
#X obj 161 70 r \$0-mode;
#N canvas 0 0 800 410 insert 0;
#X obj 157 0 inlet;
#X obj 190 387 s \$0-status;
#X msg 190 340 label insert:;
#X msg 140 320 label;
#X msg 245 309 label insert:\$1;
#X obj 404 124 t f f;
#X obj 412 143 r \$0-added-new;
#X obj 404 304 s \$0-new-step;
#X obj 458 186 ==;
#X obj 431 209 spigot;
#X obj 431 247 s \$0-tracker;
#X obj 412 162 t b f f;
#X obj 412 285 s \$0-mode;
#X msg 412 266 1;
#X obj 245 128 chars;
#X obj 272 166 list length;
#X obj 245 147 t a a;
#X obj 245 214 prepent;
#X obj 245 233 route 0 1;
#X obj 272 185 >= 5;
#X obj 270 252 list-delete 3 1;
#X obj 270 271 prepent set;
#X obj 245 290 l2s;
#X msg 269 290 symbol;
#X obj 315 290 loadbang;
#X msg 268 69 set;
#X obj 157 19 symbol;
#X obj 157 38 sel Escape ON OFF;
#X obj 157 88 s \$0-mode;
#X msg 157 69 0;
#X msg 431 228 view \$1;
#X obj 268 88 inputn;
#X obj 404 105 int;
#X connect 0 0 26 0;
#X connect 2 0 1 0;
#X connect 3 0 1 0;
#X connect 4 0 1 0;
#X connect 5 0 7 0;
#X connect 5 1 8 1;
#X connect 6 0 11 0;
#X connect 8 0 9 1;
#X connect 9 0 30 0;
#X connect 11 0 13 0;
#X connect 11 1 9 0;
#X connect 11 2 8 0;
#X connect 13 0 12 0;
#X connect 14 0 16 0;
#X connect 15 0 19 0;
#X connect 16 0 17 0;
#X connect 16 1 15 0;
#X connect 17 0 18 0;
#X connect 18 0 22 0;
#X connect 18 1 20 0;
#X connect 19 0 17 1;
#X connect 20 0 21 0;
#X connect 21 0 31 0;
#X connect 22 0 4 0;
#X connect 23 0 22 1;
#X connect 24 0 23 0;
#X connect 25 0 31 0;
#X connect 26 0 27 0;
#X connect 27 0 25 0;
#X connect 27 0 29 0;
#X connect 27 1 2 0;
#X connect 27 2 3 0;
#X connect 27 3 31 0;
#X connect 29 0 28 0;
#X connect 30 0 10 0;
#X connect 31 0 14 0;
#X connect 31 1 32 0;
#X connect 32 0 5 0;
#X restore 234 253 pd insert;
#N canvas 0 0 800 410 insert-many 0;
#X obj 167 0 inlet;
#X obj 200 387 s \$0-status;
#X msg 150 320 label;
#X obj 441 312 s \$0-new-step;
#X obj 255 128 chars;
#X obj 282 166 list length;
#X obj 255 147 t a a;
#X obj 255 214 prepent;
#X obj 255 233 route 0 1;
#X obj 280 271 prepent set;
#X obj 255 290 l2s;
#X msg 279 290 symbol;
#X obj 325 290 loadbang;
#X msg 278 69 set;
#X obj 167 19 symbol;
#X obj 167 38 sel Escape ON OFF;
#X obj 167 88 s \$0-mode;
#X msg 167 69 0;
#X obj 278 88 inputn;
#X msg 255 309 label i-rows:\$1;
#X msg 200 340 label i-rows:;
#X obj 282 185 >= 3;
#X obj 280 252 list-delete 1 1;
#X obj 441 143 until;
#X obj 477 162 r \$0-step-numbers-list;
#X obj 477 257 list-idx -1;
#X obj 477 276 + 1;
#X obj 414 350 s \$0-mode;
#X msg 414 331 0;
#X obj 504 200 list length;
#X obj 441 293 f;
#X obj 414 124 t b f;
#X obj 504 219 sel 0;
#X msg 504 238 0;
#X obj 477 181 t a a;
#X obj 414 105 int;
#X connect 0 0 14 0;
#X connect 2 0 1 0;
#X connect 4 0 6 0;
#X connect 5 0 21 0;
#X connect 6 0 7 0;
#X connect 6 1 5 0;
#X connect 7 0 8 0;
#X connect 8 0 10 0;
#X connect 8 1 22 0;
#X connect 9 0 18 0;
#X connect 10 0 19 0;
#X connect 11 0 10 1;
#X connect 12 0 11 0;
#X connect 13 0 18 0;
#X connect 14 0 15 0;
#X connect 15 0 13 0;
#X connect 15 0 17 0;
#X connect 15 1 20 0;
#X connect 15 2 2 0;
#X connect 15 3 18 0;
#X connect 17 0 16 0;
#X connect 18 0 4 0;
#X connect 18 1 35 0;
#X connect 19 0 1 0;
#X connect 20 0 1 0;
#X connect 21 0 7 1;
#X connect 22 0 9 0;
#X connect 23 0 30 0;
#X connect 24 0 34 0;
#X connect 25 0 26 0;
#X connect 26 0 30 1;
#X connect 28 0 27 0;
#X connect 29 0 32 0;
#X connect 30 0 3 0;
#X connect 31 0 28 0;
#X connect 31 1 23 0;
#X connect 32 0 33 0;
#X connect 33 0 30 1;
#X connect 34 0 25 0;
#X connect 34 1 29 0;
#X connect 35 0 31 0;
#X restore 252 234 pd insert-many;
#N canvas 800 0 1600 849 copy-many 0;
#X obj 167 10 inlet;
#X obj 200 437 s \$0-status;
#X obj 414 153 s \$0-mode;
#X obj 255 138 chars;
#X obj 282 176 list length;
#X obj 255 157 t a a;
#X obj 255 224 prepent;
#X obj 255 243 route 0 1;
#X obj 280 281 prepent set;
#X obj 255 300 l2s;
#X msg 279 300 symbol;
#X obj 325 300 loadbang;
#X msg 278 79 set;
#X obj 167 29 symbol;
#X obj 167 98 s \$0-mode;
#X msg 167 79 0;
#X msg 200 390 label c:;
#X msg 258 390 label c:\$1;
#X obj 278 98 input;
#X obj 167 48 sel Escape ON OFF;
#N canvas 0 0 1600 849 accepted 0;
#X obj 193 36 inlet;
#X obj 256 210 outlet;
#X obj 193 112 ftos;
#X obj 193 74 route float;
#X obj 193 55 fromsymbol;
#X obj 256 93 symbol;
#X msg 299 150 symbol BackSpace;
#X msg 256 131 symbol -;
#X obj 256 112 sel - BackSpace Return;
#X msg 342 169 symbol Return;
#X connect 0 0 4 0;
#X connect 2 0 1 0;
#X connect 3 0 2 0;
#X connect 3 1 5 0;
#X connect 4 0 3 0;
#X connect 5 0 8 0;
#X connect 6 0 1 0;
#X connect 7 0 1 0;
#X connect 8 0 7 0;
#X connect 8 1 6 0;
#X connect 8 2 9 0;
#X connect 9 0 1 0;
#X restore 278 60 pd accepted;
#X obj 282 195 >= 9;
#X obj 280 262 list-delete 7 1;
#X msg 414 134 0;
#X obj 441 172 s2l -;
#X msg 438 390 label need_range.;
#X obj 441 191 t a a;
#X obj 468 210 list length;
#X obj 468 229 == 2;
#X obj 468 333 sel 0;
#X obj 414 115 t b a;
#X obj 435 248 spigot;
#N canvas 0 0 800 849 make-copy-list 0;
#X obj 349 295 inlet;
#X obj 370 333 r \$0-step-numbers-list;
#X obj 349 352 list;
#X obj 349 634 outlet;
#X obj 349 615 list length;
#X obj 349 371 list-drip;
#X msg 349 573 add2 \$1;
#X obj 349 314 t b a b;
#X msg 349 596 list k127 _ _ _ s127;
#X obj 368 390 unpack f f;
#X obj 349 455 spigot;
#X obj 382 436 &&;
#X obj 397 417 <=;
#X obj 368 417 >=;
#X obj 421 615 s \$0-copy-list;
#X msg 440 438 reset;
#X msg 401 573 set list;
#X obj 415 499 r \$0-step-list;
#X obj 308 417 t b f f b;
#X obj 349 474 f;
#X obj 349 535 list-idx;
#X obj 349 493 t b f;
#X obj 349 516 list;
#X obj 349 554 symbol;
#X obj 440 457 kount;
#X connect 0 0 7 0;
#X connect 1 0 2 1;
#X connect 2 0 5 0;
#X connect 4 0 3 0;
#X connect 5 0 18 0;
#X connect 5 1 8 0;
#X connect 6 0 8 0;
#X connect 7 0 2 0;
#X connect 7 1 9 0;
#X connect 7 2 16 0;
#X connect 7 2 15 0;
#X connect 8 0 4 0;
#X connect 8 0 14 0;
#X connect 9 0 13 1;
#X connect 9 1 12 1;
#X connect 10 0 19 0;
#X connect 11 0 10 1;
#X connect 12 0 11 1;
#X connect 13 0 11 0;
#X connect 15 0 24 0;
#X connect 16 0 8 0;
#X connect 17 0 22 1;
#X connect 18 0 10 0;
#X connect 18 1 13 0;
#X connect 18 2 12 0;
#X connect 18 3 24 0;
#X connect 19 0 21 0;
#X connect 20 0 23 0;
#X connect 21 0 22 0;
#X connect 21 1 20 1;
#X connect 22 0 20 0;
#X connect 23 0 6 0;
#X connect 24 0 19 1;
#X restore 435 267 pd make-copy-list;
#X msg 329 390 label \$1_copied.;
#X msg 112 314 label;
#X connect 0 0 13 0;
#X connect 3 0 5 0;
#X connect 4 0 21 0;
#X connect 5 0 6 0;
#X connect 5 1 4 0;
#X connect 6 0 7 0;
#X connect 7 0 9 0;
#X connect 7 1 22 0;
#X connect 8 0 18 0;
#X connect 9 0 17 0;
#X connect 10 0 9 1;
#X connect 11 0 10 0;
#X connect 12 0 18 0;
#X connect 13 0 19 0;
#X connect 15 0 14 0;
#X connect 16 0 1 0;
#X connect 17 0 1 0;
#X connect 18 0 3 0;
#X connect 18 1 30 0;
#X connect 19 0 15 0;
#X connect 19 0 34 0;
#X connect 19 1 16 0;
#X connect 19 1 12 0;
#X connect 19 3 20 0;
#X connect 20 0 18 0;
#X connect 21 0 6 1;
#X connect 22 0 8 0;
#X connect 23 0 2 0;
#X connect 24 0 26 0;
#X connect 25 0 1 0;
#X connect 26 0 31 0;
#X connect 26 1 27 0;
#X connect 27 0 28 0;
#X connect 28 0 29 0;
#X connect 28 0 31 1;
#X connect 29 0 25 0;
#X connect 30 0 23 0;
#X connect 30 1 24 0;
#X connect 31 0 32 0;
#X connect 32 0 33 0;
#X connect 33 0 1 0;
#X connect 34 0 1 0;
#X restore 269 215 pd copy-many;
#X obj 200 196 route 0 1 2 3 4;
#X obj 131 70 lb 0;
#N canvas 0 0 800 849 edit-row 0;
#X obj 170 0 inlet;
#X obj 305 48 r \$0-step-list;
#X obj 329 67 r \$0-selected-step;
#X obj 284 86 list-idx;
#X obj 284 67 list;
#X obj 495 364 pack s f \$0;
#X msg 495 383 \; \$3-r\$2 label \$1;
#X obj 526 345 r \$0-offset-selected-step;
#X obj 495 326 l2s;
#X msg 519 326 symbol;
#X obj 565 326 loadbang;
#X obj 495 307 list-replace;
#X msg 495 288 ;
#X obj 495 269 t b a;
#X obj 495 250 l;
#X obj 502 226 t b f;
#X obj 269 187 inputd;
#X obj 284 155 prepent set;
#X obj 170 76 s \$0-mode;
#X msg 170 57 0;
#X obj 170 38 sel Escape ON OFF;
#X obj 234 353 r \$0-offset-selected-step;
#X obj 203 372 pack f f \$0;
#X msg 236 225 13;
#X msg 203 391 \; \$3-r\$2 color \$1 22;
#X msg 203 225 18;
#X obj 170 19 symbol;
#X msg 243 135 set;
#X obj 377 86 r \$0-step-numbers-list;
#X obj 356 124 list-idx;
#X obj 356 105 list;
#N canvas 0 0 800 849 update 0;
#X obj 40 40 inlet;
#X obj 116 40 inlet;
#X obj 77 126 prepent;
#X obj 77 145 s \$0-edit;
#X obj 40 59 t b a;
#X obj 40 164 s \$0-mode;
#X msg 40 145 0;
#X obj 77 86 emptysymbol;
#X msg 77 105 _;
#X connect 0 0 4 0;
#X connect 1 0 2 1;
#X connect 2 0 3 0;
#X connect 4 0 6 0;
#X connect 4 1 7 0;
#X connect 6 0 5 0;
#X connect 7 0 8 0;
#X connect 7 1 2 0;
#X connect 8 0 2 0;
#X restore 285 206 pd update;
#X obj 284 105 sel _;
#X obj 66 181 bang;
#X obj 66 200 s \$0-set-view-from-num;
#X msg 269 248 list;
#X obj 269 229 emptysymbol;
#N canvas 0 0 800 849 parse-for-label 0;
#X obj 354 112 list-drip;
#X obj 354 93 s2l;
#X msg 378 93 symbol;
#X obj 381 232 outlet;
#X msg 381 180 add2 \$1;
#X msg 381 213 list s l o p e b 0 . 5;
#X obj 354 55 t a b;
#X obj 354 36 inlet;
#X obj 354 74 symbol;
#X obj 408 55 loadbang;
#X obj 354 131 sel ;
#X obj 314 160 spacesym;
#X msg 442 143 set list;
#X connect 0 0 10 0;
#X connect 0 1 5 0;
#X connect 1 0 0 0;
#X connect 2 0 1 1;
#X connect 4 0 5 0;
#X connect 5 0 3 0;
#X connect 6 0 8 0;
#X connect 6 1 12 0;
#X connect 7 0 6 0;
#X connect 8 0 1 0;
#X connect 9 0 2 0;
#X connect 10 0 11 0;
#X connect 10 1 4 0;
#X connect 11 0 4 0;
#X connect 12 0 5 0;
#X restore 332 248 pd parse-for-label;
#X connect 0 0 26 0;
#X connect 1 0 4 1;
#X connect 2 0 3 1;
#X connect 2 0 29 1;
#X connect 3 0 32 0;
#X connect 4 0 3 0;
#X connect 5 0 6 0;
#X connect 7 0 5 1;
#X connect 8 0 5 0;
#X connect 9 0 8 1;
#X connect 10 0 9 0;
#X connect 11 0 8 0;
#X connect 12 0 11 0;
#X connect 13 0 12 0;
#X connect 13 1 11 2;
#X connect 14 0 13 0;
#X connect 15 0 14 0;
#X connect 15 1 11 1;
#X connect 16 0 36 0;
#X connect 16 1 31 0;
#X connect 16 2 15 0;
#X connect 17 0 16 0;
#X connect 19 0 18 0;
#X connect 20 0 19 0;
#X connect 20 1 25 0;
#X connect 20 1 4 0;
#X connect 20 1 30 0;
#X connect 20 2 23 0;
#X connect 20 2 27 0;
#X connect 20 2 33 0;
#X connect 20 3 16 0;
#X connect 21 0 22 1;
#X connect 22 0 24 0;
#X connect 23 0 22 0;
#X connect 25 0 22 0;
#X connect 26 0 20 0;
#X connect 27 0 16 0;
#X connect 28 0 30 1;
#X connect 29 0 31 1;
#X connect 30 0 29 0;
#X connect 32 0 27 0;
#X connect 32 1 17 0;
#X connect 33 0 34 0;
#X connect 35 0 14 0;
#X connect 36 0 35 0;
#X connect 36 1 37 0;
#X connect 37 0 14 0;
#X restore 217 272 pd edit-row;
#X connect 0 0 11 0;
#X connect 2 0 0 0;
#X connect 3 0 0 0;
#X connect 4 0 0 0;
#X connect 5 0 4 0;
#X connect 6 0 3 0;
#X connect 6 1 0 1;
#X connect 6 2 2 0;
#X connect 7 0 6 0;
#X connect 11 0 1 0;
#X connect 11 1 13 0;
#X connect 11 2 8 0;
#X connect 11 3 9 0;
#X connect 11 4 10 0;
#X connect 12 0 6 0;
#X restore 233 48 pd parse-keys;
#N canvas 0 0 1600 849 process-input 0;
#X obj 272 81 inlet;
#X obj 272 480 outlet;
#X obj 272 252 map;
#X obj 323 157 r \$0-step-numbers-list;
#X obj 272 271 f;
#X obj 164 328 s \$0-current-step;
#X obj 272 328 unmap;
#X obj 272 347 map;
#X obj 296 347 r \$0-step-list;
#X obj 272 461 list trim;
#N canvas 0 0 800 849 view 0;
#X obj 334 155 inlet;
#X obj 334 174 route float;
#X obj 361 193 r \$0-step-numbers-list;
#X obj 334 212 unmap;
#X obj 334 231 s \$0-sel;
#X obj 274 295 r \$0-deleted-num;
#X obj 274 314 bang;
#X obj 295 333 r \$0-set-view-from-num;
#X obj 295 352 route float bang u d;
#X obj 295 470 accum;
#X msg 249 489 set \$1;
#X obj 295 489 clip 0 0;
#X obj 349 489 max 0;
#X obj 349 470 - 16;
#X obj 349 432 r \$0-step-numbers-list;
#X obj 349 451 list length;
#X obj 331 408 t b f;
#X msg 331 378 -1;
#X msg 359 378 1;
#X obj 437 333 r \$0-added-new;
#X obj 452 352 r \$0-selected-step;
#X obj 437 371 <=;
#X obj 437 390 sel 1 0;
#N canvas 0 0 800 849 update-display 0;
#X obj 304 75 list;
#X obj 304 94 list split;
#X obj 332 162 route bang;
#X obj 404 380 pack s f \$0;
#X obj 389 181 t a a;
#X obj 416 200 list length;
#X obj 416 264 f;
#X obj 440 264 + 1;
#X obj 416 219 t b f;
#X obj 464 264 sel 16;
#X obj 416 245 until;
#X obj 497 283 t b f;
#X obj 356 245 t a b;
#X obj 356 264 list-drip;
#X obj 403 320 count 16;
#X msg 383 283 reset;
#X obj 336 295 t a b;
#X obj 316 37 t b f;
#X obj 316 18 max 0;
#X obj 325 56 r \$0-step-numbers-list;
#N canvas 0 0 800 410 parse-num-for-label 0;
#X obj 354 197 list-drip;
#X obj 354 103 s2l;
#X msg 378 103 symbol;
#X obj 354 367 outlet;
#X obj 354 348 l2s;
#X msg 354 276 add2 \$1;
#X msg 354 329       0;
#X msg 553 211 set;
#X obj 354 46 inlet;
#X obj 408 65 loadbang;
#X obj 354 141 t a a;
#X obj 381 160 list length;
#X obj 422 193 expr 4-$i1;
#X obj 422 212 until;
#X obj 354 122 list trim;
#X obj 354 84 ftos;
#X obj 354 65 t f b;
#X obj 422 231 spacesym;
#X connect 0 0 5 0;
#X connect 0 1 6 0;
#X connect 1 0 14 0;
#X connect 2 0 1 1;
#X connect 2 0 4 1;
#X connect 4 0 3 0;
#X connect 5 0 6 0;
#X connect 6 0 4 0;
#X connect 7 0 6 0;
#X connect 8 0 16 0;
#X connect 9 0 2 0;
#X connect 10 0 0 0;
#X connect 10 1 11 0;
#X connect 11 0 12 0;
#X connect 12 0 13 0;
#X connect 13 0 17 0;
#X connect 14 0 10 0;
#X connect 15 0 1 0;
#X connect 16 0 15 0;
#X connect 16 1 7 0;
#X connect 17 0 5 0;
#X restore 404 361 pd parse-num-for-label;
#X msg 404 399 \; \$3-rn\$2 label \$1;
#X obj 194 162 s \$0-visible-step-nums;
#X obj 332 113 list split 16;
#X msg 332 181 0;
#X msg 497 317 symbol;
#X obj 45 59 r \$0-step-list;
#X obj 24 78 list;
#X obj 24 97 list split;
#X obj 52 155 route bang;
#X obj 124 373 pack s f \$0;
#X msg 124 392 \; \$3-r\$2 label \$1;
#N canvas 0 0 800 849 parse-for-label 0;
#X obj 354 112 list-drip;
#X obj 354 93 s2l;
#X msg 378 93 symbol;
#X obj 381 281 outlet;
#X obj 381 262 l2s;
#X msg 381 180 add2 \$1;
#X msg 381 213 m b p m   b a n g \,   t s n d c f   . 7;
#X obj 354 55 t a b;
#X msg 442 143 set;
#X obj 354 36 inlet;
#X obj 354 74 symbol;
#X obj 408 55 loadbang;
#X obj 354 131 sel ;
#X obj 314 160 spacesym;
#X connect 0 0 12 0;
#X connect 0 1 6 0;
#X connect 1 0 0 0;
#X connect 2 0 1 1;
#X connect 2 0 4 1;
#X connect 4 0 3 0;
#X connect 5 0 6 0;
#X connect 6 0 4 0;
#X connect 7 0 10 0;
#X connect 7 1 8 0;
#X connect 8 0 6 0;
#X connect 9 0 7 0;
#X connect 10 0 1 0;
#X connect 11 0 2 0;
#X connect 12 0 13 0;
#X connect 12 1 5 0;
#X connect 13 0 5 0;
#X restore 124 354 pd parse-for-label;
#X obj 109 174 t a a;
#X obj 136 193 list length;
#X obj 136 257 f;
#X obj 160 257 + 1;
#X obj 136 212 t b f;
#X obj 184 257 sel 16;
#X obj 136 238 until;
#X obj 217 276 t b f;
#X msg 217 310 symbol;
#X obj 76 238 t a b;
#X obj 76 257 list-drip;
#X obj 123 313 count 16;
#X msg 103 276 reset;
#X obj 56 288 t a b;
#X msg 52 174 0;
#X obj 36 40 t b f;
#X obj 36 21 max 0;
#X obj 52 116 list split 16;
#X obj 196 -38 inlet;
#X connect 0 0 1 0;
#X connect 1 1 23 0;
#X connect 2 0 24 0;
#X connect 2 1 4 0;
#X connect 3 0 21 0;
#X connect 4 0 12 0;
#X connect 4 1 5 0;
#X connect 5 0 8 0;
#X connect 6 0 9 0;
#X connect 6 0 7 0;
#X connect 7 0 6 1;
#X connect 8 0 10 0;
#X connect 8 1 6 1;
#X connect 9 0 10 1;
#X connect 9 1 11 0;
#X connect 10 0 6 0;
#X connect 11 0 25 0;
#X connect 11 1 3 1;
#X connect 12 0 13 0;
#X connect 12 1 15 0;
#X connect 13 0 16 0;
#X connect 14 0 3 1;
#X connect 15 0 14 0;
#X connect 16 0 20 0;
#X connect 16 1 14 0;
#X connect 17 0 0 0;
#X connect 17 1 1 1;
#X connect 18 0 17 0;
#X connect 19 0 0 1;
#X connect 20 0 3 0;
#X connect 23 0 2 0;
#X connect 23 0 22 0;
#X connect 23 2 2 0;
#X connect 23 2 22 0;
#X connect 24 0 8 0;
#X connect 25 0 3 0;
#X connect 26 0 27 1;
#X connect 27 0 28 0;
#X connect 28 1 50 0;
#X connect 29 0 47 0;
#X connect 29 1 33 0;
#X connect 30 0 31 0;
#X connect 32 0 30 0;
#X connect 33 0 42 0;
#X connect 33 1 34 0;
#X connect 34 0 37 0;
#X connect 35 0 38 0;
#X connect 35 0 36 0;
#X connect 36 0 35 1;
#X connect 37 0 39 0;
#X connect 37 1 35 1;
#X connect 38 0 39 1;
#X connect 38 1 40 0;
#X connect 39 0 35 0;
#X connect 40 0 41 0;
#X connect 40 1 30 1;
#X connect 41 0 30 0;
#X connect 42 0 43 0;
#X connect 42 1 45 0;
#X connect 43 0 46 0;
#X connect 44 0 30 1;
#X connect 45 0 44 0;
#X connect 46 0 32 0;
#X connect 46 1 44 0;
#X connect 47 0 37 0;
#X connect 48 0 27 0;
#X connect 48 1 28 1;
#X connect 49 0 48 0;
#X connect 50 0 29 0;
#X connect 50 2 29 0;
#X connect 51 0 49 0;
#X connect 51 0 18 0;
#X restore 295 531 pd update-display;
#X obj 181 531 s \$0-view-from-num;
#X msg 437 409 d;
#X connect 0 0 1 0;
#X connect 1 0 3 0;
#X connect 2 0 3 1;
#X connect 3 0 4 0;
#X connect 3 0 8 0;
#X connect 5 0 6 0;
#X connect 6 0 8 0;
#X connect 7 0 8 0;
#X connect 8 0 9 0;
#X connect 8 1 9 0;
#X connect 8 2 17 0;
#X connect 8 3 18 0;
#X connect 9 0 11 0;
#X connect 10 0 9 0;
#X connect 11 0 10 0;
#X connect 11 0 23 0;
#X connect 11 0 24 0;
#X connect 12 0 11 2;
#X connect 13 0 12 0;
#X connect 14 0 15 0;
#X connect 15 0 13 0;
#X connect 16 0 9 0;
#X connect 16 1 9 1;
#X connect 17 0 16 0;
#X connect 18 0 16 0;
#X connect 19 0 21 0;
#X connect 20 0 21 1;
#X connect 21 0 22 0;
#X connect 22 0 25 0;
#X connect 22 1 8 0;
#X connect 25 0 8 0;
#X restore 343 138 pd view;
#X obj 308 81 r \$0-tracker;
#N canvas 0 0 800 849 edit 0;
#X obj 472 122 inlet;
#X obj 472 229 symbol;
#X obj 472 248 list-replace;
#X obj 472 267 t b a;
#X obj 499 286 s \$0-step-list;
#X obj 472 305 s \$0-set-view-from-num;
#X text 73 127 input is something like: [number] [symbol-for-step]
;
#X obj 472 103 r \$0-edit;
#X obj 472 141 list split 1;
#X obj 535 172 r \$0-step-numbers-list;
#X obj 472 191 list-find-1;
#X obj 541 229 r \$0-step-list;
#X obj 472 210 t b f;
#X connect 0 0 8 0;
#X connect 1 0 2 0;
#X connect 2 0 3 0;
#X connect 3 0 5 0;
#X connect 3 1 4 0;
#X connect 7 0 8 0;
#X connect 8 0 10 0;
#X connect 8 1 1 1;
#X connect 9 0 10 1;
#X connect 10 0 12 0;
#X connect 11 0 2 2;
#X connect 12 0 1 0;
#X connect 12 1 2 1;
#X restore 379 119 pd edit;
#N canvas 0 0 800 849 delete 0;
#X obj 283 129 r \$0-step-numbers-list;
#X obj 235 173 list;
#X obj 262 332 list-delete 0 1;
#X obj 235 245 list-find-1;
#X obj 235 192 t b a;
#X obj 235 226 f;
#X obj 185 144 t b f;
#X obj 262 351 s \$0-step-numbers-list;
#X obj 124 376 s \$0-step-list;
#X obj 262 302 list;
#X obj 262 283 t b f;
#X obj 124 357 list-delete 0 1;
#X obj 124 338 list;
#X obj 172 302 r \$0-step-list;
#X obj 99 395 s \$0-deleted-num;
#X obj 124 302 t f b f;
#X obj 235 264 t f f;
#X obj 158 47 inlet;
#X text 243 45 deletes one or more steps.;
#X obj 185 85 route float list;
#X obj 158 66 t b a;
#X obj 231 104 list split 1;
#X text -138 63 FIX THIS: maybe connect the bang to refresh the display
so it only happens after the list is completed.;
#X obj 158 28 r \$0-delete-step;
#X connect 0 0 1 1;
#X connect 0 0 9 1;
#X connect 1 0 4 0;
#X connect 2 0 7 0;
#X connect 3 0 16 0;
#X connect 4 0 5 0;
#X connect 4 1 3 1;
#X connect 5 0 3 0;
#X connect 6 0 1 0;
#X connect 6 1 5 1;
#X connect 9 0 2 0;
#X connect 10 0 9 0;
#X connect 10 1 2 1;
#X connect 11 0 8 0;
#X connect 12 0 11 0;
#X connect 13 0 12 1;
#X connect 15 0 14 0;
#X connect 15 1 12 0;
#X connect 15 2 11 1;
#X connect 16 0 15 0;
#X connect 16 1 10 0;
#X connect 17 0 20 0;
#X connect 19 0 6 0;
#X connect 19 1 21 0;
#X connect 20 1 19 0;
#X connect 21 0 6 0;
#X connect 21 1 19 0;
#X connect 23 0 20 0;
#X restore 450 119 pd delete;
#N canvas 0 0 800 849 insert 0;
#X obj 263 69 inlet;
#X text 298 69 inserts a new row.;
#X obj 179 69 r \$0-new-step;
#X obj 261 554 list-insert;
#X obj 261 592 s \$0-step-numbers-list;
#X obj 368 172 r \$0-step-numbers-list;
#X obj 338 231 list length;
#X obj 218 324 list-drip;
#X obj 218 343 >;
#X msg 218 362 add2 \$1;
#X msg 270 362 set;
#X obj 218 305 list;
#X msg 218 396 0 0 0;
#X obj 281 475 sel 0;
#X obj 218 415 t b a;
#X msg 218 437 1;
#X obj 218 456 list-find-1;
#X obj 281 494 f;
#X obj 281 513 t b f;
#X obj 261 535 f;
#X obj 356 573 s \$0-step-list;
#X obj 356 554 list-insert;
#X obj 419 535 r \$0-step-list;
#X msg 356 535 _;
#X text 403 329 makes a blank new step. the "blank" step is actually
just an underscore \, since it can't truly be blank in pure data...
;
#X obj 191 248 f;
#X obj 191 267 sel 0;
#X obj 218 286 bang;
#X obj 204 559 f;
#X obj 116 201 s \$0-added-new;
#X obj 179 182 t f f;
#X obj 254 201 list-find-1;
#X obj 191 229 spigot;
#X obj 206 201 t b f b;
#X msg 256 224 0;
#X msg 245 182 1;
#X obj 179 100 route float list;
#X obj 225 119 list split 1;
#X connect 0 0 36 0;
#X connect 2 0 36 0;
#X connect 3 0 4 0;
#X connect 5 0 6 0;
#X connect 5 0 11 1;
#X connect 5 0 3 2;
#X connect 5 0 31 1;
#X connect 6 0 17 1;
#X connect 6 0 25 1;
#X connect 7 0 8 0;
#X connect 7 1 12 0;
#X connect 8 0 9 0;
#X connect 9 0 12 0;
#X connect 10 0 12 0;
#X connect 11 0 7 0;
#X connect 12 0 14 0;
#X connect 13 0 17 0;
#X connect 14 0 15 0;
#X connect 14 1 16 1;
#X connect 15 0 16 0;
#X connect 16 0 17 0;
#X connect 16 1 13 0;
#X connect 17 0 18 0;
#X connect 18 0 19 0;
#X connect 18 0 23 0;
#X connect 18 1 3 1;
#X connect 18 1 21 1;
#X connect 19 0 3 0;
#X connect 21 0 20 0;
#X connect 22 0 21 2;
#X connect 23 0 21 0;
#X connect 25 0 26 0;
#X connect 26 0 28 0;
#X connect 26 1 27 0;
#X connect 27 0 11 0;
#X connect 28 0 4 0;
#X connect 28 0 23 0;
#X connect 30 0 29 0;
#X connect 30 1 33 0;
#X connect 31 0 34 0;
#X connect 32 0 25 0;
#X connect 33 0 32 0;
#X connect 33 1 8 1;
#X connect 33 1 10 0;
#X connect 33 1 19 1;
#X connect 33 1 28 1;
#X connect 33 1 31 0;
#X connect 33 2 35 0;
#X connect 34 0 32 1;
#X connect 35 0 32 1;
#X connect 36 0 30 0;
#X connect 36 1 37 0;
#X connect 37 0 30 0;
#X connect 37 1 36 0;
#X restore 414 138 pd insert;
#N canvas 0 0 800 849 highlight-current-step 0;
#X obj 327 216 inlet;
#X obj 346 235 r \$0-visible-step-nums;
#X obj 346 347 unmap;
#X obj 327 383 f;
#X obj 327 309 t b f b;
#X msg 366 366 16;
#X obj 327 442 pack f f \$0;
#X obj 327 402 t f f;
#X obj 327 290 f;
#X obj 346 254 t b a;
#X msg 327 461 \; \$3-rn\$2 color 22 0 \; \$3-rn\$1 color 15 22;
#X obj 524 365 cnv 9 60 9 empty \$0-rn16 unselected 0 4 0 10 -1 -262144
0;
#X text 413 301 highlights the current step. if it's not in the currently
displayed range \, it will highlight "step 16" which is the "unselected"
[cnv] below. don't delete it.;
#X connect 0 0 8 0;
#X connect 1 0 9 0;
#X connect 2 0 3 1;
#X connect 3 0 7 0;
#X connect 4 0 3 0;
#X connect 4 1 2 0;
#X connect 4 2 5 0;
#X connect 5 0 3 1;
#X connect 6 0 10 0;
#X connect 7 0 6 1;
#X connect 7 1 6 0;
#X connect 8 0 4 0;
#X connect 9 0 8 0;
#X connect 9 1 2 1;
#X restore 308 328 pd highlight-current-step;
#N canvas 0 0 800 849 mode 0;
#X obj 496 170 inlet;
#X restore 486 138 pd mode;
#X obj 272 442 s2l ;
#X obj 272 366 s2l \,;
#X obj 272 385 list-drip;
#X obj 272 404 route float;
#X obj 272 423 ftos;
#N canvas 0 0 1600 849 save 0;
#X obj 211 92 inlet;
#X obj 329 273 r \$0-step-numbers-list;
#X obj 386 292 r \$0-step-list;
#X obj 247 92 r \$0-save;
#X obj 211 164 emptysymbol;
#X msg 4 223 error: must provide a name to save to.;
#X obj 4 364 print tracker;
#X obj 308 330 list-drip2;
#X obj 308 292 list;
#X obj 236 437 textfile;
#X msg 325 202 clear;
#X msg 236 408 write /home/modula/misc/pd/saves/tracker-\$1;
#X msg 308 375 add \$1 \$2;
#X msg 16 242 saved to /home/modula/misc/pd/saves/tracker-\$1;
#X obj 274 183 t a a b b;
#X obj 365 311 list;
#X obj 308 233 t b b;
#X obj 308 356 pack f s;
#X obj 211 145 symbol \$1;
#X connect 0 0 18 0;
#X connect 1 0 8 1;
#X connect 2 0 15 1;
#X connect 3 0 18 0;
#X connect 4 0 5 0;
#X connect 4 1 14 0;
#X connect 5 0 6 0;
#X connect 7 0 17 0;
#X connect 7 1 17 1;
#X connect 8 0 7 0;
#X connect 10 0 9 0;
#X connect 11 0 9 0;
#X connect 12 0 9 0;
#X connect 13 0 6 0;
#X connect 14 0 13 0;
#X connect 14 1 11 0;
#X connect 14 2 16 0;
#X connect 14 3 10 0;
#X connect 15 0 7 1;
#X connect 16 0 8 0;
#X connect 16 1 15 0;
#X connect 17 0 12 0;
#X connect 18 0 4 0;
#X restore 521 194 pd save;
#X symbolatom 521 176 10 0 0 0 - - -;
#X obj 521 157 symbol;
#X symbolatom 557 232 10 0 0 0 - - -;
#X obj 557 213 symbol;
#N canvas 0 0 1600 849 load 0;
#X obj 211 92 inlet;
#X obj 211 164 emptysymbol;
#X obj 4 252 print tracker;
#X obj 273 287 textfile;
#X obj 211 145 symbol \$1;
#X msg 4 233 loaded from /home/modula/misc/pd/saves/tracker-\$1;
#X obj 291 268 until;
#X msg 308 202 clear \, read /home/modula/misc/pd/saves/tracker-\$1
\, rewind;
#X obj 273 306 unpack f s;
#X obj 274 183 t a b a b;
#X obj 233 372 s \$0-step-numbers-list;
#X obj 324 391 s \$0-step-list;
#X msg 325 353 mbpmbang\,tsndcf.7;
#X msg 325 221 set;
#X msg 233 353 0;
#X msg 330 325 add2 \$1;
#X msg 273 325 add2 \$1;
#X obj 4 290 s \$0-set-view-from-num;
#X obj 4 271 bang;
#X connect 0 0 4 0;
#X connect 1 1 9 0;
#X connect 3 0 8 0;
#X connect 3 1 6 1;
#X connect 3 1 12 0;
#X connect 3 1 14 0;
#X connect 4 0 1 0;
#X connect 5 0 2 0;
#X connect 5 0 18 0;
#X connect 6 0 3 0;
#X connect 7 0 3 0;
#X connect 8 0 16 0;
#X connect 8 1 15 0;
#X connect 9 0 5 0;
#X connect 9 1 6 0;
#X connect 9 2 7 0;
#X connect 9 3 13 0;
#X connect 12 0 11 0;
#X connect 13 0 12 0;
#X connect 13 0 14 0;
#X connect 14 0 10 0;
#X connect 15 0 12 0;
#X connect 16 0 14 0;
#X connect 18 0 17 0;
#X restore 557 278 pd load;
#X obj 344 187 list length;
#X obj 308 187 kount;
#X obj 272 187 unmap;
#X floatatom 238 277 5 0 0 0 - - -;
#N canvas 0 0 1600 849 loadbang 0;
#X obj 95 46 loadbang;
#X text 147 34 i've been having trouble with [cnv] randomly changing
back to its defaults when tracker loads. not sure what causes it so
i'll just reset them manually.;
#X obj 134 240 s;
#X msg 122 84 16;
#X obj 122 103 until;
#X obj 122 122 count 16;
#X obj 122 141 t b f;
#X obj 149 160 pack f \$0;
#X msg 149 179 symbol \$2-r\$1;
#X msg 122 198 vis_size 240 9 \, size 9 \, label_pos 0 4 \, label_font
0 10 \, label \, color 23 0;
#X msg 149 259 symbol \$2-rn\$1;
#X obj 134 307 s;
#X msg 122 278 label \, color 22 0;
#X obj 95 65 t b b;
#X obj 80 97 outlet;
#X connect 0 0 13 0;
#X connect 3 0 4 0;
#X connect 4 0 5 0;
#X connect 5 0 6 0;
#X connect 6 0 9 0;
#X connect 6 0 12 0;
#X connect 6 1 7 0;
#X connect 7 0 8 0;
#X connect 7 0 10 0;
#X connect 8 0 2 1;
#X connect 9 0 2 0;
#X connect 10 0 11 1;
#X connect 12 0 11 0;
#X connect 13 0 14 0;
#X connect 13 1 3 0;
#X restore 568 250 pd loadbang;
#X obj 272 100 route float bang view edit insert delete mode save load
step;
#X msg 593 119 set \$1;
#X connect 0 0 33 0;
#X connect 2 0 4 0;
#X connect 2 0 31 0;
#X connect 3 0 2 1;
#X connect 3 0 6 1;
#X connect 3 0 28 0;
#X connect 3 0 30 1;
#X connect 4 0 5 0;
#X connect 4 0 6 0;
#X connect 4 0 15 0;
#X connect 6 0 7 0;
#X connect 7 0 18 0;
#X connect 8 0 7 1;
#X connect 9 0 1 0;
#X connect 11 0 33 0;
#X connect 17 0 9 0;
#X connect 18 0 19 0;
#X connect 19 0 20 0;
#X connect 20 0 21 0;
#X connect 20 1 17 0;
#X connect 21 0 17 0;
#X connect 23 0 22 0;
#X connect 24 0 23 0;
#X connect 25 0 27 0;
#X connect 26 0 25 0;
#X connect 28 0 29 1;
#X connect 29 0 2 0;
#X connect 30 0 29 0;
#X connect 32 0 27 0;
#X connect 33 0 30 0;
#X connect 33 1 29 0;
#X connect 33 2 10 0;
#X connect 33 3 12 0;
#X connect 33 4 14 0;
#X connect 33 5 13 0;
#X connect 33 6 16 0;
#X connect 33 7 24 0;
#X connect 33 8 26 0;
#X connect 33 9 34 0;
#X connect 34 0 29 0;
#X restore 131 48 pd process-input;
#X text 93 279 each msg row is 40 characters wide.;
#X obj 249 101 cnv 11 65 11 empty \$0-status ta 0 5 0 10 -262144 -1
0;
#X text 371 163 keys for main mode:;
#X text 371 173 Up/Down - select row.;
#X text 371 183 Enter - edit selected row.;
#X text 371 193 i - insert a new row (asks for number).;
#X text 371 203 I - insert many rows (asks for the number of rows to
insert at the end of the pattern).;
#X text 371 232 c - copy selected row.;
#X text 371 242 C - copy many rows (asks for row range to copy).;
#X text 371 262 r - refresh tracker display (sometimes it may glitch
up. if this happens \, press ESC to return to main mode \, then r to
fix the display).;
#X text 371 290 ESC - return to main mode or cancel current operation.
;
#X text 371 222 D - delete a row (WARNING: does not ask for confirmation!).
;
#X text 93 302 status is 11 characters wide.;
#X text 371 252 p - paste row or rows (overwriting data).;
#X obj 236 100 bng 12 250 50 0 \$0-save empty sv 0 5 0 10 -258113 -1
-1;
#X text 371 300 a - activate row.;
#X text 371 320 E - erase row.;
#X text 371 310 Q - deselect the tracker ("Quit").;
#X text 370 78 tracker - a simple "tracker" for pure data.;
#N canvas 0 51 800 410 current-values 0;
#X obj 351 184 prepent set;
#X obj 351 29 r \$0-step-numbers-list;
#X obj 351 165 r \$0-step-list;
#X obj 351 48 prepent set;
#X msg 351 203 mbpmbang\,tsndcf.7;
#X msg 351 67 0;
#X obj 57 31 r \$0-current-step;
#X floatatom 57 50 5 0 0 0 - - -;
#X obj 57 68 r \$0-selected-step;
#X floatatom 57 87 5 0 0 0 - - -;
#X obj 57 105 r \$0-deleted-num;
#X text 90 124 number of the row that has just been deleted.;
#X floatatom 57 124 5 0 0 0 - - -;
#X connect 0 0 4 0;
#X connect 1 0 3 0;
#X connect 2 0 0 0;
#X connect 3 0 5 0;
#X connect 6 0 7 0;
#X connect 8 0 9 0;
#X connect 10 0 12 0;
#X restore 23 48 pd current-values;
#X text 371 97 tracker allows you to build a list of messages. it can
be controlled with messages sent to its inlet or via keypresses. the
tracker has two main modes: the main mode \, in which you can scroll
through the rows \, delete \, insert \, or switch to edit mode. edit
mode allows you to edit an individual row's text.;
#X connect 33 0 35 0;
#X connect 35 0 32 0;
#X coords 0 -1 1 1 265 174 1 50 100;
