#N canvas 1920 30 2560 1566 10;
#X obj 471 189 inlet;
#X obj 471 246 outlet;
#X obj 471 227 list-find;
#X obj 522 188 list trim;
#X obj 540 149 inlet;
#X text 133 189 unmap - map symbols received on the left inlet to their index in the list provided on the right inlet or as arguments.;
#X obj 522 265 any;
#X obj 471 208 t a a;
#X obj 522 284 outlet;
#X obj 522 246 sel 0;
#X obj 479 149 pdcontrol;
#X obj 479 109 loadbang;
#X msg 479 129 args;
#X connect 0 0 7 0;
#X connect 2 0 1 0;
#X connect 2 1 9 0;
#X connect 3 0 2 1;
#X connect 4 0 3 0;
#X connect 6 0 8 0;
#X connect 7 0 2 0;
#X connect 7 1 6 1;
#X connect 9 0 6 0;
#X connect 10 0 3 0;
#X connect 11 0 12 0;
#X connect 12 0 10 0;
