#N canvas 0 29 1920 1048 10;
#X obj 378 199 vsl 10 64 0 63 0 0 \$0-v0-s \$0-v0-r empty 0 -9 0 10 #14e814 #000000 #000000 0 1;
#X obj 388 199 vsl 10 64 0 63 0 0 \$0-v1-s \$0-v1-r empty 0 -9 0 10 #14e814 #fcfcfc #000000 0 1;
#X obj 398 199 vsl 10 64 0 63 0 0 \$0-v2-s \$0-v2-r empty 0 -9 0 10 #14e814 #000000 #000000 0 1;
#X obj 408 199 vsl 10 64 0 63 0 0 \$0-v3-s \$0-v3-r empty 0 -9 0 10 #14e814 #000000 #000000 0 1;
#X obj 418 199 vsl 10 64 0 63 0 0 \$0-v4-s \$0-v4-r empty 0 -9 0 10 #14e814 #000000 #000000 0 1;
#X obj 428 199 vsl 10 64 0 63 0 0 \$0-v5-s \$0-v5-r empty 0 -9 0 10 #14e814 #000000 #000000 0 1;
#X obj 438 199 vsl 10 64 0 63 0 0 \$0-v6-s \$0-v6-r empty 0 -9 0 10 #14e814 #000000 #000000 0 1;
#X obj 448 199 vsl 10 64 0 63 0 0 \$0-v7-s \$0-v7-r empty 0 -9 0 10 #14e814 #000000 #000000 0 1;
#X obj 176 321 outlet;
#X obj 158 489 tabwrite \$0-t;
#X obj 158 454 unpack f f;
#X msg 158 435 \$2 \$1;
#X obj 176 283 tabread \$0-t;
#X obj 535 458 table \$0-t 16;
#X obj 176 226 t f f;
#X obj 176 302 spigot;
#X obj 203 264 tabread \$0-t;
#X obj 203 245 + 8;
#N canvas 0 29 1920 1048 double-click 0;
#X obj 183 116 inlet;
#X obj 202 337 timer;
#X obj 169 375 spigot;
#X obj 202 356 < 200;
#X obj 183 135 t a b b;
#X obj 101 170 unpack f f;
#X obj 158 203 t f f;
#X obj 164 241 ==;
#X obj 103 237 ==;
#X obj 128 279 &&;
#X obj 128 298 sel 1;
#X obj 128 317 f;
#X obj 101 203 t f f f;
#X obj 169 394 + 8;
#X obj 188 447 tabread \$0-t;
#X obj 188 466 == 0;
#X obj 188 485 tabwrite \$0-t;
#X obj 169 413 t b f f;
#X obj 169 523 until;
#X msg 169 504 8;
#X obj 169 542 count 8;
#X obj 169 580 + 8;
#X obj 169 599 tabread \$0-t;
#X obj 169 637 * 3;
#X obj 169 656 + 13;
#X obj 169 561 t f f;
#X obj 169 675 pack f f f \$0;
#X msg 169 694 \; \$4-v\$2-r color \$1 \$3 22;
#X obj 219 656 * 22;
#X obj 219 637 !=;
#X obj 284 548 r \$0-cur;
#X obj 284 567 t b f;
#X connect 0 0 4 0;
#X connect 1 0 3 0;
#X connect 2 0 13 0;
#X connect 3 0 2 1;
#X connect 4 0 5 0;
#X connect 4 1 1 0;
#X connect 4 2 1 1;
#X connect 5 0 12 0;
#X connect 5 1 6 0;
#X connect 6 0 7 1;
#X connect 6 1 7 0;
#X connect 7 0 9 1;
#X connect 8 0 9 0;
#X connect 9 0 10 0;
#X connect 10 0 11 0;
#X connect 11 0 2 0;
#X connect 12 0 8 1;
#X connect 12 1 8 0;
#X connect 12 2 11 1;
#X connect 13 0 17 0;
#X connect 14 0 15 0;
#X connect 15 0 16 0;
#X connect 17 0 19 0;
#X connect 17 1 14 0;
#X connect 17 2 16 1;
#X connect 18 0 20 0;
#X connect 19 0 18 0;
#X connect 20 0 25 0;
#X connect 21 0 22 0;
#X connect 22 0 23 0;
#X connect 23 0 24 0;
#X connect 24 0 26 0;
#X connect 25 0 21 0;
#X connect 25 1 26 1;
#X connect 25 1 29 0;
#X connect 26 0 27 0;
#X connect 28 0 26 2;
#X connect 29 0 28 0;
#X connect 30 0 31 0;
#X connect 31 0 19 0;
#X connect 31 1 29 1;
#X restore 199 416 pd double-click;
#N canvas 0 29 1600 849 begin 0;
#X obj 306 212 loadbang;
#X msg 306 230 8;
#X obj 306 249 until;
#X obj 306 268 count 8;
#X obj 255 336 + 8;
#X obj 255 355 t b f;
#X obj 255 420 tabwrite \$0-t;
#X msg 255 401 1;
#X obj 339 318 t b f;
#X obj 339 356 pack f f \$0;
#X msg 339 375 \; \$3-v\$2-r \$1;
#X obj 339 337 random 64;
#X connect 0 0 1 0;
#X connect 1 0 2 0;
#X connect 2 0 3 0;
#X connect 3 0 4 0;
#X connect 3 0 8 0;
#X connect 4 0 5 0;
#X connect 5 0 7 0;
#X connect 5 1 6 1;
#X connect 7 0 6 0;
#X connect 8 0 11 0;
#X connect 8 1 9 1;
#X connect 9 0 10 0;
#X connect 11 0 9 0;
#X restore 338 92 pd begin;
#X obj 135 129 inlet;
#X obj 135 148 route bang float list;
#X obj 118 182 count 8;
#X obj 85 265 s \$0-cur;
#N canvas 0 29 800 849 set 0;
#X obj 231 85 inlet;
#X obj 231 144 pack f f \$0;
#X msg 231 163 \; \$3-v\$1-r set \$2;
#X obj 361 176 tabwrite \$0-t;
#X obj 361 141 unpack f f;
#X msg 361 122 \$2 \$1;
#X connect 0 0 5 0;
#X connect 0 0 1 0;
#X connect 1 0 2 0;
#X connect 4 0 3 0;
#X connect 4 1 3 1;
#X connect 5 0 4 0;
#X restore 217 167 pd set;
#N canvas 0 29 800 849 receives 0;
#X obj 90 500 outlet;
#X obj 90 110 r 2843-v0-s;
#X obj 90 129 prepent 0;
#X obj 160 110 r 2843-v1-s;
#X obj 160 129 prepent 1;
#X obj 230 110 r 2843-v2-s;
#X obj 230 129 prepent 2;
#X obj 300 110 r 2843-v3-s;
#X obj 300 129 prepent 3;
#X obj 370 110 r 2843-v4-s;
#X obj 370 129 prepent 4;
#X obj 440 110 r 2843-v5-s;
#X obj 440 129 prepent 5;
#X obj 510 110 r 2843-v6-s;
#X obj 510 129 prepent 6;
#X obj 580 110 r 2843-v7-s;
#X obj 580 129 prepent 7;
#X connect 1 0 2 0;
#X connect 2 0 0 0;
#X connect 3 0 4 0;
#X connect 4 0 0 0;
#X connect 5 0 6 0;
#X connect 6 0 0 0;
#X connect 7 0 8 0;
#X connect 8 0 0 0;
#X connect 9 0 10 0;
#X connect 10 0 0 0;
#X connect 11 0 12 0;
#X connect 12 0 0 0;
#X connect 13 0 14 0;
#X connect 14 0 0 0;
#X connect 15 0 16 0;
#X connect 16 0 0 0;
#X restore 199 377 pd receives;
#X obj 176 203 int;
#X text 313 119 set a vsl by sending a "set [number] [value]" message.;
#X obj 218 321 outlet;
#X connect 10 0 9 0;
#X connect 10 1 9 1;
#X connect 11 0 10 0;
#X connect 12 0 15 0;
#X connect 14 0 12 0;
#X connect 14 0 23 0;
#X connect 14 1 17 0;
#X connect 14 1 28 0;
#X connect 15 0 8 0;
#X connect 16 0 15 1;
#X connect 17 0 16 0;
#X connect 20 0 21 0;
#X connect 21 0 22 0;
#X connect 21 1 26 0;
#X connect 21 2 24 0;
#X connect 22 0 14 0;
#X connect 25 0 18 0;
#X connect 25 0 11 0;
#X connect 26 0 14 0;
#X coords 0 -1 1 1 80 85 1 378 183;
