#N canvas 543 225 619 358 10;
#X obj 60 35 zerox~;
#X obj 92 167 tabwrite~ \$0-bla;
#X obj 182 248 tabread \$0-bla;
#X obj 227 191 / 100;
#X obj 182 229 count 500;
#X obj 50 261 snapshot~;
#X obj 50 296 outlet;
#X obj 60 236 ometro 20;
#X obj 136 45 inlet;
#X obj 136 64 route lmetro mmetro;
#X obj 92 148 ometro 100;
#X obj 60 16 inlet~;
#X obj 182 292 outlet;
#X obj 344 32 view~;
#X obj 342 194 view~;
#X obj 252 123 table \$0-bla;
#X text 546 110 right outlet;
#X text 546 271 left outlet;
#X obj 182 267 sel 1;
#X obj 182 210 ometro 2;
#X connect 0 0 14 0;
#X connect 0 0 5 0;
#X connect 0 1 1 0;
#X connect 0 1 13 0;
#X connect 2 0 18 0;
#X connect 3 0 19 1;
#X connect 4 0 2 0;
#X connect 5 0 6 0;
#X connect 7 0 5 0;
#X connect 8 0 9 0;
#X connect 9 0 7 1;
#X connect 9 1 10 1;
#X connect 9 1 3 0;
#X connect 10 0 1 0;
#X connect 11 0 0 0;
#X connect 18 0 12 0;
#X connect 19 0 4 0;
