#N canvas 0 0 1600 849 10;
#X obj 58 40 inlet;
#X obj 94 40 inlet;
#X obj 58 98 sel 1;
#X obj 58 117 outlet;
#X obj 58 79 < \$1;
#X connect 0 0 4 0;
#X connect 1 0 4 1;
#X connect 2 0 3 0;
#X connect 4 0 2 0;
