#N canvas 0 0 1600 849 10;
#X obj 525 250 lb \$1;
#X obj 561 250 lb \$2;
#X obj 531 310 -;
#X obj 502 222 inlet;
#X obj 562 222 inlet;
#X obj 286 258 inlet;
#X text 332 255 expects input from range -1 to 1;
#X obj 318 309 atc;
#X obj 428 327 * 0;
#X obj 428 346 + 0;
#X obj 428 365 outlet;
#X connect 0 0 2 1;
#X connect 0 0 9 1;
#X connect 1 0 2 0;
#X connect 2 0 8 1;
#X connect 3 0 0 0;
#X connect 4 0 1 0;
#X connect 5 0 7 0;
#X connect 7 0 8 0;
#X connect 8 0 9 0;
#X connect 9 0 10 0;
