#N canvas 1920 30 1920 1048 10;
#X obj 115 492 outlet;
#X obj 131 93 pdcontrol;
#X msg 131 70 args;
#X obj 131 46 loadbang;
#X msg 131 169 0.5;
#X obj 160 259 > 1;
#X obj 115 282 pack f f;
#X obj 115 237 t f f;
#X msg 115 304 \$2 \$1;
#X obj 115 326 route 0 1;
#X obj 140 348 expr 1.0/$f1;
#X obj 115 447 random 100;
#X obj 131 146 route bang float;
#X obj 177 169 moses 0;
#X obj 115 469 < 1;
#X obj 115 397 t b b f;
#X obj 115 376 * 1e+06;
#X msg 134 419 1e+06;
#X text 260 126 The probability of a heads defaults to 50% \, but you can change it by providing a number as an argument \, or by sending a number to the second inlet.;
#X text 261 180 Setting the probability (N) to a number between 0 and 1 means an N/1 probability. i.e. 0.5 is a 50% probability \, 0.25 is a 25% \, etc. Setting the probability above 1 means a 1/N probability \, i.e. 2 is 1/2 probability \, 100 is 1/100.;
#X text 333 320 -1 - Ignored.;
#X text 339 308 0 - 0% chance of heads.;
#X text 339 297 1 - 100% chance of heads.;
#X text 333 286 10 - 1 in 10 chance of heads.;
#X text 339 275 3 - 1 in 3 chance of heads.;
#X text 321 264 0.75 - 75% chance of heads.;
#X text 261 252 examples: 0.5 - 50% chance of heads.;
#X text 261 343 See also: [maybe] - Pass through input if a "coin" (with settable probability) lands on heads \, or discard it if tails.;
#X text 262 83 [coin] - "Flip a coin" with a specific probability of heads. Outputs 1 on heads \, 0 on tails.;
#X obj 18 123 inlet;
#X obj 115 213 f;
#X obj 18 146 route bang float;
#X obj 78 169 t b f;
#X obj 140 122 inlet;
#X connect 1 0 12 0;
#X connect 2 0 1 0;
#X connect 3 0 2 0;
#X connect 4 0 30 1;
#X connect 5 0 6 1;
#X connect 6 0 8 0;
#X connect 7 0 6 0;
#X connect 7 1 5 0;
#X connect 8 0 9 0;
#X connect 9 0 16 0;
#X connect 9 1 10 0;
#X connect 10 0 16 0;
#X connect 11 0 14 0;
#X connect 12 0 4 0;
#X connect 12 1 13 0;
#X connect 13 1 30 1;
#X connect 14 0 0 0;
#X connect 15 0 11 0;
#X connect 15 1 17 0;
#X connect 15 2 14 1;
#X connect 16 0 15 0;
#X connect 17 0 11 1;
#X connect 29 0 31 0;
#X connect 30 0 7 0;
#X connect 31 0 30 0;
#X connect 31 1 32 0;
#X connect 32 0 30 0;
#X connect 32 1 12 0;
#X connect 33 0 12 0;
