#N canvas 0 0 2560 1566 10;
#X obj 525 250 lb \$1;
#X obj 561 250 lb \$2;
#X obj 531 310 -;
#X obj 502 222 inlet;
#X obj 562 222 inlet;
#X obj 286 258 inlet;
#X obj 428 327 * 0;
#X obj 428 346 + 0;
#X obj 428 365 outlet;
#X text 321 254 expects input from range 0 to 1;
#X connect 0 0 2 1;
#X connect 0 0 7 1;
#X connect 1 0 2 0;
#X connect 2 0 6 1;
#X connect 3 0 0 0;
#X connect 4 0 1 0;
#X connect 5 0 6 0;
#X connect 6 0 7 0;
#X connect 7 0 8 0;
