#N canvas 1680 59 800 841 10;
#X obj 159 25 inlet;
#X obj 114 555 outlet;
#X text 372 378 interpolate - output numbers between INPUT and LAST_INPUT
\, then output INPUT;
#X obj 222 260 f;
#X obj 202 400 until;
#X obj 232 352 abs;
#X obj 269 496 +;
#X obj 232 314 -;
#X msg 339 347 reset;
#X obj 232 371 t f f;
#X obj 222 164 t f b b f;
#X obj 222 279 t f f;
#X obj 339 430 sel 0 1;
#X obj 114 517 change;
#X obj 222 463 * 1;
#X msg 369 458 1;
#X msg 339 458 -1;
#X obj 232 333 t f f;
#X obj 339 411 < 0;
#X obj 159 44 route reset;
#X obj 159 101 t b f b;
#X msg 198 120 0;
#X msg 159 120 1;
#X obj 159 63 route bang;
#X msg 159 82 0;
#X obj 114 536 spigot 1;
#X obj 222 429 kount;
#X connect 0 0 19 0;
#X connect 3 0 11 0;
#X connect 4 0 26 0;
#X connect 5 0 9 0;
#X connect 6 0 13 0;
#X connect 7 0 17 0;
#X connect 8 0 26 0;
#X connect 9 0 4 0;
#X connect 9 1 26 1;
#X connect 10 0 3 1;
#X connect 10 0 13 0;
#X connect 10 1 3 0;
#X connect 10 2 8 0;
#X connect 10 3 7 1;
#X connect 11 0 7 0;
#X connect 11 1 6 1;
#X connect 12 0 16 0;
#X connect 12 1 15 0;
#X connect 13 0 25 0;
#X connect 14 0 6 0;
#X connect 15 0 14 1;
#X connect 16 0 14 1;
#X connect 17 0 5 0;
#X connect 17 1 18 0;
#X connect 18 0 12 0;
#X connect 19 0 23 0;
#X connect 19 1 10 0;
#X connect 20 0 22 0;
#X connect 20 1 10 0;
#X connect 20 2 21 0;
#X connect 21 0 25 1;
#X connect 22 0 25 1;
#X connect 23 0 24 0;
#X connect 23 1 20 0;
#X connect 24 0 20 0;
#X connect 25 0 1 0;
#X connect 26 0 14 0;
