#N canvas 0 0 1600 849 10;
#X obj 34 67 inlet;
#X obj 83 164 f 0;
#X obj 83 194 + 1;
#X obj 117 164 mod \$1;
#X msg 95 128 0;
#X obj 51 283 outlet;
#X msg 43 139 bang;
#X obj 166 86 inlet;
#X obj 202 86 lb \$1;
#X obj 202 105 sel 0;
#X msg 202 164 1;
#X msg 229 164 0;
#X text 267 128 behaves like [count] \, but if no first argument is
supplied (or is 0) \, then counts up indefinitely.;
#X obj 83 232 route 0 1;
#X obj 83 213 prepent 1;
#X obj 34 86 route reset float set;
#X connect 0 0 15 0;
#X connect 1 0 2 0;
#X connect 1 0 5 0;
#X connect 2 0 14 0;
#X connect 3 0 1 1;
#X connect 4 0 1 1;
#X connect 6 0 1 0;
#X connect 7 0 9 0;
#X connect 8 0 9 0;
#X connect 9 0 10 0;
#X connect 9 1 3 1;
#X connect 9 1 11 0;
#X connect 10 0 14 1;
#X connect 11 0 14 1;
#X connect 13 0 3 0;
#X connect 13 1 1 1;
#X connect 14 0 13 0;
#X connect 15 0 4 0;
#X connect 15 1 1 0;
#X connect 15 2 1 1;
#X connect 15 3 6 0;
