#N canvas 0 29 1600 849 10;
#X obj 151 282 kount;
#X obj 100 257 bng 15 250 50 0 empty empty empty 17 7 0 10 -262144
-1 -1;
#X floatatom 178 264 5 0 0 0 - - -;
#X floatatom 151 301 5 0 0 0 - - -;
#X msg 111 225 reset;
#X msg 151 231 set \$1;
#X floatatom 151 213 5 0 0 0 - - -;
#X text 289 129 kount - count up to infinity or below a certain number.
;
#X text 290 171 [kount] is basically the same as [count] \, except
that if there is no argument \, or the argument is 0 \, it will count
up without bound.;
#X text 287 228 when the limit is reset via the right inlet \, the
current count is also reset (to 0).;
#X connect 0 0 3 0;
#X connect 1 0 0 0;
#X connect 2 0 0 1;
#X connect 4 0 0 0;
#X connect 5 0 0 0;
#X connect 6 0 5 0;
