#N canvas 0 30 1920 1050 12;
#X obj 37 37 inlet;
#X obj 37 62 maybe \$1;
#X obj 37 87 sel 1;
#X obj 37 112 outlet;
#X text 139 70 maybeb - maybe output a bang;
#X text 164 114 basically just a convenience wrapper around [maybe]
;
#X connect 0 0 1 0;
#X connect 1 0 2 0;
#X connect 2 0 3 0;
