#N canvas 0 30 1920 1050 10;
#X obj 542 285 inlet;
#X obj 617 407 random 2;
#X obj 542 304 route bang float;
#X msg 507 338 2;
#X obj 588 343 moses 1;
#X obj 617 467 outlet;
#X obj 627 364 t b f b;
#X obj 547 400 t b b f;
#X obj 617 446 < 1;
#X msg 671 407 1;
#X obj 547 379 * 1000;
#X msg 566 422 1000;
#X text 706 343 FIX: arguments have no effect;
#X text 589 196 examples: bang - 50% chance of 1;
#X text 667 219 3 - 1 in 3 chance of 1;
#X text 661 230 10 - 1 in 10 chance of 1;
#X text 667 241 1 - 100% chance of 1;
#X text 649 208 0.75 - 75% chance of 1;
#X text 592 109 if you bang the inlet \, there is a 50% chance you
will get a 1 on the outlet. if you send a number at or above 1 \, there
is a 1 in (that number) chance that there will be a 1 on the outlet.
if you send a number below 1 to the inlet \, there is a (that number)*100
percent chance that there will be a 1 on the outlet. otherwise \, outputs
0;
#X text 595 81 maybe - maybe output a 1 or a 0;
#X connect 0 0 2 0;
#X connect 1 0 8 0;
#X connect 2 0 3 0;
#X connect 2 1 4 0;
#X connect 3 0 2 0;
#X connect 4 0 10 0;
#X connect 4 1 6 0;
#X connect 6 0 1 0;
#X connect 6 1 1 1;
#X connect 6 2 9 0;
#X connect 7 0 1 0;
#X connect 7 1 11 0;
#X connect 7 2 8 1;
#X connect 8 0 5 0;
#X connect 9 0 8 1;
#X connect 10 0 7 0;
#X connect 11 0 1 1;
