#N canvas 1920 30 1920 1048 10;
#X text 400 252 3 - 1 in 3 chance of 1;
#X text 394 263 10 - 1 in 10 chance of 1;
#X text 400 274 1 - 100% chance of 1;
#X text 382 241 0.75 - 75% chance of 1;
#X obj 170 160 inlet;
#X obj 170 183 t a b;
#X obj 170 253 spigot;
#X obj 170 276 outlet;
#X obj 221 126 inlet;
#X obj 212 101 pdcontrol;
#X msg 212 78 args;
#X obj 212 55 loadbang;
#X msg 212 176 0.5;
#X obj 212 153 route bang float;
#X obj 258 176 moses 0;
#X obj 197 206 f;
#X text 323 40 [maybe] - For each input \, "flip a coin" with a specific probability of heads. If heads \, output the input. if tails \, don't.;
#X text 321 93 The probability of a heads defaults to 50% \, but you can change it by providing a number as an argument \, or by sending a number to the second inlet.;
#X text 322 157 Setting the probability (N) to a number between 0 and 1 means an N/1 probability. i.e. 0.5 is a 50% probability \, 0.25 is a 25% \, etc. Setting the probability above 1 means a 1/N probability \, i.e. 2 is 1/2 probability \, 100 is 1/100.;
#X text 322 229 examples: 0.5 - 50% chance of 1;
#X text 322 300 See also: [coin] - Simply outputs 1 on "heads" and 0 on "tails" \, also with settable probability.;
#X obj 197 229 coin;
#X connect 4 0 5 0;
#X connect 5 0 6 0;
#X connect 5 1 15 0;
#X connect 6 0 7 0;
#X connect 8 0 13 0;
#X connect 9 0 13 0;
#X connect 10 0 9 0;
#X connect 11 0 10 0;
#X connect 12 0 15 1;
#X connect 13 0 12 0;
#X connect 13 1 14 0;
#X connect 14 1 15 1;
#X connect 15 0 21 0;
#X connect 21 0 6 1;
