#N canvas 1680 29 2560 1566 10;
#X obj 181 21 inlet;
#X obj 181 40 / 127;
#X obj 202 134 outlet;
#X obj 202 115 *;
#X obj 217 21 inlet;
#X obj 217 40 init \$1;
#X obj 217 59 sel 0;
#X msg 217 78 1;
#X connect 0 0 1 0;
#X connect 1 0 3 0;
#X connect 3 0 2 0;
#X connect 4 0 5 0;
#X connect 5 0 6 0;
#X connect 6 0 7 0;
#X connect 6 1 3 1;
#X connect 7 0 3 1;
