#N canvas 1680 29 1600 871 10;
#X obj 181 21 inlet;
#X obj 181 40 / 127;
#X obj 181 97 outlet;
#X obj 181 78 *;
#X obj 217 21 inlet;
#X obj 217 40 lb \$1 1;
#X connect 0 0 1 0;
#X connect 1 0 3 0;
#X connect 3 0 2 0;
#X connect 4 0 5 0;
#X connect 5 0 3 1;
