#N canvas 0 0 1920 1048 10;
#X obj 120 246 inlet;
#X obj 120 267 route float bang set a s m d;
#X obj 170 394 +;
#X obj 214 289 * -1;
#X obj 170 372 f;
#X obj 214 328 t b f;
#X obj 274 374 f;
#X obj 274 396 *;
#X obj 274 339 t b f;
#X obj 324 374 f;
#X obj 324 339 t b f;
#X obj 324 396 /;
#X obj 120 418 outlet;
#X obj 338 225 route + - * /;
#X msg 338 249 a \$1;
#X msg 372 249 s \$1;
#X msg 406 249 m \$1;
#X msg 440 249 d \$1;
#X obj 120 334 f;
#X obj 51 238 lb \$1;
#X msg 51 260 set \$1;
#X text 84 65 Supports messages like "set" \, "a" \, "s" \, "m" \, and "d" to set \, add \, subtract \, multiply \, and divide the stored number (outputting it in the process).;
#X text 84 113 The first argument specifies the default value.;
#X text 83 36 num - Store and change a number with messages.;
#X text 87 178 FIX: allow minimum and maximum values to be set with the 2nd and 3rd arguments.;
#X obj 512 226 inlet;
#X msg 512 249 set \$1;
#X text 85 138 The second inlet is a shortcut for setting the value without outputting it.;
#X connect 0 0 1 0;
#X connect 1 0 18 0;
#X connect 1 1 18 0;
#X connect 1 2 4 1;
#X connect 1 2 6 1;
#X connect 1 2 9 1;
#X connect 1 2 18 1;
#X connect 1 3 5 0;
#X connect 1 4 3 0;
#X connect 1 5 8 0;
#X connect 1 6 10 0;
#X connect 1 7 13 0;
#X connect 2 0 1 0;
#X connect 3 0 5 0;
#X connect 4 0 2 0;
#X connect 5 0 4 0;
#X connect 5 1 2 1;
#X connect 6 0 7 0;
#X connect 7 0 1 0;
#X connect 8 0 6 0;
#X connect 8 1 7 1;
#X connect 9 0 11 0;
#X connect 10 0 9 0;
#X connect 10 1 11 1;
#X connect 11 0 1 0;
#X connect 13 0 14 0;
#X connect 13 1 15 0;
#X connect 13 2 16 0;
#X connect 13 3 17 0;
#X connect 14 0 1 0;
#X connect 15 0 1 0;
#X connect 16 0 1 0;
#X connect 17 0 1 0;
#X connect 18 0 4 1;
#X connect 18 0 6 1;
#X connect 18 0 9 1;
#X connect 18 0 12 0;
#X connect 19 0 20 0;
#X connect 20 0 1 0;
#X connect 25 0 26 0;
#X connect 26 0 1 0;
