#N canvas 0 1080 1920 1048 10;
#X obj 74 278 + 0.5;
#X obj 74 120 inlet;
#X obj 74 300 int;
#X obj 74 344 outlet;
#X obj 74 171 t f f;
#X obj 101 193 > 0;
#X obj 101 214 sel 0 1;
#X msg 101 246 -0.5;
#X msg 135 246 0.5;
#X obj 74 149 / \$1;
#X obj 74 321 * \$1;
#X text 297 100 round - Round an input to a multiple of a specified number.;
#X text 307 139 left inlet - The input number.;
#X text 306 154 right inlet / arg 1 - The multiple to round the input to.;
#X text 312 188 outlet - The rounded output.;
#X obj 217 216 t a;
#X obj 199 180 inlet;
#X obj 237 180 lb \$1 1;
#X connect 0 0 2 0;
#X connect 1 0 9 0;
#X connect 2 0 10 0;
#X connect 4 0 0 0;
#X connect 4 1 5 0;
#X connect 5 0 6 0;
#X connect 6 0 7 0;
#X connect 6 1 8 0;
#X connect 7 0 0 1;
#X connect 8 0 0 1;
#X connect 9 0 4 0;
#X connect 10 0 3 0;
#X connect 15 0 10 1;
#X connect 15 0 9 1;
#X connect 16 0 15 0;
#X connect 17 0 15 0;
