#N canvas 0 0 1600 849 10;
#X obj 164 209 + 0.5;
#X obj 164 90 inlet;
#X obj 164 228 int;
#X obj 164 247 outlet;
#X obj 164 109 t f f;
#X obj 196 131 > 0;
#X obj 196 150 sel 0 1;
#X msg 196 169 -0.5;
#X msg 215 188 0.5;
#X connect 0 0 2 0;
#X connect 1 0 4 0;
#X connect 2 0 3 0;
#X connect 4 0 0 0;
#X connect 4 1 5 0;
#X connect 5 0 6 0;
#X connect 6 0 7 0;
#X connect 6 1 8 0;
#X connect 7 0 0 1;
#X connect 8 0 0 1;
