#N canvas 0 29 1600 871 10;
#X obj 91 317 + \$1;
#X obj 91 336 outlet;
#X obj 91 35 inlet;
#X obj 132 165 unpack f f;
#X obj 91 256 - \$1;
#X obj 91 54 route bang list float;
#X msg 173 73 0 \$1;
#X obj 252 37 inlet;
#X obj 288 37 inlet;
#X obj 132 184 t b f;
#X obj 91 237 f \$2;
#X obj 132 99 list trim;
#X obj 91 275 t b f;
#X text 332 62 rrangef - random float within a range \, inclusive.
;
#X obj 91 298 randomF;
#X connect 0 0 1 0;
#X connect 2 0 5 0;
#X connect 3 0 9 0;
#X connect 3 1 10 1;
#X connect 4 0 12 0;
#X connect 5 0 10 0;
#X connect 5 1 11 0;
#X connect 5 2 6 0;
#X connect 5 3 3 0;
#X connect 6 0 3 0;
#X connect 7 0 9 0;
#X connect 8 0 10 1;
#X connect 9 0 10 0;
#X connect 9 1 4 1;
#X connect 9 1 0 1;
#X connect 10 0 4 0;
#X connect 11 0 3 0;
#X connect 12 0 14 0;
#X connect 12 1 14 1;
#X connect 14 0 0 0;
