#N canvas 0 29 1600 849 10;
#X obj 91 307 random;
#X obj 91 326 + \$1;
#X obj 91 345 outlet;
#X obj 91 35 inlet;
#X obj 132 165 unpack f f;
#X obj 124 269 - \$1;
#X obj 91 54 route bang list float;
#X msg 173 73 0 \$1;
#X obj 252 37 inlet;
#X obj 288 37 inlet;
#X obj 132 184 t b f;
#X obj 168 237 f \$2;
#X obj 91 213 t b b;
#X text 332 62 rrange - random within a range \, inclusive.;
#X obj 124 288 + 1;
#X connect 0 0 1 0;
#X connect 1 0 2 0;
#X connect 3 0 6 0;
#X connect 4 0 10 0;
#X connect 4 1 11 1;
#X connect 5 0 14 0;
#X connect 6 0 12 0;
#X connect 6 1 4 0;
#X connect 6 2 7 0;
#X connect 6 3 4 0;
#X connect 7 0 4 0;
#X connect 8 0 10 0;
#X connect 9 0 11 1;
#X connect 10 0 11 0;
#X connect 10 1 5 1;
#X connect 10 1 1 1;
#X connect 11 0 5 0;
#X connect 12 0 0 0;
#X connect 12 1 11 0;
#X connect 14 0 0 1;
