#N canvas 0 29 1600 849 10;
#X obj 104 207 pow 0.0833333;
#X obj 179 188 / 12;
#X obj 104 169 t b f;
#X msg 104 188 2;
#X obj 104 126 inlet;
#X obj 104 226 outlet;
#X text 214 145 transposer - outputs the number necessary to shift
a frequency by the semitones provided via the inlet.;
#X text 211 182 (basically \, a frequency shifter with input in semitones
and output in the number necessary to multiply the freq by);
#X obj 145 126 loadbang;
#X obj 145 145 f \$1;
#X connect 0 0 5 0;
#X connect 1 0 0 1;
#X connect 2 0 3 0;
#X connect 2 1 1 0;
#X connect 3 0 0 0;
#X connect 4 0 2 0;
#X connect 8 0 9 0;
#X connect 9 0 2 0;
