#N canvas 0 29 1600 849 10;
#X floatatom 126 266 5 0 0 0 - - -;
#X obj 126 78 loadbang;
#X obj 126 162 metro 1000;
#X msg 126 106 1;
#X floatatom 126 134 0 0 0 0 - - -;
#X text 171 134 <-- on/off;
#X msg 126 188 cat /proc/loadavg;
#X obj 126 214 shell;
#X obj 126 241 unpack f f f s f;
#X obj 126 293 outlet;
#X connect 0 0 9 0;
#X connect 1 0 3 0;
#X connect 2 0 6 0;
#X connect 3 0 4 0;
#X connect 4 0 2 0;
#X connect 6 0 7 0;
#X connect 7 0 8 0;
#X connect 8 0 0 0;
#X coords 0 -1 1 1 80 16 1 78 266;
