#N canvas 0 29 800 849 10;
#X obj 273 246 ifiddle~;
#X obj 253 190 osc~;
#X floatatom 253 153 5 0 0 0 - - -;
#X obj 253 171 mtof;
#X text 393 55 ifiddle~ - interface fiddle~;
#X obj 288 82 loadbang;
#X msg 253 134 57;
#X obj 273 227 *~;
#X obj 288 208 line~;
#X msg 288 134 1 \, 0.25 500;
#X text 400 105 this is basically just a gui for fiddle~. the first
2 outlets come straight from fiddle~'s first 2 outlets \, while the
last 2 outlets are the unpacked output of fiddle~'s third outlet.;
#X obj 307 303 bng 15 250 50 0 empty empty empty 17 7 0 10 -262144
-1 -1;
#X floatatom 273 302 5 0 0 0 - - -;
#X floatatom 342 302 5 0 0 0 - - -;
#X floatatom 377 302 5 0 0 0 - - -;
#N canvas 0 29 800 849 META 0;
#X text 12 145 LIBRARY defaultxr;
#X text 12 165 AUTHOR modula t. worm;
#X text 12 185 WEBSITE http://github.com/defaultxr/pure-data-patches
;
#X text 12 205 RELEASE_DATE 2013;
#X text 12 5 KEYWORDS fiddle gui analysis;
#X text 12 25 DESCRIPTION graphically show fiddle~ output;
#X text 12 45 INLET_0 signal;
#X text 12 65 OUTLET_0 cooked pitch;
#X text 12 85 OUTLET_1 bang on attack;
#X text 12 105 OUTLET_2 pitch;
#X text 12 125 OUTLET_3 amplitude;
#X restore 300 377 pd META;
#X connect 0 0 12 0;
#X connect 0 1 11 0;
#X connect 0 2 13 0;
#X connect 0 3 14 0;
#X connect 1 0 7 0;
#X connect 2 0 3 0;
#X connect 3 0 1 0;
#X connect 5 0 6 0;
#X connect 5 0 9 0;
#X connect 6 0 2 0;
#X connect 7 0 0 0;
#X connect 8 0 7 1;
#X connect 9 0 8 0;
