#N canvas 0 29 1600 849 10;
#X obj 46 104 nview;
#X text 175 38 nview - note view;
#X text 164 67 displays all incoming midi note information \, straight
from [notein];
#N canvas 0 29 800 849 META 0;
#X text 12 45 LIBRARY defaultxr;
#X text 12 65 AUTHOR modula t. worm;
#X text 12 85 WEBSITE http://github.com/defaultxr/pure-data-patches
;
#X text 12 105 RELEASE_DATE 2013;
#X text 12 5 KEYWORDS note gui view;
#X text 12 25 DESCRIPTION graphically view all incoming midi note data.
;
#X restore 190 127 pd META;
