#N canvas 1920 30 1920 1050 10;
#X obj 100 115 cnv 15 150 71 empty \$0-cnv empty 1 35 0 12 -90133 -262144
0;
#N canvas 1920 50 1920 1050 history 0;
#X obj 164 64 inlet;
#X obj 390 298 outlet;
#X msg 207 121 symbol bang;
#X obj 164 140 list prepend list;
#X obj 455 172 loadbang;
#X msg 343 215 add2 \$1 \, bang;
#X msg 455 210 set \, add2 \$1 \, add2 \$1 \, add2 \$1 \, add2 \$1
\, add2 \$1;
#X obj 455 191 spacesym;
#X obj 343 268 list split 1;
#X obj 377 317 list prepend set list;
#X obj 377 336 list trim;
#X msg 250 102 list symbol \$1;
#X obj 439 140 symbol;
#X obj 164 83 route list bang symbol list float;
#X obj 343 171 zexy/list2symbol;
#X obj 343 140 makefilename %s;
#X msg 343 249          ;
#X connect 0 0 13 0;
#X connect 2 0 5 0;
#X connect 3 0 14 0;
#X connect 4 0 7 0;
#X connect 5 0 16 0;
#X connect 6 0 16 0;
#X connect 7 0 6 0;
#X connect 8 1 1 0;
#X connect 8 1 9 0;
#X connect 9 0 10 0;
#X connect 10 0 16 0;
#X connect 11 0 14 0;
#X connect 12 0 5 0;
#X connect 13 0 3 0;
#X connect 13 1 2 0;
#X connect 13 2 11 0;
#X connect 13 3 14 0;
#X connect 13 4 15 0;
#X connect 13 5 12 0;
#X connect 14 0 5 0;
#X connect 15 0 5 0;
#X connect 16 0 8 0;
#X restore 280 203 pd history;
#X obj 280 165 inlet;
#N canvas 0 50 1920 1050 cnv 0;
#X obj 156 153 loadbang;
#X obj 63 314 s \$0-cnv;
#X obj 63 158 inlet;
#X msg 63 247 label \$1;
#X obj 156 209 makefilename %c;
#X msg 156 190 10;
#X text 223 260 when you use font 0 and size 12 \, each line will be
14 pixels high. so if you want to make this bigger you'll just have
to change vis_size and a few of the numbers in the "history" subpatch.
;
#X obj 63 228 zexy/list2symbol;
#X msg 252 203 color 29 0 0 \, label_font 0 12 \, label_pos 1 35 \,
label \, vis_size 150 71;
#X connect 0 0 8 0;
#X connect 0 0 5 0;
#X connect 2 0 7 0;
#X connect 3 0 1 0;
#X connect 4 0 7 1;
#X connect 5 0 4 0;
#X connect 7 0 3 0;
#X connect 8 0 1 0;
#X restore 280 222 pd cnv;
#X text 462 116 tview - text view;
#X text 463 151 basically just a scrolling view of its input.;
#X obj 235 100 tgl 15 0 empty empty empty 17 7 0 10 -262144 -1 -1 1
1;
#X obj 280 184 spigot;
#X obj 235 81 loadbang;
#X obj 416 25 inlet;
#X connect 1 0 3 0;
#X connect 2 0 7 0;
#X connect 6 0 7 1;
#X connect 7 0 1 0;
#X connect 8 0 6 0;
#X connect 9 0 6 0;
#X coords 0 -1 1 1 150 86 1 100 100;
