#N canvas 0 0 2560 1566 12;
#X obj 100 100 view;
#X obj 95 58 inlet;
#X obj 225 52 inlet;
#X obj 100 191 outlet;
#X obj 302 122 loadbang;
#X msg 302 147 [tview] is deprecated - please use [view] instead.;
#X obj 302 172 print tview;
#X connect 0 0 3 0;
#X connect 1 0 0 0;
#X connect 2 0 0 1;
#X connect 4 0 5 0;
#X connect 5 0 6 0;
#X coords 0 -1 1 1 150 86 1 100 100;
