#N canvas 960 32 960 508 10;
#X obj 100 115 cnv 18 150 71 empty \$0-cnv empty 1 35 0 12 #28f4f4 #202020 0;
#N canvas 1920 30 2560 1568 history 0;
#X obj 164 64 inlet;
#X obj 390 303 outlet;
#X msg 205 124 symbol bang;
#X obj 164 144 list prepend list;
#X obj 455 165 loadbang;
#X msg 343 219 add2 \$1 \, bang;
#X msg 455 214 set \, add2 \$1 \, add2 \$1 \, add2 \$1 \, add2 \$1 \, add2 \$1;
#X obj 455 194 spacesym;
#X obj 343 273 list split 1;
#X obj 377 323 list prepend set list;
#X obj 377 343 list trim;
#X msg 246 104 list symbol \$1;
#X obj 439 144 symbol;
#X obj 343 144 makefilename %s;
#X obj 520 166 r \$0-clear;
#X obj 164 84 route list bang symbol float;
#X msg 343 253 list \  \  \  \  symbol\ /home/modula/*;
#X obj 343 175 list2symbol;
#X connect 0 0 15 0;
#X connect 2 0 5 0;
#X connect 3 0 17 0;
#X connect 4 0 7 0;
#X connect 5 0 16 0;
#X connect 6 0 16 0;
#X connect 7 0 6 0;
#X connect 8 1 1 0;
#X connect 8 1 9 0;
#X connect 9 0 10 0;
#X connect 10 0 16 0;
#X connect 11 0 17 0;
#X connect 12 0 5 0;
#X connect 13 0 5 0;
#X connect 14 0 7 0;
#X connect 15 0 3 0;
#X connect 15 1 2 0;
#X connect 15 2 11 0;
#X connect 15 3 17 0;
#X connect 15 4 17 0;
#X connect 16 0 8 0;
#X connect 17 0 5 0;
#X restore 276 243 pd history;
#X obj 276 203 inlet;
#N canvas 960 32 2560 1568 cnv 1;
#X obj 156 153 loadbang;
#X obj 63 316 s \$0-cnv;
#X obj 63 158 inlet;
#X msg 63 249 label \$1;
#X obj 156 210 makefilename %c;
#X msg 156 190 10;
#X text 223 261 when you use font 0 and size 12 \, each line will be 14 pixels high. so if you want to make this bigger you'll just have to change vis_size and a few of the numbers in the "history" subpatch.;
#X obj 252 153 r \$0-clear;
#X msg 252 204 color 17 12 12 \, label_font 0 12 \, label_pos 1 35 \, label \, vis_size 150 71;
#X obj 63 229 list2symbol;
#X connect 0 0 8 0;
#X connect 0 0 5 0;
#X connect 2 0 9 0;
#X connect 3 0 1 0;
#X connect 4 0 9 1;
#X connect 5 0 4 0;
#X connect 7 0 5 0;
#X connect 7 0 8 0;
#X connect 8 0 1 0;
#X connect 9 0 3 0;
#X restore 276 263 pd cnv;
#X text 56 10 tview - text view;
#X text 57 45 basically just a scrolling view of its input.;
#X obj 235 100 tgl 15 0 empty empty empty 17 7 0 10 #f8fc00 #000000 #000000 0 1;
#X obj 276 223 spigot;
#X obj 235 80 loadbang;
#X obj 416 25 inlet;
#X obj 220 100 bng 15 250 50 0 \$0-clear empty clear -26 7 0 8 #fcc4c4 #000000 #000000;
#X connect 1 0 3 0;
#X connect 2 0 7 0;
#X connect 6 0 7 1;
#X connect 7 0 1 0;
#X connect 8 0 6 0;
#X connect 9 0 6 0;
#X coords 0 -1 1 1 150 86 1 100 100;
