#N canvas 960 32 960 508 10;
#X obj 100 115 cnv 15 150 71 empty \$0-cnv /media/music/SEGA/Sonic CD (US)/20 - SEGA - Quartz Quadrant Zone (Past).mp3
/media/music/Various Artists/vk_lobit compo \$5/17 - Vlad Shegal - track for the compilation (vkl.mp3
/media/music/Toxic Chicken/lobits/01 - Toxic Chicken - Brothers.mp3
/media/music/Biobreaks/Tenebre/04 - Biobreaks - Phenomena.mp3
/media/music/Green Day/Dookie/01 - Green Day - Burnout.mp3
1 35 0 12 -44926 -33289 0;
#N canvas 1920 30 1920 1050 history 0;
#X obj 164 64 inlet;
#X obj 390 303 outlet;
#X msg 205 124 symbol bang;
#X obj 164 144 list prepend list;
#X obj 455 165 loadbang;
#X msg 343 219 add2 \$1 \, bang;
#X msg 455 214 set \, add2 \$1 \, add2 \$1 \, add2 \$1 \, add2 \$1
\, add2 \$1;
#X obj 455 194 spacesym;
#X obj 343 273 list split 1;
#X obj 377 323 list prepend set list;
#X obj 377 343 list trim;
#X msg 246 104 list symbol \$1;
#X obj 439 144 symbol;
#X obj 343 175 zexy/list2symbol;
#X obj 343 144 makefilename %s;
#X obj 520 166 r \$0-clear;
#X obj 164 84 route list bang symbol float;
#X msg 343 253 list /media/music/SEGA/Sonic CD (US)/20 - SEGA - Quartz Quadrant Zone (Past).mp3
/media/music/Various Artists/vk_lobit compo #5/17 - Vlad Shegal - track for the compilation (vkl.mp3
/media/music/Toxic Chicken/lobits/01 - Toxic Chicken - Brothers.mp3
/media/music/Biobreaks/Tenebre/04 - Biobreaks - Phenomena.mp3 /media/music/Green Day/Dookie/01 - Green Day - Burnout.mp3
;
#X connect 0 0 16 0;
#X connect 2 0 5 0;
#X connect 3 0 13 0;
#X connect 4 0 7 0;
#X connect 5 0 17 0;
#X connect 6 0 17 0;
#X connect 7 0 6 0;
#X connect 8 1 1 0;
#X connect 8 1 9 0;
#X connect 9 0 10 0;
#X connect 10 0 17 0;
#X connect 11 0 13 0;
#X connect 12 0 5 0;
#X connect 13 0 5 0;
#X connect 14 0 5 0;
#X connect 15 0 7 0;
#X connect 16 0 3 0;
#X connect 16 1 2 0;
#X connect 16 2 11 0;
#X connect 16 3 13 0;
#X connect 16 4 13 0;
#X connect 17 0 8 0;
#X restore 276 243 pd history;
#X obj 276 203 inlet;
#N canvas 960 32 960 508 cnv 0;
#X obj 156 153 loadbang;
#X obj 63 316 s \$0-cnv;
#X obj 63 158 inlet;
#X msg 63 249 label \$1;
#X obj 156 210 makefilename %c;
#X msg 156 190 10;
#X text 223 261 when you use font 0 and size 12 \, each line will be
14 pixels high. so if you want to make this bigger you'll just have
to change vis_size and a few of the numbers in the "history" subpatch.
;
#X obj 63 229 zexy/list2symbol;
#X obj 252 153 r \$0-clear;
#X msg 252 204 color 17 12 12 \, label_font 0 12 \, label_pos 1 35
\, label \, vis_size 150 71;
#X connect 0 0 9 0;
#X connect 0 0 5 0;
#X connect 2 0 7 0;
#X connect 3 0 1 0;
#X connect 4 0 7 1;
#X connect 5 0 4 0;
#X connect 7 0 3 0;
#X connect 8 0 5 0;
#X connect 8 0 9 0;
#X connect 9 0 1 0;
#X restore 276 263 pd cnv;
#X text 56 10 tview - text view;
#X text 57 45 basically just a scrolling view of its input.;
#X obj 235 100 tgl 15 0 empty empty empty 17 7 0 10 -257985 -1 -1 1
1;
#X obj 276 223 spigot;
#X obj 235 80 loadbang;
#X obj 416 25 inlet;
#X obj 220 100 bng 15 250 50 0 \$0-clear empty clear -26 7 0 8 -261234
-1 -1;
#X connect 1 0 3 0;
#X connect 2 0 7 0;
#X connect 6 0 7 1;
#X connect 7 0 1 0;
#X connect 8 0 6 0;
#X connect 9 0 6 0;
#X coords 0 -1 1 1 150 86 1 100 100;
