#N canvas 1920 29 1920 1051 10;
#X obj 198 28 inlet~;
#X obj 281 101 tabwrite~ \$0-view;
#N canvas 0 50 450 300 (subpatch) 0;
#X array \$0-view 500 float 0;
#X coords 0 1 499 -1 200 140 1;
#X restore 33 113 graph;
#X obj 281 82 clip~ -2 2;
#X obj 196 99 nbx 3 14 11 900 0 0 empty \$0-refresh cur:-0.24075
avg:0.0243484
top:0.999968
bot:-1
-163 36 0 10 -262144 -1 -1 75 256;
#X obj 337 20 inlet;
#X msg 391 63 0;
#X obj 337 39 route float bang;
#X obj 308 126 snapshot~;
#X obj 308 390 s \$0-refresh;
#X obj 389 290 makefilename %c;
#X msg 331 366 label;
#X obj 328 221 average~ 10000;
#X obj 308 309 pack f f f f s;
#X obj 183 99 bng 14 250 50 0 empty empty r 3 6 0 10 -262144 -1 -1
;
#X obj 335 164 steady 10000;
#X msg 308 328 label cur:\$1\$5avg:\$2\$5top:\$3\$5bot:\$4;
#X obj 281 39 metro 75;
#X obj 308 145 t f f;
#X obj 460 211 loadbang;
#X obj 460 230 t b b b;
#X msg 389 271 10;
#X text 68 8 waveform display. clips at 2;
#X msg 372 366 label_pos -163 36 \, range 11 900 \, 75 \, size 3 14
;
#X connect 0 0 3 0;
#X connect 0 0 8 0;
#X connect 0 0 12 0;
#X connect 3 0 1 0;
#X connect 4 0 17 1;
#X connect 5 0 7 0;
#X connect 6 0 17 0;
#X connect 7 0 17 1;
#X connect 7 1 6 0;
#X connect 7 1 1 0;
#X connect 8 0 18 0;
#X connect 10 0 13 4;
#X connect 11 0 9 0;
#X connect 12 0 13 1;
#X connect 13 0 16 0;
#X connect 14 0 15 0;
#X connect 15 0 13 2;
#X connect 15 1 13 3;
#X connect 16 0 9 0;
#X connect 17 0 1 0;
#X connect 17 0 8 0;
#X connect 18 0 13 0;
#X connect 18 1 15 0;
#X connect 19 0 20 0;
#X connect 20 0 17 0;
#X connect 20 1 21 0;
#X connect 20 2 23 0;
#X connect 21 0 10 0;
#X connect 23 0 9 0;
#X coords 0 -1 1 1 200 154 2 33 99;
