#N canvas 0 0 2560 1566 10;
#X obj 100 305 cnv 18 150 71 empty \$0-cnv empty 1 35 0 10 #28f4f4 #202020 0;
#X obj 296 283 inlet;
#X obj 235 290 tgl 15 0 \$0-spigot \$0-spigot-r empty 17 7 0 10 #f8fc00 #000000 #000000 0 1;
#X obj 296 306 spigot;
#X obj 415 283 inlet;
#X obj 178 290 bng 15 250 50 0 \$0-clear \$0-clear-r clr 2 8 0 6 #fcc4c4 #000000 #000000;
#X obj 193 290 bng 15 250 50 0 empty \$0-bang-r empty 0 -9 0 10 #c6ffc7 #000000 #000000;
#X obj 415 414 s \$0-clear-r;
#X obj 415 392 bang;
#X obj 462 392 s \$0-spigot-r;
#X obj 334 283 r \$0-spigot;
#X obj 296 355 outlet;
#X text 22 118 The right inlet accepts "clear" to clear the display \, and "spigot" with an argument to enable/disable input processing/passing.;
#X text 21 4 view - View incoming messages.;
#X floatatom 208 290 5 0 0 0 - \$0-count - 8;
#X text 21 190 The green button flashes when input is received and passed.;
#X text 21 213 The numberbox shows a count of how many inputs have been received since the last clear.;
#X text 21 168 The "clr" button clears the display and resets the count.;
#X text 22 26 Basically just a scrolling view of its recent inputs. Sometimes this is more convenient than [print].;
#X text 22 66 Send messages to the left inlet to have them displayed and passed through to the outlet when the spigot (yellow toggle) is enabled.;
#X text 22 252 The yellow toggle enables/disables processing and passing of the input.;
#X obj 415 306 route clear spigot float;
#X obj 516 348 loadbang;
#X msg 516 370 1;
#N canvas 1920 30 2560 1566 process 0;
#X obj 184 64 inlet;
#X msg 225 184 symbol bang;
#X obj 184 204 list prepend list;
#X obj 475 225 loadbang;
#X msg 363 279 add2 \$1 \, bang;
#X msg 475 274 set \, add2 \$1 \, add2 \$1 \, add2 \$1 \, add2 \$1 \, add2 \$1;
#X obj 475 254 spacesym;
#X obj 363 333 list split 1;
#X obj 397 393 list prepend set list;
#X obj 397 413 list trim;
#X msg 266 164 list symbol \$1;
#X obj 363 204 makefilename %s;
#X obj 540 226 r \$0-clear;
#X obj 184 144 route list bang symbol float;
#X msg 363 313 \  \  \  \  \ ;
#X obj 363 235 list2symbol;
#X obj 95 204 s \$0-count;
#X obj 95 100 bang;
#X obj 95 182 f;
#X obj 120 182 + 1;
#X obj 109 130 r \$0-clear;
#X msg 109 152 0;
#N canvas 1440 0 2560 1566 cnv 0;
#X obj 156 153 loadbang;
#X obj 63 316 s \$0-cnv;
#X obj 63 158 inlet;
#X msg 63 249 label \$1;
#X obj 156 210 makefilename %c;
#X msg 156 190 10;
#X text 223 261 when you use font 0 and size 12 \, each line will be 14 pixels high. so if you want to make this bigger you'll just have to change vis_size and a few of the numbers in the "history" subpatch.;
#X obj 252 153 r \$0-clear;
#X obj 63 229 list2symbol;
#X msg 252 204 color 17 12 12 \, label_font 0 10 \, label_pos 1 35 \, label \, vis_size 150 71;
#X connect 0 0 9 0;
#X connect 0 0 5 0;
#X connect 2 0 8 0;
#X connect 3 0 1 0;
#X connect 4 0 8 1;
#X connect 5 0 4 0;
#X connect 7 0 5 0;
#X connect 7 0 9 0;
#X connect 8 0 3 0;
#X connect 9 0 1 0;
#X restore 410 363 pd cnv;
#X obj 21 204 s \$0-bang-r;
#X connect 0 0 13 0;
#X connect 0 0 17 0;
#X connect 1 0 4 0;
#X connect 2 0 15 0;
#X connect 3 0 6 0;
#X connect 4 0 14 0;
#X connect 5 0 14 0;
#X connect 6 0 5 0;
#X connect 7 1 8 0;
#X connect 7 1 22 0;
#X connect 8 0 9 0;
#X connect 9 0 14 0;
#X connect 10 0 15 0;
#X connect 11 0 4 0;
#X connect 12 0 6 0;
#X connect 13 0 2 0;
#X connect 13 1 1 0;
#X connect 13 2 10 0;
#X connect 13 3 15 0;
#X connect 13 4 15 0;
#X connect 14 0 7 0;
#X connect 15 0 4 0;
#X connect 17 0 18 0;
#X connect 17 0 23 0;
#X connect 18 0 19 0;
#X connect 18 0 16 0;
#X connect 19 0 18 1;
#X connect 20 0 21 0;
#X connect 21 0 18 0;
#X restore 306 333 pd process;
#X obj 556 327 print view: unrecognized message;
#X connect 1 0 3 0;
#X connect 3 0 24 0;
#X connect 3 0 11 0;
#X connect 4 0 21 0;
#X connect 8 0 7 0;
#X connect 10 0 3 1;
#X connect 21 0 8 0;
#X connect 21 1 9 0;
#X connect 21 2 9 0;
#X connect 21 3 25 0;
#X connect 22 0 23 0;
#X connect 23 0 9 0;
#X coords 0 -1 1 1 150 86 1 100 290;
