#N canvas 1920 30 1920 1050 10;
#X obj 308 126 inlet~;
#X obj 401 272 tabwrite~ \$0-view;
#N canvas 0 50 450 300 (subpatch) 0;
#X array \$0-view 500 float 0;
#X coords 0 1 499 -1 200 140 2 0 0;
#X restore 33 133 graph;
#X obj 401 240 clip~ -2 2;
#X obj 169 119 nbx 3 14 11 900 0 0 empty \$0-refresh cur:-4.16264e-05
max:1
min:-1
-135 33 0 10 -262144 -1 -258699 75 256;
#X obj 423 71 inlet;
#X obj 308 432 snapshot~;
#X obj 427 526 makefilename %c;
#X obj 219 119 bng 14 250 50 0 \$0-reset empty r 3 6 0 10 -262144 -1
-1;
#X obj 534 218 metro 75;
#X obj 427 486 loadbang;
#X msg 427 506 10;
#X obj 308 544 pack f f f s;
#X obj 423 91 route float bang reset;
#X obj 123 13 loadbang;
#X msg 308 564 label cur:\$1\$4max:\$2\$4min:\$3;
#X obj 368 432 runningmax~;
#X obj 440 433 runningmax~;
#X obj 440 413 *~ -1;
#X obj 440 453 * -1;
#X text 688 182 view~ - simple waveform display with current value
and running max/min.;
#X text 689 283 the "r" bang resets the running max/min.;
#X text 687 226 the toggle determines the "mode" \; when enabled \,
it redraws continuously. when disabled \, it only redraws when it receives
a bang on the right inlet.;
#X obj 205 119 tgl 14 0 empty empty empty 17 7 0 10 -262144 -1 -1 1
1;
#X obj 534 269 spigot;
#X text 687 314 the number box sets the refresh rate.;
#X msg 216 33 75 \, label_pos -135 33 \, range 11 900 \, size 3 14
\, color 0 22 13 \, label cur:0;
#X connect 0 0 3 0;
#X connect 0 0 6 0;
#X connect 0 0 16 0;
#X connect 0 0 18 0;
#X connect 3 0 1 0;
#X connect 4 0 9 1;
#X connect 5 0 13 0;
#X connect 6 0 12 0;
#X connect 7 0 12 3;
#X connect 8 0 16 1;
#X connect 8 0 17 1;
#X connect 9 0 24 0;
#X connect 10 0 11 0;
#X connect 11 0 7 0;
#X connect 12 0 15 0;
#X connect 13 0 4 0;
#X connect 13 1 1 0;
#X connect 13 2 8 0;
#X connect 14 0 9 0;
#X connect 14 0 26 0;
#X connect 14 0 23 0;
#X connect 15 0 4 0;
#X connect 16 0 12 1;
#X connect 17 0 19 0;
#X connect 18 0 17 0;
#X connect 19 0 12 2;
#X connect 23 0 24 1;
#X connect 24 0 6 0;
#X connect 24 0 1 0;
#X connect 26 0 4 0;
#X coords 0 -1 1 1 200 154 2 33 119;
