#N canvas 0 0 2880 1586 10;
#X obj 288 94 inlet~;
#X obj 308 233 tabwrite~ \$0-view;
#N canvas 0 50 450 300 (subpatch) 0;
#X array \$0-view 500 float 8;
#A resize 500;
#A color 0;
#A width 1;
#X coords 0 1 499 -1 150 98 2 0 0;
#X restore 33 133 graph;
#X obj 308 201 clip~ -2 2;
#X obj 155 119 bng 14 250 50 0 \$0-reset \$0-set-reset r 3 6 0 10 #ffc7c6 #000000 #000000;
#X obj 169 119 tgl 14 0 \$0-auto-redraw \$0-set-auto-redraw empty 17 7 0 10 #ff8300 #000000 #000000 0 1;
#X obj 288 260 outlet~;
#X text 621 153 view~ - Simple oscilloscope-style display with current value and running max/min.;
#X text 621 277 The running max/min can be reset with the "r" [bng] or a "reset" message.;
#X text 621 358 The incoming audio is passed through to the outlet~.;
#X text 621 317 The redraw rate can be set by specifying it with a "rate" message or by manually changing the [nbx].;
#X obj 420 272 metro 75;
#X obj 420 232 r \$0-auto-redraw;
#X obj 465 252 r \$0-redraw-rate;
#X text 621 197 Auto-redrawing can be turned on or off with the [tgl] - when checked \, it redraws continuously. When unchecked \, redrawing only happens when a bang is received on the inlet. Auto-redrawing can also be turned on or off with 1 or 0 on the inlet.;
#X obj 383 201 s \$0-set-auto-redraw;
#X obj 383 146 moses 2;
#X obj 422 177 s \$0-set-redraw-rate;
#X obj 363 111 route bang float rate reset;
#N canvas 1280 1620 2560 1566 init 0;
#X obj 23 21 init \$0;
#X msg 23 40 \; \$1-set-redraw-rate 75 \; \$1-cnv label_pos -87 28 \, size 2 2 \, vis_size 1 1 \, color 0 22 13 \, label cur:0 \; \$1-set-auto-redraw 1 \; \$1-view visname 0 \, edit 0 \;;
#X connect 0 0 1 0;
#X restore 133 96 pd init;
#X obj 482 152 s \$0-set-reset;
#N canvas 0 0 2560 1566 analysis 0;
#X obj 167 17 inlet~;
#X obj 167 175 snapshot~;
#X obj 294 270 makefilename %c;
#X obj 294 230 loadbang;
#X msg 294 250 10;
#X obj 227 175 runningmax~;
#X obj 299 175 runningmax~;
#X obj 299 155 *~ -1;
#X obj 299 195 * -1;
#X obj 296 15 r \$0-reset;
#X obj 395 55 inlet;
#X obj 167 287 pack f f f s \$0;
#X msg 167 309 \; \$5-cnv label cur:\$1\$4max:\$2\$4min:\$3;
#X connect 0 0 1 0;
#X connect 0 0 5 0;
#X connect 0 0 7 0;
#X connect 1 0 11 0;
#X connect 2 0 11 3;
#X connect 3 0 4 0;
#X connect 4 0 2 0;
#X connect 5 0 11 1;
#X connect 6 0 8 0;
#X connect 7 0 6 0;
#X connect 8 0 11 2;
#X connect 9 0 6 1;
#X connect 9 0 5 1;
#X connect 10 0 1 0;
#X connect 11 0 12 0;
#X restore 272 289 pd analysis;
#X obj 522 130 print view~: unrecognized message;
#X floatatom 133 119 4 11 999 0 - \$0-set-redraw-rate \$0-redraw-rate 8;
#X obj 121 121 cnv 2 1 1 \$0-redraw-rate \$0-cnv cur:0
max:0
min:0 -87 28 0 10 #fcfcfc #fc2828 0;
#X connect 0 0 3 0;
#X connect 0 0 6 0;
#X connect 0 0 21 0;
#X connect 0 1 18 0;
#X connect 3 0 1 0;
#X connect 11 0 1 0;
#X connect 11 0 21 1;
#X connect 12 0 11 0;
#X connect 13 0 11 1;
#X connect 16 0 15 0;
#X connect 16 1 17 0;
#X connect 18 0 1 0;
#X connect 18 1 16 0;
#X connect 18 2 17 0;
#X connect 18 3 20 0;
#X connect 18 4 22 0;
#X coords 0 -1 1 1 150 112 1 33 119;
