#N canvas 1920 30 1920 1050 10;
#X obj 308 31 inlet~;
#X obj 401 231 tabwrite~ \$0-view;
#N canvas 0 50 450 300 (subpatch) 0;
#X array \$0-view 500 float 0;
#X coords 0 1 499 -1 200 140 1;
#X restore 33 133 graph;
#X obj 401 182 clip~ -2 2;
#X obj 197 119 nbx 3 14 11 900 0 0 empty \$0-refresh cur:-0.42746
max:0.999999
min:-0.999999
-163 33 0 10 -262144 -1 -1 75 256;
#X obj 437 10 inlet;
#X obj 308 336 snapshot~;
#X obj 308 510 s \$0-refresh;
#X obj 377 410 makefilename %c;
#X obj 184 119 bng 14 250 50 0 \$0-reset empty r 3 6 0 10 -262144 -1
-1;
#X obj 502 181 metro 75;
#X obj 308 355 t f f;
#X obj 486 361 loadbang;
#X msg 377 391 10;
#N canvas 1920 30 1920 1050 max 0;
#X obj 434 169 delread~ \$0-max 1;
#X obj 325 255 *~;
#X obj 434 283 *~;
#X obj 449 241 *~ -1;
#X obj 449 262 +~ 1;
#X obj 434 370 delwrite~ \$0-max 1;
#X obj 340 205 expr~ $v1>$v2;
#X obj 434 312 *~ 1;
#X msg 498 338 1;
#X msg 505 272 0;
#X obj 498 319 del;
#X msg 498 300 2;
#X obj 326 174 inlet~;
#X obj 446 198 outlet~;
#X obj 498 248 r \$0-reset;
#X connect 0 0 2 0;
#X connect 0 0 6 1;
#X connect 0 0 13 0;
#X connect 1 0 7 0;
#X connect 2 0 7 0;
#X connect 3 0 4 0;
#X connect 4 0 2 1;
#X connect 6 0 1 1;
#X connect 6 0 3 0;
#X connect 7 0 5 0;
#X connect 8 0 7 1;
#X connect 9 0 7 1;
#X connect 10 0 8 0;
#X connect 11 0 10 0;
#X connect 12 0 1 0;
#X connect 12 0 6 0;
#X connect 14 0 9 0;
#X connect 14 0 11 0;
#X restore 368 317 pd max;
#X obj 368 336 snapshot~;
#X obj 428 336 snapshot~;
#N canvas 1920 30 1920 1050 min 0;
#X obj 325 255 *~;
#X obj 434 283 *~;
#X obj 449 241 *~ -1;
#X obj 449 262 +~ 1;
#X obj 434 312 *~ 1;
#X msg 498 338 1;
#X msg 505 272 0;
#X obj 498 319 del;
#X msg 498 300 2;
#X obj 326 174 inlet~;
#X obj 446 198 outlet~;
#X obj 498 248 r \$0-reset;
#X obj 434 169 delread~ \$0-min 1;
#X obj 434 370 delwrite~ \$0-min 1;
#X obj 340 205 expr~ $v1<$v2;
#X connect 0 0 4 0;
#X connect 1 0 4 0;
#X connect 2 0 3 0;
#X connect 3 0 1 1;
#X connect 4 0 13 0;
#X connect 5 0 4 1;
#X connect 6 0 4 1;
#X connect 7 0 5 0;
#X connect 8 0 7 0;
#X connect 9 0 0 0;
#X connect 9 0 14 0;
#X connect 11 0 6 0;
#X connect 11 0 8 0;
#X connect 12 0 1 0;
#X connect 12 0 10 0;
#X connect 12 0 14 1;
#X connect 14 0 0 1;
#X connect 14 0 2 0;
#X restore 428 317 pd min;
#X msg 502 112 0;
#X obj 308 429 pack f f f s;
#X msg 308 448 label cur:\$1\$4max:\$2\$4min:\$3;
#X obj 437 29 route float bang reset;
#X text 548 78 view~ - waveform display with running max and min;
#X msg 486 448 label_pos -163 33 \, range 11 900 \, 75 \, size 3 14
;
#X text 558 110 click the "r" bang or send a "reset" message to the
second inlet to reset the running maximum and minimum.;
#X connect 0 0 3 0;
#X connect 0 0 6 0;
#X connect 0 0 14 0;
#X connect 0 0 17 0;
#X connect 3 0 1 0;
#X connect 4 0 10 1;
#X connect 5 0 21 0;
#X connect 6 0 11 0;
#X connect 8 0 19 3;
#X connect 10 0 1 0;
#X connect 10 0 6 0;
#X connect 10 0 15 0;
#X connect 10 0 16 0;
#X connect 11 0 19 0;
#X connect 12 0 13 0;
#X connect 12 0 23 0;
#X connect 13 0 8 0;
#X connect 14 0 15 0;
#X connect 15 0 19 1;
#X connect 16 0 19 2;
#X connect 17 0 16 0;
#X connect 18 0 10 0;
#X connect 19 0 20 0;
#X connect 20 0 7 0;
#X connect 21 0 4 0;
#X connect 21 1 1 0;
#X connect 21 1 18 0;
#X connect 21 2 9 0;
#X connect 23 0 7 0;
#X coords 0 -1 1 1 200 154 2 33 119;
