#N canvas 1920 30 1920 1050 10;
#X obj 308 31 inlet~;
#X obj 393 223 tabwrite~ \$0-view;
#N canvas 0 50 450 300 (subpatch) 0;
#X array \$0-view 500 float 0;
#X coords 0 1 499 -1 200 140 1;
#X restore 33 133 graph;
#X obj 393 174 clip~ -2 2;
#X obj 197 119 nbx 3 14 11 900 0 0 empty \$0-refresh cur:0
max:0
min:0
-163 33 0 10 -262144 -1 -258699 75 256;
#X obj 380 11 inlet;
#X obj 308 336 snapshot~;
#X obj 308 465 s \$0-refresh;
#X obj 427 410 makefilename %c;
#X obj 184 119 bng 14 250 50 0 \$0-reset empty r 3 6 0 10 -262144 -1
-1;
#X obj 534 123 metro 75;
#X obj 427 372 loadbang;
#X msg 427 391 10;
#N canvas 1920 30 1920 1050 max 0;
#X obj 434 169 delread~ \$0-max 1;
#X obj 325 255 *~;
#X obj 434 283 *~;
#X obj 449 241 *~ -1;
#X obj 449 262 +~ 1;
#X obj 434 370 delwrite~ \$0-max 1;
#X obj 434 312 *~ 1;
#X msg 498 338 1;
#X msg 505 272 0;
#X obj 498 319 del;
#X msg 498 300 2;
#X obj 326 174 inlet~;
#X obj 446 198 outlet~;
#X obj 498 248 r \$0-reset;
#X obj 340 205 expr~ $v1>=$v2;
#X connect 0 0 2 0;
#X connect 0 0 12 0;
#X connect 0 0 14 1;
#X connect 1 0 6 0;
#X connect 2 0 6 0;
#X connect 3 0 4 0;
#X connect 4 0 2 1;
#X connect 6 0 5 0;
#X connect 7 0 6 1;
#X connect 8 0 6 1;
#X connect 9 0 7 0;
#X connect 10 0 9 0;
#X connect 11 0 1 0;
#X connect 11 0 14 0;
#X connect 13 0 8 0;
#X connect 13 0 10 0;
#X connect 14 0 1 1;
#X connect 14 0 3 0;
#X restore 368 317 pd max;
#X obj 368 336 snapshot~;
#X obj 428 336 snapshot~;
#N canvas 1920 50 1920 1050 min 0;
#X obj 325 255 *~;
#X obj 434 283 *~;
#X obj 449 241 *~ -1;
#X obj 449 262 +~ 1;
#X obj 434 312 *~ 1;
#X msg 498 338 1;
#X msg 505 272 0;
#X obj 498 319 del;
#X msg 498 300 2;
#X obj 326 174 inlet~;
#X obj 446 198 outlet~;
#X obj 498 248 r \$0-reset;
#X obj 434 169 delread~ \$0-min 1;
#X obj 434 370 delwrite~ \$0-min 1;
#X obj 340 205 expr~ $v1<$v2;
#X connect 0 0 4 0;
#X connect 1 0 4 0;
#X connect 2 0 3 0;
#X connect 3 0 1 1;
#X connect 4 0 13 0;
#X connect 5 0 4 1;
#X connect 6 0 4 1;
#X connect 7 0 5 0;
#X connect 8 0 7 0;
#X connect 9 0 0 0;
#X connect 9 0 14 0;
#X connect 11 0 6 0;
#X connect 11 0 8 0;
#X connect 12 0 1 0;
#X connect 12 0 10 0;
#X connect 12 0 14 1;
#X connect 14 0 0 1;
#X connect 14 0 2 0;
#X restore 428 317 pd min;
#X obj 308 427 pack f f f s;
#X obj 380 30 route float bang reset;
#X text 688 88 view~ - waveform display with running max and min;
#X text 688 120 click the "r" bang or send a "reset" message to the
second inlet to reset the running maximum and minimum.;
#X obj 534 79 loadbang;
#X obj 534 192 t b b;
#X obj 423 98 threshold~ 0 75;
#X obj 142 119 hradio 14 1 0 3 \$0-mode empty empty 0 -8 0 10 -262144
-1 -1 0;
#X obj 534 173 spigot 1;
#X obj 588 173 spigot 0;
#X obj 579 154 == 0;
#X obj 633 154 == 1;
#X msg 142 96 2;
#X obj 605 126 r \$0-mode;
#X msg 308 446 label cur:\$1\$4max:\$2\$4min:\$3;
#X obj 570 429 loadbang;
#X msg 570 448 75;
#X text 632 247 [nbx] seems to have some bugs?;
#X msg 623 223 label_pos -163 33 \, range 11 900 \, size 3 14 \, color
0 22 13;
#X connect 0 0 3 0;
#X connect 0 0 6 0;
#X connect 0 0 13 0;
#X connect 0 0 16 0;
#X connect 0 0 23 0;
#X connect 3 0 1 0;
#X connect 4 0 10 1;
#X connect 5 0 18 0;
#X connect 6 0 17 0;
#X connect 8 0 17 3;
#X connect 10 0 25 0;
#X connect 11 0 12 0;
#X connect 12 0 8 0;
#X connect 13 0 14 0;
#X connect 14 0 17 1;
#X connect 15 0 17 2;
#X connect 16 0 15 0;
#X connect 17 0 31 0;
#X connect 18 0 4 0;
#X connect 18 1 29 0;
#X connect 18 1 22 0;
#X connect 18 2 9 0;
#X connect 21 0 10 0;
#X connect 22 0 1 0;
#X connect 22 0 6 0;
#X connect 22 1 15 0;
#X connect 22 1 14 0;
#X connect 23 0 26 0;
#X connect 25 0 22 0;
#X connect 26 0 22 0;
#X connect 27 0 25 1;
#X connect 28 0 26 1;
#X connect 29 0 24 0;
#X connect 30 0 28 0;
#X connect 30 0 27 0;
#X connect 30 0 35 0;
#X connect 31 0 7 0;
#X connect 32 0 33 0;
#X connect 33 0 7 0;
#X connect 35 0 7 0;
#X coords 0 -1 1 1 200 154 2 33 119;
