#N canvas 0 0 2560 1566 10;
#X obj 100 265 cnv 18 150 71 empty \$0-cnv empty 1 35 0 10 #28f4f4 #202020 0;
#N canvas 1920 30 1440 1586 history 0;
#X obj 164 64 inlet;
#X obj 390 303 outlet;
#X msg 205 124 symbol bang;
#X obj 164 144 list prepend list;
#X obj 455 165 loadbang;
#X msg 343 219 add2 \$1 \, bang;
#X msg 455 214 set \, add2 \$1 \, add2 \$1 \, add2 \$1 \, add2 \$1 \, add2 \$1;
#X obj 455 194 spacesym;
#X obj 343 273 list split 1;
#X obj 377 323 list prepend set list;
#X obj 377 343 list trim;
#X msg 246 104 list symbol \$1;
#X obj 439 144 symbol;
#X obj 343 144 makefilename %s;
#X obj 520 166 r \$0-clear;
#X obj 164 84 route list bang symbol float;
#X msg 343 253 \  \  \  \  \ ;
#X obj 343 175 list2symbol;
#X connect 0 0 15 0;
#X connect 2 0 5 0;
#X connect 3 0 17 0;
#X connect 4 0 7 0;
#X connect 5 0 16 0;
#X connect 6 0 16 0;
#X connect 7 0 6 0;
#X connect 8 1 1 0;
#X connect 8 1 9 0;
#X connect 9 0 10 0;
#X connect 10 0 16 0;
#X connect 11 0 17 0;
#X connect 12 0 5 0;
#X connect 13 0 5 0;
#X connect 14 0 7 0;
#X connect 15 0 3 0;
#X connect 15 1 2 0;
#X connect 15 2 11 0;
#X connect 15 3 17 0;
#X connect 15 4 17 0;
#X connect 16 0 8 0;
#X connect 17 0 5 0;
#X restore 306 366 pd history;
#X obj 296 263 inlet;
#N canvas 1440 0 1440 1586 cnv 0;
#X obj 156 153 loadbang;
#X obj 63 316 s \$0-cnv;
#X obj 63 158 inlet;
#X msg 63 249 label \$1;
#X obj 156 210 makefilename %c;
#X msg 156 190 10;
#X text 223 261 when you use font 0 and size 12 \, each line will be 14 pixels high. so if you want to make this bigger you'll just have to change vis_size and a few of the numbers in the "history" subpatch.;
#X obj 252 153 r \$0-clear;
#X obj 63 229 list2symbol;
#X msg 252 204 color 17 12 12 \, label_font 0 10 \, label_pos 1 35 \, label \, vis_size 150 71;
#X connect 0 0 9 0;
#X connect 0 0 5 0;
#X connect 2 0 8 0;
#X connect 3 0 1 0;
#X connect 4 0 8 1;
#X connect 5 0 4 0;
#X connect 7 0 5 0;
#X connect 7 0 9 0;
#X connect 8 0 3 0;
#X connect 9 0 1 0;
#X restore 306 386 pd cnv;
#X obj 235 250 tgl 15 0 \$0-spigot \$0-spigot-r empty 17 7 0 10 #f8fc00 #000000 #000000 0 1;
#X obj 296 286 spigot;
#X obj 415 263 inlet;
#X obj 205 250 bng 15 250 50 0 \$0-clear \$0-clear-r clr 2 8 0 6 #fcc4c4 #000000 #000000;
#X text 22 26 Basically just a scrolling view of its input. Sometimes it's more convenient than [print].;
#X obj 220 250 bng 15 250 50 0 empty \$0-bang-r empty 0 -9 0 10 #c6ffc7 #000000 #000000;
#X obj 415 286 route clear spigot;
#X obj 415 332 s \$0-clear-r;
#X obj 415 310 bang;
#X obj 467 310 s \$0-spigot-r;
#X obj 321 321 bang;
#X obj 321 343 s \$0-bang-r;
#X obj 453 241 loadbang;
#X msg 453 263 spigot 1;
#X obj 334 263 r \$0-spigot;
#X obj 296 418 outlet;
#X text 22 108 The right inlet accepts "clear" to clear the display \, and "spigot" with an argument to enable/disable input processing/passing.;
#X text 22 66 Send messages to the left inlet to have them displayed and passed through to the outlet when the spigot is enabled.;
#X text 22 163 The "clr" button clears the display \, and the yellow toggle enables/disables the spigot. The green button just flashes when input is received and passed.;
#X text 21 4 view - View incoming messages.;
#X connect 1 0 3 0;
#X connect 2 0 5 0;
#X connect 5 0 1 0;
#X connect 5 0 14 0;
#X connect 5 0 19 0;
#X connect 6 0 10 0;
#X connect 10 0 12 0;
#X connect 10 1 13 0;
#X connect 12 0 11 0;
#X connect 14 0 15 0;
#X connect 16 0 17 0;
#X connect 17 0 10 0;
#X connect 18 0 5 1;
#X coords 0 -1 1 1 150 86 1 100 250;
