#N canvas 1920 30 2560 1566 10;
#X obj 103 100 hsl 128 15 -1 1 0 0 empty empty 0.000000000 -2 8 0 10 #fcfcfc #000000 #fc0400 0 1;
#X obj 100 41 unsig~ 30;
#X obj 100 22 inlet~;
#X msg 110 81 label \$1;
#X obj 110 62 makefilename %0.9f;
#X obj 48 62 outlet~;
#X connect 1 0 0 0;
#X connect 1 0 4 0;
#X connect 2 0 1 0;
#X connect 2 0 5 0;
#X connect 3 0 0 0;
#X connect 4 0 3 0;
#X coords 0 -1 1 1 133 15 2 100 100;
