#N canvas 1920 30 1920 1050 10;
#X obj 103 100 hsl 128 15 -1 1 0 0 empty empty 0.447901338 -2 8 0 10
-262144 -1 -258113 9194 1;
#X obj 80 41 unsig~ 30;
#X obj 80 22 inlet~;
#X msg 100 81 label \$1;
#X obj 100 62 makefilename %0.9f;
#X connect 1 0 0 0;
#X connect 1 0 4 0;
#X connect 2 0 1 0;
#X connect 3 0 0 0;
#X connect 4 0 3 0;
#X coords 0 -1 1 1 133 15 2 100 100;
