#N canvas 0 29 1600 849 10;
#X obj 51 70 inlet~;
#X obj 100 70 inlet;
#X obj 147 70 inlet~;
#X obj 147 135 *~ 0;
#X obj 51 135 *~ 1;
#X obj 100 100 hradio 15 1 0 2 empty empty empty 0 -8 0 10 -260097
-1 -1 0;
#X obj 100 135 kinv;
#X obj 99 200 outlet~;
#X connect 0 0 4 0;
#X connect 1 0 5 0;
#X connect 2 0 3 0;
#X connect 3 0 7 0;
#X connect 4 0 7 0;
#X connect 5 0 6 0;
#X connect 5 0 3 1;
#X connect 6 0 4 1;
#X coords 0 -1 1 1 30 15 2 100 100;
