#N canvas 1920 30 1920 1050 10;
#X obj 295 423 outlet;
#X text 417 37 args: 1 - midi control number;
#X obj 279 35 dollarg;
#X obj 279 54 list-drip;
#X obj 279 73 t b a;
#X msg 279 92 1;
#X obj 306 126 spigot 0;
#X text 368 127 <-- we only want arguments after the first...;
#X obj 306 145 route float symbol;
#X obj 141 258 mrange 127;
#X text 416 59 2 - B for bang on 127 \, number to change the range
(from zero to that number) or a symbol to prefix the numbers with that
symbol.;
#X obj 182 286 spigot 1;
#X obj 236 286 spigot 0;
#X msg 447 279 set \, add2 \$1 \, adddollar 1;
#X msg 295 404 \$1;
#X msg 358 206 0;
#X msg 358 225 1;
#X obj 24 90 r c;
#X obj 24 109 route \$1;
#X obj 123 215 hsl 77 14 0 127 0 0 empty empty v0 -2 8 0 10 -159808
-1 -262144 0 1;
#X obj 78 90 r c-\$1;
#X obj 120 90 r c\$1;
#X obj 156 90 ctlin \$1;
#N canvas 1680 50 800 871 relabs 0;
#X obj 174 167 inlet;
#X obj 195 256 >= 64;
#X obj 195 309 sel 0;
#X msg 195 328 -1;
#X obj 174 516 outlet;
#X obj 222 410 f;
#X obj 237 391 r \$0-n;
#X obj 234 439 +;
#X obj 222 372 t b f;
#X msg 174 205 \$2 \$1;
#X obj 174 186 pack 0 0;
#X obj 219 167 r \$0-rel;
#X obj 231 256 <= 64;
#X obj 174 224 route 0 1 2;
#X text 279 161 0 = absolute mode. 1 = relative mode. 2 = inverted
relative mode.;
#X floatatom 262 493 5 0 0 0 - - -, f 5;
#X floatatom 288 430 5 0 0 0 - - -, f 5;
#X connect 0 0 10 0;
#X connect 1 0 2 0;
#X connect 2 0 3 0;
#X connect 2 1 8 0;
#X connect 3 0 8 0;
#X connect 5 0 7 0;
#X connect 6 0 5 1;
#X connect 6 0 16 0;
#X connect 7 0 4 0;
#X connect 8 0 5 0;
#X connect 8 1 7 1;
#X connect 8 1 15 0;
#X connect 9 0 13 0;
#X connect 10 0 9 0;
#X connect 11 0 10 1;
#X connect 12 0 2 0;
#X connect 13 0 4 0;
#X connect 13 1 1 0;
#X connect 13 2 12 0;
#X restore 156 128 pd relabs;
#X msg 377 244 1;
#X obj 377 263 s \$0-rel;
#X obj 63 240 s \$0-n;
#X obj 206 157 inlet;
#X obj 236 241 sel 127;
#X obj 358 187 sel B R I;
#X msg 392 225 2;
#X msg 182 403 label v\$1;
#X obj 419 386 loadbang;
#X obj 279 16 loadbang;
#X msg 419 405 set \, adddollar 1;
#X obj 127 353 loadbang;
#X msg 127 372 0;
#X obj 182 422 s \$0-c;
#X obj 35 182 r \$0-c;
#X obj 120 233 round;
#X connect 2 0 3 0;
#X connect 3 0 4 0;
#X connect 4 0 5 0;
#X connect 4 1 6 0;
#X connect 5 0 6 1;
#X connect 6 0 8 0;
#X connect 8 0 9 1;
#X connect 8 1 29 0;
#X connect 9 0 11 0;
#X connect 11 0 14 0;
#X connect 11 0 31 0;
#X connect 12 0 14 0;
#X connect 13 0 14 0;
#X connect 14 0 0 0;
#X connect 15 0 11 1;
#X connect 16 0 12 1;
#X connect 17 0 18 0;
#X connect 18 0 19 0;
#X connect 19 0 26 0;
#X connect 19 0 28 0;
#X connect 19 0 39 0;
#X connect 20 0 19 0;
#X connect 21 0 19 0;
#X connect 22 0 23 0;
#X connect 23 0 19 0;
#X connect 24 0 25 0;
#X connect 27 0 19 0;
#X connect 28 0 12 0;
#X connect 29 0 15 0;
#X connect 29 0 16 0;
#X connect 29 1 24 0;
#X connect 29 2 30 0;
#X connect 29 3 13 0;
#X connect 30 0 25 0;
#X connect 31 0 37 0;
#X connect 32 0 34 0;
#X connect 33 0 2 0;
#X connect 34 0 14 0;
#X connect 35 0 36 0;
#X connect 36 0 31 0;
#X connect 38 0 19 0;
#X connect 39 0 9 0;
#X coords 0 -1 1 1 82 29 1 120 200;
