#N canvas 0 0 1600 849 10;
#X obj 138 100 hsl 15 15 0 127 0 0 empty empty empty -2 -8 0 10 -159808
-1 -1 0 1;
#X obj 135 234 outlet;
#X obj 268 9 symbol \$2;
#X msg 135 213 bang;
#X msg 197 112 set bang;
#X obj 135 122 sel 127;
#X obj 54 149 spigot 1;
#X obj 108 149 spigot 0;
#X msg 247 132 1;
#X msg 275 132 0;
#X msg 299 173 set \, adddollar 1;
#X obj 135 42 ctlin \$1;
#X obj 93 42 r c-\$1;
#X obj 39 23 r c;
#X obj 39 42 route \$1;
#X obj 268 -10 loadbang;
#X msg 331 131 set \, add2 \$1 \, adddollar 1;
#X obj 268 28 sel b 0;
#X obj 64 78 f \$2;
#X obj 64 97 sel 0;
#X obj 54 130 mrange 127;
#X text 364 18 args: 1 - midi control number;
#X text 394 39 2 - b for bang on 127 \, number to change the range
(from zero to that number) or a symbol to prefix the numbers with that
symbol.;
#X connect 0 0 5 0;
#X connect 0 0 20 0;
#X connect 2 0 17 0;
#X connect 3 0 1 0;
#X connect 4 0 3 0;
#X connect 5 0 7 0;
#X connect 6 0 3 0;
#X connect 7 0 3 0;
#X connect 8 0 7 1;
#X connect 9 0 6 1;
#X connect 10 0 3 0;
#X connect 11 0 0 0;
#X connect 12 0 0 0;
#X connect 13 0 14 0;
#X connect 14 0 0 0;
#X connect 15 0 2 0;
#X connect 16 0 3 0;
#X connect 17 0 8 0;
#X connect 17 0 9 0;
#X connect 17 0 4 0;
#X connect 17 1 10 0;
#X connect 17 1 18 0;
#X connect 17 2 16 0;
#X connect 18 0 19 0;
#X connect 19 1 20 1;
#X connect 20 0 6 0;
#X coords 0 -1 1 1 55 15 1 100 100;
