#N canvas 0 29 1600 849 10;
#X obj 130 -4 keyname;
#X obj 130 100 tgl 15 0 empty empty empty 17 7 0 10 -262144 -1 -1 0
1;
#X obj 130 157 outlet;
#X obj 130 138 f;
#X obj 21 101 inlet;
#X obj 130 76 sel Caps_Lock;
#X obj 130 19 pack f s;
#X obj 130 38 route 1;
#X obj 130 57 symbol;
#X connect 0 0 6 0;
#X connect 0 1 6 1;
#X connect 1 0 3 0;
#X connect 3 0 2 0;
#X connect 4 0 3 0;
#X connect 5 0 1 0;
#X connect 6 0 7 0;
#X connect 7 0 8 0;
#X connect 8 0 5 0;
#X coords 0 -1 1 1 65 15 1 80 100;
