#N canvas 0 0 2560 1566 10;
#X obj 136 29 bendin \$1;
#X obj 136 48 / 129;
#X obj 136 167 outlet;
#X obj 136 102 vsl 15 20 0 127 0 0 empty empty empty 0 -9 0 10 #9c00fc #000000 #000000 0 1;
#X floatatom 192 75 5 0 0 0 - - - 0;
#X obj 145 137 mrange \$1;
#X connect 0 0 1 0;
#X connect 1 0 3 0;
#X connect 1 0 4 0;
#X connect 3 0 2 0;
#X coords 0 -1 1 1 51 25 1 100 100;
