#N canvas 1680 29 1600 871 10;
#X obj 376 101 inlet;
#X obj 280 61 mc l;
#X obj 280 85 route name;
#X obj 289 312 hsl 128 15 0 127 0 0 empty empty le:127 -2 7 0 10 -4032
-1 -1 12700 1;
#X symbolatom 205 179 10 0 0 0 - - -;
#X obj 436 303 pack f s;
#X obj 501 276 outlet;
#X obj 280 110 symbol;
#X obj 365 223 t b a;
#X obj 376 141 line;
#X obj 463 239 nop;
#X msg 436 322 label \$2:\$1 \, set \$1;
#X connect 0 0 9 0;
#X connect 1 0 2 0;
#X connect 2 0 7 0;
#X connect 2 1 9 0;
#X connect 3 0 9 0;
#X connect 5 0 11 0;
#X connect 7 0 4 0;
#X connect 7 0 8 0;
#X connect 8 0 3 0;
#X connect 8 1 5 1;
#X connect 9 0 10 0;
#X connect 10 0 6 0;
#X connect 10 0 5 0;
#X connect 11 0 3 0;
#X coords 0 -1 1 1 133 30 1 286 297;
