#N canvas 0 0 2560 1566 10;
#X obj 250 414 outlet~;
#X obj 120 263 inlet~;
#X obj 250 263 inlet~;
#X obj 325 210 bng 15 250 50 0 \$0-bang \$0-bang-r empty 17 7 0 10 #fcfcfc #000000 #000000;
#X obj 253 225 hsl 85 13 0 1 0 0 \$0-mix \$0-mix-r empty -2 -8 0 10 #fcfcfc #000000 #000000 0 1;
#X obj 201 320 kinv;
#X obj 120 359 *~ 1;
#X obj 250 359 *~ 0;
#X obj 201 287 r \$0-mix;
#X obj 377 280 s \$0-control;
#N canvas 0 0 2560 1566 internals 0;
#X floatatom 418 263 5 0 9999 1 time_to_auto_move_to_other_side - - 0;
#X obj 325 354 pack float float;
#X obj 340 314 kinv;
#X obj 325 425 line;
#X obj 325 334 f 1;
#X obj 265 227 sel 127;
#X obj 325 374 t a b;
#X obj 352 394 f;
#X obj 304 247 clip 0 1;
#X obj 367 374 r \$0-mix;
#X obj 340 295 r \$0-mix;
#X obj 325 447 s \$0-mix-r;
#X obj 304 269 s \$0-mix-r;
#X obj 285 149 r \$0-control;
#X obj 280 295 r \$0-bang;
#X obj 230 254 s \$0-bang-r;
#X obj 418 225 sel 0;
#X obj 418 206 init \$2;
#X msg 418 244 2000;
#X obj 271 424 init \$1;
#X obj 285 168 route mix mmix time bang;
#X obj 320 187 / 127;
#X connect 0 0 1 1;
#X connect 1 0 6 0;
#X connect 2 0 4 1;
#X connect 3 0 11 0;
#X connect 4 0 1 0;
#X connect 5 0 15 0;
#X connect 5 1 8 0;
#X connect 6 0 3 0;
#X connect 6 1 7 0;
#X connect 7 0 3 0;
#X connect 8 0 12 0;
#X connect 9 0 7 1;
#X connect 10 0 2 0;
#X connect 13 0 20 0;
#X connect 14 0 4 0;
#X connect 16 0 18 0;
#X connect 16 1 0 0;
#X connect 17 0 16 0;
#X connect 18 0 0 0;
#X connect 19 0 11 0;
#X connect 20 0 5 0;
#X connect 20 1 21 0;
#X connect 20 2 0 0;
#X connect 20 3 4 0;
#X connect 21 0 8 0;
#X restore 156 219 pd internals;
#X text 380 131 The [bng] can be used to glide the fader to the other side over a set period of time (default: 2s). A "time" message to any inlet~ can be used to set the glide time \, while a float can be used to set the glide amount (0 for 100% left \, 1 for 100% right).;
#X text 377 216 See also: scrossfade~;
#X obj 321 320 inlet~;
#X text 377 93 crossfade~ - Graphical mono crossfader.;
#X text 367 319 <-- DEPRECATED/DUMMY INLET WHICH WILL BE REMOVED IN THE FUTURE;
#X connect 1 0 6 0;
#X connect 1 1 9 0;
#X connect 2 0 7 0;
#X connect 2 1 9 0;
#X connect 5 0 6 1;
#X connect 6 0 0 0;
#X connect 7 0 0 0;
#X connect 8 0 5 0;
#X connect 8 0 7 1;
#X coords 0 -1 1 1 90 30 1 250 210;
