#N canvas 1920 32 1920 1048 10;
#X obj 247 441 outlet~;
#X obj 117 330 inlet~;
#X obj 248 331 inlet~;
#X floatatom 298 210 4 0 9999 0 - - -;
#X obj 325 210 bng 15 250 50 0 empty empty empty 17 7 0 10 -262144
-1 -1;
#X obj 253 225 hsl 85 13 0 1 0 0 empty empty empty -2 -8 0 10 -262144
-1 -1 0 1;
#X obj 394 384 pack float float;
#X obj 216 49 inlet;
#X obj 235 179 lb \$1;
#X obj 164 324 kinv;
#X obj 409 344 kinv;
#X obj 394 455 line;
#X obj 394 364 f 1;
#X obj 143 382 *~ 1;
#X obj 247 386 *~ 0;
#X obj 182 107 sel 127;
#X obj 326 140 lb \$2 2000;
#X obj 216 69 route float time bang;
#X obj 394 404 t a b;
#X obj 421 424 f;
#X obj 175 155 clip 0 1;
#X connect 1 0 13 0;
#X connect 2 0 14 0;
#X connect 3 0 6 1;
#X connect 4 0 12 0;
#X connect 5 0 9 0;
#X connect 5 0 10 0;
#X connect 5 0 14 1;
#X connect 5 0 19 1;
#X connect 6 0 18 0;
#X connect 7 0 17 0;
#X connect 8 0 5 0;
#X connect 9 0 13 1;
#X connect 10 0 12 1;
#X connect 11 0 5 0;
#X connect 12 0 6 0;
#X connect 13 0 0 0;
#X connect 14 0 0 0;
#X connect 15 0 4 0;
#X connect 15 1 20 0;
#X connect 16 0 3 0;
#X connect 17 0 15 0;
#X connect 17 1 3 0;
#X connect 17 2 4 0;
#X connect 18 0 11 0;
#X connect 18 1 19 0;
#X connect 19 0 11 0;
#X connect 20 0 5 0;
#X coords 0 -1 1 1 90 30 1 250 210;
