#N canvas 1680 29 1600 871 10;
#X obj 150 186 tgl 15 0 empty empty empty 17 7 0 10 -262144 -1 -1 0
1;
#X text 167 182 this should be an X when edit mode is ON;
#X obj 150 208 outlet;
#X obj 195 148 route editmode;
#X obj 195 129 receive13;
#X msg 195 110 set \$1;
#X obj 168 91 t a a;
#X obj 150 -38 loadbang;
#X obj 177 0 f \$1;
#X obj 177 19 sel 0;
#X obj 168 72 window_name;
#X msg 168 45 1;
#X msg 41 127 \; \$1 editmode \, editmode;
#X obj 150 -19 t b b;
#X obj 228 -32 inlet;
#X text -312 205 i originally thought that toggling edit mode twice
would be an easy way to determine whether it's active in a certain
patch but i realized that has strange side-effects so i disabled it.
;
#X text -312 124 edit mode is active by default on new patches and
inactive by default on loaded patches. we assume that edit mode is
active since that's the more common case. it's also less likely to
cause unwanted things to happen since usually you'll want to disable
functions when edit mode is on.;
#X connect 0 0 2 0;
#X connect 3 0 0 0;
#X connect 4 0 3 0;
#X connect 5 0 4 0;
#X connect 6 1 5 0;
#X connect 7 0 13 0;
#X connect 8 0 9 0;
#X connect 9 0 11 0;
#X connect 9 1 10 0;
#X connect 10 0 6 0;
#X connect 11 0 10 0;
#X connect 13 0 0 0;
#X connect 13 1 8 0;
#X connect 14 0 8 0;
#X coords 0 -1 1 1 67 17 1 98 186;
