#N canvas 0 29 1600 849 10;
#X obj 129 190 inputd;
#X obj 132 99 keyname;
#X obj 129 120 pack f s;
#X obj 129 143 route 1;
#X symbolatom 28 241 30 0 0 0 - - -;
#X symbolatom 99 285 30 0 0 0 - - -;
#X floatatom 162 209 5 0 0 0 - - -;
#X text 330 115 inputd - input accumulator deluxe;
#X obj 129 167 spigot;
#X obj 171 167 tgl 15 0 empty empty empty 17 7 0 10 -262144 -1 -1 0
1;
#X text 315 174 this is similar to [input] in that it allows you to
build up a line of text by sending keynames to be accumulated \, but
it also includes the feature of a "cursor" within the line \, whose
position is sent to the third outlet. you can thus delete characters
at the start of the line (press up and then delete) without having
to backspace through the whole line.;
#X obj 99 387 s2l;
#X obj 131 351 makefilename %c;
#X obj 131 313 loadbang;
#X msg 131 332 1;
#X msg 131 370 symbol \$1;
#X obj 99 406 print inputd;
#X connect 0 0 4 0;
#X connect 0 1 5 0;
#X connect 0 2 6 0;
#X connect 1 0 2 0;
#X connect 1 1 2 1;
#X connect 2 0 3 0;
#X connect 3 0 8 0;
#X connect 5 0 11 0;
#X connect 8 0 0 0;
#X connect 9 0 8 1;
#X connect 11 0 16 0;
#X connect 12 0 15 0;
#X connect 13 0 14 0;
#X connect 14 0 12 0;
#X connect 15 0 11 1;
