#N canvas 0 0 1600 849 10;
#X obj 265 38 inlet;
#X obj 346 76 symbol;
#X obj 346 95 sel Return BackSpace;
#X obj 265 57 route bang set;
#X msg 272 244 list;
#X msg 463 133 add2 \$1 \, bang;
#X obj 314 360 l2s;
#X msg 338 360 symbol;
#X obj 384 360 loadbang;
#X obj 272 285 prepent p;
#X obj 272 304 route p b r;
#X obj 265 169 t b b b;
#X msg 304 188 r;
#X msg 237 188 p;
#N canvas 0 0 800 849 backspace 0;
#X obj 167 148 inlet;
#X obj 224 186 list-splat -1;
#X obj 224 300 outlet;
#X obj 263 281 outlet;
#X obj 224 243 t b a b;
#X msg 263 262 p;
#X obj 224 205 list prepend set list;
#X obj 224 224 list trim;
#X obj 167 167 route bang;
#X connect 0 0 8 0;
#X connect 1 0 6 0;
#X connect 4 0 2 0;
#X connect 4 1 2 0;
#X connect 4 2 5 0;
#X connect 5 0 3 0;
#X connect 6 0 7 0;
#X connect 7 0 4 0;
#X connect 8 0 5 0;
#X connect 8 1 1 0;
#X restore 293 323 pd backspace;
#X obj 404 114 t b b;
#X msg 431 133 b;
#X obj 248 360 l2s;
#X msg 265 207 set list;
#X obj 248 398 outlet;
#X obj 314 398 outlet;
#N canvas 0 0 800 849 reset 0;
#X obj 296 244 inlet;
#X obj 296 358 outlet;
#X obj 296 301 t b a b;
#X obj 296 263 list prepend set list;
#X obj 296 282 list trim;
#X obj 335 339 outlet;
#X msg 335 320 p;
#X connect 0 0 3 0;
#X connect 2 0 1 0;
#X connect 2 1 1 0;
#X connect 2 2 6 0;
#X connect 3 0 4 0;
#X connect 4 0 2 0;
#X connect 6 0 5 0;
#X restore 305 114 pd reset;
#N canvas 0 0 1600 849 nump 0;
#X obj 207 216 inlet;
#X obj 258 449 outlet;
#X obj 207 235 fromsymbol;
#X msg 207 292 symbol .;
#X obj 207 254 unmap 0 1 2 3 4 5 6 7 8 9 . -;
#X obj 207 273 sel 10 11;
#X msg 232 311 symbol -;
#X obj 207 368 spigot 1;
#X obj 252 349 kinv;
#X obj 232 406 spigot 1;
#X obj 277 387 kinv;
#X obj 252 330 lb \$1;
#X obj 277 368 lb \$2;
#X connect 0 0 2 0;
#X connect 2 0 4 0;
#X connect 3 0 7 0;
#X connect 4 0 5 0;
#X connect 5 0 3 0;
#X connect 5 1 6 0;
#X connect 5 2 1 0;
#X connect 6 0 9 0;
#X connect 7 0 1 0;
#X connect 8 0 7 1;
#X connect 9 0 1 0;
#X connect 10 0 9 1;
#X connect 11 0 8 0;
#X connect 12 0 10 0;
#X restore 463 114 pd nump;
#X text -41 135 see also: input \, inputd (deluxe input editor);
#X obj 160 194 loadbang;
#X obj 314 379 fromsymbol;
#X text -40 39 inputn - simple input accumulator for numbers. send
keynames to the inlet. Return will send the whole symbol to the right
outlet. the left outlet will show a preview of what is currently accumulated.
if the first argument is 1 \, only allow integers. if second argument
is 1 \, only allow positive numbers.;
#X connect 0 0 3 0;
#X connect 1 0 2 0;
#X connect 2 0 11 0;
#X connect 2 1 15 0;
#X connect 2 2 22 0;
#X connect 3 0 11 0;
#X connect 3 1 21 0;
#X connect 3 2 1 0;
#X connect 4 0 9 0;
#X connect 5 0 4 0;
#X connect 6 0 25 0;
#X connect 7 0 6 1;
#X connect 7 0 17 1;
#X connect 8 0 7 0;
#X connect 9 0 10 0;
#X connect 10 0 17 0;
#X connect 10 1 14 0;
#X connect 10 2 6 0;
#X connect 11 0 18 0;
#X connect 11 0 13 0;
#X connect 11 1 4 0;
#X connect 11 2 12 0;
#X connect 12 0 9 1;
#X connect 13 0 9 1;
#X connect 14 0 4 0;
#X connect 14 1 9 1;
#X connect 15 0 4 0;
#X connect 15 1 16 0;
#X connect 16 0 9 1;
#X connect 17 0 19 0;
#X connect 18 0 4 0;
#X connect 21 0 4 0;
#X connect 21 1 9 1;
#X connect 22 0 5 0;
#X connect 24 0 18 0;
#X connect 25 0 20 0;
