#N canvas 0 29 1600 849 10;
#X obj 355 38 inlet;
#X obj 436 76 symbol;
#X obj 355 57 route bang set;
#X obj 404 420 l2s;
#X msg 428 420 symbol;
#X obj 474 420 loadbang;
#X obj 362 315 prepent p;
#X obj 355 169 t b b b;
#X msg 394 188 r;
#X msg 327 188 p;
#N canvas 0 0 800 849 control-charp 0;
#X obj 207 216 inlet;
#X obj 258 273 chars;
#X obj 258 292 t a a;
#X obj 291 315 list length;
#X obj 291 334 == 1;
#X obj 258 353 spigot;
#X obj 207 235 sel Space;
#X msg 207 254 symbol ;
#X obj 207 421 outlet;
#X text -48 255 here's the symbol we're going to use for spaces-->
;
#X connect 0 0 6 0;
#X connect 1 0 2 0;
#X connect 2 0 5 0;
#X connect 2 1 3 0;
#X connect 3 0 4 0;
#X connect 4 0 5 1;
#X connect 5 0 8 0;
#X connect 6 0 7 0;
#X connect 6 1 1 0;
#X connect 7 0 8 0;
#X restore 709 114 pd control-charp;
#X obj 474 114 t b b;
#X obj 362 420 l2s;
#X msg 355 207 set list;
#X obj 362 439 outlet;
#X obj 404 439 outlet;
#N canvas 0 0 800 849 reset 0;
#X obj 239 92 inlet;
#X obj 296 356 outlet;
#X obj 296 299 t b a b;
#X obj 296 261 list prepend set list;
#X obj 296 280 list trim;
#X obj 335 337 outlet;
#X msg 335 318 p;
#X msg 311 149 symbol ;
#X obj 296 168 l2s;
#X obj 311 130 loadbang;
#X obj 296 187 chars;
#X msg 239 187 list;
#X obj 239 111 route bang;
#X connect 0 0 12 0;
#X connect 2 0 1 0;
#X connect 2 1 1 0;
#X connect 2 2 6 0;
#X connect 3 0 4 0;
#X connect 4 0 2 0;
#X connect 6 0 5 0;
#X connect 7 0 8 1;
#X connect 8 0 10 0;
#X connect 9 0 7 0;
#X connect 10 0 3 0;
#X connect 11 0 3 0;
#X connect 12 0 11 0;
#X connect 12 1 8 0;
#X restore 395 114 pd reset;
#X text -11 134 see also: input (version without cursor) \, inputn
(for numbers).;
#N canvas 0 0 800 849 backspace 0;
#X obj 206 92 inlet;
#X obj 273 368 outlet;
#X obj 312 294 outlet;
#X obj 273 256 t b a b;
#X msg 312 275 p;
#X obj 316 111 inlet;
#X obj 273 237 list-delete 0 1;
#X obj 206 111 route bang b d;
#X obj 292 313 list prepend set list;
#X obj 292 332 list trim;
#X connect 0 0 7 0;
#X connect 3 0 1 0;
#X connect 3 1 8 0;
#X connect 3 2 4 0;
#X connect 4 0 2 0;
#X connect 5 0 6 1;
#X connect 6 0 3 0;
#X connect 7 0 4 0;
#X connect 7 1 6 0;
#X connect 7 2 6 0;
#X connect 8 0 9 0;
#X connect 9 0 1 0;
#X restore 425 353 pd backspace;
#N canvas 0 0 800 849 cursor 0;
#X obj 60 117 inlet;
#X obj 110 117 inlet;
#X obj 160 117 inlet;
#X obj 210 117 inlet;
#X obj 116 270 outlet;
#X obj 116 232 accum;
#X obj 225 136 r \$0-length;
#X obj 210 185 f;
#X msg 160 154 0;
#X msg 110 155 1;
#X msg 60 155 -1;
#X obj 60 174 t b f;
#X obj 110 174 t b f;
#X obj 116 251 clip 0;
#X msg 70 232 set \$1;
#X obj 110 136 bang;
#X obj 60 136 bang;
#X obj 225 155 t b f;
#X obj 210 98 r \$0-last;
#X connect 0 0 16 0;
#X connect 1 0 15 0;
#X connect 2 0 8 0;
#X connect 3 0 7 0;
#X connect 5 0 13 0;
#X connect 6 0 17 0;
#X connect 7 0 5 0;
#X connect 8 0 5 0;
#X connect 9 0 12 0;
#X connect 10 0 11 0;
#X connect 11 0 5 0;
#X connect 11 1 5 1;
#X connect 12 0 5 0;
#X connect 12 1 5 1;
#X connect 13 0 14 0;
#X connect 13 0 4 0;
#X connect 14 0 5 0;
#X connect 15 0 9 0;
#X connect 16 0 10 0;
#X connect 17 0 5 0;
#X connect 17 1 7 1;
#X connect 17 1 13 2;
#X connect 18 0 7 0;
#X restore 586 145 pd cursor;
#X obj 254 392 list length;
#X obj 254 411 s \$0-length;
#X obj 545 440 outlet;
#X text -16 41 inputd - deluxe input accumulator and line editor. send
keynames to the inlet. Return will send the whole symbol to the middle
outlet. the left outlet will show a preview of what is currently accumulated.
the right outlet gives the cursor's position within the line. you can
use left and right or up and down to move the cursor. backspace removes
a character.;
#X obj 436 95 sel Return Delete BackSpace Left Right Up Down;
#X msg 553 171 b;
#X msg 501 133 d;
#X msg 362 244 list;
#X obj 514 152 t b b;
#X obj 362 334 route p r a;
#N canvas 0 0 800 849 add 0;
#X obj 130 40 inlet;
#X obj 166 40 inlet;
#X obj 145 167 list-insert;
#X obj 130 59 t b a;
#X obj 145 148 list;
#X obj 202 40 inlet;
#X obj 145 298 outlet;
#X obj 184 224 outlet;
#X obj 145 186 t b a b;
#X msg 184 205 p;
#X obj 164 243 list prepend set list;
#X obj 164 262 list trim;
#X connect 0 0 3 0;
#X connect 1 0 4 1;
#X connect 2 0 8 0;
#X connect 3 0 4 0;
#X connect 3 1 2 2;
#X connect 4 0 2 0;
#X connect 5 0 2 1;
#X connect 8 0 6 0;
#X connect 8 1 10 0;
#X connect 8 2 9 0;
#X connect 9 0 7 0;
#X connect 10 0 11 0;
#X connect 11 0 6 0;
#X restore 404 372 pd add;
#X msg 728 214 a;
#X obj 709 133 t b b b a;
#X connect 0 0 2 0;
#X connect 1 0 24 0;
#X connect 2 0 7 0;
#X connect 2 1 16 0;
#X connect 2 2 1 0;
#X connect 3 0 15 0;
#X connect 4 0 3 1;
#X connect 4 0 12 1;
#X connect 5 0 4 0;
#X connect 6 0 29 0;
#X connect 7 0 13 0;
#X connect 7 0 9 0;
#X connect 7 1 27 0;
#X connect 7 2 8 0;
#X connect 8 0 6 1;
#X connect 9 0 6 1;
#X connect 10 0 32 0;
#X connect 11 0 27 0;
#X connect 11 1 26 0;
#X connect 12 0 14 0;
#X connect 13 0 27 0;
#X connect 16 0 27 0;
#X connect 16 1 6 1;
#X connect 18 0 27 0;
#X connect 18 1 6 1;
#X connect 19 0 22 0;
#X connect 19 0 18 1;
#X connect 19 0 30 2;
#X connect 20 0 21 0;
#X connect 24 0 7 0;
#X connect 24 1 11 0;
#X connect 24 2 28 0;
#X connect 24 3 19 0;
#X connect 24 4 19 1;
#X connect 24 5 19 2;
#X connect 24 6 19 3;
#X connect 24 7 10 0;
#X connect 25 0 6 1;
#X connect 26 0 6 1;
#X connect 27 0 6 0;
#X connect 28 0 27 0;
#X connect 28 1 19 0;
#X connect 28 1 25 0;
#X connect 29 0 12 0;
#X connect 29 0 20 0;
#X connect 29 1 3 0;
#X connect 29 2 30 0;
#X connect 29 3 18 0;
#X connect 30 0 27 0;
#X connect 30 1 6 1;
#X connect 31 0 6 1;
#X connect 32 0 19 1;
#X connect 32 1 27 0;
#X connect 32 2 31 0;
#X connect 32 3 30 1;
