#N canvas 0 29 1600 849 10;
#X obj 345 38 inlet;
#X obj 426 76 symbol;
#X obj 426 95 sel Return BackSpace;
#X obj 345 57 route bang set;
#X msg 352 244 list;
#X msg 543 133 add2 \$1 \, bang;
#X obj 394 360 l2s;
#X msg 418 360 symbol;
#X obj 464 360 loadbang;
#X obj 352 285 prepent p;
#X obj 352 304 route p b r;
#X obj 345 169 t b b b;
#X msg 384 188 r;
#X msg 317 188 p;
#N canvas 0 0 800 849 control-charp 0;
#X obj 207 216 inlet;
#X obj 258 273 chars;
#X obj 258 292 t a a;
#X obj 291 315 list length;
#X obj 291 334 == 1;
#X obj 258 353 spigot;
#X obj 207 235 sel Space;
#X msg 207 254 symbol ;
#X obj 207 421 outlet;
#X text -48 255 here's the symbol we're going to use for spaces-->
;
#X connect 0 0 6 0;
#X connect 1 0 2 0;
#X connect 2 0 5 0;
#X connect 2 1 3 0;
#X connect 3 0 4 0;
#X connect 4 0 5 1;
#X connect 5 0 8 0;
#X connect 6 0 7 0;
#X connect 6 1 1 0;
#X connect 7 0 8 0;
#X restore 543 114 pd control-charp;
#N canvas 0 0 800 849 backspace 0;
#X obj 167 148 inlet;
#X obj 224 186 list-splat -1;
#X obj 224 300 outlet;
#X obj 263 281 outlet;
#X obj 224 243 t b a b;
#X msg 263 262 p;
#X obj 224 205 list prepend set list;
#X obj 224 224 list trim;
#X obj 167 167 route bang;
#X connect 0 0 8 0;
#X connect 1 0 6 0;
#X connect 4 0 2 0;
#X connect 4 1 2 0;
#X connect 4 2 5 0;
#X connect 5 0 3 0;
#X connect 6 0 7 0;
#X connect 7 0 4 0;
#X connect 8 0 5 0;
#X connect 8 1 1 0;
#X restore 373 323 pd backspace;
#X obj 484 114 t b b;
#X msg 511 133 b;
#X obj 352 360 l2s;
#X msg 345 207 set list;
#X obj 352 379 outlet;
#X obj 394 379 outlet;
#X text -6 40 input - simple input accumulator. send keynames to the
inlet. Return will send the whole symbol to the right outlet. the left
outlet will show a preview of what is currently accumulated.;
#N canvas 0 0 800 849 reset 0;
#X obj 296 244 inlet;
#X obj 296 358 outlet;
#X obj 296 301 t b a b;
#X obj 296 263 list prepend set list;
#X obj 296 282 list trim;
#X obj 335 339 outlet;
#X msg 335 320 p;
#X connect 0 0 3 0;
#X connect 2 0 1 0;
#X connect 2 1 1 0;
#X connect 2 2 6 0;
#X connect 3 0 4 0;
#X connect 4 0 2 0;
#X connect 6 0 5 0;
#X restore 385 114 pd reset;
#X text -31 95 see also: inputn (for numbers) \, inputd (deluxe input
editor);
#X connect 0 0 3 0;
#X connect 1 0 2 0;
#X connect 2 0 11 0;
#X connect 2 1 16 0;
#X connect 2 2 14 0;
#X connect 3 0 11 0;
#X connect 3 1 23 0;
#X connect 3 2 1 0;
#X connect 4 0 9 0;
#X connect 5 0 4 0;
#X connect 6 0 21 0;
#X connect 7 0 6 1;
#X connect 7 0 18 1;
#X connect 8 0 7 0;
#X connect 9 0 10 0;
#X connect 10 0 18 0;
#X connect 10 1 15 0;
#X connect 10 2 6 0;
#X connect 11 0 19 0;
#X connect 11 0 13 0;
#X connect 11 1 4 0;
#X connect 11 2 12 0;
#X connect 12 0 9 1;
#X connect 13 0 9 1;
#X connect 14 0 5 0;
#X connect 15 0 4 0;
#X connect 15 1 9 1;
#X connect 16 0 4 0;
#X connect 16 1 17 0;
#X connect 17 0 9 1;
#X connect 18 0 20 0;
#X connect 19 0 4 0;
#X connect 23 0 4 0;
#X connect 23 1 9 1;
