#N canvas 161 101 2560 1566 10;
#X obj 129 58 inlet;
#X obj 193 57 inlet;
#X obj 129 175 outlet;
#X obj 193 86 tgl 20 0 empty empty empty 17 7 0 10 #fc2828 #202020 #202020 0 1;
#X obj 232 94 sel 0 1;
#X msg 232 161 color \$1 12 12;
#X msg 259 127 16;
#X msg 232 127 13;
#X obj 129 134 spigot;
#X obj 229 57 init \$1;
#X connect 0 0 8 0;
#X connect 1 0 3 0;
#X connect 3 0 4 0;
#X connect 3 0 8 1;
#X connect 4 0 7 0;
#X connect 4 1 6 0;
#X connect 5 0 3 0;
#X connect 6 0 5 0;
#X connect 7 0 5 0;
#X connect 8 0 2 0;
#X connect 9 0 3 0;
#X coords 0 -1 1 1 20 20 2 193 86;
