#N canvas 458 552 450 300 10;
#X obj 180 93 osc~;
#X obj 180 57 keyboardmidi;
#X obj 180 75 mtof;
#X obj 210 75 keyname;
#X obj 210 111 pack 0 1000;
#X obj 210 129 line~;
#X obj 127 160 mix~;
#X obj 188 159 *~;
#X obj 298 166 print;
#X obj 210 93 change;
#X connect 0 0 7 0;
#X connect 1 0 2 0;
#X connect 2 0 0 0;
#X connect 3 0 9 0;
#X connect 4 0 5 0;
#X connect 5 0 7 1;
#X connect 7 0 6 0;
#X connect 9 0 4 0;
#X connect 9 0 8 0;
