#N canvas 193 267 819 259 10;
#X msg 23 59 60;
#X msg 89 59 62;
#X msg 155 59 64;
#X msg 221 59 65;
#X msg 287 59 67;
#X msg 353 59 69;
#X obj 270 118 + 0;
#X msg 458 174 0;
#X msg 458 156 -12;
#X msg 458 138 -24;
#X msg 458 120 -36;
#X msg 458 102 -48;
#X msg 458 192 12;
#X msg 458 210 24;
#X obj 23 41 keyonchg z;
#X obj 486 102 keyonoff F1;
#X obj 486 120 keyonoff F2;
#X obj 486 138 keyonoff F3;
#X obj 486 156 keyonoff F4;
#X obj 486 174 keyonoff F5;
#X obj 486 192 keyonoff F6;
#X obj 486 210 keyonoff F7;
#X obj 89 41 keyonchg x;
#X obj 155 41 keyonchg c;
#X obj 221 41 keyonchg v;
#X obj 287 41 keyonchg b;
#X obj 353 41 keyonchg n;
#X msg 419 59 71;
#X obj 56 5 keyonchg s;
#X obj 122 5 keyonchg d;
#X msg 56 23 61;
#X msg 122 23 63;
#X msg 260 23 66;
#X obj 260 5 keyonchg g;
#X obj 326 5 keyonchg h;
#X obj 392 5 keyonchg j;
#X obj 533 5 keyonchg l;
#X msg 326 23 68;
#X msg 391 23 70;
#X msg 533 23 73;
#X obj 599 5 keyonchg \;;
#X msg 599 23 75;
#X obj 611 41 keyonchg /;
#X obj 545 41 keyonchg .;
#X obj 485 41 keyonchg \,;
#X msg 485 59 72;
#X msg 545 59 74;
#X msg 611 59 76;
#X obj 486 228 keyonchg F8;
#X msg 458 228 36;
#X obj 270 136 outlet;
#X text 25 172 This patch detects changes of the "active" key for monosynth
emulation. Does not detect when keys are released.;
#X obj 658 5 keyonchg ';
#X msg 658 23 77;
#X obj 419 41 keyonchg m;
#X connect 0 0 6 0;
#X connect 1 0 6 0;
#X connect 2 0 6 0;
#X connect 3 0 6 0;
#X connect 4 0 6 0;
#X connect 5 0 6 0;
#X connect 6 0 50 0;
#X connect 7 0 6 1;
#X connect 8 0 6 1;
#X connect 9 0 6 1;
#X connect 10 0 6 1;
#X connect 11 0 6 1;
#X connect 12 0 6 1;
#X connect 13 0 6 1;
#X connect 14 0 0 0;
#X connect 15 0 11 0;
#X connect 16 0 10 0;
#X connect 17 0 9 0;
#X connect 18 0 8 0;
#X connect 19 0 7 0;
#X connect 20 0 12 0;
#X connect 21 0 13 0;
#X connect 22 0 1 0;
#X connect 23 0 2 0;
#X connect 24 0 3 0;
#X connect 25 0 4 0;
#X connect 26 0 5 0;
#X connect 27 0 6 0;
#X connect 28 0 30 0;
#X connect 29 0 31 0;
#X connect 30 0 6 0;
#X connect 31 0 6 0;
#X connect 32 0 6 0;
#X connect 33 0 32 0;
#X connect 34 0 37 0;
#X connect 35 0 38 0;
#X connect 36 0 39 0;
#X connect 37 0 6 0;
#X connect 38 0 6 0;
#X connect 39 0 6 0;
#X connect 40 0 41 0;
#X connect 41 0 6 0;
#X connect 42 0 47 0;
#X connect 43 0 46 0;
#X connect 44 0 45 0;
#X connect 45 0 6 0;
#X connect 46 0 6 0;
#X connect 47 0 6 0;
#X connect 48 0 49 0;
#X connect 49 0 6 1;
#X connect 52 0 53 0;
#X connect 53 0 6 0;
#X connect 54 0 27 0;
