#N canvas 0 29 1600 849 10;
#X obj 590 312 outlet;
#X obj 565 194 sel 97 115 122 120 100 99 102 118 103 98 104 110 106
109 107 44;
#X obj 565 175 inlet;
#X obj 680 312 outlet;
#X obj 760 312 outlet;
#X obj 840 312 outlet;
#X connect 1 0 0 0;
#X connect 1 1 0 0;
#X connect 1 2 0 0;
#X connect 1 3 0 0;
#X connect 1 4 3 0;
#X connect 1 5 3 0;
#X connect 1 6 3 0;
#X connect 1 7 3 0;
#X connect 1 8 4 0;
#X connect 1 9 4 0;
#X connect 1 10 4 0;
#X connect 1 11 4 0;
#X connect 1 12 5 0;
#X connect 1 13 5 0;
#X connect 1 14 5 0;
#X connect 1 15 5 0;
#X connect 2 0 1 0;
