#N canvas 0 0 800 849 10;
#X msg 249 138 0;
#X msg 276 138 1;
#X msg 303 138 2;
#X msg 330 138 3;
#X msg 357 138 4;
#X msg 384 138 5;
#X msg 411 138 6;
#X msg 438 138 7;
#X msg 465 138 8;
#X msg 492 138 9;
#X obj 531 181 spigot 0;
#X obj 608 97 loadbang;
#X obj 608 116 symbol \$1;
#X obj 608 135 sel h;
#X msg 608 154 1;
#X msg 635 154 0;
#X msg 510 108 a;
#X msg 540 108 b;
#X msg 570 108 c;
#X msg 520 128 d;
#X msg 550 128 e;
#X msg 580 128 f;
#X obj 298 60 key;
#X obj 298 79 sel 48 49 50 51 52 53 54 55 56 57 97 98 99 100 101 102
;
#X obj 414 237 outlet;
#X connect 0 0 24 0;
#X connect 1 0 24 0;
#X connect 2 0 24 0;
#X connect 3 0 24 0;
#X connect 4 0 24 0;
#X connect 5 0 24 0;
#X connect 6 0 24 0;
#X connect 7 0 24 0;
#X connect 8 0 24 0;
#X connect 9 0 24 0;
#X connect 10 0 24 0;
#X connect 11 0 12 0;
#X connect 12 0 13 0;
#X connect 13 0 14 0;
#X connect 13 1 15 0;
#X connect 14 0 10 1;
#X connect 15 0 10 1;
#X connect 16 0 10 0;
#X connect 17 0 10 0;
#X connect 18 0 10 0;
#X connect 19 0 10 0;
#X connect 20 0 10 0;
#X connect 21 0 10 0;
#X connect 22 0 23 0;
#X connect 23 0 0 0;
#X connect 23 1 1 0;
#X connect 23 2 2 0;
#X connect 23 3 3 0;
#X connect 23 4 4 0;
#X connect 23 5 5 0;
#X connect 23 6 6 0;
#X connect 23 7 7 0;
#X connect 23 8 8 0;
#X connect 23 9 9 0;
#X connect 23 10 16 0;
#X connect 23 11 17 0;
#X connect 23 12 18 0;
#X connect 23 13 19 0;
#X connect 23 14 20 0;
#X connect 23 15 21 0;
