#N canvas 0 29 1600 849 10;
#X obj 52 97 spigot;
#X obj 46 9 keyname;
#X msg 85 47 1;
#X msg 118 47 0;
#X msg 26 163 0;
#X obj 53 207 change;
#X obj 53 245 outlet;
#X obj 155 57 loadbang;
#X obj 155 76 \$2;
#X obj 53 226 sel 1;
#X obj 85 28 sel \$1;
#X obj 52 116 sel 0;
#X obj 26 144 del 50;
#X obj 155 95 sel 0;
#X text 77 178 outputs bang when \$1 is pressed;
#X connect 0 0 11 0;
#X connect 1 0 0 0;
#X connect 1 1 10 0;
#X connect 2 0 0 1;
#X connect 3 0 0 1;
#X connect 4 0 5 0;
#X connect 5 0 9 0;
#X connect 7 0 8 0;
#X connect 8 0 13 0;
#X connect 9 0 6 0;
#X connect 10 0 2 0;
#X connect 10 1 3 0;
#X connect 11 0 12 0;
#X connect 11 1 5 0;
#X connect 12 0 4 0;
#X connect 13 1 12 1;
