#N canvas 593 161 307 271 10;
#X obj 52 97 spigot;
#X obj 15 10 keyname;
#X msg 82 62 1;
#X msg 117 63 0;
#X obj 52 117 select 0;
#X msg 26 163 0;
#X obj 53 206 change;
#X obj 53 247 outlet;
#X obj 75 31 select \$1;
#X obj 153 23 loadbang;
#X obj 26 144 delay 50;
#X obj 154 44 \$2;
#X obj 155 65 select 0;
#X obj 53 225 sel 1;
#X text 77 178 outputs bang when selected key is pressed;
#X connect 0 0 4 0;
#X connect 1 0 0 0;
#X connect 1 1 8 0;
#X connect 2 0 0 1;
#X connect 3 0 0 1;
#X connect 4 0 10 0;
#X connect 4 1 6 0;
#X connect 5 0 6 0;
#X connect 6 0 13 0;
#X connect 8 0 2 0;
#X connect 8 1 3 0;
#X connect 9 0 11 0;
#X connect 10 0 5 0;
#X connect 11 0 12 0;
#X connect 12 1 10 1;
#X connect 13 0 7 0;
