#N canvas 818 557 307 271 10;
#X obj 52 97 spigot;
#X obj 15 10 keyname;
#X msg 82 62 1;
#X msg 117 63 0;
#X obj 52 117 select 0;
#X msg 26 163 0;
#X obj 53 207 change;
#X obj 53 227 outlet;
#X obj 75 31 select \$1;
#X obj 153 23 loadbang;
#X obj 26 144 delay 50;
#X obj 154 44 \$2;
#X obj 155 65 select 0;
#X text 112 140 outputs 1 when desired key;
#X text 111 153 is pressed \, 0 when released;
#X text 112 166 only passes changes (no dupes);
#X text 111 180 jason@noisybox.net;
#X connect 0 0 4 0;
#X connect 1 0 0 0;
#X connect 1 1 8 0;
#X connect 2 0 0 1;
#X connect 3 0 0 1;
#X connect 4 0 10 0;
#X connect 4 1 6 0;
#X connect 5 0 6 0;
#X connect 6 0 7 0;
#X connect 8 0 2 0;
#X connect 8 1 3 0;
#X connect 9 0 11 0;
#X connect 10 0 5 0;
#X connect 11 0 12 0;
#X connect 12 1 10 1;
