#N canvas 0 0 800 849 10;
#X obj 193 201 unmap;
#X obj 193 220 outlet;
#X obj 390 90 sel 0 1 2 3;
#X obj 390 71 lb \$1;
#X obj 390 52 inlet;
#X obj 144 135 inlet;
#X obj 460 201 unmap;
#X obj 460 220 outlet;
#X msg 220 125 49 50 51 52 53 54 55 56 57 48 45 61;
#X msg 220 144 113 119 101 114 116 121 117 105 111 112 91 93;
#X msg 220 163 97 115 100 102 103 104 106 107 108 59 39;
#X msg 220 182 122 120 99 118 98 110 109 44 46 47;
#X msg 487 125 33 64 35 36 37 94 38 42 40 41 95 43;
#X msg 487 144 81 87 69 82 84 89 85 73 79 80;
#X msg 487 163 65 83 68 70 71 72 74 75 76 58 34;
#X text 48 32 keyrow generates numbers for each row of keys on your
keyboard. the left outlet is for non-capitalized/shifted keys \, while
the right outlet is for capitalized/shifted keys.;
#X text 49 78 note: pure data apparently can't get the keycodes for
brackets (i.e.: shift+[ or shift+]) nor the backslash.;
#X msg 487 182 90 88 67 86 66 78 77 60 62 63;
#X connect 0 0 1 0;
#X connect 2 0 8 0;
#X connect 2 0 12 0;
#X connect 2 1 9 0;
#X connect 2 1 13 0;
#X connect 2 2 10 0;
#X connect 2 2 14 0;
#X connect 2 3 11 0;
#X connect 2 3 17 0;
#X connect 3 0 2 0;
#X connect 4 0 3 0;
#X connect 5 0 0 0;
#X connect 5 0 6 0;
#X connect 6 0 7 0;
#X connect 8 0 0 1;
#X connect 9 0 0 1;
#X connect 10 0 0 1;
#X connect 11 0 0 1;
#X connect 12 0 6 1;
#X connect 13 0 6 1;
#X connect 14 0 6 1;
#X connect 17 0 6 1;
