#N canvas 0 0 800 849 10;
#X obj 103 100 hsl 128 15 -1 1 0 0 empty empty v0.121738 -2 8 0 10
-262144 -1 -1 7123 1;
#X msg 172 81 range \$1 \$2;
#X obj 172 62 pack \$1 \$2;
#X msg 36 61 label v\$1;
#X obj 229 -7 lb \$2 127;
#X obj 172 43 f \$1;
#X obj 172 24 loadbang;
#X obj 100 31 clip \$1 \$2;
#X msg 100 80 set \$1;
#X obj 118 57 outlet;
#X obj 100 12 f;
#X obj 100 -7 inlet;
#X obj 394 129 t b b;
#X obj 394 148 timer;
#X obj 36 80 spigot 1;
#X obj 200 209 inputn;
#X obj 200 125 keyname;
#X obj 200 171 route 1;
#X obj 200 152 pack f s;
#X msg 200 228 label t\$1;
#X obj 200 190 spigot 0;
#X msg 379 262 set \, bang;
#X obj 279 181 kinv;
#X obj 233 247 bang;
#X msg 233 266 1;
#X obj 379 243 sel 0 1;
#X obj 359 138 ==;
#X obj 355 110 t f f b;
#X obj 379 224 f;
#X obj 379 186 &&;
#X obj 379 205 kinv;
#X obj 394 167 < 300;
#X obj 459 229 print;
#X obj 459 200 pack f f f;
#X connect 0 0 27 0;
#X connect 1 0 0 0;
#X connect 2 0 1 0;
#X connect 3 0 14 0;
#X connect 4 0 2 1;
#X connect 4 0 7 2;
#X connect 5 0 2 0;
#X connect 6 0 5 0;
#X connect 7 0 8 0;
#X connect 7 0 3 0;
#X connect 7 0 9 0;
#X connect 8 0 0 0;
#X connect 10 0 7 0;
#X connect 11 0 10 0;
#X connect 12 0 13 0;
#X connect 12 1 13 1;
#X connect 13 0 31 0;
#X connect 13 0 33 2;
#X connect 14 0 0 0;
#X connect 15 0 19 0;
#X connect 15 1 23 0;
#X connect 15 1 10 0;
#X connect 16 0 18 0;
#X connect 16 1 18 1;
#X connect 17 0 20 0;
#X connect 18 0 17 0;
#X connect 19 0 0 0;
#X connect 20 0 15 0;
#X connect 21 0 15 0;
#X connect 22 0 20 1;
#X connect 23 0 24 0;
#X connect 24 0 28 0;
#X connect 25 0 21 0;
#X connect 25 1 10 0;
#X connect 26 0 29 0;
#X connect 26 0 33 0;
#X connect 27 0 26 1;
#X connect 27 0 33 1;
#X connect 27 1 26 0;
#X connect 27 2 12 0;
#X connect 28 0 22 0;
#X connect 28 0 14 1;
#X connect 28 0 25 0;
#X connect 29 0 30 0;
#X connect 30 0 28 0;
#X connect 31 0 29 1;
#X connect 33 0 32 0;
#X coords 0 -1 1 1 133 15 2 100 100;
