#N canvas 161 101 1600 871 10;
#X obj 129 68 inlet;
#X obj 193 67 inlet;
#X obj 129 109 spigot;
#X obj 193 86 tgl 15 0 empty empty empty 17 7 0 10 -257985 -1 -1 1
1;
#X obj 129 135 outlet;
#X obj 240 69 lb \$1;
#X connect 0 0 2 0;
#X connect 1 0 3 0;
#X connect 2 0 4 0;
#X connect 3 0 2 1;
#X connect 5 0 3 0;
#X coords 0 -1 1 1 15 15 2 193 86;
