#N canvas 1680 47 1600 853 10;
#X obj 275 66 r mc-\$0;
#X obj 275 85 route name;
#X obj 332 238 nop;
#X obj 412 68 loadbang;
#X obj 412 240 s master;
#X msg 412 163 hi \$2 \$1;
#X obj 352 106 closebang;
#X msg 352 163 bye \$1;
#X obj 352 144 symbol;
#X obj 332 266 outlet;
#X obj 412 125 symbol \$1;
#X obj 412 144 pack s \$0;
#X obj 275 104 symbol;
#X msg 275 145 set \$1;
#X obj 275 164 receive13;
#X obj 412 87 value MASTER;
#X obj 412 106 sel 1;
#X text 493 87 <-- to make sure that [master] is being used (if it's
not used and we try to message it \, an error pops up on the Pd console
\, which we don't want.);
#X connect 0 0 1 0;
#X connect 0 0 2 0;
#X connect 1 0 12 0;
#X connect 2 0 9 0;
#X connect 3 0 15 0;
#X connect 5 0 4 0;
#X connect 6 0 8 0;
#X connect 7 0 4 0;
#X connect 8 0 7 0;
#X connect 10 0 11 0;
#X connect 11 0 5 0;
#X connect 12 0 8 1;
#X connect 12 0 13 0;
#X connect 13 0 14 0;
#X connect 14 0 2 0;
#X connect 15 0 16 0;
#X connect 16 0 10 0;
