#N canvas 1680 29 1600 871 10;
#X obj 121 9 bng 15 250 50 0 empty empty br 16 7 0 10 -159808 -1 -1
;
#X obj 121 25 outlet;
#X obj 121 -105 mc b;
#X obj 121 -86 route name ON;
#X msg 121 -48 label \$1;
#X obj 158 -29 bang;
#X obj 121 -67 symbol;
#X connect 0 0 1 0;
#X connect 2 0 3 0;
#X connect 3 0 6 0;
#X connect 3 1 5 0;
#X connect 3 2 0 0;
#X connect 4 0 0 0;
#X connect 5 0 0 0;
#X connect 6 0 4 0;
#X coords 0 -1 1 1 36 15 1 100 9;
