#N canvas 0 0 800 849 10;
#X obj 65 -118 loadbang;
#X obj 65 -99 symbol \$1;
#X msg 65 -80 label \$1;
#X obj 120 9 bng 15 250 50 0 empty empty b 5 7 0 10 -159808 -1 -1;
#X obj 120 25 outlet;
#X obj 131 -176 mc \$1;
#X obj 131 -157 t a a;
#X obj 158 -138 symbol;
#X obj 158 -119 sel usa;
#X obj 131 -14 sel ON OFF;
#X msg 158 -100 0;
#X obj 131 -33 spigot;
#X msg 221 -42 1;
#X obj 131 -52 symbol;
#X obj 173 -33 sel OFF;
#X obj 205 -9 bng 15 250 50 0 empty empty empty 17 7 0 10 -262144 -1
-1;
#X connect 0 0 1 0;
#X connect 1 0 2 0;
#X connect 2 0 3 0;
#X connect 3 0 4 0;
#X connect 5 0 6 0;
#X connect 6 0 13 0;
#X connect 6 1 7 0;
#X connect 7 0 8 0;
#X connect 8 0 10 0;
#X connect 9 0 3 0;
#X connect 9 1 3 0;
#X connect 10 0 11 1;
#X connect 11 0 9 0;
#X connect 12 0 11 1;
#X connect 13 0 11 0;
#X connect 13 0 14 0;
#X connect 14 0 12 0;
#X connect 14 0 15 0;
#X coords 0 -1 1 1 35 15 1 100 9;
