#N canvas 800 0 800 849 10;
#X obj 86 218 outlet;
#X text 107 30 args: \$1 is the Menu button to toggle the output on
and off. \$2 can be 0 \, 1 \, or 2 \, which are all of the keyboard
\, top \, or bottom \, respectively.;
#X floatatom 134 100 2 0 2 0 - - -;
#X obj 134 82 lb \$2;
#X text 146 -156 when the background is blue \, the toggle is active.
;
#X text 146 -129 when the text is red \, menu has been pressed.;
#X obj -61 -156 route name ON OFF MENU key;
#X msg -61 -54 label \$1;
#X obj -61 -73 symbol;
#X obj -52 2 pack f f;
#X msg -52 21 color \$1 0 \$2;
#X msg -31 -105 18;
#X msg 0 -105 0;
#X obj 6 -45 sel 18 0;
#X obj 6 -64 f;
#X obj 30 -105 sel 0 1;
#X msg 49 -86 13;
#X msg 28 -26 18;
#X msg 6 -26 0;
#X obj 30 -137 t b f;
#X obj -61 47 s \$0-mc_tgl;
#X obj -61 -175 mc \$1;
#X obj 119 100 tgl 15 0 \$0-mc_tgls \$0-mc_tgl j 2 7 0 10 -62784 -262144
-262144 0 1;
#X obj 148 100 cnv 15 15 15 empty \$0-mck_oct 0 1 8 0 12 -99865 -262144
0;
#X obj -98 191 s \$0-mck_oct;
#X obj 86 199 kbdm;
#X msg 134 137 keyboard \$1;
#X obj 38 70 unpack s f;
#X obj 59 137 sel 0;
#X obj -98 100 unmap F1 F2 F3 F4 F5 F6 F7 F8 F9;
#X obj -98 119 - 5;
#X msg -98 172 label \$1;
#X msg -8 156 oct \$1;
#X obj -98 153 ftos;
#X connect 2 0 26 0;
#X connect 3 0 2 0;
#X connect 6 0 8 0;
#X connect 6 1 11 0;
#X connect 6 2 12 0;
#X connect 6 3 19 0;
#X connect 6 4 27 0;
#X connect 7 0 20 0;
#X connect 8 0 7 0;
#X connect 9 0 10 0;
#X connect 10 0 20 0;
#X connect 11 0 9 0;
#X connect 11 0 14 1;
#X connect 12 0 9 0;
#X connect 12 0 14 1;
#X connect 13 0 18 0;
#X connect 13 1 17 0;
#X connect 14 0 13 0;
#X connect 15 0 14 0;
#X connect 15 1 16 0;
#X connect 16 0 9 1;
#X connect 17 0 9 1;
#X connect 18 0 9 1;
#X connect 19 0 9 0;
#X connect 19 1 15 0;
#X connect 21 0 6 0;
#X connect 25 0 0 0;
#X connect 26 0 25 0;
#X connect 27 0 29 0;
#X connect 27 1 28 0;
#X connect 28 1 25 0;
#X connect 29 0 30 0;
#X connect 30 0 32 0;
#X connect 30 0 33 0;
#X connect 31 0 24 0;
#X connect 32 0 25 0;
#X connect 33 0 31 0;
#X coords 0 -1 1 1 63 15 1 100 100;
