#N canvas 800 0 1600 849 10;
#X obj 335 249 unmap;
#X obj 362 179 dollarg;
#X obj 362 160 lb 0;
#X obj 335 141 unpack s f;
#X obj 335 268 outlet;
#X obj 335 84 mc \$1;
#X obj 100 100 tgl 15 0 empty \$0-mc_tgl l 2 7 0 10 -262144 -1 -1 0
1;
#X obj 335 65 loadbang;
#N canvas 0 0 800 849 main-interface 0;
#X obj 238 86 inlet;
#X msg 238 207 label \$1;
#X obj 238 188 symbol;
#X obj 247 263 pack f f;
#X msg 247 282 color \$1 0 \$2;
#X msg 270 156 18;
#X msg 302 156 0;
#X obj 310 216 sel 18 0;
#X obj 310 197 f;
#X obj 334 156 sel 0 1;
#X msg 353 175 13;
#X msg 332 254 18;
#X msg 310 235 0;
#X obj 334 124 t b f;
#X obj 238 308 s \$0-mc_tgl;
#X obj 238 105 route name ON OFF MENU;
#X connect 0 0 15 0;
#X connect 1 0 14 0;
#X connect 2 0 1 0;
#X connect 3 0 4 0;
#X connect 4 0 14 0;
#X connect 5 0 3 0;
#X connect 5 0 8 1;
#X connect 6 0 3 0;
#X connect 6 0 8 1;
#X connect 7 0 12 0;
#X connect 7 1 11 0;
#X connect 8 0 7 0;
#X connect 9 0 8 0;
#X connect 9 1 10 0;
#X connect 10 0 3 1;
#X connect 11 0 3 1;
#X connect 12 0 3 1;
#X connect 13 0 3 0;
#X connect 13 1 9 0;
#X connect 15 0 2 0;
#X connect 15 1 5 0;
#X connect 15 2 6 0;
#X connect 15 3 13 0;
#X restore 386 122 pd main-interface;
#X obj 335 103 route key;
#X obj 362 198 list split 1;
#X connect 0 0 4 0;
#X connect 1 0 10 0;
#X connect 2 0 1 0;
#X connect 3 0 0 0;
#X connect 5 0 9 0;
#X connect 7 0 5 0;
#X connect 9 0 3 0;
#X connect 9 1 8 0;
#X connect 10 1 0 1;
#X coords 0 -1 1 1 60 15 1 100 100;
