#N canvas 0 0 800 849 10;
#X text 256 -166 when the background is blue \, the toggle is active.
;
#X text 256 -139 when the text is red \, menu has been pressed.;
#X obj 49 -166 route name ON OFF MENU key;
#X msg 49 -64 label \$1;
#X obj 49 -83 symbol;
#X obj 58 -8 pack f f;
#X msg 58 11 color \$1 0 \$2;
#X msg 79 -115 18;
#X msg 110 -115 0;
#X obj 116 -55 sel 18 0;
#X obj 116 -74 f;
#X obj 140 -115 sel 0 1;
#X msg 159 -96 13;
#X msg 138 -36 18;
#X msg 116 -36 0;
#X obj 140 -147 t b f;
#X obj 49 37 s \$0-mc_tgl;
#X obj 49 -185 mc \$1;
#X obj 121 100 tgl 15 0 \$0-mc_tgls \$0-mc_tgl t 2 7 0 10 -262144 -262144
-62784 0 1;
#X obj 228 -17 outlet;
#X msg 228 -62 1;
#X msg 256 -62 0;
#X connect 2 0 4 0;
#X connect 2 1 7 0;
#X connect 2 1 20 0;
#X connect 2 2 8 0;
#X connect 2 2 21 0;
#X connect 2 3 15 0;
#X connect 3 0 16 0;
#X connect 4 0 3 0;
#X connect 5 0 6 0;
#X connect 6 0 16 0;
#X connect 7 0 5 0;
#X connect 7 0 10 1;
#X connect 8 0 5 0;
#X connect 8 0 10 1;
#X connect 9 0 14 0;
#X connect 9 1 13 0;
#X connect 10 0 9 0;
#X connect 11 0 10 0;
#X connect 11 1 12 0;
#X connect 12 0 5 1;
#X connect 13 0 5 1;
#X connect 14 0 5 1;
#X connect 15 0 5 0;
#X connect 15 1 11 0;
#X connect 17 0 2 0;
#X connect 20 0 19 0;
#X connect 21 0 19 0;
#X coords 0 -1 1 1 36 15 1 100 100;
