#N canvas 0 29 800 849 10;
#X obj 488 233 notein 10;
#X msg 405 616 set \$2 \$1 \$3;
#X obj 428 214 c 116;
#X obj 428 233 sel 127 0;
#X msg 428 252 1;
#X msg 453 252 0;
#X obj 316 431 spigot;
#X obj 405 635 outlet;
#X obj 579 356 sel 0;
#X msg 579 375 0;
#X msg 606 375 1;
#X obj 467 356 sel 36 38 42 46;
#X msg 495 375 1;
#X msg 523 375 2;
#X msg 551 375 3;
#X msg 467 375 0;
#X obj 518 421 pack f f;
#X obj 518 440 route 0 1 2 3;
#X msg 486 501 0 \$1 0;
#X msg 517 530 1 \$1 0;
#X msg 547 556 2 \$1 0;
#X msg 589 578 3 \$1 0;
#X obj 477 420 >;
#X obj 444 439 spigot;
#X obj 316 194 inlet;
#X obj 382 412 pack f f 1;
#X obj 444 477 spigot;
#X obj 437 313 kinv;
#X obj 480 158 loadbang;
#X msg 279 529 bypass \$1;
#X obj 612 469 spigot;
#X obj 570 469 spigot;
#X obj 528 469 spigot;
#X obj 486 469 spigot;
#X connect 0 0 11 0;
#X connect 0 1 8 0;
#X connect 0 1 22 0;
#X connect 1 0 7 0;
#X connect 2 0 3 0;
#X connect 3 0 4 0;
#X connect 3 1 5 0;
#X connect 4 0 6 1;
#X connect 4 0 27 0;
#X connect 5 0 6 1;
#X connect 5 0 27 0;
#X connect 6 0 30 0;
#X connect 6 0 31 0;
#X connect 6 0 32 0;
#X connect 6 0 33 0;
#X connect 8 0 9 0;
#X connect 8 1 10 0;
#X connect 9 0 16 1;
#X connect 10 0 16 1;
#X connect 11 0 15 0;
#X connect 11 1 12 0;
#X connect 11 2 13 0;
#X connect 11 3 14 0;
#X connect 12 0 16 0;
#X connect 12 0 23 0;
#X connect 13 0 16 0;
#X connect 13 0 23 0;
#X connect 14 0 16 0;
#X connect 14 0 23 0;
#X connect 15 0 16 0;
#X connect 15 0 23 0;
#X connect 16 0 17 0;
#X connect 17 0 33 1;
#X connect 17 1 32 1;
#X connect 17 2 31 1;
#X connect 17 3 30 1;
#X connect 18 0 1 0;
#X connect 19 0 1 0;
#X connect 20 0 1 0;
#X connect 21 0 1 0;
#X connect 22 0 23 1;
#X connect 23 0 26 0;
#X connect 24 0 6 0;
#X connect 24 0 25 1;
#X connect 25 0 1 0;
#X connect 26 0 25 0;
#X connect 26 0 29 0;
#X connect 27 0 26 1;
#X connect 28 0 5 0;
#X connect 29 0 7 0;
#X connect 30 0 21 0;
#X connect 31 0 20 0;
#X connect 32 0 19 0;
#X connect 33 0 18 0;
