#N canvas 0 0 1600 849 10;
#X obj 285 593 outlet;
#X obj 357 593 outlet;
#X obj 313 8 inlet;
#X obj 349 8 inlet;
#X obj 429 451 bng 15 250 50 0 empty empty empty 17 7 0 10 -262144
-1 -1;
#X obj 357 468 list length;
#X obj 318 449 t a a a;
#X msg 429 468 0;
#X floatatom 285 537 5 0 0 0 - - -;
#X floatatom 357 519 5 0 0 0 - - -;
#X obj 328 35 route float clear;
#X text 439 62 this is a monosynth implementation. it keeps track of
which keys are held down and will give the midi number of the most
recently pressed (and still held) on the left outlet. the right outlet
is the number of keys currently held down (use this \, for example
\, to release an envelope when the number is zero).;
#X obj 365 543 delta;
#X obj 365 562 sel 1;
#X obj 285 555 change;
#X obj 285 574 f;
#X obj 283 74 sel -500;
#X obj 293 198 l;
#X obj 313 93 pack f f;
#X msg 313 112 \$2 \$1;
#X obj 313 131 route 0;
#X obj 253 367 list-without;
#X obj 253 278 spigot;
#X obj 351 278 spigot;
#X obj 285 518 list-idx -1;
#X obj 302 169 t b f b;
#X msg 304 236 1;
#X msg 332 236 0;
#X msg 363 236 1;
#X msg 391 236 0;
#X obj 352 169 t b f b;
#X msg 407 395 add2 \$1;
#X obj 407 376 f;
#X obj 330 401 prepent set;
#X obj 351 367 t b b a;
#X msg 352 150 \$2;
#X obj 351 350 switcher;
#X obj 374 331 bang;
#X msg 236 426 switch 1;
#X msg 432 339 switch 0;
#X msg 351 426 68;
#X obj 351 297 t a a;
#X obj 429 593 outlet;
#X text 444 134 the third outlet outputs the whole list or bang when
the list is empty.;
#X obj 421 537 sel 0;
#X text 439 185 !!! THIS IS REALLY MESSY AND NEEDS TO BE REDONE IN
THE FUTURE. SORRY ABOUT THAT. !!!;
#X connect 2 0 10 0;
#X connect 2 0 18 0;
#X connect 3 0 18 1;
#X connect 4 0 7 0;
#X connect 5 0 9 0;
#X connect 6 0 17 1;
#X connect 6 1 24 0;
#X connect 6 2 5 0;
#X connect 6 2 42 0;
#X connect 7 0 9 0;
#X connect 8 0 14 0;
#X connect 9 0 1 0;
#X connect 9 0 12 0;
#X connect 9 0 44 0;
#X connect 10 0 16 0;
#X connect 12 0 13 0;
#X connect 13 0 15 0;
#X connect 14 0 15 0;
#X connect 15 0 0 0;
#X connect 17 0 22 0;
#X connect 17 0 23 0;
#X connect 18 0 19 0;
#X connect 19 0 20 0;
#X connect 20 0 25 0;
#X connect 20 1 35 0;
#X connect 21 0 6 0;
#X connect 21 1 4 0;
#X connect 21 1 38 0;
#X connect 22 0 21 0;
#X connect 23 0 41 0;
#X connect 24 0 8 0;
#X connect 25 0 17 0;
#X connect 25 1 21 1;
#X connect 25 2 26 0;
#X connect 25 2 27 0;
#X connect 26 0 22 1;
#X connect 27 0 23 1;
#X connect 28 0 23 1;
#X connect 29 0 22 1;
#X connect 30 0 17 0;
#X connect 30 1 32 1;
#X connect 30 2 29 0;
#X connect 30 2 28 0;
#X connect 31 0 40 0;
#X connect 32 0 31 0;
#X connect 33 0 40 0;
#X connect 34 0 40 0;
#X connect 34 1 32 0;
#X connect 34 2 33 0;
#X connect 35 0 30 0;
#X connect 36 0 34 0;
#X connect 36 0 39 0;
#X connect 37 0 36 1;
#X connect 38 0 36 0;
#X connect 39 0 36 0;
#X connect 40 0 6 0;
#X connect 41 0 37 0;
#X connect 41 1 36 0;
#X connect 44 0 42 0;
