#N canvas 0 29 2560 1566 10;
#X obj 402 168 tgl 20 0 empty empty empty 17 7 0 10 #ff8300 #000000 #000000 0 1;
#X obj 422 168 tgl 20 0 empty empty empty 17 7 0 10 #ff8300 #000000 #000000 0 1;
#X obj 442 168 tgl 20 0 empty empty empty 17 7 0 10 #ff8300 #000000 #000000 0 1;
#X obj 462 168 tgl 20 0 empty empty empty 17 7 0 10 #ff8300 #000000 #000000 0 1;
#X obj 482 168 tgl 20 0 empty empty empty 17 7 0 10 #ff8300 #000000 #000000 0 1;
#X obj 402 135 route 0 1 2 3 4;
#X obj 432 64 inlet;
#N canvas 0 0 2560 1566 default 0;
#X obj 243 216 outlet;
#X obj 204 57 loadbang;
#X obj 204 114 list-drip;
#X msg 204 76 args;
#X obj 204 95 pdcontrol;
#X msg 243 197 \$1 1;
#X msg 94 172 0 1 \, 1 1 \, 2 1 \, 3 1 \, 4 1;
#X obj 204 133 sel all;
#X connect 1 0 3 0;
#X connect 2 0 7 0;
#X connect 3 0 4 0;
#X connect 4 0 2 0;
#X connect 5 0 0 0;
#X connect 6 0 5 0;
#X connect 7 0 6 0;
#X connect 7 1 5 0;
#X restore 402 45 pd default;
#X text 566 165 Aside from clicking the toggleboxes \, the state of the spigots can be set by sending messages to the last (sixth) inlet \, in the format INDEX [STATE]. If STATE is not provided \, the spigot's state is toggled.;
#X text 566 108 The arguments specify the indices (starting from 0) of the inlets whose input should be passed through by default. The argument "all" can be used to enable all spigots.;
#X obj 13 167 inlet~;
#X obj 13 338 outlet~;
#X obj 93 269 *~;
#X obj 13 269 *~;
#X obj 173 269 *~;
#X obj 253 269 *~;
#X obj 333 269 *~;
#X obj 93 167 inlet~;
#X obj 173 167 inlet~;
#X obj 333 167 inlet~;
#X obj 253 167 inlet~;
#X obj 28 248 aline~ 50;
#X obj 108 248 aline~ 50;
#X obj 188 248 aline~ 50;
#X obj 268 248 aline~ 50;
#X obj 348 248 aline~ 50;
#X text 568 38 mspigot~ - Multi-[spigot~].;
#X text 567 63 Five inlets are mixed to the outlet \, passing their input only if their respective toggle is checked.;
#N canvas 0 0 2560 1566 clip 0;
#X obj 103 95 inlet;
#X obj 103 117 route float;
#X obj 103 139 unpack f f;
#X obj 44 184 outlet;
#X text 241 128 clipping is not done yet!!! this should be implemented so that the toggles are only ever set to 0 or 1 \, and are never inadvertently set to a number above 1;
#X connect 0 0 1 0;
#X connect 0 0 3 0;
#X connect 1 0 2 0;
#X restore 402 90 pd clip;
#X text 211 91 THIS IS NOT DONE YET - FIX -->;
#X connect 0 0 21 0;
#X connect 1 0 22 0;
#X connect 2 0 23 0;
#X connect 3 0 24 0;
#X connect 4 0 25 0;
#X connect 5 0 0 0;
#X connect 5 1 1 0;
#X connect 5 2 2 0;
#X connect 5 3 3 0;
#X connect 5 4 4 0;
#X connect 6 0 5 0;
#X connect 6 0 28 0;
#X connect 7 0 28 0;
#X connect 10 0 13 0;
#X connect 12 0 11 0;
#X connect 13 0 11 0;
#X connect 14 0 11 0;
#X connect 15 0 11 0;
#X connect 16 0 11 0;
#X connect 17 0 12 0;
#X connect 18 0 14 0;
#X connect 19 0 16 0;
#X connect 20 0 15 0;
#X connect 21 0 13 1;
#X connect 22 0 12 1;
#X connect 23 0 14 1;
#X connect 24 0 15 1;
#X connect 25 0 16 1;
#X connect 28 0 5 0;
#X coords 0 -1 1 1 100 36 1 402 154;
