#N canvas 0 29 2560 1566 10;
#X obj 402 168 tgl 20 0 empty empty empty 17 7 0 10 #f8fc00 #000000 #000000 0 1;
#X obj 422 168 tgl 20 0 empty empty empty 17 7 0 10 #f8fc00 #000000 #000000 0 1;
#X obj 442 168 tgl 20 0 empty empty empty 17 7 0 10 #f8fc00 #000000 #000000 0 1;
#X obj 462 168 tgl 20 0 empty empty empty 17 7 0 10 #f8fc00 #000000 #000000 0 1;
#X obj 482 168 tgl 20 0 empty empty empty 17 7 0 10 #f8fc00 #000000 #000000 0 1;
#X obj 143 167 inlet;
#X obj 143 338 outlet;
#X obj 143 269 spigot;
#X obj 193 167 inlet;
#X obj 193 269 spigot;
#X obj 243 167 inlet;
#X obj 243 269 spigot;
#X obj 293 167 inlet;
#X obj 293 269 spigot;
#X obj 343 167 inlet;
#X obj 343 269 spigot;
#X obj 402 135 route 0 1 2 3 4;
#X obj 432 104 inlet;
#N canvas 0 0 2560 1566 default 0;
#X obj 243 216 outlet;
#X obj 204 57 loadbang;
#X obj 204 114 list-drip;
#X msg 204 76 args;
#X obj 204 95 pdcontrol;
#X msg 243 197 \$1 1;
#X msg 94 172 0 1 \, 1 1 \, 2 1 \, 3 1 \, 4 1;
#X obj 204 133 sel all;
#X connect 1 0 3 0;
#X connect 2 0 7 0;
#X connect 3 0 4 0;
#X connect 4 0 2 0;
#X connect 5 0 0 0;
#X connect 6 0 5 0;
#X connect 7 0 6 0;
#X connect 7 1 5 0;
#X restore 402 85 pd default;
#X text 567 63 Five inlets are "mixed" to the outlet \, passing their input only if their respective toggle is checked.;
#X text 566 165 Aside from clicking the toggleboxes \, the state of the spigots can be set by sending messages to the last (sixth) inlet \, in the format INDEX [STATE]. If STATE is not provided \, the spigot's state is toggled.;
#X text 566 108 The arguments specify the indices (starting from 0) of the inlets whose input should be passed through by default. The argument "all" can be used to enable all spigots.;
#X text 568 38 mspigot - Multi-[spigot].;
#X connect 0 0 7 1;
#X connect 1 0 9 1;
#X connect 2 0 11 1;
#X connect 3 0 13 1;
#X connect 4 0 15 1;
#X connect 5 0 7 0;
#X connect 7 0 6 0;
#X connect 8 0 9 0;
#X connect 9 0 6 0;
#X connect 10 0 11 0;
#X connect 11 0 6 0;
#X connect 12 0 13 0;
#X connect 13 0 6 0;
#X connect 14 0 15 0;
#X connect 15 0 6 0;
#X connect 16 0 0 0;
#X connect 16 1 1 0;
#X connect 16 2 2 0;
#X connect 16 3 3 0;
#X connect 16 4 4 0;
#X connect 17 0 16 0;
#X connect 18 0 16 0;
#X coords 0 -1 1 1 100 36 1 402 154;
