#N canvas 0 0 800 849 10;
#X obj 402 168 tgl 15 0 empty empty empty 17 7 0 10 -257985 -1 -1 1
1;
#X obj 417 168 tgl 15 0 empty empty empty 17 7 0 10 -257985 -1 -1 0
1;
#X obj 432 168 tgl 15 0 empty empty empty 17 7 0 10 -257985 -1 -1 0
1;
#X obj 447 168 tgl 15 0 empty empty empty 17 7 0 10 -257985 -1 -1 0
1;
#X obj 462 168 tgl 15 0 empty empty empty 17 7 0 10 -257985 -1 -1 0
1;
#X obj 143 157 inlet;
#X obj 143 338 outlet;
#X obj 143 269 spigot;
#X obj 193 157 inlet;
#X obj 193 269 spigot;
#X obj 243 157 inlet;
#X obj 243 269 spigot;
#X obj 293 157 inlet;
#X obj 293 269 spigot;
#X obj 343 157 inlet;
#X obj 343 269 spigot;
#X text 97 93 mspigot - multispigot. 5 inlets can be "mixed" to the
outlet via the toggleboxes or the arguments.;
#X obj 402 68 chars;
#X obj 402 30 loadbang;
#X obj 392 11 bng 15 250 50 0 empty empty empty 17 7 0 10 -262144 -1
-1;
#X obj 402 49 f \$1;
#X obj 402 87 list-drip;
#X obj 402 106 route 0 1 2 3 4;
#X connect 0 0 7 1;
#X connect 1 0 9 1;
#X connect 2 0 11 1;
#X connect 3 0 13 1;
#X connect 4 0 15 1;
#X connect 5 0 7 0;
#X connect 7 0 6 0;
#X connect 8 0 9 0;
#X connect 9 0 6 0;
#X connect 10 0 11 0;
#X connect 11 0 6 0;
#X connect 12 0 13 0;
#X connect 13 0 6 0;
#X connect 14 0 15 0;
#X connect 15 0 6 0;
#X connect 17 0 21 0;
#X connect 18 0 20 0;
#X connect 19 0 20 0;
#X connect 20 0 17 0;
#X connect 21 0 22 0;
#X connect 22 0 0 0;
#X connect 22 1 1 0;
#X connect 22 2 2 0;
#X connect 22 3 3 0;
#X connect 22 4 4 0;
#X coords 0 -1 1 1 75 29 1 402 154;
