#N canvas 0 0 800 849 10;
#X obj 52 -251 keyname;
#X obj 96 -82 sel ;
#X obj 132 -82 sel ;
#X obj 18 -82 sel  Escape;
#X msg 132 -51 0;
#X obj 52 -228 pack f s;
#X obj 52 -171 t a a a;
#X obj 52 -190 symbol;
#N canvas 0 0 1600 849 activater 0;
#X obj 288 64 inlet;
#X obj 554 214 outlet;
#X obj 312 151 + 1;
#X floatatom 554 196 5 0 0 0 - - -;
#X msg 233 162 0;
#X obj 425 77 inlet;
#X text 316 30 left inlet for keynames \, right inlet to manually set
Menu mode.;
#X obj 267 179 sel 3;
#X obj 352 196 sel 2 1 0;
#X obj 425 96 clip 0 2;
#X obj 446 171 spigot;
#X msg 506 123 0;
#X obj 446 280 outlet;
#X msg 369 287 1;
#X obj 370 159 spigot;
#X msg 335 223 1;
#X msg 388 230 0;
#X msg 510 230 0;
#X obj 288 151 f 0;
#X obj 288 83 sel Menu /;
#X msg 316 102 symbol OFF;
#X connect 0 0 19 0;
#X connect 2 0 18 1;
#X connect 3 0 1 0;
#X connect 4 0 18 0;
#X connect 5 0 9 0;
#X connect 7 0 4 0;
#X connect 7 1 8 0;
#X connect 7 1 3 0;
#X connect 8 0 15 0;
#X connect 8 0 17 0;
#X connect 8 1 13 0;
#X connect 8 1 16 0;
#X connect 8 2 16 0;
#X connect 9 0 18 0;
#X connect 10 0 11 0;
#X connect 10 0 12 0;
#X connect 11 0 10 1;
#X connect 11 0 18 0;
#X connect 13 0 10 1;
#X connect 14 0 12 0;
#X connect 15 0 14 1;
#X connect 16 0 14 1;
#X connect 17 0 10 1;
#X connect 18 0 2 0;
#X connect 18 0 7 0;
#X connect 19 0 18 0;
#X connect 19 1 20 0;
#X connect 19 2 10 0;
#X connect 19 2 14 0;
#X connect 20 0 14 0;
#X connect 20 0 10 0;
#X restore 168 -82 pd activater;
#X obj 52 -209 route 0;
#X obj 168 -42 outlet;
#X text 341 -224 mc meta-client (mcmc). this is an abstraction to get
the menu-events. use this for consistency.;
#X text 341 -184 for commands \, Menu is the prefix key. pressing Menu
twice in a row locks the prefix on so that all subsequent keypresses
are sent instead of just one. press Menu again to turn it off. M-/
\, Escape or entering edit mode turns off all inputs.;
#X obj 237 -42 outlet;
#X text 341 -123 the left outlet outputs the Menu keys. the right outlet
outputs the mode (0 for no Menu prefix \, 1 for prefix typed \, 2 for
prefix locked);
#X obj 165 -145 loadbang;
#X text 345 -67 reserved letters: M-o is reserved for the o~ and so~
objects.;
#X obj 290 120 symbol \$1;
#X obj 290 71 loadbang;
#X obj 290 148 s2l;
#X obj 290 90 t b b;
#X msg 350 120 symbol;
#X obj 152 69 keyname;
#X obj 152 92 pack f s;
#X obj 152 130 symbol;
#X obj 152 111 route 0;
#X obj 176 168 + 1;
#X msg 97 179 0;
#X obj 131 196 sel 3;
#X obj 152 168 f 0;
#X obj 152 149 sel Menu;
#X floatatom 158 215 5 0 0 0 - - -;
#X text 183 46 -----NEW VERSION (WIP)-----;
#X msg 68 -6 symbol OFF;
#X connect 0 0 5 0;
#X connect 0 1 5 1;
#X connect 1 0 4 0;
#X connect 1 0 33 0;
#X connect 2 0 4 0;
#X connect 2 0 33 0;
#X connect 3 0 4 0;
#X connect 3 0 33 0;
#X connect 3 1 4 0;
#X connect 3 1 33 0;
#X connect 4 0 8 1;
#X connect 5 0 9 0;
#X connect 6 1 2 0;
#X connect 6 1 1 0;
#X connect 6 1 3 0;
#X connect 6 2 8 0;
#X connect 7 0 6 0;
#X connect 8 0 10 0;
#X connect 8 1 13 0;
#X connect 9 0 7 0;
#X connect 15 0 4 0;
#X connect 17 0 19 0;
#X connect 18 0 20 0;
#X connect 20 0 17 0;
#X connect 20 1 21 0;
#X connect 21 0 19 1;
#X connect 22 0 23 0;
#X connect 22 1 23 1;
#X connect 23 0 25 0;
#X connect 24 0 30 0;
#X connect 25 0 24 0;
#X connect 26 0 29 1;
#X connect 27 0 29 0;
#X connect 28 0 27 0;
#X connect 28 1 31 0;
#X connect 29 0 26 0;
#X connect 29 0 28 0;
#X connect 30 0 29 0;
#X connect 33 0 10 0;
#X coords 0 0 1 1 94 16 0;
