#N canvas 0 0 1600 871 10;
#X obj 156 54 r editmode;
#X obj 120 73 inlet;
#X obj 156 73 kinv;
#X obj 120 92 spigot;
#X text 245 49 nems - Not Edit Mode Spigot (only allow messages to
pass when edit mode is OFF);
#X obj 120 111 outlet;
#X connect 0 0 2 0;
#X connect 1 0 3 0;
#X connect 2 0 3 1;
#X connect 3 0 5 0;
