#N canvas 0 29 1680 1021 10;
#X obj 147 103 inlet;
#X obj 147 122 spigot;
#X text 272 79 nems - Not Edit Mode Spigot (only allow messages to
pass when edit mode is OFF);
#X obj 147 141 outlet;
#X obj 156 6 loadbang;
#X obj 183 84 editmode;
#X obj 156 25 f \$1;
#X obj 156 44 sel 0;
#X msg 156 63 2;
#X obj 183 103 == 0;
#X connect 0 0 1 0;
#X connect 1 0 3 0;
#X connect 4 0 6 0;
#X connect 5 0 9 0;
#X connect 6 0 7 0;
#X connect 7 0 8 0;
#X connect 7 1 5 0;
#X connect 8 0 5 0;
#X connect 9 0 1 1;
