#N canvas 0 0 798 868 10;
#X obj 59 92 c 37;
#X obj 363 43 c 38;
#X obj 473 27 c 39;
#X obj 363 64 sel 127;
#X obj 281 417 num;
#X symbolatom 378 189 4 0 0 0 - - -;
#X obj 378 169 lindex;
#X msg 311 146 ints lin exp;
#X obj 354 119 t b f;
#X obj 351 95 count 3;
#X obj 474 163 spigot;
#X msg 488 131 1;
#X msg 520 136 0;
#X obj 475 192 sel 127;
#X msg 476 213 a 1;
#X obj 86 211 spigot;
#X msg 100 179 1;
#X msg 129 181 0;
#X obj 87 240 sel 127;
#X obj 398 121 s \$0-mode;
#X obj 576 15 r \$0-mode;
#X obj 152 81 r \$0-mode;
#X msg 88 261 s 1;
#X obj 231 443 outlet;
#X msg 168 184 1;
#X msg 197 184 0;
#X obj 148 210 spigot;
#X obj 151 259 metro 10;
#X obj 149 234 / 127;
#X msg 160 282 s 0.005;
#X floatatom 352 444 10 0 0 0 - - -;
#X obj 272 303 line;
#X msg 249 184 1;
#X msg 278 184 0;
#X obj 253 214 spigot;
#X msg 584 109 1;
#X msg 613 109 0;
#X obj 564 135 spigot;
#X obj 567 184 metro 10;
#X obj 565 159 / 127;
#X msg 576 207 a 0.005;
#X obj 153 105 sel 0 1 2;
#X msg 274 281 100 \, 0 5000;
#X obj 254 238 sel 127;
#X obj 224 320 metro;
#X msg 227 272 1;
#X obj 675 237 line;
#X msg 652 118 1;
#X msg 681 118 0;
#X obj 656 148 spigot;
#X msg 677 215 100 \, 0 5000;
#X obj 657 172 sel 127;
#X obj 627 254 metro;
#X msg 630 206 1;
#X obj 577 46 sel 0 1 2;
#X connect 0 0 15 0;
#X connect 0 0 26 0;
#X connect 0 0 34 0;
#X connect 1 0 3 0;
#X connect 2 0 10 0;
#X connect 2 0 37 0;
#X connect 2 0 49 0;
#X connect 3 0 9 0;
#X connect 4 0 23 0;
#X connect 4 0 30 0;
#X connect 6 0 5 0;
#X connect 7 0 6 0;
#X connect 8 0 7 0;
#X connect 8 1 6 1;
#X connect 8 1 19 0;
#X connect 9 0 8 0;
#X connect 10 0 13 0;
#X connect 11 0 10 1;
#X connect 12 0 10 1;
#X connect 13 0 14 0;
#X connect 14 0 4 0;
#X connect 15 0 18 0;
#X connect 16 0 15 1;
#X connect 17 0 15 1;
#X connect 18 0 22 0;
#X connect 20 0 54 0;
#X connect 21 0 41 0;
#X connect 22 0 4 0;
#X connect 24 0 26 1;
#X connect 25 0 26 1;
#X connect 26 0 28 0;
#X connect 27 0 29 0;
#X connect 28 0 27 0;
#X connect 29 0 4 0;
#X connect 31 0 44 1;
#X connect 32 0 34 1;
#X connect 33 0 34 1;
#X connect 34 0 43 0;
#X connect 35 0 37 1;
#X connect 36 0 37 1;
#X connect 37 0 39 0;
#X connect 38 0 40 0;
#X connect 39 0 38 0;
#X connect 40 0 4 0;
#X connect 41 0 16 0;
#X connect 41 0 25 0;
#X connect 41 0 33 0;
#X connect 41 1 17 0;
#X connect 41 1 24 0;
#X connect 41 1 33 0;
#X connect 41 2 17 0;
#X connect 41 2 25 0;
#X connect 41 2 32 0;
#X connect 41 3 33 0;
#X connect 41 3 25 0;
#X connect 41 3 17 0;
#X connect 42 0 31 0;
#X connect 43 0 42 0;
#X connect 43 0 45 0;
#X connect 43 1 44 0;
#X connect 44 0 29 0;
#X connect 45 0 44 0;
#X connect 46 0 52 1;
#X connect 47 0 49 1;
#X connect 48 0 49 1;
#X connect 49 0 51 0;
#X connect 50 0 46 0;
#X connect 51 0 50 0;
#X connect 51 0 53 0;
#X connect 51 1 52 0;
#X connect 52 0 40 0;
#X connect 53 0 52 0;
#X connect 54 0 11 0;
#X connect 54 0 36 0;
#X connect 54 0 48 0;
#X connect 54 1 12 0;
#X connect 54 1 35 0;
#X connect 54 1 48 0;
#X connect 54 2 12 0;
#X connect 54 2 36 0;
#X connect 54 2 47 0;
#X connect 54 3 36 0;
#X connect 54 3 12 0;
#X connect 54 3 48 0;
#X coords 0 -1 1 1 66 16 1 338 189;
