#N canvas 0 0 1600 871 10;
#X obj 130 100 tgl 15 0 empty empty empty 17 7 0 10 -262144 -1 -1 0
1;
#X obj 130 138 outlet;
#X obj 18 103 inlet;
#X obj 128 75 keyonchg Num_Lock;
#X obj 177 122 s numlock;
#X connect 0 0 1 0;
#X connect 0 0 4 0;
#X connect 2 0 0 0;
#X connect 3 0 0 0;
#X coords 0 -1 1 1 65 15 1 80 100;
