#N canvas 0 450 1600 871 10;
#X floatatom 100 100 3 0 0 0 - - -;
#X floatatom 120 100 3 0 0 0 - - -;
#X floatatom 140 100 3 0 0 0 - - -;
#X obj 111 78 notein;
#X connect 3 0 0 0;
#X connect 3 1 1 0;
#X connect 3 2 2 0;
#X coords 0 -1 1 1 60 16 2 100 100;
