#N canvas 0 0 1600 870 10;
#X obj 166 48 bang;
#X obj 174 136 i 0;
#X msg 166 113 bang;
#X msg 174 177 0;
#X msg 221 147 -1;
#X msg 128 133 1;
#X obj 166 69 == 0;
#X obj 174 155 sel 0;
#X obj 120 100 sel 1;
#X obj 212 93 sel 1;
#X obj 166 91 sel 1;
#X obj 170 229 outlet;
#X obj 206 17 keyonoff +;
#X obj 103 23 keyonoff -;
#X connect 0 0 6 0;
#X connect 1 0 7 0;
#X connect 2 0 1 0;
#X connect 3 0 11 0;
#X connect 4 0 11 0;
#X connect 5 0 11 0;
#X connect 6 0 10 0;
#X connect 7 0 3 0;
#X connect 8 0 5 0;
#X connect 9 0 4 0;
#X connect 10 0 2 0;
#X connect 12 0 9 0;
#X connect 12 0 1 1;
#X connect 12 0 6 1;
#X connect 12 0 0 0;
#X connect 13 0 8 0;
#X connect 13 0 6 0;
