#N canvas 0 29 2560 1566 10;
#X obj 127 105 hradio 15 1 0 2 empty empty empty 0 -8 0 10 #00fc04 #000000 #000000 0;
#X obj 69 24 inlet;
#X obj 88 175 outlet;
#X obj 69 43 route switch;
#X obj 130 175 outlet;
#X obj 88 141 route 0 1;
#X obj 88 122 prepent;
#X obj 165 37 inlet;
#X obj 151 86 == 0;
#X obj 127 86 f 1;
#X connect 0 0 6 1;
#X connect 1 0 3 0;
#X connect 3 0 9 0;
#X connect 3 1 6 0;
#X connect 5 0 2 0;
#X connect 5 1 4 0;
#X connect 6 0 5 0;
#X connect 7 0 9 0;
#X connect 8 0 9 1;
#X connect 9 0 0 0;
#X connect 9 0 8 0;
#X coords 0 -1 1 1 30 15 2 127 105;
