#N canvas 1920 32 2560 1566 10;
#X obj 250 414 outlet~;
#X obj 120 263 inlet~;
#X obj 250 263 inlet~;
#X obj 325 210 bng 15 250 50 0 \$0-bang \$0-bang-r empty 17 7 0 10 #fcfcfc #000000 #000000;
#X obj 253 225 hsl 85 13 0 1 0 0 \$0-mix \$0-mix-r empty -2 -8 0 10 #fcfcfc #000000 #000000 0 1;
#X obj 201 320 kinv;
#X obj 120 359 *~ 1;
#X obj 250 359 *~ 0;
#X obj 310 414 outlet~;
#X obj 180 263 inlet~;
#X obj 310 263 inlet~;
#X obj 180 359 *~ 1;
#X obj 310 359 *~ 0;
#X obj 201 287 r \$0-mix;
#X obj 377 280 s \$0-control;
#N canvas 0 1620 2880 1586 internals 0;
#X floatatom 418 223 5 0 9999 1 time_to_auto_move_to_other_side - - 0;
#X obj 325 314 pack float float;
#X obj 281 384 lb \$1;
#X obj 340 274 kinv;
#X obj 325 385 line;
#X obj 325 294 f 1;
#X obj 285 187 sel 127;
#X obj 418 192 lb \$2 2000;
#X obj 285 168 route float time bang;
#X obj 325 334 t a b;
#X obj 352 354 f;
#X obj 324 207 clip 0 1;
#X obj 367 334 r \$0-mix;
#X obj 340 255 r \$0-mix;
#X obj 325 407 s \$0-mix-r;
#X obj 324 229 s \$0-mix-r;
#X obj 285 149 r \$0-control;
#X obj 280 255 r \$0-bang;
#X obj 250 214 s \$0-bang-r;
#X connect 0 0 1 1;
#X connect 1 0 9 0;
#X connect 2 0 14 0;
#X connect 3 0 5 1;
#X connect 4 0 14 0;
#X connect 5 0 1 0;
#X connect 6 0 18 0;
#X connect 6 1 11 0;
#X connect 7 0 0 0;
#X connect 8 0 6 0;
#X connect 8 1 0 0;
#X connect 9 0 4 0;
#X connect 9 1 10 0;
#X connect 10 0 4 0;
#X connect 11 0 15 0;
#X connect 12 0 10 1;
#X connect 13 0 3 0;
#X connect 16 0 8 0;
#X connect 17 0 5 0;
#X restore 156 219 pd internals;
#X text 380 131 The [bng] can be used to glide the fader to the other side over a set period of time (default: 2s). A "time" message to any inlet~ can be used to set the glide time \, while a float can be used to set the glide amount (0 for 100% left \, 1 for 100% right).;
#X obj 364 259 inlet~;
#X text 407 258 <-- DEPRECATED INLET WHICH WILL BE REMOVED IN THE FUTURE;
#X text 377 93 scrossfade~ - Graphical stereo crossfader.;
#X connect 1 0 6 0;
#X connect 1 1 14 0;
#X connect 2 0 7 0;
#X connect 2 1 14 0;
#X connect 5 0 6 1;
#X connect 5 0 11 1;
#X connect 6 0 0 0;
#X connect 7 0 0 0;
#X connect 9 0 11 0;
#X connect 9 1 14 0;
#X connect 10 0 12 0;
#X connect 10 1 14 0;
#X connect 11 0 8 0;
#X connect 12 0 8 0;
#X connect 13 0 5 0;
#X connect 13 0 7 1;
#X connect 13 0 12 1;
#X connect 17 0 12 0;
#X coords 0 -1 1 1 90 30 1 250 210;
