#N canvas 1680 29 1600 871 10;
#X obj 111 130 hsl 127 13 0 127 0 0 \$0-h0 \$0-h0r OVERTONE.wav -2
6 0 10 -262144 -262144 -258699 0 1;
#X obj 111 143 hsl 127 13 0 127 0 0 \$0-h1 \$0-h1r PAAH.wav -2 6 0
10 -262144 -262144 -1 0 1;
#X obj 111 156 hsl 127 13 0 127 0 0 \$0-h2 \$0-h2r PASSION.wav -2 6
0 10 -262144 -262144 -1 0 1;
#X obj 111 169 hsl 127 13 0 127 0 0 \$0-h3 \$0-h3r PBELLCR1.wav -2
6 0 10 -262144 -262144 -1 0 1;
#X obj 111 182 hsl 127 13 0 127 0 0 \$0-h4 \$0-h4r PBELLCR2.wav -2
6 0 10 -262144 -262144 -1 0 1;
#X obj 111 195 hsl 127 13 0 127 0 0 \$0-h5 \$0-h5r PBELLCRA.wav -2
6 0 10 -262144 -262144 -1 0 1;
#X obj 111 208 hsl 127 13 0 127 0 0 \$0-h6 \$0-h6r PDEEPKIC.wav -2
6 0 10 -262144 -262144 -1 0 1;
#X obj 111 221 hsl 127 13 0 127 0 0 \$0-h7 \$0-h7r PDPGONGL.wav -2
6 0 10 -262144 -262144 -1 0 1;
#X obj 100 132 vsl 8 99 1 0 0 0 \$0-scroll \$0-scrollr empty 0 -9 0
10 -262144 -33289 -33289 4288 1;
#N canvas 1680 29 1600 871 init 0;
#X obj 103 248 s;
#X obj 103 124 until;
#X obj 103 143 t b b;
#X obj 130 181 pack f \$0;
#X msg 130 219 symbol \$2-h\$1r;
#X msg 103 105 8;
#X obj 130 162 count 8;
#X msg 103 200 label \, label_pos -2 6 \, color 0 0 22 \, size 127
13;
#X obj 76 86 t b b;
#X obj 76 286 s \$0-dir;
#X msg 76 267 symbol ~;
#X obj 76 67 loadbang;
#X obj 203 152 s \$0-extensions;
#X msg 203 133 list .wav;
#X connect 1 0 2 0;
#X connect 2 0 7 0;
#X connect 2 1 6 0;
#X connect 3 0 4 0;
#X connect 4 0 0 1;
#X connect 5 0 1 0;
#X connect 6 0 3 0;
#X connect 7 0 0 0;
#X connect 8 0 10 0;
#X connect 8 1 5 0;
#X connect 8 1 13 0;
#X connect 10 0 9 0;
#X connect 11 0 8 0;
#X connect 13 0 12 0;
#X restore 452 128 pd init;
#N canvas 1680 29 800 871 go 0;
#X obj 236 200 s \$0-dir-size;
#X obj 236 181 list length;
#X obj 216 219 s \$0-dir-contents;
#N canvas 1680 29 1600 871 filter 0;
#X obj 67 57 inlet;
#X obj 87 370 outlet;
#X text 129 368 <-- outputs only the files and folders we want to see
(all folders \, and only files that match the glob pattern);
#X obj 94 114 folder_list;
#X obj 94 152 file_type;
#X text 104 57 <-- receives directory name;
#X msg 67 76 symbol \$1/*;
#X obj 94 201 pack s s;
#X obj 94 133 t a a;
#X msg 87 332 add2 \$1;
#X msg 87 351 list;
#X obj 94 220 route list;
#X obj 94 239 route folder file;
#N canvas 800 29 800 849 glob 0;
#X obj 195 147 inlet;
#X obj 207 399 s2l .pd;
#X obj 207 418 route list symbol;
#X obj 314 231 r \$0-extensions;
#X obj 207 667 outlet;
#X msg 207 648 \$1\$2;
#X obj 195 185 t a b;
#X msg 222 204 reset \, bang;
#X obj 207 610 list-idx 0;
#X msg 246 361 .wav;
#X obj 222 266 count;
#X obj 341 269 list length;
#X obj 314 250 t a a;
#X obj 246 380 list-idx;
#X obj 314 288 prepent set;
#X obj 195 166 symbol;
#X obj 256 437 bang;
#X obj 239 314 t f b f;
#X obj 117 312 sel 0;
#X obj 144 331 bang;
#X obj 179 238 symbol;
#X text -175 312 bangs on left outlet when there is no match -->;
#X text 287 435 <-- not matched yet \, so try again...;
#X text 125 610 a match! -->;
#X text 412 231 <-- extensions must have a .;
#X obj 87 410 t a a;
#X obj 114 429 list length;
#X obj 114 448 == 2;
#X obj 81 467 spigot;
#X obj 207 629 pack s s;
#X obj 81 486 t a a;
#X obj 108 505 list-idx 1;
#X obj 108 524 route float;
#X obj 108 543 == 0;
#X obj 171 543 bang;
#X msg 171 562 0;
#X obj 75 591 spigot;
#X connect 0 0 15 0;
#X connect 1 0 2 0;
#X connect 2 0 25 0;
#X connect 2 1 16 0;
#X connect 3 0 12 0;
#X connect 5 0 4 0;
#X connect 6 0 20 0;
#X connect 6 1 7 0;
#X connect 7 0 10 0;
#X connect 8 0 29 0;
#X connect 9 0 13 0;
#X connect 10 0 17 0;
#X connect 11 0 10 1;
#X connect 12 0 14 0;
#X connect 12 1 11 0;
#X connect 13 0 1 1;
#X connect 13 0 29 1;
#X connect 14 0 9 0;
#X connect 15 0 6 0;
#X connect 16 0 10 0;
#X connect 17 0 18 0;
#X connect 17 1 9 0;
#X connect 17 2 13 1;
#X connect 18 1 19 0;
#X connect 19 0 20 0;
#X connect 20 0 1 0;
#X connect 25 0 28 0;
#X connect 25 1 26 0;
#X connect 26 0 27 0;
#X connect 27 0 28 1;
#X connect 28 0 30 0;
#X connect 29 0 5 0;
#X connect 30 0 36 0;
#X connect 30 1 31 0;
#X connect 31 0 32 0;
#X connect 32 0 33 0;
#X connect 32 1 34 0;
#X connect 33 0 36 1;
#X connect 34 0 35 0;
#X connect 35 0 36 1;
#X connect 36 0 8 0;
#X restore 143 258 pd glob;
#N canvas 800 29 800 849 spacer 0;
#X obj 93 44 inlet;
#X obj 93 101 l2s;
#X obj 108 63 loadbang;
#X obj 108 82 spacesym;
#X obj 93 158 outlet;
#X obj 93 120 s2l /;
#X obj 93 139 list-idx -1;
#X connect 0 0 1 0;
#X connect 1 0 5 0;
#X connect 2 0 3 0;
#X connect 3 0 1 1;
#X connect 5 0 6 0;
#X connect 6 0 4 0;
#X restore 139 182 pd spacer;
#X obj 87 313 symbol;
#X msg -5 232 bang \, set list;
#X obj 67 95 t b a;
#X msg 94 277 \$1/;
#X obj 94 258 symbol;
#X connect 0 0 6 0;
#X connect 3 0 8 0;
#X connect 4 0 7 0;
#X connect 6 0 17 0;
#X connect 7 0 11 0;
#X connect 8 0 4 0;
#X connect 8 1 14 0;
#X connect 9 0 10 0;
#X connect 10 0 1 0;
#X connect 11 0 12 0;
#X connect 12 0 19 0;
#X connect 12 1 13 0;
#X connect 13 0 15 0;
#X connect 14 0 7 1;
#X connect 15 0 9 0;
#X connect 16 0 10 0;
#X connect 17 0 16 0;
#X connect 17 1 3 0;
#X connect 18 0 15 0;
#X connect 19 0 18 0;
#X restore 197 143 pd filter;
#X obj 197 105 r \$0-new-dir;
#X text 185 39 pd go - contains the stuff to get the folder contents
and filter them according to the glob.;
#X obj 197 257 s \$0-scrollr;
#X msg 197 238 0;
#X obj 197 162 t b a a;
#X text 274 99 <-- receives the name of the directory we want from
the symbol atom.;
#N canvas 800 29 800 849 fix-path 0;
#X obj 187 19 inlet;
#X obj 187 140 outlet;
#X obj 187 76 kfilename;
#X symbolatom 197 103 40 0 0 0 - - -;
#X obj 197 121 s \$0-actual-dir;
#N canvas 800 29 800 849 no-trailing-slash 0;
#X obj 192 110 inlet;
#X obj 192 129 chars;
#X obj 219 167 list-idx -1;
#X obj 219 186 sel /;
#X msg 219 205 0;
#X msg 246 205 1;
#X obj 205 291 outlet;
#X obj 97 286 list-splat -1;
#X obj 180 234 prepent;
#X obj 180 253 route 0 1;
#X obj 205 272 sym;
#X obj 192 148 t a a;
#X obj 97 305 sym;
#X obj 97 324 s \$0-dir;
#X connect 0 0 1 0;
#X connect 1 0 11 0;
#X connect 2 0 3 0;
#X connect 3 0 4 0;
#X connect 3 1 5 0;
#X connect 4 0 8 1;
#X connect 5 0 8 1;
#X connect 7 0 12 0;
#X connect 8 0 9 0;
#X connect 9 0 7 0;
#X connect 9 1 10 0;
#X connect 10 0 6 0;
#X connect 11 0 8 0;
#X connect 11 1 2 0;
#X connect 12 0 13 0;
#X restore 187 38 pd no-trailing-slash;
#N canvas 800 29 800 849 shorten 0;
#X obj 199 68 inlet;
#X obj 199 187 outlet;
#X obj 235 68 kfilename;
#X connect 0 0 1 0;
#X restore 187 57 pd shorten;
#X connect 0 0 5 0;
#X connect 2 0 3 0;
#X connect 2 0 4 0;
#X connect 2 0 1 0;
#X connect 5 0 6 0;
#X connect 6 0 2 0;
#X restore 197 124 pd fix-path;
#X connect 1 0 0 0;
#X connect 3 0 8 0;
#X connect 4 0 10 0;
#X connect 7 0 6 0;
#X connect 8 0 7 0;
#X connect 8 1 2 0;
#X connect 8 2 1 0;
#X connect 10 0 3 0;
#X restore 452 147 pd go;
#X symbolatom 100 114 23 0 0 0 - #0-dir #0-new-dir;
#X obj 452 90 inlet;
#N canvas 1680 29 800 871 parse 0;
#X obj 37 37 inlet;
#X obj 37 56 route dir up back;
#X obj 70 164 s \$0-up;
#X obj 103 145 s \$0-back;
#X obj 37 202 s \$0-dir;
#X obj 37 183 symbol;
#X connect 0 0 1 0;
#X connect 1 0 5 0;
#X connect 1 1 2 0;
#X connect 1 2 3 0;
#X connect 5 0 4 0;
#X restore 452 109 pd parse;
#X obj 226 100 bng 14 250 50 0 \$0-up empty ^ 4 10 0 12 -262144 -1
-1;
#X obj 212 100 bng 14 250 50 0 \$0-back empty < 3 8 0 12 -262144 -1
-1;
#X obj 452 223 outlet;
#X obj 198 100 tgl 14 0 \$0-preview empty p 4 7 0 10 -262144 -1 -1
0 1;
#N canvas 1680 29 1600 871 gui 1;
#X obj 108 7 r \$0-scroll;
#X obj 108 64 *;
#X obj 163 26 r \$0-dir-size;
#X obj 163 45 - 8;
#X obj 208 321 list split;
#N canvas 2480 29 800 871 the-list 0;
#X obj 11 10 r \$0-dir-contents;
#X obj 170 48 inlet;
#X obj 31 266 outlet;
#X msg 88 102 2REVKIC1.wav 2REVKIC2.wav 2REVKIC3.wav 2REVKIC4.wav 2REVKIC5.wav
2REVKIC6.wav 2REVKIC7.wav 2REVKIC8.wav 2REVKIC9.wav 2REVKICK.wav 60CYCLES.wav
70S_FUNK.wav 808SNARE.wav 808_CLAP.wav 808_CLSD.wav 808_COW.wav 808_HI.wav
808_LOW.wav 808_MID.wav 808_OPEN.wav 808_RIM.wav 8CWPITCH.wav 8_SPLASH.wav
909KICK1.wav 909KICK2.wav 909KICK3.wav 909_CLAP.wav AFRO.wav AGGRESSO.wav
AGOGOPIT.wav AGOGO_HI.wav AGOGO_LO.wav AMBISTIC.wav AMINDIAN.wav ANACOWBE.wav
ANAKICK.wav ANASNARE.wav ARENA.wav ASSAULT.wav BADBRETH.wav BALLO_HI.wav
BEADSHA1.wav BEADSHA2.wav BEADSHAK.wav BEAD_POT.wav BEAT_BOX.wav BEAUTY.wav
BEEFRANK.wav BIGOBREK.wav BIG_CLAP.wav BIG_ONE.wav BIG_O_HI.wav BIG_O_LO.wav
BIG_RIM.wav BIT_TOMH.wav BIT_TOML.wav BLAST.wav BLASTCYM.wav BLITZ.wav
BLITZ_2.wav BLOCK_HI.wav BLOCK_LO.wav BLUSPRKL.wav BOLANDYN.wav BOLANGOO.wav
BOMBTOMH.wav BOMBTOML.wav BOMBTOMM.wav BONGOHID.wav BONGOHIS.wav BONGOLOD.wav
BONGOLOS.wav BONGO_LO.wav BONK.wav BOWELS.wav BRAINETR.wav BRIKHAUS.wav
BRONZE.wav BRTCRASH.wav BRTLOOSE.wav BRTLOOSR.wav BRTTITE1.wav BRTTITE2.wav
BRT_CLSD.wav BRT_FOOT.wav BRT_HALF.wav BRT_OPEN.wav BRUSHFAT.wav BRUSHRIM.wav
BRUSHTHN.wav CABASA.wav CABASA_D.wav CARPET.wav CASTANE1.wav CASTANE2.wav
CASTANE3.wav CASTANET.wav CHOKED.wav CHROME.wav CHROMEHI.wav CHROMRNG.wav
CITY.wav CLANKER.wav CLASCHEX.wav CLAVE.wav CLAVEKOR.wav CLAVE_D.wav
CLEAN.wav CLSCSNAP.wav COMPRESD.wav CONGAHEE.wav CONGAHID.wav CONGALOD.wav
CONGAMU1.wav CONGAMUT.wav CONGASL1.wav CONGASL2.wav CONGASLA.wav CONGA_HI.wav
CONGA_LO.wav COWBELL.wav COWBELL1.wav CRANK_IT.wav CRASHRHD.wav CRASHRSF.wav
CRISP.wav CRNCHFLP.wav CRNCHHED.wav CRUISER.wav CRUNCH.wav CUBAN.wav
CUICA_HI.wav CUICA_LO.wav CYBERWAV.wav CYBO.wav CYMPARTS.wav DARK_FAT.wav
DEEPROOM.wav DEEPSTIK.wav DEEP_IIX.wav DINGOBOY.wav DIRTYMUT.wav DMBACKMI.wav
DMBCHBAL.wav DMBRTAMB.wav DMFEELSG.wav DMFRONTM.wav DMFUSION.wav DMHIGATE.wav
DMINTHEK.wav DMKINETI.wav DMLOWSOL.wav DMLRGROO.wav DMMEDROO.wav DMPILLOW.wav
DMPLASTI.wav DMPUNCHY.wav DMREGGAE.wav DMRUBBRB.wav DMSIMPLE.wav DMSLAMMI.wav
DMSPEEDM.wav DM_BASIC.wav DM_FOOT.wav DM_FORUM.wav DM_LITE.wav DRUM_2.wav
DRUM_3.wav DRYSHELL.wav DRYSTICK.wav DRYTOM6-.wav DRYTOM7-.wav DRY__IIX.wav
DYN_PICC.wav E-TOM-LR.wav EASTERNV.wav ELEPHANT.wav EL_BELL.wav ETHNIKA.wav
ETHNO.wav EXO_HI.wav EXO_LOW.wav EXO_MID.wav FACEBEAT.wav FAR_AWAY.wav
FAT_BOY.wav FAT_GRID.wav FAT_HEAD.wav FAT_PICC.wav FLNGCLSD.wav FLNGHALF.wav
FREAKRIM.wav FREAKY.wav FUNKY.wav GET_REAL.wav GHATABLA.wav GHATAMHI.wav
GHATAMLO.wav GIRTH_HI.wav GIRTH_LO.wav GRAVEL.wav GRINDER.wav GRITTY.wav
GROOVY.wav GUIRO.wav GUN_PICC.wav H01BD-LR.wav H01CLAP-.wav H01CONGA.wav
H01COWBE.wav H01HH-LR.wav H01SD-LR.wav H01SHAKE.wav H01TAMB-.wav H01TIMBA.wav
H02BD-LR.wav H02CLAP-.wav H02CONGA.wav H02COWBE.wav H02HH-LR.wav H02PERC-.wav
H02SD-LR.wav H02TAMB-.wav H02TIMBA.wav H03BD-LR.wav H03CLAP-.wav H03HH-LR.wav
H03PERC-.wav H03SD-LR.wav H03SHAKE.wav H03TAMB-.wav H04BD-LR.wav H04CLAP-.wav
H04HH-LR.wav H04SD-LR.wav H04SHAKE.wav H04TAMB-.wav H05BD-LR.wav H05CLAP-.wav
H05HH-LR.wav H05PERC-.wav H05SD-LR.wav H05SHAKE.wav H06BD-LR.wav H06HH-LR.wav
H06PERC-.wav H06SD-LR.wav H06SHAKE.wav H07BD-LR.wav H07CLAP-.wav H07HH-LR.wav
H07PERC-.wav H07SHAKE.wav H07TAMB-.wav H08BD-LR.wav H08CLAP-.wav H08HH-LR.wav
H08SD-LR.wav H08SHAKE.wav H08TAMB-.wav H09BD-LR.wav H09CYMB-.wav H09HH-LR.wav
H09PERC-.wav H09SD-LR.wav H09SHAKE.wav H09TAMB-.wav H10BD-LR.wav H10HH-LR.wav
H10SD-LR.wav H11BD-LR.wav H11CLAP-.wav H11CYMB-.wav H11HH-LR.wav H11PERC-.wav
H11SD-LR.wav H11SHAKE.wav H12BD-LR.wav H12CLAP-.wav H12HH-LR.wav H12SHAKE.wav
H13BD-LR.wav H13CLAP-.wav H13HH-LR.wav H13PERC-.wav H13SD-LR.wav H13SHAKE.wav
H14BD-LR.wav H14CLAP-.wav H14HH-LR.wav H14PERC-.wav H14SD-LR.wav H14SHAKE.wav
H15BD-LR.wav H15CLAP-.wav H15SD-LR.wav H15SHAKE.wav H16BD-LR.wav H16CLAP-.wav
H16HH-LR.wav H16PERC-.wav H16SD-LR.wav H17BD-LR.wav H17CLAP-.wav H17CYMB-.wav
H17HH-LR.wav H17PERC-.wav H18BD-LR.wav H18CLAP-.wav H18CYMB-.wav H18HH-LR.wav
H18PERC-.wav H18SD-LR.wav H19CLAP-.wav H19CYMB-.wav H19PERC-.wav H19SD-LR.wav
H20BD-LR.wav H20CYMB-.wav H20HH-LR.wav H20PERC-.wav H20SD-LR.wav H21BD-LR.wav
H21CYMB-.wav H21HH-LR.wav H21PERC-.wav H21SD-LR.wav H22BD-LR.wav H22CYMB-.wav
H22HH-LR.wav H22PERC-.wav H22SD-LR.wav H23BD-LR.wav H23CYMB-.wav H23HH-LR.wav
H23PERC-.wav H23SD-LR.wav H24CYMB-.wav H24HH-LR.wav H24PERC-.wav H24SD-LR.wav
H25BD-LR.wav H25CYMB-.wav H25HH-LR.wav H25PERC-.wav H25SD-LR.wav H26BD-LR.wav
H26CYMB-.wav H26HH-LR.wav H26PERC-.wav H27BD-LR.wav H27CYMB-.wav H27HH-LR.wav
H28BD-LR.wav H28CYMB-.wav H28HH-LR.wav H28SD-LR.wav H29BD-LR.wav H29CYMB-.wav
H29HH-LR.wav H29PERC-.wav H29SD-LR.wav H30BD-LR.wav H30CYMB-.wav H30PERC-.wav
H30SD-LR.wav H31BD-LR.wav H31CYMB-.wav H31HH-LR.wav H31PERC-.wav H31SD-LR.wav
H32BD-LR.wav H32CYMB-.wav H32HH-LR.wav H32PERC-.wav H32SD-LR.wav H33BD-LR.wav
H33CYMB-.wav H33PERC-.wav H33SD-LR.wav H34BD-LR.wav H34HH-LR.wav H34SD-LR.wav
H35BD-LR.wav H35CYMB-.wav H35SD-LR.wav H36BD-LR.wav H36HH-LR.wav H36SD-LR.wav
H37BD-LR.wav H37HH-LR.wav H37SD-LR.wav H38BD-LR.wav H38HH-LR.wav H38SD-LR.wav
H39BD-LR.wav H39HH-LR.wav H40BD-LR.wav H40HH-LR.wav H41BD-LR.wav H41HH-LR.wav
H42BD-LR.wav H42HH-LR.wav H43BD-LR.wav H43HH-LR.wav H44BD-LR.wav H44HH-LR.wav
H45BD-LR.wav H45HH-LR.wav H46BD-LR.wav H46HH-LR.wav H47BD-LR.wav H48BD-LR.wav
H49BD-LR.wav H50BD-LR.wav H52BD-LR.wav H53BD-LR.wav H54BD-LR.wav H55BD-LR.wav
HAJI.wav HALL_FLR.wav HALL_HI.wav HALL_LOW.wav HALL_MID.wav HAMMERED.wav
HANDDRU1.wav HANDDRUM.wav HARDWARE.wav HARD_ATK.wav HARD_RIM.wav HAS_EDGE.wav
HAWAII.wav HAZEY.wav HEARTLND.wav HERO_FLR.wav HERO_HI.wav HERO_LOW.wav
HERO_MID.wav HEXFLOOR.wav HEXSNARE.wav HEX_HI.wav HEX_KICK.wav HEX_LOW.wav
HEX_MID.wav HIENERGY.wav HIP_HOP.wav HITOM-LR.wav HI_AMBI.wav HOLO.wav
I-M_CLAY.wav IBID.wav ICECRASH.wav IIXSNARE.wav INDSCPLN.wav INSIDEHI.wav
INSIDELO.wav INSIDEMD.wav JAZZ_HI.wav JAZZ_HIT.wav JAZZ_LOW.wav JUNKDRWR.wav
JUNK_MAN.wav KAMKO.wav KICKDRY4.wav KICKDRY5.wav KICKDRY6.wav KICKDRY7.wav
KICKREV1.wav KICKREV2.wav KICKREVS.wav KICKROO1.wav KICKROO2.wav KICKROOM.wav
KIDSTUFF.wav KIK_DRY1.wav KIK_DRY2.wav KIK_DRY3.wav KIK_GAT1.wav KIK_GAT2.wav
KIK_PRO1.wav KIK_PRO2.wav KIK_REV1.wav KIK_ROM1.wav KIK_ROM2.wav KIK_ROM3.wav
KIK_TEK1.wav KING.wav KOOSH.wav KRAFTY.wav LITECLSD.wav LITEHALF.wav
LITEOPEN.wav LITESNAP.wav LITE_DYN.wav LIVESTIK.wav LMCSDHIH.wav LMCYMBA1.wav
LMCYMBAL.wav LMOPNHH1.wav LMOPNHH2.wav LMSNARE1.wav LMSNARE2.wav LMSNARE3.wav
LMTOMMID.wav LM_CLAPS.wav LM_KICK1.wav LM_KICK2.wav LM_RIM.wav LM_TOMHI.wav
LM_TOMLO.wav LONGTAIL.wav LOOSE.wav LOOSELUG.wav LOW_PICC.wav LOW_RING.wav
LRCRASH1.wav LRCRASH2.wav MAD_ROTO.wav MAKRAKFL.wav MAKRAKHI.wav MAKRAKLO.wav
MAKRAKMD.wav MANGLER.wav MARACAS.wav MCONGAHI.wav MCONGALO.wav MCOWBELL.wav
MDRKM-HI.wav MDRKW-CH.wav METALGAT.wav METALTIK.wav METLHARM.wav METLPIPE.wav
MHIBELLS.wav MHIHATC1.wav MHIHATCS.wav MHIHATO1.wav MHIHATOP.wav MICROCYM.wav
MICROPIC.wav MIDTOM-L.wav MLGHTW-H.wav MMA-HHC1.wav MMA-HHC2.wav MMA-HHCS.wav
MMA-HHHO.wav MMA-HHOP.wav MMA-HHPE.wav MMA-NKIC.wav MMA-RTO1.wav MMA-RTO2.wav
MMA-RTOM.wav MMA-WTO1.wav MMA-WTOM.wav MMANACBZ.wav MMANACLA.wav MMANAD-T.wav
MMANAKI1.wav MMANAKI2.wav MMANAKI3.wav MMANAKI4.wav MMANAKI5.wav MMANAKI6.wav
MMANAKI7.wav MMANAKIC.wav MMANASN1.wav MMANASN2.wav MMANASN3.wav MMANASN4.wav
MMANASN5.wav MMANASN6.wav MMANASNA.wav MMANATKK.wav MMANATO1.wav MMANATO2.wav
MMANATOM.wav MMD-ATOM.wav MMETALPI.wav MONASTIC.wav MOTOR.wav MRIDECYM.wav
MSIDESTI.wav MTIMBAL1.wav MTIMBALE.wav MTUBELLH.wav MTUBELLL.wav MTUBELLM.wav
MTYTUBEH.wav MWOODBLO.wav MWOODHIT.wav MWOODKN1.wav MWOODKNO.wav MWOODSHA.wav
MY_TRIBE.wav M_CLAPS1.wav M_CRASH1.wav M_KICK_1.wav M_KICK_2.wav M_KICK_3.wav
M_SHAKER.wav M_SNARE1.wav M_SNARE2.wav M_SNARE3.wav M_SNARE4.wav M_TOMHI1.wav
M_TOMLO1.wav NAGARA.wav NATIVE.wav NICEPICC.wav NOGGIN.wav NOISE_HI.wav
NOISE_LO.wav NOIZECYM.wav OBERGEIL.wav OILCANHI.wav OILCANLO.wav OILPITCH.wav
OIL_CAN.wav OL_SKOOL.wav OMEGA_FL.wav OMEGA_HI.wav OMEGA_LO.wav OMEGA_MD.wav
OOBLADYN.wav OOBLA_HI.wav OOBLA_LO.wav OPEN_HI.wav OPEN_LOW.wav OPEN_MID.wav
ORCHCYMB.wav ORCHHAL1.wav ORCHHALL.wav ORCHROLL.wav ORCHROOM.wav ORGCOWBE.wav
ORGCSDH1.wav ORGCSDHH.wav ORGKICK1.wav ORGOPNHH.wav ORGSNARE.wav ORG_RIM.wav
OVERTONE.wav PAAH.wav PASSION.wav PBELLCR1.wav PBELLCR2.wav PBELLCRA.wav
PDEEPKIC.wav PDPGONGL.wav PDPGONGM.wav PERC_500.wav PGLOCKE1.wav PGLOCKEN.wav
PICCOLO.wav PICCROOM.wav PINGRIDE.wav PINSTRPH.wav PINSTRPL.wav PINSTRPM.wav
PIPEBOMB.wav PLUCKY.wav PLUMBING.wav PMETALHI.wav PMETALLO.wav PMK-LOOP.wav
PMN-BEL1.wav PMN-BEL2.wav PMN-BELL.wav PMN-BLSD.wav PMWOODY1.wav PMWOODYD.wav
PO-BELLH.wav PO-BELLL.wav PO-RIMS1.wav PO-RIMSH.wav PO-SNAR1.wav PO-SNAR2.wav
PO-SNAR3.wav PO-SNAR4.wav PO-SNAR5.wav PO-SNARE.wav PO-SNARO.wav PO-WOOD1.wav
PO-WOOD2.wav PO-WOODB.wav POPCHEEK.wav POSTMDRN.wav POWERSNA.wav PPIATTIH.wav
PPIATTIL.wav PRODUCER.wav PSILOFLR.wav PSILOLOW.wav PSILOMID.wav PSILO_HI.wav
PTIMPAN1.wav PTIMPAN2.wav PTIMPAN3.wav PTIMPAN4.wav PTIMPANI.wav PTUBELL1.wav
PTUBELLH.wav PTUBELLL.wav PWRBALLA.wav PWRTOM5-.wav PWRTOM6-.wav PWR_DOWN.wav
PWR_ROCK.wav QANACOWB.wav QANAHIH1.wav QANAHIHA.wav QANAKIC1.wav QANAKIC2.wav
QANAKIC3.wav QANAKIC4.wav QANAKICK.wav QANARID1.wav QANARIDE.wav QANASNAR.wav
QANATOMH.wav QANATOML.wav QANATOMM.wav QBONGOHI.wav QBONGOLO.wav QCASTANE.wav
QCLBEL1-.wav QCLBEL2-.wav QCLBEL3-.wav QCLBEL4-.wav QCONGALO.wav QCONGAMI.wav
QCONGASL.wav QCOWBELL.wav QCYMBALS.wav QDEEPTAI.wav QDPRIDES.wav QE-TOMMI.wav
QEDRIDES.wav QFLOORT1.wav QFLOORTO.wav QGUIROLO.wav QGUIROSH.wav QHIHATCS.wav
QHIHATHF.wav QHIHATOP.wav QHIHATPE.wav QHIHATSI.wav QHIRIDES.wav QIMPACT1.wav
QIMPACT2.wav QMDRIDES.wav QMETALC1.wav QMETALCH.wav QMETALHI.wav QMIDTAIK.wav
QPWRTOMH.wav QPWRTOML.wav QPWRTOMM.wav QSDSTOMH.wav QSDSTOML.wav QSDSTOMM.wav
QSHAKERS.wav QSIDESTI.wav QSLEIGHB.wav QSTONEHI.wav QSYNCLAP.wav QTAMBOUR.wav
QTIMBAL1.wav QTIMBALE.wav QTIMPAN1.wav QTIMPAN2.wav QTIMPANI.wav QTRIANGL.wav
QVIBRASL.wav QWATERD1.wav QWATERDR.wav QWHISTL1.wav QWHISTLE.wav QWINDCHI.wav
QWOODBL1.wav QWOODBLO.wav QWOODHI1.wav QWOODHI2.wav QWOODHIT.wav Q_CABASA.wav
Q_CHINA.wav Q_CRASH.wav Q_KICK_1.wav Q_KICK_2.wav Q_KICK_3.wav Q_KICK_4.wav
Q_RIDE_1.wav Q_RIDE_2.wav Q_SHAKER.wav Q_SNAPS.wav Q_SNARE1.wav Q_SNARE2.wav
Q_SNARE3.wav Q_SNARE4.wav Q_SNARE5.wav Q_SNARE6.wav Q_SNARE7.wav Q_SNARE8.wav
Q_SNARE9.wav Q_SPLASH.wav Q_TOMMID.wav Q_TOM_LO.wav RAGOGODU.wav RAGOGOHI.wav
RAINSHAK.wav RAINSTIK.wav RANK.wav RAPPOTAB.wav RAP_CLSD.wav RAP_HALF.wav
RAP_OPEN.wav RAP_WAVE.wav RATLBWAP.wav RATLWOOD.wav RATTLE.wav RAUNCHY.wav
RBONGOHI.wav RCABASA1.wav RCABASA2.wav RCONGAHI.wav RCONGALO.wav RCONGAS1.wav
RCONGASL.wav RCOWBEL1.wav RCOWBELL.wav RCUPRID1.wav RCUPRIDE.wav RDEEPCRA.wav
RDEEPRID.wav RDEEPTO1.wav RDEEPTOM.wav RDRYKIC1.wav RDRYKIC2.wav RDRYKIC3.wav
RDRYKIC4.wav RDRYKICK.wav RDRYSNA1.wav RDRYSNA2.wav RDRYSNA3.wav RDRYSNA4.wav
RDRYSNA5.wav RDRYSNA6.wav RDRYSNAR.wav RDRYTOM1.wav RDRYTOM2.wav RDRYTOM3.wav
RDRYTOM4.wav RDRYTOM5.wav RDRYTOM6.wav RDRYTOM7.wav RDRYTOMD.wav RDRYTOMF.wav
RDRYTOMH.wav RDRYTOMM.wav RECO_HI.wav RECO_LO.wav RELEASE.wav RFLOORTO.wav
RFXTOMLO.wav RFXTOMMD.wav RHIHATC1.wav RHIHATCS.wav RHIHATHF.wav RHIHATO1.wav
RHIHATOP.wav RHIHATPE.wav RHISPLA1.wav RHISPLAS.wav RIDE.wav RIDEBELL.wav
RIDE_CUP.wav RIDE_CYM.wav ROCKCLUB.wav ROKLOOSE.wav ROKSLOSH.wav ROK_CLSD.wav
ROK_FOOT.wav ROK_OPEN.wav ROUNDAMB.wav ROUNDATK.wav RPCSTOM1.wav RPCSTOM2.wav
RPCSTOMF.wav RPCSTOMH.wav RPCSTOML.wav RPCSTOMM.wav RPWRTOM1.wav RPWRTOMH.wav
RPWRTOML.wav RPWRTOMM.wav RREVCYM1.wav RREVCYMB.wav RREVSNA1.wav RREVSNAR.wav
RSFTCABA.wav RSFTTAMB.wav RSFTTOMF.wav RSIDESTI.wav RSNARE10.wav RSNARE11.wav
RSNARE12.wav RSNARE13.wav RSRSIDES.wav RTRASHME.wav RWHISTL1.wav RWHISTLE.wav
RWOODBLH.wav RWOODBLM.wav RWOODBLO.wav RXAGOGOH.wav RXAGOGOL.wav RXBONGOH.wav
RXBONGOL.wav RXCASTA1.wav RXCASTAN.wav RXCONGAH.wav RXCONGAL.wav RXCONGAM.wav
RXCOWBEL.wav RXCRASH1.wav RXCRASH2.wav RXCRASH3.wav RXDRYTO1.wav RXDRYTOM.wav
RXFLOORT.wav RXFXCYM1.wav RXFXCYMB.wav RXFXTOMH.wav RXFXTOML.wav RXHIHAT1.wav
RXHIHATC.wav RXHIHATO.wav RXRIMSHO.wav RXSHAKER.wav RXSIDEKI.wav RXSNARE1.wav
RXSNARE2.wav RXSNARE3.wav RXSNARE4.wav RXSYNTO1.wav RXSYNTO2.wav RXSYNTO3.wav
RXSYNTOM.wav RXTAMBOU.wav RXTIMBA1.wav RXTIMBAL.wav RXTIMPA1.wav RXTIMPAN.wav
RXTOMMID.wav RXWHISTL.wav RX_CHINA.wav RX_CLAPS.wav RX_CUICA.wav RX_KICK1.wav
RX_KICK2.wav RX_KICK3.wav RX_KICK4.wav RX_RIDE1.wav RX_RIDE2.wav RX_TOMHI.wav
RX_TOMLO.wav R_AGOGO.wav R_CLAPS1.wav R_CLAPS2.wav R_CRASH1.wav R_CRASH2.wav
R_CRASH3.wav R_CYMBAL.wav R_HITOM1.wav R_HITOM2.wav R_KICK_1.wav R_KICK_2.wav
R_KICK_3.wav R_KICK_4.wav R_KICK_5.wav R_KICK_6.wav R_KICK_7.wav R_KICK_8.wav
R_KICK_9.wav R_MIDTOM.wav R_RIDE.wav R_SNARE1.wav R_SNARE2.wav R_SNARE3.wav
R_SNARE4.wav R_SNARE5.wav R_SNARE6.wav R_SNARE7.wav R_SNARE8.wav R_SNARE9.wav
R_SPLASH.wav R_TAIKO.wav SALVO_HI.wav SALVO_LO.wav SALVO_MD.wav SCAGOGOH.wav
SCAGOGOL.wav SCANAKIC.wav SCB-SNA1.wav SCB-SNAR.wav SCBELLCL.wav SCBELLTR.wav
SCBONGOH.wav SCBONGOL.wav SCCABASA.wav SCCASTAN.wav SCCLAPS1.wav SCCLAPS2.wav
SCCLAVES.wav SCCONGA1.wav SCCONGAH.wav SCCONGAL.wav SCCOWBEL.wav SCCRASH1.wav
SCCRASH2.wav SCCUPRID.wav SCDPE-KI.wav SCE-SNA1.wav SCE-SNAR.wav SCGUIRO1.wav
SCGUIRO2.wav SCHIHATC.wav SCHIHATO.wav SCHIHATP.wav SCJAZZK1.wav SCJAZZKI.wav
SCJINGLB.wav SCLGSPLA.wav SCLITESN.wav SCMARACA.wav SCO-BELL.wav SCO-CRAS.wav
SCO-PIAT.wav SCO-SNAR.wav SCPWRKIC.wav SCPWRSNA.wav SCQUICAL.wav SCQUICAM.wav
SCRATCHR.wav SCSHAKER.wav SCSNARE1.wav SCSNARE2.wav SCSTICKS.wav SCSURDOM.wav
SCSURDOO.wav SCTAMBOU.wav SCTIMBA1.wav SCTIMBAL.wav SCTIMPA1.wav SCTIMPAN.wav
SCTOMHI1.wav SCTOMHI2.wav SCTOMHI3.wav SCTOMHI4.wav SCTOMLO1.wav SCTOMLO2.wav
SCTOMLO3.wav SCTOMLO4.wav SCTOMMI1.wav SCTOMMI2.wav SCTOMMI3.wav SCTOMMID.wav
SCTRIAN1.wav SCTRIANG.wav SCVIBRAS.wav SCWHIST1.wav SCWHISTL.wav SCWINDCH.wav
SCWOODB1.wav SCWOODBL.wav SC_CHINA.wav SC_KICK1.wav SC_KICK2.wav SC_RIDE1.wav
SC_RIDE2.wav SESSION.wav SHAKERHI.wav SHAKERLO.wav SHAKERRY.wav SHARPSHA.wav
SHRED.wav SIDESTIC.wav SKOOL.wav SLAPDYND.wav SLAPROOM.wav SLEIGHBE.wav
SLOWFUNK.wav SMOKE.wav SNAREO.wav SNARERE1.wav SNARERE2.wav SNAREREV.wav
SNARERO1.wav SNARERO2.wav SNARERO3.wav SNAREROM.wav SNAREROO.wav SNIP.wav
SNOWJOB.wav SNR_DRY1.wav SNR_DRY2.wav SNR_DRY3.wav SNR_DRY4.wav SNR_GAT1.wav
SNR_PRO1.wav SNR_REV1.wav SNR_REV2.wav SNR_RIM1.wav SNR_RIM2.wav SNR_ROM1.wav
SNR_ROM2.wav SNR_ROM3.wav SNR_ROM4.wav SNR_ROM5.wav SNR_ROM6.wav SNR_ROM7.wav
SNR_SIDE.wav SNR_TEK1.wav SOLAR.wav SONARWAV.wav SPACEPRC.wav SPECK.wav
SPECTRAL.wav SPLASH.wav SPLAT.wav SPUD.wav SQUISH.wav SR_CLSD.wav SR_HALF.wav
SR_OPEN.wav STAGES.wav STEAK.wav STERCHIN.wav STERDARK.wav STERPHAZ.wav
STER_BRT.wav STICK.wav STICKROO.wav STIK-SNR.wav STUDIOHI.wav STUDIOLO.wav
STUDIOMD.wav STUTTER.wav SUPERRAV.wav SYNCRASH.wav SYNSHAK1.wav SYNSHAK2.wav
SYNSHAKE.wav SYN_PANG.wav TABLA.wav TABLADY1.wav TABLADYN.wav TABLCHRD.wav
TALKINGH.wav TALKINGL.wav TAMBPITC.wav TAMBRINE.wav TATONKA.wav TAVIL_HI.wav
TAVIL_LO.wav TBONGOH1.wav TBONGOHI.wav TCABASAL.wav TCONGAHI.wav TCYMBAL1.wav
TDEEPCLA.wav TECHTIK.wav TEMPLEHI.wav TEMPLELO.wav THIHATCL.wav THIHATOP.wav
THIHATPE.wav THIKGATE.wav THINSKIN.wav THUMB.wav TIGHTLUG.wav TIKTAK.wav
TIMBLEHI.wav TIMBLELO.wav TIMBL_HI.wav TIMBL_LO.wav TINY_E.wav TIPSHANK.wav
TOM_DRY1.wav TOM_DRY2.wav TOM_DRY3.wav TOM_DRY4.wav TOM_DRY5.wav TOM_POW1.wav
TOM_ROM1.wav TOM_ROM2.wav TOPBRASS.wav TPWRKICK.wav TRANSBEL.wav TRASHER.wav
TRASHIER.wav TRIANGL.wav TRIANGL1.wav TRIANGLE.wav TRIANGLP.wav TRIBAL.wav
TRIDECUP.wav TRIMSHOT.wav TSHAKERL.wav TSTICKHI.wav TTOMLOAM.wav TWOODBLM.wav
TYPEWRIT.wav T_KICK_1.wav T_KICK_2.wav T_KICK_3.wav T_KICK_4.wav T_RIDE_1.wav
T_SHAKER.wav T_SNARE1.wav T_SNARE2.wav T_SNARE3.wav T_SNARE4.wav T_SNARE5.wav
UDU.wav ULTRATHI.wav UNDERWOR.wav U_BAHN.wav VANAKICK.wav VELO-RIM.wav
VELORIDE.wav VFATOMED.wav VFATOMHI.wav VFATOMSH.wav VFATTOM1.wav VFATTOM2.wav
VHIBELL-.wav VIBRASLA.wav VINTAGE.wav VLOBELL-.wav VMDBELL-.wav VMETALH1.wav
VMETALHI.wav VSMETALH.wav VSUBKIC1.wav VSUBKIC2.wav VSUBKIC3.wav VSUBKIC4.wav
VSUBKICK.wav VTOMDLG-.wav VTOMMD1-.wav VTOMMID3.wav VTOMSFT-.wav V_TDTOMS.wav
V_TD_TOM.wav V_TOMHI2.wav V_TOMMD2.wav V_ZAPTOM.wav WARMKICK.wav WARMROOM.wav
WARPAINT.wav WEASEL.wav WER_BORG.wav WETWEASL.wav WET_WOOD.wav WHISTLE.wav
WITHCLAP.wav WONK.wav WOOD.wav WOODCLIF.wav WOODY.wav WOOD_HI.wav WOOD_LO.wav
WOO_HAN.wav XCASTANE.wav XE-DRUM1.wav XMBBELLS.wav XPANDO.wav XRCYMBAL.wav
XSTONEBE.wav XSYNCLAP.wav XTIMBALE.wav X_CLAVES.wav X_CONGA.wav X_HOLZKS.wav
ZAP_CLSD.wav ZAP_OPEN.wav ZIP_CLSD.wav ZIP_OPEN.wav ZOOTMUTE.wav;
#X obj 68 48 prepent set;
#X obj 11 29 route bang;
#X msg 11 68 set list;
#X connect 0 0 5 0;
#X connect 1 0 3 0;
#X connect 3 0 2 0;
#X connect 4 0 3 0;
#X connect 5 0 6 0;
#X connect 5 1 4 0;
#X connect 6 0 3 0;
#X restore 208 302 pd the-list;
#X obj 286 300 s \$0-view-from;
#X obj 236 367 list split 8;
#X obj 236 605 s;
#X msg 272 547 symbol \$2-h\$1r;
#X obj 272 528 pack f \$0;
#X obj 420 69 r \$0-view-from;
#N canvas 0 29 1600 849 is-top 0;
#X obj 37 37 inlet;
#X obj 37 56 t f f;
#X obj 37 75 == 0;
#X obj 86 152 f;
#X obj 37 94 sel 1;
#X obj 37 266 s \$0-scrollr;
#X obj 86 171 outlet;
#X obj 86 133 bang;
#X obj 94 209 r \$0-dir-size;
#X msg 37 247 label Top\$2of\$2\$3;
#X obj 65 190 spacesym;
#X obj 37 228 pack 0 s f;
#X obj 37 164 t b b;
#X connect 0 0 1 0;
#X connect 1 0 2 0;
#X connect 1 1 3 1;
#X connect 2 0 4 0;
#X connect 3 0 6 0;
#X connect 4 0 12 0;
#X connect 4 1 7 0;
#X connect 7 0 3 0;
#X connect 8 0 11 2;
#X connect 9 0 5 0;
#X connect 10 0 11 1;
#X connect 11 0 9 0;
#X connect 12 0 11 0;
#X connect 12 1 10 0;
#X restore 447 126 pd is-top;
#N canvas 0 29 1600 849 is-bot 0;
#X obj 215 146 - 8;
#X obj 200 165 ==;
#X obj 200 108 t f f;
#X obj 200 184 sel 1;
#X obj 227 222 f;
#X obj 227 203 bang;
#X obj 215 127 r \$0-dir-size;
#X obj 200 89 inlet;
#X obj 227 241 outlet;
#X obj 200 359 s \$0-scrollr;
#X obj 257 302 r \$0-dir-size;
#X obj 228 283 spacesym;
#X obj 200 321 pack 0 s f;
#X msg 200 340 label Bot\$2of\$2\$3;
#X obj 200 260 t b b;
#X connect 0 0 1 1;
#X connect 1 0 3 0;
#X connect 2 0 1 0;
#X connect 2 1 4 1;
#X connect 3 0 14 0;
#X connect 3 1 5 0;
#X connect 4 0 8 0;
#X connect 5 0 4 0;
#X connect 6 0 0 0;
#X connect 7 0 2 0;
#X connect 10 0 12 2;
#X connect 11 0 12 1;
#X connect 12 0 13 0;
#X connect 13 0 9 0;
#X connect 14 0 12 0;
#X connect 14 1 11 0;
#X restore 447 145 pd is-bot;
#N canvas 0 29 1600 849 is-neither 0;
#X obj 212 138 inlet;
#X obj 259 157 r \$0-dir-size;
#X obj 212 157 t f f;
#X obj 212 190 /;
#X obj 300 315 spacesym;
#X obj 219 372 s \$0-scrollr;
#X obj 165 230 * 100;
#X obj 165 249 int;
#X msg 165 268 symbol \$1%;
#X obj 178 298 t a b;
#X msg 219 353 label \$1\$4(\$2/\$3);
#X obj 219 334 pack s f f s;
#X connect 0 0 2 0;
#X connect 1 0 3 1;
#X connect 1 0 11 2;
#X connect 2 0 3 0;
#X connect 2 1 11 1;
#X connect 3 0 6 0;
#X connect 4 0 11 3;
#X connect 6 0 7 0;
#X connect 7 0 8 0;
#X connect 8 0 9 0;
#X connect 9 0 11 0;
#X connect 9 1 4 0;
#X connect 10 0 5 0;
#X connect 11 0 10 0;
#X restore 447 164 pd is-neither;
#X obj 420 88 t b f;
#X obj 420 221 s \$0-scrollr;
#X msg 420 202 label;
#X obj 420 183 del 1500;
#N canvas 2480 29 800 871 is-all 0;
#X obj 248 120 inlet;
#X obj 248 177 <= 8;
#X obj 267 215 f;
#X obj 248 196 sel 1 0;
#X obj 267 234 outlet;
#X obj 248 335 s \$0-scrollr;
#X obj 385 151 r \$0-dir-size;
#X obj 276 278 spacesym;
#X obj 248 297 pack 0 s f;
#X msg 248 316 label All\$2of\$2\$3;
#X obj 248 139 t b f;
#X obj 248 158 f;
#X obj 248 253 t b b;
#X connect 0 0 10 0;
#X connect 1 0 3 0;
#X connect 2 0 4 0;
#X connect 3 0 12 0;
#X connect 3 1 2 0;
#X connect 6 0 8 2;
#X connect 6 0 11 1;
#X connect 7 0 8 1;
#X connect 8 0 9 0;
#X connect 9 0 5 0;
#X connect 10 0 11 0;
#X connect 10 1 2 1;
#X connect 11 0 1 0;
#X connect 12 0 8 0;
#X connect 12 1 7 0;
#X restore 447 107 pd is-all;
#X obj 236 452 until;
#X msg 236 433 8;
#X obj 236 414 t b a;
#X obj 236 471 count 8;
#N canvas 0 29 800 849 the-eight 0;
#X obj 37 37 inlet;
#X obj 127 119 prepent set;
#X msg 47 225 OVERTONE.wav PAAH.wav PASSION.wav PBELLCR1.wav PBELLCR2.wav
PBELLCRA.wav PDEEPKIC.wav PDPGONGL.wav;
#X obj 47 284 outlet;
#X obj 97 37 inlet;
#X obj 47 265 list-idx;
#X obj 112 164 >=;
#X obj 127 145 list length;
#X obj 112 183 sel 0 1;
#X msg 131 202 symbol;
#X obj 37 56 t f f;
#X obj 97 56 route bang;
#X msg 97 75 0;
#X connect 0 0 10 0;
#X connect 1 0 2 0;
#X connect 2 0 5 0;
#X connect 4 0 11 0;
#X connect 5 0 3 0;
#X connect 6 0 8 0;
#X connect 7 0 6 1;
#X connect 8 0 2 0;
#X connect 8 1 9 0;
#X connect 9 0 3 0;
#X connect 10 0 6 0;
#X connect 10 1 5 1;
#X connect 11 0 12 0;
#X connect 11 1 1 0;
#X connect 11 1 7 0;
#X connect 12 0 6 1;
#X restore 236 509 pd the-eight;
#X obj 236 490 t f f;
#X obj 305 451 s \$0-the-8;
#N canvas 800 29 800 410 label 0;
#X obj 65 57 inlet;
#X obj 65 342 outlet;
#X obj 105 116 t a a;
#X msg 105 285 label \$2 \, color 0 0 \$1;
#X obj 105 266 pack f s;
#X obj 105 135 chars;
#X obj 105 154 list-idx -1;
#X obj 105 173 sel /;
#X msg 105 192 18;
#X obj 65 76 emptysymbol;
#X msg 65 285 label;
#N canvas 800 468 800 410 is-selected 0;
#X obj 114 -6 inlet;
#X obj 114 13 bang;
#X obj 129 265 &&;
#X msg 168 204 0;
#X msg 129 204 1;
#X obj 114 303 sel 0 1;
#X msg 239 229 0;
#X msg 200 229 1;
#X obj 200 191 inlet;
#X obj 114 377 outlet;
#X obj 129 32 r \$0-actual-dir;
#X obj 163 51 r \$0-selected;
#X obj 190 108 s2l /;
#X obj 190 127 list-splat -1;
#X obj 190 146 l2s /;
#X obj 114 284 f;
#X obj 163 70 symbol;
#X obj 129 185 sel foo;
#X obj 200 210 sel foo;
#X msg 190 165 symbol /\$1;
#X symbolatom 282 181 30 0 0 0 - - -;
#X msg 114 322 22;
#X msg 133 341 13;
#X obj 129 140 symbol;
#X obj 163 89 t b a;
#X connect 0 0 1 0;
#X connect 1 0 15 0;
#X connect 2 0 15 1;
#X connect 3 0 2 1;
#X connect 4 0 2 1;
#X connect 5 0 21 0;
#X connect 5 1 22 0;
#X connect 6 0 2 0;
#X connect 7 0 2 0;
#X connect 8 0 18 0;
#X connect 10 0 23 0;
#X connect 11 0 16 0;
#X connect 12 0 13 0;
#X connect 13 0 14 0;
#X connect 13 1 18 1;
#X connect 13 1 20 0;
#X connect 14 0 19 0;
#X connect 15 0 5 0;
#X connect 16 0 24 0;
#X connect 17 0 4 0;
#X connect 17 1 3 0;
#X connect 18 0 7 0;
#X connect 18 1 6 0;
#X connect 19 0 17 1;
#X connect 21 0 9 0;
#X connect 22 0 9 0;
#X connect 23 0 17 0;
#X connect 24 0 23 0;
#X connect 24 1 12 0;
#X restore 132 192 pd is-selected;
#X connect 0 0 9 0;
#X connect 2 0 5 0;
#X connect 2 1 4 1;
#X connect 2 1 11 1;
#X connect 3 0 1 0;
#X connect 4 0 3 0;
#X connect 5 0 6 0;
#X connect 6 0 7 0;
#X connect 7 0 8 0;
#X connect 7 1 11 0;
#X connect 8 0 4 0;
#X connect 9 0 10 0;
#X connect 9 1 2 0;
#X connect 10 0 1 0;
#X connect 11 0 4 0;
#X restore 236 586 pd label;
#X obj 208 135 r \$0-top;
#X obj 301 218 s \$0-scrollr;
#X obj 301 161 /;
#X msg 301 199 set \$1;
#X text 422 48 scrollbar text (i.e. Top \, Bot \, All \, %);
#X obj 301 180 clip 0 1;
#X obj 290 -72 keyname;
#X obj 290 -53 pack f s;
#X obj 290 -34 route 1;
#X obj 290 4 sel Up Down;
#X obj 290 -15 symbol;
#X obj 76 -91 cursor;
#X obj 76 -72 route button;
#X msg 60 32 1;
#X obj 76 -34 sel 1;
#X msg 32 32 0;
#X obj 76 -53 route 1;
#X obj 208 168 int;
#X obj 290 61 +;
#X obj 290 80 spigot;
#X obj 32 71 s \$0-spigot;
#X obj 323 61 r \$0-spigot;
#X obj 190 -30 s \$0-scrollr;
#X msg 190 -49 color \$1 12 12;
#X obj 190 -68 map 0 17;
#X msg 290 23 -1;
#X msg 321 23 1;
#X obj 208 202 t b i;
#X obj 108 83 int;
#X connect 0 0 1 0;
#X connect 0 0 41 0;
#X connect 1 0 56 0;
#X connect 2 0 3 0;
#X connect 3 0 1 1;
#X connect 3 0 30 1;
#X connect 4 1 7 0;
#X connect 4 2 7 0;
#X connect 5 0 4 0;
#X connect 7 0 22 0;
#X connect 7 2 22 0;
#X connect 9 0 8 1;
#X connect 10 0 9 0;
#X connect 11 0 15 0;
#X connect 12 0 13 0;
#X connect 13 0 14 0;
#X connect 15 0 18 0;
#X connect 15 1 19 0;
#X connect 17 0 16 0;
#X connect 18 0 17 0;
#X connect 19 0 12 0;
#X connect 20 0 23 0;
#X connect 21 0 20 0;
#X connect 22 0 21 0;
#X connect 22 1 24 1;
#X connect 22 1 26 0;
#X connect 23 0 25 0;
#X connect 24 0 27 0;
#X connect 25 0 24 0;
#X connect 25 1 10 0;
#X connect 27 0 8 0;
#X connect 28 0 45 0;
#X connect 30 0 33 0;
#X connect 31 0 29 0;
#X connect 33 0 31 0;
#X connect 34 0 35 0;
#X connect 34 1 35 1;
#X connect 35 0 36 0;
#X connect 36 0 38 0;
#X connect 37 0 53 0;
#X connect 37 1 54 0;
#X connect 38 0 37 0;
#X connect 39 0 40 0;
#X connect 40 0 44 0;
#X connect 41 0 39 0;
#X connect 41 0 48 0;
#X connect 41 0 52 0;
#X connect 42 0 43 0;
#X connect 43 0 39 0;
#X connect 43 0 48 0;
#X connect 43 0 52 0;
#X connect 44 0 42 0;
#X connect 45 0 46 1;
#X connect 45 0 55 0;
#X connect 46 0 47 0;
#X connect 47 0 45 0;
#X connect 47 0 56 1;
#X connect 47 0 30 0;
#X connect 49 0 47 1;
#X connect 51 0 50 0;
#X connect 52 0 51 0;
#X connect 53 0 46 0;
#X connect 54 0 46 0;
#X connect 55 0 5 0;
#X connect 55 1 4 1;
#X connect 55 1 6 0;
#X connect 56 0 46 1;
#X connect 56 0 45 0;
#X restore 452 166 pd gui;
#N canvas 2480 29 800 871 back-up 0;
#X obj 122 58 r \$0-back;
#X obj 272 121 r \$0-up;
#X obj 320 58 r \$0-actual-dir;
#X obj 320 77 s2l /;
#X obj 320 96 list-splat -1;
#X obj 320 115 l2s /;
#X obj 287 153 symbol;
#X obj 287 172 s \$0-dir;
#X msg 320 134 symbol /\$1;
#X obj 122 96 print sndsel;
#X msg 122 77 the back button ain't done yet;
#X connect 0 0 10 0;
#X connect 1 0 6 0;
#X connect 2 0 3 0;
#X connect 3 0 4 0;
#X connect 4 0 5 0;
#X connect 5 0 8 0;
#X connect 6 0 7 0;
#X connect 8 0 6 1;
#X connect 10 0 9 0;
#X restore 452 185 pd back-up;
#N canvas 1680 29 800 871 click 0;
#X obj 62 18 r \$0-h0;
#X msg 62 37 0;
#X obj 110 18 r \$0-h1;
#X obj 158 18 r \$0-h2;
#X obj 206 18 r \$0-h3;
#X obj 254 18 r \$0-h4;
#X obj 302 18 r \$0-h5;
#X obj 350 18 r \$0-h6;
#X obj 398 18 r \$0-h7;
#X msg 110 37 1;
#X msg 158 37 2;
#X msg 206 37 3;
#X msg 254 37 4;
#X msg 302 37 5;
#X msg 398 37 7;
#X msg 350 37 6;
#X obj 352 136 r \$0-the-8;
#X obj 224 323 outlet;
#X obj 272 115 list length;
#X obj 224 153 spigot;
#X obj 257 134 <;
#X obj 269 172 r \$0-actual-dir;
#X obj 224 191 pack s s;
#X obj 224 276 prepent open;
#X obj 224 172 map;
#N canvas 0 29 800 849 preview 0;
#X obj 37 56 inlet;
#X obj 95 56 r \$0-preview;
#X obj 95 138 readsf~;
#X obj 37 98 spigot;
#X obj 37 117 t b a;
#X msg 37 136 1;
#X obj 95 86 sel 0;
#X obj 84 166 dac~;
#X msg 95 105 0;
#X connect 0 0 3 0;
#X connect 1 0 3 1;
#X connect 1 0 6 0;
#X connect 2 0 7 1;
#X connect 2 0 7 0;
#X connect 3 0 4 0;
#X connect 4 0 5 0;
#X connect 4 1 2 0;
#X connect 5 0 2 0;
#X connect 6 0 8 0;
#X connect 8 0 2 0;
#X restore 235 304 pd preview;
#N canvas 800 29 800 410 directory 0;
#X obj 37 37 inlet;
#X obj 37 225 outlet;
#X obj 64 75 file_type;
#X obj 37 56 t a a;
#X obj 37 149 prepent 0;
#X msg 64 113 0;
#X msg 107 113 1;
#X obj 64 94 sel file folder;
#X obj 37 168 route 0 1;
#X obj 62 187 symbol;
#X obj 62 206 s \$0-dir;
#X obj 11 263 s \$0-scroll;
#X obj 11 244 bang;
#X connect 0 0 3 0;
#X connect 2 0 7 0;
#X connect 3 0 4 0;
#X connect 3 1 2 0;
#X connect 4 0 8 0;
#X connect 5 0 4 1;
#X connect 6 0 4 1;
#X connect 7 0 5 0;
#X connect 7 1 6 0;
#X connect 8 0 1 0;
#X connect 8 0 12 0;
#X connect 8 1 9 0;
#X connect 9 0 10 0;
#X connect 12 0 11 0;
#X restore 224 229 pd directory;
#X msg 224 210 symbol \$2/\$1;
#X obj 235 257 s \$0-selected;
#X obj 224 111 t f f;
#X connect 0 0 1 0;
#X connect 1 0 29 0;
#X connect 2 0 9 0;
#X connect 3 0 10 0;
#X connect 4 0 11 0;
#X connect 5 0 12 0;
#X connect 6 0 13 0;
#X connect 7 0 15 0;
#X connect 8 0 14 0;
#X connect 9 0 29 0;
#X connect 10 0 29 0;
#X connect 11 0 29 0;
#X connect 12 0 29 0;
#X connect 13 0 29 0;
#X connect 14 0 29 0;
#X connect 15 0 29 0;
#X connect 16 0 18 0;
#X connect 16 0 24 1;
#X connect 18 0 20 1;
#X connect 19 0 24 0;
#X connect 20 0 19 1;
#X connect 21 0 22 1;
#X connect 22 0 27 0;
#X connect 23 0 17 0;
#X connect 23 0 25 0;
#X connect 24 0 22 0;
#X connect 26 0 23 0;
#X connect 26 0 28 0;
#X connect 27 0 26 0;
#X connect 29 0 19 0;
#X connect 29 1 20 0;
#X restore 452 204 pd click;
#X floatatom 352 135 5 0 0 0 - - -;
#X obj 352 164 s \$0-top;
#X connect 12 0 13 0;
#X connect 20 0 16 0;
#X connect 21 0 22 0;
#X coords 0 -1 1 1 140 136 1 100 100;
