#N canvas 960 1080 1920 1048 10;
#X obj 111 131 hsl 127 13 0 127 0 0 \$0-h0 \$0-h0r 0coast-clips/ -2 6 0 10 #fcfcfc #fcfcfc #3c50fc 0 1;
#X obj 111 144 hsl 127 13 0 127 0 0 \$0-h1 \$0-h1r 0coast\ improv-01.wav -2 6 0 10 #fcfcfc #fcfcfc #000000 0 1;
#X obj 111 157 hsl 127 13 0 127 0 0 \$0-h2 \$0-h2r 0coast\ improv-02.wav -2 6 0 10 #fcfcfc #fcfcfc #000000 0 1;
#X obj 111 169 hsl 127 13 0 127 0 0 \$0-h3 \$0-h3r balloon.wav -2 6 0 10 #fcfcfc #fcfcfc #000000 0 1;
#X obj 111 182 hsl 127 13 0 127 0 0 \$0-h4 \$0-h4r cbt-loop-1.wav -2 6 0 10 #fcfcfc #fcfcfc #000000 0 1;
#X obj 111 195 hsl 127 13 0 127 0 0 \$0-h5 \$0-h5r cbt-loop-2.wav -2 6 0 10 #fcfcfc #fcfcfc #000000 0 1;
#X obj 111 208 hsl 127 13 0 127 0 0 \$0-h6 \$0-h6r cbt-loop-3.wav -2 6 0 10 #fcfcfc #fcfcfc #000000 0 1;
#X obj 111 221 hsl 127 13 0 127 0 0 \$0-h7 \$0-h7r cbt-loop-4.wav -2 6 0 10 #fcfcfc #fcfcfc #000000 0 1;
#X obj 100 133 vsl 8 98 1 0 0 0 \$0-scroll \$0-scrollr empty 143 -25 0 10 #fcfcfc #202020 #202020 0 1;
#N canvas 1920 32 960 1048 init 0;
#X obj 103 248 s;
#X obj 103 124 until;
#X obj 103 143 t b b;
#X obj 130 181 pack f \$0;
#X msg 130 219 symbol \$2-h\$1r;
#X msg 103 105 8;
#X obj 130 162 count 8;
#X msg 103 200 label \, label_pos -2 6 \, color 0 0 22 \, size 127 13;
#X obj 76 86 t b b;
#X obj 76 286 s \$0-dir;
#X msg 76 267 symbol ~;
#X obj 76 67 loadbang;
#X obj 203 152 s \$0-extensions;
#X msg 203 133 list .wav;
#X connect 1 0 2 0;
#X connect 2 0 7 0;
#X connect 2 1 6 0;
#X connect 3 0 4 0;
#X connect 4 0 0 1;
#X connect 5 0 1 0;
#X connect 6 0 3 0;
#X connect 7 0 0 0;
#X connect 8 0 10 0;
#X connect 8 1 5 0;
#X connect 8 1 13 0;
#X connect 10 0 9 0;
#X connect 11 0 8 0;
#X connect 13 0 12 0;
#X restore 422 118 pd init;
#N canvas 960 1080 960 1048 go 0;
#X obj 236 191 s \$0-dir-size;
#X obj 236 170 list length;
#X obj 216 212 s \$0-dir-contents;
#N canvas 960 1080 960 1048 filter 0;
#X obj 97 33 inlet;
#X obj 40 537 outlet;
#X text 82 535 <-- outputs only the files and folders we want to see (all folders \, and only files that match the glob pattern);
#X text 134 33 <-- receives directory name;
#X msg 97 183 symbol \$1/*;
#N canvas 1920 32 1920 1048 glob 0;
#X obj 385 27 inlet;
#X obj 397 279 s2l .pd;
#X obj 397 298 route list symbol;
#X obj 504 111 r \$0-extensions;
#X obj 397 547 outlet;
#X msg 397 528 \$1\$2;
#X obj 385 65 t a b;
#X msg 412 84 reset \, bang;
#X obj 397 490 list-idx 0;
#X msg 436 241 .wav;
#X obj 531 149 list length;
#X obj 504 130 t a a;
#X obj 436 260 list-idx;
#X obj 504 168 prepent set;
#X obj 385 46 symbol;
#X obj 446 317 bang;
#X obj 429 194 t f b f;
#X obj 307 192 sel 0;
#X obj 334 211 bang;
#X obj 369 118 symbol;
#X text 15 192 bangs on left outlet when there is no match -->;
#X text 477 315 <-- not matched yet \, so try again...;
#X text 315 490 a match! -->;
#X text 602 111 <-- extensions must have a .;
#X obj 277 290 t a a;
#X obj 304 309 list length;
#X obj 304 328 == 2;
#X obj 271 347 spigot;
#X obj 397 509 pack s s;
#X obj 271 366 t a a;
#X obj 298 385 list-idx 1;
#X obj 298 404 route float;
#X obj 298 423 == 0;
#X obj 361 423 bang;
#X msg 361 442 0;
#X obj 265 471 spigot;
#X obj 412 146 kount;
#X connect 0 0 14 0;
#X connect 1 0 2 0;
#X connect 2 0 24 0;
#X connect 2 1 15 0;
#X connect 3 0 11 0;
#X connect 5 0 4 0;
#X connect 6 0 19 0;
#X connect 6 1 7 0;
#X connect 7 0 36 0;
#X connect 8 0 28 0;
#X connect 9 0 12 0;
#X connect 10 0 36 1;
#X connect 11 0 13 0;
#X connect 11 1 10 0;
#X connect 12 0 1 1;
#X connect 12 0 28 1;
#X connect 13 0 9 0;
#X connect 14 0 6 0;
#X connect 15 0 36 0;
#X connect 16 0 17 0;
#X connect 16 1 9 0;
#X connect 16 2 12 1;
#X connect 17 1 18 0;
#X connect 18 0 19 0;
#X connect 19 0 1 0;
#X connect 24 0 27 0;
#X connect 24 1 25 0;
#X connect 25 0 26 0;
#X connect 26 0 27 1;
#X connect 27 0 29 0;
#X connect 28 0 5 0;
#X connect 29 0 35 0;
#X connect 29 1 30 0;
#X connect 30 0 31 0;
#X connect 31 0 32 0;
#X connect 31 1 33 0;
#X connect 32 0 35 1;
#X connect 33 0 34 0;
#X connect 34 0 35 1;
#X connect 35 0 8 0;
#X connect 36 0 16 0;
#X restore 185 396 pd glob;
#X obj 136 451 symbol;
#X msg 136 417 \$1/;
#X obj 136 396 symbol;
#X obj 136 225 file glob;
#X obj 136 354 route 1 0;
#X obj 136 246 unpack s f;
#X obj 136 311 pack s f;
#X obj 136 268 file splitname;
#X msg 136 290 \$2;
#X msg 136 332 \$2 \$1;
#X obj 40 515 list store;
#X msg 136 472 append \$1;
#X obj 97 204 t b b a;
#X obj 97 75 kfilename;
#X symbolatom 107 102 40 0 0 0 - - - 0;
#X obj 107 122 s \$0-actual-dir;
#N canvas 800 29 800 849 no-trailing-slash 0;
#X obj 192 110 inlet;
#X obj 192 129 chars;
#X obj 219 167 list-idx -1;
#X obj 219 186 sel /;
#X msg 219 205 0;
#X msg 246 205 1;
#X obj 205 291 outlet;
#X obj 97 286 list-splat -1;
#X obj 180 234 prepent;
#X obj 180 253 route 0 1;
#X obj 205 272 sym;
#X obj 192 148 t a a;
#X obj 97 305 sym;
#X obj 97 324 s \$0-dir;
#X connect 0 0 1 0;
#X connect 1 0 11 0;
#X connect 2 0 3 0;
#X connect 3 0 4 0;
#X connect 3 1 5 0;
#X connect 4 0 8 1;
#X connect 5 0 8 1;
#X connect 7 0 12 0;
#X connect 8 0 9 0;
#X connect 9 0 7 0;
#X connect 9 1 10 0;
#X connect 10 0 6 0;
#X connect 11 0 8 0;
#X connect 11 1 2 0;
#X connect 12 0 13 0;
#X restore 97 54 pd no-trailing-slash;
#X msg 408 61 symbol /home/modula/SFZ\ instruments;
#X obj 249 179 tview;
#X msg 408 81 symbol /home/modula/misc;
#X msg 408 101 symbol /home/modula;
#X connect 0 0 22 0;
#X connect 4 0 18 0;
#X connect 4 0 24 0;
#X connect 5 0 6 0;
#X connect 6 0 17 0;
#X connect 7 0 6 0;
#X connect 8 0 7 0;
#X connect 9 0 11 0;
#X connect 10 0 8 0;
#X connect 10 1 5 0;
#X connect 11 0 13 0;
#X connect 11 1 12 1;
#X connect 12 0 15 0;
#X connect 13 0 14 0;
#X connect 14 0 12 0;
#X connect 15 0 10 0;
#X connect 16 0 1 0;
#X connect 17 0 16 0;
#X connect 18 0 16 1;
#X connect 18 1 16 0;
#X connect 18 2 9 0;
#X connect 19 0 20 0;
#X connect 19 0 21 0;
#X connect 19 0 4 0;
#X connect 22 0 19 0;
#X connect 23 0 22 0;
#X connect 25 0 22 0;
#X connect 26 0 22 0;
#X restore 197 127 pd filter;
#X obj 197 105 r \$0-new-dir;
#X text 185 39 pd go - contains the stuff to get the folder contents and filter them according to the glob.;
#X obj 197 254 s \$0-scrollr;
#X msg 197 233 0;
#X obj 197 149 t b a a;
#X text 274 99 <-- receives the name of the directory we want from the symbol atom.;
#X connect 1 0 0 0;
#X connect 3 0 8 0;
#X connect 4 0 3 0;
#X connect 7 0 6 0;
#X connect 8 0 7 0;
#X connect 8 1 2 0;
#X connect 8 2 1 0;
#X restore 422 147 pd go;
#X symbolatom 100 114 23 0 0 0 - \$0-dir \$0-new-dir 0;
#X obj 422 60 inlet;
#N canvas 1680 29 960 1048 parse 0;
#X obj 37 37 inlet;
#X obj 37 56 route dir up back;
#X obj 70 164 s \$0-up;
#X obj 103 145 s \$0-back;
#X obj 37 202 s \$0-dir;
#X obj 37 183 symbol;
#X connect 0 0 1 0;
#X connect 1 0 5 0;
#X connect 1 1 2 0;
#X connect 1 2 3 0;
#X connect 5 0 4 0;
#X restore 422 89 pd parse;
#X obj 226 100 bng 14 250 50 0 \$0-up empty ^ 4 10 0 12 #fcfcfc #000000 #000000;
#X obj 212 100 bng 14 250 50 0 \$0-back empty < 3 8 0 12 #fcfcfc #000000 #000000;
#X obj 422 263 outlet;
#X obj 198 100 tgl 14 0 \$0-preview empty p 4 7 0 10 #fcfcfc #000000 #000000 0 1;
#N canvas 960 1080 1920 1048 gui 0;
#X obj 108 137 r \$0-scroll;
#X obj 108 196 *;
#X obj 163 157 r \$0-dir-size;
#X obj 163 178 - 8;
#X obj 286 380 s \$0-view-from;
#X obj 208 636 s;
#X msg 244 594 symbol \$2-h\$1r;
#X obj 244 573 pack f \$0;
#X obj 208 489 until;
#X msg 208 468 8;
#X obj 208 447 t b a;
#X obj 208 510 count 8;
#N canvas 1920 32 1920 1048 the-eight 0;
#X obj 37 37 inlet;
#X obj 127 139 prepent set;
#X msg 47 275 0coast-clips/ 0coast\ improv-01.wav 0coast\ improv-02.wav balloon.wav cbt-loop-1.wav cbt-loop-2.wav cbt-loop-3.wav cbt-loop-4.wav;
#X obj 47 414 outlet;
#X obj 97 37 inlet;
#X obj 47 385 list-idx;
#X obj 112 194 >=;
#X obj 127 165 list length;
#X obj 112 223 sel 0 1;
#X msg 131 252 symbol;
#X obj 37 66 t f f;
#X obj 97 66 route bang;
#X msg 97 95 0;
#X connect 0 0 10 0;
#X connect 1 0 2 0;
#X connect 2 0 5 0;
#X connect 4 0 11 0;
#X connect 5 0 3 0;
#X connect 6 0 8 0;
#X connect 7 0 6 1;
#X connect 8 0 2 0;
#X connect 8 1 9 0;
#X connect 9 0 3 0;
#X connect 10 0 6 0;
#X connect 10 1 5 1;
#X connect 11 0 12 0;
#X connect 11 1 1 0;
#X connect 11 1 7 0;
#X connect 12 0 6 1;
#X restore 208 552 pd the-eight;
#X obj 208 531 t f f;
#X obj 277 486 s \$0-the-8;
#N canvas 800 29 1920 1048 label 0;
#X obj 65 57 inlet;
#X obj 65 342 outlet;
#X obj 105 116 t a a;
#X msg 105 285 label \$2 \, color 0 0 \$1;
#X obj 105 266 pack f s;
#X obj 105 135 chars;
#X obj 105 154 list-idx -1;
#X obj 105 173 sel /;
#X msg 105 192 18;
#X obj 65 76 emptysymbol;
#X msg 65 285 label;
#N canvas 800 468 1920 1048 is-selected 0;
#X obj 74 34 inlet;
#X obj 74 53 bang;
#X obj 89 305 &&;
#X msg 128 244 0;
#X msg 89 244 1;
#X obj 74 343 sel 0 1;
#X msg 199 269 0;
#X msg 160 269 1;
#X obj 160 231 inlet;
#X obj 74 417 outlet;
#X obj 89 72 r \$0-actual-dir;
#X obj 123 91 r \$0-selected;
#X obj 150 148 s2l /;
#X obj 150 167 list-splat -1;
#X obj 150 186 l2s /;
#X obj 74 324 f;
#X obj 123 110 symbol;
#X obj 89 225 sel foo;
#X obj 160 250 sel foo;
#X msg 150 205 symbol /\$1;
#X symbolatom 242 221 30 0 0 0 - - - 0;
#X msg 74 362 22;
#X msg 93 381 13;
#X obj 89 180 symbol;
#X obj 123 129 t b a;
#X connect 0 0 1 0;
#X connect 1 0 15 0;
#X connect 2 0 15 1;
#X connect 3 0 2 1;
#X connect 4 0 2 1;
#X connect 5 0 21 0;
#X connect 5 1 22 0;
#X connect 6 0 2 0;
#X connect 7 0 2 0;
#X connect 8 0 18 0;
#X connect 10 0 23 0;
#X connect 11 0 16 0;
#X connect 12 0 13 0;
#X connect 13 0 14 0;
#X connect 13 1 18 1;
#X connect 13 1 20 0;
#X connect 14 0 19 0;
#X connect 15 0 5 0;
#X connect 16 0 24 0;
#X connect 17 0 4 0;
#X connect 17 1 3 0;
#X connect 18 0 7 0;
#X connect 18 1 6 0;
#X connect 19 0 17 1;
#X connect 21 0 9 0;
#X connect 22 0 9 0;
#X connect 23 0 17 0;
#X connect 24 0 23 0;
#X connect 24 1 12 0;
#X restore 132 192 pd is-selected;
#X connect 0 0 9 0;
#X connect 2 0 5 0;
#X connect 2 1 4 1;
#X connect 2 1 11 1;
#X connect 3 0 1 0;
#X connect 4 0 3 0;
#X connect 5 0 6 0;
#X connect 6 0 7 0;
#X connect 7 0 8 0;
#X connect 7 1 11 0;
#X connect 8 0 4 0;
#X connect 9 0 10 0;
#X connect 9 1 2 0;
#X connect 10 0 1 0;
#X connect 11 0 4 0;
#X restore 208 615 pd label;
#X obj 208 265 r \$0-top;
#X obj 301 354 s \$0-scrollr;
#X obj 301 291 /;
#X msg 301 333 set \$1;
#X text 504 61 scrollbar text (i.e. Top \, Bot \, All \, %);
#X obj 301 312 clip 0 1;
#X obj 290 56 keyname;
#X obj 290 77 pack f s;
#X obj 290 98 route 1;
#X obj 290 140 sel Up Down;
#X obj 290 119 symbol;
#X obj 76 33 cursor;
#X msg 60 162 1;
#X obj 76 96 sel 1;
#X msg 32 162 0;
#X obj 76 75 route 1;
#X obj 208 298 int;
#X obj 290 191 +;
#X obj 290 212 spigot;
#X obj 32 201 s \$0-spigot;
#X obj 323 191 r \$0-spigot;
#X obj 20 298 s \$0-scrollr;
#X msg 20 277 color \$1 12 12;
#X msg 290 161 -1;
#X msg 321 161 1;
#X obj 108 217 int;
#N canvas 1920 32 1920 1048 show-position 0;
#X obj 28 180 <= 8;
#X obj 47 220 f;
#X obj 28 200 sel 1 0;
#X obj 227 612 s \$0-scrollr;
#X obj 165 152 r \$0-dir-size;
#X obj 56 285 spacesym;
#X obj 28 305 pack 0 s f;
#X obj 28 140 t b f;
#X obj 28 160 f;
#X obj 28 260 t b b;
#X obj 263 238 t f f;
#X obj 263 258 == 0;
#X obj 312 337 f;
#X obj 263 278 sel 1;
#X obj 312 317 bang;
#X obj 320 397 r \$0-dir-size;
#X obj 291 377 spacesym;
#X obj 263 416 pack 0 s f;
#X obj 263 350 t b b;
#X text 268 219 is it the top?;
#X text 41 118 is it all?;
#X obj 470 283 - 8;
#X obj 455 302 ==;
#X obj 455 245 t f f;
#X obj 455 321 sel 1;
#X obj 482 359 f;
#X obj 482 340 bang;
#X obj 470 264 r \$0-dir-size;
#X obj 512 439 r \$0-dir-size;
#X obj 483 420 spacesym;
#X obj 455 458 pack 0 s f;
#X obj 455 397 t b b;
#X text 466 229 is it the bottom?;
#X obj 723 296 r \$0-dir-size;
#X obj 676 296 t f f;
#X obj 676 329 /;
#X obj 764 454 spacesym;
#X obj 629 369 * 100;
#X obj 629 388 int;
#X msg 629 407 symbol \$1%;
#X obj 642 437 t a b;
#X obj 683 473 pack s f f s;
#X text 627 274 if it's not all \, top \, or bottom \, show a percent;
#X obj 148 642 s \$0-scrollr;
#X msg 148 622 label;
#X obj 148 602 del 1500;
#X obj 28 70 r \$0-view-from;
#X obj 200 568 t b a;
#X msg 263 436 symbol Top\$2of\$2\$3;
#X msg 455 477 symbol Bot\$2of\$2\$3;
#X msg 683 492 symbol \$1\$4(\$2/\$3);
#X msg 28 325 symbol All\$2of\$2\$3;
#X msg 200 548 label_pos 143 -25 \, label \$1;
#X connect 0 0 2 0;
#X connect 1 0 10 0;
#X connect 2 0 9 0;
#X connect 2 1 1 0;
#X connect 4 0 6 2;
#X connect 4 0 8 1;
#X connect 5 0 6 1;
#X connect 6 0 51 0;
#X connect 7 0 8 0;
#X connect 7 1 1 1;
#X connect 8 0 0 0;
#X connect 9 0 6 0;
#X connect 9 1 5 0;
#X connect 10 0 11 0;
#X connect 10 1 12 1;
#X connect 11 0 13 0;
#X connect 12 0 23 0;
#X connect 13 0 18 0;
#X connect 13 1 14 0;
#X connect 14 0 12 0;
#X connect 15 0 17 2;
#X connect 16 0 17 1;
#X connect 17 0 48 0;
#X connect 18 0 17 0;
#X connect 18 1 16 0;
#X connect 21 0 22 1;
#X connect 22 0 24 0;
#X connect 23 0 22 0;
#X connect 23 1 25 1;
#X connect 24 0 31 0;
#X connect 24 1 26 0;
#X connect 25 0 34 0;
#X connect 26 0 25 0;
#X connect 27 0 21 0;
#X connect 28 0 30 2;
#X connect 29 0 30 1;
#X connect 30 0 49 0;
#X connect 31 0 30 0;
#X connect 31 1 29 0;
#X connect 33 0 35 1;
#X connect 33 0 41 2;
#X connect 34 0 35 0;
#X connect 34 1 41 1;
#X connect 35 0 37 0;
#X connect 36 0 41 3;
#X connect 37 0 38 0;
#X connect 38 0 39 0;
#X connect 39 0 40 0;
#X connect 40 0 41 0;
#X connect 40 1 36 0;
#X connect 41 0 50 0;
#X connect 44 0 43 0;
#X connect 45 0 44 0;
#X connect 46 0 7 0;
#X connect 47 0 45 0;
#X connect 47 1 3 0;
#X connect 48 0 52 0;
#X connect 49 0 52 0;
#X connect 50 0 52 0;
#X connect 51 0 52 0;
#X connect 52 0 47 0;
#X restore 398 62 pd show-position;
#X obj 208 426 list store;
#X obj 265 406 r \$0-dir-contents;
#X msg 208 406 get \$1 8;
#X obj 76 54 route button mousewheel;
#X obj 20 232 sel 1;
#X msg 20 255 17;
#X obj 143 75 spigot;
#X obj 195 112 * -1;
#X connect 0 0 1 0;
#X connect 0 0 28 0;
#X connect 1 0 41 0;
#X connect 2 0 3 0;
#X connect 3 0 1 1;
#X connect 3 0 18 1;
#X connect 6 0 5 1;
#X connect 7 0 6 0;
#X connect 8 0 11 0;
#X connect 9 0 8 0;
#X connect 10 0 9 0;
#X connect 10 1 12 1;
#X connect 10 1 14 0;
#X connect 11 0 13 0;
#X connect 12 0 15 0;
#X connect 13 0 12 0;
#X connect 13 1 7 0;
#X connect 15 0 5 0;
#X connect 16 0 32 0;
#X connect 18 0 21 0;
#X connect 19 0 17 0;
#X connect 21 0 19 0;
#X connect 22 0 23 0;
#X connect 22 1 23 1;
#X connect 23 0 24 0;
#X connect 24 0 26 0;
#X connect 25 0 39 0;
#X connect 25 1 40 0;
#X connect 26 0 25 0;
#X connect 27 0 46 0;
#X connect 28 0 27 0;
#X connect 28 0 35 0;
#X connect 28 0 47 0;
#X connect 28 0 49 1;
#X connect 29 0 30 0;
#X connect 30 0 27 0;
#X connect 30 0 35 0;
#X connect 30 0 47 0;
#X connect 30 0 49 1;
#X connect 31 0 29 0;
#X connect 32 0 33 1;
#X connect 32 0 4 0;
#X connect 32 0 45 0;
#X connect 33 0 34 0;
#X connect 34 0 32 0;
#X connect 34 0 41 1;
#X connect 34 0 18 0;
#X connect 36 0 34 1;
#X connect 38 0 37 0;
#X connect 39 0 33 0;
#X connect 40 0 33 0;
#X connect 41 0 33 1;
#X connect 41 0 32 0;
#X connect 43 0 10 0;
#X connect 44 0 43 1;
#X connect 45 0 43 0;
#X connect 46 0 31 0;
#X connect 46 1 49 0;
#X connect 47 0 48 0;
#X connect 47 1 38 0;
#X connect 48 0 38 0;
#X connect 49 0 50 0;
#X connect 50 0 33 0;
#X restore 422 176 pd gui;
#N canvas 2480 29 800 871 back-up 0;
#X obj 122 58 r \$0-back;
#X obj 272 121 r \$0-up;
#X obj 320 58 r \$0-actual-dir;
#X obj 320 77 s2l /;
#X obj 320 96 list-splat -1;
#X obj 320 115 l2s /;
#X obj 287 153 symbol;
#X obj 287 172 s \$0-dir;
#X msg 320 134 symbol /\$1;
#X obj 122 96 print sndsel;
#X msg 122 77 the back button ain't done yet;
#X connect 0 0 10 0;
#X connect 1 0 6 0;
#X connect 2 0 3 0;
#X connect 3 0 4 0;
#X connect 4 0 5 0;
#X connect 5 0 8 0;
#X connect 6 0 7 0;
#X connect 8 0 6 1;
#X connect 10 0 9 0;
#X restore 422 205 pd back-up;
#N canvas 0 1080 960 1048 click 0;
#X obj 62 18 r \$0-h0;
#X msg 62 38 0;
#X obj 110 18 r \$0-h1;
#X obj 158 18 r \$0-h2;
#X obj 206 18 r \$0-h3;
#X obj 254 18 r \$0-h4;
#X obj 302 18 r \$0-h5;
#X obj 350 18 r \$0-h6;
#X obj 398 18 r \$0-h7;
#X msg 110 38 1;
#X msg 158 38 2;
#X msg 206 38 3;
#X msg 254 38 4;
#X msg 302 38 5;
#X msg 398 38 7;
#X msg 350 38 6;
#X obj 352 137 r \$0-the-8;
#X obj 224 334 outlet;
#X obj 272 116 list length;
#X obj 224 156 spigot;
#X obj 257 136 <;
#X obj 269 176 r \$0-actual-dir;
#X obj 224 196 pack s s;
#X obj 224 285 prepent open;
#X obj 224 176 map;
#N canvas 0 29 800 849 preview 0;
#X obj 37 56 inlet;
#X obj 95 56 r \$0-preview;
#X obj 95 138 readsf~;
#X obj 37 98 spigot;
#X obj 37 117 t b a;
#X msg 37 136 1;
#X obj 95 86 sel 0;
#X obj 84 166 dac~;
#X msg 95 105 0;
#X connect 0 0 3 0;
#X connect 1 0 3 1;
#X connect 1 0 6 0;
#X connect 2 0 7 1;
#X connect 2 0 7 0;
#X connect 3 0 4 0;
#X connect 4 0 5 0;
#X connect 4 1 2 0;
#X connect 5 0 2 0;
#X connect 6 0 8 0;
#X connect 8 0 2 0;
#X restore 235 314 pd preview;
#N canvas 800 29 960 1048 directory 0;
#X obj 57 37 inlet;
#X obj 57 205 outlet;
#X obj 57 58 t a a;
#X obj 57 121 prepent 0;
#X obj 57 142 route 0 1;
#X obj 82 163 symbol;
#X obj 82 184 s \$0-dir;
#X obj 31 247 s \$0-scroll;
#X obj 31 226 bang;
#X obj 84 79 file isdirectory;
#X connect 0 0 2 0;
#X connect 2 0 3 0;
#X connect 2 1 9 0;
#X connect 3 0 4 0;
#X connect 4 0 1 0;
#X connect 4 0 8 0;
#X connect 4 1 5 0;
#X connect 5 0 6 0;
#X connect 8 0 7 0;
#X connect 9 0 3 1;
#X restore 224 236 pd directory;
#X msg 224 216 symbol \$2/\$1;
#X obj 235 265 s \$0-selected;
#X obj 224 112 t f f;
#X connect 0 0 1 0;
#X connect 1 0 29 0;
#X connect 2 0 9 0;
#X connect 3 0 10 0;
#X connect 4 0 11 0;
#X connect 5 0 12 0;
#X connect 6 0 13 0;
#X connect 7 0 15 0;
#X connect 8 0 14 0;
#X connect 9 0 29 0;
#X connect 10 0 29 0;
#X connect 11 0 29 0;
#X connect 12 0 29 0;
#X connect 13 0 29 0;
#X connect 14 0 29 0;
#X connect 15 0 29 0;
#X connect 16 0 18 0;
#X connect 16 0 24 1;
#X connect 18 0 20 1;
#X connect 19 0 24 0;
#X connect 20 0 19 1;
#X connect 21 0 22 1;
#X connect 22 0 27 0;
#X connect 23 0 17 0;
#X connect 23 0 25 0;
#X connect 24 0 22 0;
#X connect 26 0 23 0;
#X connect 26 0 28 0;
#X connect 27 0 26 0;
#X connect 29 0 19 0;
#X connect 29 1 20 0;
#X restore 422 234 pd click;
#X floatatom 352 135 5 0 0 0 - - - 0;
#X obj 352 164 s \$0-top;
#X connect 12 0 13 0;
#X connect 20 0 16 0;
#X connect 21 0 22 0;
#X coords 0 -1 1 1 140 136 1 100 100;
