#N canvas 2880 32 960 1048 10;
#X obj 111 130 hsl 127 13 0 127 0 0 \$0-h0 \$0-h0r 9929__davepape__boink-0006.wav
-2 6 0 10 -262144 -262144 -1 0 1;
#X obj 111 143 hsl 127 13 0 127 0 0 \$0-h1 \$0-h1r N64 Samples/ -2
6 0 10 -262144 -262144 -62784 0 1;
#X obj 111 156 hsl 127 13 0 127 0 0 \$0-h2 \$0-h2r anime/ -2 6 0 10
-262144 -262144 -62784 0 1;
#X obj 111 169 hsl 127 13 0 127 0 0 \$0-h3 \$0-h3r aust-paul-lazer.wav
-2 6 0 10 -262144 -262144 -1 0 1;
#X obj 111 182 hsl 127 13 0 127 0 0 \$0-h4 \$0-h4r balloon.wav -2 6
0 10 -262144 -262144 -1 0 1;
#X obj 111 195 hsl 127 13 0 127 0 0 \$0-h5 \$0-h5r bass/ -2 6 0 10
-262144 -262144 -62784 0 1;
#X obj 111 208 hsl 127 13 0 127 0 0 \$0-h6 \$0-h6r bird.wav -2 6 0
10 -262144 -262144 -1 0 1;
#X obj 111 221 hsl 127 13 0 127 0 0 \$0-h7 \$0-h7r bleepeater-samples/
-2 6 0 10 -262144 -262144 -62784 0 1;
#X obj 100 132 vsl 8 99 1 0 0 0 \$0-scroll \$0-scrollr empty 143 -25
0 10 -262144 -33289 -33289 9800 1;
#N canvas 1680 29 1600 871 init 0;
#X obj 103 248 s;
#X obj 103 124 until;
#X obj 103 143 t b b;
#X obj 130 181 pack f \$0;
#X msg 130 219 symbol \$2-h\$1r;
#X msg 103 105 8;
#X obj 130 162 count 8;
#X msg 103 200 label \, label_pos -2 6 \, color 0 0 22 \, size 127
13;
#X obj 76 86 t b b;
#X obj 76 286 s \$0-dir;
#X msg 76 267 symbol ~;
#X obj 76 67 loadbang;
#X obj 203 152 s \$0-extensions;
#X msg 203 133 list .wav;
#X connect 1 0 2 0;
#X connect 2 0 7 0;
#X connect 2 1 6 0;
#X connect 3 0 4 0;
#X connect 4 0 0 1;
#X connect 5 0 1 0;
#X connect 6 0 3 0;
#X connect 7 0 0 0;
#X connect 8 0 10 0;
#X connect 8 1 5 0;
#X connect 8 1 13 0;
#X connect 10 0 9 0;
#X connect 11 0 8 0;
#X connect 13 0 12 0;
#X restore 452 128 pd init;
#N canvas 1680 29 800 871 go 0;
#X obj 236 200 s \$0-dir-size;
#X obj 236 181 list length;
#X obj 216 219 s \$0-dir-contents;
#N canvas 1680 29 1600 871 filter 0;
#X obj 67 57 inlet;
#X obj 87 370 outlet;
#X text 129 368 <-- outputs only the files and folders we want to see
(all folders \, and only files that match the glob pattern);
#X obj 94 114 folder_list;
#X obj 94 152 file_type;
#X text 104 57 <-- receives directory name;
#X msg 67 76 symbol \$1/*;
#X obj 94 201 pack s s;
#X obj 94 133 t a a;
#X msg 87 332 add2 \$1;
#X msg 87 351 list;
#X obj 94 220 route list;
#X obj 94 239 route folder file;
#N canvas 800 29 800 849 glob 0;
#X obj 195 147 inlet;
#X obj 207 399 s2l .pd;
#X obj 207 418 route list symbol;
#X obj 314 231 r \$0-extensions;
#X obj 207 667 outlet;
#X msg 207 648 \$1\$2;
#X obj 195 185 t a b;
#X msg 222 204 reset \, bang;
#X obj 207 610 list-idx 0;
#X msg 246 361 .wav;
#X obj 222 266 count;
#X obj 341 269 list length;
#X obj 314 250 t a a;
#X obj 246 380 list-idx;
#X obj 314 288 prepent set;
#X obj 195 166 symbol;
#X obj 256 437 bang;
#X obj 239 314 t f b f;
#X obj 117 312 sel 0;
#X obj 144 331 bang;
#X obj 179 238 symbol;
#X text -175 312 bangs on left outlet when there is no match -->;
#X text 287 435 <-- not matched yet \, so try again...;
#X text 125 610 a match! -->;
#X text 412 231 <-- extensions must have a .;
#X obj 87 410 t a a;
#X obj 114 429 list length;
#X obj 114 448 == 2;
#X obj 81 467 spigot;
#X obj 207 629 pack s s;
#X obj 81 486 t a a;
#X obj 108 505 list-idx 1;
#X obj 108 524 route float;
#X obj 108 543 == 0;
#X obj 171 543 bang;
#X msg 171 562 0;
#X obj 75 591 spigot;
#X connect 0 0 15 0;
#X connect 1 0 2 0;
#X connect 2 0 25 0;
#X connect 2 1 16 0;
#X connect 3 0 12 0;
#X connect 5 0 4 0;
#X connect 6 0 20 0;
#X connect 6 1 7 0;
#X connect 7 0 10 0;
#X connect 8 0 29 0;
#X connect 9 0 13 0;
#X connect 10 0 17 0;
#X connect 11 0 10 1;
#X connect 12 0 14 0;
#X connect 12 1 11 0;
#X connect 13 0 1 1;
#X connect 13 0 29 1;
#X connect 14 0 9 0;
#X connect 15 0 6 0;
#X connect 16 0 10 0;
#X connect 17 0 18 0;
#X connect 17 1 9 0;
#X connect 17 2 13 1;
#X connect 18 1 19 0;
#X connect 19 0 20 0;
#X connect 20 0 1 0;
#X connect 25 0 28 0;
#X connect 25 1 26 0;
#X connect 26 0 27 0;
#X connect 27 0 28 1;
#X connect 28 0 30 0;
#X connect 29 0 5 0;
#X connect 30 0 36 0;
#X connect 30 1 31 0;
#X connect 31 0 32 0;
#X connect 32 0 33 0;
#X connect 32 1 34 0;
#X connect 33 0 36 1;
#X connect 34 0 35 0;
#X connect 35 0 36 1;
#X connect 36 0 8 0;
#X restore 143 258 pd glob;
#N canvas 800 29 800 849 spacer 0;
#X obj 93 44 inlet;
#X obj 93 101 l2s;
#X obj 108 63 loadbang;
#X obj 108 82 spacesym;
#X obj 93 158 outlet;
#X obj 93 120 s2l /;
#X obj 93 139 list-idx -1;
#X connect 0 0 1 0;
#X connect 1 0 5 0;
#X connect 2 0 3 0;
#X connect 3 0 1 1;
#X connect 5 0 6 0;
#X connect 6 0 4 0;
#X restore 139 182 pd spacer;
#X obj 87 313 symbol;
#X msg -5 232 bang \, set list;
#X obj 67 95 t b a;
#X msg 94 277 \$1/;
#X obj 94 258 symbol;
#X connect 0 0 6 0;
#X connect 3 0 8 0;
#X connect 4 0 7 0;
#X connect 6 0 17 0;
#X connect 7 0 11 0;
#X connect 8 0 4 0;
#X connect 8 1 14 0;
#X connect 9 0 10 0;
#X connect 10 0 1 0;
#X connect 11 0 12 0;
#X connect 12 0 19 0;
#X connect 12 1 13 0;
#X connect 13 0 15 0;
#X connect 14 0 7 1;
#X connect 15 0 9 0;
#X connect 16 0 10 0;
#X connect 17 0 16 0;
#X connect 17 1 3 0;
#X connect 18 0 15 0;
#X connect 19 0 18 0;
#X restore 197 143 pd filter;
#X obj 197 105 r \$0-new-dir;
#X text 185 39 pd go - contains the stuff to get the folder contents
and filter them according to the glob.;
#X obj 197 257 s \$0-scrollr;
#X msg 197 238 0;
#X obj 197 162 t b a a;
#X text 274 99 <-- receives the name of the directory we want from
the symbol atom.;
#N canvas 800 29 800 849 fix-path 0;
#X obj 187 19 inlet;
#X obj 187 140 outlet;
#X obj 187 76 kfilename;
#X symbolatom 197 103 40 0 0 0 - - -;
#X obj 197 121 s \$0-actual-dir;
#N canvas 800 29 800 849 no-trailing-slash 0;
#X obj 192 110 inlet;
#X obj 192 129 chars;
#X obj 219 167 list-idx -1;
#X obj 219 186 sel /;
#X msg 219 205 0;
#X msg 246 205 1;
#X obj 205 291 outlet;
#X obj 97 286 list-splat -1;
#X obj 180 234 prepent;
#X obj 180 253 route 0 1;
#X obj 205 272 sym;
#X obj 192 148 t a a;
#X obj 97 305 sym;
#X obj 97 324 s \$0-dir;
#X connect 0 0 1 0;
#X connect 1 0 11 0;
#X connect 2 0 3 0;
#X connect 3 0 4 0;
#X connect 3 1 5 0;
#X connect 4 0 8 1;
#X connect 5 0 8 1;
#X connect 7 0 12 0;
#X connect 8 0 9 0;
#X connect 9 0 7 0;
#X connect 9 1 10 0;
#X connect 10 0 6 0;
#X connect 11 0 8 0;
#X connect 11 1 2 0;
#X connect 12 0 13 0;
#X restore 187 38 pd no-trailing-slash;
#N canvas 800 29 800 849 shorten 0;
#X obj 199 68 inlet;
#X obj 199 187 outlet;
#X obj 235 68 kfilename;
#X connect 0 0 1 0;
#X restore 187 57 pd shorten;
#X connect 0 0 5 0;
#X connect 2 0 3 0;
#X connect 2 0 4 0;
#X connect 2 0 1 0;
#X connect 5 0 6 0;
#X connect 6 0 2 0;
#X restore 197 124 pd fix-path;
#X connect 1 0 0 0;
#X connect 3 0 8 0;
#X connect 4 0 10 0;
#X connect 7 0 6 0;
#X connect 8 0 7 0;
#X connect 8 1 2 0;
#X connect 8 2 1 0;
#X connect 10 0 3 0;
#X restore 452 147 pd go;
#X symbolatom 100 114 23 0 0 0 - #0-dir #0-new-dir;
#X obj 452 90 inlet;
#N canvas 1680 29 800 871 parse 0;
#X obj 37 37 inlet;
#X obj 37 56 route dir up back;
#X obj 70 164 s \$0-up;
#X obj 103 145 s \$0-back;
#X obj 37 202 s \$0-dir;
#X obj 37 183 symbol;
#X connect 0 0 1 0;
#X connect 1 0 5 0;
#X connect 1 1 2 0;
#X connect 1 2 3 0;
#X connect 5 0 4 0;
#X restore 452 109 pd parse;
#X obj 226 100 bng 14 250 50 0 \$0-up empty ^ 4 10 0 12 -262144 -1
-1;
#X obj 212 100 bng 14 250 50 0 \$0-back empty < 3 8 0 12 -262144 -1
-1;
#X obj 452 223 outlet;
#X obj 198 100 tgl 14 0 \$0-preview empty p 4 7 0 10 -262144 -1 -1
0 1;
#N canvas 2880 32 960 1048 gui 0;
#X obj 108 137 r \$0-scroll;
#X obj 108 194 *;
#X obj 163 156 r \$0-dir-size;
#X obj 163 175 - 8;
#X obj 208 451 list split;
#N canvas 2480 29 800 871 the-list 0;
#X obj 11 10 r \$0-dir-contents;
#X obj 170 48 inlet;
#X obj 31 266 outlet;
#X msg 88 102 9929__davepape__boink-0006.wav N64 Samples/ anime/ aust-paul-lazer.wav
balloon.wav bass/ bird.wav bleepeater-samples/ boomclick01.wav buzz.wav
buzzer.wav cbb-imp.wav chirp.wav d/ dropshave.wav drums/ dwewdwuw.wav
eatanappel.wav electric.wav explode.wav faucet.wav fingerdrumming.wav
fiphe.wav flange-blow.wav flizzle.wav fltr1.wav frog.wav frog1.wav
from/ game-boy-player-error.wav glass-shatter.wav glasssmash.wav grunt.wav
hannabarbara.wav ice-crackle1.wav ice-hit1.wav ice1.wav impulse-responses/
l/ lighter1.wav lighter2.wav lighter3.wav lighter4.wav lion-growl.wav
loops/ lp-hahn-12-warn-beep.wav mario-commercial/ maryoclip.wav me-hhh.wav
melody/ misc/ music/ nat-tap1.wav nat-tap2.wav non/ old/ oomf.wav packs/
percdubba.wav pf_gyfhoomd_boom.wav piano3.wav piano_dings.wav pit01.wav
plant-kill.wav projector-screen.wav projector-start-run-stop-18fps.wav
purring.wav quickrecordscratching.wav radical-cym.wav rattleLoop.wav
rattleclack.wav rattlecrash.wav recordskip.wav ricdatstore.wav roguclick.wav
sawblade.wav scrape01.wav scrape02.wav scw/ sh/ shaveblast.wav shavestart.wav
slap.wav slidde.wav slow-riff.wav smashwarble.wav sneeze.wav sodacan/
sonic/ splattr.wav squeak.wav srnr-hit.wav storm1.wav tch.wav textures/
thunder_03.wav thunder_04.wav toony-bonks.wav tr808/ tr909/ train01.wav
train02.wav tremcrash.wav unknwn9.wav usat_bomb.wav voice/ whpish01.wav
whuuup.wav winshut.wav zzap.wav;
#X obj 68 48 prepent set;
#X obj 11 29 route bang;
#X msg 11 68 set list;
#X connect 0 0 5 0;
#X connect 1 0 3 0;
#X connect 3 0 2 0;
#X connect 4 0 3 0;
#X connect 5 0 6 0;
#X connect 5 1 4 0;
#X connect 6 0 3 0;
#X restore 208 432 pd the-list;
#X obj 286 430 s \$0-view-from;
#X obj 236 497 list split 8;
#X obj 236 735 s;
#X msg 272 677 symbol \$2-h\$1r;
#X obj 272 658 pack f \$0;
#X obj 236 582 until;
#X msg 236 563 8;
#X obj 236 544 t b a;
#X obj 236 601 count 8;
#N canvas 0 29 800 849 the-eight 0;
#X obj 37 37 inlet;
#X obj 127 119 prepent set;
#X msg 47 225 9929__davepape__boink-0006.wav N64 Samples/ anime/ aust-paul-lazer.wav
balloon.wav bass/ bird.wav bleepeater-samples/;
#X obj 47 284 outlet;
#X obj 97 37 inlet;
#X obj 47 265 list-idx;
#X obj 112 164 >=;
#X obj 127 145 list length;
#X obj 112 183 sel 0 1;
#X msg 131 202 symbol;
#X obj 37 56 t f f;
#X obj 97 56 route bang;
#X msg 97 75 0;
#X connect 0 0 10 0;
#X connect 1 0 2 0;
#X connect 2 0 5 0;
#X connect 4 0 11 0;
#X connect 5 0 3 0;
#X connect 6 0 8 0;
#X connect 7 0 6 1;
#X connect 8 0 2 0;
#X connect 8 1 9 0;
#X connect 9 0 3 0;
#X connect 10 0 6 0;
#X connect 10 1 5 1;
#X connect 11 0 12 0;
#X connect 11 1 1 0;
#X connect 11 1 7 0;
#X connect 12 0 6 1;
#X restore 236 639 pd the-eight;
#X obj 236 620 t f f;
#X obj 305 581 s \$0-the-8;
#N canvas 800 29 800 410 label 0;
#X obj 65 57 inlet;
#X obj 65 342 outlet;
#X obj 105 116 t a a;
#X msg 105 285 label \$2 \, color 0 0 \$1;
#X obj 105 266 pack f s;
#X obj 105 135 chars;
#X obj 105 154 list-idx -1;
#X obj 105 173 sel /;
#X msg 105 192 18;
#X obj 65 76 emptysymbol;
#X msg 65 285 label;
#N canvas 800 468 800 410 is-selected 0;
#X obj 114 -6 inlet;
#X obj 114 13 bang;
#X obj 129 265 &&;
#X msg 168 204 0;
#X msg 129 204 1;
#X obj 114 303 sel 0 1;
#X msg 239 229 0;
#X msg 200 229 1;
#X obj 200 191 inlet;
#X obj 114 377 outlet;
#X obj 129 32 r \$0-actual-dir;
#X obj 163 51 r \$0-selected;
#X obj 190 108 s2l /;
#X obj 190 127 list-splat -1;
#X obj 190 146 l2s /;
#X obj 114 284 f;
#X obj 163 70 symbol;
#X obj 129 185 sel foo;
#X obj 200 210 sel foo;
#X msg 190 165 symbol /\$1;
#X symbolatom 282 181 30 0 0 0 - - -;
#X msg 114 322 22;
#X msg 133 341 13;
#X obj 129 140 symbol;
#X obj 163 89 t b a;
#X connect 0 0 1 0;
#X connect 1 0 15 0;
#X connect 2 0 15 1;
#X connect 3 0 2 1;
#X connect 4 0 2 1;
#X connect 5 0 21 0;
#X connect 5 1 22 0;
#X connect 6 0 2 0;
#X connect 7 0 2 0;
#X connect 8 0 18 0;
#X connect 10 0 23 0;
#X connect 11 0 16 0;
#X connect 12 0 13 0;
#X connect 13 0 14 0;
#X connect 13 1 18 1;
#X connect 13 1 20 0;
#X connect 14 0 19 0;
#X connect 15 0 5 0;
#X connect 16 0 24 0;
#X connect 17 0 4 0;
#X connect 17 1 3 0;
#X connect 18 0 7 0;
#X connect 18 1 6 0;
#X connect 19 0 17 1;
#X connect 21 0 9 0;
#X connect 22 0 9 0;
#X connect 23 0 17 0;
#X connect 24 0 23 0;
#X connect 24 1 12 0;
#X restore 132 192 pd is-selected;
#X connect 0 0 9 0;
#X connect 2 0 5 0;
#X connect 2 1 4 1;
#X connect 2 1 11 1;
#X connect 3 0 1 0;
#X connect 4 0 3 0;
#X connect 5 0 6 0;
#X connect 6 0 7 0;
#X connect 7 0 8 0;
#X connect 7 1 11 0;
#X connect 8 0 4 0;
#X connect 9 0 10 0;
#X connect 9 1 2 0;
#X connect 10 0 1 0;
#X connect 11 0 4 0;
#X restore 236 716 pd label;
#X obj 208 265 r \$0-top;
#X obj 301 348 s \$0-scrollr;
#X obj 301 291 /;
#X msg 301 329 set \$1;
#X text 504 61 scrollbar text (i.e. Top \, Bot \, All \, %);
#X obj 301 310 clip 0 1;
#X obj 290 58 keyname;
#X obj 290 77 pack f s;
#X obj 290 96 route 1;
#X obj 290 134 sel Up Down;
#X obj 290 115 symbol;
#X obj 76 39 cursor;
#X obj 76 58 route button;
#X msg 60 162 1;
#X obj 76 96 sel 1;
#X msg 32 162 0;
#X obj 76 77 route 1;
#X obj 208 298 int;
#X obj 290 191 +;
#X obj 290 210 spigot;
#X obj 32 201 s \$0-spigot;
#X obj 323 191 r \$0-spigot;
#X obj 190 100 s \$0-scrollr;
#X msg 190 81 color \$1 12 12;
#X obj 190 62 map 0 17;
#X msg 290 153 -1;
#X msg 321 153 1;
#X obj 208 332 t b i;
#X obj 108 213 int;
#N canvas 1920 32 960 1048 show-position 0;
#X obj 28 180 <= 8;
#X obj 47 220 f;
#X obj 28 200 sel 1 0;
#X obj 227 612 s \$0-scrollr;
#X obj 165 152 r \$0-dir-size;
#X obj 56 285 spacesym;
#X obj 28 305 pack 0 s f;
#X obj 28 140 t b f;
#X obj 28 160 f;
#X obj 28 260 t b b;
#X obj 263 238 t f f;
#X obj 263 258 == 0;
#X obj 312 337 f;
#X obj 263 278 sel 1;
#X obj 312 317 bang;
#X obj 320 397 r \$0-dir-size;
#X obj 291 377 spacesym;
#X obj 263 416 pack 0 s f;
#X obj 263 350 t b b;
#X text 268 219 is it the top?;
#X text 41 118 is it all?;
#X obj 470 283 - 8;
#X obj 455 302 ==;
#X obj 455 245 t f f;
#X obj 455 321 sel 1;
#X obj 482 359 f;
#X obj 482 340 bang;
#X obj 470 264 r \$0-dir-size;
#X obj 512 439 r \$0-dir-size;
#X obj 483 420 spacesym;
#X obj 455 458 pack 0 s f;
#X obj 455 397 t b b;
#X text 466 229 is it the bottom?;
#X obj 723 296 r \$0-dir-size;
#X obj 676 296 t f f;
#X obj 676 329 /;
#X obj 764 454 spacesym;
#X obj 629 369 * 100;
#X obj 629 388 int;
#X msg 629 407 symbol \$1%;
#X obj 642 437 t a b;
#X obj 683 473 pack s f f s;
#X text 627 274 if it's not all \, top \, or bottom \, show a percent
;
#X obj 148 642 s \$0-scrollr;
#X msg 148 622 label;
#X obj 148 602 del 1500;
#X obj 28 70 r \$0-view-from;
#X obj 200 568 t b a;
#X msg 263 436 symbol Top\$2of\$2\$3;
#X msg 455 477 symbol Bot\$2of\$2\$3;
#X msg 683 492 symbol \$1\$4(\$2/\$3);
#X msg 28 325 symbol All\$2of\$2\$3;
#X msg 200 548 label_pos 143 -25 \, label \$1;
#X connect 0 0 2 0;
#X connect 1 0 10 0;
#X connect 2 0 9 0;
#X connect 2 1 1 0;
#X connect 4 0 6 2;
#X connect 4 0 8 1;
#X connect 5 0 6 1;
#X connect 6 0 51 0;
#X connect 7 0 8 0;
#X connect 7 1 1 1;
#X connect 8 0 0 0;
#X connect 9 0 6 0;
#X connect 9 1 5 0;
#X connect 10 0 11 0;
#X connect 10 1 12 1;
#X connect 11 0 13 0;
#X connect 12 0 23 0;
#X connect 13 0 18 0;
#X connect 13 1 14 0;
#X connect 14 0 12 0;
#X connect 15 0 17 2;
#X connect 16 0 17 1;
#X connect 17 0 48 0;
#X connect 18 0 17 0;
#X connect 18 1 16 0;
#X connect 21 0 22 1;
#X connect 22 0 24 0;
#X connect 23 0 22 0;
#X connect 23 1 25 1;
#X connect 24 0 31 0;
#X connect 24 1 26 0;
#X connect 25 0 34 0;
#X connect 26 0 25 0;
#X connect 27 0 21 0;
#X connect 28 0 30 2;
#X connect 29 0 30 1;
#X connect 30 0 49 0;
#X connect 31 0 30 0;
#X connect 31 1 29 0;
#X connect 33 0 35 1;
#X connect 33 0 41 2;
#X connect 34 0 35 0;
#X connect 34 1 41 1;
#X connect 35 0 37 0;
#X connect 36 0 41 3;
#X connect 37 0 38 0;
#X connect 38 0 39 0;
#X connect 39 0 40 0;
#X connect 40 0 41 0;
#X connect 40 1 36 0;
#X connect 41 0 50 0;
#X connect 44 0 43 0;
#X connect 45 0 44 0;
#X connect 46 0 7 0;
#X connect 47 0 45 0;
#X connect 47 1 3 0;
#X connect 48 0 52 0;
#X connect 49 0 52 0;
#X connect 50 0 52 0;
#X connect 51 0 52 0;
#X connect 52 0 47 0;
#X restore 398 62 pd show-position;
#X connect 0 0 1 0;
#X connect 0 0 32 0;
#X connect 1 0 47 0;
#X connect 2 0 3 0;
#X connect 3 0 1 1;
#X connect 3 0 21 1;
#X connect 4 1 7 0;
#X connect 4 2 7 0;
#X connect 5 0 4 0;
#X connect 7 0 13 0;
#X connect 7 2 13 0;
#X connect 9 0 8 1;
#X connect 10 0 9 0;
#X connect 11 0 14 0;
#X connect 12 0 11 0;
#X connect 13 0 12 0;
#X connect 13 1 15 1;
#X connect 13 1 17 0;
#X connect 14 0 16 0;
#X connect 15 0 18 0;
#X connect 16 0 15 0;
#X connect 16 1 10 0;
#X connect 18 0 8 0;
#X connect 19 0 36 0;
#X connect 21 0 24 0;
#X connect 22 0 20 0;
#X connect 24 0 22 0;
#X connect 25 0 26 0;
#X connect 25 1 26 1;
#X connect 26 0 27 0;
#X connect 27 0 29 0;
#X connect 28 0 44 0;
#X connect 28 1 45 0;
#X connect 29 0 28 0;
#X connect 30 0 31 0;
#X connect 31 0 35 0;
#X connect 32 0 30 0;
#X connect 32 0 39 0;
#X connect 32 0 43 0;
#X connect 33 0 34 0;
#X connect 34 0 30 0;
#X connect 34 0 39 0;
#X connect 34 0 43 0;
#X connect 35 0 33 0;
#X connect 36 0 37 1;
#X connect 36 0 46 0;
#X connect 37 0 38 0;
#X connect 38 0 36 0;
#X connect 38 0 47 1;
#X connect 38 0 21 0;
#X connect 40 0 38 1;
#X connect 42 0 41 0;
#X connect 43 0 42 0;
#X connect 44 0 37 0;
#X connect 45 0 37 0;
#X connect 46 0 5 0;
#X connect 46 1 4 1;
#X connect 46 1 6 0;
#X connect 47 0 37 1;
#X connect 47 0 36 0;
#X restore 452 166 pd gui;
#N canvas 2480 29 800 871 back-up 0;
#X obj 122 58 r \$0-back;
#X obj 272 121 r \$0-up;
#X obj 320 58 r \$0-actual-dir;
#X obj 320 77 s2l /;
#X obj 320 96 list-splat -1;
#X obj 320 115 l2s /;
#X obj 287 153 symbol;
#X obj 287 172 s \$0-dir;
#X msg 320 134 symbol /\$1;
#X obj 122 96 print sndsel;
#X msg 122 77 the back button ain't done yet;
#X connect 0 0 10 0;
#X connect 1 0 6 0;
#X connect 2 0 3 0;
#X connect 3 0 4 0;
#X connect 4 0 5 0;
#X connect 5 0 8 0;
#X connect 6 0 7 0;
#X connect 8 0 6 1;
#X connect 10 0 9 0;
#X restore 452 185 pd back-up;
#N canvas 1680 29 800 871 click 0;
#X obj 62 18 r \$0-h0;
#X msg 62 37 0;
#X obj 110 18 r \$0-h1;
#X obj 158 18 r \$0-h2;
#X obj 206 18 r \$0-h3;
#X obj 254 18 r \$0-h4;
#X obj 302 18 r \$0-h5;
#X obj 350 18 r \$0-h6;
#X obj 398 18 r \$0-h7;
#X msg 110 37 1;
#X msg 158 37 2;
#X msg 206 37 3;
#X msg 254 37 4;
#X msg 302 37 5;
#X msg 398 37 7;
#X msg 350 37 6;
#X obj 352 136 r \$0-the-8;
#X obj 224 323 outlet;
#X obj 272 115 list length;
#X obj 224 153 spigot;
#X obj 257 134 <;
#X obj 269 172 r \$0-actual-dir;
#X obj 224 191 pack s s;
#X obj 224 276 prepent open;
#X obj 224 172 map;
#N canvas 0 29 800 849 preview 0;
#X obj 37 56 inlet;
#X obj 95 56 r \$0-preview;
#X obj 95 138 readsf~;
#X obj 37 98 spigot;
#X obj 37 117 t b a;
#X msg 37 136 1;
#X obj 95 86 sel 0;
#X obj 84 166 dac~;
#X msg 95 105 0;
#X connect 0 0 3 0;
#X connect 1 0 3 1;
#X connect 1 0 6 0;
#X connect 2 0 7 1;
#X connect 2 0 7 0;
#X connect 3 0 4 0;
#X connect 4 0 5 0;
#X connect 4 1 2 0;
#X connect 5 0 2 0;
#X connect 6 0 8 0;
#X connect 8 0 2 0;
#X restore 235 304 pd preview;
#N canvas 800 29 800 410 directory 0;
#X obj 37 37 inlet;
#X obj 37 225 outlet;
#X obj 64 75 file_type;
#X obj 37 56 t a a;
#X obj 37 149 prepent 0;
#X msg 64 113 0;
#X msg 107 113 1;
#X obj 64 94 sel file folder;
#X obj 37 168 route 0 1;
#X obj 62 187 symbol;
#X obj 62 206 s \$0-dir;
#X obj 11 263 s \$0-scroll;
#X obj 11 244 bang;
#X connect 0 0 3 0;
#X connect 2 0 7 0;
#X connect 3 0 4 0;
#X connect 3 1 2 0;
#X connect 4 0 8 0;
#X connect 5 0 4 1;
#X connect 6 0 4 1;
#X connect 7 0 5 0;
#X connect 7 1 6 0;
#X connect 8 0 1 0;
#X connect 8 0 12 0;
#X connect 8 1 9 0;
#X connect 9 0 10 0;
#X connect 12 0 11 0;
#X restore 224 229 pd directory;
#X msg 224 210 symbol \$2/\$1;
#X obj 235 257 s \$0-selected;
#X obj 224 111 t f f;
#X connect 0 0 1 0;
#X connect 1 0 29 0;
#X connect 2 0 9 0;
#X connect 3 0 10 0;
#X connect 4 0 11 0;
#X connect 5 0 12 0;
#X connect 6 0 13 0;
#X connect 7 0 15 0;
#X connect 8 0 14 0;
#X connect 9 0 29 0;
#X connect 10 0 29 0;
#X connect 11 0 29 0;
#X connect 12 0 29 0;
#X connect 13 0 29 0;
#X connect 14 0 29 0;
#X connect 15 0 29 0;
#X connect 16 0 18 0;
#X connect 16 0 24 1;
#X connect 18 0 20 1;
#X connect 19 0 24 0;
#X connect 20 0 19 1;
#X connect 21 0 22 1;
#X connect 22 0 27 0;
#X connect 23 0 17 0;
#X connect 23 0 25 0;
#X connect 24 0 22 0;
#X connect 26 0 23 0;
#X connect 26 0 28 0;
#X connect 27 0 26 0;
#X connect 29 0 19 0;
#X connect 29 1 20 0;
#X restore 452 204 pd click;
#X floatatom 352 135 5 0 0 0 - - -;
#X obj 352 164 s \$0-top;
#X connect 12 0 13 0;
#X connect 20 0 16 0;
#X connect 21 0 22 0;
#X coords 0 -1 1 1 140 136 1 100 100;
