#N canvas 800 468 800 410 10;
#X obj 111 130 hsl 127 13 0 127 0 0 \$0-h0 \$0-h0r 138191__corsica-s__opal-creek-ice-1.wav
-2 6 0 10 -262144 -262144 -1 8000 1;
#X obj 111 143 hsl 127 13 0 127 0 0 \$0-h1 \$0-h1r 19185__fonogeno__fire-alarm.wav
-2 6 0 10 -262144 -262144 -1 0 1;
#X obj 111 156 hsl 127 13 0 127 0 0 \$0-h2 \$0-h2r 25032__sirplus__extreme-alarm.wav
-2 6 0 10 -262144 -262144 -1 0 1;
#X obj 111 169 hsl 127 13 0 127 0 0 \$0-h3 \$0-h3r 30935__aust-paul__possiblelazer.wav
-2 6 0 10 -262144 -262144 -1 0 1;
#X obj 111 182 hsl 127 13 0 127 0 0 \$0-h4 \$0-h4r 33657__corsica-s__meow.wav
-2 6 0 10 -262144 -262144 -258699 0 1;
#X obj 111 195 hsl 127 13 0 127 0 0 \$0-h5 \$0-h5r 41348__datasoundsample__glass-shatter.wav
-2 6 0 10 -262144 -262144 -1 0 1;
#X obj 111 208 hsl 127 13 0 127 0 0 \$0-h6 \$0-h6r 42937__agfx__elec-hand-drill-drilling-metal-rough-2.wav
-2 6 0 10 -262144 -262144 -1 0 1;
#X obj 111 221 hsl 127 13 0 127 0 0 \$0-h7 \$0-h7r 4913__noisecollector__cat1.wav
-2 6 0 10 -262144 -262144 -1 0 1;
#X obj 100 132 vsl 8 99 1 0 0 0 \$0-scroll \$0-scrollr empty 0 -9 0
10 -262144 -1 -1 9800 1;
#N canvas 800 29 800 849 init 0;
#X obj 103 248 s;
#X obj 103 124 until;
#X obj 103 143 t b b;
#X obj 130 181 pack f \$0;
#X msg 130 219 symbol \$2-h\$1r;
#X msg 103 105 8;
#X obj 130 162 count 8;
#X msg 103 200 label \, label_pos -2 6 \, color 0 0 22 \, size 127
13;
#X obj 76 86 t b b;
#X obj 76 286 s \$0-dir;
#X msg 76 267 symbol ~;
#X obj 76 67 loadbang;
#X obj 203 152 s \$0-extensions;
#X msg 203 133 list .wav;
#X connect 1 0 2 0;
#X connect 2 0 7 0;
#X connect 2 1 6 0;
#X connect 3 0 4 0;
#X connect 4 0 0 1;
#X connect 5 0 1 0;
#X connect 6 0 3 0;
#X connect 7 0 0 0;
#X connect 8 0 10 0;
#X connect 8 1 5 0;
#X connect 8 1 13 0;
#X connect 10 0 9 0;
#X connect 11 0 8 0;
#X connect 13 0 12 0;
#X restore 452 128 pd init;
#N canvas 800 29 800 410 go 0;
#X obj 236 200 s \$0-dir-size;
#X obj 236 181 list length;
#X obj 216 219 s \$0-dir-contents;
#N canvas 0 468 800 410 filter 0;
#X obj 67 57 inlet;
#X obj 87 370 outlet;
#X text 129 368 <-- outputs only the files and folders we want to see
(all folders \, and only files that match the glob pattern);
#X obj 94 114 folder_list;
#X obj 94 152 file_type;
#X text 104 57 <-- receives directory name;
#X msg 67 76 symbol \$1/*;
#X obj 94 201 pack s s;
#X obj 94 133 t a a;
#X msg 87 332 add2 \$1;
#X msg 87 351 list;
#X obj 94 220 route list;
#X obj 94 239 route folder file;
#N canvas 800 29 800 849 glob 0;
#X obj 195 147 inlet;
#X obj 207 399 s2l .pd;
#X obj 207 418 route list symbol;
#X obj 314 231 r \$0-extensions;
#X obj 207 667 outlet;
#X msg 207 648 \$1\$2;
#X obj 195 185 t a b;
#X msg 222 204 reset \, bang;
#X obj 207 610 list-idx 0;
#X msg 246 361 .wav;
#X obj 222 266 count;
#X obj 341 269 list length;
#X obj 314 250 t a a;
#X obj 246 380 list-idx;
#X obj 314 288 prepent set;
#X obj 195 166 symbol;
#X obj 256 437 bang;
#X obj 239 314 t f b f;
#X obj 117 312 sel 0;
#X obj 144 331 bang;
#X obj 179 238 symbol;
#X text -175 312 bangs on left outlet when there is no match -->;
#X text 287 435 <-- not matched yet \, so try again...;
#X text 125 610 a match! -->;
#X text 412 231 <-- extensions must have a .;
#X obj 87 410 t a a;
#X obj 114 429 list length;
#X obj 114 448 == 2;
#X obj 81 467 spigot;
#X obj 207 629 pack s s;
#X obj 81 486 t a a;
#X obj 108 505 list-idx 1;
#X obj 108 524 route float;
#X obj 108 543 == 0;
#X obj 171 543 bang;
#X msg 171 562 0;
#X obj 75 591 spigot;
#X connect 0 0 15 0;
#X connect 1 0 2 0;
#X connect 2 0 25 0;
#X connect 2 1 16 0;
#X connect 3 0 12 0;
#X connect 5 0 4 0;
#X connect 6 0 20 0;
#X connect 6 1 7 0;
#X connect 7 0 10 0;
#X connect 8 0 29 0;
#X connect 9 0 13 0;
#X connect 10 0 17 0;
#X connect 11 0 10 1;
#X connect 12 0 14 0;
#X connect 12 1 11 0;
#X connect 13 0 1 1;
#X connect 13 0 29 1;
#X connect 14 0 9 0;
#X connect 15 0 6 0;
#X connect 16 0 10 0;
#X connect 17 0 18 0;
#X connect 17 1 9 0;
#X connect 17 2 13 1;
#X connect 18 1 19 0;
#X connect 19 0 20 0;
#X connect 20 0 1 0;
#X connect 25 0 28 0;
#X connect 25 1 26 0;
#X connect 26 0 27 0;
#X connect 27 0 28 1;
#X connect 28 0 30 0;
#X connect 29 0 5 0;
#X connect 30 0 36 0;
#X connect 30 1 31 0;
#X connect 31 0 32 0;
#X connect 32 0 33 0;
#X connect 32 1 34 0;
#X connect 33 0 36 1;
#X connect 34 0 35 0;
#X connect 35 0 36 1;
#X connect 36 0 8 0;
#X restore 143 258 pd glob;
#N canvas 800 29 800 849 spacer 0;
#X obj 93 44 inlet;
#X obj 93 101 l2s;
#X obj 108 63 loadbang;
#X obj 108 82 spacesym;
#X obj 93 158 outlet;
#X obj 93 120 s2l /;
#X obj 93 139 list-idx -1;
#X connect 0 0 1 0;
#X connect 1 0 5 0;
#X connect 2 0 3 0;
#X connect 3 0 1 1;
#X connect 5 0 6 0;
#X connect 6 0 4 0;
#X restore 139 182 pd spacer;
#X obj 87 313 symbol;
#X msg -5 232 bang \, set list;
#X obj 67 95 t b a;
#X msg 94 277 \$1/;
#X obj 94 258 symbol;
#X connect 0 0 6 0;
#X connect 3 0 8 0;
#X connect 4 0 7 0;
#X connect 6 0 17 0;
#X connect 7 0 11 0;
#X connect 8 0 4 0;
#X connect 8 1 14 0;
#X connect 9 0 10 0;
#X connect 10 0 1 0;
#X connect 11 0 12 0;
#X connect 12 0 19 0;
#X connect 12 1 13 0;
#X connect 13 0 15 0;
#X connect 14 0 7 1;
#X connect 15 0 9 0;
#X connect 16 0 10 0;
#X connect 17 0 16 0;
#X connect 17 1 3 0;
#X connect 18 0 15 0;
#X connect 19 0 18 0;
#X restore 197 143 pd filter;
#X obj 197 105 r \$0-new-dir;
#X text 185 39 pd go - contains the stuff to get the folder contents
and filter them according to the glob.;
#X obj 197 257 s \$0-scrollr;
#X msg 197 238 0;
#X obj 197 162 t b a a;
#X text 274 99 <-- receives the name of the directory we want from
the symbol atom.;
#N canvas 800 29 800 849 fix-path 0;
#X obj 187 19 inlet;
#X obj 187 140 outlet;
#X obj 187 76 kfilename;
#X symbolatom 197 103 40 0 0 0 - - -;
#X obj 197 121 s \$0-actual-dir;
#N canvas 800 29 800 849 no-trailing-slash 0;
#X obj 192 110 inlet;
#X obj 192 129 chars;
#X obj 219 167 list-idx -1;
#X obj 219 186 sel /;
#X msg 219 205 0;
#X msg 246 205 1;
#X obj 205 291 outlet;
#X obj 97 286 list-splat -1;
#X obj 180 234 prepent;
#X obj 180 253 route 0 1;
#X obj 205 272 sym;
#X obj 192 148 t a a;
#X obj 97 305 sym;
#X obj 97 324 s \$0-dir;
#X connect 0 0 1 0;
#X connect 1 0 11 0;
#X connect 2 0 3 0;
#X connect 3 0 4 0;
#X connect 3 1 5 0;
#X connect 4 0 8 1;
#X connect 5 0 8 1;
#X connect 7 0 12 0;
#X connect 8 0 9 0;
#X connect 9 0 7 0;
#X connect 9 1 10 0;
#X connect 10 0 6 0;
#X connect 11 0 8 0;
#X connect 11 1 2 0;
#X connect 12 0 13 0;
#X restore 187 38 pd no-trailing-slash;
#N canvas 800 29 800 849 shorten 0;
#X obj 199 68 inlet;
#X obj 199 187 outlet;
#X obj 235 68 kfilename;
#X connect 0 0 1 0;
#X restore 187 57 pd shorten;
#X connect 0 0 5 0;
#X connect 2 0 3 0;
#X connect 2 0 4 0;
#X connect 2 0 1 0;
#X connect 5 0 6 0;
#X connect 6 0 2 0;
#X restore 197 124 pd fix-path;
#X connect 1 0 0 0;
#X connect 3 0 8 0;
#X connect 4 0 10 0;
#X connect 7 0 6 0;
#X connect 8 0 7 0;
#X connect 8 1 2 0;
#X connect 8 2 1 0;
#X connect 10 0 3 0;
#X restore 452 147 pd go;
#X symbolatom 100 114 23 0 0 0 - #0-dir #0-new-dir;
#X obj 452 90 inlet;
#N canvas 800 29 800 849 parse 0;
#X obj 37 37 inlet;
#X obj 37 56 route dir up back;
#X obj 70 164 s \$0-up;
#X obj 103 145 s \$0-back;
#X obj 37 202 s \$0-dir;
#X obj 37 183 symbol;
#X connect 0 0 1 0;
#X connect 1 0 5 0;
#X connect 1 1 2 0;
#X connect 1 2 3 0;
#X connect 5 0 4 0;
#X restore 452 109 pd parse;
#X obj 226 100 bng 14 250 50 0 \$0-up empty ^ 4 10 0 12 -262144 -1
-1;
#X obj 212 100 bng 14 250 50 0 \$0-back empty < 3 8 0 12 -262144 -1
-1;
#X obj 452 223 outlet;
#X obj 198 100 tgl 14 0 \$0-preview empty p 4 7 0 10 -262144 -1 -1
0 1;
#N canvas 800 468 800 410 gui 0;
#X obj 148 7 r \$0-scroll;
#X obj 148 64 *;
#X obj 163 26 r \$0-dir-size;
#X obj 148 83 int;
#X obj 163 45 - 8;
#X obj 148 140 list split;
#X obj 148 102 t b f;
#N canvas 800 468 800 410 the-list 0;
#X obj 11 10 r \$0-dir-contents;
#X obj 170 48 inlet;
#X obj 31 266 outlet;
#X msg 88 102 138191__corsica-s__opal-creek-ice-1.wav 19185__fonogeno__fire-alarm.wav
25032__sirplus__extreme-alarm.wav 30935__aust-paul__possiblelazer.wav
33657__corsica-s__meow.wav 41348__datasoundsample__glass-shatter.wav
42937__agfx__elec-hand-drill-drilling-metal-rough-2.wav 4913__noisecollector__cat1.wav
4914__noisecollector__cat2.wav 51290__k0wax__3fx-a.wav 518__jenc__drill1.wav
54047__guitarguy1985__buzzer.wav 56262__q-k__shatter.wav 64073__vtkproductions-com__bell-school-ringing.wav
72757__benboncan__fire-alarm.wav African_Wooden_Drum/ audio-projects/
Average White Band - AWB (1974)/ Average White Band - Cut The Cake/
beatonthebrat.wav bowser cum.wav C5_Bell/ compilation/ cum growl.wav
cyxnxdx-tweets/ dc_mmo/ _deep/ defaultxr-tweets/ dracula1.wav dracula2.wav
dracula3.wav dracula.wav espk2.wav espk.wav iloverocknroll.wav images/
iron gladec.wav iron glade.wav Kid Rock - Devil without a Cause [1998]/
kidrocksyntro.wav Krovo ft Navytz/ laffs2.wav laffs.wav like it deep.wav
LSF Sound Pack v2.0/ mario64_/ maryoclip.wav Melodica/ messermp3/ misc/
moms-disk/ nodebox/ ParaSpace/ pokemonglich.wav radium-1.9.29/ Roland SC 55 Steel Drum and Ocean/
sctutorial2013/ skyward sword/ snd/ Taco - Puttin' On The Ritz/ videon34.wav
want my cum.wav;
#X obj 68 48 prepent set;
#X obj 11 29 route bang;
#X msg 11 68 set list;
#X connect 0 0 5 0;
#X connect 1 0 3 0;
#X connect 3 0 2 0;
#X connect 4 0 3 0;
#X connect 5 0 6 0;
#X connect 5 1 4 0;
#X connect 6 0 3 0;
#X restore 148 121 pd the-list;
#X obj 226 119 s \$0-view-from;
#X obj 176 186 list split 8;
#X obj 176 424 s;
#X msg 212 366 symbol \$2-h\$1r;
#X obj 212 347 pack f \$0;
#X obj 390 69 r \$0-view-from;
#N canvas 0 29 1600 849 is-top 0;
#X obj 37 37 inlet;
#X obj 37 56 t f f;
#X obj 37 75 == 0;
#X obj 86 152 f;
#X obj 37 94 sel 1;
#X obj 37 266 s \$0-scrollr;
#X obj 86 171 outlet;
#X obj 86 133 bang;
#X obj 94 209 r \$0-dir-size;
#X msg 37 247 label Top\$2of\$2\$3;
#X obj 65 190 spacesym;
#X obj 37 228 pack 0 s f;
#X obj 37 164 t b b;
#X connect 0 0 1 0;
#X connect 1 0 2 0;
#X connect 1 1 3 1;
#X connect 2 0 4 0;
#X connect 3 0 6 0;
#X connect 4 0 12 0;
#X connect 4 1 7 0;
#X connect 7 0 3 0;
#X connect 8 0 11 2;
#X connect 9 0 5 0;
#X connect 10 0 11 1;
#X connect 11 0 9 0;
#X connect 12 0 11 0;
#X connect 12 1 10 0;
#X restore 417 126 pd is-top;
#N canvas 0 29 1600 849 is-bot 0;
#X obj 215 146 - 8;
#X obj 200 165 ==;
#X obj 200 108 t f f;
#X obj 200 184 sel 1;
#X obj 227 222 f;
#X obj 227 203 bang;
#X obj 215 127 r \$0-dir-size;
#X obj 200 89 inlet;
#X obj 227 241 outlet;
#X obj 200 359 s \$0-scrollr;
#X obj 257 302 r \$0-dir-size;
#X obj 228 283 spacesym;
#X obj 200 321 pack 0 s f;
#X msg 200 340 label Bot\$2of\$2\$3;
#X obj 200 260 t b b;
#X connect 0 0 1 1;
#X connect 1 0 3 0;
#X connect 2 0 1 0;
#X connect 2 1 4 1;
#X connect 3 0 14 0;
#X connect 3 1 5 0;
#X connect 4 0 8 0;
#X connect 5 0 4 0;
#X connect 6 0 0 0;
#X connect 7 0 2 0;
#X connect 10 0 12 2;
#X connect 11 0 12 1;
#X connect 12 0 13 0;
#X connect 13 0 9 0;
#X connect 14 0 12 0;
#X connect 14 1 11 0;
#X restore 417 145 pd is-bot;
#N canvas 0 29 1600 849 is-neither 0;
#X obj 212 138 inlet;
#X obj 259 157 r \$0-dir-size;
#X obj 212 157 t f f;
#X obj 212 190 /;
#X obj 300 315 spacesym;
#X obj 219 372 s \$0-scrollr;
#X obj 165 230 * 100;
#X obj 165 249 int;
#X msg 165 268 symbol \$1%;
#X obj 178 298 t a b;
#X msg 219 353 label \$1\$4(\$2/\$3);
#X obj 219 334 pack s f f s;
#X connect 0 0 2 0;
#X connect 1 0 3 1;
#X connect 1 0 11 2;
#X connect 2 0 3 0;
#X connect 2 1 11 1;
#X connect 3 0 6 0;
#X connect 4 0 11 3;
#X connect 6 0 7 0;
#X connect 7 0 8 0;
#X connect 8 0 9 0;
#X connect 9 0 11 0;
#X connect 9 1 4 0;
#X connect 10 0 5 0;
#X connect 11 0 10 0;
#X restore 417 164 pd is-neither;
#X text 392 48 scrollbar HUD;
#X obj 390 88 t b f;
#X obj 390 221 s \$0-scrollr;
#X msg 390 202 label;
#X obj 390 183 del 1500;
#N canvas 0 29 1600 849 is-all 0;
#X obj 248 120 inlet;
#X obj 248 177 <= 8;
#X obj 267 215 f;
#X obj 248 196 sel 1 0;
#X obj 267 234 outlet;
#X obj 248 335 s \$0-scrollr;
#X obj 385 151 r \$0-dir-size;
#X obj 276 278 spacesym;
#X obj 248 297 pack 0 s f;
#X msg 248 316 label All\$2of\$2\$3;
#X obj 248 139 t b f;
#X obj 248 158 f;
#X obj 248 253 t b b;
#X connect 0 0 10 0;
#X connect 1 0 3 0;
#X connect 2 0 4 0;
#X connect 3 0 12 0;
#X connect 3 1 2 0;
#X connect 6 0 8 2;
#X connect 6 0 11 1;
#X connect 7 0 8 1;
#X connect 8 0 9 0;
#X connect 9 0 5 0;
#X connect 10 0 11 0;
#X connect 10 1 2 1;
#X connect 11 0 1 0;
#X connect 12 0 8 0;
#X connect 12 1 7 0;
#X restore 417 107 pd is-all;
#X obj 176 271 until;
#X msg 176 252 8;
#X obj 176 233 t b a;
#X obj 176 290 count 8;
#N canvas 0 29 800 849 the-eight 0;
#X obj 37 37 inlet;
#X obj 127 119 prepent set;
#X msg 47 225 138191__corsica-s__opal-creek-ice-1.wav 19185__fonogeno__fire-alarm.wav
25032__sirplus__extreme-alarm.wav 30935__aust-paul__possiblelazer.wav
33657__corsica-s__meow.wav 41348__datasoundsample__glass-shatter.wav
42937__agfx__elec-hand-drill-drilling-metal-rough-2.wav 4913__noisecollector__cat1.wav
;
#X obj 47 284 outlet;
#X obj 97 37 inlet;
#X obj 47 265 list-idx;
#X obj 112 164 >=;
#X obj 127 145 list length;
#X obj 112 183 sel 0 1;
#X msg 131 202 symbol;
#X obj 37 56 t f f;
#X obj 97 56 route bang;
#X msg 97 75 0;
#X connect 0 0 10 0;
#X connect 1 0 2 0;
#X connect 2 0 5 0;
#X connect 4 0 11 0;
#X connect 5 0 3 0;
#X connect 6 0 8 0;
#X connect 7 0 6 1;
#X connect 8 0 2 0;
#X connect 8 1 9 0;
#X connect 9 0 3 0;
#X connect 10 0 6 0;
#X connect 10 1 5 1;
#X connect 11 0 12 0;
#X connect 11 1 1 0;
#X connect 11 1 7 0;
#X connect 12 0 6 1;
#X restore 176 328 pd the-eight;
#X obj 176 309 t f f;
#X obj 245 270 s \$0-the-8;
#N canvas 800 29 800 410 label 0;
#X obj 65 57 inlet;
#X obj 65 342 outlet;
#X obj 105 116 t a a;
#X msg 105 285 label \$2 \, color 0 0 \$1;
#X obj 105 266 pack f s;
#X obj 105 135 chars;
#X obj 105 154 list-idx -1;
#X obj 105 173 sel /;
#X msg 105 192 18;
#X obj 65 76 emptysymbol;
#X msg 65 285 label;
#N canvas 800 468 800 410 is-selected 0;
#X obj 114 -6 inlet;
#X obj 114 13 bang;
#X obj 129 265 &&;
#X msg 168 204 0;
#X msg 129 204 1;
#X obj 114 303 sel 0 1;
#X msg 239 229 0;
#X msg 200 229 1;
#X obj 200 191 inlet;
#X obj 114 377 outlet;
#X obj 129 32 r \$0-actual-dir;
#X obj 163 51 r \$0-selected;
#X obj 190 108 s2l /;
#X obj 190 127 list-splat -1;
#X obj 190 146 l2s /;
#X obj 114 284 f;
#X obj 163 70 symbol;
#X obj 129 185 sel foo;
#X obj 200 210 sel foo;
#X msg 190 165 symbol /\$1;
#X symbolatom 282 181 30 0 0 0 - - -;
#X msg 114 322 22;
#X msg 133 341 13;
#X obj 129 140 symbol;
#X obj 163 89 t b a;
#X connect 0 0 1 0;
#X connect 1 0 15 0;
#X connect 2 0 15 1;
#X connect 3 0 2 1;
#X connect 4 0 2 1;
#X connect 5 0 21 0;
#X connect 5 1 22 0;
#X connect 6 0 2 0;
#X connect 7 0 2 0;
#X connect 8 0 18 0;
#X connect 10 0 23 0;
#X connect 11 0 16 0;
#X connect 12 0 13 0;
#X connect 13 0 14 0;
#X connect 13 1 18 1;
#X connect 13 1 20 0;
#X connect 14 0 19 0;
#X connect 15 0 5 0;
#X connect 16 0 24 0;
#X connect 17 0 4 0;
#X connect 17 1 3 0;
#X connect 18 0 7 0;
#X connect 18 1 6 0;
#X connect 19 0 17 1;
#X connect 21 0 9 0;
#X connect 22 0 9 0;
#X connect 23 0 17 0;
#X connect 24 0 23 0;
#X connect 24 1 12 0;
#X restore 132 192 pd is-selected;
#X connect 0 0 9 0;
#X connect 2 0 5 0;
#X connect 2 1 4 1;
#X connect 2 1 11 1;
#X connect 3 0 1 0;
#X connect 4 0 3 0;
#X connect 5 0 6 0;
#X connect 6 0 7 0;
#X connect 7 0 8 0;
#X connect 7 1 11 0;
#X connect 8 0 4 0;
#X connect 9 0 10 0;
#X connect 9 1 2 0;
#X connect 10 0 1 0;
#X connect 11 0 4 0;
#X restore 176 405 pd label;
#X connect 0 0 1 0;
#X connect 1 0 3 0;
#X connect 2 0 4 0;
#X connect 3 0 6 0;
#X connect 4 0 1 1;
#X connect 5 1 9 0;
#X connect 5 2 9 0;
#X connect 6 0 7 0;
#X connect 6 1 5 1;
#X connect 6 1 8 0;
#X connect 7 0 5 0;
#X connect 9 0 25 0;
#X connect 9 2 25 0;
#X connect 11 0 10 1;
#X connect 12 0 11 0;
#X connect 13 0 18 0;
#X connect 14 0 15 0;
#X connect 15 0 16 0;
#X connect 18 0 21 0;
#X connect 18 1 22 0;
#X connect 20 0 19 0;
#X connect 21 0 20 0;
#X connect 22 0 14 0;
#X connect 23 0 26 0;
#X connect 24 0 23 0;
#X connect 25 0 24 0;
#X connect 25 1 27 1;
#X connect 25 1 29 0;
#X connect 26 0 28 0;
#X connect 27 0 30 0;
#X connect 28 0 27 0;
#X connect 28 1 12 0;
#X connect 30 0 10 0;
#X restore 452 166 pd gui;
#N canvas 0 468 800 410 back-up 0;
#X obj 122 58 r \$0-back;
#X obj 272 121 r \$0-up;
#X obj 320 58 r \$0-actual-dir;
#X obj 320 77 s2l /;
#X obj 320 96 list-splat -1;
#X obj 320 115 l2s /;
#X obj 287 153 symbol;
#X obj 287 172 s \$0-dir;
#X msg 320 134 symbol /\$1;
#X obj 122 96 print sndsel;
#X msg 122 77 the back button ain't done yet;
#X connect 0 0 10 0;
#X connect 1 0 6 0;
#X connect 2 0 3 0;
#X connect 3 0 4 0;
#X connect 4 0 5 0;
#X connect 5 0 8 0;
#X connect 6 0 7 0;
#X connect 8 0 6 1;
#X connect 10 0 9 0;
#X restore 452 185 pd back-up;
#N canvas 800 29 800 410 click 0;
#X obj 62 18 r \$0-h0;
#X msg 62 37 0;
#X obj 110 18 r \$0-h1;
#X obj 158 18 r \$0-h2;
#X obj 206 18 r \$0-h3;
#X obj 254 18 r \$0-h4;
#X obj 302 18 r \$0-h5;
#X obj 350 18 r \$0-h6;
#X obj 398 18 r \$0-h7;
#X msg 110 37 1;
#X msg 158 37 2;
#X msg 206 37 3;
#X msg 254 37 4;
#X msg 302 37 5;
#X msg 398 37 7;
#X msg 350 37 6;
#X obj 352 136 r \$0-the-8;
#X obj 224 323 outlet;
#X obj 272 115 list length;
#X obj 224 153 spigot;
#X obj 257 134 <;
#X obj 269 172 r \$0-actual-dir;
#X obj 224 191 pack s s;
#X obj 224 276 prepent open;
#X obj 224 172 map;
#N canvas 0 29 800 849 preview 0;
#X obj 37 56 inlet;
#X obj 95 56 r \$0-preview;
#X obj 95 138 readsf~;
#X obj 37 98 spigot;
#X obj 37 117 t b a;
#X msg 37 136 1;
#X obj 95 86 sel 0;
#X obj 84 166 dac~;
#X msg 95 105 0;
#X connect 0 0 3 0;
#X connect 1 0 3 1;
#X connect 1 0 6 0;
#X connect 2 0 7 1;
#X connect 2 0 7 0;
#X connect 3 0 4 0;
#X connect 4 0 5 0;
#X connect 4 1 2 0;
#X connect 5 0 2 0;
#X connect 6 0 8 0;
#X connect 8 0 2 0;
#X restore 235 304 pd preview;
#N canvas 800 29 800 410 directory 0;
#X obj 37 37 inlet;
#X obj 37 225 outlet;
#X obj 64 75 file_type;
#X obj 37 56 t a a;
#X obj 37 149 prepent 0;
#X msg 64 113 0;
#X msg 107 113 1;
#X obj 64 94 sel file folder;
#X obj 37 168 route 0 1;
#X obj 62 187 symbol;
#X obj 62 206 s \$0-dir;
#X obj 11 263 s \$0-scroll;
#X obj 11 244 bang;
#X connect 0 0 3 0;
#X connect 2 0 7 0;
#X connect 3 0 4 0;
#X connect 3 1 2 0;
#X connect 4 0 8 0;
#X connect 5 0 4 1;
#X connect 6 0 4 1;
#X connect 7 0 5 0;
#X connect 7 1 6 0;
#X connect 8 0 1 0;
#X connect 8 0 12 0;
#X connect 8 1 9 0;
#X connect 9 0 10 0;
#X connect 12 0 11 0;
#X restore 224 229 pd directory;
#X msg 224 210 symbol \$2/\$1;
#X obj 235 257 s \$0-selected;
#X obj 224 111 t f f;
#X connect 0 0 1 0;
#X connect 1 0 29 0;
#X connect 2 0 9 0;
#X connect 3 0 10 0;
#X connect 4 0 11 0;
#X connect 5 0 12 0;
#X connect 6 0 13 0;
#X connect 7 0 15 0;
#X connect 8 0 14 0;
#X connect 9 0 29 0;
#X connect 10 0 29 0;
#X connect 11 0 29 0;
#X connect 12 0 29 0;
#X connect 13 0 29 0;
#X connect 14 0 29 0;
#X connect 15 0 29 0;
#X connect 16 0 18 0;
#X connect 16 0 24 1;
#X connect 18 0 20 1;
#X connect 19 0 24 0;
#X connect 20 0 19 1;
#X connect 21 0 22 1;
#X connect 22 0 27 0;
#X connect 23 0 17 0;
#X connect 23 0 25 0;
#X connect 24 0 22 0;
#X connect 26 0 23 0;
#X connect 26 0 28 0;
#X connect 27 0 26 0;
#X connect 29 0 19 0;
#X connect 29 1 20 0;
#X restore 452 204 pd click;
#X connect 12 0 13 0;
#X connect 20 0 16 0;
#X coords 0 -1 1 1 140 136 1 100 100;
