#N canvas 0 0 1600 849 10;
#X obj 114 86 kinv;
#X obj 127 55 hradio 15 1 0 2 empty empty empty 0 -8 0 10 -257985 -1
-1 0;
#X obj 69 105 spigot 1;
#X obj 151 105 spigot 0;
#X obj 69 -26 inlet;
#X obj 174 -2 inlet;
#X obj 116 166 outlet;
#X obj 140 15 f;
#X obj 69 -7 route switch;
#X connect 0 0 2 1;
#X connect 0 0 7 1;
#X connect 1 0 0 0;
#X connect 1 0 3 1;
#X connect 2 0 6 0;
#X connect 3 0 6 0;
#X connect 4 0 8 0;
#X connect 5 0 3 0;
#X connect 7 0 1 0;
#X connect 8 0 7 0;
#X connect 8 1 2 0;
#X coords 0 -1 1 1 30 15 2 127 55;
