#N canvas 0 0 1600 849 10;
#X msg 200 233 discover;
#X obj 200 342 wiimote first;
#X obj 89 278 tgl 15 0 empty empty empty 17 7 0 10 -262144 -1 -1 0
1;
#X obj 107 278 tgl 15 0 empty empty empty 17 7 0 10 -262144 -1 -1 0
1;
#X obj 126 278 tgl 15 0 empty empty empty 17 7 0 10 -262144 -1 -1 0
1;
#X obj 145 278 tgl 15 0 empty empty empty 17 7 0 10 -262144 -1 -1 0
1;
#N canvas 0 0 1600 849 bytemask 0;
#X obj 269 332 outlet;
#X obj 269 279 float;
#X obj 318 183 |;
#X obj 110 239 -;
#X obj 110 204 float;
#X obj 110 184 trigger bang float;
#X obj 231 204 &;
#X obj 183 142 route 0 1;
#X msg 36 56 \$1 1;
#X msg 106 56 \$1 2;
#X msg 176 56 \$1 4;
#X msg 246 56 \$1 8;
#X obj 36 15 inlet;
#X obj 106 15 inlet;
#X obj 176 15 inlet;
#X obj 246 15 inlet;
#X obj 36 35 change;
#X obj 106 35 change;
#X obj 176 35 change;
#X obj 246 35 change;
#X msg 269 313 setLED \$1;
#X connect 1 0 2 1;
#X connect 1 0 4 1;
#X connect 1 0 6 1;
#X connect 1 0 20 0;
#X connect 2 0 1 0;
#X connect 3 0 1 0;
#X connect 4 0 3 0;
#X connect 5 0 4 0;
#X connect 5 1 6 0;
#X connect 6 0 3 1;
#X connect 7 0 5 0;
#X connect 7 1 2 0;
#X connect 8 0 7 0;
#X connect 9 0 7 0;
#X connect 10 0 7 0;
#X connect 11 0 7 0;
#X connect 12 0 16 0;
#X connect 13 0 17 0;
#X connect 14 0 18 0;
#X connect 15 0 19 0;
#X connect 16 0 8 0;
#X connect 17 0 9 0;
#X connect 18 0 10 0;
#X connect 19 0 11 0;
#X connect 20 0 0 0;
#X restore 89 304 pd bytemask;
#X msg 219 306 reportStatus;
#X text 212 292 Report battery status;
#X msg 181 252 reportAcceleration 1 \, reportNunchuk 1;
#X obj 48 91 inlet;
#X obj 89 231 route 1 2 3 4;
#X obj 48 276 tgl 15 0 empty empty empty 17 7 0 10 -262144 -1 -1 0
1;
#X msg 48 323 setRumble \$1;
#X obj 48 110 route rumble led bang;
#N canvas 0 0 1600 849 buttons 0;
#X obj 6 37 wiibuttons lcross rcross ucross dcross a plus minus home
one two back;
#X obj 6 18 inlet;
#X obj 111 236 s wiimoteb;
#X msg 339 69 b \$1;
#X msg 305 69 t \$1;
#X msg 272 69 o \$1;
#X msg 239 69 h \$1;
#X msg 205 69 m \$1;
#X msg 172 69 p \$1;
#X msg 139 69 a \$1;
#X msg 105 69 d \$1;
#X msg 72 69 u \$1;
#X msg 39 69 r \$1;
#X msg 6 69 l \$1;
#X connect 0 0 13 0;
#X connect 0 1 12 0;
#X connect 0 2 11 0;
#X connect 0 3 10 0;
#X connect 0 4 9 0;
#X connect 0 5 8 0;
#X connect 0 6 7 0;
#X connect 0 7 6 0;
#X connect 0 8 5 0;
#X connect 0 9 4 0;
#X connect 0 10 3 0;
#X connect 1 0 0 0;
#X connect 3 0 2 0;
#X connect 4 0 2 0;
#X connect 5 0 2 0;
#X connect 6 0 2 0;
#X connect 7 0 2 0;
#X connect 8 0 2 0;
#X connect 9 0 2 0;
#X connect 10 0 2 0;
#X connect 11 0 2 0;
#X connect 12 0 2 0;
#X connect 13 0 2 0;
#X restore 200 454 pd buttons;
#N canvas 0 0 800 849 nunchuck 0;
#X obj 249 61 inlet;
#X obj 49 51 inlet;
#X obj 49 70 sel 0 1 2 3;
#X msg 49 146 0 0;
#X obj 49 165 unpack f f;
#X msg 64 127 1 0;
#X msg 80 108 0 1;
#X msg 96 89 1 1;
#X obj 49 184 change;
#X obj 106 184 change;
#X obj 249 80 unpack f f;
#X msg 49 203 z \$1;
#X msg 106 203 c \$1;
#X obj 78 248 s wiimoteb;
#X obj 249 185 s nunchuks;
#X obj 249 166 pack f f;
#X text 257 32 STICK;
#X text 42 32 BUTTONS;
#X obj 306 137 - 1;
#X obj 249 137 - 1;
#X obj 306 118 / 101;
#X obj 306 99 - 20;
#X obj 249 118 / 94;
#X obj 249 99 - 33;
#X connect 0 0 10 0;
#X connect 1 0 2 0;
#X connect 2 0 3 0;
#X connect 2 1 5 0;
#X connect 2 2 6 0;
#X connect 2 3 7 0;
#X connect 3 0 4 0;
#X connect 4 0 8 0;
#X connect 4 1 9 0;
#X connect 5 0 4 0;
#X connect 6 0 4 0;
#X connect 7 0 4 0;
#X connect 8 0 11 0;
#X connect 9 0 12 0;
#X connect 10 0 23 0;
#X connect 10 1 21 0;
#X connect 11 0 13 0;
#X connect 12 0 13 0;
#X connect 15 0 14 0;
#X connect 18 0 15 1;
#X connect 19 0 15 0;
#X connect 20 0 18 0;
#X connect 21 0 20 0;
#X connect 22 0 19 0;
#X connect 23 0 22 0;
#X restore 237 397 pd nunchuck;
#N canvas 0 0 1600 849 infrared 0;
#X obj 134 18 inlet;
#X obj 134 153 route 0 1 2 3;
#X obj 134 229 unpack 0 0 0;
#X obj 152 210 unpack 0 0 0;
#X obj 171 191 unpack 0 0 0;
#X obj 190 172 unpack 0 0 0;
#X floatatom 276 83 5 0 0 0 - - -;
#X obj 276 55 wiiIR count 20;
#X msg 276 25 start;
#X msg 333 26 stop;
#X obj 196 292 s wiimoteir;
#X connect 0 0 1 0;
#X connect 0 0 7 0;
#X connect 1 0 2 0;
#X connect 1 1 3 0;
#X connect 1 2 4 0;
#X connect 1 3 5 0;
#X connect 7 0 6 0;
#X connect 8 0 7 0;
#X connect 9 0 7 0;
#X restore 225 416 pd infrared;
#X text 187 474 sends data to: wiimoteb \, nunchuks \, wiimotea \,
nunchuka wiimoteir;
#X obj 111 192 r wiiled;
#X obj 15 226 r wiirumble;
#X obj -4 207 r wiir;
#N canvas 0 0 800 849 wiimotea 0;
#X obj 233 449 inlet;
#X obj 233 538 s wiimotea;
#X obj 233 468 unpack f f f;
#X obj 233 519 pack f f f;
#X obj 267 487 * -1;
#X text 258 351 from left to right: left/right tilt (-1 for tilted
left \, 1 for tilted right) \, up/down tilt (-1 for buttons pointing
down \, 1 for buttons pointing up) \, position (-1 for completely upside-down
\, 1 for completely flat);
#X connect 0 0 2 0;
#X connect 2 0 3 0;
#X connect 2 1 4 0;
#X connect 2 2 3 2;
#X connect 3 0 1 0;
#X connect 4 0 3 1;
#X restore 212 435 pd wiimotea;
#N canvas 0 0 800 849 nunchuka 0;
#X obj 100 260 inlet;
#X obj 114 489 s nunchuka;
#X obj 100 279 unpack f f f;
#X obj 114 470 pack f f f;
#X obj 100 308 - 80;
#X obj 100 327 / 51.5;
#X obj 100 346 - 1;
#X obj 142 308 - 76;
#X obj 142 327 / 51.5;
#X obj 142 346 - 1;
#X obj 184 308 - 76;
#X obj 184 327 / 51.5;
#X obj 184 346 - 1;
#X obj 142 365 * -1;
#X text 134 152 here's some math to get the output in the general range
of -1 to 1... because of how the nunchuk is \, if you move it quickly
\, the output will go out of this range... be aware of this.;
#X text 133 207 from left to right: left/right tilt (-1 for tilted
left \, 1 for tilted right) \, up/down tilt (-1 for buttons pointing
down \, 1 for buttons pointing up) \, position (-1 for completely upside-down
\, 1 for completely flat);
#X text 274 327 ** NOTE: i didn't put a lot of effort into the right
one \; it was mainly just copied from the middle one.;
#X connect 0 0 2 0;
#X connect 2 0 4 0;
#X connect 2 1 7 0;
#X connect 2 2 10 0;
#X connect 3 0 1 0;
#X connect 4 0 5 0;
#X connect 5 0 6 0;
#X connect 6 0 3 0;
#X connect 7 0 8 0;
#X connect 8 0 9 0;
#X connect 9 0 13 0;
#X connect 10 0 11 0;
#X connect 11 0 12 0;
#X connect 12 0 3 2;
#X connect 13 0 3 1;
#X restore 250 378 pd nunchuka;
#X msg 236 157 \; osd detecting wiimote (hold 1+2);
#X obj 181 159 del 1;
#X obj 181 178 t b b;
#X obj 181 140 t b b;
#X connect 0 0 1 0;
#X connect 1 0 15 0;
#X connect 1 1 22 0;
#X connect 1 2 17 0;
#X connect 1 3 16 0;
#X connect 1 4 23 0;
#X connect 1 5 16 1;
#X connect 2 0 6 0;
#X connect 3 0 6 1;
#X connect 4 0 6 2;
#X connect 5 0 6 3;
#X connect 6 0 1 0;
#X connect 7 0 1 0;
#X connect 9 0 1 0;
#X connect 10 0 14 0;
#X connect 11 0 2 0;
#X connect 11 1 3 0;
#X connect 11 2 4 0;
#X connect 11 3 5 0;
#X connect 12 0 13 0;
#X connect 13 0 1 0;
#X connect 14 0 12 0;
#X connect 14 1 11 0;
#X connect 14 2 27 0;
#X connect 19 0 11 0;
#X connect 20 0 12 0;
#X connect 21 0 12 0;
#X connect 25 0 26 0;
#X connect 26 0 9 0;
#X connect 26 1 0 0;
#X connect 27 0 25 0;
#X connect 27 1 24 0;
