#N canvas 0 0 1600 849 10;
#X obj 269 213 unpack f f;
#X text 381 116 rings for wiimote control stick;
#X obj 311 348 outlet;
#X obj 269 232 abs;
#X obj 326 232 abs;
#X obj 269 251 * \$1;
#X obj 269 270 round;
#X text 381 136 arg 1 = top value for rings;
#X obj 326 251 * \$1;
#X obj 326 270 round;
#X obj 311 329 max;
#X obj 269 194 inlet;
#X text 381 156 example: if arg 1 is 2 \, that means there are three
zones or "rings" that the control stick can be in. 0 is the center
\, 1 is the ring around the center \, and 2 is the ring around 1 (the
furthest out).;
#X connect 0 0 3 0;
#X connect 0 1 4 0;
#X connect 3 0 5 0;
#X connect 4 0 8 0;
#X connect 5 0 6 0;
#X connect 6 0 10 0;
#X connect 8 0 9 0;
#X connect 9 0 10 1;
#X connect 10 0 2 0;
#X connect 11 0 0 0;
