#N canvas 0 0 2560 1568 10;
#X obj 76 40 inlet;
#X obj 112 40 inlet;
#X obj 40 59 * \$1;
#X obj 40 78 + \$2;
#X obj 40 40 inlet;
#X obj 40 97 outlet;
#X connect 0 0 2 1;
#X connect 1 0 3 1;
#X connect 2 0 3 0;
#X connect 3 0 5 0;
#X connect 4 0 2 0;
