#N canvas 0 0 1600 849 10;
#X obj 40 59 inlet~;
#X obj 40 78 +~ 1;
#X obj 40 116 outlet~;
#X obj 82 16 lb \$1;
#X obj 82 35 sel 0;
#X obj 40 97 *~ 0.5;
#X obj 100 80 / 2;
#X msg 82 54 1;
#X obj 132 11 inlet;
#X connect 0 0 1 0;
#X connect 1 0 5 0;
#X connect 3 0 4 0;
#X connect 4 0 7 0;
#X connect 4 1 6 0;
#X connect 5 0 2 0;
#X connect 6 0 5 1;
#X connect 7 0 6 0;
#X connect 8 0 6 0;
