#N canvas 0 0 800 410 10;
#X obj 96 62 inlet;
#X obj 96 170 s;
#X msg 96 151 bang;
#X obj 130 100 prepent set;
#X obj 96 81 list split 1;
#X obj 96 119 t b a;
#X connect 0 0 4 0;
#X connect 2 0 1 0;
#X connect 3 0 2 0;
#X connect 4 0 5 0;
#X connect 4 1 3 0;
#X connect 5 0 2 0;
#X connect 5 1 1 1;
