#N canvas 0 0 1600 870 10;
#X obj 135 79 ctlin \$1 \$2;
#X obj 138 100 hsl 15 15 0 127 0 0 empty empty empty -2 -8 0 10 -159808
-1 -1 0 1;
#X obj 135 154 outlet;
#X obj 270 15 loadbang;
#X obj 270 40 symbol \$2;
#X obj 268 66 sel mv;
#X obj 304 90 print ho;
#X msg 135 123 \$1;
#X msg 213 108 set mvol \, adddollar 1;
#X connect 0 0 1 0;
#X connect 1 0 7 0;
#X connect 3 0 4 0;
#X connect 4 0 5 0;
#X connect 5 0 8 0;
#X connect 5 1 6 0;
#X connect 7 0 2 0;
#X connect 8 0 7 0;
#X coords 0 -1 1 1 55 15 1 100 100;
