#N canvas 0 0 450 300 10;
#X obj 123 50 keyname;
#X obj 129 74 sel Caps_Lock;
#X obj 130 100 tgl 15 0 empty empty empty 17 7 0 10 -262144 -1 -1 0
1;
#X obj 129 157 outlet;
#X obj 127 134 f;
#X obj 18 103 inlet;
#X connect 0 1 1 0;
#X connect 1 0 2 0;
#X connect 2 0 4 0;
#X connect 4 0 3 0;
#X connect 5 0 4 0;
#X coords 0 -1 1 1 65 15 1 80 100;
