#N canvas 410 317 450 300 10;
#X obj 100 100 bng 15 250 50 0 empty empty empty 17 7 0 10 -262144
-260818 -262144;
#X obj 68 -86 inlet;
#X obj 68 -65 route float;
#X obj 71 47 sel 0;
#X msg 98 81 color 0 \$1 0;
#X obj 115 61 print;
#X obj 59 -46 expr if($f1%8==0 \, 13 \, 0) \; if($f1%4==0 \, 14 \,
0) \; if($f1%2==0 \, 15 \, 0) \;;
#X msg 60 90 bang;
#X connect 1 0 2 0;
#X connect 2 0 6 0;
#X connect 3 1 4 0;
#X connect 3 1 5 0;
#X connect 3 1 7 0;
#X connect 4 0 0 0;
#X connect 6 0 3 0;
#X connect 6 1 3 0;
#X connect 7 0 0 0;
#X coords 0 -1 1 1 15 15 1 100 100;
