#N canvas 2480 29 800 871 10;
#X obj 40 2 inlet;
#X obj 76 100 loadbang;
#X obj 40 136 s2l;
#X obj 40 155 outlet;
#X msg 76 119 symbol;
#X obj 40 81 symbol;
#X text 165 102 converts a symbol to a list of characters. see also:
sym;
#X obj 40 21 route float;
#X obj 40 40 makesymbol %s;
#X connect 0 0 7 0;
#X connect 1 0 4 0;
#X connect 2 0 3 0;
#X connect 4 0 2 1;
#X connect 5 0 2 0;
#X connect 7 0 8 0;
#X connect 7 1 5 0;
#X connect 8 0 5 0;
