#N canvas 0 1620 2880 1586 10;
#X obj 32 59 inlet;
#X obj 89 195 makefilename %c;
#X obj 89 233 outlet;
#X msg 89 214 symbol \$1;
#X obj 32 78 route bang;
#X text 349 32 char-sym - Output a symbol consisting of a single "special character".;
#X obj 155 59 loadbang;
#X obj 89 117 symbol \$1;
#X obj 182 233 outlet;
#X text 349 76 This can be useful if you want to put a "special character" inside symbols \, which is necessary if you want an object's label to have said character in it. Pd doesn't seem to keep the spaces or newlines in labels when re-opening patches/abstractions \, so the next best thing is to use a [loadbang] to set the desired label at load time.;
#X obj 155 78 t b b;
#X msg 182 117 space 32 newline 10 nl 10;
#X text 351 169 Currently-supported "special characters" are: space \, newline.;
#X obj 89 176 remap, f 16;
#X obj 89 136 emptysymbol;
#X text 352 209 The name of the character can be provided as an argument or to the inlet. Send a bang to the inlet to re-send the last-requested character. Unrecognized inputs are passed through to the 2nd outlet.;
#X connect 0 0 4 0;
#X connect 1 0 3 0;
#X connect 3 0 2 0;
#X connect 4 0 7 0;
#X connect 4 1 7 0;
#X connect 6 0 10 0;
#X connect 7 0 14 0;
#X connect 10 0 7 0;
#X connect 10 1 11 0;
#X connect 11 0 13 1;
#X connect 13 0 1 0;
#X connect 13 1 8 0;
#X connect 14 1 13 0;
