#N canvas 0 29 1920 1048 10;
#X obj 86 76 inlet;
#X obj 209 75 inlet;
#X obj 275 75 inlet;
#X text 137 28 red;
#X text 207 30 green;
#X text 279 30 blue;
#X obj 275 197 t b f;
#X obj 209 252 +;
#X obj 209 273 t b f;
#X obj 209 303 +;
#X obj 132 176 * -65536;
#X obj 209 176 * -256;
#X obj 275 176 * -1;
#X obj 209 323 - 1;
#X obj 132 134 lb \$1 255;
#X obj 209 134 lb \$2 255;
#X obj 275 134 lb \$3 255;
#X obj 194 372 outlet;
#X obj 194 348 f;
#X obj 86 115 route bang float;
#X obj 275 155 int;
#X obj 209 155 int;
#X obj 132 155 int;
#X connect 0 0 19 0;
#X connect 1 0 15 0;
#X connect 2 0 16 0;
#X connect 6 0 7 0;
#X connect 6 1 7 1;
#X connect 7 0 8 0;
#X connect 8 0 9 0;
#X connect 8 1 9 1;
#X connect 9 0 13 0;
#X connect 10 0 9 0;
#X connect 11 0 7 0;
#X connect 12 0 6 0;
#X connect 13 0 18 1;
#X connect 14 0 22 0;
#X connect 15 0 21 0;
#X connect 16 0 20 0;
#X connect 18 0 17 0;
#X connect 19 0 18 0;
#X connect 19 1 14 0;
#X connect 20 0 12 0;
#X connect 21 0 11 0;
#X connect 22 0 10 0;
