#N canvas 0 0 800 849 10;
#X obj 286 258 inlet~;
#X obj 525 250 lb \$1;
#X obj 428 346 +~ 0;
#X obj 561 250 lb \$2;
#X obj 531 310 -;
#X obj 428 365 outlet~;
#X obj 428 327 *~ 0;
#X text 332 255 expects control from range 0 to 1;
#X obj 502 222 inlet;
#X obj 562 222 inlet;
#X connect 0 0 6 0;
#X connect 1 0 2 1;
#X connect 1 0 4 1;
#X connect 2 0 5 0;
#X connect 3 0 4 0;
#X connect 4 0 6 1;
#X connect 6 0 2 0;
#X connect 8 0 1 0;
#X connect 9 0 3 0;
