#N canvas 713 400 356 214 10;
#X obj 21 70 line;
#X obj 21 168 s;
#X obj 60 82 symbol;
#X obj 21 39 route list float set dest destination to;
#X obj 64 61 unpack s s;
#X msg 21 144 \$1;
#X msg 176 126 set \$1 \, adddollar 1;
#X msg 60 123 set \, adddollar 1;
#X obj 114 166 print;
#X obj 120 89 sel -;
#X obj 81 17 inlet;
#X obj 21 17 r \$1-line;
#X connect 0 0 5 0;
#X connect 2 0 1 1;
#X connect 3 0 0 0;
#X connect 3 1 0 0;
#X connect 3 2 4 0;
#X connect 3 3 4 0;
#X connect 3 4 4 0;
#X connect 3 5 4 0;
#X connect 3 6 4 0;
#X connect 4 0 2 0;
#X connect 4 1 9 0;
#X connect 5 0 1 0;
#X connect 6 0 5 0;
#X connect 7 0 5 0;
#X connect 9 0 7 0;
#X connect 9 1 6 0;
#X connect 9 1 8 0;
#X connect 10 0 3 0;
#X connect 11 0 3 0;
