#N canvas 0 0 2560 1566 12;
#X obj 177 32 inlet;
#X obj 177 90 f;
#X obj 176 145 f;
#X obj 223 144 ==;
#X obj 176 173 ==;
#X obj 176 200 &&;
#X obj 177 114 t f b f;
#X obj 177 56 t f b f;
#X floatatom 244 89 10 0 0 1 most\ recent - - 0;
#X floatatom 100 124 10 0 0 0 previous - - 0;
#X floatatom 100 174 10 0 0 0 least\ recent - - 0;
#X obj 176 225 sel 1;
#X obj 175 310 timer;
#X floatatom 135 355 5 0 0 0 time\ between - - 0;
#X obj 175 357 < 300;
#X obj 152 379 tgl 20 0 empty empty empty 0 -10 0 12 #fcfcfc #000000 #000000 0 1;
#X obj 208 249 bang;
#X obj 150 430 bng 20 250 50 0 empty empty empty 0 -10 0 12 #fcfcfc #000000 #000000;
#X obj 159 252 t b b;
#X obj 109 245 bng 20 250 50 0 empty empty empty 0 -10 0 12 #fcfcfc #000000 #000000;
#X obj 150 202 tgl 20 0 empty empty empty 0 -10 0 12 #fcfcfc #000000 #000000 0 1;
#X floatatom 118 43 5 0 0 0 - - - 0;
#X obj 218 357 > 100;
#X obj 175 334 t f f;
#X obj 175 382 &&;
#X obj 175 407 sel 1;
#X obj 175 432 outlet;
#X obj 224 384 tgl 20 0 empty empty empty 0 -10 0 12 #fcfcfc #000000 #000000 0 1;
#X obj 151 404 tgl 20 0 empty empty empty 0 -10 0 12 #fcfcfc #000000 #000000 0 1;
#X text 423 74 detect-double-click - Detect double-clicks on sliders.;
#X text 426 167 This works by keeping track of the last 3 inputs \, and if they're the same (i.e. the current value + the user clicked without dragging at least twice) \, then checking if the time between was >100ms and <300ms. If so \, then it's a double-click \, so we output a bang.;
#X text 427 115 A slider's output should be connected to the inlet. The outlet will output a bang when it detects a double-click.;
#X text 350 349 At the moment \, this abstraction has a lot of extra GUI objects for debugging. I'll remove them once I'm more sure that everything fully works as intended. (FIX);
#X connect 0 0 7 0;
#X connect 1 0 6 0;
#X connect 1 0 9 0;
#X connect 2 0 4 0;
#X connect 2 0 10 0;
#X connect 3 0 5 1;
#X connect 4 0 5 0;
#X connect 5 0 11 0;
#X connect 5 0 20 0;
#X connect 6 0 2 1;
#X connect 6 1 2 0;
#X connect 6 2 4 1;
#X connect 6 2 3 0;
#X connect 7 0 1 1;
#X connect 7 1 1 0;
#X connect 7 2 3 1;
#X connect 7 2 8 0;
#X connect 11 0 18 0;
#X connect 11 0 19 0;
#X connect 11 1 16 0;
#X connect 12 0 13 0;
#X connect 12 0 23 0;
#X connect 14 0 15 0;
#X connect 14 0 24 0;
#X connect 16 0 12 0;
#X connect 18 0 12 0;
#X connect 18 1 12 1;
#X connect 21 0 7 0;
#X connect 22 0 24 1;
#X connect 22 0 27 0;
#X connect 23 0 14 0;
#X connect 23 1 22 0;
#X connect 24 0 25 0;
#X connect 24 0 28 0;
#X connect 25 0 26 0;
#X connect 25 0 17 0;
