#N canvas 1920 30 1920 1050 10;
#X obj 575 315 inlet;
#X text 819 338 e - "every";
#X obj 575 569 outlet;
#X text 819 376 output every \$1-th input \, with an offset of \$2.
;
#X obj 575 335 t a b;
#X obj 602 522 == \$2;
#X obj 575 545 spigot;
#X obj 701 315 inlet;
#X obj 746 505 inlet;
#X obj 631 355 + 1;
#X msg 650 488 0;
#X obj 602 355 f 0;
#X obj 650 443 >= \$1;
#X obj 650 466 sel 1;
#X connect 0 0 4 0;
#X connect 4 0 6 0;
#X connect 4 1 11 0;
#X connect 5 0 6 1;
#X connect 6 0 2 0;
#X connect 7 0 12 1;
#X connect 8 0 5 1;
#X connect 9 0 12 0;
#X connect 10 0 11 1;
#X connect 11 0 9 0;
#X connect 11 0 5 0;
#X connect 12 0 13 0;
#X connect 13 0 10 0;
