#N canvas 1920 32 1920 1048 10;
#X obj 575 312 inlet;
#X text 749 298 e - "every";
#X obj 575 439 outlet;
#X text 749 336 output every \$1-th input \, with an offset of \$2.
;
#X obj 575 335 t a b;
#X obj 602 392 == \$2;
#X obj 575 415 spigot;
#X obj 679 312 inlet;
#X obj 746 374 inlet;
#X obj 631 358 + 1;
#X obj 602 358 f 0;
#X obj 658 358 % \$1;
#X connect 0 0 4 0;
#X connect 4 0 6 0;
#X connect 4 1 10 0;
#X connect 5 0 6 1;
#X connect 6 0 2 0;
#X connect 7 0 11 1;
#X connect 8 0 5 1;
#X connect 9 0 11 0;
#X connect 10 0 9 0;
#X connect 10 0 5 0;
#X connect 11 0 10 1;
