#N canvas 0 0 1600 870 10;
#X obj 40 112 savepanel;
#X obj 166 69 bng 15 250 50 0 \$0-frbs \$0-frb empty 17 7 0 10 -62784
-1 -1;
#X obj 131 189 writesf~ 2;
#X msg 87 -2 stop;
#X msg 37 -2 start;
#X floatatom 139 68 4 0 0 0 - - -;
#X floatatom 125 68 2 0 0 0 - - -;
#X floatatom 111 68 2 0 0 0 - - -;
#X obj 111 27 ktimer;
#X obj 126 116 catch~ m_out_left;
#X obj 265 116 catch~ m_out_right;
#X obj -54 105 sel 0;
#X obj 45 207 f;
#X msg 45 178 1;
#X obj 45 226 sel 0 1 2;
#X text 104 217 0 = must choose file 1 = file chosen \, can record
2 = recording;
#X msg 211 329 color 16 0 0;
#X msg 298 330 color 13 0 0;
#X msg 108 329 color 18 22 22;
#X obj -102 149 r \$0-frbs;
#X obj 323 397 s \$0-frb;
#X obj -102 189 f;
#X obj -102 216 sel 0 1 2;
#X msg -3 190 2;
#X msg 88 79 0;
#X obj -54 85 symbol \$1;
#X obj -54 65 loadbang;
#X obj 31 351 print ey;
#X msg 40 143 open -wave /home/modula/\$1;
#X text 195 21 no need for full path - just name file - it is saved
in home directory;
#X connect 0 0 28 0;
#X connect 3 0 2 0;
#X connect 3 0 8 0;
#X connect 3 0 24 0;
#X connect 4 0 2 0;
#X connect 4 0 8 0;
#X connect 4 0 23 0;
#X connect 8 0 7 0;
#X connect 8 1 6 0;
#X connect 8 2 5 0;
#X connect 9 0 2 0;
#X connect 10 0 2 1;
#X connect 11 0 12 0;
#X connect 11 1 28 0;
#X connect 12 0 14 0;
#X connect 12 0 21 1;
#X connect 13 0 12 0;
#X connect 14 0 18 0;
#X connect 14 1 16 0;
#X connect 14 2 17 0;
#X connect 16 0 20 0;
#X connect 17 0 20 0;
#X connect 18 0 20 0;
#X connect 19 0 21 0;
#X connect 21 0 22 0;
#X connect 22 0 0 0;
#X connect 22 1 4 0;
#X connect 22 2 3 0;
#X connect 23 0 12 0;
#X connect 24 0 12 0;
#X connect 25 0 11 0;
#X connect 26 0 25 0;
#X connect 28 0 2 0;
#X connect 28 0 13 0;
#X connect 28 0 27 0;
#X coords 0 -1 1 1 70 30 1 111 54;
