#N canvas 543 307 670 454 10;
#X obj 443 36 playlist all 200 200 {Helvetica 10 bold} #457782 yellow
black red;
#X obj 21 57 shell;
#X msg 21 38 mkdir /tmp/\$1-hist;
#X obj 21 -4 lb \$0;
#X obj 21 76 print;
#X obj 373 35 r \$0-hist;
#X obj 55 150 s \$0-hist;
#X obj 21 15 t f f;
#X msg 61 76 location /tmp/\$1-hist \, sort 0;
#X obj 208 -167 inlet;
#X obj 208 24 textfile;
#X msg 208 -26 add \$1;
#X obj 142 -17 pack 0 \$0;
#X obj 142 -36 i;
#X obj 166 -36 + 1;
#X msg 142 2 write /tmp/\$2-hist/\$1;
#X obj 148 -167 r history;
#X obj 325 150 textfile;
#X msg 278 131 print;
#X msg 325 125 read \$1;
#X obj 183 -90 t b a;
#X obj 146 56 f \$0;
#X msg 146 36 bang;
#X msg 150 -86 0;
#X msg -4 -34 rm /tmp/\$1-hist/*;
#X obj 110 -91 f \$0;
#X obj 148 -140 symbol;
#X obj 148 -121 sel nohist clear clearcmd;
#X msg 252 -58 clear;
#X connect 0 0 19 0;
#X connect 1 0 4 0;
#X connect 2 0 1 0;
#X connect 3 0 7 0;
#X connect 5 0 0 0;
#X connect 7 0 8 0;
#X connect 7 1 2 0;
#X connect 8 0 6 0;
#X connect 9 0 26 0;
#X connect 11 0 10 0;
#X connect 12 0 15 0;
#X connect 13 0 14 0;
#X connect 13 0 12 0;
#X connect 14 0 13 1;
#X connect 15 0 10 0;
#X connect 15 0 22 0;
#X connect 16 0 26 0;
#X connect 18 0 17 0;
#X connect 19 0 17 0;
#X connect 20 0 13 0;
#X connect 20 1 11 0;
#X connect 21 0 8 0;
#X connect 22 0 21 0;
#X connect 23 0 13 1;
#X connect 24 0 1 0;
#X connect 25 0 24 0;
#X connect 26 0 27 0;
#X connect 27 0 23 0;
#X connect 27 0 25 0;
#X connect 27 1 23 0;
#X connect 27 1 25 0;
#X connect 27 2 28 0;
#X connect 27 3 20 0;
#X connect 28 0 10 0;
