#N canvas 800 0 787 410 10;
#X obj 246 130 inlet;
#X obj 246 149 wrap;
#X obj 319 223 t f f;
#X obj 346 242 < 1;
#X obj 319 523 outlet;
#X obj 319 265 spigot;
#X obj 378 270 kinv;
#X obj 265 287 spigot;
#X obj 246 168 t f f f;
#X obj 319 204 * 6;
#X obj 265 306 * 2;
#X obj 217 361 kinv;
#X msg 265 368 1;
#X obj 265 325 < 1;
#X obj 265 349 sel 1;
#X obj 125 340 spigot;
#X obj 152 397 < 2;
#X obj 125 359 t f f;
#X obj 152 378 * 3;
#X obj 125 437 expr (((2./3)-$f1)*6)*$f2;
#X connect 0 0 1 0;
#X connect 1 0 8 0;
#X connect 2 0 5 0;
#X connect 2 1 3 0;
#X connect 3 0 5 1;
#X connect 3 0 6 0;
#X connect 5 0 4 0;
#X connect 6 0 7 1;
#X connect 6 0 15 1;
#X connect 7 0 10 0;
#X connect 8 0 15 0;
#X connect 8 1 7 0;
#X connect 8 2 9 0;
#X connect 9 0 2 0;
#X connect 10 0 13 0;
#X connect 11 0 15 1;
#X connect 12 0 4 0;
#X connect 13 0 11 0;
#X connect 13 0 14 0;
#X connect 14 0 12 0;
#X connect 15 0 17 0;
#X connect 16 0 19 1;
#X connect 17 0 19 0;
#X connect 17 1 18 0;
#X connect 18 0 16 0;
#X connect 19 0 4 0;
