#N canvas 846 148 539 373 10;
#X obj 140 81 vsl 15 50 0 1 0 0 empty empty empty 0 -9 0 10 -258113
-1 -1 0 1;
#X obj 155 81 vsl 15 50 0 1 0 0 empty empty empty 0 -9 0 10 -4034 -1
-1 0 1;
#X obj 170 81 vsl 15 50 0 1 0 0 empty empty empty 0 -9 0 10 -4160 -1
-1 0 1;
#X obj 137 232 outlet;
#X obj 137 213 pack f f f;
#X obj 210 153 t b f;
#X obj 160 153 t b f;
#X connect 0 0 4 0;
#X connect 1 0 6 0;
#X connect 2 0 5 0;
#X connect 4 0 3 0;
#X connect 5 0 4 0;
#X connect 5 1 4 2;
#X connect 6 0 4 0;
#X connect 6 1 4 1;
#X coords 0 -1 1 1 45 69 1 140 65;
