#N canvas 0 1620 2880 1586 10;
#X floatatom 139 136 4 0 0 0 - - - 0;
#X floatatom 125 136 2 0 0 0 - - - 0;
#X floatatom 105 136 3 0 0 0 - - - 0;
#X obj 228 8 inlet;
#X obj 228 376 outlet;
#X obj 270 376 outlet;
#X obj 312 376 outlet;
#X obj 246 200 realtime;
#X obj 147 118 tgl 18 0 empty empty empty 0 -9 0 10 #faff00 #000000 #000000 0 1;
#X msg 281 60 1;
#X obj 228 60 > 0;
#X msg 311 60 0;
#X obj 291 179 metro 5;
#X obj 228 27 route bang float start stop;
#X obj 288 250 % 1000;
#X obj 246 250 / 1000;
#X obj 236 316 int;
#X obj 236 335 / 60;
#X obj 236 354 int;
#X obj 270 316 % 60;
#X obj 270 335 int;
#X obj 236 283 t f f;
#X obj 246 219 t f f;
#X obj 261 143 t f f;
#X obj 246 179 sel 1;
#X connect 3 0 13 0;
#X connect 7 0 22 0;
#X connect 8 0 23 0;
#X connect 9 0 8 0;
#X connect 10 0 8 0;
#X connect 11 0 8 0;
#X connect 12 0 7 1;
#X connect 13 0 8 0;
#X connect 13 1 10 0;
#X connect 13 2 9 0;
#X connect 13 3 11 0;
#X connect 14 0 0 0;
#X connect 14 0 6 0;
#X connect 15 0 21 0;
#X connect 16 0 17 0;
#X connect 17 0 18 0;
#X connect 18 0 2 0;
#X connect 18 0 4 0;
#X connect 19 0 20 0;
#X connect 20 0 1 0;
#X connect 20 0 5 0;
#X connect 21 0 16 0;
#X connect 21 1 19 0;
#X connect 22 0 15 0;
#X connect 22 1 14 0;
#X connect 23 0 12 0;
#X connect 23 1 24 0;
#X connect 24 0 7 0;
#X coords 0 -1 1 1 60 36 1 105 118;
