#N canvas 0 0 800 849 10;
#X obj 206 116 ktimer;
#X floatatom 133 133 4 0 0 0 - - -;
#X floatatom 119 133 2 0 0 0 - - -;
#X floatatom 105 133 2 0 0 0 - - -;
#X msg 208 82 start;
#X msg 251 85 stop;
#X obj 129 118 bng 15 250 50 0 empty empty empty 17 7 0 10 -4034 -1
-1;
#X obj 144 118 bng 15 250 50 0 empty empty empty 17 7 0 10 -258113
-1 -1;
#X obj 208 8 inlet;
#X obj 208 60 sel 1 0;
#X obj 174 146 outlet;
#X obj 216 146 outlet;
#X obj 258 146 outlet;
#X obj 208 27 route float bang;
#X obj 274 52 tgl 15 0 empty empty empty 17 7 0 10 -262144 -1 -1 0
1;
#X connect 0 0 3 0;
#X connect 0 0 10 0;
#X connect 0 1 2 0;
#X connect 0 1 11 0;
#X connect 0 2 1 0;
#X connect 0 2 12 0;
#X connect 4 0 0 0;
#X connect 5 0 0 0;
#X connect 6 0 4 0;
#X connect 7 0 5 0;
#X connect 8 0 13 0;
#X connect 9 0 4 0;
#X connect 9 1 5 0;
#X connect 13 0 9 0;
#X connect 13 1 14 0;
#X connect 14 0 13 0;
#X coords 0 -1 1 1 54 31 1 105 118;
