#N canvas 0 0 1600 849 10;
#X obj 689 334 >= \$1;
#X obj 725 334 <= \$2;
#X obj 656 294 t f f f;
#X obj 689 360 &&;
#X obj 656 392 spigot;
#X obj 656 275 inlet;
#X obj 758 282 inlet;
#X obj 758 390 spigot;
#X obj 656 411 outlet;
#X obj 758 409 outlet;
#X connect 0 0 3 0;
#X connect 1 0 3 1;
#X connect 2 0 4 0;
#X connect 2 1 0 0;
#X connect 2 2 1 0;
#X connect 3 0 4 1;
#X connect 3 0 7 1;
#X connect 4 0 8 0;
#X connect 5 0 2 0;
#X connect 6 0 7 0;
#X connect 7 0 9 0;
