#N canvas 526 278 450 300 10;
#X obj 149 37 inlet;
#X obj 149 56 route float;
#X obj 192 107 >= \$1;
#X obj 149 107 spigot;
#X obj 192 133 <= \$2;
#X obj 149 133 spigot;
#X obj 149 153 - \$1;
#X obj 173 199 expr (1*$f1)/($f2);
#X obj 278 180 - \$1;
#X obj 278 161 lb \$2;
#X obj 173 180 lb \$3;
#X obj 149 199 *;
#X obj 149 236 outlet;
#X connect 0 0 1 0;
#X connect 1 0 2 0;
#X connect 1 0 4 0;
#X connect 1 0 3 0;
#X connect 2 0 3 1;
#X connect 3 0 5 0;
#X connect 4 0 5 1;
#X connect 5 0 6 0;
#X connect 6 0 11 0;
#X connect 7 0 11 1;
#X connect 8 0 7 1;
#X connect 9 0 8 0;
#X connect 10 0 7 0;
#X connect 11 0 12 0;
