#N canvas 0 0 1600 849 10;
#X obj 193 67 inlet;
#X obj 193 86 tgl 15 0 empty empty empty 17 7 0 10 -260097 -1 -1 1
1;
#X obj 129 68 inlet~;
#X obj 129 144 outlet~;
#X obj 229 67 lb \$1;
#X obj 129 125 *~;
#X obj 144 106 kline~ 5;
#X connect 0 0 1 0;
#X connect 1 0 6 0;
#X connect 2 0 5 0;
#X connect 4 0 1 0;
#X connect 5 0 3 0;
#X connect 6 0 5 1;
#X coords 0 -1 1 1 15 15 2 193 86;
