#N canvas 0 0 450 300 10;
#X obj 64 109 realtime;
#X obj 68 131 % 1000;
#X obj 34 159 / 1000;
#X obj 29 195 int;
#X obj 21 216 / 60;
#X obj -13 217 int;
#X obj 68 198 % 60;
#X obj 63 220 int;
#X obj 122 89 metro 5;
#X obj 37 4 inlet;
#X obj 28 25 route start stop;
#X msg 13 58 bang;
#X msg 59 74 1;
#X msg 142 67 0;
#X obj -26 246 outlet;
#X obj 31 246 outlet;
#X obj 131 230 outlet;
#X text -81 270 outputs are (l to r): minutes \, seconds \, milliseconds
;
#X connect 0 0 1 0;
#X connect 0 0 2 0;
#X connect 1 0 16 0;
#X connect 2 0 3 0;
#X connect 2 0 6 0;
#X connect 3 0 4 0;
#X connect 4 0 5 0;
#X connect 5 0 14 0;
#X connect 6 0 7 0;
#X connect 7 0 15 0;
#X connect 8 0 0 1;
#X connect 9 0 10 0;
#X connect 10 0 11 0;
#X connect 10 0 12 0;
#X connect 10 1 0 1;
#X connect 10 1 13 0;
#X connect 11 0 0 0;
#X connect 12 0 8 0;
#X connect 13 0 8 0;
