#N canvas 54 145 1600 870 10;
#X obj 227 111 loadbang;
#X obj 232 168 outlet;
#X obj 209 127 bng 15 250 50 0 empty empty empty 17 7 0 10 -262144
-1 -1;
#X obj 233 141 f \$1;
#X connect 0 0 3 0;
#X connect 2 0 3 0;
#X connect 3 0 1 0;
