#N canvas 0 29 1600 849 10;
#X obj 233 122 loadbang;
#X obj 260 212 outlet;
#X obj 209 126 bng 15 250 50 0 empty empty empty 17 7 0 10 -262144
-1 -1;
#X obj 233 141 f \$1;
#X obj 233 160 sel 0;
#X obj 233 179 f \$2;
#X obj 287 58 inlet;
#X obj 287 77 route bang float;
#X connect 0 0 3 0;
#X connect 2 0 3 0;
#X connect 3 0 4 0;
#X connect 4 0 5 0;
#X connect 4 1 1 0;
#X connect 5 0 1 0;
#X connect 6 0 7 0;
#X connect 7 0 2 0;
#X connect 7 1 1 0;
#X connect 7 2 1 0;
