#N canvas 0 0 800 849 10;
#X obj 140 30 inlet;
#X obj 209 60 inlet;
#X obj 140 90 list-find;
#X obj 194 225 list-delete;
#X obj 257 187 loadbang;
#X msg 257 206 1;
#X obj 219 107 prepent set;
#X text 352 86 this might not work perfectly for lists with multiple
of the same item. (i.e. lists like 0 0 2 3 2 2 4);
#X msg 140 154 a b c d e f g h i j k l m n o p q r s t u v w x y z
0 1 2 3 4 5 6 7 8 9;
#X obj 140 109 t b f;
#X obj 194 259 outlet;
#X connect 0 0 2 0;
#X connect 1 0 6 0;
#X connect 1 0 2 1;
#X connect 2 0 9 0;
#X connect 3 0 10 0;
#X connect 4 0 5 0;
#X connect 5 0 3 2;
#X connect 6 0 8 0;
#X connect 8 0 3 0;
#X connect 9 0 8 0;
#X connect 9 1 3 1;
