#N canvas 0 0 800 849 10;
#X msg 162 173 64;
#X obj 162 99 kbdm;
#X symbolatom 202 118 10 0 0 0 - - -;
#X obj 202 99 symbol;
#X floatatom 78 144 5 0 0 0 - - -;
#X obj 202 136 sel BackSpace;
#X obj 202 232 list-delete -1 1;
#X obj 202 213 l;
#X obj 202 251 list-reset;
#X msg 112 144 add2 \$1 \, bang;
#X obj 202 270 t b a;
#X obj 217 194 l;
#X obj 465 211 l;
#X obj 162 80 route kbdr kbd bang;
#X obj 465 249 outlet;
#X obj 162 61 inlet;
#X obj 465 230 list;
#X connect 0 0 11 0;
#X connect 1 0 4 0;
#X connect 1 0 9 0;
#X connect 2 0 5 0;
#X connect 3 0 2 0;
#X connect 5 0 7 0;
#X connect 6 0 8 0;
#X connect 7 0 6 0;
#X connect 8 0 10 0;
#X connect 9 0 0 0;
#X connect 10 0 0 0;
#X connect 10 1 0 0;
#X connect 11 0 7 1;
#X connect 11 0 12 1;
#X connect 12 0 16 0;
#X connect 13 0 1 0;
#X connect 13 1 3 0;
#X connect 13 2 12 0;
#X connect 15 0 13 0;
#X connect 16 0 14 0;
