#N canvas 0 0 800 849 10;
#X obj 91 359 f;
#X obj 91 51 inlet;
#X obj 183 47 inlet;
#X obj 91 416 outlet;
#X text 60 27 value to find;
#X obj 91 180 list-drip;
#X obj 91 210 t a b;
#X obj 91 158 list;
#X text 180 27 list to search in;
#X obj 91 293 compare-any;
#X obj 91 317 select 1;
#N canvas 0 0 450 300 count 0;
#X obj 120 148 f 0;
#X obj 148 149 + 1;
#X obj 163 100 0;
#X obj 117 24 inlet;
#X obj 119 176 outlet;
#X obj 181 25 inlet;
#X obj 114 47 b;
#X connect 0 0 1 0;
#X connect 0 0 4 0;
#X connect 1 0 0 1;
#X connect 2 0 0 1;
#X connect 3 0 6 0;
#X connect 5 0 2 0;
#X connect 6 0 0 0;
#X restore 121 245 pd count;
#X obj 91 80 t b a b b;
#X obj 176 395 outlet;
#X obj 248 351 + 1;
#X obj 176 375 f;
#X obj 219 350 f 1;
#X msg 235 317 1;
#X msg 199 318 0;
#X text 208 103 [list-find-1] Find first position of a value (symbol
or float) in a list.;
#X obj 91 384 spigot 1;
#X msg 142 416 0;
#X connect 0 0 20 0;
#X connect 1 0 12 0;
#X connect 2 0 7 1;
#X connect 5 0 6 0;
#X connect 5 1 15 0;
#X connect 6 0 9 0;
#X connect 6 1 11 0;
#X connect 7 0 5 0;
#X connect 9 0 10 0;
#X connect 10 0 0 0;
#X connect 10 0 16 0;
#X connect 11 0 0 1;
#X connect 12 0 7 0;
#X connect 12 1 9 1;
#X connect 12 2 11 1;
#X connect 12 3 17 0;
#X connect 12 3 18 0;
#X connect 14 0 16 1;
#X connect 15 0 13 0;
#X connect 16 0 15 1;
#X connect 16 0 14 0;
#X connect 17 0 16 1;
#X connect 17 0 20 1;
#X connect 18 0 15 1;
#X connect 20 0 3 0;
#X connect 20 0 21 0;
#X connect 21 0 20 1;
