#N canvas 0 0 800 849 10;
#X obj 142 172 inlet;
#X obj 238 191 inlet;
#X obj 195 261 prepent set;
#X msg 168 310 walk th edog;
#X obj 168 215 t b a;
#X obj 168 329 outlet;
#X text 183 129 lists - list store. store and recall a list similarly
to [float] \, [symbol] \, etc.;
#X obj 142 191 route bang;
#X connect 0 0 7 0;
#X connect 1 0 2 0;
#X connect 2 0 3 0;
#X connect 3 0 5 0;
#X connect 4 0 3 0;
#X connect 4 1 2 0;
#X connect 7 0 3 0;
#X connect 7 1 4 0;
