#N canvas 0 0 1600 849 10;
#X obj 265 32 inlet;
#X obj 265 92 list-drip;
#X obj 265 129 sel \$1;
#X text 377 71 list-replacer: replaces all instances of one item in
a list with another list;
#X obj 265 163 l;
#X obj 410 273 l;
#X obj 410 292 outlet;
#X obj 283 238 list prepend;
#X obj 361 238 list;
#X obj 283 195 t l;
#X obj 265 70 t l b;
#X obj 265 51 list;
#X obj 370 146 list;
#X obj 370 127 inlet;
#X connect 0 0 11 0;
#X connect 1 0 2 0;
#X connect 1 1 5 0;
#X connect 2 0 4 0;
#X connect 2 1 9 0;
#X connect 4 0 9 0;
#X connect 5 0 6 0;
#X connect 7 0 8 0;
#X connect 7 0 5 1;
#X connect 8 0 7 1;
#X connect 9 0 7 0;
#X connect 10 0 1 0;
#X connect 10 1 7 1;
#X connect 11 0 10 0;
#X connect 12 0 4 1;
#X connect 13 0 12 0;
