#N canvas 0 0 800 849 10;
#X obj 188 285 inlet;
#X obj 238 285 inlet;
#X obj 164 381 list-find;
#X obj 164 484 list-rev;
#X obj 223 332 any;
#X obj 188 304 t b a;
#X msg 115 578 bar baz;
#X msg 164 416 add2 \$1;
#X msg 164 451 0;
#X obj 215 416 bang;
#X obj 187 580 list-delete;
#X obj 164 503 list-drip;
#X obj 31 481 prepent set;
#X obj 164 522 t b f;
#X msg 117 646 bar baz;
#X obj 117 665 outlet;
#X obj 289 665 outlet;
#X obj 223 351 t a b;
#X msg 250 416 set;
#X obj 232 483 list length;
#X obj 304 483 list length;
#X obj 289 536 sel 1;
#X obj 289 517 ==;
#X text 294 292 left inlet - list to remove item from.;
#X text 294 305 right inlet - item to remove all instances of.;
#X text 294 319 left outlet - list with all instances removed.;
#X text 294 332 right outlet - bang if output list is of length 0;
#X connect 0 0 5 0;
#X connect 1 0 4 1;
#X connect 2 0 7 0;
#X connect 2 1 9 0;
#X connect 3 0 11 0;
#X connect 4 0 17 0;
#X connect 5 0 4 0;
#X connect 5 1 2 1;
#X connect 5 1 12 0;
#X connect 5 1 20 0;
#X connect 6 0 10 0;
#X connect 7 0 8 0;
#X connect 8 0 3 0;
#X connect 8 0 19 0;
#X connect 9 0 8 0;
#X connect 10 0 12 0;
#X connect 11 0 13 0;
#X connect 11 1 14 0;
#X connect 12 0 6 0;
#X connect 12 0 14 0;
#X connect 13 0 6 0;
#X connect 13 1 10 1;
#X connect 14 0 15 0;
#X connect 17 0 2 0;
#X connect 17 1 18 0;
#X connect 18 0 8 0;
#X connect 19 0 22 0;
#X connect 20 0 22 1;
#X connect 21 0 16 0;
#X connect 22 0 21 0;
