#N canvas 800 29 800 849 10;
#X obj 91 51 inlet;
#X obj 187 51 inlet;
#X obj 114 426 outlet;
#X text 60 31 value to find;
#X text 184 31 list to search in;
#X text 257 155 [list-find-1] Find first position of a value (symbol
or float) in a list.;
#X obj 91 180 list-dripslow;
#X text 256 194 outputs -1 if the value wasn't found \, else outputs
the index of the value.;
#X msg 166 357 -1;
#X obj 129 241 cup;
#X msg 138 215 0;
#X obj 91 153 until;
#X obj 91 213 t a b;
#X obj 114 357 f;
#X obj 91 265 compare-any;
#X obj 91 284 sel 1;
#X obj 91 80 t b b a;
#X obj 166 120 list;
#X connect 0 0 16 0;
#X connect 1 0 17 1;
#X connect 6 0 12 0;
#X connect 6 1 11 1;
#X connect 6 1 8 0;
#X connect 8 0 2 0;
#X connect 9 0 13 1;
#X connect 10 0 9 0;
#X connect 11 0 6 0;
#X connect 12 0 14 0;
#X connect 12 1 9 0;
#X connect 13 0 2 0;
#X connect 14 0 15 0;
#X connect 15 0 11 1;
#X connect 15 0 13 0;
#X connect 16 0 11 0;
#X connect 16 1 10 0;
#X connect 16 1 17 0;
#X connect 16 2 14 1;
#X connect 17 0 6 1;
