#N canvas 0 0 1600 849 10;
#X obj 104 120 outlet;
#X obj 101 174 s master;
#X obj 151 66 pack s \$0;
#X obj 151 28 loadbang;
#X obj 151 47 symbol \$1;
#X msg 151 145 register \$1-\$2;
#X obj 27 42 r \$1-\$0;
#X obj 27 125 pack s \$0;
#X obj 27 106 symbol \$1;
#X msg 49 150 pong \$1-\$2;
#X msg 111 88 ping;
#X obj 27 61 route ping;
#X msg 171 108 num \$2;
#X obj 75 42 r \$0-\$1;
#X obj -3 42 r \$1;
#X connect 2 0 5 0;
#X connect 2 0 12 0;
#X connect 3 0 4 0;
#X connect 4 0 2 0;
#X connect 5 0 1 0;
#X connect 6 0 11 0;
#X connect 7 0 9 0;
#X connect 8 0 7 0;
#X connect 9 0 1 0;
#X connect 10 0 0 0;
#X connect 11 0 10 0;
#X connect 11 0 8 0;
#X connect 11 1 0 0;
#X connect 12 0 0 0;
#X connect 13 0 11 0;
#X connect 14 0 11 0;
