#N canvas 1680 47 1600 853 10;
#X obj 83 155 r master;
#X obj 83 174 route hi bye;
#X text 273 102 FROM = the \$0 of the calling object/abstraction;
#N canvas 2480 29 800 871 register 0;
#X obj 445 13 inlet;
#X obj 218 356 pack s s;
#X msg 248 444 has \$1;
#X obj 297 444 symbol;
#X obj 218 394 t a a;
#X obj 340 375 sel 0;
#X msg 218 375 symbol \$2\$1;
#X obj 238 272 t b a;
#X obj 218 321 map a b c d e f g h i j k l m n o p q r s t u v w x
y z;
#X msg 297 513 add \$1;
#X obj 340 356 r master-listman-ro;
#X obj 248 558 s master-listman;
#X obj 297 463 t a a;
#X obj 420 539 s;
#X msg 428 164 \$2 \$1;
#X obj 428 183 unpack s f;
#X obj 433 70 prepent;
#X obj 445 32 t a a;
#X obj 472 51 list length;
#X obj 403 95 route 1 2;
#X obj 36 188 rchoice a b c d e f g h i j k l m n p q r s t u v w x
y z;
#X obj 311 130 t b f;
#X msg 344 500 name \$1;
#X msg 605 340 symbol mc-\$1;
#X msg 105 218 symbol \$1;
#X obj 367 394 bang;
#X msg 330 425 symbol \$1;
#X connect 0 0 17 0;
#X connect 1 0 6 0;
#X connect 2 0 11 0;
#X connect 3 0 12 0;
#X connect 4 0 2 0;
#X connect 4 1 26 0;
#X connect 5 0 3 0;
#X connect 5 1 25 0;
#X connect 6 0 4 0;
#X connect 7 0 8 0;
#X connect 7 1 1 1;
#X connect 8 0 1 0;
#X connect 9 0 11 0;
#X connect 10 0 5 0;
#X connect 12 0 9 0;
#X connect 12 1 22 0;
#X connect 14 0 15 0;
#X connect 15 0 7 0;
#X connect 15 1 23 0;
#X connect 16 0 19 0;
#X connect 17 0 16 0;
#X connect 17 1 18 0;
#X connect 18 0 16 1;
#X connect 19 0 21 0;
#X connect 19 1 14 0;
#X connect 20 0 24 0;
#X connect 21 0 20 0;
#X connect 21 1 23 0;
#X connect 22 0 13 0;
#X connect 23 0 13 1;
#X connect 24 0 7 0;
#X connect 25 0 8 0;
#X connect 26 0 3 1;
#X restore 83 212 pd register;
#N canvas 2480 29 800 871 unregister 0;
#X obj 469 228 inlet;
#X obj 469 285 s master-listman;
#X msg 469 266 rem \$1;
#X obj 469 247 symbol;
#X connect 0 0 3 0;
#X connect 2 0 1 0;
#X connect 3 0 2 0;
#X restore 117 193 pd unregister;
#X obj 83 261 r master-listman;
#X obj 83 280 listman;
#X obj 122 299 s master-listman-ro;
#X text 273 81 syntax of bye: bye <NAME>;
#X text 273 122 SNAME = a letter to prefix before the name that [master]
will assign to that object. i.e. o~ and so~ use "o";
#X text 273 153 NAME = the name that [master] gave to the object.;
#X text 273 61 syntax of hi: hi <FROM> [SNAME];
#X obj 83 387 value MASTER;
#X obj 83 349 loadbang;
#X msg 83 368 1;
#X connect 0 0 1 0;
#X connect 1 0 3 0;
#X connect 1 1 4 0;
#X connect 5 0 6 0;
#X connect 6 1 7 0;
#X connect 13 0 14 0;
#X connect 14 0 12 0;
