#N canvas 339 161 855 601 10;
#X obj 297 131 *~ 0;
#X obj 342 115 / 100;
#X obj 297 195 *~ 1;
#X obj 121 184 route 0 1;
#X obj 298 302 *~ 0.5;
#X obj 341 302 *~ 0.5;
#X msg 130 11 0;
#X obj 304 265 - 1;
#X obj 304 283 abs;
#X obj 3 27 hsl 55 13 -1 1 0 1 empty empty pan -1 8 0 10 -262144 -1
-1 2700 1;
#X obj 20 53 bng 10 50 50 0 empty empty p 12 5 0 10 -262144 -1 -1;
#X obj 342 96 r \$0-v;
#X obj 331 134 r \$0-mute;
#X obj 0 53 tgl 10 1 \$0-mute empty v 12 5 0 10 -262144 -1 -1 1 1;
#X msg 58 263 color 13 12 12;
#X msg 152 263 color 0 12 12;
#X obj 331 224 + 1;
#X obj 331 242 / 2;
#X obj 260 16 inlet~;
#X obj 339 17 inlet~;
#X obj 259 75 *~ 1;
#X obj 324 75 *~ 0;
#X obj 380 46 - 1;
#X obj 380 66 abs;
#X obj -122 177 - 1;
#X obj -122 197 abs;
#X floatatom 40 0 3 0 999 0 - - -;
#X obj 40 53 bng 10 250 50 0 empty empty s 12 5 0 10 -262144 -1 -1
;
#X obj 3 40 hsl 55 13 1 0 0 0 empty empty switch -1 8 0 10 -262144
-1 -1 0 1;
#X obj -50 185 pack float float;
#X msg -71 150 set \$1;
#X obj -50 240 line 1 5;
#X obj 6 159 * 10;
#X obj -122 157 f 1;
#X obj 3 14 hsl 55 13 0 100 0 0 \$0-v empty volume -1 8 0 10 -262144
-33289 -33289 300 1;
#X obj 303 18 inlet;
#X obj 386 -81 route pan vol volume switch;
#X obj 40 -40 loadbang;
#X msg 40 -20 200;
#X obj 288 353 outlet~;
#X obj 336 353 outlet~;
#X connect 0 0 2 0;
#X connect 1 0 0 1;
#X connect 2 0 4 0;
#X connect 2 0 5 0;
#X connect 3 0 14 0;
#X connect 3 1 15 0;
#X connect 4 0 39 0;
#X connect 5 0 40 0;
#X connect 6 0 9 0;
#X connect 7 0 8 0;
#X connect 8 0 4 0;
#X connect 9 0 16 0;
#X connect 10 0 6 0;
#X connect 11 0 1 0;
#X connect 12 0 2 1;
#X connect 12 0 3 0;
#X connect 14 0 34 0;
#X connect 15 0 34 0;
#X connect 16 0 17 0;
#X connect 17 0 5 1;
#X connect 17 0 7 0;
#X connect 18 0 20 0;
#X connect 19 0 21 0;
#X connect 20 0 0 0;
#X connect 21 0 0 0;
#X connect 22 0 23 0;
#X connect 23 0 21 1;
#X connect 24 0 25 0;
#X connect 25 0 29 0;
#X connect 26 0 32 0;
#X connect 27 0 33 0;
#X connect 28 0 20 1;
#X connect 28 0 22 0;
#X connect 28 0 30 0;
#X connect 28 0 33 1;
#X connect 29 0 31 0;
#X connect 31 0 28 0;
#X connect 32 0 29 1;
#X connect 33 0 24 0;
#X connect 35 0 36 0;
#X connect 36 0 9 0;
#X connect 36 1 34 0;
#X connect 36 2 34 0;
#X connect 36 3 28 0;
#X connect 37 0 38 0;
#X connect 38 0 26 0;
#X coords 0 -1 1 1 60 63 1 0 0;
