#N canvas 0 0 800 849 10;
#X obj 180 161 inlet~;
#X obj 180 237 outlet~;
#X obj 180 180 s~ \$1;
#X obj 180 199 throw~ \$1_c;
#X obj 180 218 catch~ \$1_c;
#X text 290 105 abstraction for modulation... first argument is the
name. TODO: add second arg which should be the name of the place to
send "hook data" so whatever this abstraction is used in is aware of
all potential modulations.;
#X connect 0 0 2 0;
#X connect 0 0 3 0;
#X connect 4 0 1 0;
