#N canvas 800 0 800 836 10;
#X obj 140 -40 inlet;
#X obj 290 281 inlet~;
#X obj 140 69 route symphnum oscsnum filtersnum;
#X obj 125 174 f;
#X obj 190 174 f;
#X obj 255 174 f;
#X obj 366 -93 symbol \$1;
#X obj 366 -74 sel xxxxx 0;
#X obj 447 -10 list-find;
#X obj 498 -68 loadbang;
#X obj 447 77 list-idx;
#X obj 447 9 t b f;
#X obj 447 96 sel 1 2 3;
#X obj 190 292 pack f s;
#X obj 429 -55 t a a;
#X obj 140 -21 t a b;
#X obj 190 398 throw~;
#X msg 190 311 set \$1-\$2_c;
#X text 18 -92 mod~ - modulation. connect the inlet to a Symph~ \,
oscs~ \, or filters~;
#X msg 447 28 1 1 1 2 2 2 2 2 2;
#X msg 498 -49 prefilt preenv env osc1 osc2 osc3 osc1f osc2f osc3f
;
#X connect 0 0 15 0;
#X connect 1 0 16 0;
#X connect 2 0 3 1;
#X connect 2 1 4 1;
#X connect 2 2 5 1;
#X connect 3 0 13 0;
#X connect 4 0 13 0;
#X connect 5 0 13 0;
#X connect 6 0 7 0;
#X connect 7 2 14 0;
#X connect 8 0 11 0;
#X connect 9 0 20 0;
#X connect 10 0 12 0;
#X connect 11 0 19 0;
#X connect 11 1 10 1;
#X connect 12 0 3 0;
#X connect 12 1 4 0;
#X connect 12 2 5 0;
#X connect 13 0 17 0;
#X connect 14 0 8 0;
#X connect 14 1 13 1;
#X connect 15 0 2 0;
#X connect 15 1 6 0;
#X connect 17 0 16 0;
#X connect 19 0 10 0;
#X connect 20 0 8 1;
