#N canvas 0 29 800 849 10;
#X obj 336 350 shell;
#X obj 336 274 quote;
#X obj 363 419 outlet;
#X obj 471 272 l2s _;
#X obj 336 255 t a a;
#X obj 336 236 inlet;
#X obj 471 291 s2l /;
#X obj 471 310 list-idx -1;
#X obj 471 329 list append .wav;
#X obj 471 367 sym;
#X obj 336 293 list append;
#X obj 336 312 prepent --decode;
#X obj 336 331 prepent lame;
#X obj 471 348 list prepend /tmp/;
#X obj 363 400 symbol;
#X connect 0 1 14 0;
#X connect 1 0 10 0;
#X connect 3 0 6 0;
#X connect 4 0 1 0;
#X connect 4 1 3 0;
#X connect 5 0 4 0;
#X connect 6 0 7 0;
#X connect 7 0 8 0;
#X connect 8 0 13 0;
#X connect 9 0 10 1;
#X connect 9 0 14 1;
#X connect 10 0 11 0;
#X connect 11 0 12 0;
#X connect 12 0 0 0;
#X connect 13 0 9 0;
#X connect 14 0 2 0;
