#N canvas 0 0 450 300 10;
#X obj 181 23 inlet;
#X obj 179 45 / 127;
#X obj 183 101 outlet;
#X obj 232 33 lb \$1;
#X obj 231 54 sel 0;
#X msg 232 74 1;
#X obj 178 67 *;
#X connect 0 0 1 0;
#X connect 1 0 6 0;
#X connect 3 0 4 0;
#X connect 4 0 5 0;
#X connect 4 1 6 1;
#X connect 5 0 6 1;
#X connect 6 0 2 0;
