#N canvas 800 0 800 849 10;
#X obj 181 23 inlet;
#X obj 181 42 / 127;
#X obj 181 116 outlet;
#X obj 181 78 *;
#X obj 222 -10 inlet;
#X obj 222 9 route top float bottom;
#X obj 222 34 lb \$1 1;
#X obj 222 61 - \$2;
#X obj 181 97 + \$2;
#X obj 351 47 s2l ';
#X msg 351 66 bottom \$1 \, top \$2;
#X obj 351 28 symbol;
#X connect 0 0 1 0;
#X connect 1 0 3 0;
#X connect 3 0 8 0;
#X connect 4 0 5 0;
#X connect 5 0 6 0;
#X connect 5 1 6 0;
#X connect 5 2 7 1;
#X connect 5 2 8 1;
#X connect 5 3 11 0;
#X connect 6 0 7 0;
#X connect 7 0 3 1;
#X connect 8 0 2 0;
#X connect 9 0 10 0;
#X connect 10 0 5 0;
#X connect 11 0 9 0;
