#N canvas 295 266 450 300 10;
#X obj 142 15 keyonchg \$1;
#X obj 197 53 numlock;
#X obj 142 70 spigot;
#X obj 142 89 outlet;
#X obj 197 34 r numlock;
#X connect 0 0 2 0;
#X connect 1 0 2 1;
#X connect 2 0 3 0;
#X connect 4 0 1 0;
