#N canvas 0 0 1598 868 10;
#X obj -78 36 / 127;
#X obj -5 35 sel 127;
#X msg 2 62 1;
#X obj 31 118 num;
#X obj 75 35 / 127;
#X msg 243 66 0;
#X obj 239 33 sel 127;
#X floatatom -18 143 5 0 0 0 - - -;
#X msg 73 77 a 0.005;
#X msg -75 85 s 0.005;
#X obj 73 54 metro 10;
#X obj -81 60 metro 10;
#X obj 161 36 sel 127;
#X msg 166 61 m -1;
#X obj 29 140 outlet;
#X obj 145 106 inlet;
#X obj 160 15 ctlin 40 \$1;
#X obj 239 14 ctlin 41 \$1;
#X obj 80 14 ctlin 39 \$1;
#X obj -4 14 ctlin 38 \$1;
#X obj -79 14 ctlin 37 \$1;
#X connect 0 0 11 0;
#X connect 1 0 2 0;
#X connect 2 0 3 0;
#X connect 3 0 7 0;
#X connect 3 0 14 0;
#X connect 4 0 10 0;
#X connect 5 0 3 0;
#X connect 6 0 5 0;
#X connect 8 0 3 0;
#X connect 9 0 3 0;
#X connect 10 0 8 0;
#X connect 11 0 9 0;
#X connect 12 0 13 0;
#X connect 13 0 3 0;
#X connect 15 0 3 0;
#X connect 16 0 12 0;
#X connect 17 0 6 0;
#X connect 18 0 4 0;
#X connect 19 0 1 0;
#X connect 20 0 0 0;
