#N canvas 0 0 1600 870 10;
#X obj 70 17 inlet;
#X obj 70 226 outlet;
#X obj 106 17 r \$2;
#X obj 101 74 unpack symbol float;
#X floatatom -13 168 5 0 0 0 - - -;
#X obj 327 113 sel a s m d;
#X obj 330 191 kspigot;
#X msg 340 164 1;
#X msg 371 166 0;
#X obj 392 195 kspigot;
#X msg 402 168 1;
#X msg 433 170 0;
#X obj 460 198 kspigot;
#X msg 470 171 1;
#X msg 501 173 0;
#X obj 522 197 kspigot;
#X msg 532 170 1;
#X msg 563 172 0;
#X obj 219 162 f;
#X obj 314 256 +;
#X obj 338 256 -;
#X obj 362 256 *;
#X obj 386 256 /;
#X obj 118 99 t b s;
#X obj 23 51 route float bang;
#X msg 58 78 bang;
#X obj 144 25 lb \$1;
#X obj 28 147 f;
#X connect 0 0 24 0;
#X connect 2 0 24 0;
#X connect 3 0 23 0;
#X connect 3 1 19 1;
#X connect 3 1 20 1;
#X connect 3 1 21 1;
#X connect 3 1 22 1;
#X connect 5 0 7 0;
#X connect 5 0 11 0;
#X connect 5 0 14 0;
#X connect 5 0 17 0;
#X connect 5 1 8 0;
#X connect 5 1 10 0;
#X connect 5 1 14 0;
#X connect 5 1 17 0;
#X connect 5 2 8 0;
#X connect 5 2 11 0;
#X connect 5 2 13 0;
#X connect 5 2 17 0;
#X connect 5 3 8 0;
#X connect 5 3 11 0;
#X connect 5 3 14 0;
#X connect 5 3 16 0;
#X connect 5 4 8 0;
#X connect 5 4 11 0;
#X connect 5 4 14 0;
#X connect 5 4 17 0;
#X connect 6 0 19 0;
#X connect 7 0 6 1;
#X connect 8 0 6 1;
#X connect 9 0 20 0;
#X connect 10 0 9 1;
#X connect 11 0 9 1;
#X connect 12 0 21 0;
#X connect 13 0 12 1;
#X connect 14 0 12 1;
#X connect 15 0 22 0;
#X connect 16 0 15 1;
#X connect 17 0 15 1;
#X connect 18 0 6 0;
#X connect 18 0 9 0;
#X connect 18 0 12 0;
#X connect 18 0 15 0;
#X connect 19 0 27 0;
#X connect 20 0 27 0;
#X connect 21 0 27 0;
#X connect 22 0 27 0;
#X connect 23 0 18 0;
#X connect 23 1 5 0;
#X connect 24 0 27 0;
#X connect 24 1 25 0;
#X connect 24 2 3 0;
#X connect 25 0 27 0;
#X connect 26 0 24 0;
#X connect 27 0 4 0;
#X connect 27 0 18 1;
#X connect 27 0 1 0;
