#N canvas 0 0 1600 849 10;
#X obj 300 258 inlet;
#X obj 300 277 route float bang set a s m d;
#X obj 350 398 +;
#X obj 394 296 * -1;
#X obj 350 379 f;
#X obj 394 335 t b f;
#X obj 454 381 f;
#X obj 454 400 *;
#X obj 454 346 t b f;
#X obj 504 381 f;
#X obj 504 346 t b f;
#X obj 504 400 /;
#X obj 300 422 outlet;
#X obj 518 241 route + - * /;
#X msg 518 260 a \$1;
#X msg 552 260 s \$1;
#X msg 586 260 m \$1;
#X msg 620 260 d \$1;
#X text 329 177 convenient number... arg 1 is initial value.;
#X obj 300 311 f;
#X obj 231 251 lb \$1;
#X msg 231 270 set \$1;
#X connect 0 0 1 0;
#X connect 1 0 19 0;
#X connect 1 1 19 0;
#X connect 1 2 4 1;
#X connect 1 2 6 1;
#X connect 1 2 9 1;
#X connect 1 2 19 1;
#X connect 1 3 5 0;
#X connect 1 4 3 0;
#X connect 1 5 8 0;
#X connect 1 6 10 0;
#X connect 1 7 13 0;
#X connect 2 0 19 0;
#X connect 3 0 5 0;
#X connect 4 0 2 0;
#X connect 5 0 4 0;
#X connect 5 1 2 1;
#X connect 6 0 7 0;
#X connect 7 0 19 0;
#X connect 8 0 6 0;
#X connect 8 1 7 1;
#X connect 9 0 11 0;
#X connect 10 0 9 0;
#X connect 10 1 11 1;
#X connect 11 0 19 0;
#X connect 13 0 14 0;
#X connect 13 1 15 0;
#X connect 13 2 16 0;
#X connect 13 3 17 0;
#X connect 14 0 1 0;
#X connect 15 0 1 0;
#X connect 16 0 1 0;
#X connect 17 0 1 0;
#X connect 19 0 4 1;
#X connect 19 0 6 1;
#X connect 19 0 9 1;
#X connect 19 0 12 0;
#X connect 20 0 21 0;
#X connect 21 0 1 0;
