#N canvas 0 0 450 300 10;
#X obj 182 -33 keyname;
#X obj 130 100 tgl 15 0 empty empty empty 17 7 0 10 -262144 -1 -1 0
1;
#X obj 129 157 outlet;
#X obj 127 134 f;
#X obj 18 103 inlet;
#X obj 191 -8 sel Num_Lock;
#X obj 128 75 keyonchg Num_Lock;
#X connect 0 1 5 0;
#X connect 1 0 3 0;
#X connect 3 0 2 0;
#X connect 4 0 3 0;
#X connect 6 0 1 0;
#X coords 0 -1 1 1 65 15 1 80 100;
