#N canvas 0 29 1600 849 10;
#X obj 183 252 wiimotec;
#X obj 183 216 r wiimote;
#X obj 486 49 namecanvas initpatch;
#X obj 111 216 ldbang;
#X obj 183 67 bng 55 250 50 0 empty empty X 12 28 1 50 -258113 -1 -1
;
#X obj 243 216 r wii;
#X obj 111 237 bng 15 250 50 0 empty empty empty 17 7 0 10 -262144
-1 -1;
#X text 134 193 ----- Wiimote Section -----;
#X text 134 273 ----- Keyboard Section -----;
#N canvas 0 0 1600 849 kbd 0;
#X obj 226 151 keyname;
#X obj 226 174 pack f s;
#X obj 226 193 route 1;
#X obj 226 212 symbol;
#N canvas 0 0 787 410 control-keys 0;
#X obj 40 40 inlet;
#X obj 64 139 tgl 15 0 empty empty empty 17 7 0 10 -262144 -1 -1 0
1;
#X obj 429 480 outlet;
#X obj 67 215 outlet;
#X obj 67 196 spigot 1;
#X obj 112 177 kinv;
#X obj 143 196 spigot 0;
#X msg 253 420 tog \$1;
#X msg 429 195 usa;
#X obj 465 62 r master;
#X obj 465 180 listman;
#X obj 465 81 route register pong;
#N canvas 0 0 787 410 register 0;
#X obj 83 99 inlet;
#X obj 78 491 outlet;
#X obj 194 175 s set-Menu-mode;
#X msg 194 156 0;
#X text 176 61 when you register a client \, you can use an apostrophe
(') to specify "the first unused character". BUT - you can only use
one apostrophe in each name \, and the apostrophe has to be the last
character in the name. names should be at maximum 2 characters.;
#X obj 110 175 r mcl-clients;
#X obj 110 194 list;
#X obj 110 156 s mcl;
#X obj 59 257 list-find;
#X obj 83 137 t a b;
#X obj 110 276 sel 0;
#N canvas 0 0 1600 849 namegen 0;
#X obj 69 150 inlet;
#X obj 69 209 symbol;
#X obj 185 572 outlet;
#X obj 69 228 chars;
#X obj 45 307 list-find;
#X obj 69 247 t b a;
#X msg 45 288 symbol ';
#X obj 96 326 sel 0;
#X obj 198 150 inlet;
#X obj 185 553 symbol;
#X msg 227 249 reset;
#X obj 171 314 symbol;
#X obj 69 169 t a a b;
#X obj 123 345 bang;
#X obj 171 333 chars;
#X msg 174 415 add2 \$1;
#X msg 227 464 o \$1;
#X msg 288 377 set;
#X obj 171 371 sel ';
#X msg 238 414 adddollar 1;
#X obj 171 390 t b b;
#X obj 171 352 list-drip;
#X obj 227 521 l2s;
#X obj 242 483 loadbang;
#X msg 242 502 symbol;
#X obj 227 268 map a b c d e f g h i j k l m n o p q r s t u v //;
#X obj 227 287 sel //;
#X msg 227 306 //;
#X msg 91 381 set //;
#X obj 64 362 t b b;
#X connect 0 0 12 0;
#X connect 1 0 3 0;
#X connect 3 0 5 0;
#X connect 4 1 7 0;
#X connect 5 0 6 0;
#X connect 5 1 4 1;
#X connect 6 0 4 0;
#X connect 7 0 29 0;
#X connect 7 1 13 0;
#X connect 8 0 25 0;
#X connect 9 0 2 0;
#X connect 10 0 25 0;
#X connect 11 0 14 0;
#X connect 12 0 1 0;
#X connect 12 1 11 1;
#X connect 12 1 9 1;
#X connect 12 2 10 0;
#X connect 12 2 17 0;
#X connect 13 0 11 0;
#X connect 14 0 21 0;
#X connect 15 0 16 0;
#X connect 16 0 22 0;
#X connect 17 0 16 0;
#X connect 18 0 20 0;
#X connect 18 1 15 0;
#X connect 19 0 16 0;
#X connect 20 0 25 0;
#X connect 20 1 19 0;
#X connect 21 0 18 0;
#X connect 22 0 9 0;
#X connect 23 0 24 0;
#X connect 24 0 22 1;
#X connect 25 0 26 0;
#X connect 26 0 27 0;
#X connect 26 1 16 0;
#X connect 27 0 9 0;
#X connect 28 0 16 0;
#X connect 29 0 9 0;
#X connect 29 1 28 0;
#X restore 44 194 pd namegen;
#X obj 38 336 symbol;
#X obj 44 213 t a a;
#X obj 137 295 bang;
#X obj 44 175 symbol;
#X obj 83 118 unpack s f;
#X obj 116 386 pack s f;
#X msg 78 472 add \$1;
#X msg 142 422 \; mc-\$2 name \$1;
#X text 292 167 don't remember why i changed menu-mode to 0 there's
probably a reason for it but i don't recall what it was. write it down
if i remember it.;
#X obj 45 434 list-idx 0;
#X obj 45 453 sel //;
#X obj 117 214 r mcl-empty;
#X msg 117 233 list;
#X connect 0 0 16 0;
#X connect 3 0 2 0;
#X connect 5 0 6 0;
#X connect 6 0 8 1;
#X connect 8 1 10 0;
#X connect 9 0 15 0;
#X connect 9 1 7 0;
#X connect 9 1 3 0;
#X connect 10 0 12 0;
#X connect 10 1 14 0;
#X connect 11 0 13 0;
#X connect 12 0 17 0;
#X connect 13 0 8 0;
#X connect 13 1 12 1;
#X connect 14 0 11 1;
#X connect 15 0 11 0;
#X connect 16 0 9 0;
#X connect 16 1 17 1;
#X connect 17 0 19 0;
#X connect 17 0 21 0;
#X connect 18 0 1 0;
#X connect 21 0 22 0;
#X connect 22 1 18 0;
#X connect 23 0 24 0;
#X connect 24 0 8 1;
#X restore 465 130 pd register;
#X obj 431 156 r mcl;
#X obj 487 161 bng 15 250 50 0 empty empty empty 17 7 0 10 -262144
-1 -1;
#X obj 504 199 route bang float;
#X obj 550 242 s mcl-has;
#X msg 109 253 set;
#X msg 253 382;
#X obj 284 334 t b a;
#X msg 311 353 add2 \$1;
#X obj 465 261 s mcl-clients;
#N canvas 800 0 1600 849 parse-client-list 0;
#X obj 34 18 inlet;
#X msg 34 652 has \$1;
#X obj 34 671 s mcl;
#X obj 34 472 l2s;
#X obj 49 434 loadbang;
#X msg 49 453 symbol;
#X obj 67 179 list-idx -1;
#X obj 67 198 sel Return;
#X obj 260 476 r mcl-has;
#X obj 260 495 spigot 0;
#X obj 260 514 sel 0;
#X msg 67 217 0;
#X msg 95 217 1;
#X obj 305 457 r Menu-mode;
#X obj 287 552 symbol;
#X obj 287 533 bang;
#X obj 287 571 outlet;
#X obj 182 307 list-drip;
#X obj 97 264 spigot 0;
#X obj 34 244 spigot 1;
#X obj 142 245 kinv;
#X obj 97 283 t b a;
#X msg 182 373 o \$1;
#X msg 116 326 set \$1 \, adddollar 1;
#X obj 182 430 l2s;
#X obj 197 392 loadbang;
#X msg 197 411 symbol;
#X text 291 84 FINISH THIS PARTTTTTTTTTTTTTTTTTTTTTTTTTT;
#X obj 34 137 t a a;
#X obj 61 56 list-idx 0;
#X obj 61 75 sel Return;
#X msg 61 94 0;
#X msg 118 94 1;
#X obj 34 118 spigot;
#X obj 34 37 t a a;
#X obj 34 500 t a a;
#X obj 34 263 t a a;
#X obj 61 348 list length;
#X obj 61 367 > 1;
#X obj 116 307 unpack s s;
#X obj 182 345 symbol;
#X msg 182 275 a b c d e f g h i j k l m n o p q r s t u v w x y z
A B C D E F G H I J K L M N O P Q R S T U V W X Y Z;
#X msg 258 338 \; set-Menu-mode 0 \; osd Menu-\$1!!;
#X obj 182 449 symbol;
#X msg 287 590 \; set-Menu-mode 0 \; osd Menu-\$1!;
#X msg 245 635 \; set-Menu-mode 0 \; osd Menu-\$1 - Not found!;
#X obj 245 597 symbol;
#X obj 245 616 spigot;
#X msg 145 635 \; osd Menu-\$1...;
#X obj 145 578 symbol;
#X obj 145 616 spigot;
#X obj 178 597 kinv;
#X connect 0 0 34 0;
#X connect 1 0 2 0;
#X connect 3 0 35 0;
#X connect 4 0 5 0;
#X connect 5 0 3 1;
#X connect 6 0 7 0;
#X connect 7 0 11 0;
#X connect 7 1 12 0;
#X connect 8 0 9 0;
#X connect 9 0 10 0;
#X connect 10 0 46 0;
#X connect 10 0 49 0;
#X connect 10 1 15 0;
#X connect 11 0 19 1;
#X connect 11 0 20 0;
#X connect 11 0 9 1;
#X connect 12 0 19 1;
#X connect 12 0 20 0;
#X connect 13 0 9 1;
#X connect 14 0 16 0;
#X connect 14 0 44 0;
#X connect 15 0 14 0;
#X connect 17 0 40 0;
#X connect 18 0 21 0;
#X connect 19 0 36 0;
#X connect 20 0 18 1;
#X connect 21 0 41 0;
#X connect 21 1 39 0;
#X connect 22 0 24 0;
#X connect 23 0 22 0;
#X connect 24 0 43 0;
#X connect 25 0 26 0;
#X connect 26 0 24 1;
#X connect 28 0 19 0;
#X connect 28 0 18 0;
#X connect 28 1 6 0;
#X connect 29 0 30 0;
#X connect 30 0 31 0;
#X connect 30 1 32 0;
#X connect 31 0 33 1;
#X connect 32 0 33 1;
#X connect 33 0 28 0;
#X connect 34 0 33 0;
#X connect 34 1 29 0;
#X connect 35 0 1 0;
#X connect 35 1 14 1;
#X connect 35 1 46 1;
#X connect 35 1 49 1;
#X connect 36 0 3 0;
#X connect 36 1 37 0;
#X connect 37 0 38 0;
#X connect 38 0 47 1;
#X connect 38 0 51 0;
#X connect 39 0 23 0;
#X connect 39 0 42 0;
#X connect 40 0 22 0;
#X connect 41 0 17 0;
#X connect 43 0 16 0;
#X connect 46 0 47 0;
#X connect 47 0 45 0;
#X connect 49 0 50 0;
#X connect 50 0 48 0;
#X connect 51 0 50 1;
#X restore 253 401 pd parse-client-list;
#X obj -99 191 s Menu-mode;
#X obj -32 95 r set-Menu-mode;
#X obj -3 355 s all-clients;
#X msg -3 336 MENU 1;
#X msg 43 336 MENU 0;
#X obj 11 193 sel 1 0;
#N canvas 0 0 1600 849 check 0;
#X obj 380 174 inlet;
#X text 287 161 check one client to see if it still exists. if it doesn't
\, check another.;
#X obj 395 231 r mcl-clients;
#X obj 527 193 inlet;
#X obj 282 282 del 10;
#X obj 527 212 unpack s f;
#X obj 399 212 s mcl;
#X msg 490 448 rem \$1;
#X obj 490 467 s mcl;
#X obj 308 193 r mcl-empty;
#X obj 282 263 spigot 1;
#X msg 327 244 0;
#X msg 355 244 1;
#X obj 435 212 s all-clients;
#X msg 435 193 PING;
#X obj 380 329 l;
#X obj 395 250 list;
#X obj 380 348 list-drip;
#X msg 499 269 set;
#X msg 527 304  od oc ob oa;
#X msg 527 269 add2 \$1;
#X obj 282 301 t b b;
#X obj 476 376 list-find;
#X obj 490 429 symbol;
#X obj 380 367 t a a;
#X obj 527 395 sel 0;
#X obj 380 193 t b b b;
#X obj 527 231 sel --;
#X connect 0 0 26 0;
#X connect 2 0 12 0;
#X connect 2 0 16 0;
#X connect 3 0 5 0;
#X connect 4 0 21 0;
#X connect 5 0 27 0;
#X connect 7 0 8 0;
#X connect 9 0 11 0;
#X connect 10 0 4 0;
#X connect 11 0 10 1;
#X connect 12 0 10 1;
#X connect 14 0 13 0;
#X connect 15 0 17 0;
#X connect 16 0 15 1;
#X connect 17 0 24 0;
#X connect 18 0 19 0;
#X connect 19 0 22 1;
#X connect 20 0 19 0;
#X connect 21 0 15 0;
#X connect 21 1 19 0;
#X connect 22 1 25 0;
#X connect 23 0 7 0;
#X connect 24 0 22 0;
#X connect 24 1 23 1;
#X connect 25 0 23 0;
#X connect 26 0 10 0;
#X connect 26 1 6 0;
#X connect 26 1 14 0;
#X connect 26 2 18 0;
#X connect 27 1 20 0;
#X restore 537 130 pd check;
#X obj 478 242 s mcl-empty;
#X obj 465 100 t a b;
#X obj 11 174 change;
#X obj 235 136 key;
#X obj 190 155 pack s f;
#X obj 163 112 t a a;
#X obj 143 215 sel / Shift_R Shift_L Control_L Control_R;
#X msg 11 255 \; osd Menu-...;
#X msg 30 287 \; osd _;
#X msg 447 303 \; set-Menu-mode 0 \; osd Menu-/;
#X obj 40 59 sel    Menu;
#X connect 0 0 40 0;
#X connect 1 0 5 0;
#X connect 1 0 6 1;
#X connect 1 0 23 0;
#X connect 1 0 32 0;
#X connect 4 0 3 0;
#X connect 5 0 4 1;
#X connect 6 0 36 0;
#X connect 7 0 2 0;
#X connect 8 0 2 0;
#X connect 8 0 39 0;
#X connect 9 0 11 0;
#X connect 10 0 21 0;
#X connect 10 1 15 0;
#X connect 11 0 31 0;
#X connect 11 1 29 1;
#X connect 12 0 10 0;
#X connect 13 0 10 0;
#X connect 14 0 10 0;
#X connect 15 0 30 0;
#X connect 15 1 16 0;
#X connect 17 0 18 0;
#X connect 18 0 22 0;
#X connect 19 0 18 0;
#X connect 19 1 20 0;
#X connect 20 0 18 0;
#X connect 22 0 7 0;
#X connect 24 0 1 0;
#X connect 26 0 25 0;
#X connect 27 0 25 0;
#X connect 28 0 37 0;
#X connect 28 0 17 0;
#X connect 28 0 26 0;
#X connect 28 1 27 0;
#X connect 28 1 38 0;
#X connect 31 0 12 0;
#X connect 31 1 29 0;
#X connect 32 0 28 0;
#X connect 33 0 34 1;
#X connect 34 0 4 0;
#X connect 35 0 6 0;
#X connect 35 1 34 0;
#X connect 36 0 8 0;
#X connect 36 5 19 0;
#X connect 40 0 8 0;
#X connect 40 1 8 0;
#X connect 40 2 8 0;
#X connect 40 3 1 0;
#X connect 40 4 35 0;
#X restore 226 258 pd control-keys;
#N canvas 0 0 1600 849 selection 0;
#X obj 201 331 inlet;
#X obj 126 331 inlet;
#X obj 213 644 s;
#X obj 201 560 list-drip;
#X msg 201 615 key Control_R 0;
#X obj 126 436 t b a;
#X obj 129 560 prepent set;
#X obj 201 586 t b a;
#X obj 201 388 symbol;
#X msg 201 407 add \$1;
#X obj 258 388 symbol;
#X msg 258 407 rem \$1;
#X msg 316 407 clear;
#X obj 237 331 r master-sel;
#X obj 201 364 route sel 1 unsel 0 unselall -1 usa tog;
#X obj 403 388 symbol;
#X msg 316 472 OFF;
#X obj 316 491 s all-clients;
#X obj 400 491 s;
#X msg 415 472 symbol m-\$1;
#X msg 377 521 OFF;
#X msg 405 521 ON;
#X obj 201 491 listman;
#X msg 403 426 tog \$1 \, has \$1;
#X obj 265 521 route float;
#X obj 265 540 sel 0;
#X obj 265 426 t b a;
#X obj 208 426 t b a;
#X msg 278 615 symbol m-\$1;
#X obj 129 541 prepent key;
#X obj 403 407 t a a;
#X connect 0 0 14 0;
#X connect 1 0 5 0;
#X connect 3 0 7 0;
#X connect 4 0 2 0;
#X connect 5 0 22 0;
#X connect 5 1 29 0;
#X connect 6 0 4 0;
#X connect 7 0 4 0;
#X connect 7 1 28 0;
#X connect 8 0 9 0;
#X connect 8 0 27 0;
#X connect 9 0 22 0;
#X connect 10 0 11 0;
#X connect 10 0 26 0;
#X connect 11 0 22 0;
#X connect 12 0 22 0;
#X connect 13 0 14 0;
#X connect 14 0 8 0;
#X connect 14 1 8 0;
#X connect 14 2 10 0;
#X connect 14 3 10 0;
#X connect 14 4 12 0;
#X connect 14 4 16 0;
#X connect 14 5 12 0;
#X connect 14 5 16 0;
#X connect 14 6 12 0;
#X connect 14 6 16 0;
#X connect 14 7 15 0;
#X connect 15 0 30 0;
#X connect 16 0 17 0;
#X connect 19 0 18 1;
#X connect 20 0 18 0;
#X connect 21 0 18 0;
#X connect 22 0 3 0;
#X connect 22 1 24 0;
#X connect 23 0 22 0;
#X connect 24 0 25 0;
#X connect 25 0 20 0;
#X connect 25 1 21 0;
#X connect 26 0 20 0;
#X connect 26 1 19 0;
#X connect 27 0 21 0;
#X connect 27 1 19 0;
#X connect 28 0 2 1;
#X connect 29 0 6 0;
#X connect 30 0 23 0;
#X connect 30 1 19 0;
#X restore 226 293 pd selection;
#X text 236 230 <-- disconnect this if ya'll don't want the keyboard
control.;
#X connect 0 0 1 0;
#X connect 0 1 1 1;
#X connect 1 0 2 0;
#X connect 2 0 3 0;
#X connect 3 0 4 0;
#X connect 4 0 5 0;
#X connect 4 1 5 1;
#X restore 183 298 pd kbd;
#X text 399 87 this is my init patch. it will auto-hide but you can
send a message like "init vis 1" to show it.;
#X text 399 119 this patch loads the wiimote and enables keyboard control
via the Menu-key prefix.;
#X text 399 150 to get wiimote data \, use these receives: nunchucks
\, wiimotea \, nunchuka \, wiimoteir. those are for the nunchuck stick
\, wiimote acceleration \, nunchuk acceleration \, and infrared \,
respectively. for the buttons \, the [wiib] object is recommended.
;
#N canvas 0 0 1600 849 osd 0;
#X obj 271 274 r osd;
#N canvas 750 907 750 -7 OSD-NO-MENU 1;
#X obj 3 2 cnv 15 730 15 empty OSD_CANVAS Menu-/ 0 8 0 14 -1 -262144
0;
#X restore 122 236 pd OSD-NO-MENU;
#X obj 122 284 tot OSD-NO-MENU;
#X msg 122 255 tot destroy .^.m \, tot bind .^.c <Control-Key> "";
#X obj 271 350 s OSD_CANVAS;
#X obj 271 331 prepent label;
#X msg 231 331 label;
#X obj 286 400 tgl 15 0 empty empty empty 17 7 0 10 -262144 -1 -1 0
1;
#X msg 293 432 \; pd-OSD-NO-MENU vis \$1;
#X obj 271 312 l2s;
#X obj 295 293 loadbang;
#X obj 295 312 spacesym;
#X msg 355 333 label_pos 0 8 \, color 22 0 \, vis_size 730 15;
#X obj 355 314 loadbang;
#X text 292 136 osd is 91 characters wide.;
#X connect 0 0 9 0;
#X connect 2 3 3 0;
#X connect 3 0 2 0;
#X connect 5 0 4 0;
#X connect 6 0 4 0;
#X connect 7 0 8 0;
#X connect 9 0 5 0;
#X connect 10 0 6 0;
#X connect 10 0 11 0;
#X connect 11 0 9 1;
#X connect 12 0 4 0;
#X connect 13 0 12 0;
#X restore 183 357 pd osd;
#X text 134 333 ----- OSD Section -----;
#N canvas 0 29 1600 849 showhide 0;
#X obj 70 64 inlet;
#X obj 106 64 loadbang;
#X msg 106 117 vis 0;
#X obj 160 64 r init;
#X obj 199 196 s initpatch;
#X msg 199 115 vis 1;
#X obj 160 83 route hide show view;
#X connect 0 0 2 0;
#X connect 1 0 2 0;
#X connect 2 0 4 0;
#X connect 3 0 6 0;
#X connect 5 0 4 0;
#X connect 6 0 2 0;
#X connect 6 1 5 0;
#X connect 6 2 5 0;
#X connect 6 3 4 0;
#X restore 183 124 pd showhide;
#X connect 1 0 0 0;
#X connect 4 0 15 0;
#X connect 5 0 0 0;
#X connect 6 0 0 0;
