#N canvas 0 0 800 849 10;
#X obj 137 82 inlet;
#X obj 137 351 kline~;
#X obj 137 302 mtof;
#X obj 137 370 outlet~;
#X obj 185 283 lb \$1 1000;
#X obj 277 266 inlet;
#X obj 304 308 delta;
#X obj 277 285 t f f;
#X obj 268 308 sel 1;
#X obj 289 331 f;
#X obj 289 350 sel 1;
#X obj 170 321 spigot 1;
#X msg 250 396 0;
#X msg 247 350 1;
#X text 286 97 porta~ - poramento. first argument is how long in milliseconds
it takes to move from one note to another. accepts midi numbers as
input.;
#X obj 137 120 t f b;
#X obj 170 302 f;
#X text 287 134 you can connect a [mono] to the inlets of rporta~ for
convenience.;
#X obj 137 101 route float time list;
#X obj 219 120 unpack f f;
#X obj 276 157 sel 0;
#X obj 303 176 bang;
#X obj 219 199 spigot;
#X msg 231 162 0;
#X msg 261 184 1;
#X connect 0 0 18 0;
#X connect 1 0 3 0;
#X connect 2 0 1 0;
#X connect 4 0 16 1;
#X connect 5 0 7 0;
#X connect 6 0 9 1;
#X connect 7 0 8 0;
#X connect 7 1 6 0;
#X connect 8 0 9 0;
#X connect 8 1 13 0;
#X connect 9 0 10 0;
#X connect 10 0 12 0;
#X connect 10 1 13 0;
#X connect 11 0 1 1;
#X connect 12 0 1 1;
#X connect 12 0 11 1;
#X connect 13 0 11 1;
#X connect 15 0 2 0;
#X connect 15 1 16 0;
#X connect 16 0 11 0;
#X connect 18 0 15 0;
#X connect 18 1 4 0;
#X connect 18 2 19 0;
#X connect 19 0 22 0;
#X connect 19 1 20 0;
#X connect 20 0 12 0;
#X connect 20 0 23 0;
#X connect 20 1 21 0;
#X connect 21 0 13 0;
#X connect 21 0 24 0;
#X connect 22 0 15 0;
#X connect 23 0 22 1;
#X connect 24 0 22 1;
