#N canvas 0 0 800 848 10;
#X obj 40 40 inlet;
#X obj 34 152 tabwrite \$1;
#X obj 40 59 route list;
#X obj 76 40 r qt-\$1;
#X obj 40 78 unpack f f;
#X connect 0 0 2 0;
#X connect 2 0 4 0;
#X connect 2 1 1 0;
#X connect 3 0 2 0;
#X connect 4 0 1 1;
#X connect 4 1 1 0;
