#N canvas 0 0 1600 871 10;
#X obj 470 306 t b b;
#X obj 462 331 realtime;
#X floatatom 462 350 5 0 0 0 - - -;
#X obj 462 387 int;
#X obj 462 406 * 10;
#X floatatom 462 436 5 0 0 0 - - -;
#X obj 462 368 / 10;
#X obj 548 262 inlet;
#X obj 462 454 outlet;
#X text 595 332 quantizable timer;
#X floatatom 502 371 5 0 0 0 - - -;
#X obj 548 281 route bang quan float start;
#X obj 667 300 bng 15 250 50 0 empty empty empty 17 7 0 10 -262144
-1 -1;
#X obj 546 231 lb \$1 10;
#X connect 0 0 1 0;
#X connect 0 1 1 1;
#X connect 1 0 2 0;
#X connect 2 0 6 0;
#X connect 3 0 4 0;
#X connect 4 0 5 0;
#X connect 5 0 8 0;
#X connect 6 0 3 0;
#X connect 7 0 11 0;
#X connect 10 0 6 1;
#X connect 10 0 4 1;
#X connect 11 0 0 0;
#X connect 11 1 10 0;
#X connect 11 2 10 0;
#X connect 11 3 12 0;
#X connect 12 0 1 0;
#X connect 13 0 10 0;
