#N canvas 0 0 800 849 10;
#X obj 49 338 list split 1;
#X obj 102 374 list-splat -1;
#X obj 76 412 list append;
#X obj 13 431 list append;
#X msg 139 393 \$1";
#X msg 49 378 "\$1;
#X obj 104 234 t a a;
#X obj 201 273 list length;
#X obj 201 292 > 1;
#X obj 49 319 spigot;
#X obj 209 349 spigot;
#X msg 209 387 "\$1";
#X obj 242 330 kinv;
#X obj 209 368 symbol;
#X obj 46 463 list trim;
#X obj 104 215 inlet;
#X obj 113 500 outlet;
#X connect 0 0 5 0;
#X connect 0 1 1 0;
#X connect 1 0 2 0;
#X connect 1 1 4 0;
#X connect 2 0 3 1;
#X connect 3 0 14 0;
#X connect 4 0 2 1;
#X connect 5 0 3 0;
#X connect 6 0 9 0;
#X connect 6 0 10 0;
#X connect 6 1 7 0;
#X connect 7 0 8 0;
#X connect 8 0 9 1;
#X connect 8 0 12 0;
#X connect 9 0 0 0;
#X connect 10 0 13 0;
#X connect 11 0 16 0;
#X connect 12 0 10 1;
#X connect 13 0 11 0;
#X connect 14 0 16 0;
#X connect 15 0 6 0;
