#N canvas 0 0 800 849 10;
#X obj 146 -3 inlet;
#X obj 217 159 -;
#X obj 146 40 route float top bottom;
#X obj 275 97 unpack f f;
#X obj 275 78 s2l ';
#X obj 217 127 t b f;
#X obj 217 178 expr (127/$f1);
#X obj 123 233 *;
#X obj 123 252 outlet;
#X obj 123 176 -;
#X text 336 69 rangem - range to midi (does not yet accept creation
arguments);
#X obj 166 -61 dollarg;
#X msg 185 6 top \$1;
#X obj 205 -42 sel 1 2;
#X obj 185 -13 f \$1;
#X obj 166 -80 loadbang;
#X obj 252 7 symbol \$1'\$2;
#X obj 275 59 symbol;
#X connect 0 0 2 0;
#X connect 1 0 6 0;
#X connect 2 0 9 0;
#X connect 2 1 1 0;
#X connect 2 2 5 0;
#X connect 2 3 17 0;
#X connect 3 0 5 0;
#X connect 3 1 1 0;
#X connect 4 0 3 0;
#X connect 5 0 1 0;
#X connect 5 1 1 1;
#X connect 5 1 9 1;
#X connect 6 0 7 1;
#X connect 7 0 8 0;
#X connect 9 0 7 0;
#X connect 11 1 13 0;
#X connect 12 0 2 0;
#X connect 13 0 14 0;
#X connect 13 1 16 0;
#X connect 14 0 12 0;
#X connect 15 0 11 0;
#X connect 16 0 2 0;
#X connect 17 0 4 0;
