#N canvas 421 296 450 300 10;
#X obj 140 8 inlet;
#X obj 157 84 list length;
#X obj 124 103 random;
#X obj 124 86 bng 15 250 50 0 empty empty empty 17 7 0 10 -262144 -1
-1;
#X obj 91 141 outlet;
#X obj 91 122 lindex;
#X connect 0 0 1 0;
#X connect 0 0 3 0;
#X connect 0 0 5 0;
#X connect 1 0 2 1;
#X connect 2 0 5 1;
#X connect 3 0 2 0;
#X connect 5 0 4 0;
