#N canvas 606 289 450 300 10;
#X obj 79 6 inlet;
#X obj 132 150 +;
#X obj 169 129 -;
#X obj 240 107 / 2;
#X msg 222 134 bang;
#X obj 108 221 outlet;
#X obj 79 25 route bang hover number range variation;
#X obj 113 125 float \$1;
#X obj 169 106 random \$2;
#X connect 0 0 6 0;
#X connect 1 0 4 0;
#X connect 1 0 5 0;
#X connect 2 0 1 1;
#X connect 3 0 2 1;
#X connect 4 0 8 0;
#X connect 6 0 7 0;
#X connect 6 1 7 1;
#X connect 6 2 7 1;
#X connect 6 3 3 0;
#X connect 6 3 8 1;
#X connect 6 4 3 0;
#X connect 6 4 8 1;
#X connect 7 0 1 0;
#X connect 8 0 2 0;
