#N canvas 0 29 800 849 10;
#X obj 137 80 inlet;
#X obj 170 145 -;
#X obj 170 164 abs;
#X obj 170 183 / 12;
#X obj 137 99 t f f f;
#X obj 137 202 mtof;
#X obj 137 270 outlet~;
#X obj 211 185 lb \$1 1000;
#X obj 170 202 *;
#X text 206 77 rporta~ - relative poramento. first argument is how
long in milliseconds it takes to move from one note to a note one octave
away from it. accepts midi numbers as input.;
#X obj 277 166 inlet;
#X text 206 115 you can connect a [mono] to the inlets of rporta~ for
convenience.;
#X obj 304 208 delta;
#X obj 277 185 t f f;
#X obj 268 208 sel 1;
#X obj 289 231 f;
#X obj 289 250 sel 1;
#X obj 170 221 spigot 1;
#X msg 250 296 0;
#X msg 247 250 1;
#X obj 137 251 aline~;
#X connect 0 0 4 0;
#X connect 1 0 2 0;
#X connect 2 0 3 0;
#X connect 3 0 8 0;
#X connect 4 0 5 0;
#X connect 4 1 1 1;
#X connect 4 2 1 0;
#X connect 5 0 20 0;
#X connect 7 0 8 1;
#X connect 8 0 17 0;
#X connect 10 0 13 0;
#X connect 12 0 15 1;
#X connect 13 0 14 0;
#X connect 13 1 12 0;
#X connect 14 0 15 0;
#X connect 14 1 19 0;
#X connect 15 0 16 0;
#X connect 16 0 18 0;
#X connect 16 1 19 0;
#X connect 17 0 20 1;
#X connect 18 0 17 1;
#X connect 18 0 20 1;
#X connect 19 0 17 1;
#X connect 20 0 6 0;
