#N canvas 550 121 800 870 10;
#X obj 91 216 random;
#X obj 231 170 - \$1;
#X obj 240 103 loadbang;
#X obj 240 123 int \$2;
#X obj 158 232 + \$1;
#X obj 178 256 outlet;
#X obj 29 33 inlet;
#X obj 231 191 + 1;
#X msg 180 162 bang;
#X obj 29 54 route bang bottom top min max list;
#X obj 303 -15 unpack f f;
#X msg 301 7 bottom \$1;
#X msg 365 7 top \$1;
#X connect 0 0 4 0;
#X connect 1 0 7 0;
#X connect 2 0 3 0;
#X connect 3 0 1 0;
#X connect 4 0 5 0;
#X connect 6 0 9 0;
#X connect 7 0 0 1;
#X connect 8 0 3 0;
#X connect 9 0 0 0;
#X connect 9 1 1 1;
#X connect 9 1 4 1;
#X connect 9 1 8 0;
#X connect 9 2 3 0;
#X connect 9 2 8 0;
#X connect 9 3 1 1;
#X connect 9 3 8 0;
#X connect 9 4 3 0;
#X connect 9 4 8 0;
#X connect 9 5 10 0;
#X connect 10 0 11 0;
#X connect 10 1 12 0;
#X connect 11 0 9 0;
#X connect 12 0 9 0;
