#N canvas 550 121 450 416 10;
#X obj 91 216 random;
#X obj 231 170 - \$1;
#X obj 240 103 loadbang;
#X obj 240 123 int \$2;
#X obj 158 232 + \$1;
#X obj 178 256 outlet;
#X obj 29 63 inlet;
#X obj 29 84 route bang bottom top min max;
#X obj 231 191 + 1;
#X msg 180 162 bang;
#X connect 0 0 4 0;
#X connect 1 0 8 0;
#X connect 2 0 3 0;
#X connect 3 0 1 0;
#X connect 4 0 5 0;
#X connect 6 0 7 0;
#X connect 7 0 0 0;
#X connect 7 1 1 1;
#X connect 7 1 4 1;
#X connect 7 1 9 0;
#X connect 7 2 3 0;
#X connect 7 2 9 0;
#X connect 7 3 1 1;
#X connect 7 3 9 0;
#X connect 7 4 3 0;
#X connect 7 4 9 0;
#X connect 8 0 0 1;
#X connect 9 0 3 0;
