#N canvas 0 0 1600 849 10;
#X obj 504 199 inlet;
#X obj 540 199 inlet;
#X obj 589 199 inlet;
#X obj 540 180 lb \$1;
#X obj 589 180 lb \$2;
#X obj 638 199 inlet;
#X obj 687 199 inlet;
#X obj 638 180 lb \$3;
#X obj 687 180 lb \$4;
#X obj 542 343 outlet;
#X obj 557 267 -;
#X obj 589 218 f;
#X obj 540 218 f;
#X obj 542 286 / 0;
#X obj 655 267 -;
#X obj 542 305 * 0;
#X obj 542 324 + 0;
#X obj 504 266 +;
#X obj 519 247 * -1;
#X obj 638 218 f;
#X obj 687 218 f;
#X text 183 235 rtr (range to range): scale a stream of numbers from
a known range to a different range.;
#X connect 0 0 17 0;
#X connect 1 0 12 0;
#X connect 2 0 11 0;
#X connect 3 0 12 0;
#X connect 4 0 11 0;
#X connect 5 0 19 0;
#X connect 6 0 20 0;
#X connect 7 0 19 0;
#X connect 8 0 20 0;
#X connect 10 0 13 1;
#X connect 11 0 10 0;
#X connect 12 0 10 1;
#X connect 12 0 18 0;
#X connect 13 0 15 0;
#X connect 14 0 15 1;
#X connect 15 0 16 0;
#X connect 16 0 9 0;
#X connect 17 0 13 0;
#X connect 18 0 17 1;
#X connect 19 0 14 1;
#X connect 19 0 16 1;
#X connect 20 0 14 0;
