#N canvas 573 101 855 601 10;
#X obj 121 184 route 0 1;
#X obj 3 27 hsl 55 13 0 1 0 1 empty empty pan -1 8 0 10 -262144 -1
-1 2376 1;
#X obj 20 53 bng 10 50 50 0 empty empty p 12 5 0 10 -262144 -1 -1;
#X obj 324 196 r \$0-v;
#X obj 287 135 r \$0-mute;
#X obj 0 53 tgl 10 1 \$0-mute empty v 12 5 0 10 -262144 -1 -1 1 1;
#X msg 58 263 color 13 12 12;
#X msg 152 263 color 0 12 12;
#X obj 260 16 inlet~;
#X obj 302 16 inlet~;
#X obj 261 76 *~ 1;
#X obj 193 80 - 1;
#X obj 193 100 abs;
#X obj -122 177 - 1;
#X obj -122 197 abs;
#X floatatom 40 0 3 0 999 0 - - -;
#X obj 40 53 bng 10 250 50 0 empty empty s 12 5 0 10 -262144 -1 -1
;
#X obj 3 40 hsl 55 13 0 1 0 0 empty empty switch -1 8 0 10 -262144
-1 -1 0 1;
#X obj 6 159 * 10;
#X obj 3 14 hsl 55 13 0 1 0 0 \$0-v empty volume -1 8 0 10 -262144
-33289 -33289 2592 1;
#X obj 344 16 inlet;
#X obj 386 -81 route pan vol volume switch;
#X obj 40 -40 loadbang;
#X msg 40 -20 200;
#X obj 380 16 inlet~;
#X obj 422 16 inlet~;
#X obj 324 75 *~ 1;
#X obj 375 74 *~ 0;
#X obj 405 74 *~ 0;
#X obj 256 352 outlet~;
#X obj 338 347 outlet~;
#X obj 251 228 kinv;
#X msg 130 11 0.5;
#X obj 268 258 *~ 0.5;
#X obj 366 262 *~ 0.5;
#X obj 391 226 *~ 0;
#X obj 269 179 *~ 1;
#X obj 369 181 *~ 1;
#X obj 289 224 *~ 0;
#X obj -122 157 f 0;
#X obj -50 240 line;
#X obj -50 185 pack 0 2000;
#X connect 0 0 6 0;
#X connect 0 1 7 0;
#X connect 1 0 31 0;
#X connect 1 0 34 1;
#X connect 2 0 32 0;
#X connect 3 0 38 1;
#X connect 3 0 35 1;
#X connect 4 0 0 0;
#X connect 4 0 36 1;
#X connect 4 0 37 1;
#X connect 6 0 19 0;
#X connect 7 0 19 0;
#X connect 8 0 10 0;
#X connect 9 0 26 0;
#X connect 10 0 36 0;
#X connect 11 0 12 0;
#X connect 12 0 10 1;
#X connect 12 0 26 1;
#X connect 13 0 14 0;
#X connect 14 0 41 0;
#X connect 15 0 18 0;
#X connect 16 0 39 0;
#X connect 17 0 11 0;
#X connect 17 0 39 1;
#X connect 17 0 27 1;
#X connect 17 0 28 1;
#X connect 18 0 41 1;
#X connect 20 0 21 0;
#X connect 21 0 1 0;
#X connect 21 1 19 0;
#X connect 21 2 19 0;
#X connect 21 3 17 0;
#X connect 22 0 23 0;
#X connect 23 0 15 0;
#X connect 24 0 27 0;
#X connect 25 0 28 0;
#X connect 26 0 37 0;
#X connect 27 0 36 0;
#X connect 28 0 37 0;
#X connect 31 0 33 1;
#X connect 32 0 1 0;
#X connect 33 0 29 0;
#X connect 34 0 30 0;
#X connect 35 0 34 0;
#X connect 36 0 38 0;
#X connect 37 0 35 0;
#X connect 38 0 33 0;
#X connect 39 0 13 0;
#X connect 40 0 17 0;
#X connect 41 0 40 0;
#X coords 0 -1 1 1 60 63 1 0 0;
