#N canvas 0 0 800 870 10;
#X obj 290 89 inlet;
#X obj 290 240 outlet~;
#X obj 290 218 line~;
#X obj 326 89 inlet;
#X obj 362 89 inlet;
#X obj 290 172 pack f 0 1;
#X obj 290 149 *;
#X obj 220 116 route float time;
#X msg 290 196 \$2 \, \$3 \$1;
#X connect 0 0 7 0;
#X connect 2 0 1 0;
#X connect 3 0 5 1;
#X connect 4 0 5 2;
#X connect 5 0 8 0;
#X connect 6 0 5 0;
#X connect 7 0 6 0;
#X connect 7 1 6 1;
#X connect 8 0 2 0;
