#N canvas 0 0 1600 849 10;
#X obj 237 386 outlet;
#X msg 279 327 open \$1;
#X obj 361 47 tgl 15 0 empty empty bang -21 8 0 9 -262144 -1 -1 0 1
;
#X obj 237 276 t b a;
#X obj 237 327 spigot;
#X obj 222 62 browser;
#X msg 108 245 folder \$1;
#X obj 108 226 symbol;
#X obj 108 207 route folder file;
#X msg 433 45 folder ~/;
#X obj 376 47 bng 15 250 50 0 empty empty ~ 4 7 0 10 -262144 -1 -1
;
#X obj 391 47 bng 15 250 50 0 empty empty snd 0 7 0 8 -262144 -1 -1
;
#X obj 406 47 bng 15 250 50 0 empty empty sou 0 7 0 8 -262144 -1 -1
;
#X msg 497 45 folder ~/snd/;
#X msg 586 45 folder ~/misc/sounds/;
#X msg 222 28 extensions wav;
#X obj 222 9 loadbang;
#X obj 279 308 symbol;
#X connect 1 0 0 0;
#X connect 2 0 4 1;
#X connect 3 0 4 0;
#X connect 3 1 17 0;
#X connect 4 0 0 0;
#X connect 5 0 8 0;
#X connect 6 0 5 0;
#X connect 7 0 6 0;
#X connect 8 0 7 0;
#X connect 8 1 3 0;
#X connect 9 0 5 0;
#X connect 10 0 9 0;
#X connect 11 0 13 0;
#X connect 12 0 14 0;
#X connect 13 0 5 0;
#X connect 14 0 5 0;
#X connect 15 0 5 0;
#X connect 16 0 15 0;
#X connect 17 0 1 0;
#X coords 0 -1 1 1 200 153 1 221 47;
