#N canvas 0 0 800 835 10;
#X obj 394 36 / 100;
#X obj 257 195 *~ 1;
#X obj 441 184 route 0 1;
#X obj 3 27 hsl 55 13 -45 45 0 1 \$0-p \$0-pans pan -1 8 0 10 -250685
-1 -1 2700 1;
#X obj 20 53 bng 10 50 50 0 empty empty p 12 5 0 10 -262144 -1 -1;
#X obj 394 17 r \$0-v;
#X obj 424 162 r \$0-mute;
#X obj 0 53 tgl 10 1 \$0-mute \$0-muteb v 12 5 0 10 -262144 -1 -1 1
1;
#X obj 200 10 inlet~;
#X obj 199 86 *~ 1;
#X floatatom 34 0 4 0 0 0 - - -;
#X obj 40 53 bng 10 250 50 0 empty empty s 12 5 0 10 -262144 -1 -1
;
#X obj 3 40 hsl 55 13 0 1 0 0 \$0-s \$0-swis switch -1 8 0 10 -4032
-1 -1 0 1;
#X obj 3 14 hsl 55 13 0 100 0 0 \$0-v \$0-vols volume -1 8 0 10 -24198
-1 -1 0 1;
#X obj 299 -141 inlet;
#X obj 294 392 outlet~;
#X obj 344 392 outlet~;
#X obj 307 371 dac~;
#X msg -4 -38 bang;
#X msg 34 -19 set \$1;
#X obj 297 320 pan~;
#X msg 487 -39 bang;
#X obj 511 140 line;
#X obj 579 170 min 100;
#X obj 510 84 f;
#X msg 511 104 set \$1;
#X obj 680 64 pack 0 2000;
#X msg 378 204 color 13 22 22;
#X msg 471 204 color 16 22 22;
#X obj 253 -90 lb \$1;
#X obj 508 -74 / 1.27;
#X obj 264 57 kinv;
#X obj 107 -183 block~ 64;
#X obj 609 7 f 0;
#X obj 609 27 kinv;
#X obj 680 90 line;
#X obj 424 -58 route float;
#X obj 394 75 *;
#X obj 394 55 t f f;
#X obj 256 130 *~;
#X obj 575 82 mrange;
#X obj 299 -117 route pan vol volume switch mute time mvol mvolume
mswitch bang;
#X obj 394 94 kline~ 50;
#X obj -71 -196 m-client out;
#X msg -99 -69 color 19 22 22;
#X msg -153 -92 color 18 22 22;
#X obj -71 -177 route ping unfocus num;
#X obj -36 -93 loadbang;
#X obj 34 -38 f;
#X obj 71 -125 mrange 90;
#X obj 71 -106 - 45;
#X obj 115 -43 sel 127;
#X obj 77 -160 route 4 5 6 9;
#X msg 151 -73 mswitch \$1;
#X obj 472 30 t a b;
#X obj 579 257 s \$0-vols;
#X obj 646 125 s \$0-swis;
#X obj 318 271 r \$0-p;
#X obj 281 -66 s \$0-pans;
#X obj 435 -80 s \$0-muteb;
#X msg 20 84 \; \$1-pans 0;
#X obj 20 65 f \$0;
#X obj -99 -32 s \$0-pans;
#X obj 264 32 r \$0-s;
#X obj 655 -19 r \$0-s;
#X obj 242 10 inlet~;
#X obj 241 86 *~ 1;
#X obj 310 10 inlet~;
#X obj 309 86 *~ 0;
#X obj 352 10 inlet~;
#X obj 351 86 *~ 0;
#X obj 326 130 *~;
#X obj 327 195 *~ 1;
#X obj 327 320 pan~;
#X connect 0 0 38 0;
#X connect 1 0 20 0;
#X connect 2 0 27 0;
#X connect 2 1 28 0;
#X connect 4 0 61 0;
#X connect 5 0 24 1;
#X connect 5 0 0 0;
#X connect 6 0 1 1;
#X connect 6 0 2 0;
#X connect 6 0 72 1;
#X connect 8 0 9 0;
#X connect 9 0 39 0;
#X connect 10 0 18 0;
#X connect 11 0 33 0;
#X connect 14 0 41 0;
#X connect 18 0 48 0;
#X connect 19 0 10 0;
#X connect 20 0 15 0;
#X connect 20 0 17 0;
#X connect 21 0 11 0;
#X connect 22 0 23 0;
#X connect 23 0 55 0;
#X connect 24 0 25 0;
#X connect 25 0 22 0;
#X connect 26 0 35 0;
#X connect 27 0 55 0;
#X connect 28 0 55 0;
#X connect 29 0 58 0;
#X connect 30 0 23 0;
#X connect 31 0 9 1;
#X connect 31 0 66 1;
#X connect 33 0 34 0;
#X connect 34 0 26 0;
#X connect 35 0 56 0;
#X connect 36 0 26 0;
#X connect 36 1 21 0;
#X connect 37 0 42 0;
#X connect 38 0 37 0;
#X connect 38 1 37 1;
#X connect 39 0 1 0;
#X connect 40 0 56 0;
#X connect 41 0 58 0;
#X connect 41 1 54 0;
#X connect 41 2 54 0;
#X connect 41 3 36 0;
#X connect 41 4 59 0;
#X connect 41 5 26 1;
#X connect 41 6 30 0;
#X connect 41 7 30 0;
#X connect 41 8 40 0;
#X connect 41 9 33 0;
#X connect 42 0 39 1;
#X connect 42 0 71 1;
#X connect 43 0 46 0;
#X connect 44 0 62 0;
#X connect 45 0 62 0;
#X connect 46 0 45 0;
#X connect 46 1 44 0;
#X connect 46 2 48 0;
#X connect 46 3 52 0;
#X connect 47 0 44 0;
#X connect 48 0 19 0;
#X connect 49 0 50 0;
#X connect 50 0 62 0;
#X connect 51 0 4 0;
#X connect 52 0 30 0;
#X connect 52 1 49 0;
#X connect 52 2 51 0;
#X connect 52 3 41 0;
#X connect 52 3 53 0;
#X connect 52 4 41 0;
#X connect 53 0 41 0;
#X connect 54 0 22 0;
#X connect 54 1 24 0;
#X connect 57 0 20 1;
#X connect 57 0 73 1;
#X connect 61 0 60 0;
#X connect 63 0 31 0;
#X connect 63 0 68 1;
#X connect 63 0 70 1;
#X connect 64 0 33 1;
#X connect 65 0 66 0;
#X connect 66 0 71 0;
#X connect 67 0 68 0;
#X connect 68 0 39 0;
#X connect 69 0 70 0;
#X connect 70 0 71 0;
#X connect 71 0 72 0;
#X connect 72 0 73 0;
#X connect 73 1 16 0;
#X connect 73 1 17 1;
#X coords 0 -1 1 1 60 63 1 0 0;
