#N canvas 0 0 1600 870 10;
#X obj 329 148 *~ 0;
#X obj 374 122 / 100;
#X obj 297 195 *~ 1;
#X obj 121 184 route 0 1;
#X msg 65 20 0;
#X obj 3 27 hsl 55 13 -45 45 0 1 empty empty pan -1 8 0 10 -4160 -1
-1 2700 1;
#X obj 20 53 bng 10 50 50 0 empty empty p 12 5 0 10 -262144 -1 -1;
#X obj 414 104 r \$0-v;
#X obj 363 151 r \$0-mute;
#X obj 0 53 tgl 10 1 \$0-mute empty v 12 5 0 10 -262144 -1 -1 1 1;
#X obj 204 11 inlet~;
#X obj 366 8 inlet~;
#X obj 356 92 *~ 0;
#X floatatom 34 0 4 0 0 0 - - -;
#X obj 40 53 bng 10 250 50 0 empty empty s 12 5 0 10 -262144 -1 -1
;
#X obj 3 40 hsl 55 13 0 1 0 0 empty empty switch -1 8 0 10 -4032 -1
-1 0 1;
#X obj -50 240 line 1 5;
#X obj 3 14 hsl 55 13 0 100 0 0 \$0-v empty volume -1 8 0 10 -24198
-1 -1 5400 1;
#X obj 288 -67 inlet;
#X obj 288 396 outlet~;
#X obj 338 396 outlet~;
#X obj 301 375 dac~;
#X obj 382 -68 r \$0-out;
#X obj 34 -57 loadbang;
#X msg -4 -38 bang;
#X msg 34 -19 set \$1;
#X obj 34 -38 f \$0;
#X obj 299 320 pan~;
#X obj 511 165 line;
#X obj 436 169 min 100;
#X obj 462 346 f;
#X msg 458 324 bang;
#X msg 463 366 set \$1;
#X obj -50 214 pack 0 2000;
#X msg 58 264 color 13 22 22;
#X msg 152 263 color 16 22 22;
#X obj -41 5 lb \$1;
#X obj 382 -43 route pan vol volume switch mute time mvol mvolume;
#X obj 588 -14 / 1.27;
#X obj 247 12 inlet~;
#X obj 323 8 inlet~;
#X obj 241 72 *~ 1;
#X obj 203 70 *~ 1;
#X obj 223 47 kinv;
#X obj 321 94 *~ 0;
#X obj 345 310 pan~;
#X obj 255 196 *~ 1;
#X obj 260 146 *~ 0;
#X obj -122 157 f 0;
#X obj -122 177 kinv;
#X connect 0 0 2 0;
#X connect 1 0 0 1;
#X connect 1 0 47 1;
#X connect 2 0 45 0;
#X connect 3 0 34 0;
#X connect 3 1 35 0;
#X connect 4 0 5 0;
#X connect 5 0 27 1;
#X connect 5 0 45 1;
#X connect 6 0 4 0;
#X connect 7 0 1 0;
#X connect 7 0 30 1;
#X connect 8 0 2 1;
#X connect 8 0 3 0;
#X connect 8 0 46 1;
#X connect 10 0 42 0;
#X connect 11 0 12 0;
#X connect 12 0 0 0;
#X connect 13 0 24 0;
#X connect 14 0 48 0;
#X connect 15 0 43 0;
#X connect 15 0 44 1;
#X connect 15 0 12 1;
#X connect 15 0 48 1;
#X connect 16 0 15 0;
#X connect 18 0 37 0;
#X connect 22 0 37 0;
#X connect 23 0 26 0;
#X connect 24 0 26 0;
#X connect 25 0 13 0;
#X connect 26 0 25 0;
#X connect 27 0 19 0;
#X connect 27 0 21 0;
#X connect 28 0 29 0;
#X connect 29 0 17 0;
#X connect 30 0 32 0;
#X connect 31 0 30 0;
#X connect 32 0 28 0;
#X connect 33 0 16 0;
#X connect 34 0 17 0;
#X connect 35 0 17 0;
#X connect 36 0 5 0;
#X connect 37 0 5 0;
#X connect 37 1 31 0;
#X connect 37 1 28 0;
#X connect 37 2 31 0;
#X connect 37 2 28 0;
#X connect 37 3 15 0;
#X connect 37 4 9 0;
#X connect 37 5 33 1;
#X connect 37 6 38 0;
#X connect 37 7 38 0;
#X connect 38 0 17 0;
#X connect 39 0 41 0;
#X connect 40 0 44 0;
#X connect 41 0 0 0;
#X connect 42 0 47 0;
#X connect 43 0 42 1;
#X connect 43 0 41 1;
#X connect 44 0 47 0;
#X connect 45 1 20 0;
#X connect 45 1 21 1;
#X connect 46 0 27 0;
#X connect 47 0 46 0;
#X connect 48 0 49 0;
#X connect 49 0 33 0;
#X coords 0 -1 1 1 60 63 1 0 0;
