#N canvas 1920 30 1920 1050 10;
#X obj 240 246 inlet~;
#X obj 297 246 inlet~;
#X obj 262 9 inlet;
#X obj 103 245 hsl 55 13 0 127 0 0 \$0-v \$0-vols volume -1 8 0 10
-24198 -1 -1 0 1;
#X obj 294 452 outlet~;
#X obj 344 452 outlet~;
#X obj 303 431 dac~;
#X obj 324 360 *~;
#X obj 294 360 *~;
#X obj 137 232 vsl 8 10 0 100 0 0 \$0-ms \$0-mr empty 0 -9 0 10 -262144
-66577 -262144 758 1;
#X obj 374 123 r \$0-v;
#X obj 374 255 / 127;
#X obj 374 308 *~;
#X obj 262 188 s \$0-vols;
#X obj 262 148 line;
#X obj 262 168 min 127;
#X obj 262 96 t a b;
#X obj 289 116 f;
#X obj 240 266 hip~ 5;
#X obj 297 266 hip~ 5;
#X obj 294 398 *~ 1;
#X obj 324 398 *~ 1;
#N canvas 1920 30 1920 1050 mute 0;
#X obj 507 274 route 0 1;
#X msg 444 294 color 13 22 22;
#X msg 537 294 color 16 22 22;
#X obj 515 327 s \$0-vols;
#X obj 449 212 sel 0;
#X msg 433 235 0;
#X msg 480 235 1;
#X obj 407 367 outlet;
#X obj 449 192 tgl 15 0 empty empty empty 17 7 0 10 -262144 -1 -1 1
1;
#X obj 356 153 lb 1;
#X obj 449 173 r \$0-mutes;
#X connect 0 0 1 0;
#X connect 0 1 2 0;
#X connect 1 0 3 0;
#X connect 2 0 3 0;
#X connect 4 0 5 0;
#X connect 4 1 6 0;
#X connect 5 0 0 0;
#X connect 5 0 7 0;
#X connect 6 0 0 0;
#X connect 6 0 7 0;
#X connect 8 0 4 0;
#X connect 9 0 8 0;
#X connect 10 0 8 0;
#X restore 359 366 pd mute;
#X obj 304 9 r out;
#X obj 332 98 s \$0-mute;
#X obj 340 9 r o;
#X obj 364 9 r \$0-o;
#X text 453 140 the o~ and so~ objects reserve the Menu-o key-combination.
when you press Menu-o \, you will also have to type another key to
select the individual instance \, or press enter to select them all.
;
#X obj 128 230 tgl 9 0 \$0-mutes \$0-mute empty 17 7 0 10 -262144 -1
-1 1 1;
#X obj 339 74 lb 1;
#X text 452 206 keys: when the o~ or so~ object is selected \, the
number keys change the volume (leftmost (1) is 0% volume while rightmost
(0) is 100% volume). qwer change the speed of keyboard volume changes
(q is the slowest speed \, r is the fastest). t toggles muting.;
#X obj 262 50 route vol mvol mute bang;
#N canvas 1920 30 1920 1050 box 0;
#X obj 89 34 route name ON OFF MENU key;
#X msg 89 136 label \$1;
#X obj 89 117 symbol;
#X obj 98 192 pack f f;
#X msg 98 211 color \$1 0 \$2;
#X msg 119 85 18;
#X msg 150 85 0;
#X obj 156 145 sel 18 0;
#X obj 156 126 f;
#X obj 180 85 sel 0 1;
#X msg 199 104 13;
#X msg 178 164 18;
#X msg 156 164 0;
#X obj 180 53 t b f;
#X obj 89 237 s \$0-mc_tgl;
#X obj 550 246 outlet;
#X obj 259 128 unpack s f;
#X obj 316 147 keyrow;
#X obj 316 166 expr ($f1/9)*127;
#X obj 259 185 sel q w e r t;
#X msg 218 226 30000;
#X msg 258 226 10000;
#X msg 297 226 5000;
#X msg 331 226 1000;
#X obj 11 15 r \$0-mc_tgls;
#X msg 293 307 vol \$1 \$2;
#X msg 365 226 mute;
#X obj 293 288 pack f 1000;
#X msg 435 81 set \$1;
#X obj 89 15 mc o;
#X obj 435 100 receive13;
#X connect 0 0 2 0;
#X connect 0 1 5 0;
#X connect 0 2 6 0;
#X connect 0 3 13 0;
#X connect 0 4 16 0;
#X connect 0 5 15 0;
#X connect 1 0 14 0;
#X connect 2 0 1 0;
#X connect 2 0 28 0;
#X connect 3 0 4 0;
#X connect 4 0 14 0;
#X connect 5 0 3 0;
#X connect 5 0 8 1;
#X connect 6 0 3 0;
#X connect 6 0 8 1;
#X connect 7 0 12 0;
#X connect 7 1 11 0;
#X connect 8 0 7 0;
#X connect 9 0 8 0;
#X connect 9 1 10 0;
#X connect 10 0 3 1;
#X connect 11 0 3 1;
#X connect 12 0 3 1;
#X connect 13 0 3 0;
#X connect 13 1 9 0;
#X connect 16 0 19 0;
#X connect 16 1 17 0;
#X connect 17 0 18 0;
#X connect 18 0 27 0;
#X connect 19 0 20 0;
#X connect 19 1 21 0;
#X connect 19 2 22 0;
#X connect 19 3 23 0;
#X connect 19 4 26 0;
#X connect 20 0 27 1;
#X connect 21 0 27 1;
#X connect 22 0 27 1;
#X connect 23 0 27 1;
#X connect 25 0 15 0;
#X connect 26 0 15 0;
#X connect 27 0 25 0;
#X connect 28 0 30 0;
#X connect 29 0 0 0;
#X connect 30 0 15 0;
#X restore 220 9 pd box;
#X obj 145 230 tgl 15 0 \$0-mc_tgls \$0-mc_tgl os 2 7 0 10 -262144
-262144 -62784 0 1;
#X obj 374 275 aline~ 50;
#N canvas 1920 30 1920 1050 meter 0;
#X obj 572 182 inlet~;
#X obj 602 229 threshold~ 1 100 1 100;
#X obj 572 229 env~;
#X obj 572 321 s \$0-mr;
#X msg 731 248 color 0 2 0;
#X msg 602 248 color 13 2 0;
#X connect 0 0 2 0;
#X connect 0 0 1 0;
#X connect 1 0 5 0;
#X connect 1 1 4 0;
#X connect 2 0 3 0;
#X connect 4 0 3 0;
#X connect 5 0 3 0;
#X restore 240 360 pd meter;
#X text 452 13 so~ - stereo output;
#X text 453 62 o~ \, so~ \, and po~ are audio output objects. they
wrap dac~ and add a few conveniences. o~ accepts mono input and sends
it equally to the left and right speakers. so~ is for stereo input.
po~ is for panned mono input \, and s with these abstractions you can
control volume and mute with the keyboard (as described below) as well
as with the mouse or via messages.;
#X connect 0 0 18 0;
#X connect 1 0 19 0;
#X connect 2 0 31 0;
#X connect 7 0 21 0;
#X connect 8 0 20 0;
#X connect 10 0 11 0;
#X connect 10 0 17 1;
#X connect 11 0 34 0;
#X connect 12 0 7 1;
#X connect 12 0 8 1;
#X connect 14 0 15 0;
#X connect 15 0 13 0;
#X connect 16 0 14 0;
#X connect 16 1 17 0;
#X connect 17 0 14 0;
#X connect 18 0 8 0;
#X connect 18 0 35 0;
#X connect 19 0 7 0;
#X connect 19 0 35 0;
#X connect 20 0 6 0;
#X connect 20 0 4 0;
#X connect 21 0 5 0;
#X connect 21 0 6 1;
#X connect 22 0 21 1;
#X connect 22 0 20 1;
#X connect 23 0 31 0;
#X connect 25 0 31 0;
#X connect 26 0 31 0;
#X connect 29 0 24 0;
#X connect 31 0 16 0;
#X connect 31 1 16 0;
#X connect 31 2 24 0;
#X connect 31 3 24 0;
#X connect 32 0 31 0;
#X connect 34 0 12 0;
#X connect 34 0 12 1;
#X coords 0 -1 1 1 60 30 1 100 230;
