#N canvas 1920 30 2560 1566 10;
#X obj 240 246 inlet~;
#X obj 297 246 inlet~;
#X obj 262 9 inlet;
#X obj 103 245 hsl 55 13 0 127 0 0 \$0-v \$0-vols volume -1 8 0 10 #14e814 #000000 #000000 0 1;
#X obj 294 452 outlet~;
#X obj 344 452 outlet~;
#X obj 303 431 dac~;
#X obj 324 360 *~;
#X obj 294 360 *~;
#X obj 152 232 vsl 8 10 0 100 0 0 \$0-ms \$0-mr empty 0 -9 0 10 #fcfcfc #404040 #fcfcfc 0 1;
#X obj 374 123 r \$0-v;
#X obj 374 255 / 127;
#X obj 374 308 *~;
#X obj 262 188 s \$0-vols;
#X obj 262 148 line;
#X obj 262 168 min 127;
#X obj 262 96 t a b;
#X obj 289 116 f;
#X obj 240 266 hip~ 5;
#X obj 297 266 hip~ 5;
#X obj 294 398 *~ 1;
#X obj 324 398 *~ 1;
#N canvas 1920 30 2560 1566 mute 0;
#X obj 507 274 route 0 1;
#X msg 444 294 color 13 22 22;
#X msg 537 294 color 16 22 22;
#X obj 515 327 s \$0-vols;
#X obj 449 212 sel 0;
#X msg 433 235 0;
#X msg 480 235 1;
#X obj 407 367 outlet;
#X obj 449 192 tgl 15 0 empty empty empty 17 7 0 10 #fcfcfc #000000 #000000 0 1;
#X obj 449 173 r \$0-mutes;
#X obj 406 164 init 1;
#X connect 0 0 1 0;
#X connect 0 1 2 0;
#X connect 1 0 3 0;
#X connect 2 0 3 0;
#X connect 4 0 5 0;
#X connect 4 1 6 0;
#X connect 5 0 0 0;
#X connect 5 0 7 0;
#X connect 6 0 0 0;
#X connect 6 0 7 0;
#X connect 8 0 4 0;
#X connect 9 0 8 0;
#X connect 10 0 8 0;
#X restore 359 366 pd mute;
#X obj 304 9 r out;
#X obj 332 98 s \$0-mute;
#X obj 340 9 r o;
#X obj 364 9 r \$0-o;
#X obj 143 230 tgl 9 0 \$0-mutes \$0-mute empty 17 7 0 10 #fcfcfc #000000 #000000 0 1;
#X obj 262 50 route vol mvol mute bang;
#X obj 374 275 aline~ 50;
#N canvas 1920 30 1920 1050 meter 0;
#X obj 572 182 inlet~;
#X obj 602 229 threshold~ 1 100 1 100;
#X obj 572 229 env~;
#X obj 572 321 s \$0-mr;
#X msg 731 248 color 0 2 0;
#X msg 602 248 color 13 2 0;
#X connect 0 0 2 0;
#X connect 0 0 1 0;
#X connect 1 0 5 0;
#X connect 1 1 4 0;
#X connect 2 0 3 0;
#X connect 4 0 3 0;
#X connect 5 0 3 0;
#X restore 240 360 pd meter;
#X text 447 26 so~ - convenient dac~ stereo output;
#X text 447 56 o~ and so~ are audio output objects. They wrap dac~ and add a few conveniences. o~ accepts mono input (sending it equally to the left and right speakers with optional panning) \, and so~ is for stereo input. With these abstractions you can control volume and mute using the built-in controls \, or via messages.;
#X text 446 251 The small toggle in the top row is the mute switch. When active \, the volume slider is green and sound is sent to the dac. When muted \, the volume slider is red and no sound is output.;
#X text 446 377 The big toggle--to the right of the level meter--is a "select". When it is active \, this abstraction will respond to its keyboard shortcuts. It automatically deactivates itself when you enter edit mode.;
#X text 446 446 The volume slider should be self-explanatory. When it's red \, it means the output is muted. Click the small toggle to unmute.;
#X text 449 152 Arguments:;
#X text 449 221 Interface:;
#X text 445 316 The vertical slider to the right of the mute is a level meter. It shows you the level of the incoming signal and has a red background when the signal is outside of -1 to 1 ("clipping"). It does not react to clicks.;
#X text 447 180 \$1 = panning position (o~ only). from -45 (hard left) to 45 (hard right). defaults to 0 which is center.;
#X obj 339 74 init 1;
#X connect 0 0 18 0;
#X connect 1 0 19 0;
#X connect 2 0 28 0;
#X connect 7 0 21 0;
#X connect 8 0 20 0;
#X connect 10 0 11 0;
#X connect 10 0 17 1;
#X connect 11 0 29 0;
#X connect 12 0 7 1;
#X connect 12 0 8 1;
#X connect 14 0 15 0;
#X connect 15 0 13 0;
#X connect 16 0 14 0;
#X connect 16 1 17 0;
#X connect 17 0 14 0;
#X connect 18 0 8 0;
#X connect 18 0 30 0;
#X connect 19 0 7 0;
#X connect 19 0 30 0;
#X connect 20 0 6 0;
#X connect 20 0 4 0;
#X connect 21 0 5 0;
#X connect 21 0 6 1;
#X connect 22 0 21 1;
#X connect 22 0 20 1;
#X connect 23 0 28 0;
#X connect 25 0 28 0;
#X connect 26 0 28 0;
#X connect 28 0 16 0;
#X connect 28 1 16 0;
#X connect 28 2 24 0;
#X connect 28 3 24 0;
#X connect 29 0 12 0;
#X connect 29 0 12 1;
#X connect 40 0 24 0;
#X coords 0 -1 1 1 60 30 1 100 230;
