#N canvas 0 29 2560 1566 10;
#X obj 188 162 bang;
#X obj 188 143 inlet;
#X obj 188 200 outlet;
#X text 287 160 spacesym - bang the inlet to output a "space symbol" - useful for if you want to put spaces in labels. unfortunately pure data doesn't like it if you save patches with them...;
#X obj 188 181 char-sym space;
#X text 222 94 THIS ABSTRACTION IS DEPRECATED! USE [char-sym space] INSTEAD.;
#X connect 0 0 4 0;
#X connect 1 0 0 0;
#X connect 4 0 2 0;
