#N canvas 800 0 1600 849 10;
#X obj 130 -50 inlet;
#X obj 180 339 outlet~;
#X obj 130 59 route symphnum oscsnum filtersnum;
#X obj 115 164 f;
#X obj 180 164 f;
#X obj 245 164 f;
#X obj 356 -103 symbol \$1;
#X obj 356 -84 sel xxxxx 0;
#X obj 437 -20 list-find;
#X obj 180 320 receive~;
#X obj 488 -78 loadbang;
#X obj 437 67 list-idx;
#X obj 437 -1 t b f;
#X obj 437 86 sel 1 2 3;
#X obj 180 282 pack f s;
#X msg 180 301 set \$1-\$2;
#X obj 419 -65 t a a;
#X obj 130 -31 t a b;
#X msg 437 18 1 1 1 2 2 2 2 2 2;
#X msg 488 -59 prefilt preenv env osc1 osc2 osc3 osc1f osc2f osc3f
;
#X connect 0 0 17 0;
#X connect 2 0 3 1;
#X connect 2 1 4 1;
#X connect 2 2 5 1;
#X connect 3 0 14 0;
#X connect 4 0 14 0;
#X connect 5 0 14 0;
#X connect 6 0 7 0;
#X connect 7 2 16 0;
#X connect 8 0 12 0;
#X connect 9 0 1 0;
#X connect 10 0 19 0;
#X connect 11 0 13 0;
#X connect 12 0 18 0;
#X connect 12 1 11 1;
#X connect 13 0 3 0;
#X connect 13 1 4 0;
#X connect 13 2 5 0;
#X connect 14 0 15 0;
#X connect 15 0 9 0;
#X connect 16 0 8 0;
#X connect 16 1 14 1;
#X connect 17 0 2 0;
#X connect 17 1 6 0;
#X connect 18 0 11 0;
#X connect 19 0 8 1;
