#N canvas 0 0 800 849 10;
#X obj 188 54 inlet;
#X msg 238 94 add2 \$1;
#X msg 213 136;
#X obj 213 215 list-splat -1;
#X obj 163 251 prepent set;
#X obj 235 251 f;
#X msg 269 234 0;
#X obj 188 94 t b b b;
#X obj 235 270 outlet;
#X text 350 135 outputs 0 if there is nothing left on the stack.;
#X text 350 97 first argument \, if nonzero \, is the maximum size
of the stack (earliest elements are erased first). not yet implemented.
;
#X text 350 68 stack - last in first out stack. send a bang to pop
or a float to push.;
#X obj 188 73 route bang float;
#X connect 0 0 12 0;
#X connect 1 0 2 0;
#X connect 2 0 3 0;
#X connect 3 0 4 0;
#X connect 3 1 5 1;
#X connect 4 0 2 0;
#X connect 5 0 8 0;
#X connect 6 0 5 1;
#X connect 7 0 5 0;
#X connect 7 1 2 0;
#X connect 7 2 6 0;
#X connect 12 0 7 0;
#X connect 12 1 1 0;
