#N canvas 0 0 1598 868 10;
#X obj 109 85 kinv;
#X obj 127 55 hradio 15 1 0 2 empty empty empty 0 -8 0 10 -257985 -1
-1 1;
#X obj 69 105 spigot 1;
#X obj 151 105 spigot 0;
#X obj 88 31 inlet;
#X obj 174 28 inlet;
#X obj 116 166 outlet;
#X connect 0 0 2 1;
#X connect 1 0 0 0;
#X connect 1 0 3 1;
#X connect 2 0 6 0;
#X connect 3 0 6 0;
#X connect 4 0 2 0;
#X connect 5 0 3 0;
#X coords 0 -1 1 1 30 15 2 127 55;
