#N canvas 0 0 1598 868 10;
#X obj 28 241 outlet~;
#X obj -133 120 inlet~;
#X obj -2 121 inlet~;
#X floatatom 48 0 4 0 1000 0 - - -;
#X obj 75 0 bng 15 250 50 0 empty empty empty 17 7 0 10 -262144 -1
-1;
#X obj 3 15 hsl 85 13 0 1 0 0 empty empty empty -2 -8 0 10 -262144
-1 -1 0 1;
#X obj 144 174 pack float float;
#X obj 200 148 * 10;
#X msg 87 -65 200;
#X obj -30 -166 inlet;
#X obj -7 -32 lb \$1;
#X obj -75 105 kinv;
#X obj 139 128 kinv;
#X obj 146 206 line;
#X obj 125 153 f 1;
#X obj 142 -91 sel 0;
#X obj 146 -120 lb \$2;
#X obj -107 172 *~ 1;
#X obj -3 176 *~ 0;
#X obj -98 -34 sel 127;
#X obj -32 -141 route bang float midi;
#X obj 48 -113 sel 127;
#X connect 1 0 17 0;
#X connect 2 0 18 0;
#X connect 3 0 7 0;
#X connect 4 0 14 0;
#X connect 5 0 11 0;
#X connect 5 0 12 0;
#X connect 5 0 18 1;
#X connect 6 0 13 0;
#X connect 7 0 6 1;
#X connect 8 0 3 0;
#X connect 9 0 20 0;
#X connect 10 0 5 0;
#X connect 11 0 17 1;
#X connect 12 0 14 1;
#X connect 13 0 5 0;
#X connect 14 0 6 0;
#X connect 15 0 8 0;
#X connect 15 1 3 0;
#X connect 16 0 15 0;
#X connect 17 0 0 0;
#X connect 18 0 0 0;
#X connect 19 0 4 0;
#X connect 19 1 5 0;
#X connect 20 0 4 0;
#X connect 20 1 19 0;
#X connect 20 2 21 0;
#X connect 21 0 4 0;
#X coords 0 -1 1 1 90 30 1 0 0;
