#N canvas 0 0 1600 870 10;
#X obj 382 15 inlet;
#X obj 382 221 shell;
#X msg 382 200 python ~/.pd/scr/tabgen.py 100 lin 0 90 0 1 lin 90 100
1 0;
#X obj 421 119 arraysize;
#X msg 448 99 set \$1;
#X msg 501 164 set python ~/.pd/scr/tabgen.py \$1;
#X obj 370 324 tabwrite;
#X obj 382 249 unpack f f;
#X obj 501 144 f;
#X msg 501 124 bang;
#X msg 237 182 add2 \$1 \$2 \$3 \$4 \$5;
#X obj 448 79 symbol;
#X obj 421 53 t b a;
#X obj 328 15 r tabgen;
#X obj 382 34 route bang table list clear print;
#X obj 469 308 print ey;
#X connect 0 0 14 0;
#X connect 1 0 7 0;
#X connect 1 0 15 0;
#X connect 2 0 1 0;
#X connect 3 0 8 0;
#X connect 4 0 3 0;
#X connect 4 0 6 0;
#X connect 5 0 2 0;
#X connect 7 0 6 1;
#X connect 7 1 6 0;
#X connect 8 0 5 0;
#X connect 9 0 8 0;
#X connect 10 0 2 0;
#X connect 11 0 4 0;
#X connect 12 0 3 0;
#X connect 12 1 11 0;
#X connect 13 0 14 0;
#X connect 14 0 2 0;
#X connect 14 1 12 0;
#X connect 14 2 10 0;
#X connect 14 3 9 0;
#X connect 14 5 2 0;
