#N canvas 787 297 450 397 10;
#X obj 90 191 textfile;
#X obj 164 45 inlet;
#X obj 164 65 route float;
#X obj 93 224 spigot;
#X msg 15 99 rewind;
#X msg 277 166 0;
#X obj 134 104 until;
#X obj 82 137 count;
#X msg 81 98 reset;
#X obj 229 174 ==;
#X obj 232 150 - 1;
#X obj 93 247 outlet;
#X obj 135 247 outlet;
#X text 177 242 left: index's value output;
#X text 178 252 right: "out of range" bang;
#X text 199 44 accepts numbers for an index;
#X connect 0 0 3 0;
#X connect 0 1 12 0;
#X connect 1 0 2 0;
#X connect 2 0 4 0;
#X connect 2 0 5 0;
#X connect 2 0 8 0;
#X connect 2 0 10 0;
#X connect 2 0 6 0;
#X connect 2 1 0 0;
#X connect 3 0 11 0;
#X connect 4 0 0 0;
#X connect 5 0 3 1;
#X connect 6 0 7 0;
#X connect 6 0 0 0;
#X connect 7 0 9 0;
#X connect 8 0 7 0;
#X connect 9 0 3 1;
#X connect 10 0 9 1;
