#N canvas 2 0 798 868 10;
#X obj 57 147 loadbang;
#X obj 56 192 shell;
#X obj -16 378 snd~;
#X obj -27 332 *;
#X obj 58 291 route freq;
#X obj -25 354 phasor~;
#X msg -41 302 1;
#X obj -15 411 outlet~;
#X symbolatom 139 266 50 0 0 0 - - -;
#X obj 55 233 symbol;
#X msg 51 258 open ~/\$1;
#X msg 57 168 ls *.wav --sort=time | head -1;
#X obj -1 241 inlet;
#X obj 38 148 bng 15 250 50 0 empty empty empty 17 7 0 10 -262144 -1
-1;
#X obj 56 213 t a b;
#X obj 58 311 t b f;
#X connect 0 0 11 0;
#X connect 1 0 14 0;
#X connect 2 0 7 0;
#X connect 2 1 4 0;
#X connect 3 0 5 0;
#X connect 4 0 15 0;
#X connect 5 0 2 0;
#X connect 6 0 3 0;
#X connect 9 0 10 0;
#X connect 9 0 8 0;
#X connect 10 0 2 1;
#X connect 11 0 1 0;
#X connect 12 0 3 0;
#X connect 13 0 11 0;
#X connect 14 0 9 0;
#X connect 15 0 6 0;
#X connect 15 1 3 1;
