#N canvas 0 0 1600 848 10;
#X obj 158 28 inlet~;
#X obj 243 29 loadbang;
#X obj 211 101 tabwrite~ \$0-view;
#X floatatom 161 99 5 0 0 0 - - -;
#N canvas 0 0 450 300 (subpatch) 0;
#X array \$0-view 500 float 2;
#X coords 0 1 500 -1 200 140 1;
#X restore -7 115 graph;
#X msg 162 76 100;
#X obj 243 52 metro 100;
#X obj 201 76 clip~ -2 2;
#X connect 0 0 7 0;
#X connect 1 0 5 0;
#X connect 1 0 6 0;
#X connect 3 0 6 1;
#X connect 5 0 3 0;
#X connect 6 0 2 0;
#X connect 7 0 2 0;
#X coords 0 -1 1 1 200 156 2 -7 99;
