#N canvas 0 0 1600 849 10;
#X obj 161 118 inlet;
#X obj 215 167 symbol \$1;
#X obj 224 237 shell;
#X obj 245 338 outlet~;
#X obj 178 338 outlet~;
#X msg 212 209 zynaddsubfx -l /home/modula/misc/pd/zyn/\$1.xmz;
#X obj 380 116 sel 0;
#X obj 380 97 lb \$1;
#X msg 373 163 zynaddsubfx;
#X msg 322 139 bang;
#X obj 198 291 adc~ 3 4;
#X connect 0 0 1 0;
#X connect 1 0 5 0;
#X connect 5 0 2 0;
#X connect 6 0 8 0;
#X connect 6 1 9 0;
#X connect 7 0 6 0;
#X connect 8 0 2 0;
#X connect 9 0 1 0;
#X connect 10 0 4 0;
#X connect 10 1 3 0;
