#N canvas 0 0 1587 849 10;
#X obj -46 194 plugin~ analogueOsc;
#X obj 65 213 outlet~;
#X obj 130 -23 inlet;
#X obj -153 34 loadbang;
#X msg -116 126 1;
#X obj -66 31 route symbol float;
#X obj -84 55 sel sin sine tri triangle sq square squ saw;
#X msg -79 124 2;
#X msg -41 127 3;
#X msg -2 129 4;
#X msg 36 131 440;
#X obj -67 6 route waveform wave freq frequency warm warmth instability
inst;
#X msg -130 163 info;
#X obj -87 229 print anaosc;
#X msg -116 155 control Waveform \$1;
#X msg 8 155 control Frequency \$1;
#X msg 138 155 control Warmth \$1;
#X msg 250 155 control Instability \$1;
#X floatatom 82 111 5 0 0 0 - - -;
#X connect 0 0 13 0;
#X connect 0 1 1 0;
#X connect 2 0 11 0;
#X connect 3 0 4 0;
#X connect 3 0 10 0;
#X connect 4 0 14 0;
#X connect 5 0 6 0;
#X connect 5 1 14 0;
#X connect 6 0 4 0;
#X connect 6 1 4 0;
#X connect 6 2 7 0;
#X connect 6 3 7 0;
#X connect 6 4 8 0;
#X connect 6 5 8 0;
#X connect 6 6 8 0;
#X connect 6 7 9 0;
#X connect 7 0 14 0;
#X connect 8 0 14 0;
#X connect 9 0 14 0;
#X connect 10 0 15 0;
#X connect 11 0 5 0;
#X connect 11 1 5 0;
#X connect 11 2 15 0;
#X connect 11 3 15 0;
#X connect 11 4 16 0;
#X connect 11 5 16 0;
#X connect 11 6 17 0;
#X connect 11 7 17 0;
#X connect 12 0 0 0;
#X connect 14 0 0 0;
#X connect 15 0 0 0;
#X connect 16 0 0 0;
#X connect 17 0 0 0;
#X connect 18 0 15 0;
