#N canvas 0 0 1600 849 10;
#X msg 203 162 dssi show;
#X obj 277 200 dssi~ FluidSynth-DSSI;
#X obj 237 101 pack f f;
#X obj 277 181 list prepend n 0;
#X msg 195 200 reset;
#N canvas 0 0 1600 849 loader 0;
#X obj 135 312 l2s;
#X obj 85 209 loadbang;
#X obj 85 228 t b b;
#X obj 51 249 symbol \$1;
#X msg 135 293 list /home/modula/misc/sf/ \$1 .sf2;
#X msg 135 331 dssi load \$1;
#X obj 78 274 sel symbol;
#X msg 150 257 symbol;
#X obj 135 350 outlet;
#X obj 51 190 inlet;
#X connect 0 0 5 0;
#X connect 1 0 2 0;
#X connect 2 0 3 0;
#X connect 2 1 7 0;
#X connect 3 0 6 0;
#X connect 4 0 0 0;
#X connect 5 0 8 0;
#X connect 6 1 4 0;
#X connect 7 0 6 1;
#X connect 7 0 0 1;
#X connect 9 0 3 0;
#X restore 19 152 pd loader;
#X obj 19 -50 playlist sf2 200 200 {Helvetica 10 bold} #457782 yellow
black red;
#X obj 19 -105 loadbang;
#X msg 19 -86 location /home/modula/misc/sf;
#X obj 338 219 outlet~;
#X obj 400 219 outlet~;
#X obj 237 80 makenote 127 300;
#X obj 237 53 route float vel length list;
#X obj 237 34 inlet;
#X connect 0 0 1 0;
#X connect 1 1 9 0;
#X connect 1 2 10 0;
#X connect 2 0 3 0;
#X connect 3 0 1 0;
#X connect 4 0 1 0;
#X connect 5 0 1 0;
#X connect 6 0 5 0;
#X connect 7 0 8 0;
#X connect 8 0 6 0;
#X connect 11 0 2 0;
#X connect 11 1 2 1;
#X connect 12 0 11 0;
#X connect 12 1 11 1;
#X connect 12 2 11 2;
#X connect 12 3 3 0;
#X connect 12 4 1 0;
#X connect 13 0 12 0;
