#N canvas 0 0 1600 849 10;
#X obj 233 301 snd~ \$1;
#X obj 233 320 *~;
#X obj 381 304 adsr~;
#X obj 233 339 outlet~;
#X obj 233 282 sndcf~;
#X obj 233 243 sig~ 1;
#X obj 329 81 inlet;
#X obj 329 219 / 2;
#X msg 329 278 time \$1;
#X msg 381 278 attack \$1 \, release \$1;
#X obj 381 259 / 2;
#X obj 558 187 del;
#X obj 379 75 lb \$2;
#X obj 531 149 f;
#X obj 558 206 random 30;
#X obj 558 225 del;
#X obj 531 168 t b f;
#X obj 281 189 randomF 1;
#X obj 329 100 route float space;
#X connect 0 0 1 0;
#X connect 0 1 4 1;
#X connect 1 0 3 0;
#X connect 2 0 1 1;
#X connect 4 0 0 0;
#X connect 5 0 4 0;
#X connect 6 0 18 0;
#X connect 7 0 8 0;
#X connect 7 0 10 0;
#X connect 8 0 2 0;
#X connect 9 0 2 0;
#X connect 10 0 9 0;
#X connect 11 0 14 0;
#X connect 11 0 17 0;
#X connect 12 0 18 0;
#X connect 13 0 16 0;
#X connect 14 0 15 0;
#X connect 15 0 13 0;
#X connect 16 0 2 0;
#X connect 16 1 11 0;
#X connect 17 0 4 1;
#X connect 18 0 13 0;
#X connect 18 0 7 0;
#X connect 18 1 14 1;
