#N canvas 0 0 1600 849 10;
#X obj 269 291 snd~ \$1;
#X obj 269 212 sndcm~;
#X obj 269 107 inlet;
#X obj 305 107 inlet;
#X obj 269 310 outlet~;
#X floatatom 297 152 5 0 0 0 - - -;
#X obj 191 177 noisef~;
#X obj 191 158 analog~ 50;
#X obj 191 196 /~ 100;
#X connect 0 0 4 0;
#X connect 0 1 1 0;
#X connect 1 0 0 0;
#X connect 2 0 1 0;
#X connect 2 0 5 0;
#X connect 6 0 8 0;
#X connect 7 0 6 0;
#X connect 8 0 0 0;
#X coords 0 0 1 1 103 45 0;
