#N canvas 0 29 1600 849 10;
#X obj 225 201 outlet~;
#X obj 273 201 outlet~;
#X obj 265 78 loadbang;
#X obj 246 346 bng 14 250 50 0 \$0-reset \$0-resetr re 1 6 0 10 -24198
-262144 -1;
#X obj 373 229 s \$0-resetr;
#X obj 319 78 r \$0-reset;
#X obj 153 370 hsl 105 8 0 1 0 0 \$0-NONE \$0-timebar empty -2 -5 0
10 -262144 -1 -1 0 1;
#X obj 443 313 list-idx -1;
#X obj 443 332 * 1000;
#X obj 428 351 /;
#X obj 372 291 timer;
#X obj 372 252 t b a;
#X obj 428 400 s \$0-timebar;
#X obj 421 252 ometro 200;
#X msg 385 209 color \$1 0 22;
#X msg 418 189 13;
#X msg 385 189 16;
#X obj 479 208 inlet;
#X obj 593 121 outlet;
#X obj 134 207 spigot \$1;
#X obj 134 226 s osd;
#X obj 328 123 route tags bang loading;
#X msg -43 250 Hideki_Naganuma Fly_Like_a_Butterfly;
#X obj 232 346 tgl 14 0 \$0-loop empty L 4 7 0 10 -262144 -1 -1 0 1
;
#N canvas 0 29 1600 849 label 0;
#X obj 37 37 inlet;
#X obj 138 133 outlet;
#X obj 37 265 s \$0-timebar;
#X obj 64 75 list split 2;
#X obj 37 104 map;
#X obj -8 75 ometro 4000;
#X msg 37 201 label \$1;
#X obj 37 182 symbol;
#X obj 37 123 sprintf %1.18s;
#X obj 37 142 route float;
#X obj 15 162 ftos;
#X obj 37 56 t b a;
#X msg 138 114 set \$1 \$2;
#X obj 46 220 loadbang;
#X msg 46 239 label;
#X connect 0 0 11 0;
#X connect 3 0 4 1;
#X connect 3 0 12 0;
#X connect 4 0 8 0;
#X connect 5 0 4 0;
#X connect 6 0 2 0;
#X connect 7 0 6 0;
#X connect 8 0 9 0;
#X connect 9 0 10 0;
#X connect 9 1 7 0;
#X connect 10 0 6 0;
#X connect 11 0 4 0;
#X connect 11 1 3 0;
#X connect 12 0 1 0;
#X connect 13 0 14 0;
#X connect 14 0 2 0;
#X restore -43 231 pd label;
#X obj 265 104 randomsong~;
#N canvas 0 29 1600 849 loop 0;
#X obj 446 164 inlet;
#X obj 446 278 outlet;
#X obj 482 164 r \$0-loop;
#X obj 446 202 f;
#X obj 446 221 sel 0 1;
#X obj 465 259 s \$0-reset;
#X msg 465 240 replay;
#X connect 0 0 3 0;
#X connect 2 0 3 1;
#X connect 3 0 4 0;
#X connect 4 0 1 0;
#X connect 4 1 6 0;
#X connect 6 0 5 0;
#X restore 373 142 pd loop;
#X connect 2 0 25 0;
#X connect 5 0 25 0;
#X connect 7 0 8 0;
#X connect 8 0 9 1;
#X connect 9 0 12 0;
#X connect 10 0 9 0;
#X connect 11 0 10 0;
#X connect 11 1 7 0;
#X connect 13 0 10 1;
#X connect 14 0 4 0;
#X connect 15 0 14 0;
#X connect 16 0 14 0;
#X connect 17 0 4 0;
#X connect 19 0 20 0;
#X connect 21 0 11 0;
#X connect 21 0 16 0;
#X connect 21 0 19 0;
#X connect 21 0 24 0;
#X connect 21 1 26 0;
#X connect 21 2 15 0;
#X connect 24 0 22 0;
#X connect 25 0 0 0;
#X connect 25 1 1 0;
#X connect 25 2 18 0;
#X connect 25 2 21 0;
#X connect 26 0 4 0;
#X coords 0 -1 1 1 110 34 1 150 346;
