#N canvas 0 0 800 849 10;
#X obj 50 70 inlet~;
#X obj 96 70 inlet~;
#X obj 50 129 outlet~;
#X text 374 67 mmf - multi-mode filter;
#X obj 185 50 inlet;
#X obj 185 209 list-idx;
#X obj 185 108 t b f;
#X obj 185 228 symbol;
#X floatatom 185 71 5 0 0 0 - - -;
#X obj 185 247 t b s;
#X obj 226 53 lb \$1;
#X text 374 87 TODO: add more filters \, add mrange~;
#X obj 212 266 pack s \$0;
#X obj 185 330 f \$0;
#X obj 60 45 namecanvas \$0-x;
#X obj 330 211 list length;
#X floatatom 330 230 5 0 0 0 - - -;
#X obj 330 248 outlet;
#X obj 185 89 change;
#X obj 63 231 s2l;
#X msg 78 212 symbol;
#X obj 78 193 loadbang;
#X obj 63 250 list-drip;
#X obj 63 269 sel _ ~;
#X msg 102 288 add2 \$1;
#X msg 102 307;
#X msg 114 269 bang \, set;
#X obj 102 326 l2s;
#X msg 185 127 list sine~ tri~ pulse~ noisef~;
#X msg 212 285 \; pd-\$2-mmo_osc clear \, obj 0 20 inlet~ \, obj 50
20 inlet~ \, obj 0 50 \$1 \, obj 0 100 outlet~;
#N canvas 0 0 800 849 \$0-mmo_osc 0;
#X obj 0 20 inlet~;
#X obj 50 20 inlet~;
#X obj 0 50 sine~;
#X obj 0 100 outlet~;
#X connect 0 0 2 0;
#X connect 1 0 2 1;
#X connect 2 0 3 0;
#X restore 50 101 pd \$0-mmo_osc;
#X msg 185 349 \; pd-\$1-mmo_osc connect 0 0 2 0 \, connect 1 0 2 1
\, connect 2 0 3 0 \; \$1-x connect 0 0 30 0 \, connect 1 0 30 1 \,
connect 30 0 2 0;
#X connect 0 0 30 0;
#X connect 1 0 30 1;
#X connect 4 0 8 0;
#X connect 5 0 7 0;
#X connect 5 0 19 0;
#X connect 6 0 28 0;
#X connect 6 1 5 1;
#X connect 7 0 9 0;
#X connect 8 0 18 0;
#X connect 9 0 13 0;
#X connect 9 1 12 0;
#X connect 10 0 8 0;
#X connect 12 0 29 0;
#X connect 13 0 31 0;
#X connect 15 0 16 0;
#X connect 16 0 17 0;
#X connect 18 0 6 0;
#X connect 19 0 22 0;
#X connect 20 0 19 1;
#X connect 20 0 27 1;
#X connect 21 0 20 0;
#X connect 22 0 23 0;
#X connect 22 1 26 0;
#X connect 23 2 24 0;
#X connect 24 0 25 0;
#X connect 25 0 27 0;
#X connect 26 0 25 0;
#X connect 27 0 17 0;
#X connect 28 0 5 0;
#X connect 28 0 15 0;
#X connect 30 0 2 0;
