#N canvas 1920 32 1920 1048 10;
#X obj 9 42 noise~;
#X obj 9 126 samphold~;
#X obj 9 149 outlet~;
#X obj 60 102 phasor~ \$1;
#X obj 60 42 inlet~;
#X obj 60 73 max~ 0;
#X text 146 57 White noise at the provided frequency.;
#X obj 60 13 lb \$1;
#X connect 0 0 1 0;
#X connect 1 0 2 0;
#X connect 3 0 1 1;
#X connect 4 0 5 0;
#X connect 5 0 3 0;
#X connect 7 0 4 0;
