#N canvas 0 0 1600 849 10;
#X obj 150 515 outlet~;
#X obj -70 223 inlet;
#X obj -64 469 *~ 1;
#X obj 263 343 bng 15 250 50 0 empty empty empty 17 7 0 10 -262144
-1 -1;
#X obj 248 343 bng 15 250 50 0 empty empty empty 17 7 0 10 -262144
-1 -1;
#X obj 233 343 bng 15 250 50 0 empty empty empty 17 7 0 10 -262144
-1 -1;
#X obj 278 343 bng 15 250 50 0 empty empty empty 17 7 0 10 -262144
-1 -1;
#X obj -70 242 route bang float open file list;
#X obj 76 261 unpack f f;
#X obj 76 307 pack f f f;
#X obj 82 284 poly 4 1;
#X obj -64 431 sndcm~;
#X obj -64 450 snd~ \$1;
#X obj -64 372 unpack f f;
#X obj 76 326 route 1 2 3 4;
#X obj -7 452 / 127;
#X text 3 222 polyphonic midi note player;
#X obj -56 412 f;
#X msg -32 412 \$1 0;
#X obj 36 469 *~ 1;
#X obj 36 431 sndcm~;
#X obj 36 372 unpack f f;
#X obj 93 452 / 127;
#X obj 44 412 f;
#X msg 68 412 \$1 0;
#X obj 36 450 sndd~;
#X obj 136 469 *~ 1;
#X obj 136 431 sndcm~;
#X obj 136 372 unpack f f;
#X obj 193 452 / 127;
#X obj 144 412 f;
#X msg 168 412 \$1 0;
#X obj 136 450 sndd~;
#X obj 236 469 *~ 1;
#X obj 236 431 sndcm~;
#X obj 236 372 unpack f f;
#X obj 293 452 / 127;
#X obj 244 412 f;
#X msg 268 412 \$1 0;
#X obj 236 450 sndd~;
#X obj -22 431 bng 15 250 50 0 empty empty empty 17 7 0 10 -262144
-1 -1;
#X text 256 158 FIX: does weird things if you have multiple of the
same note playing simultaneously.;
#X msg -25 317 open \$1;
#X obj -25 298 symbol;
#X msg -34 261 \$1 127;
#X connect 1 0 7 0;
#X connect 2 0 0 0;
#X connect 7 1 44 0;
#X connect 7 2 43 0;
#X connect 7 3 43 0;
#X connect 7 4 8 0;
#X connect 8 0 10 0;
#X connect 8 1 10 1;
#X connect 9 0 14 0;
#X connect 10 0 9 0;
#X connect 10 1 9 1;
#X connect 10 2 9 2;
#X connect 11 0 12 0;
#X connect 11 1 17 0;
#X connect 11 1 40 0;
#X connect 12 0 2 0;
#X connect 12 1 11 0;
#X connect 12 1 25 1;
#X connect 13 0 11 0;
#X connect 13 0 17 1;
#X connect 13 1 15 0;
#X connect 14 0 5 0;
#X connect 14 0 13 0;
#X connect 14 1 4 0;
#X connect 14 1 21 0;
#X connect 14 2 3 0;
#X connect 14 2 28 0;
#X connect 14 3 6 0;
#X connect 14 3 35 0;
#X connect 15 0 2 1;
#X connect 17 0 18 0;
#X connect 18 0 8 0;
#X connect 19 0 0 0;
#X connect 20 0 25 0;
#X connect 20 1 23 0;
#X connect 21 0 20 0;
#X connect 21 0 23 1;
#X connect 21 1 22 0;
#X connect 22 0 19 1;
#X connect 23 0 24 0;
#X connect 24 0 8 0;
#X connect 25 0 19 0;
#X connect 25 1 20 0;
#X connect 25 1 32 1;
#X connect 26 0 0 0;
#X connect 27 0 32 0;
#X connect 27 1 30 0;
#X connect 28 0 27 0;
#X connect 28 0 30 1;
#X connect 28 1 29 0;
#X connect 29 0 26 1;
#X connect 30 0 31 0;
#X connect 31 0 8 0;
#X connect 32 0 26 0;
#X connect 32 1 27 0;
#X connect 32 1 39 1;
#X connect 33 0 0 0;
#X connect 34 0 39 0;
#X connect 34 1 37 0;
#X connect 35 0 34 0;
#X connect 35 0 37 1;
#X connect 35 1 36 0;
#X connect 36 0 33 1;
#X connect 37 0 38 0;
#X connect 38 0 8 0;
#X connect 39 0 33 0;
#X connect 39 1 34 0;
#X connect 42 0 12 1;
#X connect 43 0 42 0;
#X connect 44 0 8 0;
