#N canvas 0 29 1600 849 10;
#X obj 381 358 soundfiler;
#X obj 456 222 loadbang;
#X obj 456 251 f \$0;
#X obj 381 307 pack s f;
#X obj 297 358 table \$0-file;
#X obj 120 585 outlet~;
#X obj 381 250 symbol \$1;
#X obj 319 250 openpanel;
#X obj 302 250 bng 15 250 50 0 empty empty empty 17 7 0 10 -262144
-1 -1;
#X symbolatom 82 269 50 0 0 0 - - -;
#X obj 381 229 bng 15 250 50 0 empty empty empty 17 7 0 10 -262144
-1 -1;
#X obj 46 185 inlet;
#X obj -94 501 tabplay~ \$0-file;
#X obj -94 482 t b f;
#X obj 46 250 / 127;
#X msg 46 223 127;
#X obj 46 204 route bang float open file;
#X obj -94 520 *~ 1;
#X text 83 185 polyphonic sound player;
#X obj 46 337 pack f f;
#X obj 46 299 t b f;
#X obj 8 501 tabplay~ \$0-file;
#X obj 8 482 t b f;
#X obj 8 520 *~ 1;
#X obj 110 501 tabplay~ \$0-file;
#X obj 110 482 t b f;
#X obj 110 520 *~ 1;
#X obj 212 501 tabplay~ \$0-file;
#X obj 212 482 t b f;
#X obj 212 520 *~ 1;
#X obj 233 453 bng 15 250 50 0 empty empty empty 17 7 0 10 -262144
-1 -1;
#X obj 218 453 bng 15 250 50 0 empty empty empty 17 7 0 10 -262144
-1 -1;
#X obj 203 453 bng 15 250 50 0 empty empty empty 17 7 0 10 -262144
-1 -1;
#X obj 248 453 bng 15 250 50 0 empty empty empty 17 7 0 10 -262144
-1 -1;
#X obj 46 318 count 6;
#X obj 314 501 tabplay~ \$0-file;
#X obj 314 482 t b f;
#X obj 314 520 *~ 1;
#X obj 416 501 tabplay~ \$0-file;
#X obj 416 482 t b f;
#X obj 416 520 *~ 1;
#X obj 263 453 bng 15 250 50 0 empty empty empty 17 7 0 10 -262144
-1 -1;
#X obj 278 453 bng 15 250 50 0 empty empty empty 17 7 0 10 -262144
-1 -1;
#X obj 46 356 route 0 1 2 3 4 5;
#X msg 381 326 read -resize \$1 \$2-file \; \$2-file normalize;
#X obj 19 273 sel 0;
#X obj 381 269 kfilename;
#X connect 1 0 2 0;
#X connect 1 0 6 0;
#X connect 2 0 3 1;
#X connect 3 0 44 0;
#X connect 6 0 9 0;
#X connect 6 0 46 0;
#X connect 7 0 6 0;
#X connect 8 0 7 0;
#X connect 10 0 6 0;
#X connect 11 0 16 0;
#X connect 12 0 17 0;
#X connect 13 0 12 0;
#X connect 13 1 17 1;
#X connect 14 0 45 0;
#X connect 15 0 14 0;
#X connect 16 0 15 0;
#X connect 16 1 14 0;
#X connect 16 2 6 0;
#X connect 16 3 6 0;
#X connect 17 0 5 0;
#X connect 19 0 43 0;
#X connect 20 0 34 0;
#X connect 20 1 19 1;
#X connect 21 0 23 0;
#X connect 22 0 21 0;
#X connect 22 1 23 1;
#X connect 23 0 5 0;
#X connect 24 0 26 0;
#X connect 25 0 24 0;
#X connect 25 1 26 1;
#X connect 26 0 5 0;
#X connect 27 0 29 0;
#X connect 28 0 27 0;
#X connect 28 1 29 1;
#X connect 29 0 5 0;
#X connect 34 0 19 0;
#X connect 35 0 37 0;
#X connect 36 0 35 0;
#X connect 36 1 37 1;
#X connect 37 0 5 0;
#X connect 38 0 40 0;
#X connect 39 0 38 0;
#X connect 39 1 40 1;
#X connect 40 0 5 0;
#X connect 43 0 13 0;
#X connect 43 0 32 0;
#X connect 43 1 22 0;
#X connect 43 1 31 0;
#X connect 43 2 25 0;
#X connect 43 2 30 0;
#X connect 43 3 28 0;
#X connect 43 3 33 0;
#X connect 43 4 41 0;
#X connect 43 4 36 0;
#X connect 43 5 42 0;
#X connect 43 5 39 0;
#X connect 44 0 0 0;
#X connect 45 1 20 0;
#X connect 46 0 3 0;
