#N canvas 0 29 1600 849 10;
#X obj 199 302 outlet~;
#X obj -2 53 inlet;
#X obj 341 173 bng 15 250 50 0 empty empty empty 17 7 0 10 -262144
-1 -1;
#X obj 326 173 bng 15 250 50 0 empty empty empty 17 7 0 10 -262144
-1 -1;
#X obj 311 173 bng 15 250 50 0 empty empty empty 17 7 0 10 -262144
-1 -1;
#X obj 356 173 bng 15 250 50 0 empty empty empty 17 7 0 10 -262144
-1 -1;
#X obj -2 72 route bang float open file list;
#X text 71 52 polyphonic midi note player;
#X msg 43 147 open \$1;
#X obj 43 128 symbol;
#X msg 34 91 \$1 127;
#X obj 371 173 bng 15 250 50 0 empty empty empty 17 7 0 10 -262144
-1 -1;
#X obj 386 173 bng 15 250 50 0 empty empty empty 17 7 0 10 -262144
-1 -1;
#X obj 401 173 bng 15 250 50 0 empty empty empty 17 7 0 10 -262144
-1 -1;
#X obj 416 173 bng 15 250 50 0 empty empty empty 17 7 0 10 -262144
-1 -1;
#X obj 144 156 route 1 2 3 4 5 6 7 8;
#X text 295 46 has 8 voices! wow!!!!!;
#X obj 144 131 polys 8;
#N canvas 800 29 800 849 v1 0;
#X obj 117 294 inlet;
#X obj 117 429 outlet~;
#X obj 117 410 *~ 1;
#X obj 117 332 sndcm~;
#X obj 117 391 snd~ \$1;
#X obj 117 313 unpack f f;
#X obj 174 393 / 127;
#X obj 159 332 bng 15 250 50 0 empty empty empty 17 7 0 10 -262144
-1 -1;
#X obj 150 370 s \$0-polys;
#X obj 165 429 s \$0-sndd;
#X msg 150 351 0 0 1;
#X obj 223 329 inlet;
#X connect 0 0 5 0;
#X connect 2 0 1 0;
#X connect 3 0 4 0;
#X connect 3 1 7 0;
#X connect 3 1 10 0;
#X connect 4 0 2 0;
#X connect 4 1 3 0;
#X connect 4 1 9 0;
#X connect 5 0 3 0;
#X connect 5 1 6 0;
#X connect 6 0 2 1;
#X connect 10 0 8 0;
#X connect 11 0 4 1;
#X restore 76 216 pd v1;
#N canvas 800 29 800 849 v2 0;
#X obj 127 324 inlet;
#X obj 127 499 outlet~;
#X obj 127 480 *~ 1;
#X obj 127 362 sndcm~;
#X obj 127 343 unpack f f;
#X obj 184 463 / 127;
#X obj 160 400 s \$0-polys;
#X obj 127 451 sndd~;
#X obj 154 432 r \$0-sndd;
#X msg 160 381 0 0 2;
#X connect 0 0 4 0;
#X connect 2 0 1 0;
#X connect 3 0 7 0;
#X connect 3 1 9 0;
#X connect 4 0 3 0;
#X connect 4 1 5 0;
#X connect 5 0 2 1;
#X connect 7 0 2 0;
#X connect 7 1 3 0;
#X connect 8 0 7 1;
#X connect 9 0 6 0;
#X restore 112 216 pd v2;
#X obj 158 100 r \$0-polys;
#N canvas 800 29 800 849 v3 0;
#X obj 177 354 inlet;
#X obj 177 529 outlet~;
#X obj 177 510 *~ 1;
#X obj 177 392 sndcm~;
#X obj 177 373 unpack f f;
#X obj 234 493 / 127;
#X obj 210 430 s \$0-polys;
#X obj 177 481 sndd~;
#X obj 204 462 r \$0-sndd;
#X msg 210 411 0 0 3;
#X connect 0 0 4 0;
#X connect 2 0 1 0;
#X connect 3 0 7 0;
#X connect 3 1 9 0;
#X connect 4 0 3 0;
#X connect 4 1 5 0;
#X connect 5 0 2 1;
#X connect 7 0 2 0;
#X connect 7 1 3 0;
#X connect 8 0 7 1;
#X connect 9 0 6 0;
#X restore 148 216 pd v3;
#N canvas 800 29 800 849 v4 0;
#X obj 167 344 inlet;
#X obj 167 519 outlet~;
#X obj 167 500 *~ 1;
#X obj 167 382 sndcm~;
#X obj 167 363 unpack f f;
#X obj 224 483 / 127;
#X obj 200 420 s \$0-polys;
#X obj 167 471 sndd~;
#X obj 194 452 r \$0-sndd;
#X msg 200 401 0 0 4;
#X connect 0 0 4 0;
#X connect 2 0 1 0;
#X connect 3 0 7 0;
#X connect 3 1 9 0;
#X connect 4 0 3 0;
#X connect 4 1 5 0;
#X connect 5 0 2 1;
#X connect 7 0 2 0;
#X connect 7 1 3 0;
#X connect 8 0 7 1;
#X connect 9 0 6 0;
#X restore 184 216 pd v4;
#N canvas 800 29 800 849 v5 0;
#X obj 157 334 inlet;
#X obj 157 509 outlet~;
#X obj 157 490 *~ 1;
#X obj 157 372 sndcm~;
#X obj 157 353 unpack f f;
#X obj 214 473 / 127;
#X obj 190 410 s \$0-polys;
#X obj 157 461 sndd~;
#X obj 184 442 r \$0-sndd;
#X msg 190 391 0 0 5;
#X connect 0 0 4 0;
#X connect 2 0 1 0;
#X connect 3 0 7 0;
#X connect 3 1 9 0;
#X connect 4 0 3 0;
#X connect 4 1 5 0;
#X connect 5 0 2 1;
#X connect 7 0 2 0;
#X connect 7 1 3 0;
#X connect 8 0 7 1;
#X connect 9 0 6 0;
#X restore 220 216 pd v5;
#N canvas 800 29 800 849 v6 0;
#X obj 147 324 inlet;
#X obj 147 499 outlet~;
#X obj 147 480 *~ 1;
#X obj 147 362 sndcm~;
#X obj 147 343 unpack f f;
#X obj 204 463 / 127;
#X obj 180 400 s \$0-polys;
#X obj 147 451 sndd~;
#X obj 174 432 r \$0-sndd;
#X msg 180 381 0 0 6;
#X connect 0 0 4 0;
#X connect 2 0 1 0;
#X connect 3 0 7 0;
#X connect 3 1 9 0;
#X connect 4 0 3 0;
#X connect 4 1 5 0;
#X connect 5 0 2 1;
#X connect 7 0 2 0;
#X connect 7 1 3 0;
#X connect 8 0 7 1;
#X connect 9 0 6 0;
#X restore 256 216 pd v6;
#N canvas 800 29 800 849 v7 0;
#X obj 127 304 inlet;
#X obj 127 479 outlet~;
#X obj 127 460 *~ 1;
#X obj 127 342 sndcm~;
#X obj 127 323 unpack f f;
#X obj 184 443 / 127;
#X obj 160 380 s \$0-polys;
#X obj 127 431 sndd~;
#X obj 154 412 r \$0-sndd;
#X msg 160 361 0 0 7;
#X connect 0 0 4 0;
#X connect 2 0 1 0;
#X connect 3 0 7 0;
#X connect 3 1 9 0;
#X connect 4 0 3 0;
#X connect 4 1 5 0;
#X connect 5 0 2 1;
#X connect 7 0 2 0;
#X connect 7 1 3 0;
#X connect 8 0 7 1;
#X connect 9 0 6 0;
#X restore 292 216 pd v7;
#N canvas 0 29 1600 849 v8 0;
#X obj 117 294 inlet;
#X obj 117 469 outlet~;
#X obj 117 450 *~ 1;
#X obj 117 332 sndcm~;
#X obj 117 313 unpack f f;
#X obj 174 433 / 127;
#X obj 150 370 s \$0-polys;
#X obj 117 421 sndd~;
#X obj 144 402 r \$0-sndd;
#X msg 150 351 0 0 8;
#X connect 0 0 4 0;
#X connect 2 0 1 0;
#X connect 3 0 7 0;
#X connect 3 1 9 0;
#X connect 4 0 3 0;
#X connect 4 1 5 0;
#X connect 5 0 2 1;
#X connect 7 0 2 0;
#X connect 7 1 3 0;
#X connect 8 0 7 1;
#X connect 9 0 6 0;
#X restore 328 216 pd v8;
#X connect 1 0 6 0;
#X connect 6 1 10 0;
#X connect 6 2 9 0;
#X connect 6 3 9 0;
#X connect 6 4 17 0;
#X connect 8 0 18 1;
#X connect 9 0 8 0;
#X connect 10 0 17 0;
#X connect 15 0 4 0;
#X connect 15 0 18 0;
#X connect 15 1 3 0;
#X connect 15 1 19 0;
#X connect 15 2 2 0;
#X connect 15 2 21 0;
#X connect 15 3 5 0;
#X connect 15 3 22 0;
#X connect 15 4 11 0;
#X connect 15 4 23 0;
#X connect 15 5 12 0;
#X connect 15 5 24 0;
#X connect 15 6 13 0;
#X connect 15 6 25 0;
#X connect 15 7 14 0;
#X connect 15 7 26 0;
#X connect 17 0 15 0;
#X connect 18 0 0 0;
#X connect 19 0 0 0;
#X connect 20 0 17 0;
#X connect 21 0 0 0;
#X connect 22 0 0 0;
#X connect 23 0 0 0;
#X connect 24 0 0 0;
#X connect 25 0 0 0;
#X connect 26 0 0 0;
