#N canvas 0 29 1600 849 10;
#X obj 199 302 outlet~;
#X obj -2 53 inlet;
#X obj -2 72 route bang float open file list;
#X text 71 52 polyphonic midi note player;
#X msg 43 147 open \$1;
#X obj 43 128 symbol;
#X msg 34 91 \$1 127;
#X obj 144 156 route 1 2 3 4 5 6 7 8;
#X text 295 46 has 8 voices! wow!!!!!;
#X obj 144 131 polys 8;
#N canvas 0 29 800 849 v1 0;
#X obj 117 294 inlet;
#X obj 117 484 outlet~;
#X obj 117 465 *~ 1;
#X obj 117 332 sndcm~;
#X obj 117 446 snd~ \$1;
#X obj 117 313 unpack f f;
#X obj 174 448 / 127;
#X obj 150 425 s \$0-polys;
#X obj 165 484 s \$0-sndd;
#X msg 150 406 0 0 1;
#X obj 223 327 inlet;
#X obj 150 389 bng 15 250 50 0 empty empty empty 17 7 0 10 -262144
-1 -1;
#X obj 150 351 unsig~ 10;
#X obj 150 370 sel 1;
#X connect 0 0 5 0;
#X connect 2 0 1 0;
#X connect 3 0 4 0;
#X connect 3 0 12 0;
#X connect 4 0 2 0;
#X connect 4 1 3 0;
#X connect 4 1 8 0;
#X connect 5 0 3 0;
#X connect 5 1 6 0;
#X connect 6 0 2 1;
#X connect 9 0 7 0;
#X connect 10 0 4 1;
#X connect 11 0 9 0;
#X connect 12 0 13 0;
#X connect 13 0 11 0;
#X restore 76 216 pd v1;
#N canvas 0 29 800 849 v2 0;
#X obj 127 324 inlet;
#X obj 127 499 outlet~;
#X obj 127 480 *~ 1;
#X obj 127 362 sndcm~;
#X obj 127 343 unpack f f;
#X obj 184 463 / 127;
#X obj 127 451 sndd~;
#X obj 154 432 r \$0-sndd;
#X obj 290 475 s \$0-polys;
#X obj 290 439 bng 15 250 50 0 empty empty empty 17 7 0 10 -262144
-1 -1;
#X obj 290 401 unsig~ 10;
#X obj 290 420 sel 1;
#X msg 290 456 0 0 2;
#X connect 0 0 4 0;
#X connect 2 0 1 0;
#X connect 3 0 6 0;
#X connect 3 0 10 0;
#X connect 4 0 3 0;
#X connect 4 1 5 0;
#X connect 5 0 2 1;
#X connect 6 0 2 0;
#X connect 6 1 3 0;
#X connect 7 0 6 1;
#X connect 9 0 12 0;
#X connect 10 0 11 0;
#X connect 11 0 9 0;
#X connect 12 0 8 0;
#X restore 112 216 pd v2;
#X obj 158 100 r \$0-polys;
#N canvas 0 29 800 849 v3 0;
#X obj 177 354 inlet;
#X obj 177 529 outlet~;
#X obj 177 510 *~ 1;
#X obj 177 392 sndcm~;
#X obj 177 373 unpack f f;
#X obj 234 493 / 127;
#X obj 177 481 sndd~;
#X obj 204 462 r \$0-sndd;
#X obj 300 505 s \$0-polys;
#X obj 300 469 bng 15 250 50 0 empty empty empty 17 7 0 10 -262144
-1 -1;
#X obj 300 431 unsig~ 10;
#X obj 300 450 sel 1;
#X msg 300 486 0 0 3;
#X connect 0 0 4 0;
#X connect 2 0 1 0;
#X connect 3 0 6 0;
#X connect 3 0 10 0;
#X connect 4 0 3 0;
#X connect 4 1 5 0;
#X connect 5 0 2 1;
#X connect 6 0 2 0;
#X connect 6 1 3 0;
#X connect 7 0 6 1;
#X connect 9 0 12 0;
#X connect 10 0 11 0;
#X connect 11 0 9 0;
#X connect 12 0 8 0;
#X restore 148 216 pd v3;
#N canvas 0 29 800 849 v4 0;
#X obj 167 344 inlet;
#X obj 167 519 outlet~;
#X obj 167 500 *~ 1;
#X obj 167 382 sndcm~;
#X obj 167 363 unpack f f;
#X obj 224 483 / 127;
#X obj 167 471 sndd~;
#X obj 194 452 r \$0-sndd;
#X obj 300 455 s \$0-polys;
#X obj 300 419 bng 15 250 50 0 empty empty empty 17 7 0 10 -262144
-1 -1;
#X obj 300 381 unsig~ 10;
#X obj 300 400 sel 1;
#X msg 300 436 0 0 4;
#X connect 0 0 4 0;
#X connect 2 0 1 0;
#X connect 3 0 6 0;
#X connect 3 0 10 0;
#X connect 4 0 3 0;
#X connect 4 1 5 0;
#X connect 5 0 2 1;
#X connect 6 0 2 0;
#X connect 6 1 3 0;
#X connect 7 0 6 1;
#X connect 9 0 12 0;
#X connect 10 0 11 0;
#X connect 11 0 9 0;
#X connect 12 0 8 0;
#X restore 184 216 pd v4;
#N canvas 0 29 800 849 v5 0;
#X obj 157 334 inlet;
#X obj 157 509 outlet~;
#X obj 157 490 *~ 1;
#X obj 157 372 sndcm~;
#X obj 157 353 unpack f f;
#X obj 214 473 / 127;
#X obj 157 461 sndd~;
#X obj 184 442 r \$0-sndd;
#X obj 290 465 s \$0-polys;
#X obj 290 429 bng 15 250 50 0 empty empty empty 17 7 0 10 -262144
-1 -1;
#X obj 290 391 unsig~ 10;
#X obj 290 410 sel 1;
#X msg 290 446 0 0 5;
#X connect 0 0 4 0;
#X connect 2 0 1 0;
#X connect 3 0 6 0;
#X connect 3 0 10 0;
#X connect 4 0 3 0;
#X connect 4 1 5 0;
#X connect 5 0 2 1;
#X connect 6 0 2 0;
#X connect 6 1 3 0;
#X connect 7 0 6 1;
#X connect 9 0 12 0;
#X connect 10 0 11 0;
#X connect 11 0 9 0;
#X connect 12 0 8 0;
#X restore 220 216 pd v5;
#N canvas 0 29 800 849 v6 0;
#X obj 147 324 inlet;
#X obj 147 499 outlet~;
#X obj 147 480 *~ 1;
#X obj 147 362 sndcm~;
#X obj 147 343 unpack f f;
#X obj 204 463 / 127;
#X obj 147 451 sndd~;
#X obj 174 432 r \$0-sndd;
#X obj 291 475 s \$0-polys;
#X obj 291 439 bng 15 250 50 0 empty empty empty 17 7 0 10 -262144
-1 -1;
#X obj 291 401 unsig~ 10;
#X obj 291 420 sel 1;
#X msg 291 456 0 0 6;
#X connect 0 0 4 0;
#X connect 2 0 1 0;
#X connect 3 0 6 0;
#X connect 3 0 10 0;
#X connect 4 0 3 0;
#X connect 4 1 5 0;
#X connect 5 0 2 1;
#X connect 6 0 2 0;
#X connect 6 1 3 0;
#X connect 7 0 6 1;
#X connect 9 0 12 0;
#X connect 10 0 11 0;
#X connect 11 0 9 0;
#X connect 12 0 8 0;
#X restore 256 216 pd v6;
#N canvas 0 29 800 849 v7 0;
#X obj 127 304 inlet;
#X obj 127 479 outlet~;
#X obj 127 460 *~ 1;
#X obj 127 342 sndcm~;
#X obj 127 323 unpack f f;
#X obj 184 443 / 127;
#X obj 127 431 sndd~;
#X obj 154 412 r \$0-sndd;
#X obj 260 445 s \$0-polys;
#X obj 260 409 bng 15 250 50 0 empty empty empty 17 7 0 10 -262144
-1 -1;
#X obj 260 371 unsig~ 10;
#X obj 260 390 sel 1;
#X msg 260 426 0 0 7;
#X connect 0 0 4 0;
#X connect 2 0 1 0;
#X connect 3 0 6 0;
#X connect 3 0 10 0;
#X connect 4 0 3 0;
#X connect 4 1 5 0;
#X connect 5 0 2 1;
#X connect 6 0 2 0;
#X connect 6 1 3 0;
#X connect 7 0 6 1;
#X connect 9 0 12 0;
#X connect 10 0 11 0;
#X connect 11 0 9 0;
#X connect 12 0 8 0;
#X restore 292 216 pd v7;
#N canvas 0 29 800 849 v8 0;
#X obj 117 294 inlet;
#X obj 117 469 outlet~;
#X obj 117 450 *~ 1;
#X obj 117 332 sndcm~;
#X obj 117 313 unpack f f;
#X obj 174 433 / 127;
#X obj 117 421 sndd~;
#X obj 144 402 r \$0-sndd;
#X obj 230 425 s \$0-polys;
#X obj 230 389 bng 15 250 50 0 empty empty empty 17 7 0 10 -262144
-1 -1;
#X obj 230 351 unsig~ 10;
#X obj 230 370 sel 1;
#X msg 230 406 0 0 8;
#X connect 0 0 4 0;
#X connect 2 0 1 0;
#X connect 3 0 6 0;
#X connect 3 0 10 0;
#X connect 4 0 3 0;
#X connect 4 1 5 0;
#X connect 5 0 2 1;
#X connect 6 0 2 0;
#X connect 6 1 3 0;
#X connect 7 0 6 1;
#X connect 9 0 12 0;
#X connect 10 0 11 0;
#X connect 11 0 9 0;
#X connect 12 0 8 0;
#X restore 328 216 pd v8;
#N canvas 0 29 800 849 voices 0;
#X obj 200 215 tgl 15 0 empty empty empty 17 7 0 10 -262144 -1 -1 0
1;
#X obj 215 215 tgl 15 0 empty empty empty 17 7 0 10 -262144 -1 -1 0
1;
#X obj 230 215 tgl 15 0 empty empty empty 17 7 0 10 -262144 -1 -1 0
1;
#X obj 245 215 tgl 15 0 empty empty empty 17 7 0 10 -262144 -1 -1 0
1;
#X obj 260 215 tgl 15 0 empty empty empty 17 7 0 10 -262144 -1 -1 0
1;
#X obj 275 215 tgl 15 0 empty empty empty 17 7 0 10 -262144 -1 -1 0
1;
#X obj 290 215 tgl 15 0 empty empty empty 17 7 0 10 -262144 -1 -1 0
1;
#X obj 305 215 tgl 15 0 empty empty empty 17 7 0 10 -262144 -1 -1 0
1;
#X obj 163 62 inlet;
#X msg 163 81 \$1 \$3;
#X obj 163 100 unpack f f;
#X obj 220 119 > 0;
#X obj 163 148 pack f f;
#X text 255 68 currently active voices;
#X obj 163 167 route 1 2 3 4 5 6 7 8;
#X connect 8 0 9 0;
#X connect 9 0 10 0;
#X connect 10 0 12 0;
#X connect 10 1 11 0;
#X connect 11 0 12 1;
#X connect 12 0 14 0;
#X connect 14 0 0 0;
#X connect 14 1 1 0;
#X connect 14 2 2 0;
#X connect 14 3 3 0;
#X connect 14 4 4 0;
#X connect 14 5 5 0;
#X connect 14 6 6 0;
#X connect 14 7 7 0;
#X coords 0 -1 1 1 120 30 1 200 200;
#X restore 298 148 pd voices;
#X msg -2 111 60 127;
#X connect 1 0 2 0;
#X connect 2 0 20 0;
#X connect 2 1 6 0;
#X connect 2 2 5 0;
#X connect 2 3 5 0;
#X connect 2 4 9 0;
#X connect 4 0 10 1;
#X connect 5 0 4 0;
#X connect 6 0 9 0;
#X connect 7 0 10 0;
#X connect 7 1 11 0;
#X connect 7 2 13 0;
#X connect 7 3 14 0;
#X connect 7 4 15 0;
#X connect 7 5 16 0;
#X connect 7 6 17 0;
#X connect 7 7 18 0;
#X connect 9 0 7 0;
#X connect 9 0 19 0;
#X connect 10 0 0 0;
#X connect 11 0 0 0;
#X connect 12 0 9 0;
#X connect 13 0 0 0;
#X connect 14 0 0 0;
#X connect 15 0 0 0;
#X connect 16 0 0 0;
#X connect 17 0 0 0;
#X connect 18 0 0 0;
#X connect 20 0 9 0;
