#N canvas 1920 32 1920 1048 10;
#X obj 112 145 outlet~;
#X obj 112 61 inlet~;
#X obj 112 82 phasor~ \$1;
#X obj 199 61 inlet~;
#X obj 112 103 expr~ $v1 < $v2;
#X obj 199 82 atc~;
#X obj 112 124 cta~;
#X obj 332 118 inlet;
#X text 125 11 Basic pulse wave oscillator with modulatable pulse width.
;
#X text 100 43 frequency;
#X text 192 41 width (-1 to 1);
#X text 316 98 phase reset;
#X connect 1 0 2 0;
#X connect 2 0 4 0;
#X connect 3 0 5 0;
#X connect 4 0 6 0;
#X connect 5 0 4 1;
#X connect 6 0 0 0;
#X connect 7 0 2 1;
