#N canvas 1920 32 1920 1048 10;
#X obj 112 91 inlet~;
#X obj 112 112 phasor~ \$1;
#X obj 199 91 inlet~;
#X obj 112 133 expr~ $v1 < $v2;
#X obj 199 112 atc~;
#X obj 332 148 inlet;
#X text 125 11 Basic pulse wave oscillator with modulatable pulse width.;
#X text 100 43 frequency;
#X text 192 41 width (-1 to 1);
#X text 316 128 phase reset;
#X obj 112 69 lb \$1;
#X obj 199 68 lb \$2;
#X obj 112 154 *~ 2;
#X obj 112 175 -~ 1;
#X obj 112 198 outlet~;
#X connect 0 0 1 0;
#X connect 1 0 3 0;
#X connect 2 0 4 0;
#X connect 3 0 12 0;
#X connect 4 0 3 1;
#X connect 5 0 1 1;
#X connect 10 0 0 0;
#X connect 11 0 2 0;
#X connect 12 0 13 0;
#X connect 13 0 14 0;
