#N canvas 1920 32 2560 1566 10;
#X declare -path xr;
#X obj 72 101 inlet~;
#X obj 72 143 phasor~ \$1;
#X obj 207 101 inlet~;
#X obj 207 143 atc~;
#X obj 354 78 inlet;
#X text 85 21 Basic pulse wave oscillator with modulatable pulse width.;
#X text 60 53 frequency;
#X text 200 51 width (-1 to 1);
#X text 338 53 phase reset;
#X obj 72 79 lb \$1;
#X obj 207 78 lb \$2;
#X obj 72 186 outlet~;
#X obj 72 164 expr~ (($v1 < $v2)*2)-1;
#X obj 162 221 declare -path xr;
#X obj 207 122 *~ 0.9;
#X connect 0 0 1 0;
#X connect 1 0 12 0;
#X connect 2 0 14 0;
#X connect 3 0 12 1;
#X connect 4 0 1 1;
#X connect 9 0 0 0;
#X connect 10 0 2 0;
#X connect 12 0 11 0;
#X connect 14 0 3 0;
