#N canvas 0 29 1600 849 10;
#X obj 112 117 outlet~;
#X obj 112 41 inlet~;
#X obj 112 60 phasor~ \$1;
#X obj 199 41 inlet~;
#X text 240 41 takes input from -1 to 1;
#X obj 112 79 expr~ $v1 < $v2;
#X obj 199 60 atc~;
#X obj 112 98 cta~;
#X obj 332 98 inlet;
#X connect 1 0 2 0;
#X connect 2 0 5 0;
#X connect 3 0 6 0;
#X connect 5 0 7 0;
#X connect 6 0 5 1;
#X connect 7 0 0 0;
#X connect 8 0 2 1;
