#N canvas 0 0 800 410 10;
#X obj 253 16 inlet;
#X obj 253 54 shell;
#X obj 253 254 readsf~ 2;
#X obj 241 288 outlet~;
#X obj 291 288 outlet~;
#X msg 253 35 python /home/modula/misc/randomsong.py;
#X obj 289 56 bng 15 250 50 0 empty empty empty 17 7 0 10 -262144 -1
-1;
#X msg 253 235 open \$1 \, 1;
#X obj 253 216 symbol;
#X obj 341 288 outlet;
#X symbolatom 330 203 60 0 0 0 - - -;
#X obj 253 153 route new;
#X obj 330 94 route original time;
#X obj 385 113 * 1000;
#X obj 385 132 - 10000;
#X obj 385 170 del;
#X obj 385 151 max 0;
#X connect 0 0 5 0;
#X connect 1 0 11 0;
#X connect 1 1 6 0;
#X connect 2 0 3 0;
#X connect 2 1 4 0;
#X connect 2 2 9 0;
#X connect 5 0 1 0;
#X connect 7 0 2 0;
#X connect 8 0 7 0;
#X connect 11 0 8 0;
#X connect 11 1 9 0;
#X connect 11 1 12 0;
#X connect 12 0 10 0;
#X connect 12 1 13 0;
#X connect 13 0 14 0;
#X connect 14 0 16 0;
#X connect 16 0 15 0;
