#N canvas 0 0 1600 849 10;
#X obj 52 60 inlet;
#X obj 52 105 symbol;
#X msg 52 124 set \$1;
#X obj 52 188 outlet~;
#X obj 52 153 tabplay~;
#X obj 100 188 outlet;
#X obj 52 83 route table time size freq;
#X obj 128 102 bang;
#X obj 128 121 spigot \$1;
#X obj 321 88 spigot \$1;
#X connect 0 0 6 0;
#X connect 1 0 2 0;
#X connect 2 0 4 0;
#X connect 4 0 3 0;
#X connect 4 1 5 0;
#X connect 4 1 9 0;
#X connect 6 0 1 0;
#X connect 6 2 7 0;
#X connect 6 4 4 0;
#X connect 7 0 8 0;
#X connect 8 0 4 0;
#X connect 9 0 6 0;
