#N canvas 0 0 1600 870 10;
#X obj 63 -3 inlet;
#X obj 42 106 *~ 0;
#X obj 42 143 tabread4~;
#X obj 109 75 symbol;
#X msg 109 97 set \$1;
#X obj 14 4 inlet~;
#X obj 42 178 outlet~;
#X obj 63 20 route size table;
#X obj 63 62 - 2;
#X connect 0 0 7 0;
#X connect 1 0 2 0;
#X connect 2 0 6 0;
#X connect 3 0 4 0;
#X connect 4 0 2 0;
#X connect 5 0 1 0;
#X connect 7 0 8 0;
#X connect 7 1 3 0;
#X connect 8 0 1 1;
