#N canvas 0 0 800 849 10;
#X obj 29 343 tabwrite~ \$0-intab;
#X obj -95 362 pack 0 \$0;
#X obj 5 175 change;
#X obj 67 52 tgl 15 0 empty empty empty 17 7 0 10 -262144 -1 -1 0 1
;
#X msg -95 381 \; \$2-intab resize \$1;
#X floatatom -95 344 20 0 0 0 - - -;
#X obj 29 324 vd~ \$0-intox;
#X obj 2 235 timer;
#X obj -176 213 delwrite~ \$0-intox 30000;
#X obj -176 194 inlet~;
#X obj 67 7 inlet;
#X obj 87 76 loadbang;
#X obj 188 274 outlet;
#X obj 87 95 symbol \$0-intab;
#X msg 117 293 size \$1;
#X msg 164 192 table \$1;
#X obj 2 254 min 30000;
#X obj 52 52 bng 15 250 50 0 empty empty empty 17 7 0 10 -262144 -1
-1;
#X msg 76 182 freq \$1;
#X obj 200 142 soundfiler;
#X obj 200 68 bng 15 250 50 0 empty empty empty 17 7 0 10 -262144 -1
-1;
#X obj 200 85 savepanel;
#X msg 200 123 write -wave \$1 \$2-intab;
#X obj 200 104 pack symbol \$0;
#X obj 67 30 route float bang save;
#X msg 67 237 time \$1;
#X obj -95 325 * 44.1;
#X obj 76 163 expr 1/($f1/1000);
#X obj 239 188 table \$0-intab;
#X obj 5 194 sel 0;
#X obj 29 213 bang;
#X obj 5 156 != 0;
#X obj 2 273 t b f;
#X connect 1 0 4 0;
#X connect 2 0 29 0;
#X connect 3 0 31 0;
#X connect 5 0 1 0;
#X connect 6 0 0 0;
#X connect 7 0 16 0;
#X connect 9 0 8 0;
#X connect 10 0 24 0;
#X connect 11 0 13 0;
#X connect 13 0 15 0;
#X connect 14 0 12 0;
#X connect 15 0 12 0;
#X connect 16 0 25 0;
#X connect 16 0 27 0;
#X connect 16 0 32 0;
#X connect 17 0 13 0;
#X connect 18 0 12 0;
#X connect 20 0 21 0;
#X connect 21 0 23 0;
#X connect 22 0 19 0;
#X connect 23 0 22 0;
#X connect 24 0 3 0;
#X connect 24 1 3 0;
#X connect 24 2 20 0;
#X connect 25 0 12 0;
#X connect 26 0 5 0;
#X connect 26 0 14 0;
#X connect 27 0 18 0;
#X connect 29 0 7 1;
#X connect 29 1 30 0;
#X connect 30 0 7 0;
#X connect 31 0 2 0;
#X connect 32 0 0 0;
#X connect 32 1 26 0;
#X connect 32 1 6 0;
#X coords 0 -1 1 1 62 16 1 20 50;
