#N canvas 1920 32 1920 1048 10;
#X obj 118 104 inlet~;
#X obj 175 104 inlet;
#X obj 118 167 outlet~;
#X obj 118 125 phasor~ \$1;
#X obj 118 146 cta~;
#X text 96 13 Basic saw wave oscillator. Basically just a bipolar version of [phasor~].;
#X obj 118 83 lb \$1;
#X text 111 62 frequency;
#X text 180 86 phase reset;
#X connect 0 0 3 0;
#X connect 1 0 3 1;
#X connect 3 0 4 0;
#X connect 4 0 2 0;
#X connect 6 0 0 0;
