#N canvas 800 0 800 849 10;
#X obj 510 374 readsf~;
#X msg 387 379 1;
#X obj 556 455 table \$0-file 2;
#X obj 618 361 tgl 15 0 empty empty empty 17 7 0 10 -262144 -1 -1 0
1;
#X obj 535 615 outlet~;
#X obj 618 378 switch~ 4096 1 32;
#X obj 618 342 lb 0;
#X floatatom 247 539 15 0 0 0 - - -;
#X obj 287 349 t a a;
#X msg 247 576 \; \$2-file resize \$1;
#X obj 247 557 pack f \$0;
#X obj 247 372 route open;
#X obj 247 391 symbol;
#X obj 537 489 tabwrite~ \$0-file;
#X obj 583 607 outlet;
#X obj 583 547 symbol \$0-file;
#X floatatom 437 446 5 0 0 0 - - -;
#X msg 437 464 rate \$1;
#X msg 547 433 bang;
#X msg 381 508 length \$1;
#X obj 278 460 /;
#X obj 278 479 * 1000;
#X msg 294 506 time \$1;
#X obj 385 576 expr 1/$f1;
#X msg 404 604 freq \$1;
#X obj 583 528 loadbang;
#X msg 583 566 table \$1;
#X obj 243 299 inlet;
#X obj 124 420 soundfile_info;
#X msg 147 376 read \$1;
#X obj 135 459 t a a;
#X obj 162 478 list-idx 2;
#X obj 162 526 list-idx 0;
#X connect 0 0 4 0;
#X connect 0 0 13 0;
#X connect 1 0 0 0;
#X connect 1 0 18 0;
#X connect 3 0 5 0;
#X connect 6 0 3 0;
#X connect 7 0 10 0;
#X connect 7 0 19 0;
#X connect 8 0 0 0;
#X connect 8 1 11 0;
#X connect 10 0 9 0;
#X connect 11 0 12 0;
#X connect 12 0 29 0;
#X connect 15 0 26 0;
#X connect 16 0 17 0;
#X connect 17 0 14 0;
#X connect 18 0 13 0;
#X connect 19 0 14 0;
#X connect 20 0 21 0;
#X connect 20 0 23 0;
#X connect 21 0 22 0;
#X connect 22 0 14 0;
#X connect 23 0 24 0;
#X connect 24 0 14 0;
#X connect 25 0 15 0;
#X connect 26 0 14 0;
#X connect 27 0 8 0;
#X connect 28 0 30 0;
#X connect 29 0 28 0;
#X connect 30 0 32 0;
#X connect 30 1 31 0;
#X connect 31 0 20 1;
#X connect 31 0 16 0;
#X connect 32 0 20 0;
#X connect 32 0 7 0;
