#N canvas 0 0 1920 1048 10;
#X obj 40 40 inlet~;
#X obj 90 40 inlet~;
#X obj 40 110 outlet~;
#X obj 40 87 cos~;
#X obj 40 66 phasor~;
#X obj 40 16 lb \$1;
#X connect 0 0 4 0;
#X connect 1 0 3 0;
#X connect 3 0 2 0;
#X connect 4 0 3 0;
#X connect 5 0 0 0;
