#N canvas 0 29 2560 1566 10;
#X obj 179 137 inlet;
#X obj 264 465 outlet~;
#X obj 264 446 line~;
#X obj 264 378 pack f 0 1;
#X msg 264 427 \$2 \, \$3 \$1;
#X obj 142 298 /;
#X obj 142 243 mtof;
#X obj 279 340 /;
#X obj 264 359 f;
#X obj 255 297 t b b f;
#X obj 115 208 moses;
#X msg 115 339 0;
#X obj 179 184 f 60;
#X msg 398 427 \$1;
#X obj 398 449 del;
#X obj 398 471 outlet;
#X text 408 155 [snd~] midinote number controller - Convert incoming MIDI note numbers to an audio signal that can be used to drive [snd~].;
#X text 407 211 The first argument is the base note (defaults to 60). This can also be altered by sending a "base" message with the new base note as its argument.;
#X text 406 272 The first outlet is the audio signal for driving [snd~].;
#X msg 334 427 time \$1;
#X text 407 305 The second outlet sends a "time" message with the time that the note will play for \, and sends a bang when the note finishes playing.;
#X obj 179 156 route float time bang freq base stop;
#X msg 339 227 stop;
#X obj 182 229 sel 0;
#X msg 182 251 60;
#X obj 182 273 mtof;
#X obj 182 207 init \$1;
#X connect 0 0 21 0;
#X connect 2 0 1 0;
#X connect 3 0 4 0;
#X connect 3 0 13 0;
#X connect 3 0 19 0;
#X connect 4 0 2 0;
#X connect 5 0 9 0;
#X connect 6 0 5 0;
#X connect 7 0 8 1;
#X connect 8 0 3 0;
#X connect 9 0 8 0;
#X connect 9 1 7 0;
#X connect 9 2 7 1;
#X connect 10 0 11 0;
#X connect 10 1 6 0;
#X connect 11 0 2 0;
#X connect 12 0 10 0;
#X connect 13 0 14 0;
#X connect 14 0 15 0;
#X connect 19 0 15 0;
#X connect 21 0 12 0;
#X connect 21 1 7 0;
#X connect 21 2 12 0;
#X connect 21 4 26 0;
#X connect 21 5 22 0;
#X connect 22 0 2 0;
#X connect 23 0 24 0;
#X connect 23 1 25 0;
#X connect 24 0 25 0;
#X connect 25 0 5 1;
#X connect 26 0 23 0;
