#N canvas 0 0 1600 849 10;
#X obj 179 137 inlet;
#X obj 315 487 outlet~;
#X obj 315 468 line~;
#X obj 315 430 pack f 0 1;
#X msg 315 449 \$2 \, \$3 \$1;
#X obj 179 156 route float time freq;
#X obj 277 230 lb \$1 60;
#X obj 262 268 /;
#X obj 277 249 mtof;
#X obj 219 241 mtof;
#X text 430 276 sound control note - use midi notes to play sounds.
first argument is base note.;
#X obj 264 329 /;
#X obj 249 294 t b f;
#X connect 0 0 5 0;
#X connect 2 0 1 0;
#X connect 3 0 4 0;
#X connect 4 0 2 0;
#X connect 5 0 9 0;
#X connect 5 1 11 0;
#X connect 6 0 8 0;
#X connect 7 0 12 0;
#X connect 8 0 7 1;
#X connect 9 0 7 0;
#X connect 11 0 3 0;
#X connect 12 0 11 0;
#X connect 12 1 11 1;
