#N canvas 0 29 1600 849 10;
#X obj 179 137 inlet;
#X obj 264 435 outlet~;
#X obj 264 416 line~;
#X obj 264 378 pack f 0 1;
#X msg 264 397 \$2 \, \$3 \$1;
#X obj 182 224 lb \$1 60;
#X obj 142 268 /;
#X obj 182 243 mtof;
#X obj 142 243 mtof;
#X obj 279 340 /;
#X obj 179 156 route float time bang freq base;
#X obj 264 359 f;
#X obj 255 297 t b b f;
#X obj 115 208 moses;
#X msg 108 339 0;
#X obj 179 184 f 60;
#X text 430 276 sound control note - use midi notes numbers to play
sounds. first argument is base note (defaults to 60).;
#X connect 0 0 10 0;
#X connect 2 0 1 0;
#X connect 3 0 4 0;
#X connect 4 0 2 0;
#X connect 5 0 7 0;
#X connect 6 0 12 0;
#X connect 7 0 6 1;
#X connect 8 0 6 0;
#X connect 9 0 11 1;
#X connect 10 0 15 0;
#X connect 10 1 9 0;
#X connect 10 2 15 0;
#X connect 10 4 5 0;
#X connect 11 0 3 0;
#X connect 12 0 11 0;
#X connect 12 1 9 0;
#X connect 12 2 9 1;
#X connect 13 0 14 0;
#X connect 13 1 8 0;
#X connect 14 0 2 0;
#X connect 15 0 13 0;
