#N canvas 0 0 1600 849 10;
#X obj 154 249 +~ 1;
#X obj 154 287 outlet~;
#X obj 117 178 inlet~;
#X text -101 176 control sound with audio signal from 0 to 1;
#X floatatom 175 212 10 0 0 1 length - -;
#X obj 154 230 *~ 0;
#X obj 117 197 wrap~;
#X obj 309 72 inlet;
#X obj 184 101 route length table;
#X msg 236 245 set \$1;
#X obj 236 176 symbol;
#X obj 154 268 tabread4~;
#X obj 309 91 outlet;
#X connect 0 0 11 0;
#X connect 2 0 6 0;
#X connect 4 0 5 1;
#X connect 5 0 0 0;
#X connect 6 0 5 0;
#X connect 7 0 8 0;
#X connect 7 0 12 0;
#X connect 8 0 4 0;
#X connect 8 1 10 0;
#X connect 9 0 11 0;
#X connect 10 0 9 0;
#X connect 11 0 1 0;
#X coords 0 0 1 1 73 17 0;
