#N canvas 0 0 1600 849 10;
#X obj 308 287 inlet;
#X obj 332 442 snd~ \$1;
#X obj 332 461 outlet~;
#X obj 381 396 list prepend open;
#X obj 381 415 list trim;
#X text 515 379 sndf~ - just a shortcut for sndcf~ and snd~;
#X obj 332 423 sndcf~;
#X obj 274 333 inlet~;
#X obj 308 306 route open;
#X connect 0 0 8 0;
#X connect 1 0 2 0;
#X connect 1 1 6 1;
#X connect 3 0 4 0;
#X connect 4 0 1 1;
#X connect 6 0 1 0;
#X connect 7 0 6 0;
#X connect 8 0 3 0;
#X connect 8 1 6 1;
