#N canvas 1920 30 1920 1048 10;
#X obj 308 288 inlet;
#X obj 332 466 outlet~;
#X obj 381 399 list prepend open;
#X obj 381 419 list trim;
#X text 515 379 sndf~ - just a shortcut for sndcf~ and snd~;
#X obj 332 426 sndcf~;
#X obj 274 333 inlet~;
#X obj 308 308 route open;
#X obj 332 446 snd~;
#X obj 381 288 loadbang;
#X obj 381 328 pdcontrol;
#X msg 381 308 args 0;
#X connect 0 0 7 0;
#X connect 2 0 3 0;
#X connect 3 0 8 1;
#X connect 5 0 8 0;
#X connect 6 0 5 0;
#X connect 7 0 2 0;
#X connect 7 1 5 1;
#X connect 8 0 1 0;
#X connect 8 1 5 1;
#X connect 9 0 11 0;
#X connect 10 0 2 0;
#X connect 11 0 10 0;
