#N canvas 0 0 1600 849 10;
#X obj 275 287 inlet;
#X obj 332 442 snd~ \$1;
#X obj 332 461 outlet~;
#X obj 381 396 list prepend open;
#X obj 381 415 list trim;
#X obj 275 306 route open;
#X obj 332 423 sndcl~;
#X obj 341 287 inlet;
#X obj 377 287 inlet;
#X text 515 379 sndl~ - just a shortcut for sndcl~ and snd~;
#X connect 0 0 5 0;
#X connect 1 0 2 0;
#X connect 1 1 6 0;
#X connect 3 0 4 0;
#X connect 4 0 1 1;
#X connect 5 0 3 0;
#X connect 5 1 6 0;
#X connect 6 0 1 0;
#X connect 7 0 6 1;
#X connect 8 0 6 2;
