#N canvas 0 29 800 849 10;
#X obj 242 132 soundfiler;
#X msg 242 113 read -resize \$1 \$2-file;
#X obj 290 9 loadbang;
#X obj 290 38 f \$0;
#X obj 215 75 pack s f;
#X obj 308 132 table \$0-file;
#X obj 150 385 outlet~;
#X obj 215 37 symbol \$1;
#X obj 123 37 openpanel;
#X obj 106 37 bng 15 250 50 0 empty empty empty 17 7 0 10 -262144 -1
-1;
#X symbolatom -114 56 50 0 0 0 - - -;
#X obj 215 16 bng 15 250 50 0 empty empty empty 17 7 0 10 -262144 -1
-1;
#X obj 76 185 inlet;
#X obj 48 341 tabplay~ \$0-file;
#X obj 76 272 t b f;
#X msg 215 151 \; \$2-file normalize;
#X obj 250 360 outlet;
#X obj 76 250 / 127;
#X msg 76 223 127;
#X obj 76 204 route bang float open file;
#X obj 150 364 *~ 1;
#X obj 215 94 t a a;
#X obj 215 56 kfilename;
#X connect 1 0 0 0;
#X connect 2 0 3 0;
#X connect 2 0 7 0;
#X connect 3 0 4 1;
#X connect 4 0 21 0;
#X connect 7 0 10 0;
#X connect 7 0 22 0;
#X connect 8 0 7 0;
#X connect 9 0 8 0;
#X connect 11 0 7 0;
#X connect 12 0 19 0;
#X connect 13 0 20 0;
#X connect 13 1 16 0;
#X connect 14 0 13 0;
#X connect 14 1 20 1;
#X connect 17 0 14 0;
#X connect 18 0 17 0;
#X connect 19 0 18 0;
#X connect 19 1 17 0;
#X connect 19 2 7 0;
#X connect 19 3 7 0;
#X connect 20 0 6 0;
#X connect 21 0 15 0;
#X connect 21 1 1 0;
#X connect 22 0 4 0;
