#N canvas 0 0 1600 849 10;
#X obj -60 28 inlet~;
#X obj 298 24 inlet~;
#X obj 72 138 recsnd~;
#X obj -60 47 rec~;
#X obj 33 30 inlet;
#X obj 72 157 outlet~;
#X connect 0 0 3 0;
#X connect 1 0 2 0;
#X connect 2 0 5 0;
#X connect 3 0 2 1;
#X connect 4 0 3 1;
