#N canvas 0 0 1600 849 10;
#X obj 204 260 t a a;
#X obj 231 279 list length;
#X floatatom 231 298 5 0 0 0 - - -;
#X obj 189 348 map;
#X obj 158 222 inlet;
#X obj 158 241 route float list;
#X obj 121 262 t b f;
#X obj 148 281 t f f;
#X msg 189 406;
#X obj 148 300 + 1;
#X msg 189 367 add2 \$1;
#X obj 189 523 snd~ \$1;
#X msg 121 346 bang \, set;
#X obj 189 425 unpack;
#X obj 178 453 t b f;
#X msg 178 472 1;
#X obj 189 542 outlet~;
#X obj 189 504 sndcl~ 1;
#X text 307 237 sound slices - play snippets of a sound that has been
analyzed by [attack~];
#X connect 0 0 3 1;
#X connect 0 1 1 0;
#X connect 1 0 2 0;
#X connect 3 0 10 0;
#X connect 4 0 5 0;
#X connect 5 0 6 0;
#X connect 5 1 0 0;
#X connect 6 0 12 0;
#X connect 6 1 7 0;
#X connect 7 0 9 0;
#X connect 7 1 3 0;
#X connect 8 0 13 0;
#X connect 9 0 3 0;
#X connect 10 0 8 0;
#X connect 11 0 16 0;
#X connect 11 1 17 0;
#X connect 12 0 8 0;
#X connect 13 0 14 0;
#X connect 13 1 17 2;
#X connect 14 0 15 0;
#X connect 14 1 17 1;
#X connect 15 0 17 0;
#X connect 17 0 11 0;
