#N canvas 0 29 1600 849 10;
#X obj 250 -36 loadbang;
#X obj 110 121 table \$0-file;
#X obj 143 229 +~ 1;
#X obj 143 295 tabread4~ \$0-file;
#X obj 143 314 outlet~;
#X obj 175 -8 symbol \$1;
#X obj 143 172 inlet~;
#X obj 115 -8 openpanel;
#X obj 98 -8 bng 15 250 50 0 empty empty empty 17 7 0 10 -262144 -1
-1;
#X symbolatom -110 58 50 0 0 0 - - -;
#X obj 165 -29 bng 15 250 50 0 empty empty empty 17 7 0 10 -262144
-1 -1;
#X text -119 171 control sound with audio signal from 0 to 1;
#X floatatom 194 185 10 0 0 1 length - -;
#X floatatom 304 263 10 0 0 1 time_from_0_to_1_to_play_at_normal_speed
- -;
#X floatatom 448 178 20 0 0 1 freq - -;
#X obj 387 323 outlet;
#X msg 304 281 time \$1;
#X msg 448 196 freq \$1;
#X obj 448 159 expr 1/$f1;
#X obj 304 244 * 1000;
#X obj 175 -69 inlet;
#X obj 319 209 nbx 5 14 0 1e+37 0 0 empty empty sample_rate 56 8 0
10 -262144 -1 -1 44100 256;
#X obj 143 210 *~ 0;
#X obj 143 191 wrap~;
#X obj 280 158 wavinfo;
#X obj 304 225 /;
#X obj 194 121 soundfiler;
#X obj 194 146 f;
#X msg 480 312 table \$1;
#X obj 480 293 symbol \$0-file;
#X obj 480 274 loadbang;
#X msg 221 256 length \$1;
#X obj 463 278 bng 15 250 50 0 empty empty empty 17 7 0 10 -262144
-1 -1;
#X obj 194 57 pack s \$0;
#X obj 175 30 t a a a;
#X msg 387 243 rate \$1;
#X msg 194 80 read -maxsize 1.30148e+07 -resize \$1 \$2-file \; \$2-file
normalize;
#X obj 175 -50 route open;
#X obj 175 11 kfilename;
#X connect 0 0 5 0;
#X connect 2 0 3 0;
#X connect 3 0 4 0;
#X connect 5 0 38 0;
#X connect 6 0 23 0;
#X connect 7 0 5 0;
#X connect 8 0 7 0;
#X connect 10 0 5 0;
#X connect 12 0 22 1;
#X connect 12 0 31 0;
#X connect 13 0 16 0;
#X connect 14 0 17 0;
#X connect 16 0 15 0;
#X connect 17 0 15 0;
#X connect 17 0 32 0;
#X connect 18 0 14 0;
#X connect 19 0 13 0;
#X connect 20 0 37 0;
#X connect 21 0 25 1;
#X connect 22 0 2 0;
#X connect 23 0 22 0;
#X connect 24 3 21 0;
#X connect 24 3 35 0;
#X connect 25 0 18 0;
#X connect 25 0 19 0;
#X connect 26 0 27 0;
#X connect 27 0 12 0;
#X connect 27 0 25 0;
#X connect 28 0 15 0;
#X connect 29 0 28 0;
#X connect 30 0 29 0;
#X connect 31 0 15 0;
#X connect 32 0 29 0;
#X connect 33 0 36 0;
#X connect 34 0 9 0;
#X connect 34 1 33 0;
#X connect 34 2 24 0;
#X connect 35 0 15 0;
#X connect 36 0 26 0;
#X connect 37 0 5 0;
#X connect 38 0 34 0;
#X coords 0 0 1 1 73 17 0;
