#N canvas 2880 32 960 1048 10;
#X obj 297 17 loadbang;
#X obj 240 189 table \$0-file;
#X obj 273 302 +~ 1;
#X obj 273 365 tabread4~ \$0-file;
#X obj 273 385 outlet~;
#X obj 273 242 inlet~;
#X symbolatom 20 128 50 0 0 0 - - -;
#X text 11 241 control sound with audio signal from 0 to 1;
#X floatatom 324 255 10 0 0 1 length - -;
#X floatatom 593 288 20 0 0 1 freq - -;
#X obj 517 423 outlet;
#X msg 434 354 time \$1;
#X msg 593 307 freq \$1;
#X obj 434 315 * 1000;
#X obj 451 17 inlet;
#X obj 273 282 *~ 0;
#X obj 273 262 wrap~;
#X obj 434 295 /;
#X obj 324 189 soundfiler;
#X msg 593 382 table \$1;
#X obj 593 362 symbol \$0-file;
#X msg 351 326 length \$1;
#X obj 324 127 pack s \$0;
#X msg 517 313 rate \$1;
#X msg 324 147 read -maxsize 1.30148e+07 -resize \$1 \$2-file \; \$2-file
normalize;
#X obj 451 37 route open;
#X obj 297 82 kfilename;
#X floatatom 434 335 12 0 0 1 time - -;
#X floatatom 449 266 5 0 0 1 sample_rate - -;
#X obj 391 37 openpanel;
#X obj 391 20 bng 15 250 50 0 empty empty empty 17 7 0 10 -262144 -1
-1;
#X obj 297 37 dollarg 0;
#X obj 297 102 t a a;
#X obj 593 331 bang;
#X msg 381 209 \$1;
#X obj 381 229 t b f;
#X obj 593 268 /;
#X obj 593 228 t b f;
#X msg 593 248 1;
#X connect 0 0 31 0;
#X connect 2 0 3 0;
#X connect 3 0 4 0;
#X connect 5 0 16 0;
#X connect 8 0 15 1;
#X connect 8 0 21 0;
#X connect 8 0 17 0;
#X connect 9 0 12 0;
#X connect 11 0 10 0;
#X connect 12 0 10 0;
#X connect 12 0 33 0;
#X connect 13 0 27 0;
#X connect 14 0 25 0;
#X connect 15 0 2 0;
#X connect 16 0 15 0;
#X connect 17 0 13 0;
#X connect 17 0 37 0;
#X connect 18 0 8 0;
#X connect 18 1 34 0;
#X connect 19 0 10 0;
#X connect 20 0 19 0;
#X connect 21 0 10 0;
#X connect 22 0 24 0;
#X connect 23 0 10 0;
#X connect 24 0 18 0;
#X connect 25 0 26 0;
#X connect 26 0 32 0;
#X connect 27 0 11 0;
#X connect 28 0 23 0;
#X connect 28 0 17 1;
#X connect 29 0 25 0;
#X connect 30 0 29 0;
#X connect 31 0 26 0;
#X connect 32 0 6 0;
#X connect 32 1 22 0;
#X connect 33 0 20 0;
#X connect 34 0 35 0;
#X connect 35 0 8 0;
#X connect 35 1 28 0;
#X connect 36 0 9 0;
#X connect 37 0 38 0;
#X connect 37 1 36 1;
#X connect 38 0 36 0;
#X coords 0 0 1 1 73 17 0;
