#N canvas 2880 32 2560 1566 10;
#X obj 297 17 loadbang;
#X obj 297 206 table \$0-file;
#X obj 330 319 +~ 1;
#X obj 330 382 tabread4~ \$0-file;
#X obj 330 402 outlet~;
#X obj 330 259 inlet~;
#X symbolatom 77 145 50 0 0 0 - - - 0;
#X text 68 258 control sound with audio signal from 0 to 1;
#X floatatom 381 272 10 0 0 1 length - - 0;
#X floatatom 650 305 20 0 0 1 freq - - 0;
#X obj 574 440 outlet;
#X msg 491 371 time \$1;
#X msg 650 324 freq \$1;
#X obj 491 332 * 1000;
#X obj 417 37 inlet;
#X obj 330 299 *~ 0;
#X obj 330 279 wrap~;
#X obj 491 312 /;
#X obj 381 206 soundfiler;
#X msg 650 399 table \$1;
#X obj 650 379 symbol \$0-file;
#X msg 408 343 length \$1;
#X obj 381 144 pack s \$0;
#X msg 574 330 rate \$1;
#X floatatom 491 352 12 0 0 1 time - - 0;
#X floatatom 506 283 5 0 0 1 sample_rate - - 0;
#X obj 357 57 openpanel;
#X obj 354 119 t a a;
#X obj 650 348 bang;
#X msg 438 226 \$1;
#X obj 438 246 t b f;
#X obj 650 285 /;
#X obj 650 245 t b f;
#X msg 650 265 1;
#X obj 297 57 pdcontrol;
#X msg 297 37 args;
#X obj 354 99 symbol;
#X obj 297 78 route bang;
#X msg 381 164 read -resize \$1 \$2-file \; \$2-file normalize;
#X obj 461 76 route bang;
#X obj 357 37 bng 18 250 50 0 empty empty empty 0 -9 0 10 #fcfcfc #000000 #000000;
#X msg 631 161 filename \$1;
#X obj 417 57 route bang open;
#X connect 0 0 35 0;
#X connect 2 0 3 0;
#X connect 3 0 4 0;
#X connect 5 0 16 0;
#X connect 8 0 15 1;
#X connect 8 0 21 0;
#X connect 8 0 17 0;
#X connect 9 0 12 0;
#X connect 11 0 10 0;
#X connect 12 0 10 0;
#X connect 12 0 28 0;
#X connect 13 0 24 0;
#X connect 14 0 42 0;
#X connect 15 0 2 0;
#X connect 16 0 15 0;
#X connect 17 0 13 0;
#X connect 17 0 32 0;
#X connect 18 0 8 0;
#X connect 18 1 29 0;
#X connect 19 0 10 0;
#X connect 20 0 19 0;
#X connect 21 0 10 0;
#X connect 22 0 38 0;
#X connect 22 0 41 0;
#X connect 23 0 10 0;
#X connect 24 0 11 0;
#X connect 25 0 23 0;
#X connect 25 0 17 1;
#X connect 26 0 42 0;
#X connect 27 0 6 0;
#X connect 27 1 22 0;
#X connect 28 0 20 0;
#X connect 29 0 30 0;
#X connect 30 0 8 0;
#X connect 30 1 25 0;
#X connect 31 0 9 0;
#X connect 32 0 33 0;
#X connect 32 1 31 1;
#X connect 33 0 31 0;
#X connect 34 0 37 0;
#X connect 35 0 34 0;
#X connect 36 0 27 0;
#X connect 37 1 36 0;
#X connect 38 0 18 0;
#X connect 39 0 40 0;
#X connect 39 1 36 0;
#X connect 40 0 26 0;
#X connect 41 0 10 0;
#X connect 42 0 36 0;
#X connect 42 1 39 0;
#X coords 0 0 1 1 73 17 0;
