#N canvas 1920 30 1920 1050 10;
#X obj 445 5 loadbang;
#X obj 230 231 table \$0-file;
#X obj 263 339 +~ 1;
#X obj 263 405 tabread4~ \$0-file;
#X obj 263 424 outlet~;
#X obj 263 282 inlet~;
#X obj 235 102 openpanel;
#X obj 218 102 bng 15 250 50 0 empty empty empty 17 7 0 10 -262144
-1 -1;
#X symbolatom 10 168 50 0 0 0 - - -, f 50;
#X obj 422 79 bng 15 250 50 0 empty empty empty 17 7 0 10 -262144 -1
-1;
#X text 1 281 control sound with audio signal from 0 to 1;
#X floatatom 314 295 10 0 0 1 length - -, f 10;
#X floatatom 568 288 20 0 0 1 freq - -, f 20;
#X obj 507 433 outlet;
#X msg 424 391 time \$1;
#X msg 568 306 freq \$1;
#X obj 568 269 expr 1/$f1;
#X obj 424 354 * 1000;
#X obj 379 5 inlet;
#X obj 263 320 *~ 0;
#X obj 263 301 wrap~;
#X obj 400 268 wavinfo;
#X obj 424 335 /;
#X obj 314 231 soundfiler;
#X msg 600 422 table \$1;
#X obj 600 403 symbol \$0-file;
#X obj 600 384 loadbang;
#X msg 341 366 length \$1;
#X obj 583 388 bng 15 250 50 0 empty empty empty 17 7 0 10 -262144
-1 -1;
#X obj 314 167 pack s \$0;
#X obj 295 140 t a a a;
#X msg 507 353 rate \$1;
#X msg 314 190 read -maxsize 1.30148e+07 -resize \$1 \$2-file \; \$2-file
normalize;
#X obj 379 24 route open;
#X obj 295 121 kfilename;
#X floatatom 424 373 12 0 0 1 time - -, f 12;
#X floatatom 439 306 5 0 0 1 sample_rate - -, f 5;
#X obj 295 102 symbol;
#X obj 445 24 dollarg 0;
#X obj 460 62 spacesym;
#X obj 460 43 loadbang;
#X obj 445 81 list tosymbol;
#X connect 0 0 38 0;
#X connect 2 0 3 0;
#X connect 3 0 4 0;
#X connect 5 0 20 0;
#X connect 6 0 37 0;
#X connect 7 0 6 0;
#X connect 9 0 37 0;
#X connect 11 0 19 1;
#X connect 11 0 27 0;
#X connect 11 0 22 0;
#X connect 12 0 15 0;
#X connect 14 0 13 0;
#X connect 15 0 13 0;
#X connect 15 0 28 0;
#X connect 16 0 12 0;
#X connect 17 0 35 0;
#X connect 18 0 33 0;
#X connect 19 0 2 0;
#X connect 20 0 19 0;
#X connect 21 3 31 0;
#X connect 21 3 36 0;
#X connect 22 0 16 0;
#X connect 22 0 17 0;
#X connect 23 0 11 0;
#X connect 24 0 13 0;
#X connect 25 0 24 0;
#X connect 26 0 25 0;
#X connect 27 0 13 0;
#X connect 28 0 25 0;
#X connect 29 0 32 0;
#X connect 30 0 8 0;
#X connect 30 1 29 0;
#X connect 30 2 21 0;
#X connect 31 0 13 0;
#X connect 32 0 23 0;
#X connect 33 0 41 0;
#X connect 34 0 30 0;
#X connect 35 0 14 0;
#X connect 36 0 31 0;
#X connect 36 0 22 1;
#X connect 37 0 34 0;
#X connect 38 0 41 0;
#X connect 40 0 39 0;
#X connect 41 0 37 0;
#X coords 0 0 1 1 73 17 0;
