#N canvas 0 0 800 849 10;
#X obj 508 361 symbol \$0-foo;
#X msg 508 380 table \$1;
#X obj 322 470 outlet;
#X obj 508 344 bng 15 250 50 0 empty empty empty 17 7 0 10 -262144
-1 -1;
#X floatatom 204 391 10 0 0 1 time_from_0_to_1_to_play_at_normal_speed
- -;
#X floatatom 348 306 20 0 0 1 freq - -;
#X msg 204 409 time \$1;
#X msg 348 324 freq \$1;
#X obj 348 287 expr 1/$f1;
#X obj 204 372 * 1000;
#X obj 219 337 nbx 5 14 0 1e+37 0 0 empty empty sample_rate 56 8 0
10 -262144 -1 -1 0 256;
#X obj 221 316 wavinfo;
#X obj 204 353 /;
#X msg 167 434 length \$1;
#X obj 508 325 loadbang;
#X obj 93 102 inlet~;
#X msg 198 198 0;
#X obj 198 179 loadbang;
#X text 128 121 record inlet~;
#X obj 93 269 poke~ \$0-foo;
#X obj 276 154 table \$0-foo 1000;
#X text 332 116 todo: allow changing of table size...;
#X obj 281 89 inlet;
#X obj 198 217 count~ 0 1000;
#X text 317 38 signal-based rec~ (use signal input as table index possibly)
;
#X connect 0 0 1 0;
#X connect 1 0 2 0;
#X connect 3 0 0 0;
#X connect 4 0 6 0;
#X connect 5 0 7 0;
#X connect 6 0 2 0;
#X connect 7 0 2 0;
#X connect 8 0 5 0;
#X connect 9 0 4 0;
#X connect 10 0 12 1;
#X connect 11 3 10 0;
#X connect 12 0 8 0;
#X connect 12 0 9 0;
#X connect 13 0 2 0;
#X connect 14 0 3 0;
#X connect 15 0 19 0;
#X connect 16 0 23 0;
#X connect 17 0 16 0;
#X connect 23 0 19 1;
