#N canvas 1920 30 1920 1050 10;
#X obj 379 44 loadbang;
#X obj 272 309 +~ 1;
#X obj 215 402 outlet~;
#X obj 304 72 symbol \$1;
#X obj 272 252 inlet~;
#X obj 244 72 openpanel;
#X obj 227 72 bng 15 250 50 0 empty empty empty 17 7 0 10 -262144 -1
-1;
#X symbolatom 19 138 50 0 0 0 - - -, f 50;
#X obj 294 51 bng 15 250 50 0 empty empty empty 17 7 0 10 -262144 -1
-1;
#X text 10 251 control sound with audio signal from 0 to 1;
#X floatatom 323 265 10 0 0 1 length - -, f 10;
#X floatatom 433 343 10 0 0 1 time_from_0_to_1_to_play_at_normal_speed
- -, f 10;
#X floatatom 577 258 20 0 0 1 freq - -, f 20;
#X obj 516 403 outlet;
#X msg 433 361 time \$1;
#X msg 577 276 freq \$1;
#X obj 577 239 expr 1/$f1;
#X obj 433 324 * 1000;
#X obj 304 11 inlet;
#X obj 448 289 nbx 5 14 0 1e+37 0 0 empty empty sample_rate 56 8 0
10 -262144 -1 -1 0 256;
#X obj 272 290 *~ 0;
#X obj 272 271 wrap~;
#X obj 409 238 wavinfo;
#X obj 433 305 /;
#X obj 323 201 soundfiler;
#X obj 323 226 f;
#X msg 609 392 table \$1;
#X obj 609 354 loadbang;
#X msg 350 336 length \$1;
#X obj 592 358 bng 15 250 50 0 empty empty empty 17 7 0 10 -262144
-1 -1;
#X obj 323 137 pack s \$0;
#X obj 304 110 t a a a;
#X msg 516 323 rate \$1;
#X obj 304 30 route open;
#X obj 304 91 kfilename;
#X msg 323 160 read -maxsize 1.30148e+07 -resize \$1 \$2-file1 \$2-file2
\; \$2-file normalize;
#X obj 233 201 table \$0-file1;
#X obj 233 220 table \$0-file2;
#X obj 215 383 tabread4~ \$0-file1;
#X obj 329 402 outlet~;
#X obj 329 383 tabread4~ \$0-file2;
#X obj 609 373 symbol \$0-file1;
#X connect 0 0 3 0;
#X connect 1 0 38 0;
#X connect 1 0 40 0;
#X connect 3 0 34 0;
#X connect 4 0 21 0;
#X connect 5 0 3 0;
#X connect 6 0 5 0;
#X connect 8 0 3 0;
#X connect 10 0 20 1;
#X connect 10 0 28 0;
#X connect 11 0 14 0;
#X connect 12 0 15 0;
#X connect 14 0 13 0;
#X connect 15 0 13 0;
#X connect 15 0 29 0;
#X connect 16 0 12 0;
#X connect 17 0 11 0;
#X connect 18 0 33 0;
#X connect 19 0 23 1;
#X connect 20 0 1 0;
#X connect 21 0 20 0;
#X connect 22 3 19 0;
#X connect 22 3 32 0;
#X connect 23 0 16 0;
#X connect 23 0 17 0;
#X connect 24 0 25 0;
#X connect 25 0 10 0;
#X connect 25 0 23 0;
#X connect 26 0 13 0;
#X connect 27 0 41 0;
#X connect 28 0 13 0;
#X connect 29 0 41 0;
#X connect 30 0 35 0;
#X connect 31 0 7 0;
#X connect 31 1 30 0;
#X connect 31 2 22 0;
#X connect 32 0 13 0;
#X connect 33 0 3 0;
#X connect 34 0 31 0;
#X connect 35 0 24 0;
#X connect 38 0 2 0;
#X connect 40 0 39 0;
#X connect 41 0 26 0;
#X coords 0 0 1 1 73 17 0;
