#N canvas 1920 30 2560 1568 10;
#X obj 379 44 loadbang;
#X obj 272 290 +~ 1;
#X obj 215 383 outlet~;
#X obj 304 72 symbol \$1;
#X obj 272 233 inlet~;
#X obj 244 72 openpanel;
#X obj 227 72 bng 15 250 50 0 empty empty empty 17 7 0 10 #fcfcfc #000000 #000000;
#X symbolatom 19 119 50 0 0 0 - - - 0;
#X obj 294 51 bng 15 250 50 0 empty empty empty 17 7 0 10 #fcfcfc #000000 #000000;
#X text 10 232 control sound with audio signal from 0 to 1;
#X floatatom 323 246 10 0 0 1 length - - 0;
#X floatatom 433 324 10 0 0 1 time_from_0_to_1_to_play_at_normal_speed - - 0;
#X floatatom 577 239 20 0 0 1 freq - - 0;
#X obj 516 384 outlet;
#X msg 433 342 time \$1;
#X msg 577 257 freq \$1;
#X obj 577 220 expr 1/$f1;
#X obj 433 305 * 1000;
#X obj 304 11 inlet;
#X obj 448 270 nbx 5 14 0 1e+37 0 0 empty empty sample_rate 56 8 0 10 #fcfcfc #000000 #000000 0 256;
#X obj 272 271 *~ 0;
#X obj 272 252 wrap~;
#X obj 409 219 wavinfo;
#X obj 433 286 /;
#X obj 323 182 soundfiler;
#X obj 323 207 f;
#X msg 609 373 table \$1;
#X obj 609 335 loadbang;
#X msg 350 317 length \$1;
#X obj 592 339 bng 15 250 50 0 empty empty empty 17 7 0 10 #fcfcfc #000000 #000000;
#X obj 323 118 pack s \$0;
#X obj 304 91 t a a a;
#X msg 516 304 rate \$1;
#X obj 304 30 route open;
#X msg 323 141 read -maxsize 1.30148e+07 -resize \$1 \$2-file1 \$2-file2 \; \$2-file normalize;
#X obj 233 182 table \$0-file1;
#X obj 233 201 table \$0-file2;
#X obj 215 364 tabread4~ \$0-file1;
#X obj 329 383 outlet~;
#X obj 329 364 tabread4~ \$0-file2;
#X obj 609 354 symbol \$0-file1;
#X text 449 22 stsnd~ - Stereo sound buffer. Similar to snd~ but with 2 channels instead of 1;
#X text 448 59 Note that this may be deprecated now that Pd has the snake~ object.;
#X connect 0 0 3 0;
#X connect 1 0 37 0;
#X connect 1 0 39 0;
#X connect 3 0 31 0;
#X connect 4 0 21 0;
#X connect 5 0 3 0;
#X connect 6 0 5 0;
#X connect 8 0 3 0;
#X connect 10 0 20 1;
#X connect 10 0 28 0;
#X connect 11 0 14 0;
#X connect 12 0 15 0;
#X connect 14 0 13 0;
#X connect 15 0 13 0;
#X connect 15 0 29 0;
#X connect 16 0 12 0;
#X connect 17 0 11 0;
#X connect 18 0 33 0;
#X connect 19 0 23 1;
#X connect 20 0 1 0;
#X connect 21 0 20 0;
#X connect 22 3 19 0;
#X connect 22 3 32 0;
#X connect 23 0 16 0;
#X connect 23 0 17 0;
#X connect 24 0 25 0;
#X connect 25 0 10 0;
#X connect 25 0 23 0;
#X connect 26 0 13 0;
#X connect 27 0 40 0;
#X connect 28 0 13 0;
#X connect 29 0 40 0;
#X connect 30 0 34 0;
#X connect 31 0 7 0;
#X connect 31 1 30 0;
#X connect 31 2 22 0;
#X connect 32 0 13 0;
#X connect 33 0 3 0;
#X connect 34 0 24 0;
#X connect 37 0 2 0;
#X connect 39 0 38 0;
#X connect 40 0 26 0;
#X coords 0 0 1 1 73 17 0;
