#N canvas 1920 32 1920 1048 12;
#X obj 76 99 inlet~;
#X obj 181 62 inlet~;
#X obj 127 447 outlet~;
#X obj 180 147 *~ -1;
#X obj 180 174 +~ 1;
#X obj 76 272 *~;
#X obj 152 223 *~;
#X obj 127 321 min~;
#X obj 189 287 +~;
#X obj 152 248 *~ -1;
#X obj 127 371 *~;
#X obj 298 225 expr~ pow($v1*($v1-1) \, -1);
#X obj 181 88 atc~;
#X obj 127 396 +~ 0.5;
#X obj 127 421 *~ 2;
#X obj 278 89 inlet;
#X text 367 96 inlets: 1: frequency. 2: shape (-1 and 1 for up or down saw \, 0 for triangle). 3: phase reset.;
#X text 369 19 Basic triangle oscillator.;
#X text 368 49 Can be smoothly morphed to an upward or downward saw wave using its second signal inlet.;
#X obj 76 74 lb \$1;
#X obj 76 126 phasor~;
#X obj 181 37 lb \$2;
#X connect 0 0 20 0;
#X connect 1 0 12 0;
#X connect 3 0 4 0;
#X connect 4 0 6 1;
#X connect 4 0 8 1;
#X connect 5 0 7 0;
#X connect 6 0 9 0;
#X connect 7 0 10 0;
#X connect 8 0 7 1;
#X connect 9 0 8 0;
#X connect 10 0 13 0;
#X connect 11 0 10 1;
#X connect 12 0 5 1;
#X connect 12 0 3 0;
#X connect 12 0 11 0;
#X connect 13 0 14 0;
#X connect 14 0 2 0;
#X connect 15 0 20 1;
#X connect 19 0 0 0;
#X connect 20 0 5 0;
#X connect 20 0 6 0;
#X connect 21 0 1 0;
