#N canvas 0 20 1600 870 12;
#X obj 74 29 inlet~;
#X obj 280 21 inlet~;
#X obj 302 605 outlet~;
#X obj 280 157 *~ -1;
#X obj 280 194 +~ 1;
#X obj 174 282 *~;
#X obj 252 233 *~;
#X obj 227 431 min~;
#X obj 326 354 +~;
#X obj 259 274 *~ -1;
#X obj 302 529 *~;
#X obj 449 282 expr~ pow($v1*($v1-1) \, -1);
#X obj 96 136 phasor~ \$1;
#X text 329 22 accepts -1 to 1 to change shape;
#X obj 281 98 atc~;
#X obj 302 554 +~ 0.5;
#X obj 302 578 *~ 2;
#X obj 428 99 inlet;
#X obj 130 72 lb \$1;
#X connect 0 0 12 0;
#X connect 1 0 14 0;
#X connect 3 0 4 0;
#X connect 4 0 6 1;
#X connect 4 0 8 1;
#X connect 5 0 7 0;
#X connect 6 0 9 0;
#X connect 7 0 10 0;
#X connect 8 0 7 1;
#X connect 9 0 8 0;
#X connect 10 0 15 0;
#X connect 11 0 10 1;
#X connect 12 0 5 0;
#X connect 12 0 6 0;
#X connect 14 0 5 1;
#X connect 14 0 3 0;
#X connect 14 0 11 0;
#X connect 15 0 16 0;
#X connect 16 0 2 0;
#X connect 17 0 12 1;
#X connect 18 0 12 0;
