#N canvas 1680 29 1600 871 10;
#X obj 58 217 tracker;
#X obj 383 219 drumseq;
#X obj 651 220 anaseq;
#X obj 377 307 bng 15 250 50 0 empty empty empty 17 7 0 10 -262144
-1 -1;
#X obj 440 310 bng 15 250 50 0 empty empty empty 17 7 0 10 -262144
-1 -1;
#X obj 518 308 bng 15 250 50 0 empty empty empty 17 7 0 10 -262144
-1 -1;
#X obj 577 310 bng 15 250 50 0 empty empty empty 17 7 0 10 -262144
-1 -1;
#X obj 337 143 bpmm;
#X floatatom 656 398 5 0 0 0 - - -;
#X floatatom 711 395 5 0 0 0 - - -;
#X floatatom 777 397 5 0 0 0 - - -;
#X floatatom 849 397 5 0 0 0 - - -;
#X text 61 8 defaultxr's sequencer abstractions;
#X text 55 42 these are all slightly more complex sequencers. [tracker]
is basically a list of messages that can be edited using keyboard shortcuts
(open it to read more). [drumseq] is a multi-pattern drum sequencer.
there are 4 rows of 16 toggle boxes \, each box representing a step
\, and each row representing an outlet. [anaseq] is an "analog sequencer".
it too has multiple patterns and outlets. each step in the [anaseq]
can be enabled or disabled as well using the row of toggles at the
bottom.;
#X text 471 52 [bpmm] is a beats-per-minute abstraction. the left outlet
sends bangs on the downbeat \, as well as diagnostic messages (open
the abstraction for information). the second outlet outputs a bang
on each 16th note \, and the third outlet outputs floats ranging from
0 to 15 for each 16th note. you'll probably want to connect the third
outlet to these sequencers to keep them in sync. the fourth outlet
is a signal outlet that outputs in the range of 0 to 1 in sync with
the bpm.;
#X text 342 481 the best thing you can do is open each sequencer abstraction
and read the comments inside them! they're all fairly complex but relatively
simple to use once you understand them.;
#X text -107 404 also needed: [sbox];
#X floatatom -82 309 5 0 0 0 - - -;
#X obj -82 227 boxseq;
#X obj 58 409 tview;
#X obj 875 221 pattseq;
#X floatatom 872 343 5 0 0 0 - - -;
#X floatatom 961 329 5 0 0 0 - - -;
#X floatatom 1033 328 5 0 0 0 - - -;
#X floatatom 1112 321 5 0 0 0 - - -;
#X obj 357 447 bng 15 250 50 0 empty empty empty 17 7 0 10 -262144
-1 -1;
#X obj 420 450 bng 15 250 50 0 empty empty empty 17 7 0 10 -262144
-1 -1;
#X obj 498 448 bng 15 250 50 0 empty empty empty 17 7 0 10 -262144
-1 -1;
#X obj 557 450 bng 15 250 50 0 empty empty empty 17 7 0 10 -262144
-1 -1;
#X obj 363 359 drumseq2;
#X floatatom 594 443 5 0 0 0 - - -;
#X connect 0 0 19 0;
#X connect 1 0 3 0;
#X connect 1 1 4 0;
#X connect 1 2 5 0;
#X connect 1 3 6 0;
#X connect 2 0 8 0;
#X connect 2 1 9 0;
#X connect 2 2 10 0;
#X connect 2 3 11 0;
#X connect 7 1 18 0;
#X connect 7 1 29 0;
#X connect 7 2 0 0;
#X connect 7 2 1 0;
#X connect 7 2 2 0;
#X connect 7 2 20 0;
#X connect 18 0 17 0;
#X connect 20 0 21 0;
#X connect 20 1 22 0;
#X connect 20 2 23 0;
#X connect 20 3 24 0;
#X connect 29 0 25 0;
#X connect 29 1 26 0;
#X connect 29 2 27 0;
#X connect 29 3 28 0;
#X connect 29 4 30 0;
