#N canvas 0 0 800 849 10;
#X obj 280 352 snd~ \$1;
#X text 405 172 attacks - output attack locations in a soundfile.;
#X obj 280 371 fiddle~;
#X obj 293 440 snapshot~;
#X obj 280 313 sndcl~;
#X obj 346 168 t b a;
#X obj 280 148 inlet;
#X obj 280 167 bang;
#X obj 366 370 == 1;
#X obj 366 389 sel 1;
#X obj 366 351 snapshot~;
#X obj 416 297 metro 10;
#X obj 293 509 outlet;
#N canvas 0 0 787 849 list 0;
#X obj 40 40 inlet;
#X obj 40 572 outlet;
#X msg 40 59 add2 \$1;
#X msg 40 78 0.000889759 0.00145925 0.00227282 0.0032491 0.00491697
0.00593397 0.00642213 0.00821203 0.0105715 0.011263 0.0139073 0.016104
0.0169176 0.0202941 0.0255825 0.0265995 0.0277386 0.0283488 0.0287963
0.0294471 0.0301387 0.0311557 0.0324574 0.0327014 0.0329048 0.0339625
0.0348168 0.0359152 0.0366474 0.0377865 0.0383967 0.0398205 0.0414884
0.0451089 0.04637 0.0475904 0.0479972 0.0492176 0.0506821 0.0523906
0.0551162 0.0581265 0.0594283 0.0607301 0.0656503 0.0665446 0.06813
0.0723983 0.0736991 0.0800812 0.0889023 0.0945934 0.0952031 0.0975608
0.0984145 0.100569 0.101463 0.102764 0.103821 0.104309 0.105813 0.109512
0.111057 0.114512 0.11561 0.116219 0.11813 0.118699 0.119146 0.120122
0.120854 0.122358 0.124553 0.125121 0.129471 0.130162 0.130853 0.13126
0.131829 0.132276 0.132804 0.133251 0.134227 0.140975 0.14126 0.141869
0.142073 0.142601 0.143902 0.144552 0.145203 0.146747 0.147886 0.148089
0.148333 0.149715 0.150081 0.152194 0.152886 0.153129 0.154227 0.155772
0.156138 0.156747 0.157479 0.158007 0.158983 0.159918 0.16126 0.162682
0.164918 0.172072 0.174633 0.177194 0.178292 0.179308 0.180203 0.180894
0.1813 0.182276 0.182967 0.184024 0.184512 0.185568 0.186463 0.18939
0.195081 0.201625 0.204674 0.211341 0.215324 0.218007 0.218617 0.219024
0.219593 0.219796 0.221544 0.222154 0.222642 0.223292 0.224959 0.227316
0.228942 0.229755 0.231341 0.23191 0.233251 0.235121 0.237194 0.238983
0.241422 0.244552 0.247072 0.248333 0.24943 0.250082 0.252569 0.253588
0.256401 0.257339 0.262435 0.264066 0.265533 0.267694 0.268632 0.2701
0.271527 0.272587 0.285551 0.287182 0.28971 0.294602 0.295214 0.296314
0.297497 0.29819 0.298842 0.299576 0.300188 0.306099 0.327381 0.330846
0.335698 0.34218 0.343648 0.345238 0.346339 0.355145 0.356694 0.357102
0.357591 0.360853 0.362402 0.365827 0.36652 0.367457 0.367824 0.368069
0.368313 0.369904 0.370107 0.370719 0.37288 0.374959 0.375326 0.378506
0.380585 0.383031 0.3909 0.391756 0.393794 0.396404 0.398524 0.399258
0.405618 0.408349 0.412712 0.414057 0.414546 0.415158 0.415647 0.431343
0.43171 0.437133 0.44439 0.445001 0.44602 0.44708 0.448548 0.448996
0.452054 0.452951 0.45397 0.45556 0.457313 0.457762 0.458251 0.462491
0.467547 0.470931 0.476679 0.477087 0.483121 0.483202 0.483936 0.48467
0.484874 0.486138 0.486994 0.487728 0.488298 0.489073 0.491071 0.493313
0.494169 0.495066 0.496167 0.496819 0.497798 0.498654 0.499673 0.500241
0.503686 0.524559 0.52541 0.534611 0.535584 0.540123 0.541096 0.541623
0.541866 0.549162 0.550297 0.556052 0.557997 0.558565 0.559051 0.560429
0.565739 0.571089 0.573035 0.574615 0.575831 0.576885 0.577412 0.578141
0.57879 0.579195 0.58033 0.580817 0.581951 0.582316 0.582438 0.583289
0.58487 0.585315 0.585842 0.586329 0.588072 0.58868 0.588882 0.589977
0.591476 0.592165 0.594354 0.59484 0.596178 0.599582 0.603352 0.605581
0.605986 0.608256 0.610526 0.611904 0.612998 0.613201 0.615754 0.616727
0.617862 0.618754 0.620821 0.621631 0.622564 0.623374 0.626495 0.629332
0.633831 0.637114 0.642991 0.648301 0.653692 0.656448 0.660622 0.664797
0.665972 0.666824 0.667756 0.668445 0.669255 0.670066 0.670796 0.671323
0.672093 0.672782 0.673309 0.673795 0.674606 0.674768 0.675416 0.676065
0.677483 0.678456 0.681334 0.682833 0.684414 0.686035 0.686927 0.688021
0.689318 0.690089 0.691142 0.692845 0.696857 0.699492 0.701437 0.704518
0.70468 0.705288 0.707882 0.710151 0.712178 0.715461 0.716636 0.717366
0.718014 0.718582 0.719149 0.719717 0.720325 0.720811 0.746386 0.747116
0.747764 0.748332 0.748859 0.75202 0.752547 0.753641 0.754776 0.755749
0.757694 0.75964 0.760451 0.761748 0.762761 0.763815 0.764828 0.76576
0.766287 0.766976 0.767422 0.76803 0.787161 0.798834 0.802481 0.802684
0.803576 0.8054 0.806089 0.807264 0.807629 0.808115 0.81079 0.811479
0.81306 0.813344 0.814438 0.814681 0.816789 0.817154 0.817518 0.819383
0.819869 0.820801 0.821207 0.822382 0.823071 0.823558 0.824206 0.824368
0.82676 0.827408 0.828786 0.829273 0.830124 0.831664 0.833123 0.83369
0.834258 0.836122 0.837298 0.837784 0.838676 0.840297 0.841067 0.841594
0.842364 0.843296 0.844026 0.844431 0.847674 0.848282 0.849254 0.85124
0.854118 0.859833 0.861576 0.86498 0.868101 0.870128 0.871709 0.872803
0.879936 0.88403 0.884557 0.88557 0.885976 0.88707 0.887759 0.888043
0.888853 0.889218 0.891488 0.892217 0.892906 0.893109 0.895217 0.896027
0.896919 0.89777 0.898662 0.902472 0.903201 0.903404 0.90385 0.905228
0.905917 0.906646 0.907943 0.9092 0.909565 0.910092 0.910497 0.912767
0.913537 0.914753 0.916739 0.917387 0.918887 0.920265 0.921238 0.922129
0.923062 0.928898 0.935991 0.936923 0.93822 0.939031 0.939639 0.940368
0.970888 0.977941 0.981062 0.982683 0.983494 0.98402 0.984953 0.986736
0.988114 0.989533 0.989776 0.991357 0.992046 0.993464 0.993951 0.994923
0.996464 0.997558 0.998612;
#X obj 126 41 inlet;
#X msg 126 60 bang \, set;
#X connect 0 0 2 0;
#X connect 2 0 3 0;
#X connect 3 0 1 0;
#X connect 4 0 5 0;
#X connect 5 0 3 0;
#X restore 293 459 pd list;
#X msg 389 423 0;
#X obj 452 425 hsl 128 15 0 1 0 0 empty empty 100% -2 8 0 10 -262144
-1 -1 12700 1;
#X msg 280 217 2;
#X obj 449 387 * 100;
#X msg 449 406 label \$1%;
#X text 401 205 TODO: make this write the data to a file so it doesn't
have to constantly re-analyze.;
#X text 408 237 also make better attack detection (so there aren't
500 microscopic fragments for each sound);
#X connect 0 0 2 0;
#X connect 0 1 5 0;
#X connect 2 1 3 0;
#X connect 3 0 13 0;
#X connect 4 0 0 0;
#X connect 4 0 3 0;
#X connect 4 0 10 0;
#X connect 5 0 16 0;
#X connect 5 1 4 0;
#X connect 6 0 7 0;
#X connect 7 0 16 0;
#X connect 8 0 9 0;
#X connect 9 0 13 1;
#X connect 9 0 14 0;
#X connect 10 0 8 0;
#X connect 10 0 17 0;
#X connect 11 0 10 0;
#X connect 13 0 12 0;
#X connect 14 0 11 0;
#X connect 16 0 4 0;
#X connect 16 0 11 0;
#X connect 17 0 18 0;
#X connect 18 0 15 0;
