#N canvas 0 29 1680 1021 10;
#X obj 280 352 snd~ \$1;
#X text 405 172 attacks - output attack locations in a soundfile.;
#X obj 280 371 fiddle~;
#X obj 293 440 snapshot~;
#X obj 280 313 sndcl~;
#X obj 346 168 t b a;
#X obj 280 148 inlet;
#X obj 280 167 bang;
#X obj 366 370 == 1;
#X obj 366 389 sel 1;
#X obj 366 351 snapshot~;
#X obj 416 297 metro 10;
#X obj 293 509 outlet;
#N canvas 0 29 1600 849 list 0;
#X obj 40 40 inlet;
#X obj 40 572 outlet;
#X msg 40 59 add2 \$1;
#X msg 40 78 1.00086 1.00122 1.00148 1.00202 1.00224 0.0166407 0.0322424
0.0478439 0.0629251 0.0951682 0.126371 0.141455 0.157058 0.172661 0.188265
0.219471 0.235074 0.250678 0.266797 0.282917 0.313077 0.329716 0.359876
0.375475 0.391595 0.406675 0.422795 0.437874 0.469594 0.500273 0.5164
0.532007 0.547614 0.563221 0.594435 0.610562 0.625649 0.641255 0.656862
0.672989 0.688076 0.71929 0.734897 0.750504 0.766631 0.782758 0.797845
0.812931 0.830099 0.860272 0.875359;
#X obj 126 41 inlet;
#X msg 126 60 bang \, set;
#X obj 245 584 outlet;
#X obj 245 565 list length;
#X connect 0 0 2 0;
#X connect 2 0 3 0;
#X connect 3 0 1 0;
#X connect 3 0 7 0;
#X connect 4 0 5 0;
#X connect 5 0 3 0;
#X connect 7 0 6 0;
#X restore 293 459 pd list;
#X msg 389 423 0;
#X obj 469 397 * 100;
#X text 401 205 TODO: make this write the data to a file so it doesn't
have to constantly re-analyze.;
#X text 408 237 also make better attack detection (so there aren't
500 microscopic fragments for each sound);
#X obj 103 115 hsl 200 15 0 1 0 0 empty \$0-attacks 87.8675%_-_0_found
-2 8 0 10 -262144 -1 -1 17486 1;
#X obj 442 378 t f f;
#X obj 442 470 s \$0-attacks;
#X obj 442 432 pack f f f;
#X msg 442 451 label \$2%_-_\$3_found \, \$1;
#X msg 280 217 1;
#X connect 0 0 2 0;
#X connect 0 1 5 0;
#X connect 2 1 3 0;
#X connect 3 0 13 0;
#X connect 4 0 0 0;
#X connect 4 0 3 0;
#X connect 4 0 10 0;
#X connect 5 0 23 0;
#X connect 5 1 4 0;
#X connect 6 0 7 0;
#X connect 7 0 23 0;
#X connect 7 0 13 1;
#X connect 8 0 9 0;
#X connect 9 0 13 1;
#X connect 9 0 14 0;
#X connect 10 0 8 0;
#X connect 10 0 19 0;
#X connect 11 0 10 0;
#X connect 13 0 12 0;
#X connect 13 1 21 2;
#X connect 14 0 11 0;
#X connect 15 0 21 1;
#X connect 19 0 21 0;
#X connect 19 1 15 0;
#X connect 21 0 22 0;
#X connect 22 0 20 0;
#X connect 23 0 4 0;
#X connect 23 0 11 0;
#X coords 0 -1 1 1 205 30 1 100 100;
