#N canvas 0 29 1600 849 10;
#X obj 282 71 inlet;
#X obj 101 116 cnv 15 79 15 empty \$0-cnv 0 0 9 0 12 -262144 -1 0;
#X obj 309 178 list length;
#X obj 282 90 route list;
#X text 420 21 vlist - view a list;
#X floatatom 149 100 5 0 0 0 - - -;
#X obj 282 291 s \$0-cnv;
#X obj 282 159 t l l;
#X obj 297 221 spacesym;
#X obj 297 202 loadbang;
#X obj 282 240 l2s;
#X msg 282 259 label \$1 \, vis_size 79 15 \, label_font 0 12 \, color
0 22 \, label_pos 0 9;
#X obj 339 109 list;
#X msg 242 219 0;
#X connect 0 0 3 0;
#X connect 2 0 5 0;
#X connect 3 0 7 0;
#X connect 3 1 12 0;
#X connect 7 0 10 0;
#X connect 7 1 2 0;
#X connect 8 0 10 1;
#X connect 9 0 8 0;
#X connect 9 0 13 0;
#X connect 10 0 11 0;
#X connect 11 0 6 0;
#X connect 12 0 7 0;
#X connect 13 0 10 0;
#X coords 0 -1 1 1 81 32 1 100 100;
