#N canvas 0 29 1600 849 10;
#X floatatom 100 100 3 0 0 0 - - -;
#X floatatom 120 100 3 0 0 0 - - -;
#X floatatom 140 100 3 0 0 0 - - -;
#X obj 64 138 outlet;
#X obj 114 138 outlet;
#X obj 164 138 outlet;
#X obj 114 50 notein;
#X connect 0 0 3 0;
#X connect 1 0 4 0;
#X connect 2 0 5 0;
#X connect 6 0 0 0;
#X connect 6 1 1 0;
#X connect 6 2 2 0;
#X coords 0 -1 1 1 60 30 1 100 86;
