#N canvas 0 29 1600 849 10;
#N canvas 0 0 450 300 (subpatch) 0;
#X array \$0-scroll 200 float 0;
#X coords 0 1 199 0 200 140 1 0 0;
#X restore 100 114 graph;
#X obj 509 165 inlet~;
#X obj 246 100 nbx 5 14 1 5000 0 0 empty empty empty 0 -8 0 10 -262144
-1 -1 20 256;
#X obj 219 44 loadbang;
#X obj 219 63 t b b;
#X obj 232 100 tgl 14 0 empty empty empty 17 7 0 10 -262144 -1 -1 1
1;
#N canvas 0 29 1600 849 analysis 0;
#X obj 157 37 inlet~;
#X obj 37 37 inlet;
#X obj 157 56 env~;
#X obj 157 75 / 100;
#X floatatom 164 99 5 0 0 0 - - -;
#X obj 123 135 f;
#X floatatom 157 154 5 0 0 0 - - -;
#X obj 150 211 until;
#X obj 157 135 average 100;
#X floatatom 220 117 5 0 0 0 - - -;
#X obj 123 173 t f b;
#X obj 150 249 t f f;
#X obj 102 287 + 1;
#X obj 88 202 t f b;
#X obj 102 306 tabread \$0-scroll;
#X obj 130 357 tabwrite \$0-scroll;
#X obj 94 37 inlet;
#X obj 74 93 metro;
#X msg 150 192 200;
#X obj 150 230 count 200;
#X msg 115 221 199;
#X connect 0 0 2 0;
#X connect 1 0 17 0;
#X connect 2 0 3 0;
#X connect 3 0 4 0;
#X connect 3 0 5 1;
#X connect 3 0 8 0;
#X connect 5 0 10 0;
#X connect 7 0 19 0;
#X connect 8 0 6 0;
#X connect 9 0 8 1;
#X connect 10 0 13 0;
#X connect 10 1 18 0;
#X connect 11 0 12 0;
#X connect 11 1 15 1;
#X connect 12 0 14 0;
#X connect 13 0 15 0;
#X connect 13 1 20 0;
#X connect 14 0 15 0;
#X connect 16 0 17 1;
#X connect 17 0 5 0;
#X connect 18 0 7 0;
#X connect 19 0 11 0;
#X connect 20 0 15 1;
#X restore 346 248 pd analysis;
#X text 440 58 scrolling amplitude view;
#X msg 246 82 20;
#X connect 1 0 6 2;
#X connect 2 0 6 1;
#X connect 3 0 4 0;
#X connect 4 0 5 0;
#X connect 4 1 8 0;
#X connect 5 0 6 0;
#X connect 8 0 2 0;
#X coords 0 -1 1 1 200 154 2 100 100;
