#N canvas 0 29 800 849 10;
#X text 459 134 siga~ - signal analysis;
#X text 447 184 siga~ will show you the current value of the signal
\, the average value of the signal \, and the maximum and minimum detected
values. these values are all based on polling so you can't trust them
to be the actual maximum \, minimum \, average \, etc. there is also
a [vsl] which visualizes the current value of the signal as long as
it is within the range of -1 to 1;
#X text 443 289 the "r" [bng] button will reset the maximum and minimum
recorded values.;
#X obj 67 262 osc~ 9999;
#X obj 167 262 osc~ 0.5;
#X obj 267 291 siga~;
#X obj 267 262 +~ 50;
#X obj 267 232 osc~ 0.5;
#N canvas 0 29 800 849 META 0;
#X text 12 65 LIBRARY defaultxr;
#X text 12 85 AUTHOR modula t. worm;
#X text 12 105 WEBSITE http://github.com/defaultxr/pure-data-patches
;
#X text 12 125 RELEASE_DATE 2013;
#X text 12 5 KEYWORDS signal analysis average;
#X text 12 25 DESCRIPTION show statistics about the incoming signal
;
#X text 12 45 INLET_0 signal;
#X restore 550 357 pd META;
#X obj 67 291 siga~;
#X obj 167 291 siga~;
#X connect 3 0 9 0;
#X connect 4 0 10 0;
#X connect 6 0 5 0;
#X connect 7 0 6 0;
