#N canvas 0 29 800 849 10;
#X obj 140 313 signum~;
#X obj 140 268 osc~ 0.1;
#X text 298 163 signum~ - signal number;
#X text 293 202 basically like [unsig~] with a number box already attached.
because i'm lazy.;
#N canvas 0 29 800 849 META 0;
#X text 12 65 LIBRARY defaultxr;
#X text 12 85 AUTHOR modula t. worm;
#X text 12 105 WEBSITE http://github.com/defaultxr/pure-data-patches
;
#X text 12 125 RELEASE_DATE 2013;
#X text 12 5 KEYWORDS signal number view gui;
#X text 12 25 DESCRIPTION graphically view the current value of a signal
;
#X text 12 45 INLET_0 signal;
#X restore 390 286 pd META;
#X connect 1 0 0 0;
