#N canvas 0 29 1600 849 10;
#X obj 320 190 rfft~;
#X obj 266 250 tgl 15 0 empty empty empty 17 7 0 10 -262144 -1 -1 1
1;
#N canvas 51 367 1153 478 (subpatch) 0;
#X array \$0-spectrum 128 float 1;
#A 0 0 0 0 0 0 0 0 0 0 0 0 0 0 0 0 0 0 0 0 0 0 0 0 0 0 0 0 0 0 0 0
0 0 0 0 0 0 0 0 0 0 0 0 0 0 0 0 0 0 0 0 0 0 0 0 0 0 0 0 0 0 0 0 0 0
0 0 0 0 0 0 0 0 0 0 0 0 0 0 0 0 0 0 0 0 0 0 0 0 0 0 0 0 0 0 0 0 0 0
0 0 0 0 0 0 0 0 0 0 0 0 0 0 0 0 0 0 0 0 0 0 0 0 0 0 0 0 0;
#X coords 0 256 127 0 200 140 1 0 0;
#X restore 46 389 graph;
#X obj 320 222 *~;
#X obj 347 222 *~;
#X obj 320 285 biquad~ 0 0 0 0 1;
#X obj 266 267 metro 50;
#X obj 320 266 q8_sqrt~;
#X obj 52 37 block~ 4096;
#X obj 266 231 loadbang;
#X msg 196 280 \; pd dsp 1;
#X obj 320 171 inlet~;
#X obj 320 338 tabwrite~ \$0-spectrum;
#X obj 220 351 f \$0;
#X obj 248 375 sel \$0;
#X obj 220 332 loadbang;
#X obj 201 375 nbx 4 14 -1e+37 1e+37 0 0 empty empty empty 0 -8 0 10
-262144 -1 -1 1060 256;
#X obj 290 375 bang;
#X obj 320 313 /~ 5;
#X connect 0 0 3 0;
#X connect 0 0 3 1;
#X connect 0 1 4 0;
#X connect 0 1 4 1;
#X connect 1 0 6 0;
#X connect 3 0 7 0;
#X connect 4 0 7 0;
#X connect 5 0 18 0;
#X connect 6 0 12 0;
#X connect 7 0 5 0;
#X connect 9 0 1 0;
#X connect 9 0 10 0;
#X connect 11 0 0 0;
#X connect 13 0 16 0;
#X connect 14 1 17 0;
#X connect 15 0 13 0;
#X connect 16 0 14 0;
#X connect 17 0 13 0;
#X connect 18 0 12 0;
#X coords 0 -1 1 1 200 154 2 46 375;
