#N canvas 0 29 1600 849 10;
#X obj 100 115 cnv 15 150 69 empty \$0-cnv empty 1 35 0 12 -90133 -262144
0;
#N canvas 0 29 800 410 history 0;
#X obj 324 132 inlet;
#X obj 324 200 ilist;
#X msg 324 181 ins 5 \$1 \, bang;
#X obj 367 222 list length;
#X obj 367 260 sel 1;
#X obj 367 241 > 4;
#X msg 367 279 rem 0;
#X obj 324 304 outlet;
#X obj 428 82 loadbang;
#X obj 428 120 until;
#X msg 428 101 5;
#X obj 428 139 spacesym;
#X connect 0 0 2 0;
#X connect 1 0 3 0;
#X connect 1 0 7 0;
#X connect 2 0 1 0;
#X connect 3 0 5 0;
#X connect 4 0 6 0;
#X connect 5 0 4 0;
#X connect 6 0 1 0;
#X connect 8 0 10 0;
#X connect 9 0 11 0;
#X connect 10 0 9 0;
#X connect 11 0 2 0;
#X restore 402 294 pd history;
#X obj 300 25 inlet;
#X obj 300 63 route bang;
#N canvas 800 29 800 849 bang 0;
#X obj 33 100 inlet;
#X obj 33 194 outlet;
#X msg 33 175 symbol ;
#X obj 72 100 makefilename %c;
#X obj 72 62 loadbang;
#X msg 72 81 1;
#X obj 33 119 bang;
#X msg 72 119 set symbol \$1;
#X connect 0 0 6 0;
#X connect 2 0 1 0;
#X connect 3 0 7 0;
#X connect 4 0 5 0;
#X connect 5 0 3 0;
#X connect 6 0 2 0;
#X connect 7 0 2 0;
#X restore 300 175 pd bang;
#N canvas 0 29 1600 849 cnv 0;
#X obj 195 173 loadbang;
#X obj 63 314 s \$0-cnv;
#X msg 195 192 color 29 0 \, label_font 0 12 \, label_pos 1 35 \, label
\, vis_size 150 69;
#X obj 63 158 inlet;
#X msg 63 247 label \$1;
#X obj 78 209 makefilename %c;
#X msg 78 190 10;
#X obj 63 228 l2s;
#X text 223 260 when you use font 0 and size 12 \, each line will be
14 pixels high. so if you want to make this bigger you'll just have
to change vis_size and a few of the numbers in the "history" subpatch.
;
#X connect 0 0 2 0;
#X connect 0 0 6 0;
#X connect 2 0 1 0;
#X connect 3 0 7 0;
#X connect 4 0 1 0;
#X connect 5 0 7 1;
#X connect 6 0 5 0;
#X connect 7 0 4 0;
#X restore 402 313 pd cnv;
#X obj 357 101 sel bang;
#X text 462 116 tview - text view;
#X text 463 151 basically just a scrolling view of its input.;
#X obj 357 82 l2s;
#X obj 372 63 spacesym;
#X obj 372 44 loadbang;
#X obj 235 100 tgl 15 0 empty empty empty 17 7 0 10 -262144 -1 -1 1
1;
#X obj 300 44 spigot;
#X obj 235 81 loadbang;
#X obj 436 25 inlet;
#X connect 1 0 5 0;
#X connect 2 0 13 0;
#X connect 3 0 4 0;
#X connect 3 1 9 0;
#X connect 4 0 1 0;
#X connect 6 0 4 0;
#X connect 6 1 1 0;
#X connect 9 0 6 0;
#X connect 10 0 9 1;
#X connect 11 0 10 0;
#X connect 12 0 13 1;
#X connect 13 0 3 0;
#X connect 14 0 12 0;
#X connect 15 0 12 0;
#X coords 0 -1 1 1 150 84 1 100 100;
