#N canvas 0 29 1600 849 10;
#X obj 41 240 vcsig~;
#X obj 41 201 osc~ 0.25;
#X obj 181 240 vcsig~;
#X obj 181 162 osc~ 0.25;
#X obj 181 201 atc~;
#X text 379 108 vcsig~ - view control signal;
#X text 367 216 see also: [view~].;
#X text 353 153 allows you to see graphically the current value of
a signal \, assuming it's between 0 and 1 . if you'd rather view a
signal between -1 and 1 \, try [vsig~].;
#X connect 1 0 0 0;
#X connect 3 0 4 0;
#X connect 4 0 2 0;
