#N canvas 0 29 1600 849 10;
#X obj 404 256 inlet;
#X obj 404 275 route table size;
#N canvas 0 0 450 300 (subpatch) 0;
#X array \$0-vrec 100 float 2;
#X coords 0 1 99 -1 200 140 1;
#X restore 100 114 graph;
#X obj 488 379 arraycopy \$0-vrec;
#X msg 488 360 copy 1007-intab;
#X msg 404 313 set copy \$1;
#X obj 404 294 symbol;
#X obj 488 341 bang;
#X connect 0 0 1 0;
#X connect 1 0 6 0;
#X connect 1 1 7 0;
#X connect 4 0 3 0;
#X connect 5 0 4 0;
#X connect 6 0 5 0;
#X connect 7 0 4 0;
#X coords 0 -1 1 1 200 154 2 100 100;
