#N canvas 0 439 800 410 10;
#X obj 168 166 plugin~ alias;
#X obj 243 92 inlet~;
#X obj 243 211 outlet~;
#X msg 126 169 info;
#X obj 132 203 print alias;
#X obj 374 90 inlet;
#X msg 326 142 control #1 \$1;
#X obj 326 123 clip 0 1;
#X obj 326 90 lb \$1 1;
#X connect 0 0 4 0;
#X connect 0 1 2 0;
#X connect 1 0 0 1;
#X connect 3 0 0 0;
#X connect 5 0 7 0;
#X connect 6 0 0 0;
#X connect 7 0 6 0;
#X connect 8 0 7 0;
