#N canvas 0 0 800 871 10;
#X obj 74 68 inlet~;
#X obj 150 182 plugin~ amPitchshift;
#X obj 208 66 inlet;
#X msg 91 141 control #1 \$1;
#X msg 181 148 control #2 \$1;
#X obj 270 224 outlet~;
#X obj 330 85 max 1;
#X obj 330 104 min 7;
#X obj 208 85 max 0.25;
#X obj 208 104 min 4;
#X obj 160 66 lb \$1 1;
#X obj 282 66 lb \$2 3;
#X obj 330 66 inlet;
#X text 177 51 pitch shift;
#X text 292 52 buffer size;
#X connect 0 0 1 1;
#X connect 1 1 5 0;
#X connect 2 0 8 0;
#X connect 3 0 1 0;
#X connect 4 0 1 0;
#X connect 6 0 7 0;
#X connect 7 0 4 0;
#X connect 8 0 9 0;
#X connect 9 0 3 0;
#X connect 10 0 8 0;
#X connect 11 0 6 0;
#X connect 12 0 6 0;
