#N canvas 0 0 800 421 10;
#X obj 62 252 inlet~;
#X obj 348 350 outlet~;
#X msg 127 238 control #1 \$1;
#X msg 223 238 control #2 \$1;
#X obj 91 181 inlet;
#X msg 319 238 control #3 \$1;
#X msg 415 238 control #4 \$1;
#X obj 187 181 inlet;
#X obj 223 200 min 1;
#X obj 223 219 max 0;
#X obj 283 181 inlet;
#X obj 319 200 min 1;
#X obj 319 219 max 0;
#X obj 379 181 inlet;
#X obj 415 200 min 1;
#X obj 415 181 lb \$4;
#X obj 268 289 plugin~ autoPhaser;
#X obj 127 181 lb \$1 0.2;
#X obj 223 181 lb \$2 0.2;
#X text 96 166 attack time (s);
#X text 192 167 decay time (s);
#X text 287 168 modulation depth;
#X obj 127 200 min 1;
#X obj 127 219 max 0;
#X text 391 168 feedback;
#X obj 319 181 lb \$3 0.5;
#X obj 415 219 max -1;
#X obj 469 181 inlet;
#X text 473 168 spread (octaves);
#X obj 505 200 min 2;
#X obj 505 219 max 0;
#X obj 505 181 lb \$5 1;
#X msg 505 238 control #5 \$1;
#X connect 0 0 16 1;
#X connect 2 0 16 0;
#X connect 3 0 16 0;
#X connect 4 0 22 0;
#X connect 5 0 16 0;
#X connect 6 0 16 0;
#X connect 7 0 8 0;
#X connect 8 0 9 0;
#X connect 9 0 3 0;
#X connect 10 0 11 0;
#X connect 11 0 12 0;
#X connect 12 0 5 0;
#X connect 13 0 14 0;
#X connect 14 0 26 0;
#X connect 15 0 14 0;
#X connect 16 1 1 0;
#X connect 17 0 22 0;
#X connect 18 0 8 0;
#X connect 22 0 23 0;
#X connect 23 0 2 0;
#X connect 25 0 11 0;
#X connect 26 0 6 0;
#X connect 27 0 29 0;
#X connect 29 0 30 0;
#X connect 30 0 32 0;
#X connect 31 0 29 0;
#X connect 32 0 16 0;
