#N canvas 0 0 1600 871 10;
#X obj 529 207 inlet~;
#X obj 529 249 *~;
#N canvas 0 0 450 300 (subpatch) 0;
#X array \$0-bitcrush 7 float 3;
#A 0 0 -1 1 0 0 0 0;
#X coords 0 1 7 -1 200 140 1;
#X restore 642 297 graph;
#X obj 555 249 tabosc4~ \$0-bitcrush;
#X obj 529 284 outlet~;
#X obj 601 164 inlet;
#X obj 719 276 tabwrite \$0-bitcrush;
#X obj 658 215 unpack;
#X obj 707 124 pack 0 0;
#X msg 702 77 0;
#X msg 729 77 1;
#X msg 756 77 -1;
#X msg 707 143 array \$1 \$2;
#X obj 772 115 nbx 5 14 0 7 0 0 empty empty empty 0 -8 0 10 -262144
-1 -1 7 256;
#X obj 601 183 route float array bang;
#X text 764 196 todo: add randomization for the table;
#X obj 579 225 lb \$1 9000;
#X obj 585 80 rchoice;
#X obj 633 80 count 8;
#X obj 601 15 until;
#X msg 601 -4 8;
#X msg 585 61 1 -1 0;
#X obj 601 36 t b b;
#X connect 0 0 1 0;
#X connect 1 0 4 0;
#X connect 3 0 1 1;
#X connect 5 0 14 0;
#X connect 7 0 6 0;
#X connect 7 1 6 1;
#X connect 8 0 12 0;
#X connect 9 0 8 0;
#X connect 10 0 8 0;
#X connect 11 0 8 0;
#X connect 12 0 14 0;
#X connect 13 0 8 1;
#X connect 14 0 3 0;
#X connect 14 1 7 0;
#X connect 14 2 20 0;
#X connect 16 0 3 0;
#X connect 17 0 8 0;
#X connect 18 0 13 0;
#X connect 19 0 22 0;
#X connect 20 0 19 0;
#X connect 21 0 17 0;
#X connect 22 0 21 0;
#X connect 22 1 18 0;
