#N canvas 0 450 800 421 10;
#X obj 115 26 inlet~;
#X obj 169 24 inlet;
#X msg 124 120 control #1 \$1;
#X obj 235 198 outlet~;
#X obj 77 60 lb \$1;
#X obj 165 192 outlet~;
#X obj 179 58 min 5000;
#X obj 175 78 max 0;
#X obj 124 139 plugin~ bodeShifter;
#X text 162 208 down-out;
#X text 232 213 up-out;
#X connect 0 0 8 1;
#X connect 1 0 6 0;
#X connect 2 0 8 0;
#X connect 4 0 2 0;
#X connect 6 0 7 0;
#X connect 7 0 2 0;
#X connect 8 1 5 0;
#X connect 8 2 3 0;
