#N canvas 0 29 1600 849 10;
#X obj -38 138 inlet~;
#X obj 164 70 inlet;
#X obj 191 221 outlet~;
#X obj 276 70 inlet;
#X obj 368 70 inlet;
#X obj 458 70 inlet;
#X obj 4 138 inlet~;
#X obj 239 221 outlet~;
#X msg 334 130 control #2 \$1;
#X text 256 18 cfilter~ - calf filter;
#X text 97 57 mode;
#X obj 154 92 clip 0 11;
#X obj 154 111 int;
#X obj 98 70 lb \$1 1;
#X msg 154 130 control #3 \$1;
#X text 215 57 frequency;
#X obj 243 92 clip 10 20000;
#X obj 210 70 lb \$2 1000;
#X text 332 57 resonance;
#X obj 334 92 clip 0.707 32;
#X obj 320 70 lb \$3 1;
#X text 407 57 inertia;
#X obj 424 92 clip 5 100;
#X obj 404 70 lb \$4 10;
#X msg 243 130 control #1 \$1;
#X msg 424 130 control #4 \$1;
#X msg 46 178 info;
#X obj 67 200 print calf-filter;
#X text 312 168 modes \; 0- 12dB/oct Lowpass \; 1- 24dB/oct Lowpass
\; 2- 36dB/oct Lowpass \; 3- 12dB/oct Highpass \; 4- 24dB/oct Highpass
\; 5- 36dB/oct Highpass \; 6- 6dB/oct Bandpass \; 7- 12dB/oct Bandpass
\; 8- 18dB/oct Bandpass \; 9- 6dB/oct Bandreject \; 10- 12dB/oct Bandreject
\; 11- 18dB/oct Bandreject;
#X obj 154 169 plugin~ Filter;
#X connect 0 0 29 1;
#X connect 1 0 11 0;
#X connect 3 0 16 0;
#X connect 4 0 19 0;
#X connect 5 0 22 0;
#X connect 6 0 29 2;
#X connect 8 0 29 0;
#X connect 11 0 12 0;
#X connect 12 0 14 0;
#X connect 13 0 11 0;
#X connect 14 0 29 0;
#X connect 16 0 24 0;
#X connect 17 0 16 0;
#X connect 19 0 8 0;
#X connect 20 0 19 0;
#X connect 22 0 25 0;
#X connect 23 0 22 0;
#X connect 24 0 29 0;
#X connect 25 0 29 0;
#X connect 26 0 29 0;
#X connect 29 0 27 0;
#X connect 29 1 2 0;
#X connect 29 2 7 0;
