#N canvas 0 29 800 849 10;
#X obj 271 210 inlet~;
#X obj 351 210 inlet~;
#X obj 438 211 inlet;
#N canvas 0 29 800 849 pitchshift 0;
#X obj -16 55 inlet~;
#X obj 68 55 inlet~;
#X obj 273 25 inlet;
#X obj -16 308 outlet~;
#X obj 68 308 outlet~;
#X obj 68 289 pitchshifter~;
#X floatatom 160 115 5 0 0 0 shift - -;
#X obj 160 -6 unpack;
#X obj 160 13 * 12;
#X obj 177 100 tgl 15 0 empty empty empty 17 7 0 10 -262144 -1 -1 0
1;
#X obj 273 44 route float bang;
#X obj -16 289 pitchshifter~;
#X obj 124 196 *;
#X obj 124 174 t b f;
#X text 239 121 tried window for the second parameter and it sounded
weird...;
#X connect 0 0 11 0;
#X connect 1 0 5 0;
#X connect 2 0 10 0;
#X connect 5 0 4 0;
#X connect 6 0 12 0;
#X connect 7 0 8 0;
#X connect 8 0 6 0;
#X connect 9 0 13 0;
#X connect 10 0 9 0;
#X connect 10 1 9 0;
#X connect 10 2 7 0;
#X connect 11 0 3 0;
#X connect 12 0 5 1;
#X connect 12 0 11 1;
#X connect 13 0 12 0;
#X connect 13 1 12 1;
#X coords 0 -1 1 1 92 47 1 100 100;
#X restore 271 288 pd pitchshift;
#X obj 271 433 outlet~;
#X obj 356 433 outlet~;
#N canvas 0 29 800 849 lowpass 0;
#X obj 90 40 inlet~;
#X obj 90 411 outlet~;
#X obj 190 40 inlet~;
#X obj 190 411 outlet~;
#X obj 177 100 tgl 15 0 empty empty empty 17 7 0 10 -262144 -1 -1 0
1;
#X obj 232 40 inlet;
#X obj 325 78 unpack;
#X obj 232 59 route float bang;
#X obj 325 97 + 1;
#X obj 325 116 * 63.5;
#X obj 90 279 moog~;
#X obj 190 279 moog~;
#X obj 384 109 + 1;
#X obj 90 348 *~;
#X obj 190 348 *~;
#X obj -40 376 *~;
#X obj 60 376 *~;
#X obj 251 360 kinv~;
#X obj 103 115 hsl 87 15 0 127 0 0 empty empty freq -2 5 0 10 -262144
-1 -1 0 1;
#X obj 172 205 mtof;
#X obj 103 130 hsl 87 15 0 4 0 0 empty empty res -2 5 0 10 -262144
-1 -1 0 1;
#X obj 172 186 + 10;
#X obj 384 128 * 1;
#X obj 172 224 aline~ 50;
#X obj 100 226 aline~ 50;
#X obj 251 302 aline~ 5;
#X connect 0 0 10 0;
#X connect 0 0 15 0;
#X connect 2 0 11 0;
#X connect 2 0 16 0;
#X connect 4 0 25 0;
#X connect 5 0 7 0;
#X connect 6 0 8 0;
#X connect 6 1 12 0;
#X connect 7 0 4 0;
#X connect 7 1 4 0;
#X connect 7 2 6 0;
#X connect 8 0 9 0;
#X connect 9 0 18 0;
#X connect 10 0 13 0;
#X connect 11 0 14 0;
#X connect 12 0 22 0;
#X connect 13 0 1 0;
#X connect 14 0 3 0;
#X connect 15 0 1 0;
#X connect 16 0 3 0;
#X connect 17 0 16 1;
#X connect 17 0 15 1;
#X connect 18 0 21 0;
#X connect 19 0 23 0;
#X connect 20 0 24 0;
#X connect 21 0 19 0;
#X connect 23 0 11 1;
#X connect 23 0 10 1;
#X connect 24 0 11 2;
#X connect 24 0 10 2;
#X connect 25 0 14 1;
#X connect 25 0 13 1;
#X connect 25 0 17 0;
#X coords 0 -1 1 1 92 47 1 100 100;
#X restore 271 356 pd lowpass;
#X obj 438 230 route effect next prev;
#X obj 519 379 route 0 1 2;
#X obj 438 273 num;
#X obj 438 292 clip 0 2;
#X msg 481 249 a 1;
#X msg 524 249 s 1;
#X obj 519 360 list prepend 0;
#X floatatom 468 331 5 0 0 0 - - -;
#X msg 492 292 set \$1;
#X connect 0 0 3 0;
#X connect 1 0 3 1;
#X connect 2 0 7 0;
#X connect 3 0 6 0;
#X connect 3 1 6 1;
#X connect 6 0 4 0;
#X connect 6 1 5 0;
#X connect 7 0 9 0;
#X connect 7 1 11 0;
#X connect 7 2 12 0;
#X connect 7 3 13 0;
#X connect 8 0 3 2;
#X connect 8 1 6 2;
#X connect 9 0 10 0;
#X connect 10 0 13 1;
#X connect 10 0 14 0;
#X connect 10 0 15 0;
#X connect 11 0 9 0;
#X connect 12 0 9 0;
#X connect 13 0 8 0;
#X connect 15 0 9 0;
