#N canvas 0 29 1600 849 10;
#X obj 242 274 inlet~;
#X obj 380 489 vd~ \$0-chorus;
#X obj 380 451 atc~;
#X obj 242 293 delwrite~ \$0-chorus 50;
#X obj 434 293 inlet;
#X obj 380 358 phasor~;
#X obj 380 432 cos~;
#X obj 464 489 vd~ \$0-chorus;
#X obj 464 451 atc~;
#X obj 464 432 cos~;
#X obj 548 489 vd~ \$0-chorus;
#X obj 548 451 atc~;
#X obj 548 432 cos~;
#X obj 632 489 vd~ \$0-chorus;
#X obj 632 451 atc~;
#X obj 632 432 cos~;
#X obj 520 331 clip 0 50;
#X obj 380 293 lb \$1 8;
#X obj 397 261 bng 15 250 50 0 empty empty empty 17 7 0 10 -262144
-1 -1;
#X floatatom 380 243 5 0 0 0 - - -;
#X obj 434 312 route freq float depth;
#X obj 499 568 /~ 4;
#X obj 499 587 outlet~;
#X msg 502 254 depth \$1;
#X floatatom 502 236 5 0 0 0 - - -;
#X obj 464 413 +~;
#X obj 548 413 +~;
#X obj 632 413 +~;
#X obj 380 470 *~ 20;
#X obj 464 470 *~ 20;
#X obj 548 470 *~ 20;
#X obj 632 470 *~ 20;
#X obj 647 347 sig~ 0.25;
#X obj 647 366 sig~ 0.5;
#X obj 647 385 sig~ 0.75;
#X obj 505 219 hsl 128 15 0 50 0 0 empty empty empty -2 -8 0 10 -262144
-1 -1 1100 1;
#X connect 0 0 3 0;
#X connect 1 0 21 0;
#X connect 2 0 28 0;
#X connect 4 0 20 0;
#X connect 5 0 6 0;
#X connect 5 0 25 0;
#X connect 5 0 26 0;
#X connect 5 0 27 0;
#X connect 6 0 2 0;
#X connect 7 0 21 0;
#X connect 8 0 29 0;
#X connect 9 0 8 0;
#X connect 10 0 21 0;
#X connect 11 0 30 0;
#X connect 12 0 11 0;
#X connect 13 0 21 0;
#X connect 14 0 31 0;
#X connect 15 0 14 0;
#X connect 16 0 28 1;
#X connect 16 0 29 1;
#X connect 16 0 30 1;
#X connect 16 0 31 1;
#X connect 17 0 5 0;
#X connect 18 0 17 0;
#X connect 19 0 17 0;
#X connect 20 0 5 0;
#X connect 20 1 5 0;
#X connect 20 2 16 0;
#X connect 21 0 22 0;
#X connect 23 0 20 0;
#X connect 24 0 23 0;
#X connect 25 0 9 0;
#X connect 26 0 12 0;
#X connect 27 0 15 0;
#X connect 28 0 1 0;
#X connect 29 0 7 0;
#X connect 30 0 10 0;
#X connect 31 0 13 0;
#X connect 32 0 25 1;
#X connect 33 0 26 1;
#X connect 34 0 27 1;
#X connect 35 0 24 0;
