#N canvas 0 0 450 300 10;
#X obj 135 131 plugin~ combSplitter;
#X msg 132 110 control #1 \$1;
#X obj 156 58 inlet~;
#X obj 226 57 inlet;
#X obj 175 177 outlet~;
#X obj 238 178 outlet~;
#X obj 237 83 lb \$1;
#X connect 0 1 4 0;
#X connect 0 2 5 0;
#X connect 1 0 0 0;
#X connect 2 0 0 1;
#X connect 3 0 1 0;
#X connect 6 0 1 0;
