#N canvas 0 29 1600 849 10;
#X obj 170 22 inlet~;
#X obj 171 65 *~ 100;
#X obj 171 84 limit~;
#X obj 171 103 outlet~;
#X obj 212 22 inlet;
#X obj 229 48 lb \$1 100;
#X connect 0 0 1 0;
#X connect 1 0 2 0;
#X connect 2 0 3 0;
#X connect 4 0 1 1;
#X connect 5 0 1 1;
