#N canvas 0 0 800 410 10;
#X obj -48 128 inlet~;
#X obj 98 30 inlet;
#X msg 144 120 control #1 \$1;
#X obj 182 212 outlet~;
#X obj 260 60 inlet;
#X obj 363 60 inlet;
#X obj 447 60 inlet;
#X obj 399 60 lb \$4 2;
#X obj 531 60 inlet;
#X obj 483 60 lb \$5 3;
#X msg 508 120 control #5 \$1;
#X obj 144 159 plugin~ Phaser;
#X msg 53 207 info;
#X obj 94 234 print xxx;
#X text 246 8 cphaser~ - calf phaser;
#X obj -6 128 inlet~;
#X obj 230 212 outlet~;
#X text 27 17 center freq;
#X obj 144 82 clip 20 20000;
#X obj 28 30 lb \$1 1000;
#X text 205 47 feedback;
#X obj 233 82 clip -0.99 0.99;
#X msg 233 120 control #4 \$1;
#X text 309 47 modulation depth;
#X obj 200 60 lb \$2 0.2;
#X obj 329 82 clip 0 10800;
#X text 402 47 modulation rate;
#X obj 297 60 lb \$3 5400;
#X obj 419 82 clip 0.01 20;
#X text 492 47 stages;
#X obj 508 82 clip 1 12;
#X msg 329 120 control #2 \$1;
#X msg 419 120 control #3 \$1;
#X obj 632 60 inlet;
#X text 581 47 stereo phase;
#X obj 572 60 lb \$6 180;
#X obj 597 82 clip 0 360;
#X msg 597 120 control #6 \$1;
#X obj 98 49 route float bang;
#X msg 56 101 control #7 0;
#X connect 0 0 11 1;
#X connect 1 0 38 0;
#X connect 2 0 11 0;
#X connect 4 0 21 0;
#X connect 5 0 25 0;
#X connect 6 0 28 0;
#X connect 7 0 28 0;
#X connect 8 0 30 0;
#X connect 9 0 30 0;
#X connect 10 0 11 0;
#X connect 11 0 13 0;
#X connect 11 1 3 0;
#X connect 11 2 16 0;
#X connect 12 0 11 0;
#X connect 15 0 11 2;
#X connect 18 0 2 0;
#X connect 19 0 18 0;
#X connect 21 0 22 0;
#X connect 22 0 11 0;
#X connect 24 0 21 0;
#X connect 25 0 31 0;
#X connect 27 0 25 0;
#X connect 28 0 32 0;
#X connect 30 0 10 0;
#X connect 31 0 11 0;
#X connect 32 0 11 0;
#X connect 33 0 36 0;
#X connect 35 0 36 0;
#X connect 36 0 37 0;
#X connect 37 0 11 0;
#X connect 38 0 18 0;
#X connect 38 1 39 0;
#X connect 39 0 11 0;
