#N canvas 0 450 1600 849 10;
#X obj 113 96 inlet~;
#X obj 297 202 outlet~;
#X obj 182 70 inlet;
#X msg 182 127 control #1 \$1;
#X obj 270 70 inlet;
#X msg 270 127 control #2 \$1;
#X obj 182 152 plugin~ crossoverDist;
#X obj 270 89 min 1;
#X obj 270 108 max 0;
#X obj 182 89 min 0.1;
#X obj 182 108 max 0;
#X obj 133 26 lb \$1;
#X obj 133 52 sel 0;
#X msg 133 71 0.1;
#X connect 0 0 6 1;
#X connect 2 0 9 0;
#X connect 3 0 6 0;
#X connect 4 0 7 0;
#X connect 5 0 6 0;
#X connect 6 1 1 0;
#X connect 7 0 8 0;
#X connect 8 0 5 0;
#X connect 9 0 10 0;
#X connect 10 0 3 0;
#X connect 11 0 12 0;
#X connect 12 0 13 0;
#X connect 12 1 9 0;
#X connect 13 0 9 0;
