#N canvas 0 0 1600 849 10;
#X obj 14 519 abs~;
#X obj 14 538 lop~ 3;
#X obj -16 576 *~;
#X obj -1 557 /~;
#X obj -1 473 sig~ 1;
#X obj -54 501 inlet~;
#X obj -16 595 outlet~;
#X text 70 532 constant vol - RMS-based compressor;
#X obj 51 488 inlet;
#X connect 0 0 1 0;
#X connect 1 0 3 1;
#X connect 2 0 6 0;
#X connect 3 0 2 1;
#X connect 4 0 3 0;
#X connect 5 0 0 0;
#X connect 5 0 2 0;
#X connect 8 0 1 1;
