#N canvas 0 29 1600 849 10;
#X obj 288 218 plugin~ decimator;
#X obj 257 168 inlet~;
#X obj 368 280 outlet~;
#X obj 322 122 inlet;
#X obj 433 129 inlet;
#X msg 322 174 control #1 \$1;
#X msg 433 158 control #2 \$1;
#X text 240 104 bit depth (1-24);
#X text 549 128 sampling rate (Hz);
#X obj 375 119 lb \$1 24;
#X obj 477 128 lb \$2 44099;
#X connect 0 1 2 0;
#X connect 1 0 0 1;
#X connect 3 0 5 0;
#X connect 4 0 6 0;
#X connect 5 0 0 0;
#X connect 6 0 0 0;
#X connect 9 0 5 0;
#X connect 10 0 6 0;
