#N canvas 0 0 1600 870 10;
#X obj 115 26 inlet~;
#X obj 190 28 inlet;
#X msg 124 120 control #1 \$1;
#X obj 211 202 outlet~;
#X obj 241 72 lb \$1;
#X obj 124 139 plugin~ divider;
#X text 33 121 divide signal by;
#X connect 0 0 5 1;
#X connect 1 0 2 0;
#X connect 2 0 5 0;
#X connect 4 0 2 0;
#X connect 5 1 3 0;
