#N canvas 0 0 800 421 10;
#X obj 17 188 inlet~;
#X obj 298 300 outlet~;
#X msg 82 174 control #1 \$1;
#X obj 173 131 inlet;
#X obj 273 131 inlet;
#X obj 218 238 plugin~ dj_eq_mono;
#X msg 173 188 control #2 \$1;
#X obj 82 117 inlet;
#X msg 273 188 control #3 \$1;
#X text 118 116 low;
#X text 210 131 mid;
#X text 311 133 high;
#X obj 126 143 lb \$1;
#X obj 213 153 lb \$2;
#X obj 318 157 lb \$3;
#X connect 0 0 5 1;
#X connect 2 0 5 0;
#X connect 3 0 6 0;
#X connect 4 0 8 0;
#X connect 5 1 1 0;
#X connect 6 0 5 0;
#X connect 7 0 2 0;
#X connect 8 0 5 0;
#X connect 12 0 2 0;
#X connect 13 0 6 0;
#X connect 14 0 8 0;
