#N canvas 800 0 800 849 10;
#X obj 37 208 inlet~;
#X obj 318 320 outlet~;
#X msg 592 241 control #1 \$1;
#X obj 293 151 inlet;
#X msg 193 208 control #2 \$1;
#X obj 592 79 inlet;
#X msg 293 208 control #3 \$1;
#X obj 238 258 plugin~ djFlanger;
#X text 462 100 lfo sync (boolean 0 or 1);
#X obj 592 98 route sync;
#X text 188 123 lfo period (s);
#X obj 193 139 lb \$1;
#X obj 193 170 min 32;
#X obj 193 189 max 0.1;
#X text 331 153 lfo depth (ms);
#X obj 413 151 inlet;
#X obj 484 172 lb \$2;
#X obj 293 170 min 5;
#X obj 293 189 max 1;
#X msg 387 222 control #4 \$1;
#X text 451 153 feedback (%);
#X obj 404 183 min 100;
#X obj 404 202 max -100;
#X obj 568 115 tgl 15 0 empty empty empty 17 7 0 10 -262144 -1 -1 0
1;
#X connect 0 0 7 1;
#X connect 2 0 7 0;
#X connect 3 0 17 0;
#X connect 4 0 7 0;
#X connect 5 0 9 0;
#X connect 6 0 7 0;
#X connect 7 1 1 0;
#X connect 9 0 2 0;
#X connect 9 1 12 0;
#X connect 11 0 12 0;
#X connect 12 0 13 0;
#X connect 13 0 4 0;
#X connect 15 0 21 0;
#X connect 16 0 21 0;
#X connect 17 0 18 0;
#X connect 18 0 6 0;
#X connect 19 0 7 0;
#X connect 21 0 22 0;
#X connect 22 0 19 0;
#X connect 23 0 2 0;
