#N canvas 0 0 800 410 10;
#X obj 47 218 inlet~;
#X obj 328 330 outlet~;
#X msg 112 204 control #1 \$1;
#X msg 203 218 control #2 \$1;
#X obj 76 147 inlet;
#X msg 303 218 control #3 \$1;
#X obj 112 147 lb \$1;
#X msg 397 232 control #4 \$1;
#X obj 248 269 plugin~ dysonCompress;
#X obj 112 166 min 0;
#X obj 112 185 max -30;
#X obj 167 161 inlet;
#X obj 203 180 min 1;
#X obj 203 199 max 0;
#X obj 203 161 lb \$2;
#X obj 267 161 inlet;
#X obj 303 180 min 1;
#X obj 303 199 max 0;
#X obj 361 175 inlet;
#X obj 397 194 min 1;
#X obj 397 213 max 0;
#X text 65 132 peak limit (dB);
#X text 161 147 release time (s);
#X text 248 148 fast compression ratio;
#X text 355 161 compression ratio;
#X obj 303 161 lb \$3;
#X obj 397 175 lb \$4;
#X connect 0 0 8 1;
#X connect 2 0 8 0;
#X connect 3 0 8 0;
#X connect 4 0 9 0;
#X connect 5 0 8 0;
#X connect 6 0 9 0;
#X connect 7 0 8 0;
#X connect 8 1 1 0;
#X connect 9 0 10 0;
#X connect 10 0 2 0;
#X connect 11 0 12 0;
#X connect 12 0 13 0;
#X connect 13 0 3 0;
#X connect 14 0 12 0;
#X connect 15 0 16 0;
#X connect 16 0 17 0;
#X connect 17 0 5 0;
#X connect 18 0 19 0;
#X connect 19 0 20 0;
#X connect 20 0 7 0;
#X connect 25 0 16 0;
#X connect 26 0 19 0;
