#N canvas 0 0 1600 871 10;
#X obj 179 46 env~;
#X floatatom 179 66 5 0 0 0 - - -;
#X obj 140 272 *~ 0.75;
#X floatatom 133 115 7 0 0 0 - - -;
#X obj 179 85 * 10;
#X obj 179 186 line~;
#X obj 179 165 pack float 50;
#X obj 179 234 outlet~;
#X obj 97 22 inlet~;
#X obj 179 206 vd~ \$0-envdelay;
#X obj 260 30 inlet;
#X obj 223 50 lb \$1;
#X obj -31 86 delwrite~ \$0-envdelay 1000;
#X obj 254 71 nbx 2 14 0 10 0 0 empty empty empty 0 -8 0 10 -262144
-1 -1 5 256;
#X obj 260 50 route float feedback time;
#X connect 0 0 1 0;
#X connect 1 0 4 0;
#X connect 2 0 12 0;
#X connect 4 0 3 0;
#X connect 4 0 6 0;
#X connect 5 0 9 0;
#X connect 6 0 5 0;
#X connect 8 0 0 0;
#X connect 8 0 12 0;
#X connect 9 0 2 0;
#X connect 9 0 7 0;
#X connect 10 0 14 0;
#X connect 11 0 13 0;
#X connect 13 0 4 1;
#X connect 14 0 13 0;
#X connect 14 1 2 1;
#X connect 14 2 6 1;
#X coords 0 -1 1 1 66 16 1 216 70;
