#N canvas 0 450 800 421 10;
#X obj 115 26 inlet~;
#X obj 190 28 inlet;
#X msg 124 120 control #1 \$1;
#X obj 199 208 outlet~;
#X obj 241 72 lb \$1;
#X obj 124 139 plugin~ decay;
#X text 17 118 time to decay in sec;
#X text 246 122 probably should be between 0 and 1 - most musical sounds
are closer to 0 but 0 is the same as clean;
#X connect 0 0 5 1;
#X connect 1 0 2 0;
#X connect 2 0 5 0;
#X connect 4 0 2 0;
#X connect 5 1 3 0;
