#N canvas 0 0 1600 849 10;
#X obj 67 238 inlet~;
#X obj 348 350 outlet~;
#X msg 132 224 control #1 \$1;
#X msg 223 238 control #2 \$1;
#X obj 132 138 inlet;
#X obj 223 181 inlet;
#X obj 268 289 plugin~ fadDelay;
#X obj 132 186 min 10;
#X obj 132 205 max 0.1;
#X text 132 124 delay time (s);
#X obj 223 200 min 0;
#X obj 223 219 max -70;
#X text 221 168 feedback (dB);
#X text 288 42 fractionally addressed delay line;
#X obj 168 138 lb \$1 0.5;
#X msg 140 282 info;
#X obj 212 332 print xx;
#X obj 259 181 lb \$2 -20;
#X connect 0 0 6 1;
#X connect 2 0 6 0;
#X connect 3 0 6 0;
#X connect 4 0 7 0;
#X connect 5 0 10 0;
#X connect 6 0 16 0;
#X connect 6 1 1 0;
#X connect 7 0 8 0;
#X connect 8 0 2 0;
#X connect 10 0 11 0;
#X connect 11 0 3 0;
#X connect 14 0 7 0;
#X connect 15 0 6 0;
#X connect 17 0 10 0;
