#N canvas 0 0 800 410 10;
#X obj 67 168 inlet~;
#X obj 348 280 outlet~;
#X msg 132 154 control #1 \$1;
#X obj 132 87 inlet;
#X msg 227 222 info;
#X obj 268 238 print foo;
#X obj 268 219 plugin~ foverdrive;
#X obj 132 116 min 3;
#X obj 132 135 max 1;
#X obj 168 87 lb \$1 1;
#X connect 0 0 6 1;
#X connect 2 0 6 0;
#X connect 3 0 7 0;
#X connect 4 0 6 0;
#X connect 6 0 5 0;
#X connect 6 1 1 0;
#X connect 7 0 8 0;
#X connect 8 0 2 0;
#X connect 9 0 7 0;
