#N canvas 0 29 1600 849 10;
#X obj 67 118 inlet~;
#X obj 348 230 outlet~;
#X msg 369 118 control #1 \$1;
#X obj 173 54 inlet;
#X msg 479 118 control #2 \$1;
#X obj 369 54 inlet;
#X msg 173 118 control #3 \$1;
#X obj 277 54 inlet;
#X msg 277 118 control #4 \$1;
#X obj 479 54 inlet;
#X obj 369 80 min 25;
#X obj 369 99 max 0.1;
#X text 373 41 delay base (ms);
#X text 476 41 max slowdown (ms);
#X obj 479 80 min 10;
#X obj 479 99 max 0;
#X obj 173 80 min 100;
#X obj 173 99 max 0.05;
#X text 167 40 lfo frequency (Hz);
#X obj 277 80 min 1;
#X obj 277 99 max -1;
#X text 288 40 feedback;
#X obj 209 54 lb \$1 3;
#X obj 405 54 lb \$3 20;
#X obj 515 54 lb \$4 5;
#X obj 313 54 lb \$2;
#X obj 268 169 plugin~ flanger /usr/lib/ladspa/flanger_1191.so;
#X connect 0 0 26 1;
#X connect 2 0 26 0;
#X connect 3 0 16 0;
#X connect 4 0 26 0;
#X connect 5 0 10 0;
#X connect 6 0 26 0;
#X connect 7 0 19 0;
#X connect 8 0 26 0;
#X connect 9 0 14 0;
#X connect 10 0 11 0;
#X connect 11 0 2 0;
#X connect 14 0 15 0;
#X connect 15 0 4 0;
#X connect 16 0 17 0;
#X connect 17 0 6 0;
#X connect 19 0 20 0;
#X connect 20 0 8 0;
#X connect 22 0 16 0;
#X connect 23 0 10 0;
#X connect 24 0 14 0;
#X connect 25 0 19 0;
#X connect 26 1 1 0;
