#N canvas 2 32 1600 848 10;
#X obj 23 43 inlet~;
#X obj 181 41 inlet~;
#X text 222 43 2nd inlet~ accepts -1 to 1 signal to read from delay
;
#X obj 181 250 vd~ \$0-flanger;
#X obj 181 61 +~ 1;
#X obj 181 272 outlet~;
#X obj 324 253 *~ 0.5;
#X obj 323 62 inlet;
#X obj 25 68 delwrite~ \$0-flanger 500;
#X obj 323 81 route float feedback feed depth deep;
#X obj 271 200 / 2;
#X text 360 61 3rd inlet: feedback or depth (0-500);
#X obj 181 230 *~ 25;
#X connect 0 0 8 0;
#X connect 1 0 4 0;
#X connect 3 0 5 0;
#X connect 3 0 6 0;
#X connect 4 0 12 0;
#X connect 6 0 8 0;
#X connect 7 0 9 0;
#X connect 9 0 6 1;
#X connect 9 1 6 1;
#X connect 9 2 6 1;
#X connect 9 3 10 0;
#X connect 9 4 10 0;
#X connect 10 0 12 1;
#X connect 12 0 3 0;
