#N canvas 0 0 1600 849 10;
#X obj 67 238 inlet~;
#X obj 348 350 outlet~;
#X msg 132 224 control #1 \$1;
#X msg 227 292 info;
#X obj 268 308 print foo;
#X obj 268 289 plugin~ fmOsc;
#X text 111 135 waveform (sin \, tri \, squ \, saw);
#X obj 96 157 inlet;
#X obj 132 186 clip 0 3;
#X obj 132 157 lb \$1;
#X obj 132 205 + 1;
#X connect 0 0 5 1;
#X connect 2 0 5 0;
#X connect 3 0 5 0;
#X connect 5 0 4 0;
#X connect 5 1 1 0;
#X connect 7 0 8 0;
#X connect 8 0 10 0;
#X connect 9 0 8 0;
#X connect 10 0 2 0;
