#N canvas 0 0 1600 849 10;
#X obj 67 238 inlet~;
#X obj 379 327 outlet~;
#X msg 132 224 control #1 \$1;
#X obj 132 157 inlet;
#X msg 227 292 info;
#X obj 268 308 print foo;
#X obj 168 157 lb \$1 1;
#X obj 268 289 plugin~ freqTracker;
#X obj 132 205 max 0;
#X obj 132 186 min 1;
#X text 224 183 tracking speed;
#X obj 379 308 *~ 2;
#X text 411 289 for some reason this plugin seems to report the frequency
as half of what it really is... try it with an osc~ to see for yourself..
;
#X connect 0 0 7 1;
#X connect 2 0 7 0;
#X connect 3 0 9 0;
#X connect 4 0 7 0;
#X connect 6 0 9 0;
#X connect 7 0 5 0;
#X connect 7 1 11 0;
#X connect 8 0 2 0;
#X connect 9 0 8 0;
#X connect 11 0 1 0;
