#N canvas 0 0 1600 849 10;
#X obj 40 40 inlet~;
#X obj 73 73 abs~;
#X obj 73 111 expr~ $v1>$f2;
#X obj 184 83 lb \$1 0.5;
#X obj 40 184 outlet~;
#X obj 148 83 inlet;
#X obj 128 200 vsl 15 128 0 1 0 0 empty empty empty 0 -9 0 10 -262144
-1 -1 0 1;
#X obj 100 174 unsig~ 30;
#X obj 73 130 lop~ 5;
#X obj 73 92 lop~ 20;
#X obj 40 165 *~;
#X connect 0 0 1 0;
#X connect 0 0 10 0;
#X connect 1 0 9 0;
#X connect 2 0 8 0;
#X connect 3 0 2 1;
#X connect 5 0 2 1;
#X connect 7 0 6 0;
#X connect 8 0 7 0;
#X connect 8 0 10 1;
#X connect 9 0 2 0;
#X connect 10 0 4 0;
