#N canvas 0 0 800 410 10;
#X obj 57 188 inlet~;
#X obj 348 300 outlet~;
#X msg 119 188 control #1 \$1;
#X obj 323 121 inlet;
#X msg 221 188 control #2 \$1;
#X obj 119 121 inlet;
#X msg 323 188 control #3 \$1;
#X obj 221 150 min 32;
#X obj 221 169 max 0.1;
#X obj 417 135 inlet;
#X obj 323 150 min 5;
#X obj 323 169 max 1;
#X msg 417 202 control #4 \$1;
#X obj 417 164 min 100;
#X obj 417 183 max -100;
#X msg 227 242 info;
#X obj 268 258 print foo;
#X obj 221 121 inlet;
#X obj 359 121 lb \$3 1;
#X obj 453 135 lb \$4 1;
#X obj 268 239 plugin~ gate;
#X text 132 104 highpass;
#X text 242 107 lowpass;
#X obj 155 121 lb \$1 1000;
#X obj 257 121 lb \$2 1000;
#X text 361 38 UHH THIS ISNT FINISHED.......;
#X connect 0 0 20 1;
#X connect 2 0 20 0;
#X connect 3 0 10 0;
#X connect 4 0 20 0;
#X connect 5 0 2 0;
#X connect 6 0 20 0;
#X connect 7 0 8 0;
#X connect 8 0 4 0;
#X connect 9 0 13 0;
#X connect 10 0 11 0;
#X connect 11 0 6 0;
#X connect 12 0 20 0;
#X connect 13 0 14 0;
#X connect 14 0 12 0;
#X connect 15 0 20 0;
#X connect 17 0 7 0;
#X connect 18 0 10 0;
#X connect 19 0 13 0;
#X connect 20 0 16 0;
#X connect 20 1 1 0;
#X connect 23 0 2 0;
#X connect 24 0 7 0;
