#N canvas 0 0 800 421 10;
#X obj 139 94 inlet~;
#X obj 336 246 outlet~;
#X obj 203 91 inlet;
#X obj 290 77 inlet;
#X msg 290 134 control #2 \$1;
#X msg 202 117 control #1 \$1;
#X obj 210 176 plugin~ butthigh_iir;
#X connect 0 0 6 1;
#X connect 2 0 5 0;
#X connect 3 0 4 0;
#X connect 4 0 6 0;
#X connect 5 0 6 0;
#X connect 6 1 1 0;
