#N canvas 0 0 800 410 10;
#X obj 67 238 inlet~;
#X obj 348 350 outlet~;
#X obj 132 157 inlet;
#X msg 227 292 info;
#X obj 268 308 print foo;
#X obj 223 171 inlet;
#X obj 259 171 lb \$2 1;
#X obj 268 289 plugin~ giantFlange;
#X msg 512 294 control #1 \$1;
#X obj 512 277 tgl 15 0 empty empty empty 17 7 0 10 -262144 -1 -1 0
1;
#X text 528 276 double delay length (reduces quality);
#X obj 132 186 min 30;
#X obj 132 205 max 0;
#X msg 132 224 control #2 \$1;
#X msg 223 238 control #3 \$1;
#X obj 223 219 max 0;
#X obj 223 200 min 10.5;
#X obj 168 157 lb \$1 3;
#X text 221 157 delay 1 range (s);
#X text 139 142 lfo 1 freq (Hz);
#X obj 313 172 inlet;
#X obj 404 186 inlet;
#X obj 313 201 min 30;
#X obj 313 220 max 0;
#X obj 404 234 max 0;
#X obj 404 215 min 10.5;
#X text 402 172 delay 1 range (s);
#X text 320 157 lfo 1 freq (Hz);
#X msg 313 239 control #4 \$1;
#X msg 404 253 control #5 \$1;
#X obj 349 172 lb \$3 3;
#X obj 440 186 lb \$4 1;
#X obj 494 186 inlet;
#X obj 530 186 lb \$5;
#X text 510 172 feedback;
#X msg 494 253 control #6 \$1;
#X obj 509 325 loadbang;
#X msg 509 344 control #7 1;
#X obj 494 215 min 100;
#X obj 494 234 max -100;
#X connect 0 0 7 1;
#X connect 2 0 11 0;
#X connect 3 0 7 0;
#X connect 5 0 16 0;
#X connect 6 0 16 0;
#X connect 7 0 4 0;
#X connect 7 1 1 0;
#X connect 8 0 7 0;
#X connect 9 0 8 0;
#X connect 11 0 12 0;
#X connect 12 0 13 0;
#X connect 13 0 7 0;
#X connect 14 0 7 0;
#X connect 15 0 14 0;
#X connect 16 0 15 0;
#X connect 17 0 11 0;
#X connect 20 0 22 0;
#X connect 21 0 25 0;
#X connect 22 0 23 0;
#X connect 23 0 28 0;
#X connect 24 0 29 0;
#X connect 25 0 24 0;
#X connect 28 0 7 0;
#X connect 29 0 7 0;
#X connect 30 0 22 0;
#X connect 31 0 25 0;
#X connect 32 0 38 0;
#X connect 33 0 38 0;
#X connect 35 0 7 0;
#X connect 36 0 37 0;
#X connect 37 0 7 0;
#X connect 38 0 39 0;
#X connect 39 0 35 0;
