#N canvas 0 0 1600 870 10;
#X obj 115 26 inlet~;
#X obj 190 28 inlet;
#X msg 124 120 control #1 \$1;
#X obj 235 213 outlet~;
#X obj 241 72 lb \$1;
#X obj 124 139 plugin~ bwxover_iir;
#X connect 0 0 5 1;
#X connect 1 0 2 0;
#X connect 2 0 5 0;
#X connect 4 0 2 0;
#X connect 5 2 3 0;
