#N canvas 0 0 800 410 10;
#X obj 161 154 plugin~ gsm;
#X msg 265 135 control #3 \$1;
#X msg 172 134 control #2 \$1;
#X obj 213 217 outlet~;
#X obj 64 78 loadbang;
#X obj 159 52 inlet~;
#X obj 254 59 inlet;
#X msg 64 97 control #1 1;
#X obj 206 59 lb \$1 1;
#X obj 206 91 clip 0 10;
#X obj 302 113 clip 0 30;
#X text 205 45 number of passes;
#X text 304 46 error rate (bits/block);
#X obj 371 83 inlet;
#X obj 306 81 lb \$2;
#X connect 0 1 3 0;
#X connect 1 0 0 0;
#X connect 2 0 0 0;
#X connect 4 0 7 0;
#X connect 5 0 0 1;
#X connect 6 0 9 0;
#X connect 7 0 0 0;
#X connect 8 0 9 0;
#X connect 9 0 2 0;
#X connect 10 0 1 0;
#X connect 13 0 10 0;
#X connect 14 0 10 0;
