#N canvas 0 0 1600 849 10;
#X obj 67 238 inlet~;
#X obj 300 350 outlet~;
#X msg 132 224 control #1 \$1;
#X obj 323 171 inlet;
#X msg 223 238 control #2 \$1;
#X obj 132 157 inlet;
#X msg 323 238 control #3 \$1;
#X obj 223 219 max 0.1;
#X obj 411 170 inlet;
#X msg 411 237 control #4 \$1;
#X msg 227 292 info;
#X obj 268 308 print foo;
#X obj 223 171 inlet;
#X obj 359 171 lb \$3 1;
#X obj 447 170 lb \$4 1;
#X obj 268 289 plugin~ gverb;
#X obj 348 350 outlet~;
#X obj 132 186 min 300;
#X obj 132 205 max 1;
#X text 138 144 room size (m);
#X obj 223 200 min 30;
#X obj 168 157 lb \$1 30;
#X obj 259 171 lb \$2 7;
#X text 224 157 reverb time (s);
#X text 338 157 damping;
#X obj 323 200 min 1;
#X obj 323 219 max 0;
#X obj 556 130 inlet;
#X msg 499 237 control #5 \$1;
#X text 411 157 input bandwidth;
#X obj 411 199 min 1;
#X obj 411 218 max 0;
#X obj 499 199 min 0;
#X obj 499 218 max -70;
#X obj 589 199 min 0;
#X obj 589 218 max -70;
#X msg 589 237 control #6 \$1;
#X obj 679 199 min 0;
#X obj 679 218 max -70;
#X msg 679 237 control #7 \$1;
#X obj 556 149 unpack f f f;
#X text 522 113 levels of dry \, early reflection \, tail;
#X obj 682 149 lb \$5 -10;
#X obj 742 149 lb \$6 -10;
#X obj 802 149 lb \$7 -10;
#X connect 0 0 15 1;
#X connect 2 0 15 0;
#X connect 3 0 25 0;
#X connect 4 0 15 0;
#X connect 5 0 17 0;
#X connect 6 0 15 0;
#X connect 7 0 4 0;
#X connect 8 0 30 0;
#X connect 9 0 15 0;
#X connect 10 0 15 0;
#X connect 12 0 20 0;
#X connect 13 0 25 0;
#X connect 14 0 30 0;
#X connect 15 0 11 0;
#X connect 15 1 1 0;
#X connect 15 2 16 0;
#X connect 17 0 18 0;
#X connect 18 0 2 0;
#X connect 20 0 7 0;
#X connect 21 0 17 0;
#X connect 22 0 20 0;
#X connect 25 0 26 0;
#X connect 26 0 6 0;
#X connect 27 0 40 0;
#X connect 28 0 15 0;
#X connect 30 0 31 0;
#X connect 31 0 9 0;
#X connect 32 0 33 0;
#X connect 33 0 28 0;
#X connect 34 0 35 0;
#X connect 35 0 36 0;
#X connect 36 0 15 0;
#X connect 37 0 38 0;
#X connect 38 0 39 0;
#X connect 39 0 15 0;
#X connect 40 0 32 0;
#X connect 40 1 34 0;
#X connect 40 2 37 0;
#X connect 42 0 32 0;
#X connect 43 0 34 0;
#X connect 44 0 37 0;
