#N canvas 513 501 1600 849 10;
#X obj 179 205 outlet~;
#X obj 66 180 plugin~ hard_gate;
#X obj 188 82 inlet;
#X obj 188 104 clip 0 100;
#X msg 188 142 control #1 \$1;
#X text 184 64 threshold;
#X obj 188 123 / 100;
#X obj 136 52 inlet~;
#X text 261 191 hard gate;
#X obj 270 79 lb \$1;
#X msg 18 163 info;
#X obj 60 208 print xxxx;
#X connect 1 0 11 0;
#X connect 1 1 0 0;
#X connect 2 0 3 0;
#X connect 3 0 6 0;
#X connect 4 0 1 0;
#X connect 6 0 4 0;
#X connect 7 0 1 1;
#X connect 9 0 3 0;
#X connect 10 0 1 0;
