#N canvas 0 0 800 410 10;
#X obj 67 238 inlet~;
#X obj 348 350 outlet~;
#X msg 132 224 control #1 \$1;
#X obj 328 157 inlet;
#X msg 228 224 control #2 \$1;
#X obj 132 157 inlet;
#X msg 328 224 control #3 \$1;
#X obj 228 157 inlet;
#X obj 264 157 lb \$2 1;
#X obj 364 157 lb \$3 1;
#X obj 268 289 plugin~ hardLimiter;
#X obj 132 186 min 0;
#X obj 132 205 max -50;
#X text 146 141 dB limit;
#X text 246 144 wet level;
#X obj 228 186 min 1;
#X obj 228 205 max 0;
#X text 336 144 residue level;
#X obj 328 186 min 1;
#X obj 328 205 max 0;
#X obj 168 157 lb \$1 -10;
#X connect 0 0 10 1;
#X connect 2 0 10 0;
#X connect 3 0 18 0;
#X connect 4 0 10 0;
#X connect 5 0 11 0;
#X connect 6 0 10 0;
#X connect 7 0 15 0;
#X connect 8 0 15 0;
#X connect 9 0 18 0;
#X connect 10 1 1 0;
#X connect 11 0 12 0;
#X connect 12 0 2 0;
#X connect 15 0 16 0;
#X connect 16 0 4 0;
#X connect 18 0 19 0;
#X connect 19 0 6 0;
#X connect 20 0 11 0;
