#N canvas 0 0 800 410 10;
#X obj 67 238 inlet~;
#X obj 309 350 outlet~;
#X msg 268 224 control #1 \$1;
#X obj 268 157 inlet;
#X obj 268 289 plugin~ hilbert;
#X obj 357 350 outlet~;
#X obj 268 186 min 99;
#X obj 268 205 max 0;
#X obj 304 157 lb \$1 99;
#X connect 0 0 4 1;
#X connect 2 0 4 0;
#X connect 3 0 6 0;
#X connect 4 1 1 0;
#X connect 4 2 5 0;
#X connect 6 0 7 0;
#X connect 7 0 2 0;
#X connect 8 0 6 0;
