#N canvas 0 1620 2560 1566 10;
#X obj 57 271 inlet~;
#X obj 183 165 hsl 128 13 0 127 0 0 \$0-freq-s \$0-freq-r frequency_659.255 -2 7 0 10 #fcfcfc #000000 #000000 0 1;
#X obj 183 178 hsl 128 13 0 8 0 0 \$0-res-s \$0-res-r resonance_2.01575 -2 7 0 10 #fcfcfc #000000 #000000 0 1;
#X obj 57 400 outlet~;
#X obj 57 377 bob~, f 14;
#N canvas 0 1620 2560 1566 parse 0;
#X obj 76 87 inlet;
#X obj 76 223 ftom;
#X obj 195 187 / 127;
#X obj 113 43 inlet;
#X obj 186 43 inlet;
#X obj 113 65 route float;
#X obj 186 65 route float;
#X msg 113 87 freq \$1;
#X msg 186 87 res \$1;
#X obj 76 242 s \$0-freq-r;
#X msg 101 315 clear;
#X obj 101 296 r \$0-clear-s;
#X obj 76 204 t f;
#X obj 126 204 mtof;
#X obj 201 364 outlet;
#X obj 254 238 r \$0-over-s;
#X obj 162 223 t f;
#X obj 195 206 * 8;
#X obj 162 242 s \$0-res-r;
#X obj 409 147 print ibob~: unknown message:;
#X obj 76 116 route float freq frequency mfreq midi res resonance mres over oversample oversampling mover sat saturation msat;
#X obj 283 174 / 127;
#X obj 283 193 * 9;
#X obj 283 212 + 1;
#X obj 249 302 s \$0-over-r;
#X msg 249 283 label oversample_\$1;
#X obj 379 188 / 127;
#X obj 379 207 * 10;
#X msg 213 321 oversample \$1;
#X msg 366 322 saturation \$1;
#X obj 366 231 t f;
#X obj 239 211 t f;
#X obj 401 248 r \$0-sat-s;
#X msg 401 284 label saturation_\$1;
#X obj 401 303 s \$0-sat-r;
#X connect 0 0 20 0;
#X connect 1 0 9 0;
#X connect 2 0 17 0;
#X connect 3 0 5 0;
#X connect 4 0 6 0;
#X connect 5 0 7 0;
#X connect 5 1 20 0;
#X connect 6 0 8 0;
#X connect 6 1 20 0;
#X connect 7 0 20 0;
#X connect 8 0 20 0;
#X connect 10 0 14 0;
#X connect 11 0 10 0;
#X connect 12 0 1 0;
#X connect 13 0 12 0;
#X connect 15 0 25 0;
#X connect 15 0 28 0;
#X connect 16 0 18 0;
#X connect 17 0 16 0;
#X connect 20 0 12 0;
#X connect 20 1 12 0;
#X connect 20 2 12 0;
#X connect 20 3 13 0;
#X connect 20 4 13 0;
#X connect 20 5 16 0;
#X connect 20 6 16 0;
#X connect 20 7 2 0;
#X connect 20 8 31 0;
#X connect 20 9 31 0;
#X connect 20 10 31 0;
#X connect 20 11 21 0;
#X connect 20 12 30 0;
#X connect 20 13 30 0;
#X connect 20 14 26 0;
#X connect 20 15 19 0;
#X connect 21 0 22 0;
#X connect 22 0 23 0;
#X connect 23 0 31 0;
#X connect 25 0 24 0;
#X connect 26 0 27 0;
#X connect 27 0 30 0;
#X connect 28 0 14 0;
#X connect 29 0 14 0;
#X connect 30 0 33 0;
#X connect 30 0 29 0;
#X connect 31 0 25 0;
#X connect 31 0 28 0;
#X connect 32 0 33 0;
#X connect 32 0 29 0;
#X connect 33 0 34 0;
#X restore 109 301 pd parse;
#X obj 99 271 inlet~;
#X obj 141 271 inlet~;
#X obj 99 252 lb \$1;
#X obj 141 252 lb \$2;
#X obj 99 214 r \$0-freq-s;
#X obj 141 233 r \$0-res-s;
#X obj 99 233 mtof;
#X obj 298 150 bng 15 250 50 0 \$0-clear-s \$0-clear-r clr 2 8 0 6 #fcc4c4 #000000 #000000;
#X obj 183 191 hsl 128 13 1 10 0 0 \$0-over-s \$0-over-r oversample_1.56693 -2 7 0 10 #fcfcfc #000000 #000000 0 1;
#X obj 183 204 hsl 128 13 0 10 0 0 \$0-sat-s \$0-sat-r saturation_10 -2 7 0 10 #fcfcfc #000000 #000000 0 1;
#N canvas 0 0 2560 1566 display 0;
#X obj 166 243 inlet~;
#X obj 306 243 inlet~;
#X obj 166 265 unsig~ 50;
#X obj 306 265 unsig~ 50;
#X msg 166 287 label frequency_\$1;
#X obj 166 309 s \$0-freq-r;
#X obj 306 309 s \$0-res-r;
#X obj 93 286 ftom;
#X msg 93 308 set \$1;
#X msg 306 287 set \$1 \, label resonance_\$1;
#X connect 0 0 2 0;
#X connect 1 0 3 0;
#X connect 2 0 4 0;
#X connect 2 0 7 0;
#X connect 3 0 9 0;
#X connect 4 0 5 0;
#X connect 7 0 8 0;
#X connect 8 0 5 0;
#X connect 9 0 6 0;
#X restore 108 339 pd display;
#X text 350 42 ibob~ - [bob~] interface.;
#X text 351 73 This is basically just a simple GUI for [bob~] that allows you to conveniently control its various parameters without having to manually make sliders and connections. It should work the same as [bob~] itself does \, so refer to its help file if you need an explanation.;
#X text 348 156 The 2nd and 3rd inlets are audio inlets just as they are in [bob~]. Note that if you plug audio into them \, the display will update to show you their current values. Bobviously \, you won't be able to control those parameters while the inlets are receiving audio - any adjustments made with the GUI will have no effect until you disconnect the audio to that particular inlet.;
#X text 351 267 In addition to the standard messages that [bob~] supports \, various abbreviations are supported too. For example \, frequency can be set with a "freq" message \, or can be specified using MIDI note numbers by sending an "mfreq" message. Likewise \, resonance ("res") \, oversampling ("over") \, and saturation ("sat") all have their MIDI note number-based versions as well \, with their nicknames also prefixed with "m" - "mres" \, "mover" \, "msat".;
#X connect 0 0 4 0;
#X connect 0 1 5 0;
#X connect 4 0 3 0;
#X connect 5 0 4 0;
#X connect 6 0 16 0;
#X connect 6 0 4 1;
#X connect 6 1 5 1;
#X connect 7 0 4 2;
#X connect 7 0 16 1;
#X connect 7 1 5 2;
#X connect 8 0 6 0;
#X connect 9 0 7 0;
#X connect 10 0 12 0;
#X connect 11 0 9 0;
#X connect 12 0 8 0;
#X coords 0 -1 1 1 133 69 1 180 150;
