#N canvas 0 0 1600 849 10;
#X obj 7 398 inlet~;
#X obj 288 510 outlet~;
#X obj 208 448 plugin~ delayorama;
#X obj 2 268 loadbang;
#X obj 53 196 inlet;
#X obj 115 317 lb \$1;
#X msg 465 397 control #11 1;
#X obj 465 378 loadbang;
#X obj 183 317 lb \$2;
#X floatatom 100 116 5 0 100 1 feedback #0-fdbkr #0-fdbk;
#X floatatom 100 132 5 2 128 1 num_taps #0-tapsr #0-taps;
#X floatatom 100 148 5 0 5 1 first_delay #0-fdlyr #0-fdly;
#X floatatom 190 116 5 0.0001 6 1 delay_range #0-dlyrngr #0-dlyrng
;
#X floatatom 190 132 5 0.2 5 1 delay_chg #0-dlychgr #0-dlychg;
#X floatatom 190 148 5 0 100 1 delay_rand #0-dlyrndr #0-dlyrnd;
#X floatatom 280 116 5 0.2 5 1 amp_change #0-ampchgr #0-ampchg;
#X floatatom 280 132 5 0 100 1 amp_rand #0-amprndr #0-amprnd;
#N canvas 0 0 1600 849 seed 0;
#X obj 42 47 inlet;
#X msg 42 124 control #1 \$1;
#X obj 42 143 outlet;
#X obj 42 105 random 1000;
#X obj 42 86 route bang float;
#X obj 78 47 r \$0-randseed;
#X connect 0 0 4 0;
#X connect 1 0 2 0;
#X connect 3 0 1 0;
#X connect 4 0 3 0;
#X connect 4 1 1 0;
#X connect 5 0 4 0;
#X restore 53 336 pd seed;
#X obj 280 149 bng 15 250 50 0 \$0-randseed \$0-randseedr random_seed
17 7 0 8 -262144 -1 -1;
#N canvas 0 0 1600 849 feedback 0;
#X obj 128 288 inlet;
#X obj 128 403 outlet;
#X msg 128 384 control #3 \$1;
#X obj 128 365 r \$0-fdbk;
#X text 218 344 feedback (%);
#X obj 128 307 clip 0 100;
#X obj 128 326 s \$0-fdbkr;
#X connect 0 0 5 0;
#X connect 2 0 1 0;
#X connect 3 0 2 0;
#X connect 5 0 6 0;
#X restore 101 336 pd feedback;
#N canvas 0 0 1600 849 numtaps 0;
#X obj 128 288 inlet;
#X obj 128 403 outlet;
#X text 216 350 # of taps;
#X msg 128 384 control #4 \$1;
#X obj 128 365 r \$0-taps;
#X obj 128 326 s \$0-tapsr;
#X obj 128 307 clip 2 128;
#X connect 0 0 6 0;
#X connect 3 0 1 0;
#X connect 4 0 3 0;
#X connect 6 0 5 0;
#X restore 173 336 pd numtaps;
#X obj 246 317 lb \$3;
#N canvas 0 0 1600 849 fdly 0;
#X obj 128 288 inlet;
#X obj 128 403 outlet;
#X text 206 350 first delay (s);
#X obj 128 307 clip 0 5;
#X obj 128 326 s \$0-fdlyr;
#X obj 128 365 r \$0-fdly;
#X msg 128 384 control #5 \$1;
#X connect 0 0 3 0;
#X connect 3 0 4 0;
#X connect 5 0 6 0;
#X connect 6 0 1 0;
#X restore 239 336 pd fdly;
#X obj 294 317 lb \$4;
#N canvas 0 0 1600 849 dlyrng 0;
#X obj 128 288 inlet;
#X obj 128 403 outlet;
#X text 207 350 delay range (s);
#X obj 128 307 clip 0.0001 6;
#X obj 128 326 s \$0-dlyrngr;
#X obj 128 365 r \$0-dlyrng;
#X msg 128 384 control #6 \$1;
#X connect 0 0 3 0;
#X connect 3 0 4 0;
#X connect 5 0 6 0;
#X connect 6 0 1 0;
#X restore 287 336 pd dlyrng;
#N canvas 0 0 1600 849 dlychg 0;
#X obj 128 288 inlet;
#X obj 128 403 outlet;
#X text 197 350 delay change;
#X msg 128 384 control #7 \$1;
#X obj 128 365 r \$0-dlychg;
#X obj 128 326 s \$0-dlychgr;
#X obj 128 307 clip 0.2 5;
#X connect 0 0 6 0;
#X connect 3 0 1 0;
#X connect 4 0 3 0;
#X connect 6 0 5 0;
#X restore 347 336 pd dlychg;
#N canvas 0 0 1600 849 dlyrnd 0;
#X obj 128 288 inlet;
#X obj 128 403 outlet;
#X text 197 350 delay random %;
#X obj 128 307 clip 0 100;
#X obj 128 326 s \$0-dlyrndr;
#X obj 128 365 r \$0-dlyrnd;
#X msg 128 384 control #8 \$1;
#X connect 0 0 3 0;
#X connect 3 0 4 0;
#X connect 5 0 6 0;
#X connect 6 0 1 0;
#X restore 407 336 pd dlyrnd;
#N canvas 0 0 1600 849 ampchg 0;
#X obj 128 288 inlet;
#X obj 128 403 outlet;
#X text 206 350 amplitude change;
#X obj 128 307 clip 0.2 5;
#X obj 128 326 s \$0-ampchgr;
#X obj 128 365 r \$0-ampchg;
#X msg 128 384 control #9 \$1;
#X connect 0 0 3 0;
#X connect 3 0 4 0;
#X connect 5 0 6 0;
#X connect 6 0 1 0;
#X restore 467 336 pd ampchg;
#N canvas 0 0 1600 849 amprnd 0;
#X obj 128 288 inlet;
#X obj 128 403 outlet;
#X text 206 350 amplitude random (%);
#X msg 128 384 control #10 \$1;
#X obj 128 365 r \$0-amprnd;
#X obj 128 326 s \$0-amprndr;
#X obj 128 307 clip 0 100;
#X connect 0 0 6 0;
#X connect 3 0 1 0;
#X connect 4 0 3 0;
#X connect 6 0 5 0;
#X restore 527 336 pd amprnd;
#X obj 361 317 lb \$5;
#X obj 417 317 lb \$6;
#X obj 474 317 lb \$7;
#X obj 534 317 lb \$8;
#X obj 53 215 route bang seed feedback feed fdbk taps numtaps fdly
firstdelay dlyrng delayrange delaychg dlychg delayrand dlyrnd ampchg
ampchange amprand amprnd;
#X connect 0 0 2 1;
#X connect 2 1 1 0;
#X connect 3 0 17 0;
#X connect 4 0 33 0;
#X connect 5 0 19 0;
#X connect 6 0 2 0;
#X connect 7 0 6 0;
#X connect 8 0 20 0;
#X connect 17 0 2 0;
#X connect 19 0 2 0;
#X connect 20 0 2 0;
#X connect 21 0 22 0;
#X connect 22 0 2 0;
#X connect 23 0 24 0;
#X connect 24 0 2 0;
#X connect 25 0 2 0;
#X connect 26 0 2 0;
#X connect 27 0 2 0;
#X connect 28 0 2 0;
#X connect 29 0 25 0;
#X connect 30 0 26 0;
#X connect 31 0 27 0;
#X connect 32 0 28 0;
#X connect 33 0 17 0;
#X connect 33 1 17 0;
#X connect 33 2 19 0;
#X connect 33 3 19 0;
#X connect 33 4 19 0;
#X connect 33 5 20 0;
#X connect 33 6 20 0;
#X connect 33 7 22 0;
#X connect 33 8 22 0;
#X connect 33 9 24 0;
#X connect 33 10 24 0;
#X connect 33 11 25 0;
#X connect 33 12 25 0;
#X connect 33 13 26 0;
#X connect 33 14 26 0;
#X connect 33 15 27 0;
#X connect 33 16 27 0;
#X connect 33 17 28 0;
#X connect 33 18 28 0;
#X coords 0 -1 1 1 270 64 1 100 100;
