#N canvas 0 0 1600 849 10;
#X obj 83 354 freeverb~;
#X obj 56 43 inlet~;
#X obj 134 43 inlet~;
#X obj 98 43 inlet;
#X obj 83 392 outlet~;
#X obj 134 392 outlet~;
#X msg 83 249 roomsize \$1;
#X obj 219 175 hsl 100 12 0 10 0 0 empty empty roomsize -2 4 0 10 -262144
-1 -1 7920 1;
#X obj 171 124 lb \$1;
#X obj 219 187 hsl 100 12 0 10 0 0 empty empty damping -2 4 0 10 -262144
-1 -1 6930 1;
#X obj 207 124 lb \$2;
#X msg 90 268 damping \$1;
#X obj 219 199 hsl 100 12 0 10 0 0 empty empty width -2 4 0 10 -262144
-1 -1 8910 1;
#X obj 219 211 hsl 100 12 0 10 0 0 empty empty wet -2 4 0 10 -262144
-1 -1 4950 1;
#X obj 219 223 hsl 100 12 0 10 0 0 empty empty dry -2 4 0 10 -262144
-1 -1 4950 1;
#X obj 243 124 lb \$3;
#X obj 279 124 lb \$4;
#X obj 315 124 lb \$5;
#X msg 111 306 wet \$1;
#X msg 120 325 dry \$1;
#X msg 101 287 width \$1;
#X obj 217 244 / 10;
#X obj 251 244 / 10;
#X obj 285 244 / 10;
#X obj 319 244 / 10;
#X obj 353 244 / 10;
#X obj 306 160 tgl 15 0 empty empty f 5 7 0 10 -262144 -1 -1 0 1;
#X obj 351 124 lb \$6;
#X msg 417 267 freeze \$1;
#X floatatom 217 333 5 0 0 0 - - -;
#X floatatom 251 333 5 0 0 0 - - -;
#X floatatom 285 333 5 0 0 0 - - -;
#X floatatom 319 333 5 0 0 0 - - -;
#X floatatom 353 333 5 0 0 0 - - -;
#X obj 98 62 route roomsize size room damping damp width wet dry freeze
bang bypass float;
#X obj 20 284 noise~;
#X obj 20 303 *~ 1e-09;
#X obj 83 373 /~ 2;
#X obj 134 373 /~ 2;
#X msg 27 378 reset;
#X connect 0 0 37 0;
#X connect 0 1 38 0;
#X connect 1 0 0 0;
#X connect 2 0 0 1;
#X connect 3 0 34 0;
#X connect 6 0 0 0;
#X connect 7 0 21 0;
#X connect 7 0 29 0;
#X connect 8 0 7 0;
#X connect 9 0 22 0;
#X connect 9 0 30 0;
#X connect 10 0 9 0;
#X connect 11 0 0 0;
#X connect 12 0 23 0;
#X connect 12 0 31 0;
#X connect 13 0 24 0;
#X connect 13 0 32 0;
#X connect 14 0 25 0;
#X connect 14 0 33 0;
#X connect 15 0 12 0;
#X connect 16 0 13 0;
#X connect 17 0 14 0;
#X connect 18 0 0 0;
#X connect 19 0 0 0;
#X connect 20 0 0 0;
#X connect 21 0 6 0;
#X connect 22 0 11 0;
#X connect 23 0 20 0;
#X connect 24 0 18 0;
#X connect 25 0 19 0;
#X connect 26 0 28 0;
#X connect 27 0 26 0;
#X connect 28 0 0 0;
#X connect 34 0 8 0;
#X connect 34 1 8 0;
#X connect 34 2 8 0;
#X connect 34 3 10 0;
#X connect 34 4 10 0;
#X connect 34 5 15 0;
#X connect 34 6 16 0;
#X connect 34 7 17 0;
#X connect 34 8 27 0;
#X connect 34 9 26 0;
#X connect 34 11 26 0;
#X connect 35 0 36 0;
#X connect 36 0 0 0;
#X connect 36 0 0 1;
#X connect 37 0 4 0;
#X connect 38 0 5 0;
#X connect 39 0 0 0;
#X coords 0 -1 1 1 105 75 1 216 160;
