#N canvas 1920 32 1920 1048 10;
#X obj 157 98 inlet~;
#X obj 183 165 hsl 128 13 0 127 0 0 empty empty frequency_8.1758 -2
7 0 10 -262144 -1 -1 0 1;
#X obj 183 178 hsl 128 13 0.001 4 0 0 empty empty resonance_0.001 -2
7 0 10 -262144 -1 -1 0 1;
#X obj 157 304 moog~;
#X obj 157 327 outlet~;
#X obj 298 150 bng 15 250 50 0 empty empty r 4 7 0 10 -262144 -1 -1
;
#X obj 164 228 mtof;
#X msg 103 179 reset;
#X obj 227 35 inlet;
#X obj 266 12 lb \$1;
#X msg 266 35 freq \$1;
#X msg 326 35 res \$1;
#X obj 227 90 ftom;
#X obj 432 109 / 127;
#X obj 432 132 * 4;
#X obj 326 12 lb \$2;
#X obj 225 255 aline~ 10;
#X obj 164 255 aline~ 10;
#X msg 347 241 label resonance_\$1;
#X msg 347 220 label frequency_\$1;
#X obj 227 64 route float freq frequency mfreq midi res resonance mres
;
#X obj 560 88 print imoog~: unknown message:;
#X connect 0 0 3 0;
#X connect 1 0 6 0;
#X connect 2 0 16 0;
#X connect 2 0 18 0;
#X connect 3 0 4 0;
#X connect 5 0 7 0;
#X connect 6 0 17 0;
#X connect 6 0 19 0;
#X connect 7 0 3 0;
#X connect 8 0 20 0;
#X connect 9 0 10 0;
#X connect 10 0 20 0;
#X connect 11 0 20 0;
#X connect 12 0 1 0;
#X connect 13 0 14 0;
#X connect 14 0 2 0;
#X connect 15 0 11 0;
#X connect 16 0 3 2;
#X connect 17 0 3 1;
#X connect 18 0 2 0;
#X connect 19 0 1 0;
#X connect 20 0 12 0;
#X connect 20 1 12 0;
#X connect 20 2 12 0;
#X connect 20 3 1 0;
#X connect 20 4 1 0;
#X connect 20 5 2 0;
#X connect 20 6 2 0;
#X connect 20 7 13 0;
#X connect 20 8 21 0;
#X coords 0 -1 1 1 133 41 1 180 150;
