#N canvas 1920 32 1920 1048 10;
#X obj 157 98 inlet~;
#X obj 183 165 hsl 128 13 0 127 0 0 empty empty freq -2 8 0 10 -262144
-1 -1 11108 1;
#X obj 183 178 hsl 128 13 0.001 4 0 0 empty empty resonance -2 8 0
10 -262144 -1 -1 314 1;
#X obj 157 304 moog~;
#X obj 157 324 outlet~;
#X obj 298 150 bng 15 250 50 0 empty empty r 4 7 0 10 -262144 -1 -1
;
#X obj 163 228 mtof;
#X msg 103 179 reset;
#X obj 227 45 inlet;
#X obj 164 255 aline~ 20;
#X obj 225 255 aline~ 20;
#X obj 266 30 lb \$1;
#X msg 266 53 freq \$1;
#X msg 326 53 res \$1;
#X obj 227 95 ftom;
#X obj 227 74 route freq mfreq midi res mres float;
#X obj 369 123 / 127;
#X obj 369 146 * 4;
#X obj 326 30 lb \$2;
#X connect 0 0 3 0;
#X connect 1 0 6 0;
#X connect 2 0 10 0;
#X connect 3 0 4 0;
#X connect 5 0 7 0;
#X connect 6 0 9 0;
#X connect 7 0 3 0;
#X connect 8 0 15 0;
#X connect 9 0 3 1;
#X connect 10 0 3 2;
#X connect 11 0 12 0;
#X connect 12 0 15 0;
#X connect 13 0 15 0;
#X connect 14 0 1 0;
#X connect 15 0 14 0;
#X connect 15 1 1 0;
#X connect 15 2 1 0;
#X connect 15 3 2 0;
#X connect 15 4 16 0;
#X connect 15 5 1 0;
#X connect 16 0 17 0;
#X connect 17 0 2 0;
#X connect 18 0 13 0;
#X coords 0 -1 1 1 133 41 1 180 150;
