#N canvas 0 0 1600 849 10;
#X obj 202 182 plugin~ imp;
#X msg 202 147 control #1 \$1;
#X obj 120 152 inlet~;
#X obj 202 109 inlet;
#X obj 246 225 outlet~;
#X text 286 127 accepts 1 to 21;
#X text 150 53 impulse convolver;
#X text 178 73 models amps i guess;
#X obj 165 111 lb \$1;
#X obj 202 128 clip 1 21;
#X connect 0 1 4 0;
#X connect 1 0 0 0;
#X connect 2 0 0 1;
#X connect 3 0 9 0;
#X connect 8 0 9 0;
#X connect 9 0 1 0;
