#N canvas 0 0 1600 849 10;
#X obj 77 48 inlet~;
#X obj 103 115 hsl 128 13 0 127 0 0 empty empty freq_220 -2 8 0 10
-262144 -1 -1 5700 1;
#X obj 103 128 hsl 128 13 0.001 1 0 0 empty empty resonance_0.866276
-2 8 0 10 -262144 -1 -1 11000 1;
#X obj 77 334 outlet~;
#X obj 87 205 kline~ 20;
#X obj 148 205 kline~ 20;
#X obj 87 186 mtof;
#X obj 187 35 inlet;
#X obj 187 54 route freq res;
#X obj 208 75 autoscale 0 1;
#X obj 173 100 hradio 15 1 0 4 empty empty low 1 8 0 12 -262144 -1
-258113 0;
#X obj 176 293 *~ 0;
#X obj 143 293 *~ 0;
#X obj 110 293 *~ 0;
#X obj 77 293 *~ 0;
#X obj 77 230 svf~;
#X obj 177 229 f;
#X obj 98 274 == 0;
#X obj 131 274 == 1;
#X obj 164 274 == 2;
#X obj 197 274 == 3;
#X msg 227 160 label resonance_\$1;
#X msg 246 193 label freq_\$1;
#X msg 279 126 label \$1;
#X obj 302 106 map low high band notch;
#X connect 0 0 15 0;
#X connect 1 0 6 0;
#X connect 2 0 5 0;
#X connect 2 0 21 0;
#X connect 4 0 15 1;
#X connect 5 0 15 2;
#X connect 6 0 4 0;
#X connect 6 0 22 0;
#X connect 7 0 8 0;
#X connect 8 0 1 0;
#X connect 8 1 9 0;
#X connect 8 2 1 0;
#X connect 9 0 2 0;
#X connect 10 0 16 0;
#X connect 10 0 24 0;
#X connect 11 0 3 0;
#X connect 12 0 3 0;
#X connect 13 0 3 0;
#X connect 14 0 3 0;
#X connect 15 0 14 0;
#X connect 15 1 13 0;
#X connect 15 2 12 0;
#X connect 15 3 11 0;
#X connect 16 0 17 0;
#X connect 16 0 18 0;
#X connect 16 0 19 0;
#X connect 16 0 20 0;
#X connect 17 0 14 1;
#X connect 18 0 13 1;
#X connect 19 0 12 1;
#X connect 20 0 11 1;
#X connect 21 0 2 0;
#X connect 22 0 1 0;
#X connect 23 0 10 0;
#X connect 24 0 23 0;
#X coords 0 -1 1 1 133 41 1 100 100;
