#N canvas 0 29 2560 1566 10;
#X obj 77 48 inlet~;
#X obj 103 115 hsl 128 13 0 127 0 0 \$0-freq-midinote-s \$0-freq-midinote freq:440 -2 8 0 10 #fcfcfc #000000 #000000 0 1;
#X obj 103 128 hsl 128 13 0.001 1 0 0 \$0-res-s \$0-res resonance:0.567362 -2 8 0 10 #fcfcfc #000000 #000000 0 1;
#X obj 77 474 outlet~;
#X obj 87 186 mtof;
#X obj 207 15 inlet;
#X obj 176 433 *~ 0;
#X obj 143 433 *~ 0;
#X obj 110 433 *~ 0;
#X obj 77 433 *~ 0;
#X obj 77 310 svf~;
#X obj 177 369 f;
#X obj 98 414 == 0;
#X obj 131 414 == 1;
#X obj 164 414 == 2;
#X obj 197 414 == 3;
#X msg 294 422 label \$1;
#X obj 87 285 aline~ 20;
#X obj 148 285 aline~ 20;
#X obj 294 341 r \$0-type-s;
#X obj 173 100 hradio 15 1 0 4 \$0-type-s \$0-type lowpass 1 8 0 12 #fcfcfc #000000 #fc0400 0;
#X obj 294 441 s \$0-type;
#X obj 294 403 map lowpass highpass bandpass notch;
#X obj 285 100 clip 0 1;
#X msg 103 209 label freq:\$1;
#X obj 201 315 lb 0;
#X obj 87 167 r \$0-freq-midinote-s;
#X obj 103 228 s \$0-freq-midinote;
#X obj 378 48 inlet;
#X obj 378 70 s \$0-res;
#X msg 258 261 label resonance:\$1;
#X obj 258 222 r \$0-res-s;
#X obj 258 280 s \$0-res;
#X obj 285 122 s \$0-res;
#X obj 207 34 route float freq res;
#X obj 153 75 ftom;
#X connect 0 0 10 0;
#X connect 4 0 24 0;
#X connect 4 0 17 0;
#X connect 5 0 34 0;
#X connect 6 0 3 0;
#X connect 7 0 3 0;
#X connect 8 0 3 0;
#X connect 9 0 3 0;
#X connect 10 0 9 0;
#X connect 10 1 8 0;
#X connect 10 2 7 0;
#X connect 10 3 6 0;
#X connect 11 0 12 0;
#X connect 11 0 13 0;
#X connect 11 0 14 0;
#X connect 11 0 15 0;
#X connect 12 0 9 1;
#X connect 13 0 8 1;
#X connect 14 0 7 1;
#X connect 15 0 6 1;
#X connect 16 0 21 0;
#X connect 17 0 10 1;
#X connect 18 0 10 2;
#X connect 19 0 11 0;
#X connect 19 0 22 0;
#X connect 22 0 16 0;
#X connect 23 0 33 0;
#X connect 24 0 27 0;
#X connect 25 0 22 0;
#X connect 25 0 11 0;
#X connect 26 0 4 0;
#X connect 28 0 29 0;
#X connect 30 0 32 0;
#X connect 31 0 30 0;
#X connect 31 0 18 0;
#X connect 34 0 35 0;
#X connect 34 1 35 0;
#X connect 34 2 23 0;
#X connect 35 0 1 0;
#X coords 0 -1 1 1 133 41 1 100 100;
