#N canvas 115 215 367 427 10;
#X obj 174 25 inlet;
#X obj 231 25 inlet;
#X obj 105 127 rec~;
#X obj 174 67 del;
#X obj 112 29 inlet~;
#X obj 174 47 * 20;
#X obj 231 46 route float on;
#X obj 48 323 outlet~;
#X obj 105 280 tabread4~;
#X obj 105 169 symbol;
#X msg 105 189 set \$1;
#X obj 190 269 phasor~;
#X obj 43 302 *~ 1;
#X obj 87 301 *~ 0;
#X obj 285 102 kinv;
#X obj 173 236 *;
#X msg 138 68 1;
#X msg 173 90 0;
#X obj 173 215 t b f;
#X obj 189 300 *~ 1;
#X obj 105 148 route table freq size;
#X connect 0 0 5 0;
#X connect 1 0 6 0;
#X connect 2 0 20 0;
#X connect 3 0 17 0;
#X connect 4 0 2 0;
#X connect 4 0 12 0;
#X connect 5 0 3 0;
#X connect 5 0 16 0;
#X connect 6 0 15 0;
#X connect 6 0 11 0;
#X connect 6 1 13 1;
#X connect 6 1 14 0;
#X connect 8 0 13 0;
#X connect 9 0 10 0;
#X connect 10 0 8 0;
#X connect 11 0 19 0;
#X connect 12 0 7 0;
#X connect 13 0 7 0;
#X connect 14 0 12 1;
#X connect 16 0 2 1;
#X connect 17 0 2 1;
#X connect 18 0 15 0;
#X connect 18 1 15 1;
#X connect 19 0 8 0;
#X connect 20 0 9 0;
#X connect 20 1 18 0;
#X connect 20 2 19 1;
