#N canvas 0 0 800 410 10;
#X obj 187 237 inlet~;
#X obj 309 350 outlet~;
#X msg 272 224 control #1 \$1;
#X obj 272 157 inlet;
#X obj 268 289 plugin~ karaoke;
#X obj 229 237 inlet~;
#X obj 357 350 outlet~;
#X obj 272 205 max -70;
#X obj 272 186 min 0;
#X obj 308 157 lb \$1 -30;
#X connect 0 0 4 1;
#X connect 2 0 4 0;
#X connect 3 0 8 0;
#X connect 4 1 1 0;
#X connect 4 2 6 0;
#X connect 5 0 4 2;
#X connect 7 0 2 0;
#X connect 8 0 7 0;
#X connect 9 0 8 0;
