#N canvas 0 0 800 871 10;
#X obj 42 128 inlet~;
#X obj 164 60 inlet;
#X msg 137 120 control #1 \$1;
#X obj 181 222 outlet~;
#X msg 233 120 control #2 \$1;
#X obj 116 60 lb \$1 4;
#X obj 200 60 lb \$2 20;
#X obj 254 60 inlet;
#X obj 144 159 plugin~ lofi;
#X obj 84 128 inlet~;
#X msg 322 120 control #3 \$1;
#X obj 362 60 inlet;
#X text 115 47 crackling (%);
#X obj 137 101 clip -0.1 100.1;
#X text 175 34 powersupply overloading (%);
#X text 284 47 opamp bandwidth limiting (Hz);
#X obj 233 101 clip 0 100;
#X obj 290 60 lb \$3 10000;
#X obj 322 101 clip 1 10000;
#X obj 229 222 outlet~;
#X connect 0 0 8 1;
#X connect 1 0 13 0;
#X connect 2 0 8 0;
#X connect 4 0 8 0;
#X connect 5 0 13 0;
#X connect 6 0 16 0;
#X connect 7 0 16 0;
#X connect 8 1 3 0;
#X connect 8 2 19 0;
#X connect 9 0 8 2;
#X connect 10 0 8 0;
#X connect 11 0 18 0;
#X connect 13 0 2 0;
#X connect 16 0 4 0;
#X connect 17 0 18 0;
#X connect 18 0 10 0;
