#N canvas 0 0 2560 1566 10;
#X obj 93 364 freeverb~;
#X obj 66 53 inlet~;
#X obj 144 53 inlet~;
#X obj 108 53 inlet;
#X obj 93 402 outlet~;
#X obj 144 402 outlet~;
#X msg 93 259 roomsize \$1;
#X obj 229 185 hsl 100 12 0 10 0 0 empty empty roomsize -2 4 0 10 #fcfcfc #000000 #000000 0 1;
#X obj 229 197 hsl 100 12 0 10 0 0 empty empty damping -2 4 0 10 #fcfcfc #000000 #000000 0 1;
#X msg 100 278 damping \$1;
#X obj 229 209 hsl 100 12 0 10 0 0 empty empty width -2 4 0 10 #fcfcfc #000000 #000000 0 1;
#X obj 229 221 hsl 100 12 0 10 0 0 empty empty wet -2 4 0 10 #fcfcfc #000000 #000000 0 1;
#X obj 229 233 hsl 100 12 0 10 0 0 empty empty dry -2 4 0 10 #fcfcfc #000000 #000000 0 1;
#X msg 121 316 wet \$1;
#X msg 130 335 dry \$1;
#X msg 111 297 width \$1;
#X obj 227 254 / 10;
#X obj 261 254 / 10;
#X obj 295 254 / 10;
#X obj 329 254 / 10;
#X obj 363 254 / 10;
#X obj 316 170 tgl 15 0 empty empty f 5 7 0 10 #fcfcfc #000000 #000000 0 1;
#X msg 427 277 freeze \$1;
#X obj 108 72 route roomsize size room damping damp width wet dry freeze bang bypass float;
#X floatatom 227 343 5 0 0 0 - - - 0;
#X floatatom 261 343 5 0 0 0 - - - 0;
#X floatatom 295 343 5 0 0 0 - - - 0;
#X floatatom 329 343 5 0 0 0 - - - 0;
#X floatatom 363 343 5 0 0 0 - - - 0;
#X obj 30 294 noise~;
#X obj 30 313 *~ 1e-09;
#X obj 93 383 /~ 2;
#X obj 144 383 /~ 2;
#X obj 181 134 ii \$1;
#X obj 217 134 ii \$2;
#X obj 253 134 ii \$3;
#X obj 289 134 ii \$4;
#X obj 325 134 ii \$5;
#X obj 361 134 ii \$6;
#X connect 0 0 31 0;
#X connect 0 1 32 0;
#X connect 1 0 0 0;
#X connect 2 0 0 1;
#X connect 3 0 23 0;
#X connect 6 0 0 0;
#X connect 7 0 16 0;
#X connect 7 0 24 0;
#X connect 8 0 17 0;
#X connect 8 0 25 0;
#X connect 9 0 0 0;
#X connect 10 0 18 0;
#X connect 10 0 26 0;
#X connect 11 0 19 0;
#X connect 11 0 27 0;
#X connect 12 0 20 0;
#X connect 12 0 28 0;
#X connect 13 0 0 0;
#X connect 14 0 0 0;
#X connect 15 0 0 0;
#X connect 16 0 6 0;
#X connect 17 0 9 0;
#X connect 18 0 15 0;
#X connect 19 0 13 0;
#X connect 20 0 14 0;
#X connect 21 0 22 0;
#X connect 22 0 0 0;
#X connect 23 0 33 0;
#X connect 23 1 33 0;
#X connect 23 2 33 0;
#X connect 23 3 34 0;
#X connect 23 4 34 0;
#X connect 23 5 35 0;
#X connect 23 6 36 0;
#X connect 23 7 37 0;
#X connect 23 8 38 0;
#X connect 23 9 21 0;
#X connect 29 0 30 0;
#X connect 30 0 0 0;
#X connect 30 0 0 1;
#X connect 31 0 4 0;
#X connect 32 0 5 0;
#X connect 33 0 7 0;
#X connect 34 0 8 0;
#X connect 35 0 10 0;
#X connect 36 0 11 0;
#X connect 37 0 12 0;
#X connect 38 0 21 0;
#X coords 0 0 1 1 105 75 0;
