#N canvas 0 0 800 849 10;
#X obj 40 40 inlet~;
#X obj 86 40 inlet~;
#X obj 133 40 inlet~;
#X obj 40 99 outlet~;
#X text 364 37 mmf - multi-mode filter;
#X obj 175 20 inlet;
#X obj 175 179 list-idx;
#X obj 175 78 t b f;
#X obj 175 198 symbol;
#X floatatom 175 41 5 0 0 0 - - -;
#X obj 175 217 t b s;
#X obj 216 23 lb \$1;
#X text 364 57 TODO: add more filters \, add mrange~;
#N canvas 0 0 1600 849 \$0-mmf_filter 0;
#X obj 0 20 inlet~;
#X obj 50 20 inlet~;
#X obj 100 20 inlet~;
#X obj 0 50 vcf_lp4~;
#X obj 0 100 outlet~;
#X connect 0 0 3 0;
#X connect 1 0 3 1;
#X connect 2 0 3 2;
#X connect 3 0 4 0;
#X restore 40 71 pd \$0-mmf_filter;
#X obj 202 236 pack s \$0;
#X msg 202 255 \; pd-\$2-mmf_filter clear \, obj 0 20 inlet~ \, obj
50 20 inlet~ \, obj 100 20 inlet~ \, obj 0 50 \$1 \, obj 0 100 outlet~
;
#X obj 175 300 f \$0;
#X obj 50 15 namecanvas \$0-x;
#X obj 320 181 list length;
#X floatatom 320 200 5 0 0 0 - - -;
#X obj 320 218 outlet;
#X obj 175 59 change;
#X obj 53 201 s2l;
#X msg 68 182 symbol;
#X obj 68 163 loadbang;
#X obj 53 220 list-drip;
#X obj 53 239 sel _ ~;
#X msg 92 258 add2 \$1;
#X msg 92 277;
#X msg 104 239 bang \, set;
#X obj 92 296 l2s;
#X msg 175 97 list moog~ vcf_lp4~ vcf_lp6~ vcf_lp8~ vcf_bp2~ vcf_bp4~
vcf_bp6~ vcf_bp8~ vcf_hp2~ vcf_hp4~ vcf_hp6~ vcf_hp8~;
#X msg 175 319 \; pd-\$1-mmf_filter connect 0 0 3 0 \, connect 1 0
3 1 \, connect 2 0 3 2 \, connect 3 0 4 0 \; \$1-x connect 0 0 13 0
\, connect 1 0 13 1 \, connect 2 0 13 2 \, connect 13 0 3 0;
#X obj 220 204 print filter;
#X connect 0 0 13 0;
#X connect 1 0 13 1;
#X connect 2 0 13 2;
#X connect 5 0 9 0;
#X connect 6 0 8 0;
#X connect 6 0 22 0;
#X connect 6 0 33 0;
#X connect 7 0 31 0;
#X connect 7 1 6 1;
#X connect 8 0 10 0;
#X connect 9 0 21 0;
#X connect 10 0 16 0;
#X connect 10 1 14 0;
#X connect 11 0 9 0;
#X connect 13 0 3 0;
#X connect 14 0 15 0;
#X connect 16 0 32 0;
#X connect 18 0 19 0;
#X connect 19 0 20 0;
#X connect 21 0 7 0;
#X connect 22 0 25 0;
#X connect 23 0 22 1;
#X connect 23 0 30 1;
#X connect 24 0 23 0;
#X connect 25 0 26 0;
#X connect 25 1 29 0;
#X connect 26 2 27 0;
#X connect 27 0 28 0;
#X connect 28 0 30 0;
#X connect 29 0 28 0;
#X connect 30 0 20 0;
#X connect 31 0 6 0;
#X connect 31 0 18 0;
