#N canvas 800 0 800 871 10;
#X obj 32 118 inlet~;
#X obj 154 50 inlet;
#X msg 134 110 control #1 \$1;
#X obj 221 212 outlet~;
#X obj 134 149 plugin~ multivoiceChorus;
#X msg 223 110 control #2 \$1;
#X obj 106 50 lb \$1 4;
#X obj 134 72 min 8;
#X obj 134 91 max 1;
#X text 105 37 number of voices;
#X msg 312 110 control #3 \$1;
#X obj 190 50 lb \$2 20;
#X obj 223 72 min 40;
#X obj 223 91 max 10;
#X obj 244 50 inlet;
#X text 195 37 delay base (ms);
#X obj 328 50 inlet;
#X obj 280 50 lb \$3 1;
#X obj 312 72 min 2;
#X obj 312 91 max 0;
#X text 274 37 voice separation (ms);
#X obj 417 50 inlet;
#X obj 401 91 max 0;
#X obj 369 50 lb \$4 2;
#X text 392 37 detune (%);
#X msg 401 110 control #4 \$1;
#X obj 506 50 inlet;
#X obj 458 50 lb \$5 3;
#X obj 401 72 min 5;
#X obj 490 72 min 30;
#X obj 490 91 max 2;
#X text 467 37 lfo freq (Hz);
#X msg 490 110 control #5 \$1;
#X connect 0 0 4 1;
#X connect 1 0 7 0;
#X connect 2 0 4 0;
#X connect 4 1 3 0;
#X connect 5 0 4 0;
#X connect 6 0 7 0;
#X connect 7 0 8 0;
#X connect 8 0 2 0;
#X connect 10 0 4 0;
#X connect 11 0 12 0;
#X connect 12 0 13 0;
#X connect 13 0 5 0;
#X connect 14 0 12 0;
#X connect 16 0 18 0;
#X connect 17 0 18 0;
#X connect 18 0 19 0;
#X connect 19 0 10 0;
#X connect 21 0 28 0;
#X connect 22 0 25 0;
#X connect 23 0 28 0;
#X connect 25 0 4 0;
#X connect 26 0 29 0;
#X connect 27 0 29 0;
#X connect 28 0 22 0;
#X connect 29 0 30 0;
#X connect 30 0 32 0;
#X connect 32 0 4 0;
