#N canvas 1920 32 1920 1048 10;
#X obj 365 156 inlet~;
#X obj 357 345 outlet~;
#X obj 556 240 phasor~;
#X obj 536 267 cos~;
#X obj 574 272 +~ 0.5;
#X floatatom 556 216 5 0 0 1 freq - -;
#X obj 536 321 +~ 2;
#X floatatom 635 304 5 0 0 1 depth - -;
#X obj 575 307 wrap~;
#X obj 575 329 cos~;
#X obj 575 352 *~ 2;
#X obj 575 379 +~ 2;
#X obj 536 294 *~ 2;
#X obj 535 483 *~ 0.8;
#X obj 389 218 delwrite~ \$0-phase1 100;
#X obj 535 460 vd~ \$0-phase1;
#X obj 576 423 *~ 0.8;
#X floatatom 645 431 5 0 0 1 feedback - -;
#X obj 575 400 vd~ \$0-phase2;
#X obj 373 285 delwrite~ \$0-phase2 100;
#X text 419 44 copied from guitarextended.wordpress.com \, with modifications
;
#X text 422 19 a phaser effect;
#X text 849 128 phaser feedback (-1 to 1);
#X text 851 98 LFO depth;
#X text 850 67 LFO frequency;
#X text 852 38 arguments:;
#X obj 556 189 lb \$1 0.7;
#X obj 635 277 lb \$2 0.5;
#X obj 667 402 lb \$3 0.8;
#X obj 556 166 inlet;
#X obj 635 250 inlet;
#X obj 667 378 inlet;
#X connect 0 0 14 0;
#X connect 0 0 19 0;
#X connect 0 0 1 0;
#X connect 2 0 3 0;
#X connect 2 0 4 0;
#X connect 3 0 12 0;
#X connect 4 0 8 0;
#X connect 5 0 2 0;
#X connect 6 0 15 0;
#X connect 7 0 10 1;
#X connect 7 0 11 1;
#X connect 7 0 12 1;
#X connect 7 0 6 1;
#X connect 8 0 9 0;
#X connect 9 0 10 0;
#X connect 10 0 11 0;
#X connect 11 0 18 0;
#X connect 12 0 6 0;
#X connect 13 0 14 0;
#X connect 15 0 13 0;
#X connect 15 0 1 0;
#X connect 16 0 19 0;
#X connect 17 0 16 1;
#X connect 17 0 13 1;
#X connect 18 0 16 0;
#X connect 18 0 1 0;
#X connect 26 0 5 0;
#X connect 27 0 7 0;
#X connect 28 0 17 0;
#X connect 29 0 26 0;
#X connect 30 0 27 0;
#X connect 31 0 28 0;
