#N canvas 0 0 800 849 10;
#X obj 67 238 inlet~;
#X obj 348 350 outlet~;
#X msg 132 224 control #1 \$1;
#X msg 223 238 control #2 \$1;
#X obj 96 167 inlet;
#X msg 323 238 control #3 \$1;
#X msg 417 252 control #4 \$1;
#X obj 187 181 inlet;
#X obj 223 200 min 1;
#X obj 223 219 max 0;
#X obj 287 181 inlet;
#X obj 323 200 min 1;
#X obj 381 195 inlet;
#X obj 417 233 max 0;
#X obj 268 289 plugin~ lfoPhaser;
#X obj 417 214 min 2;
#X text 375 181 spread (octaves);
#X obj 417 195 lb \$4 1;
#X text 97 152 lfo rate (Hz);
#X obj 132 186 min 100;
#X obj 132 205 max 0;
#X text 194 167 lfo depth;
#X text 298 168 feedback;
#X obj 323 219 max -1;
#X obj 132 167 lb \$1 3;
#X obj 223 181 lb \$2 0.5;
#X obj 323 181 lb \$3;
#X connect 0 0 14 1;
#X connect 2 0 14 0;
#X connect 3 0 14 0;
#X connect 4 0 19 0;
#X connect 5 0 14 0;
#X connect 6 0 14 0;
#X connect 7 0 8 0;
#X connect 8 0 9 0;
#X connect 9 0 3 0;
#X connect 10 0 11 0;
#X connect 11 0 23 0;
#X connect 12 0 15 0;
#X connect 13 0 6 0;
#X connect 14 1 1 0;
#X connect 15 0 13 0;
#X connect 17 0 15 0;
#X connect 19 0 20 0;
#X connect 20 0 2 0;
#X connect 23 0 5 0;
#X connect 24 0 19 0;
#X connect 25 0 8 0;
#X connect 26 0 11 0;
