#N canvas 0 0 1600 870 10;
#X obj 40 40 inlet~;
#X obj 40 259 outlet~;
#X obj 40 89 rpole~;
#X obj 40 64 rzero_rev~;
#X obj 40 138 rpole~;
#X obj 40 113 rzero_rev~;
#X obj 40 186 rpole~;
#X obj 40 161 rzero_rev~;
#X obj 40 235 rpole~;
#X obj 40 210 rzero_rev~;
#X obj 125 49 inlet~;
#X connect 0 0 3 0;
#X connect 2 0 5 0;
#X connect 3 0 2 0;
#X connect 4 0 7 0;
#X connect 5 0 4 0;
#X connect 6 0 9 0;
#X connect 7 0 6 0;
#X connect 8 0 1 0;
#X connect 9 0 8 0;
#X connect 10 0 3 1;
#X connect 10 0 2 1;
#X connect 10 0 5 1;
#X connect 10 0 4 1;
#X connect 10 0 7 1;
#X connect 10 0 6 1;
#X connect 10 0 9 1;
#X connect 10 0 8 1;
