#N canvas 0 0 1600 849 10;
#X obj 220 62 inlet~;
#X obj 167 192 outlet~;
#X obj 277 192 outlet~;
#X obj 132 100 delwrite~ \$0-pp \$1;
#X obj 133 133 delread~ \$0-pp \$1;
#X obj 313 133 delread~ \$0-pp2 \$1;
#X obj 312 100 delwrite~ \$0-pp2 \$1;
#X obj 262 99 *~ \$2;
#X obj 289 80 lb \$2 0.5;
#X connect 0 0 3 0;
#X connect 4 0 1 0;
#X connect 4 0 6 0;
#X connect 5 0 7 0;
#X connect 5 0 2 0;
#X connect 7 0 3 0;
#X connect 8 0 7 1;
