#N canvas 0 0 800 421 10;
#X obj 67 252 inlet~;
#X obj 300 350 outlet~;
#X msg 132 238 control #1 \$1;
#X msg 223 238 control #2 \$1;
#X obj 96 181 inlet;
#X obj 187 181 inlet;
#X obj 223 200 min 1;
#X obj 223 219 max 0;
#X obj 268 289 plugin~ plate;
#X obj 348 350 outlet~;
#X msg 323 238 control #3 1;
#X obj 323 219 loadbang;
#X obj 132 200 min 8.5;
#X obj 132 219 max 0.01;
#X text 202 167 damping;
#X text 99 168 reverb time;
#X obj 132 181 lb \$1 5;
#X obj 223 181 lb \$2 0.3;
#X connect 0 0 8 1;
#X connect 2 0 8 0;
#X connect 3 0 8 0;
#X connect 4 0 12 0;
#X connect 5 0 6 0;
#X connect 6 0 7 0;
#X connect 7 0 3 0;
#X connect 8 1 1 0;
#X connect 8 2 9 0;
#X connect 10 0 8 0;
#X connect 11 0 10 0;
#X connect 12 0 13 0;
#X connect 13 0 2 0;
#X connect 16 0 12 0;
#X connect 17 0 6 0;
