#N canvas 0 0 1600 871 10;
#X obj 91 14 inlet~;
#X obj 81 110 plugin~ pointerCastDistortion;
#X obj 81 62 loadbang;
#X msg 81 87 control #2 1;
#X obj 189 -61 inlet;
#X msg 188 70 control #1 \$1;
#X text 236 49 frequencies passed to the effect (lp);
#X text -8 88 sets wet to 100%;
#X obj 252 135 outlet~;
#X obj 238 -73 lb \$1;
#X obj 238 -54 sel 0;
#X msg 199 -35 10000;
#X obj 188 51 max 1;
#X obj 121 -30 route bang;
#X msg 68 -10 reset;
#X connect 0 0 1 1;
#X connect 1 1 8 0;
#X connect 2 0 3 0;
#X connect 3 0 1 0;
#X connect 4 0 13 0;
#X connect 5 0 1 0;
#X connect 9 0 10 0;
#X connect 10 0 11 0;
#X connect 10 1 12 0;
#X connect 11 0 12 0;
#X connect 12 0 5 0;
#X connect 13 0 14 0;
#X connect 13 1 12 0;
#X connect 14 0 1 0;
