#N canvas 0 0 1600 849 10;
#X obj 83 92 inlet~;
#X obj -113 275 outlet~;
#X msg 117 221 0;
#X obj 117 202 loadbang;
#X obj -113 237 +~ 1;
#X obj -113 32 inlet~;
#X text 118 111 record inlet~;
#X obj -113 256 tabread4~ \$0-foo;
#X obj 83 259 poke~ \$0-foo;
#X obj 266 144 table \$0-foo 1000;
#X obj -113 218 *~ 1000;
#X floatatom -80 162 20 0 0 1 freq - -;
#X obj -80 143 expr 1/$f1;
#X obj -65 108 nbx 5 14 0 1e+37 0 0 empty empty sample_rate 56 8 0
10 -262144 -1 -1 44100 256;
#X obj -80 124 /;
#X obj -65 89 samplerate~;
#X obj -92 70 t b b;
#X text -142 17 frequency inlet~;
#X obj -113 199 phasor~;
#X obj -113 180 *~ 0.5;
#X text 322 106 todo: allow changing of table size...;
#X obj -20 39 bng 15 250 50 0 empty empty empty 17 7 0 10 -262144 -1
-1;
#X obj 305 176 inlet;
#X obj 117 240 count~ 0 1000;
#X obj -113 161 /~ 2;
#X obj 201 258 pack 0 \$0;
#X floatatom 201 240 20 0 0 0 - - -;
#X msg 201 277 \; \$2-foo resize \$1;
#X obj 341 176 lb \$1 1000;
#X obj 305 213 s \$0-size;
#X obj 192 185 r \$0-size;
#X obj -92 89 f;
#X obj 15 48 r \$0-size;
#X obj -92 51 loadbang;
#X obj -39 198 / 2;
#X connect 0 0 8 0;
#X connect 2 0 23 0;
#X connect 3 0 2 0;
#X connect 4 0 7 0;
#X connect 5 0 24 0;
#X connect 7 0 1 0;
#X connect 10 0 4 0;
#X connect 11 0 19 1;
#X connect 12 0 11 0;
#X connect 13 0 14 1;
#X connect 14 0 12 0;
#X connect 15 0 13 0;
#X connect 16 0 31 0;
#X connect 16 1 15 0;
#X connect 18 0 10 0;
#X connect 19 0 18 0;
#X connect 21 0 16 0;
#X connect 22 0 29 0;
#X connect 23 0 8 1;
#X connect 24 0 19 0;
#X connect 25 0 27 0;
#X connect 26 0 25 0;
#X connect 28 0 29 0;
#X connect 30 0 26 0;
#X connect 30 0 23 1;
#X connect 31 0 14 0;
#X connect 32 0 31 1;
#X connect 32 0 34 0;
#X connect 33 0 16 0;
#X connect 34 0 10 1;
