#N canvas 0 0 2560 1568 10;
#X obj 263 92 inlet~;
#X obj 67 275 outlet~;
#X msg 297 221 0;
#X obj 297 202 loadbang;
#X obj 67 237 +~ 1;
#X obj 67 32 inlet~;
#X text 298 111 record inlet~;
#X obj 67 256 tabread4~ \$0-foo;
#X obj 263 259 poke~ \$0-foo;
#X obj 446 144 table \$0-foo 1000;
#X obj 67 218 *~ 1000;
#X floatatom 100 162 20 0 0 1 freq - - 0;
#X obj 100 143 expr 1/$f1;
#X obj 115 108 nbx 5 14 0 1e+37 0 0 empty empty sample_rate 56 8 0 10 #fcfcfc #000000 #000000 0 256;
#X obj 100 124 /;
#X obj 115 89 samplerate~;
#X obj 88 70 t b b;
#X text 38 17 frequency inlet~;
#X obj 67 199 phasor~;
#X obj 67 180 *~ 0.5;
#X text 502 106 todo: allow changing of table size...;
#X obj 160 39 bng 15 250 50 0 empty empty empty 17 7 0 10 #fcfcfc #000000 #000000;
#X obj 485 176 inlet;
#X obj 297 240 count~ 0 1000;
#X obj 67 161 /~ 2;
#X obj 381 258 pack 0 \$0;
#X floatatom 381 240 20 0 0 0 - - - 0;
#X msg 381 277 \; \$2-foo resize \$1;
#X obj 521 176 lb \$1 1000;
#X obj 485 213 s \$0-size;
#X obj 372 185 r \$0-size;
#X obj 88 89 f;
#X obj 195 48 r \$0-size;
#X obj 88 51 loadbang;
#X obj 141 198 / 2;
#X connect 0 0 8 0;
#X connect 2 0 23 0;
#X connect 3 0 2 0;
#X connect 4 0 7 0;
#X connect 5 0 24 0;
#X connect 7 0 1 0;
#X connect 10 0 4 0;
#X connect 11 0 19 1;
#X connect 12 0 11 0;
#X connect 13 0 14 1;
#X connect 14 0 12 0;
#X connect 15 0 13 0;
#X connect 16 0 31 0;
#X connect 16 1 15 0;
#X connect 18 0 10 0;
#X connect 19 0 18 0;
#X connect 21 0 16 0;
#X connect 22 0 29 0;
#X connect 23 0 8 1;
#X connect 24 0 19 0;
#X connect 25 0 27 0;
#X connect 26 0 25 0;
#X connect 28 0 29 0;
#X connect 30 0 26 0;
#X connect 30 0 23 1;
#X connect 31 0 14 0;
#X connect 32 0 31 1;
#X connect 32 0 34 0;
#X connect 33 0 16 0;
#X connect 34 0 10 1;
