#N canvas 0 0 800 421 10;
#X obj 158 252 inlet~;
#X obj 347 350 outlet~;
#X msg 223 238 control #1 \$1;
#X msg 314 238 control #2 \$1;
#X obj 187 181 inlet;
#X obj 278 181 inlet;
#X obj 268 289 plugin~ retroFlange;
#X obj 223 181 lb \$1 5;
#X text 176 166 average stall (ms);
#X text 272 167 flange freq (Hz);
#X obj 223 200 min 10;
#X obj 223 219 max 0;
#X obj 314 200 min 8;
#X obj 314 219 max 0.5;
#X obj 314 181 lb \$2 2;
#X connect 0 0 6 1;
#X connect 2 0 6 0;
#X connect 3 0 6 0;
#X connect 4 0 10 0;
#X connect 5 0 12 0;
#X connect 6 1 1 0;
#X connect 7 0 10 0;
#X connect 10 0 11 0;
#X connect 11 0 2 0;
#X connect 12 0 13 0;
#X connect 13 0 3 0;
#X connect 14 0 12 0;
