#N canvas 0 0 800 421 10;
#X obj 67 252 inlet~;
#X obj 347 350 outlet~;
#X msg 132 238 control #1 \$1;
#X obj 96 181 inlet;
#X msg 428 237 control #4 \$1;
#X obj 392 180 inlet;
#X obj 428 199 min 1;
#X obj 428 218 max 0;
#X obj 268 289 plugin~ revdelay;
#X text 96 167 delay time (s);
#X obj 132 200 min 5;
#X obj 132 219 max 0;
#X text 231 197 dry level (dB);
#X text 318 198 wet level (dB);
#X obj 297 214 loadbang;
#X msg 223 238 control #2 -70;
#X msg 323 238 control #3 0;
#X obj 132 181 lb \$1 2;
#X obj 428 180 lb \$2 0.2;
#X text 415 167 feedback;
#X connect 0 0 8 1;
#X connect 2 0 8 0;
#X connect 3 0 10 0;
#X connect 4 0 8 0;
#X connect 5 0 6 0;
#X connect 6 0 7 0;
#X connect 7 0 4 0;
#X connect 8 1 1 0;
#X connect 10 0 11 0;
#X connect 11 0 2 0;
#X connect 14 0 15 0;
#X connect 14 0 16 0;
#X connect 15 0 8 0;
#X connect 16 0 8 0;
#X connect 17 0 10 0;
#X connect 18 0 6 0;
