#N canvas 0 29 1600 849 10;
#X obj 67 118 inlet~;
#X obj 308 230 outlet~;
#X obj 173 76 inlet;
#X obj 209 76 lb \$1 3;
#X obj 109 118 inlet~;
#X obj 268 169 plugin~ Reverb;
#X obj 356 230 outlet~;
#X obj 173 99 clip 0.4 15;
#X msg 173 118 control #1 \$1;
#X text 185 62 decay time;
#X obj 263 76 inlet;
#X msg 263 118 control #2 \$1;
#X obj 376 76 inlet;
#X obj 466 76 inlet;
#X text 275 62 high frq damp;
#X obj 263 99 clip 2000 20000;
#X obj 299 76 lb \$2 20000;
#X text 388 62 room size;
#X obj 376 99 clip 0 5;
#X text 478 62 diffusion;
#X obj 466 99 clip 0 1;
#X msg 376 118 control #3 \$1;
#X msg 466 118 control #4 \$1;
#X obj 412 76 lb \$3 3;
#X obj 502 76 lb \$4 0.5;
#X msg 211 178 info;
#X connect 0 0 5 1;
#X connect 2 0 7 0;
#X connect 3 0 7 0;
#X connect 4 0 5 2;
#X connect 5 1 1 0;
#X connect 5 2 6 0;
#X connect 7 0 8 0;
#X connect 8 0 5 0;
#X connect 10 0 15 0;
#X connect 11 0 5 0;
#X connect 12 0 18 0;
#X connect 13 0 20 0;
#X connect 15 0 11 0;
#X connect 16 0 15 0;
#X connect 18 0 21 0;
#X connect 20 0 22 0;
#X connect 21 0 5 0;
#X connect 22 0 5 0;
#X connect 23 0 18 0;
#X connect 24 0 20 0;
#X connect 25 0 5 0;
