#N canvas 0 0 800 421 10;
#X obj 146 162 plugin~ satanMaximiser;
#X msg 101 132 control #1 \$1;
#X msg 198 131 control #2 \$1;
#X obj 183 76 inlet~;
#X obj 271 222 outlet~;
#X obj 226 56 inlet;
#X obj 328 57 inlet;
#X msg 100 199 info;
#X obj 163 204 print f;
#X obj 226 75 min 30;
#X obj 226 94 max 2;
#X text 223 43 decay time (samples);
#X obj 328 76 min 0;
#X obj 328 95 max -90;
#X text 324 42 knee point (dB);
#X obj 262 56 lb \$1 15;
#X obj 364 57 lb \$2 -10;
#X connect 0 0 8 0;
#X connect 0 1 4 0;
#X connect 1 0 0 0;
#X connect 2 0 0 0;
#X connect 3 0 0 1;
#X connect 5 0 9 0;
#X connect 6 0 12 0;
#X connect 7 0 0 0;
#X connect 9 0 10 0;
#X connect 10 0 1 0;
#X connect 12 0 13 0;
#X connect 13 0 2 0;
#X connect 15 0 9 0;
#X connect 16 0 12 0;
