#N canvas 0 0 800 421 10;
#X obj 17 252 inlet~;
#X obj 347 350 outlet~;
#X msg 127 238 control #1 \$1;
#X msg 223 238 control #2 \$1;
#X obj 91 181 inlet;
#X msg 323 238 control #3 \$1;
#X msg 428 237 control #4 \$1;
#X obj 187 181 inlet;
#X obj 287 181 inlet;
#X obj 392 180 inlet;
#X obj 268 289 plugin~ sc2;
#X obj 127 200 min 400;
#X obj 127 219 max 2;
#X text 87 168 attack time (ms);
#X text 181 167 release time (ms);
#X obj 223 200 min 800;
#X obj 223 219 max 2;
#X text 268 168 threshhold level (dB);
#X obj 323 219 max -30;
#X obj 127 181 lb \$1 100;
#X obj 223 181 lb \$2 100;
#X obj 323 200 min 0;
#X text 397 167 ratio (1:n);
#X obj 428 199 min 10;
#X obj 428 218 max 1;
#X obj 492 180 inlet;
#X obj 528 199 min 10;
#X obj 528 218 max 1;
#X msg 528 237 control #5 \$1;
#X obj -35 253 inlet~;
#X obj 582 180 inlet;
#X msg 618 237 control #6 \$1;
#X text 488 167 knee radius (dB);
#X text 587 167 makeup gain (dB);
#X obj 618 199 min 24;
#X obj 618 218 max 0;
#X obj 618 180 lb \$6 10;
#X obj 528 180 lb \$5 5;
#X obj 428 180 lb \$4 3;
#X text -32 240 input;
#X text 14 240 sidechain;
#X obj 323 181 lb \$3 -30;
#X connect 0 0 10 1;
#X connect 2 0 10 0;
#X connect 3 0 10 0;
#X connect 4 0 11 0;
#X connect 5 0 10 0;
#X connect 6 0 10 0;
#X connect 7 0 15 0;
#X connect 8 0 21 0;
#X connect 9 0 23 0;
#X connect 10 1 1 0;
#X connect 11 0 12 0;
#X connect 12 0 2 0;
#X connect 15 0 16 0;
#X connect 16 0 3 0;
#X connect 18 0 5 0;
#X connect 19 0 11 0;
#X connect 20 0 15 0;
#X connect 21 0 18 0;
#X connect 23 0 24 0;
#X connect 24 0 6 0;
#X connect 25 0 26 0;
#X connect 26 0 27 0;
#X connect 27 0 28 0;
#X connect 28 0 10 0;
#X connect 29 0 10 2;
#X connect 30 0 34 0;
#X connect 31 0 10 0;
#X connect 34 0 35 0;
#X connect 35 0 31 0;
#X connect 36 0 34 0;
#X connect 37 0 26 0;
#X connect 38 0 23 0;
#X connect 41 0 21 0;
