#N canvas 0 0 1920 1048 10;
#X obj 40 40 inlet~;
#X obj 40 115 delwrite~ \$0-del \$1;
#X obj 197 58 vd~ \$0-del;
#X obj 197 120 outlet~;
#X obj 165 88 *~;
#X obj 197 14 lb \$1;
#X obj 197 36 inlet~;
#X obj 277 71 inlet~;
#X obj 277 49 lb \$2;
#X text 346 24 sdly~ - Simple delay.;
#X text 351 115 Inlets:;
#X text 356 135 1 - Signal input.;
#X text 356 148 2 - Delay time.;
#X text 356 161 3 - Delay feedback.;
#X text 351 53 Arguments:;
#X text 357 76 1 - Max and default delay time.;
#X text 357 89 2 - Default delay feedback.;
#X text 350 189 Outlets:;
#X text 354 210 1 - Delayed output.;
#X connect 0 0 1 0;
#X connect 2 0 3 0;
#X connect 2 0 4 0;
#X connect 4 0 1 0;
#X connect 5 0 6 0;
#X connect 6 0 2 0;
#X connect 7 0 4 1;
#X connect 8 0 7 0;
