#N canvas 0 22 679 612 10;
#X obj 212 446 cos~;
#X obj 217 321 >~ 2;
#X obj 252 322 <~ -2;
#X obj 233 358 ==~ 0;
#X obj 199 388 *~;
#X obj 210 421 +~ 0.25;
#X obj 95 188 *~;
#X obj 188 98 *~;
#X obj 299 269 * -1;
#X obj 193 283 *~ 2;
#X obj 293 190 t b f;
#X obj 299 230 * 2;
#X obj 353 105 abs;
#X obj 231 576 outlet~;
#X obj 353 80 - 1;
#X obj 256 42 * 4;
#X obj 353 182 * 8;
#X obj 352 58 r \$0-limit;
#X obj 353 162 r \$0-depth;
#X obj 256 19 r \$0-depth;
#X obj 163 20 r \$0-amount;
#X obj 293 427 r \$0-gain;
#X obj 340 445 loadbang;
#N canvas 0 22 462 312 rh_scalelog 0;
#X obj 20 155 exp;
#X obj 20 107 *;
#X obj 20 130 +;
#X obj 98 87 log;
#X obj 194 84 log;
#X obj 123 123 t b f;
#X obj 123 145 -;
#X obj 20 183 outlet;
#X obj 20 19 inlet;
#X obj 98 23 inlet;
#X obj 194 24 inlet;
#X connect 0 0 7 0;
#X connect 1 0 2 0;
#X connect 2 0 0 0;
#X connect 3 0 2 1;
#X connect 3 0 5 0;
#X connect 4 0 6 0;
#X connect 5 0 6 0;
#X connect 5 1 6 1;
#X connect 6 0 1 1;
#X connect 8 0 1 0;
#X connect 9 0 3 0;
#X connect 10 0 4 0;
#X restore 293 497 pd rh_scalelog;
#X msg 340 473 0.1;
#X msg 386 473 10;
#X obj 231 545 *~;
#X obj 458 394 s \$0-amount;
#X obj 457 255 vsl 15 128 0 1 0 0 empty empty empty 0 -8 0 10 -262144
-1 -1 0 1;
#X obj 484 232 vsl 15 128 0 1 0 0 empty empty empty 0 -8 0 10 -262144
-1 -1 0 1;
#X obj 485 371 s \$0-depth;
#X obj 511 206 vsl 15 128 0 1 0 0 empty empty empty 0 -8 0 10 -262144
-1 -1 0 1;
#X obj 538 183 vsl 15 128 0 1 0 0 empty empty empty 0 -8 0 10 -262144
-1 -1 0 1;
#X obj 512 345 s \$0-limit;
#X obj 539 322 s \$0-gain;
#X obj 446 146 unpack 0 0 0 0;
#X obj 442 95 loadbang;
#X msg 445 118 0.3 0.3 0.8 0.2;
#X obj 97 123 inlet~;
#X obj 165 46 sig~;
#X connect 0 0 26 0;
#X connect 1 0 3 0;
#X connect 2 0 3 0;
#X connect 3 0 4 1;
#X connect 4 0 5 0;
#X connect 5 0 0 0;
#X connect 6 0 9 0;
#X connect 7 0 6 1;
#X connect 8 0 2 1;
#X connect 9 0 1 0;
#X connect 9 0 2 0;
#X connect 9 0 4 0;
#X connect 10 0 11 0;
#X connect 10 1 11 1;
#X connect 11 0 8 0;
#X connect 11 0 1 1;
#X connect 12 0 10 0;
#X connect 14 0 12 0;
#X connect 15 0 7 1;
#X connect 16 0 11 0;
#X connect 17 0 14 0;
#X connect 18 0 16 0;
#X connect 19 0 15 0;
#X connect 20 0 39 0;
#X connect 21 0 23 0;
#X connect 22 0 24 0;
#X connect 22 0 25 0;
#X connect 23 0 26 1;
#X connect 24 0 23 1;
#X connect 25 0 23 2;
#X connect 26 0 13 0;
#X connect 28 0 27 0;
#X connect 29 0 30 0;
#X connect 31 0 33 0;
#X connect 32 0 34 0;
#X connect 35 0 28 0;
#X connect 35 1 29 0;
#X connect 35 2 31 0;
#X connect 35 3 32 0;
#X connect 36 0 37 0;
#X connect 37 0 35 0;
#X connect 38 0 6 0;
#X connect 39 0 7 0;
