#N canvas 0 0 1600 849 10;
#X obj 73 54 inlet~;
#X obj 73 262 outlet~;
#X text 282 73 sidechaining (connect the outlet to a *~);
#X obj 73 73 env~;
#X obj 73 92 / 100;
#X obj 73 111 change;
#X obj 100 149 delta;
#X obj 100 168 moses;
#X obj 73 237 kline~;
#X obj 73 130 t f f;
#X obj 27 193 kinv;
#X obj 100 210 f \$2;
#X obj 130 210 f \$1;
#X obj 130 191 bang;
#X obj 100 191 bang;
#X text 306 104 arguments are: attack time \, release time;
#X obj 208 111 inlet;
#X obj 154 111 inlet;
#X obj 154 130 lb \$1 10;
#X obj 208 130 lb \$2 10;
#X connect 0 0 3 0;
#X connect 3 0 4 0;
#X connect 4 0 5 0;
#X connect 5 0 9 0;
#X connect 6 0 7 0;
#X connect 7 0 14 0;
#X connect 7 1 13 0;
#X connect 8 0 1 0;
#X connect 9 0 10 0;
#X connect 9 1 6 0;
#X connect 10 0 8 0;
#X connect 11 0 8 1;
#X connect 12 0 8 1;
#X connect 13 0 12 0;
#X connect 14 0 11 0;
#X connect 16 0 19 0;
#X connect 17 0 18 0;
#X connect 18 0 12 1;
#X connect 19 0 11 1;
