#N canvas 800 0 800 421 10;
#X obj 94 72 inlet~;
#X obj 176 52 inlet;
#X msg 124 120 control #1 \$1;
#X obj 235 213 outlet~;
#X obj 124 139 plugin~ sinusWavewrapper;
#X obj 176 77 min 10;
#X obj 176 96 max 0;
#X obj 212 52 lb \$1 3;
#X connect 0 0 4 1;
#X connect 1 0 5 0;
#X connect 2 0 4 0;
#X connect 4 1 3 0;
#X connect 5 0 6 0;
#X connect 6 0 2 0;
#X connect 7 0 5 0;
