#N canvas 0 0 1600 848 10;
#X obj 126 136 *~ 1;
#X obj 236 14 tgl 15 0 empty empty empty 17 7 0 10 -262144 -1 -1 0
1;
#X obj 278 55 - 1;
#X obj 278 75 abs;
#X obj 194 215 *~ 0;
#X obj 126 282 outlet~;
#X obj 110 49 inlet~;
#X obj 194 193 vd~ \$0-skipper;
#X obj 182 -28 inlet;
#X obj 180 262 *~ 0;
#X obj 188 115 metro;
#X obj 178 165 delwrite~ \$0-skipper 700;
#X obj 80 -10 lb \$1;
#X obj 80 9 sel 0;
#X obj 181 27 nbx 3 14 1 700 0 0 empty empty metro 37 7 0 10 -262144
-1 -1 80 256;
#X msg 80 28 30;
#X obj 182 -9 route bang float feedback state max;
#X obj 347 94 min 700;
#X obj 196 139 random;
#X obj 356 40 sel 0;
#X msg 313 70 30;
#X obj 356 17 lb \$2;
#X obj 181 41 nbx 3 14 0 700 0 0 empty empty max 37 7 0 10 -262144
-1 -1 700 256;
#X connect 0 0 5 0;
#X connect 1 0 2 0;
#X connect 1 0 4 1;
#X connect 1 0 10 0;
#X connect 2 0 3 0;
#X connect 3 0 0 1;
#X connect 4 0 5 0;
#X connect 4 0 9 0;
#X connect 6 0 0 0;
#X connect 6 0 11 0;
#X connect 7 0 4 0;
#X connect 8 0 16 0;
#X connect 9 0 11 0;
#X connect 10 0 18 0;
#X connect 12 0 13 0;
#X connect 13 0 15 0;
#X connect 13 1 14 0;
#X connect 15 0 14 0;
#X connect 16 0 1 0;
#X connect 16 2 9 1;
#X connect 16 3 1 0;
#X connect 16 4 17 0;
#X connect 17 0 22 0;
#X connect 18 0 7 0;
#X connect 19 0 20 0;
#X connect 19 1 17 0;
#X connect 20 0 17 0;
#X connect 21 0 19 0;
#X connect 22 0 18 1;
#X coords 0 -1 1 1 70 41 1 181 14;
