#N canvas 800 0 800 849 10;
#X obj 184 121 *~;
#X obj 162 168 *~;
#X obj 332 38 inlet;
#X obj 162 199 *~ 0;
#X obj 212 199 *~ 0;
#X obj 262 199 *~ 0;
#X obj 316 199 sig~;
#X obj 163 237 outlet~;
#X obj 163 37 clip~ -1 1;
#X obj 164 9 inlet~;
#X obj 487 100 cnv 15 185 45 empty empty empty 20 12 0 14 -261234 -66577
0;
#X floatatom 338 100 5 0 0 0 - - -;
#X floatatom 370 100 5 0 0 0 - - -;
#X floatatom 402 100 5 0 0 0 - - -;
#X floatatom 434 100 5 0 0 0 - - -;
#X text 493 101 f(x) = ax^3 + bx^2 + cx + d;
#X obj 422 175 * -1;
#X obj 332 57 lb \$1;
#X obj 368 38 inlet;
#X obj 404 38 inlet;
#X obj 452 38 inlet;
#X obj 404 57 lb \$3 1;
#X obj 452 57 lb \$4;
#X obj 368 57 lb \$2;
#X connect 0 0 1 1;
#X connect 0 0 4 0;
#X connect 1 0 3 0;
#X connect 2 0 17 0;
#X connect 3 0 7 0;
#X connect 4 0 7 0;
#X connect 5 0 7 0;
#X connect 6 0 7 0;
#X connect 8 0 0 0;
#X connect 8 0 0 1;
#X connect 8 0 1 0;
#X connect 8 0 5 0;
#X connect 9 0 8 0;
#X connect 11 0 3 1;
#X connect 12 0 4 1;
#X connect 12 0 16 0;
#X connect 13 0 5 1;
#X connect 14 0 6 0;
#X connect 16 0 14 0;
#X connect 17 0 11 0;
#X connect 18 0 23 0;
#X connect 19 0 21 0;
#X connect 20 0 22 0;
#X connect 21 0 13 0;
#X connect 22 0 14 0;
#X connect 23 0 12 0;
#X coords 0 -1 1 1 166 15 1 300 100;
