#N canvas 0 29 1600 849 10;
#X obj 158 189 inlet~;
#X text 129 172 capture input;
#X text 296 171 trigger input;
#X obj 45 191 inlet;
#X text 9 173 bang to play;
#X obj 158 248 rec~;
#X obj 146 356 outlet~;
#X text 150 67 automatic capture;
#X obj 146 337 recsnd~;
#X obj 136 306 sndcm~;
#X obj 43 242 route float bang;
#X msg 100 266 60;
#X obj 238 189 inlet~;
#X text 209 172 capture input;
#X obj 280 248 rec~;
#X obj 266 356 outlet~;
#X obj 266 337 recsnd~;
#X obj 256 306 sndcm~;
#X obj 296 189 inlet;
#X connect 0 0 5 0;
#X connect 3 0 10 0;
#X connect 5 0 9 0;
#X connect 5 0 8 1;
#X connect 8 0 6 0;
#X connect 9 0 8 0;
#X connect 10 0 9 0;
#X connect 10 0 17 0;
#X connect 10 1 11 0;
#X connect 11 0 9 0;
#X connect 11 0 17 0;
#X connect 12 0 14 0;
#X connect 14 0 17 0;
#X connect 14 0 16 1;
#X connect 16 0 15 0;
#X connect 17 0 16 0;
#X connect 18 0 14 1;
#X connect 18 0 5 1;
