#N canvas 0 0 1600 871 10;
#X obj 67 252 inlet~;
#X obj 347 350 outlet~;
#X msg 132 238 control #1 \$1;
#X msg 223 238 control #2 \$1;
#X obj 96 181 inlet;
#X msg 325 238 control #3 \$1;
#X msg 428 257 control #4 \$1;
#X obj 187 181 inlet;
#X obj 223 219 max 0;
#X obj 289 181 inlet;
#X obj 325 200 min 1;
#X obj 325 219 max 0;
#X obj 392 181 inlet;
#X obj 428 200 min 1;
#X obj 428 219 max 0;
#X obj 132 200 min 5;
#X obj 132 219 max 0;
#X obj 132 181 lb \$1 1;
#X text -29 147 filter type (0=bypass \, 1=lp \, 2=hp \, 3=bp \, 4=br
\, 5=ap);
#X text 205 167 freq;
#X obj 268 289 plugin~ svf;
#X text 320 168 Q;
#X text 404 168 resonance;
#X obj 325 181 lb \$3 0.5;
#X obj 428 181 lb \$4 0.5;
#X obj 223 200 min 6000;
#X obj 223 181 lb \$2 6000;
#X text 174 88 state variable filter (resonance shouldn't be used with
bandpass mode);
#X obj 72 219 s \$0-t;
#N canvas 0 0 1600 871 protect 0;
#X obj 482 213 inlet;
#X obj 482 232 f;
#X obj 547 216 sel 3;
#X obj 547 197 r \$0-t;
#X obj 482 251 spigot;
#X msg 547 235 0;
#X obj 574 235 t b b;
#X obj 574 254 bng 15 250 50 0 empty empty empty 17 7 0 10 -262144
-1 -1;
#X msg 601 254 1;
#X obj 482 270 outlet;
#X text 455 129 this subpatch protects against use of resonance when
the bandpass mode is active (it creates NASTY NOISES otherwise);
#X connect 0 0 1 0;
#X connect 1 0 4 0;
#X connect 2 0 5 0;
#X connect 2 1 6 0;
#X connect 3 0 2 0;
#X connect 4 0 9 0;
#X connect 5 0 4 1;
#X connect 6 0 7 0;
#X connect 6 1 8 0;
#X connect 7 0 1 0;
#X connect 8 0 4 1;
#X restore 428 238 pd protect;
#X connect 0 0 20 1;
#X connect 2 0 20 0;
#X connect 3 0 20 0;
#X connect 4 0 15 0;
#X connect 5 0 20 0;
#X connect 6 0 20 0;
#X connect 7 0 25 0;
#X connect 8 0 3 0;
#X connect 9 0 10 0;
#X connect 10 0 11 0;
#X connect 11 0 5 0;
#X connect 12 0 13 0;
#X connect 13 0 14 0;
#X connect 14 0 29 0;
#X connect 15 0 16 0;
#X connect 16 0 2 0;
#X connect 16 0 28 0;
#X connect 17 0 15 0;
#X connect 20 1 1 0;
#X connect 23 0 10 0;
#X connect 24 0 13 0;
#X connect 25 0 8 0;
#X connect 26 0 25 0;
#X connect 29 0 6 0;
