#N canvas 0 0 1600 870 10;
#X msg 199 172 control #1 \$1;
#X obj 305 224 outlet~;
#X obj 406 57 inlet;
#X obj 163 52 inlet~;
#X obj 407 106 min 1;
#X obj 407 128 max 0;
#X obj 235 259 print tap_pinknoise;
#X obj 256 198 plugin~ tap_doubler;
#X obj 215 61 inlet~;
#X obj 458 107 min 1;
#X obj 458 129 max 0;
#X obj 417 81 route float time pitch;
#X msg 379 159 control #2 \$1;
#X text 365 221 idk what the second outlet is for \, it doesn't seem
to work...;
#X connect 0 0 7 0;
#X connect 2 0 11 0;
#X connect 3 0 7 1;
#X connect 4 0 5 0;
#X connect 5 0 0 0;
#X connect 7 0 6 0;
#X connect 7 1 1 0;
#X connect 8 0 7 2;
#X connect 9 0 10 0;
#X connect 10 0 12 0;
#X connect 11 0 4 0;
#X connect 11 1 4 0;
#X connect 11 2 9 0;
#X connect 12 0 7 0;
