#N canvas 0 0 798 868 10;
#X msg 210 162 control #1 \$1;
#X obj 239 42 inlet~;
#X obj 307 41 inlet~;
#X obj 331 218 outlet~;
#X obj 408 218 outlet~;
#X obj 406 57 inlet;
#X obj 406 77 route float freq phaseshift phase shift depth delay contour
;
#X obj 410 101 max 0;
#X obj 410 121 min 5;
#X obj 480 102 max 0;
#X obj 480 122 min 180;
#X msg 405 150 control #2 \$1;
#X obj 637 106 max 0;
#X obj 585 104 max 0;
#X obj 585 124 min 100;
#X obj 637 126 min 100;
#X msg 524 153 control #3 \$1;
#X msg 639 156 control #4 \$1;
#X obj 693 104 max 20;
#X obj 693 124 min 20000;
#X msg 660 184 control #5 \$1;
#X obj 255 198 plugin~ tap_chorusflanger;
#X obj 235 259 print tap_chorus_flanger;
#X connect 0 0 21 0;
#X connect 1 0 21 1;
#X connect 2 0 21 2;
#X connect 5 0 6 0;
#X connect 6 0 7 0;
#X connect 6 1 7 0;
#X connect 6 2 9 0;
#X connect 6 3 9 0;
#X connect 6 4 9 0;
#X connect 6 5 13 0;
#X connect 6 6 12 0;
#X connect 6 7 18 0;
#X connect 7 0 8 0;
#X connect 8 0 0 0;
#X connect 9 0 10 0;
#X connect 10 0 11 0;
#X connect 11 0 21 0;
#X connect 12 0 15 0;
#X connect 13 0 14 0;
#X connect 14 0 16 0;
#X connect 15 0 17 0;
#X connect 16 0 21 0;
#X connect 17 0 21 0;
#X connect 18 0 19 0;
#X connect 19 0 20 0;
#X connect 20 0 21 0;
#X connect 21 0 22 0;
#X connect 21 1 3 0;
#X connect 21 2 4 0;
