#N canvas 0 0 1598 868 10;
#X obj 359 252 plugin~ tap_reflector;
#X msg 260 222 control #1 \$1;
#X obj 435 99 inlet;
#X obj 337 97 inlet~;
#X obj 286 172 max 20;
#X obj 286 191 min 1600;
#X text 139 223 fragment length (in ms);
#X obj 463 296 outlet~;
#X connect 0 1 7 0;
#X connect 1 0 0 0;
#X connect 2 0 4 0;
#X connect 3 0 0 1;
#X connect 4 0 5 0;
#X connect 5 0 1 0;
