#N canvas 0 0 800 871 10;
#X obj 309 227 plugin~ tap_autopanner;
#X obj 213 132 lb \$1;
#X obj 151 84 inlet;
#X obj 151 107 route float freq depth;
#X msg 184 184 control #1 \$1;
#X msg 273 188 control #2 \$1;
#X obj 270 136 lb \$2;
#X obj 381 311 outlet~;
#X obj 332 115 inlet~;
#X obj 391 110 inlet~;
#X obj 429 311 outlet~;
#X connect 0 1 7 0;
#X connect 0 2 10 0;
#X connect 1 0 4 0;
#X connect 2 0 3 0;
#X connect 3 0 4 0;
#X connect 3 1 4 0;
#X connect 3 2 5 0;
#X connect 4 0 0 0;
#X connect 5 0 0 0;
#X connect 6 0 5 0;
#X connect 8 0 0 1;
#X connect 9 0 0 2;
