#N canvas 800 0 800 871 10;
#X obj 42 128 inlet~;
#X obj 164 60 inlet;
#X msg 144 120 control #1 \$1;
#X obj 231 222 outlet~;
#X obj 260 60 inlet;
#X obj 356 60 inlet;
#X obj 451 60 inlet;
#X msg 429 120 control #4 \$1;
#X obj 556 60 inlet;
#X obj 508 60 lb \$5 3;
#X obj 540 82 min 30;
#X obj 540 101 max 2;
#X text 517 47 lfo freq (Hz);
#X msg 540 120 control #5 \$1;
#X obj 144 159 plugin~ tap_stereo_echo;
#X obj 292 221 outlet~;
#X obj 84 128 inlet~;
#X obj 144 101 clip 0 2000;
#X text 103 47 l delay (ms);
#X obj 104 60 lb \$1 500;
#X text 202 47 r/haas delay (ms);
#X obj 200 60 lb \$2 530;
#X obj 233 101 clip 0 2000;
#X msg 233 120 control #3 \$1;
#X text 313 47 l feedback (%);
#X text 392 47 r/haas feedback (%);
#X msg 340 120 control #2 \$1;
#X obj 340 101 clip 0 100;
#X obj 302 60 lb \$3 25;
#X obj 429 101 clip 0 100;
#X obj 397 60 lb \$4 25;
#X connect 0 0 14 1;
#X connect 1 0 17 0;
#X connect 2 0 14 0;
#X connect 4 0 22 0;
#X connect 5 0 27 0;
#X connect 6 0 29 0;
#X connect 7 0 14 0;
#X connect 8 0 10 0;
#X connect 9 0 10 0;
#X connect 10 0 11 0;
#X connect 11 0 13 0;
#X connect 13 0 14 0;
#X connect 14 1 3 0;
#X connect 14 2 15 0;
#X connect 16 0 14 2;
#X connect 17 0 2 0;
#X connect 19 0 17 0;
#X connect 21 0 22 0;
#X connect 22 0 23 0;
#X connect 23 0 14 0;
#X connect 26 0 14 0;
#X connect 27 0 26 0;
#X connect 28 0 27 0;
#X connect 29 0 7 0;
#X connect 30 0 29 0;
