#N canvas 0 0 1600 849 10;
#X obj 43 132 inlet~;
#X obj 322 341 outlet~;
#X obj 223 266 plugin~ tapeDelay;
#X msg 102 138 control #1 \$1;
#X obj 66 81 inlet;
#X obj 187 61 inlet;
#X obj 337 62 inlet;
#X text 25 66 tape speed (inches/sec);
#X obj 102 81 lb \$1 1;
#X obj 102 100 min 10;
#X obj 102 119 max 0;
#X msg 378 302 control #2 -90;
#X obj 378 283 loadbang;
#X text 180 47 distance (inches);
#X obj 182 86 route float;
#X obj 203 128 unpack f f;
#X msg 182 105 \$1 1;
#X obj 203 147 clip 0 4;
#X obj 223 169 pack f f;
#X msg 223 188 control #\$2 \$1;
#X obj 260 147 expr ($i1*2)+1;
#X obj 223 61 lb \$2 2;
#X text 341 49 level (dB);
#X obj 373 62 lb \$3 0;
#X obj 373 169 pack f f;
#X obj 361 128 unpack f f;
#X obj 361 147 clip 0 4;
#X msg 373 188 control #\$2 \$1;
#X obj 359 86 route float;
#X msg 359 105 \$1 1;
#X obj 418 147 expr ($i1*2)+2;
#X connect 0 0 2 1;
#X connect 2 1 1 0;
#X connect 3 0 2 0;
#X connect 4 0 9 0;
#X connect 5 0 14 0;
#X connect 6 0 28 0;
#X connect 8 0 9 0;
#X connect 9 0 10 0;
#X connect 10 0 3 0;
#X connect 11 0 2 0;
#X connect 12 0 11 0;
#X connect 14 0 16 0;
#X connect 14 1 15 0;
#X connect 15 0 17 0;
#X connect 15 1 20 0;
#X connect 16 0 15 0;
#X connect 17 0 18 0;
#X connect 18 0 19 0;
#X connect 19 0 2 0;
#X connect 20 0 18 1;
#X connect 21 0 14 0;
#X connect 23 0 28 0;
#X connect 24 0 27 0;
#X connect 25 0 26 0;
#X connect 25 1 30 0;
#X connect 26 0 24 0;
#X connect 27 0 2 0;
#X connect 28 0 29 0;
#X connect 28 1 25 0;
#X connect 29 0 25 0;
#X connect 30 0 24 1;
