#N canvas 0 0 800 421 10;
#X obj 167 252 inlet~;
#X obj 347 350 outlet~;
#X msg 232 238 control #1 \$1;
#X msg 334 238 control #2 \$1;
#X obj 196 181 inlet;
#X obj 298 181 inlet;
#X obj 334 200 min 1;
#X obj 334 219 max 0;
#X obj 268 289 plugin~ valveRect;
#X obj 232 200 min 1;
#X obj 232 219 max 0;
#X text 206 168 sag level;
#X text 308 168 distortion;
#X obj 232 181 lb \$1 0.75;
#X obj 334 181 lb \$2 0.5;
#X connect 0 0 8 1;
#X connect 2 0 8 0;
#X connect 3 0 8 0;
#X connect 4 0 9 0;
#X connect 5 0 6 0;
#X connect 6 0 7 0;
#X connect 7 0 3 0;
#X connect 8 1 1 0;
#X connect 9 0 10 0;
#X connect 10 0 2 0;
#X connect 13 0 9 0;
#X connect 14 0 6 0;
