#N canvas 0 0 800 421 10;
#X obj 137 252 inlet~;
#X obj 347 350 outlet~;
#X msg 202 238 control #1 \$1;
#X msg 293 238 control #2 \$1;
#X obj 166 181 inlet;
#X obj 202 181 lb \$1;
#X obj 257 181 inlet;
#X obj 293 200 min 1;
#X obj 293 219 max 0;
#X obj 293 181 lb \$2;
#X obj 268 289 plugin~ valve;
#X obj 202 200 min 1;
#X obj 202 219 max 0;
#X text 155 166 dist level;
#X text 251 167 dist character;
#X connect 0 0 10 1;
#X connect 2 0 10 0;
#X connect 3 0 10 0;
#X connect 4 0 11 0;
#X connect 5 0 11 0;
#X connect 6 0 7 0;
#X connect 7 0 8 0;
#X connect 8 0 3 0;
#X connect 9 0 7 0;
#X connect 10 1 1 0;
#X connect 11 0 12 0;
#X connect 12 0 2 0;
