#N canvas 598 235 459 428 10;
#X obj 130 94 mtx 7 6;
#X msg 130 69 bang;
#X obj 228 62 mtx_eye 7 6;
#X msg 227 39 bang;
#X obj 174 207 print values;
#X obj 274 201 list prepend matrix 7 6;
#X obj 274 225 list trim;
#X obj 271 131 f 0;
#X obj 323 79 expr 7*6;
#X obj 323 100 until;
#X msg 325 54 bang;
#X msg 263 92 0;
#X obj 284 259 print inp;
#X obj 398 158 t a;
#X obj 295 159 list prepend;
#X obj 273 182 list;
#X msg 247 156 bang;
#X floatatom 378 105 5 0 0 0 - - -;
#X obj 351 133 print;
#X obj 310 131 + 1;
#X msg 393 134 bang;
#X obj 171 348 print idx;
#X obj 165 321 list-idx 1;
#X obj 129 177 list split 3;
#X obj 74 245 mtx_print;
#X floatatom 315 399 5 0 0 0 - - -;
#X obj 308 301 unpack 0 0;
#X obj 307 373 +;
#X obj 371 329 - 1;
#X obj 306 328 - 1;
#X obj 306 350 * 6;
#X msg 310 281 4 2;
#X connect 0 0 23 0;
#X connect 0 0 24 0;
#X connect 1 0 0 0;
#X connect 2 0 0 0;
#X connect 3 0 2 0;
#X connect 5 0 6 0;
#X connect 6 0 0 0;
#X connect 6 0 12 0;
#X connect 7 0 14 0;
#X connect 7 0 18 0;
#X connect 7 0 19 0;
#X connect 8 0 9 0;
#X connect 8 0 17 0;
#X connect 9 0 7 0;
#X connect 10 0 8 0;
#X connect 11 0 7 1;
#X connect 13 0 14 1;
#X connect 14 0 13 0;
#X connect 14 0 15 1;
#X connect 15 0 5 0;
#X connect 16 0 15 0;
#X connect 19 0 7 1;
#X connect 20 0 14 1;
#X connect 22 0 21 0;
#X connect 23 1 4 0;
#X connect 23 1 22 0;
#X connect 26 0 29 0;
#X connect 26 1 28 0;
#X connect 27 0 25 0;
#X connect 27 0 22 1;
#X connect 28 0 27 1;
#X connect 29 0 30 0;
#X connect 30 0 27 0;
#X connect 31 0 26 0;
