#N canvas 0 0 844 391 10;
#X obj 268 280 outlet;
#X obj 268 199 * 0.01;
#X obj 473 161 +;
#X obj 538 118 - 1;
#X obj 473 117 - 1;
#X obj 473 139 * 6;
#X msg 467 17 bang;
#X obj 473 90 f \$1;
#X obj 537 92 f \$2;
#X obj 473 37 loadbang;
#X obj 338 160 * 100;
#X obj 269 32 r \$3-matrix-elements;
#X obj 308 101 list split;
#X obj 340 140 list split 1;
#X obj 268 222 list prepend element \$1 \$2;
#X obj 268 252 list trim;
#X obj 269 75 list split 2;
#X obj 101 101 cnv 10 73 38 empty \$0-bg 1->2 4 4 1 12 -262144 -1 0
;
#X obj 139 121 cnv 3 35 3 empty \$0-fb empty 20 12 0 14 -1 -1 0;
#X msg 101 77 set \$1;
#X obj 699 129 makefilename;
#X msg 701 151 label \$1;
#X msg 709 99 set \$1->%d;
#X floatatom 101 114 5 0 10000 0 - - -;
#X obj 473 60 t b b b;
#N canvas 0 0 450 300 colorize-dial 0;
#X obj 95 48 inlet;
#X obj 116 90 f;
#X obj 136 250 s \$0-fb;
#X obj 133 118 > 0;
#X obj 133 143 select 0 1;
#X obj 138 190 list;
#X obj 138 216 list trim;
#X msg 209 191 color -1 -1 -1;
#X obj 215 140 r \$0-bg-color;
#X obj 162 39 inlet;
#X obj 159 64 b;
#X connect 0 0 1 0;
#X connect 1 0 3 0;
#X connect 3 0 4 0;
#X connect 4 0 5 0;
#X connect 4 1 7 0;
#X connect 5 0 6 0;
#X connect 6 0 2 0;
#X connect 7 0 2 0;
#X connect 8 0 5 1;
#X connect 9 0 10 0;
#X connect 10 0 1 0;
#X restore 93 216 pd colorize-dial;
#X obj 105 182 r \$0-redraw-dial;
#N canvas 0 0 471 533 set-bgcolor 0;
#X obj 110 59 inlet;
#X obj 141 364 s \$0-bg;
#X obj 110 314 colorize;
#X obj 110 127 mod 2;
#X obj 140 428 s \$0-bg-color;
#X obj 110 156 select 1 0;
#X obj 110 389 t b a;
#X msg 110 195 f f f 0 0 0 0 0 0;
#X msg 237 230 e e e 0 0 0 0 0 0;
#X obj 237 101 select 0 1;
#X obj 207 71 t b a;
#X obj 182 285 list;
#X msg 269 209 b b b 0 0 0 0 0 0;
#X obj 110 457 s \$0-redraw-dial;
#X obj 205 49 inlet;
#X connect 0 0 3 0;
#X connect 2 0 1 0;
#X connect 2 0 6 0;
#X connect 3 0 5 0;
#X connect 5 0 7 0;
#X connect 5 1 11 0;
#X connect 6 0 13 0;
#X connect 6 1 4 0;
#X connect 7 0 2 0;
#X connect 8 0 2 0;
#X connect 8 0 11 1;
#X connect 9 0 8 0;
#X connect 9 1 12 0;
#X connect 10 0 3 0;
#X connect 10 1 9 0;
#X connect 11 0 2 0;
#X connect 12 0 2 0;
#X connect 12 0 11 1;
#X connect 14 0 10 0;
#X restore 510 195 pd set-bgcolor;
#X obj 707 172 s \$0-bg;
#X msg 572 149 0;
#X obj 510 159 +;
#X obj 269 55 route matrix bg;
#X obj 57 47 inlet;
#X connect 1 0 14 0;
#X connect 2 0 12 1;
#X connect 3 0 2 1;
#X connect 4 0 5 0;
#X connect 5 0 2 0;
#X connect 6 0 24 0;
#X connect 7 0 4 0;
#X connect 7 0 20 0;
#X connect 7 0 30 0;
#X connect 8 0 3 0;
#X connect 8 0 22 0;
#X connect 8 0 30 1;
#X connect 9 0 24 0;
#X connect 10 0 19 0;
#X connect 10 0 25 0;
#X connect 11 0 31 0;
#X connect 12 1 13 0;
#X connect 13 0 10 0;
#X connect 14 0 15 0;
#X connect 15 0 0 0;
#X connect 16 1 12 0;
#X connect 19 0 23 0;
#X connect 20 0 21 0;
#X connect 21 0 28 0;
#X connect 22 0 20 0;
#X connect 23 0 1 0;
#X connect 23 0 25 0;
#X connect 24 0 7 0;
#X connect 24 1 8 0;
#X connect 24 2 29 0;
#X connect 26 0 25 1;
#X connect 29 0 27 1;
#X connect 30 0 27 0;
#X connect 31 0 16 0;
#X connect 31 1 27 1;
#X connect 31 2 23 0;
#X connect 32 0 23 0;
#X coords 0 -1 1 1 75 40 1 100 100;
