#N canvas 0 0 1600 849 10;
#X obj 492 342 s~ \$0-a1;
#X obj 492 363 s~ \$0-a2;
#X obj 492 384 s~ \$0-a3;
#X obj 492 31 r \$0-vel;
#X obj 42 296 cnv 15 450 40 empty \$0-background-cnv empty 20 12 1
14 -128992 -158106 0;
#X obj 46 313 nbx 5 14 0 20 0 0 \$0-freq_ratio1 \$0-freq_ratio1 Frq_Rat1
0 -6 1 10 -158106 -155649 -228225 1 256;
#X obj 121 314 nbx 5 14 0 20 0 0 \$0-freq_ratio2 \$0-freq_ratio2 Frq_Rat2
0 -6 1 10 -158106 -155649 -228225 0.5 256;
#X obj 196 314 nbx 5 14 0 20 0 0 \$0-freq_ratio3 \$0-freq_ratio3 Frq_Rat3
0 -6 1 10 -158106 -155649 -228225 0.25 256;
#X obj 212 526 outlet~;
#N canvas 0 0 1600 849 matrix-and-osc 0;
#X obj 462 422 outlet~;
#X obj 268 55 inlet;
#X obj 293 494 s~ \$0-p3;
#X obj 281 514 s~ \$0-p2;
#X obj 269 537 s~ \$0-p1;
#X obj 306 471 s~ \$0-p4;
#X obj 319 448 s~ \$0-p5;
#X obj 332 428 s~ \$0-p6;
#N canvas 0 0 334 338 osc1 0;
#X obj 107 262 outlet~;
#X obj 126 184 r~ \$0-p1;
#X obj 108 164 r \$0-f1;
#X obj 108 233 dxpmosc~;
#X obj 146 206 r~ \$0-a1;
#X connect 1 0 3 1;
#X connect 2 0 3 0;
#X connect 3 0 0 0;
#X connect 4 0 3 2;
#X restore 276 165 pd osc1;
#N canvas 0 0 334 338 osc2 0;
#X obj 107 262 outlet~;
#X obj 108 233 dxpmosc~;
#X obj 108 164 r \$0-f2;
#X obj 126 184 r~ \$0-p2;
#X obj 145 207 r~ \$0-a2;
#X connect 1 0 0 0;
#X connect 2 0 1 0;
#X connect 3 0 1 1;
#X connect 4 0 1 2;
#X restore 287 185 pd osc2;
#N canvas 0 0 334 338 osc3 0;
#X obj 107 262 outlet~;
#X obj 108 233 dxpmosc~;
#X obj 108 164 r \$0-f3;
#X obj 126 184 r~ \$0-p3;
#X obj 146 206 r~ \$0-a3;
#X connect 1 0 0 0;
#X connect 2 0 1 0;
#X connect 3 0 1 1;
#X connect 4 0 1 2;
#X restore 296 205 pd osc3;
#N canvas 0 0 334 338 osc4 0;
#X obj 107 262 outlet~;
#X obj 108 233 dxpmosc~;
#X obj 108 164 r \$0-f4;
#X obj 126 183 r~ \$0-p4;
#X obj 146 206 r~ \$0-a4;
#X connect 1 0 0 0;
#X connect 2 0 1 0;
#X connect 3 0 1 1;
#X connect 4 0 1 2;
#X restore 306 225 pd osc4;
#N canvas 0 0 334 338 osc5 0;
#X obj 107 262 outlet~;
#X obj 108 233 dxpmosc~;
#X obj 108 164 r \$0-f5;
#X obj 126 184 r~ \$0-p5;
#X obj 146 206 r~ \$0-a5;
#X connect 1 0 0 0;
#X connect 2 0 1 0;
#X connect 3 0 1 1;
#X connect 4 0 1 2;
#X restore 315 245 pd osc5;
#N canvas 0 0 334 338 osc6 0;
#X obj 107 262 outlet~;
#X obj 108 233 dxpmosc~;
#X obj 108 164 r \$0-f6;
#X obj 126 184 r~ \$0-p6;
#X obj 146 206 r~ \$0-a6;
#X connect 1 0 0 0;
#X connect 2 0 1 0;
#X connect 3 0 1 1;
#X connect 4 0 1 2;
#X restore 324 265 pd osc6;
#X obj 117 129 s \$0-matrix-elements;
#X obj 363 164 mtx_print;
#X obj 363 144 spigot 0;
#X obj 414 116 r \$0-print-matrix;
#X obj 517 363 s \$0-matrix-elements;
#X obj 463 294 t b a;
#X obj 463 271 inlet;
#X obj 268 128 mtx 6 6;
#X obj 268 92 t b a;
#X obj 117 54 pdx7.save \$1 /mod \$0;
#X obj 517 317 pdx7.save \$1 /car \$0;
#X obj 463 317 mtx 2 6;
#X obj 529 423 outlet~;
#X obj 117 91 list trim;
#X obj 517 340 list trim;
#X obj 463 389 mtx_mul~ 2 6;
#X obj 268 344 mtx_mul~ 6 6;
#X connect 1 0 22 0;
#X connect 8 0 29 1;
#X connect 8 0 30 1;
#X connect 9 0 29 2;
#X connect 9 0 30 2;
#X connect 10 0 29 3;
#X connect 10 0 30 3;
#X connect 11 0 29 4;
#X connect 11 0 30 4;
#X connect 12 0 29 5;
#X connect 12 0 30 5;
#X connect 13 0 29 6;
#X connect 13 0 30 6;
#X connect 16 0 15 0;
#X connect 17 0 16 1;
#X connect 19 0 25 0;
#X connect 19 1 25 0;
#X connect 20 0 19 0;
#X connect 21 0 16 0;
#X connect 21 0 23 0;
#X connect 21 0 30 0;
#X connect 22 0 21 0;
#X connect 22 1 21 0;
#X connect 23 0 22 0;
#X connect 23 0 27 0;
#X connect 24 0 19 0;
#X connect 24 0 28 0;
#X connect 25 0 24 0;
#X connect 25 0 29 0;
#X connect 27 0 14 0;
#X connect 28 0 18 0;
#X connect 29 0 0 0;
#X connect 29 1 26 0;
#X connect 30 0 4 0;
#X connect 30 1 3 0;
#X connect 30 2 2 0;
#X connect 30 3 5 0;
#X connect 30 4 6 0;
#X connect 30 5 7 0;
#X restore 213 481 pd matrix-and-osc;
#X obj 491 403 s~ \$0-a4;
#X obj 491 423 s~ \$0-a5;
#X obj 491 443 s~ \$0-a6;
#N canvas 0 0 1600 849 note-in 0;
#X floatatom 112 184 5 0 0 1 base_frequency - -;
#N canvas 0 0 1600 849 \$0-freq_ratios 0;
#X obj 158 209 s \$0-f2;
#X obj 158 188 * 0;
#X obj 174 137 r \$0-freq_ratio2;
#X obj 174 159 t b f;
#X obj 174 58 t b f;
#X obj 155 289 * 0;
#X obj 171 260 t b f;
#X obj 174 36 r \$0-freq_ratio1;
#X obj 158 108 s \$0-f1;
#X obj 171 238 r \$0-freq_ratio3;
#X obj 155 310 s \$0-f3;
#X obj 59 56 inlet;
#X obj 152 389 * 0;
#X obj 168 360 t b f;
#X obj 156 490 * 0;
#X obj 172 461 t b f;
#X obj 157 583 * 0;
#X obj 173 554 t b f;
#X obj 168 338 r \$0-freq_ratio4;
#X obj 172 439 r \$0-freq_ratio5;
#X obj 173 532 r \$0-freq_ratio6;
#X obj 152 410 s \$0-f4;
#X obj 156 511 s \$0-f5;
#X obj 157 604 s \$0-f6;
#X obj 159 87 * 0;
#X connect 1 0 0 0;
#X connect 2 0 3 0;
#X connect 3 0 1 0;
#X connect 3 1 1 1;
#X connect 4 0 24 0;
#X connect 4 1 24 1;
#X connect 5 0 10 0;
#X connect 6 0 5 0;
#X connect 6 1 5 1;
#X connect 7 0 4 0;
#X connect 9 0 6 0;
#X connect 11 0 1 0;
#X connect 11 0 5 0;
#X connect 11 0 12 0;
#X connect 11 0 14 0;
#X connect 11 0 16 0;
#X connect 11 0 24 0;
#X connect 12 0 21 0;
#X connect 13 0 12 0;
#X connect 13 1 12 1;
#X connect 14 0 22 0;
#X connect 15 0 14 0;
#X connect 15 1 14 1;
#X connect 16 0 23 0;
#X connect 17 0 16 0;
#X connect 17 1 16 1;
#X connect 18 0 13 0;
#X connect 19 0 15 0;
#X connect 20 0 17 0;
#X connect 24 0 8 0;
#X restore 103 202 pd \$0-freq_ratios;
#X obj 103 163 mtof;
#X obj 103 41 inlet;
#X obj 198 152 s \$0-vel;
#X obj 198 130 / 127;
#X obj 103 94 unpack 0 0;
#X connect 2 0 1 0;
#X connect 3 0 6 0;
#X connect 5 0 4 0;
#X connect 6 0 2 0;
#X connect 6 1 5 0;
#X restore 651 547 pd note-in;
#X obj 117 404 t a;
#X obj 42 403 t a;
#X obj 192 406 t a;
#X obj 267 406 t a;
#X obj 342 406 t a;
#X obj 417 406 t a;
#X obj 651 515 inlet;
#X obj 763 32 cnv 15 75 20 empty empty 2ch_out 15 10 1 14 -262144 -195568
0;
#X obj 270 315 nbx 5 14 0 20 0 0 \$0-freq_ratio4 \$0-freq_ratio4 Frq_Rat4
0 -6 1 10 -158106 -155649 -228225 3 256;
#X obj 346 315 nbx 5 14 0 20 0 0 \$0-freq_ratio5 \$0-freq_ratio5 Frq_Rat5
0 -6 1 10 -158106 -155649 -228225 1 256;
#X obj 420 315 nbx 5 14 0 20 0 0 \$0-freq_ratio6 \$0-freq_ratio6 Frq_Rat6
0 -6 1 10 -158106 -155649 -228225 2 256;
#X obj 765 359 t a;
#X obj 492 94 pdx7.adsr~ \$1_a2;
#X obj 492 134 pdx7.adsr~ \$1_a3;
#X obj 492 174 pdx7.adsr~ \$1_a4;
#X obj 492 214 pdx7.adsr~ \$1_a5;
#X obj 492 254 pdx7.adsr~ \$1_a6;
#X obj 651 433 originator \$1 \$0;
#X obj 758 8 inlet;
#X obj 758 468 outlet;
#N canvas 0 0 450 300 fr-commun 0;
#X obj 62 43 r \$0-freq_ratio1;
#X obj 62 83 s \$0-freq_ratio1;
#X obj 62 62 pdx7.save \$1 /fr1 \$0;
#X obj 61 105 r \$0-freq_ratio2;
#X obj 61 124 pdx7.save \$1 /fr2 \$0;
#X obj 61 145 s \$0-freq_ratio2;
#X obj 60 168 r \$0-freq_ratio3;
#X obj 60 187 pdx7.save \$1 /fr3 \$0;
#X obj 60 208 s \$0-freq_ratio3;
#X obj 216 43 r \$0-freq_ratio4;
#X obj 216 62 pdx7.save \$1 /fr4 \$0;
#X obj 216 83 s \$0-freq_ratio4;
#X obj 215 105 r \$0-freq_ratio5;
#X obj 215 124 pdx7.save \$1 /fr5 \$0;
#X obj 215 145 s \$0-freq_ratio5;
#X obj 214 168 r \$0-freq_ratio6;
#X obj 214 187 pdx7.save \$1 /fr6 \$0;
#X obj 214 208 s \$0-freq_ratio6;
#X connect 0 0 2 0;
#X connect 2 0 1 0;
#X connect 3 0 4 0;
#X connect 4 0 5 0;
#X connect 6 0 7 0;
#X connect 7 0 8 0;
#X connect 9 0 10 0;
#X connect 10 0 11 0;
#X connect 12 0 13 0;
#X connect 13 0 14 0;
#X connect 15 0 16 0;
#X connect 16 0 17 0;
#X restore 652 467 pd fr-commun;
#X obj 500 296 cnv 5 348 40 empty \$0-background-cnv PDX7_V2 70 18
1 30 -128992 -195568 0;
#X obj 788 313 tgl 15 0 \$0-print-matrix \$0-print-matrix matrix 0
-6 0 8 -143491 -195568 -195568 0 1;
#X obj 493 296 cnv 5 10 40 empty \$0-background-cnv empty 70 18 1 30
-66577 -195568 0;
#X obj 492 54 pdx7.adsr~ \$1_a1;
#X obj 332 32 cnv 15 150 20 empty empty mod_matrix 20 10 1 14 -262144
-195568 0;
#X text 648 498 in: note vel;
#X text 812 470 OSC-out;
#X text 808 6 OSC-in;
#X obj 117 54 me 1 2 \$0;
#X obj 192 54 me 1 3 \$0;
#X obj 417 94 me 2 6 \$0;
#X obj 267 54 me 1 4 \$0;
#X obj 42 54 me 1 1 \$0;
#X obj 117 94 me 2 2 \$0;
#X obj 417 54 me 1 6 \$0;
#X obj 117 174 me 4 2 \$0;
#X obj 42 94 me 2 1 \$0;
#X obj 192 94 me 2 3 \$0;
#X obj 192 134 me 3 3 \$0;
#X obj 117 134 me 3 2 \$0;
#X obj 42 134 me 3 1 \$0;
#X obj 42 174 me 4 1 \$0;
#X obj 192 174 me 4 3 \$0;
#X obj 42 214 me 5 1 \$0;
#X obj 42 254 me 6 1 \$0;
#X obj 117 214 me 5 2 \$0;
#X obj 117 254 me 6 2 \$0;
#X obj 192 214 me 5 3 \$0;
#X obj 192 254 me 6 3 \$0;
#X obj 267 94 me 2 4 \$0;
#X obj 267 134 me 3 4 \$0;
#X obj 267 174 me 4 4 \$0;
#X obj 267 214 me 5 4 \$0;
#X obj 267 254 me 6 4 \$0;
#X obj 342 54 me 1 5 \$0;
#X obj 342 94 me 2 5 \$0;
#X obj 342 134 me 3 5 \$0;
#X obj 342 174 me 4 5 \$0;
#X obj 342 214 me 5 5 \$0;
#X obj 342 254 me 6 5 \$0;
#X obj 417 134 me 3 6 \$0;
#X obj 417 174 me 4 6 \$0;
#X obj 417 214 me 5 6 \$0;
#X obj 417 254 me 6 6 \$0;
#X obj 327 523 outlet~;
#X obj 765 54 mes 1 1 \$0o;
#X obj 765 254 mes 1 6 \$0o;
#X obj 765 134 mes 1 3 \$0o;
#X obj 765 94 mes 1 2 \$0o;
#X obj 765 174 mes 1 4 \$0o;
#X obj 765 214 mes 1 5 \$0o;
#X connect 3 0 26 0;
#X connect 3 0 27 0;
#X connect 3 0 28 0;
#X connect 3 0 29 0;
#X connect 3 0 30 0;
#X connect 3 0 38 0;
#X connect 9 0 8 0;
#X connect 9 1 79 0;
#X connect 14 0 9 0;
#X connect 15 0 9 0;
#X connect 16 0 9 0;
#X connect 17 0 9 0;
#X connect 18 0 9 0;
#X connect 19 0 9 0;
#X connect 20 0 13 0;
#X connect 25 0 9 1;
#X connect 26 0 1 0;
#X connect 26 1 33 0;
#X connect 27 0 2 0;
#X connect 27 1 33 0;
#X connect 28 0 10 0;
#X connect 28 1 33 0;
#X connect 29 0 11 0;
#X connect 29 1 33 0;
#X connect 30 0 12 0;
#X connect 30 1 33 0;
#X connect 31 2 33 0;
#X connect 32 0 31 1;
#X connect 32 0 26 1;
#X connect 32 0 27 1;
#X connect 32 0 28 1;
#X connect 32 0 29 1;
#X connect 32 0 30 1;
#X connect 32 0 38 1;
#X connect 38 0 0 0;
#X connect 38 1 33 0;
#X connect 43 0 14 0;
#X connect 44 0 16 0;
#X connect 45 0 19 0;
#X connect 46 0 17 0;
#X connect 47 0 15 0;
#X connect 48 0 14 0;
#X connect 49 0 19 0;
#X connect 50 0 14 0;
#X connect 51 0 15 0;
#X connect 52 0 16 0;
#X connect 53 0 16 0;
#X connect 54 0 14 0;
#X connect 55 0 15 0;
#X connect 56 0 15 0;
#X connect 57 0 16 0;
#X connect 58 0 15 0;
#X connect 59 0 15 0;
#X connect 60 0 14 0;
#X connect 61 0 14 0;
#X connect 62 0 16 0;
#X connect 63 0 16 0;
#X connect 64 0 17 0;
#X connect 65 0 17 0;
#X connect 66 0 17 0;
#X connect 67 0 17 0;
#X connect 68 0 17 0;
#X connect 69 0 18 0;
#X connect 70 0 18 0;
#X connect 71 0 18 0;
#X connect 72 0 18 0;
#X connect 73 0 18 0;
#X connect 74 0 18 0;
#X connect 75 0 19 0;
#X connect 76 0 19 0;
#X connect 77 0 19 0;
#X connect 78 0 19 0;
#X connect 80 0 25 0;
#X connect 81 0 25 0;
#X connect 82 0 25 0;
#X connect 83 0 25 0;
#X connect 84 0 25 0;
#X connect 85 0 25 0;
#X coords 0 -1 1 1 810 308 1 40 30;
