#N canvas 161 26 1061 666 10;
#X obj 284 458 ezdac~;
#X obj 284 514 Scope~ 176 75 14 3 128 -1 1 0 0 0 0 102 255 51 135 135
135 0;
#X obj 643 514 careGUI;
#X obj 135 150 rrad.pdx7~ /pdx7;
#X obj 464 514 Scope~ 176 75 14 3 128 -1 1 0 0 0 0 102 255 51 135 135
135 0;
#X obj 135 55 pack 0 100 1000;
#X floatatom 135 38 5 0 0 0 - - -;
#X floatatom 235 37 5 0 0 0 - - -;
#N canvas 0 0 582 585 poly 0;
#X obj 111 28 inlet;
#X obj 105 80 pack 0 0 0;
#X obj 56 291 outlet;
#X obj 328 97 inlet;
#X obj 110 58 poly 8;
#X obj 105 106 route 1 2 3 4 5 6 7 8;
#X obj 148 295 rrad.pdx7-ng~ /pdx7;
#X obj 149 447 throw~ out-l;
#X obj 213 427 throw~ out-r;
#X obj 150 132 rrad.pdx7-ng~ /pdx7;
#X obj 150 158 rrad.pdx7-ng~ /pdx7;
#X obj 150 187 rrad.pdx7-ng~ /pdx7;
#X obj 150 214 rrad.pdx7-ng~ /pdx7;
#X obj 148 239 rrad.pdx7-ng~ /pdx7;
#X obj 148 268 rrad.pdx7-ng~ /pdx7;
#X connect 0 0 4 0;
#X connect 1 0 5 0;
#X connect 3 0 6 1;
#X connect 3 0 9 1;
#X connect 3 0 10 1;
#X connect 3 0 11 1;
#X connect 3 0 12 1;
#X connect 3 0 13 1;
#X connect 3 0 14 1;
#X connect 4 0 1 0;
#X connect 4 1 1 1;
#X connect 4 2 1 2;
#X connect 5 0 2 0;
#X connect 5 1 9 0;
#X connect 5 2 10 0;
#X connect 5 3 11 0;
#X connect 5 4 12 0;
#X connect 5 5 13 0;
#X connect 5 6 14 0;
#X connect 5 7 6 0;
#X connect 6 0 7 0;
#X connect 6 1 8 0;
#X connect 9 0 7 0;
#X connect 9 1 8 0;
#X connect 10 0 7 0;
#X connect 10 1 8 0;
#X connect 11 0 7 0;
#X connect 11 1 8 0;
#X connect 12 0 7 0;
#X connect 12 1 8 0;
#X connect 13 0 7 0;
#X connect 13 1 8 0;
#X connect 14 0 7 0;
#X connect 14 1 8 0;
#X restore 135 129 pd poly;
#X obj 135 77 makenote;
#X obj 135 106 pack 0 0;
#X obj 210 112 r \$0-OSC;
#X floatatom 185 36 5 0 0 0 - - -;
#X obj 898 458 s \$0-OSC;
#X obj 46 442 catch~ out-l;
#X obj 947 440 catch~ out-r;
#X obj 593 105 cnv 5 348 40 empty \$0-background-cnv PDX7_V2 70 18
1 30 -128992 -195568 0;
#X obj 586 105 cnv 5 10 40 empty \$0-background-cnv empty 70 18 1 30
-66577 -195568 0;
#X msg 282 38 50 \, 54 \, 57 \, 61 \, 64;
#X obj 55 43 r NOTE;
#X connect 0 0 1 0;
#X connect 0 1 4 0;
#X connect 3 0 0 0;
#X connect 3 1 0 1;
#X connect 3 2 13 0;
#X connect 5 0 9 0;
#X connect 6 0 5 0;
#X connect 7 0 5 2;
#X connect 8 0 3 0;
#X connect 9 0 10 0;
#X connect 9 1 10 1;
#X connect 10 0 8 0;
#X connect 11 0 8 1;
#X connect 12 0 5 1;
#X connect 14 0 0 0;
#X connect 15 0 0 1;
#X connect 18 0 5 0;
#X connect 19 0 5 0;
