#N canvas 215 122 988 664 10;
#X obj 91 457 ezdac~;
#X obj 182 457 Scope~ 176 75 14 3 128 -1 1 0 0 0 0 102 255 51 135 135
135 0;
#X obj 90 71 pack 0 100 1000;
#X floatatom 90 54 5 0 0 0 - - -;
#X obj 544 459 careGUI;
#X floatatom 190 53 5 0 0 0 - - -;
#X obj 90 93 makenote;
#X obj 90 122 pack 0 0;
#X obj 547 106 cnv 5 345 40 empty \$0-background-cnv PDX7_V2 70 18
1 30 -128992 -195568 0;
#X obj 542 106 cnv 5 10 40 empty \$0-background-cnv empty 70 18 1 30
-66577 -195568 0;
#X floatatom 140 52 5 0 0 0 - - -;
#X obj 45 74 ftom;
#X floatatom 45 56 5 0 0 0 - - -;
#X msg 45 33 100;
#X msg 90 33 48;
#X obj 364 457 Scope~ 176 75 14 3 128 -1 1 0 0 0 0 102 255 51 135 135
135 0;
#X obj 90 148 rrad.pdx7~ /pdx7;
#X connect 2 0 6 0;
#X connect 3 0 2 0;
#X connect 5 0 2 2;
#X connect 6 0 7 0;
#X connect 6 1 7 1;
#X connect 7 0 16 0;
#X connect 10 0 2 1;
#X connect 11 0 3 0;
#X connect 12 0 11 0;
#X connect 13 0 12 0;
#X connect 14 0 3 0;
#X connect 16 0 0 0;
#X connect 16 0 1 0;
#X connect 16 1 15 0;
#X connect 16 1 0 1;
